<?xml version="1.0" encoding="utf-8"?>
<!-- Generator: Adobe Illustrator 16.0.0, SVG Export Plug-In . SVG Version: 6.00 Build 0)  -->
<!DOCTYPE svg PUBLIC "-//W3C//DTD SVG 1.1//EN" "http://www.w3.org/Graphics/SVG/1.1/DTD/svg11.dtd" [
	<!ENTITY ns_flows "http://ns.adobe.com/Flows/1.0/">
	<!ENTITY ns_extend "http://ns.adobe.com/Extensibility/1.0/">
	<!ENTITY ns_ai "http://ns.adobe.com/AdobeIllustrator/10.0/">
	<!ENTITY ns_graphs "http://ns.adobe.com/Graphs/1.0/">
]>
<svg version="1.1" id="Layer_1" xmlns:x="&ns_extend;" xmlns:i="&ns_ai;" xmlns:graph="&ns_graphs;"
	 xmlns="http://www.w3.org/2000/svg" xmlns:xlink="http://www.w3.org/1999/xlink" xmlns:a="http://ns.adobe.com/AdobeSVGViewerExtensions/3.0/"
	 x="0px" y="0px" width="218.412px" height="115.639px" viewBox="0 0 218.412 115.639" enable-background="new 0 0 218.412 115.639"
	 xml:space="preserve">
<g>
	<g>
		<path fill-rule="evenodd" clip-rule="evenodd" d="M91.232,0.518c-1.239,1.07-2.479,2.141-3.699,3.195
			C87.412,4.8,87.306,5.747,87.2,6.694c-0.51,0.981-1.02,1.964-1.596,3.074c0.474,1.492,0.949,2.989,1.638,5.16
			c0.341,2.266,0.819,5.248,1.225,8.239c0.16,1.18,0.185,2.381,0.22,3.574c0.051,1.745,0.104,3.493,0.068,5.238
			c-0.039,1.912-0.11,3.829-0.3,5.729c-0.128,1.281-0.027,2.519,0.044,3.79c0.078,1.395-0.346,2.824-0.603,4.229
			c-0.287,1.568-0.654,3.123-0.942,4.69c-0.246,1.335-0.336,2.705-0.658,4.02c-1.071,4.369-1.385,8.825-1.685,13.288
			c-0.043,0.633-0.145,1.272-0.307,1.887c-0.695,2.644-0.943,5.293-0.583,8.033c0.394,2.995,0.581,6.017,0.845,8.878
			c1.157,2.85,2.178,5.617,3.411,8.286c0.588,1.276,1.511,2.421,2.402,3.529c1.396,1.734,2.644,3.612,4.431,5.004
			c0.189,0.146,0.416,0.257,0.574,0.432c3.877,4.26,8.995,6.188,14.368,7.606c3.765,0.995,7.236,0.243,10.548-1.765
			c1.989-1.205,3.884-2.496,5.639-4.023c2.315-2.013,4.31-4.243,5.528-7.104c0.375-0.88,0.92-1.688,1.299-2.567
			c0.724-1.68,1.503-3.348,2.045-5.088c0.901-2.893,1.816-5.801,2.389-8.768c0.727-3.758,0.941-7.555,0.488-11.42
			c-0.373-3.174-0.594-6.352-1.403-9.457c-0.841-3.227-1.636-6.466-2.454-9.699c-0.605-2.401-1.303-4.784-1.789-7.209
			c-0.277-1.379-0.805-2.583-1.604-3.691c-2.378-3.296-4.456-6.792-7.116-9.907c-3.111-3.643-6.804-6.539-10.828-8.994
			c-1.911-1.166-3.885-2.163-5.503-3.757c-1.141-1.124-2.198-2.248-3.023-3.667c-1.116-1.919-2.551-3.652-3.836-5.474
			c-0.322-0.457-0.663-0.92-0.875-1.43c-1.126-2.716-3.204-4.496-5.682-5.904c-0.125-0.071-0.195-0.237-0.291-0.358
			c1.221-0.359,2.289-0.225,3.351,0.557c2.525,1.859,4.717,4.008,5.967,6.973c0.563,1.337,1.335,2.535,2.56,3.402
			c0.448,0.317,0.901,0.716,1.172,1.182c1.463,2.52,3.778,4.085,6.179,5.522c1.847,1.104,3.796,2.036,5.68,3.079
			c0.554,0.307,1.135,0.65,1.547,1.116c1.792,2.024,3.917,3.693,5.818,5.596c0.728,0.729,1.416,1.557,1.897,2.46
			c1.406,2.633,3.439,4.788,5.225,7.132c0.678,0.892,1.246,1.794,1.596,2.906c0.525,1.665,1.39,3.22,2.016,4.857
			c1.135,2.966,2.191,5.96,3.301,8.936c0.219,0.589,0.578,1.129,0.782,1.722c0.479,1.398,1.608,2.626,1.077,4.306
			c-0.098,0.31,0.181,0.746,0.305,1.117c1.076,3.197,1.516,6.491,1.516,9.854c0,0.559,0,1.12,0.061,1.674
			c0.385,3.531-0.342,6.997-0.695,10.477c-0.139,1.379-0.754,2.734-1.296,4.043c-0.67,1.615-1.566,3.139-2.216,4.762
			c-0.409,1.023-0.504,2.168-0.815,3.236c-0.265,0.906-0.523,1.846-0.981,2.658c-1.133,2.008-2.371,3.955-3.582,5.917
			c-0.334,0.54-0.666,1.101-1.098,1.558c-1.094,1.16-2.092,2.51-3.406,3.34c-2.136,1.35-4.406,2.6-6.783,3.422
			c-2.538,0.879-5.278,1.158-7.906,1.8c-4.243,1.035-8.219,0.05-12.147-1.44c-3.576-1.355-6.633-3.569-9.321-6.189
			c-3.023-2.948-5.977-6.113-7.505-10.11c-1.682-4.396-4.234-8.432-5.301-13.07c-0.662-2.88-1.315-5.751-1.307-8.737
			c0.013-5.363,0.518-10.681,1.345-15.975c0.296-1.894,0.478-3.806,0.778-5.699c0.187-1.18,0.53-2.334,0.741-3.511
			c0.309-1.724,0.572-3.456,0.835-5.187c0.204-1.34,0.379-2.685,0.567-4.028c0.477-3.4,0.918-6.805,1.439-10.197
			c0.535-3.485,0.572-6.996,0.662-10.504c0.075-2.9-0.439-5.732-1.161-8.52c-0.744-2.874-0.08-5.535,1.014-8.156
			c0.15-0.361,0.375-0.712,0.639-1.002C86.732,1.381,89.581,0.422,91.232,0.518z"/>
		<path fill-rule="evenodd" clip-rule="evenodd" d="M102.45,26.021c0.324-0.126,0.642-0.339,0.974-0.366
			c3.836-0.309,7.455,0.61,10.954,2.068c0.645,0.269,1.215,0.771,1.746,1.247c1.068,0.958,2.082,1.98,3.129,2.962
			c1.672,1.567,2.842,3.405,3.223,5.706c0.091,0.545,0.23,1.121,0.504,1.592c1.189,2.045,1.624,4.328,2.176,6.578
			c0.266,1.083,0.66,2.093,1.206,3.094c0.717,1.316,1.133,2.798,1.646,4.221c0.161,0.447,0.188,0.942,0.331,1.398
			c0.544,1.73,1.365,3.42,1.6,5.188c0.248,1.863,0.951,3.508,1.518,5.241c0.588,1.798,1.01,3.64,0.866,5.609
			c-0.194,2.687-0.142,5.394-0.211,8.894c-0.864,2.353-2.015,5.482-3.097,8.426c-1.094,0.586-1.746,0.178-2.391-0.188
			c0.454-1.904,0.895-3.663,1.289-5.433c0.207-0.935,0.504-1.893,0.471-2.83c-0.178-5.084,0.537-10.205-0.473-15.249
			c-0.579-2.894-1.266-5.777-2.1-8.607c-0.789-2.675-1.836-5.274-2.768-7.907c-0.238-0.677-0.582-1.343-0.678-2.041
			c-0.527-3.818-2.885-6.902-4.119-10.433c-0.129-0.37-0.318-0.789-0.609-1.021c-2.355-1.864-4.006-4.593-7.04-5.629
			c-1.507-0.515-2.935-1.266-4.447-1.763c-0.807-0.265-1.717-0.221-2.581-0.309c-0.354-0.036-0.709-0.051-1.064-0.075
			C102.487,26.271,102.469,26.146,102.45,26.021z"/>
	</g>
	<path fill-rule="evenodd" clip-rule="evenodd" d="M96.389,32.269c0.359,1.013,0.719,2.024,1.081,3.046
		c-0.739,0.665-1.321,1.188-1.963,1.764c-0.062,0.417-0.235,0.899-0.181,1.355c0.143,1.204,0.01,2.327-0.27,3.525
		c-0.301,1.29-0.03,2.705-0.102,4.061c-0.046,0.856-0.201,1.719-0.415,2.551c-0.733,2.853-1.642,5.667-2.235,8.546
		c-0.48,2.331-0.586,4.737-0.89,7.105c-0.08,0.62-0.157,1.292-0.446,1.825c-0.655,1.205-0.76,2.455-0.426,3.717
		c0.835,3.158,1.059,6.301-0.042,9.203c1.043,3.116,2.003,5.977,2.958,8.838c0.729,2.184,1.365,4.404,2.201,6.545
		c1.038,2.656,2.553,4.936,5.425,6.007c1.031,0.384,1.972,1.011,3.247,1.681c1.421,0.125,3.168,0.337,4.921,0.406
		c0.688,0.026,1.403-0.222,2.082-0.426c0.991-0.298,1.959-0.67,2.794-0.959c1.398-0.983,2.686-1.889,4.101-2.885
		c0.288,0.607,0.481,1.017,0.683,1.443c-1.572,2.586-3.783,4.369-6.586,4.9c-2.615,0.496-5.36,0.297-8.033-0.121
		c-0.228-0.036-0.445-0.176-0.652-0.293c-1.729-0.98-3.466-1.951-5.177-2.963c-0.54-0.32-1.126-0.673-1.49-1.16
		c-2.006-2.688-4.036-5.373-4.774-8.758c-0.102-0.468-0.156-0.967-0.362-1.387c-1.462-2.986-1.957-6.236-2.522-9.449
		c-0.273-1.557-0.218-3.175-0.243-4.767c-0.028-1.835,0.019-3.671,0.034-5.507c0.005-0.639-0.102-1.305,0.035-1.914
		c0.985-4.379,0.338-8.95,1.589-13.293c0.094-5.676,2.359-10.886,3.522-16.333c0.448-2.1,1.03-4.17,1.551-6.254
		C95.999,32.303,96.194,32.286,96.389,32.269z"/>
</g>
<g>
	<path fill-rule="evenodd" clip-rule="evenodd" d="M202.521,7.943c1.22-0.258,2.098-1.491,2.774-2.882
		c0.72-1.48,1.751-2.663,3.093-3.587c1.181-0.813,2.451-1.159,3.842-0.601c1.323,0.531,2.632,1.098,3.42,1.429
		c2.701,2.748,2.934,5.65,2.688,8.902c-0.346,0.65-0.816,1.483-1.24,2.339c-1.232,2.484-1.793,5.021-1.268,7.854
		c0.552,2.966,0.726,6.001,1.083,9.004c0.16,1.345,0.396,2.681,0.546,4.027c0.514,4.609,0.383,9.235,0.34,13.859
		c-0.01,1.035,0.164,2.078,0.092,3.105c-0.128,1.823-0.364,3.639-0.584,5.455c-0.457,3.791-0.937,7.58-1.397,11.37
		c-0.241,1.976-0.907,3.838-1.685,5.638c-0.264,0.609-0.461,1.156-0.436,1.791c0.089,2.123-0.723,4.051-1.28,6.033
		c-0.214,0.76-0.425,1.52-0.628,2.242c-1.289,2.295-2.696,4.515-3.795,6.878c-0.533,1.147-1.211,2.028-1.842,2.499
		c-1.064,1.865-1.928,3.378-2.813,4.932c-0.675,0.468-1.39,0.963-2.116,1.467c-0.557,0-1.105,0-1.678,0
		c-0.868,0.644-0.672,1.705-0.98,2.686c-2.592,3.164-5.644,5.891-9.189,8.164c-3.086,1.977-6.455,2.965-9.922,3.834
		c-4.404,1.104-8.771,0.85-12.861-0.988c-3.717-1.67-7.15-3.918-9.627-7.312c-4.295-5.884-6.506-12.379-5.855-19.745
		c0.203-2.295,0.078-4.623,0.34-6.909c0.463-4.046,1.066-8.093,2.35-11.968c0.952-2.874,2.197-5.652,3.361-8.452
		c0.949-2.281,1.893-4.57,2.984-6.784c1.373-2.788,2.816-5.548,4.373-8.237c1.49-2.575,3.67-4.61,5.705-6.753
		c2.254-2.375,4.455-4.8,6.656-7.224c3.971-4.373,8.207-8.437,13.227-11.614c0.338-0.213,0.646-0.472,0.962-0.717
		c2.392-1.856,4.832-3.654,7.154-5.594C199.714,10.915,200.931,9.523,202.521,7.943z M199.021,17.075
		c-1.057,1.723-2.746,2.554-4.621,3.135c-0.598,0.185-1.277,0.406-1.691,0.832c-1.455,1.494-3.153,2.665-4.793,3.921
		c-0.488,0.373-0.771,1.003-1.19,1.479c-0.731,0.831-1.452,1.676-2.257,2.432c-0.688,0.647-1.571,1.098-2.213,1.781
		c-0.717,0.764-1.437,1.464-2.402,1.9c-0.359,0.162-0.727,0.384-0.984,0.674c-1.939,2.181-4.271,4.021-5.389,6.901
		c-0.434,1.116-1.139,2.24-2.279,3.004c-0.696,0.466-1.251,1.25-1.671,2.003c-1.231,2.206-2.327,4.486-3.548,6.698
		c-0.611,1.106-1.508,2.064-2.049,3.197c-1.715,3.59-3.354,7.217-4.947,10.861c-0.373,0.854-0.505,1.827-0.652,2.76
		c-0.26,1.641-0.344,3.279-1.144,4.834c-0.608,1.18-0.854,2.529-0.822,3.941c0.044,1.985-0.204,3.975-0.246,5.965
		c-0.092,4.227-0.022,8.437,1.431,12.495c0.207,0.578,0.34,1.3,0.182,1.864c-0.244,0.871,0.016,1.626,0.34,2.305
		c0.68,1.43,1.349,2.85,2.35,4.142c3.488,4.505,8.258,6.249,13.656,6.077c3.629-0.114,7.284-0.637,10.741-2.138
		c3.23-1.401,6.42-2.843,9.372-4.769c1.812-1.184,3.524-2.492,4.617-4.428c1.451-2.566,2.881-5.145,4.317-7.721
		c0.077-0.138,0.122-0.294,0.185-0.44c1.312-3.078,2.645-6.148,3.932-9.237c0.951-2.279,2.029-4.523,2.395-7.002
		c0.827-5.605,1.662-11.211,2.438-16.824c0.273-1.974,0.19-4.012,0.606-5.948c1.12-5.21,0.856-10.48,0.849-15.729
		c-0.008-3.972-0.511-7.941-0.55-11.915c-0.037-3.74,0.038-7.492,1.468-11.083c0.643-1.614,1.035-3.344,1.064-5.13
		c0.043-2.658-0.91-4.018-3.437-4.678c-0.534-0.14-1.093-0.192-1.62-0.281c-0.844,0.379-1.642,0.736-2.443,1.096
		c-1.087,1.567-2.355,3.013-2.766,4.958c-0.078,0.374-0.363,0.706-0.561,1.053c-1.059,1.861-2.203,3.695-1.807,6.098
		C201.61,16.46,200.462,16.733,199.021,17.075z"/>
	<path fill-rule="evenodd" clip-rule="evenodd" fill="#FFFFFF" d="M199.021,17.075c1.441-0.342,2.589-0.615,3.859-0.917
		c-0.396-2.403,0.748-4.237,1.807-6.098c0.197-0.347,0.482-0.679,0.561-1.053c0.41-1.945,1.679-3.392,2.766-4.958
		c0.802-0.359,1.6-0.717,2.443-1.096c0.527,0.089,1.086,0.142,1.62,0.281c2.526,0.66,3.479,2.02,3.437,4.678
		c-0.029,1.787-0.422,3.516-1.064,5.13c-1.43,3.591-1.505,7.343-1.468,11.083c0.039,3.973,0.542,7.943,0.55,11.915
		c0.008,5.249,0.271,10.52-0.849,15.729c-0.416,1.937-0.333,3.974-0.606,5.948c-0.775,5.613-1.61,11.218-2.438,16.824
		c-0.365,2.479-1.443,4.723-2.395,7.002c-1.287,3.089-2.619,6.159-3.932,9.237c-0.062,0.146-0.107,0.303-0.185,0.44
		c-1.437,2.576-2.866,5.154-4.317,7.721c-1.093,1.936-2.805,3.244-4.617,4.428c-2.952,1.926-6.142,3.367-9.372,4.769
		c-3.457,1.501-7.112,2.023-10.741,2.138c-5.398,0.172-10.168-1.572-13.656-6.077c-1.001-1.292-1.67-2.712-2.35-4.142
		c-0.324-0.679-0.584-1.434-0.34-2.305c0.158-0.564,0.025-1.286-0.182-1.864c-1.453-4.059-1.522-8.269-1.431-12.495
		c0.042-1.99,0.29-3.979,0.246-5.965c-0.031-1.412,0.214-2.762,0.822-3.941c0.8-1.555,0.884-3.193,1.144-4.834
		c0.147-0.933,0.279-1.906,0.652-2.76c1.593-3.645,3.232-7.271,4.947-10.861c0.541-1.133,1.438-2.09,2.049-3.197
		c1.221-2.211,2.316-4.492,3.548-6.698c0.42-0.753,0.975-1.537,1.671-2.003c1.141-0.764,1.846-1.888,2.279-3.004
		c1.118-2.88,3.449-4.72,5.389-6.901c0.258-0.29,0.625-0.512,0.984-0.674c0.966-0.436,1.686-1.136,2.402-1.9
		c0.642-0.684,1.525-1.134,2.213-1.781c0.805-0.756,1.525-1.602,2.257-2.432c0.419-0.476,0.702-1.106,1.19-1.479
		c1.64-1.256,3.338-2.428,4.793-3.921c0.414-0.426,1.094-0.646,1.691-0.832C196.275,19.629,197.964,18.798,199.021,17.075z
		 M202.205,79.603c0.46-0.803,1.227-1.773,1.606-2.877c1.031-3.003,2.124-6.016,2.763-9.113c0.541-2.629,0.709-5.389,0.633-8.08
		c-0.11-3.904-0.628-7.796-0.893-11.699c-0.127-1.874-0.554-3.606-1.546-5.219c-0.365-0.593-0.565-1.31-0.739-1.996
		c-0.701-2.77-1.641-5.365-4.436-6.76c-0.207-0.103-0.347-0.333-0.541-0.469c-2.705-1.892-5.746-2.092-8.711-1.131
		c-2.271,0.736-4.161,2.368-5.792,4.161c-1.984,2.181-3.908,4.417-5.853,6.634c-1.74,1.985-3.268,4.108-4.615,6.396
		c-1.453,2.464-3.154,4.786-4.826,7.113c-0.979,1.363-2.246,2.635-2.536,4.284c-0.346,1.962-1.267,3.61-2.204,5.255
		c-2.313,4.057-2.607,8.653-3.667,13.046c-0.018,0.073,0.024,0.159,0.021,0.237c-0.117,2.15,0,4.283,0.238,6.43
		c0.418,3.785,1.372,7.379,3.41,10.613c0.805,1.278,1.607,2.711,2.781,3.568c2.16,1.582,4.352,3.133,6.908,4.188
		c2.904,1.197,5.673,1.398,8.627,0.499c1.708-0.521,3.039-1.386,3.555-3.104c4.471-2.572,5.088-3.168,6.826-6.737
		c0.145-0.296,0.057-0.706,0.083-1.183c-0.397,0.168-0.69,0.197-0.817,0.357c-1.269,1.59-2.936,2.706-4.582,3.828
		c-2.32,1.58-4.769,2.932-7.506,3.661c-1.891,0.504-3.742,0.485-5.633-0.22c-1.607-0.602-2.875-1.703-4.339-2.493
		c-1.239-0.669-2.253-1.501-2.976-2.687c-0.658-1.082-1.323-2.164-1.9-3.29c-0.652-1.274-1.211-2.599-1.781-3.837
		c-0.211-2.261-0.481-4.477-0.055-6.701c0.086-0.451-0.009-0.97-0.137-1.424c-0.625-2.236,0.195-3.996,1.555-5.742
		c1.555-1.997,2.844-4.145,3.555-6.671c0.444-1.583,1.037-3.144,1.484-4.747c0.207-0.742,0.692-1.412,1.08-2.1
		c1.012-1.795,2.255-3.437,2.959-5.431c1.232-3.489,2.85-6.787,5.991-9.046c0.437-1.406,0.862-2.775,1.374-4.418
		c0.475-0.432,1.133-1.016,1.774-1.617c1.231-1.154,2.39-2.338,2.754-4.106c0.103-0.5,0.493-1.083,0.925-1.35
		c1.533-0.951,3.143-1.783,4.437-2.501c2.355,0.72,4.396,1.343,7.392,2.258c1.508,0.822,2.776,2.968,3.537,5.505
		c0.298,0.993,0.74,1.941,1.033,2.935c0.381,1.289,0.83,2.586,0.979,3.91c0.359,3.173,0.683,6.358,0.79,9.547
		c0.091,2.705-0.078,5.424-0.245,8.129c-0.23,3.713-1.68,7.137-2.7,10.66c-0.75,2.59-1.672,5.114-3.019,7.695
		c0.644,0,1.141,0,1.821,0C201.421,82.419,201.781,81.13,202.205,79.603z"/>
	<path fill-rule="evenodd" clip-rule="evenodd" d="M202.205,79.603c-0.424,1.527-0.783,2.816-1.156,4.162c-0.681,0-1.178,0-1.821,0
		c1.347-2.581,2.269-5.105,3.019-7.695c1.021-3.523,2.47-6.947,2.7-10.66c0.167-2.705,0.336-5.425,0.245-8.129
		c-0.107-3.188-0.431-6.374-0.79-9.547c-0.149-1.324-0.599-2.621-0.979-3.91c-0.293-0.994-0.735-1.942-1.033-2.935
		c-0.761-2.538-2.029-4.683-3.537-5.505c-2.996-0.915-5.036-1.538-7.392-2.258c-1.294,0.718-2.903,1.55-4.437,2.501
		c-0.432,0.267-0.822,0.849-0.925,1.35c-0.364,1.768-1.522,2.952-2.754,4.106c-0.642,0.601-1.3,1.185-1.774,1.617
		c-0.512,1.643-0.938,3.012-1.374,4.418c-3.142,2.259-4.759,5.557-5.991,9.046c-0.704,1.994-1.947,3.636-2.959,5.431
		c-0.388,0.688-0.873,1.357-1.08,2.1c-0.447,1.604-1.04,3.164-1.484,4.747c-0.711,2.526-2,4.674-3.555,6.671
		c-1.359,1.746-2.18,3.506-1.555,5.742c0.128,0.454,0.223,0.973,0.137,1.424c-0.427,2.225-0.156,4.44,0.055,6.701
		c0.57,1.238,1.129,2.562,1.781,3.837c0.577,1.126,1.242,2.208,1.9,3.29c0.723,1.186,1.736,2.018,2.976,2.687
		c1.464,0.79,2.731,1.892,4.339,2.493c1.891,0.705,3.742,0.724,5.633,0.22c2.737-0.729,5.186-2.081,7.506-3.661
		c1.646-1.122,3.313-2.238,4.582-3.828c0.127-0.16,0.42-0.189,0.817-0.357c-0.026,0.477,0.062,0.887-0.083,1.183
		c-1.738,3.569-2.355,4.165-6.826,6.737c-0.516,1.719-1.847,2.584-3.555,3.104c-2.954,0.899-5.723,0.698-8.627-0.499
		c-2.557-1.055-4.748-2.605-6.908-4.188c-1.174-0.857-1.977-2.29-2.781-3.568c-2.038-3.234-2.992-6.828-3.41-10.613
		c-0.238-2.146-0.355-4.279-0.238-6.43c0.004-0.078-0.038-0.164-0.021-0.237c1.06-4.393,1.354-8.989,3.667-13.046
		c0.938-1.645,1.858-3.293,2.204-5.255c0.29-1.649,1.557-2.921,2.536-4.284c1.672-2.327,3.373-4.649,4.826-7.113
		c1.348-2.288,2.875-4.41,4.615-6.396c1.944-2.217,3.868-4.454,5.853-6.634c1.631-1.792,3.521-3.425,5.792-4.161
		c2.965-0.961,6.006-0.761,8.711,1.131c0.194,0.137,0.334,0.366,0.541,0.469c2.795,1.395,3.734,3.991,4.436,6.76
		c0.174,0.686,0.374,1.402,0.739,1.996c0.992,1.613,1.419,3.345,1.546,5.219c0.265,3.902,0.782,7.794,0.893,11.699
		c0.076,2.691-0.092,5.451-0.633,8.08c-0.639,3.098-1.731,6.11-2.763,9.113C203.431,77.829,202.665,78.8,202.205,79.603z"/>
</g>
<g>
	<path fill-rule="evenodd" clip-rule="evenodd" d="M44.265,104.282c-0.275,0.91-0.527,1.743-0.67,2.217
		c-1.316,1.207-2.369,2.16-3.408,3.127c-3.235,3.014-7.127,4.762-11.354,5.82c-1.16,0.29-2.359,0.271-3.537-0.189
		c-0.963-0.377-1.995-0.574-2.982-0.891c-4.585-1.475-8.398-4.145-11.797-7.508c-3.309-3.275-5.577-7.146-7.084-11.521
		c-0.597-1.734-1.497-3.373-1.994-5.131c-0.518-1.828-0.821-3.735-1.032-5.629c-0.433-3.877-0.476-7.775-0.333-11.673
		c0.023-0.636,0.083-1.272,0.167-1.903c0.477-3.641,0.958-7.281,1.455-10.919c0.086-0.632,0.232-1.257,0.382-1.876
		c0.696-2.87,1.341-5.754,2.131-8.598c0.425-1.53,1.11-2.988,1.665-4.482c0.388-1.044,0.809-2.08,1.116-3.148
		c0.537-1.865,1.313-3.623,2.466-5.164c2.146-2.87,4.38-5.673,6.603-8.484c0.393-0.497,0.875-0.938,1.372-1.334
		c2.119-1.69,4.272-3.337,6.386-5.034c1.241-0.996,2.459-2.026,3.639-3.095c1.991-1.803,3.472-3.853,3.866-6.665
		c0.263-1.877,0.936-3.717,1.601-5.508c0.409-1.102,1.149-2.08,1.785-3.19C36.831,2.291,38.969,1.071,40.848,0
		c3.304,0.314,6.316,0.328,8.842,2.631c0.55,0.817,1.218,1.809,1.817,2.698c0.253,1.048,0.477,1.973,0.651,2.691
		c-0.322,2.073-0.63,3.954-0.902,5.84c-0.258,1.788,0.426,3.309,1.519,4.64c1.218,1.484,2.426,2.956,3.204,4.738
		c0.185,0.424,0.526,0.814,0.88,1.124c1.715,1.5,2.716,3.332,2.686,5.529c1.375,2.301,2.582,4.523,3.372,6.975
		c0.303,0.939,1.095,1.722,1.736,2.685c0.326,1.927,0.533,4.005,1.05,6.003c0.649,2.509,0.07,4.911-0.26,7.347
		c-0.246,1.813-0.591,3.614-0.82,5.429c-0.229,1.817-0.257,3.649-1.192,5.331c-0.371,0.668-0.535,1.53-0.542,2.307
		c-0.022,2.842-0.899,5.471-1.805,8.105c-0.233,0.678-0.403,1.379-0.564,2.078c-0.34,1.476-0.697,2.93-1.538,4.236
		c-0.38,0.591-0.685,1.298-0.79,1.988c-0.347,2.286-1.438,4.183-2.854,5.941c-0.199,0.247-0.436,0.51-0.513,0.803
		c-0.41,1.562-1.438,2.842-2.021,4.271c-1.778,4.361-4.844,7.605-8.277,10.616C44.41,104.11,44.311,104.233,44.265,104.282z
		 M8.789,92.769c1.149,2.682,2.201,5.178,3.296,7.654c0.188,0.425,0.532,0.793,0.852,1.145c2.187,2.398,3.958,5.253,7.183,6.517
		c0.28,0.11,0.474,0.425,0.728,0.617c2.705,2.05,5.614,2.802,8.999,1.835c3.498-0.998,6.644-2.684,9.336-4.1
		c0.813-1.015,1.273-1.621,1.766-2.197c1.605-1.88,3.371-3.643,4.796-5.648c1.704-2.396,3.203-4.949,4.64-7.52
		c1.593-2.848,3.247-5.699,4.463-8.715c1.907-4.73,3.541-9.59,4.153-14.691c0.714-5.946,1.197-11.92,1.941-17.861
		c0.627-5.012-0.397-9.682-2.457-14.185c-1.06-2.318-2.233-4.585-3.386-6.859c-0.683-1.347-1.421-2.667-2.146-3.992
		c-1.183-2.163-2.393-4.312-3.551-6.487c-0.258-0.485-0.406-1.048-0.509-1.593c-0.445-2.356-0.873-4.712-0.567-7.136
		c0.109-0.868,0.085-1.754,0.097-2.633c0.021-1.601-0.429-2.999-1.972-4.096c-1.235-0.38-2.661-0.821-3.731-1.15
		c-1.713,0.646-3.031,1.207-4.391,1.638c-1.682,0.533-3.004,1.443-3.647,2.809c-0.215,3.749-0.415,7.231-0.576,10.022
		c-0.949,2.103-1.602,3.552-2.108,4.674c-1.877,2.074-3.526,3.896-5.653,6.246c-2.009,1.354-3.75,3.888-5.674,6.752
		c-0.987,0.842-2.189,1.911-2.909,3.537c-0.727,1.643-1.911,3.08-2.842,4.638c-0.685,1.147-1.31,2.333-1.914,3.524
		c-0.356,0.703-0.557,1.489-0.94,2.175c-1.318,2.359-1.815,5.077-3.276,7.379c-0.272,0.429-0.187,1.078-0.301,1.618
		c-0.213,1.005-0.241,2.12-0.715,2.988c-1.933,3.539-1.668,7.38-1.895,11.495c-0.912,2.256-1.029,4.898-0.902,7.66
		c0.166,3.601,0.401,7.124,1.705,10.545C7.207,90.75,7.657,92.065,8.789,92.769z"/>
	<path fill-rule="evenodd" clip-rule="evenodd" fill="#FFFFFF" d="M8.789,92.769c-1.132-0.703-1.583-2.019-2.107-3.395
		c-1.304-3.421-1.539-6.944-1.705-10.545c-0.126-2.762-0.01-5.404,0.902-7.66c0.227-4.115-0.039-7.956,1.895-11.495
		c0.474-0.868,0.502-1.982,0.715-2.988c0.114-0.54,0.028-1.188,0.301-1.618c1.461-2.302,1.958-5.02,3.276-7.379
		c0.383-0.686,0.583-1.472,0.94-2.175c0.604-1.192,1.229-2.377,1.914-3.524c0.931-1.559,2.115-2.995,2.842-4.638
		c0.719-1.626,1.922-2.695,2.909-3.537c1.924-2.864,3.665-5.397,5.674-6.752c2.127-2.351,3.776-4.172,5.653-6.246
		c0.506-1.123,1.16-2.572,2.108-4.674c0.161-2.792,0.36-6.273,0.576-10.022c0.643-1.366,1.966-2.276,3.647-2.809
		c1.359-0.431,2.677-0.992,4.391-1.638c1.07,0.33,2.496,0.77,3.731,1.15c1.543,1.097,1.993,2.495,1.972,4.096
		c-0.011,0.878,0.013,1.765-0.097,2.633c-0.306,2.423,0.122,4.779,0.567,7.136c0.103,0.545,0.25,1.108,0.509,1.593
		c1.158,2.176,2.368,4.324,3.551,6.487c0.725,1.325,1.463,2.645,2.146,3.992c1.153,2.274,2.326,4.541,3.386,6.859
		c2.06,4.503,3.084,9.173,2.457,14.185c-0.744,5.941-1.227,11.915-1.941,17.861c-0.613,5.102-2.246,9.961-4.153,14.691
		c-1.216,3.016-2.87,5.867-4.463,8.715c-1.438,2.57-2.937,5.123-4.64,7.52c-1.426,2.006-3.191,3.769-4.796,5.648
		c-0.493,0.576-0.953,1.183-1.766,2.197c-2.692,1.416-5.838,3.102-9.336,4.1c-3.385,0.967-6.294,0.215-8.999-1.835
		c-0.254-0.192-0.448-0.507-0.728-0.617c-3.224-1.264-4.996-4.118-7.183-6.517c-0.32-0.352-0.664-0.72-0.852-1.145
		C10.99,97.946,9.938,95.45,8.789,92.769z M55.908,38.366c-1.007-2.155-1.919-4.092-2.819-6.034
		c-0.762-1.644-1.994-2.781-3.516-3.769c-1.826-1.186-3.809-1.47-5.877-1.742c-4.539-0.597-8.457,0.897-12.165,3.299
		c-2.79,1.807-5.091,4.08-6.893,6.875c-1.339,2.077-2.773,4.095-4.079,6.191c-0.799,1.282-1.494,2.638-2.134,4.007
		c-0.976,2.088-1.866,4.216-2.788,6.329c-0.158,0.362-0.312,0.727-0.439,1.101c-0.767,2.26-1.768,4.475-2.229,6.796
		c-0.713,3.59-1.049,7.253-1.558,10.883c-0.122,0.865-0.435,1.727-0.419,2.586c0.069,3.816,0.064,7.635,0.732,11.425
		c0.773,4.39,2.301,8.452,4.794,12.138c2.967,4.387,8.059,5.699,12.806,3.312c0.697-0.35,1.323-0.853,1.956-1.32
		c0.703-0.52,1.342-1.131,2.067-1.615c2.645-1.768,4.776-3.945,5.951-6.977c0.429-1.106,0.908-2.211,1.95-2.958
		c0.284-0.204,0.376-0.68,0.546-1.036c0.683-1.434,1.166-3.017,2.094-4.27c1.161-1.567,1.829-3.34,2.517-5.076
		c0.575-1.453,0.941-3,1.542-4.473c0.739-1.814,1.77-3.48,2.562-5.27c0.769-1.736,1.767-3.358,2.056-5.25
		c0.926-1.063,1.928-2.117,1.828-3.568c-0.093-1.341,0.403-2.483,0.747-3.698c0.519-1.833,1.277-3.663,1.399-5.529
		c0.17-2.604-0.132-5.242-0.271-7.863C56.187,41.35,56.028,39.842,55.908,38.366z"/>
	<path fill-rule="evenodd" clip-rule="evenodd" d="M55.908,38.366c0.121,1.476,0.279,2.983,0.36,4.494
		c0.139,2.622,0.441,5.259,0.271,7.863c-0.123,1.866-0.88,3.696-1.399,5.529c-0.344,1.215-0.84,2.357-0.747,3.698
		c0.1,1.451-0.902,2.505-1.828,3.568c-0.29,1.892-1.287,3.514-2.056,5.25c-0.792,1.789-1.824,3.455-2.562,5.27
		c-0.6,1.473-0.966,3.02-1.542,4.473c-0.688,1.736-1.356,3.509-2.517,5.076c-0.928,1.253-1.411,2.836-2.094,4.27
		c-0.17,0.356-0.262,0.832-0.546,1.036c-1.042,0.747-1.521,1.852-1.95,2.958c-1.175,3.031-3.306,5.209-5.951,6.977
		c-0.725,0.484-1.364,1.096-2.067,1.615c-0.632,0.468-1.258,0.971-1.956,1.32c-4.747,2.387-9.838,1.074-12.806-3.312
		c-2.494-3.686-4.021-7.748-4.794-12.138c-0.668-3.79-0.664-7.608-0.732-11.425c-0.016-0.859,0.298-1.721,0.419-2.586
		c0.509-3.63,0.845-7.293,1.558-10.883c0.461-2.321,1.462-4.536,2.229-6.796c0.127-0.374,0.281-0.739,0.439-1.101
		c0.922-2.113,1.812-4.241,2.788-6.329c0.641-1.37,1.335-2.725,2.134-4.007c1.306-2.097,2.74-4.114,4.079-6.191
		c1.802-2.795,4.103-5.068,6.893-6.875c3.708-2.402,7.625-3.896,12.165-3.299c2.069,0.272,4.051,0.557,5.877,1.742
		c1.522,0.988,2.754,2.125,3.516,3.769C53.989,34.274,54.9,36.211,55.908,38.366z M21.021,98.32
		c3.557,1.181,4.397,0.978,6.596-0.894c3.04-2.585,5.311-5.771,6.939-9.345c3.02-6.628,6.68-12.894,10.288-19.2
		c1.863-3.255,3.465-6.658,5.208-9.982c1.241-2.368,2.026-4.845,2.174-7.537c0.123-2.229,0.265-4.449-0.018-6.675
		c-0.362-2.849-0.496-5.743-1.595-8.448c-0.875-2.156-1.8-4.288-4.135-5.552c-2.429-0.513-5-1.056-7.184-1.517
		c-2.803,0.46-4.894,1.642-7.019,2.727c-1.065,0.544-1.974,1.224-2.695,2.28c-1.619,2.368-3.424,4.609-5.157,6.9
		c-0.192,0.254-0.38,0.523-0.617,0.732c-1.987,1.757-2.647,4.304-3.854,6.52c-0.796,1.462-1.355,3.052-2.085,4.553
		c-0.978,2.01-2.093,3.956-2.075,6.305c0.004,0.535-0.187,1.126-0.45,1.604c-2.199,3.995-2.299,8.362-2.359,12.75
		c-0.026,1.916,0.292,3.82,0.328,5.693c0.046,2.332,0.302,4.562,0.813,6.815c0.284,1.249,0.438,2.507,1.131,3.632
		c0.287,0.466,0.498,1.023,0.576,1.564c0.221,1.521,1.127,2.602,2.121,3.665C19.097,96.134,20.196,97.399,21.021,98.32z"/>
	<path fill-rule="evenodd" clip-rule="evenodd" fill="#FFFFFF" d="M21.021,98.32c-0.825-0.921-1.924-2.187-3.068-3.41
		c-0.994-1.063-1.9-2.145-2.121-3.665c-0.079-0.541-0.289-1.099-0.576-1.564c-0.694-1.125-0.848-2.383-1.131-3.632
		c-0.511-2.253-0.767-4.483-0.813-6.815c-0.036-1.873-0.354-3.777-0.328-5.693c0.06-4.388,0.16-8.755,2.359-12.75
		c0.263-0.478,0.454-1.068,0.45-1.604c-0.018-2.349,1.098-4.295,2.075-6.305c0.73-1.501,1.289-3.091,2.085-4.553
		c1.207-2.215,1.866-4.762,3.854-6.52c0.236-0.209,0.424-0.478,0.617-0.732c1.733-2.291,3.538-4.532,5.157-6.9
		c0.721-1.056,1.63-1.736,2.695-2.28c2.125-1.085,4.216-2.267,7.019-2.727c2.185,0.461,4.755,1.004,7.184,1.517
		c2.335,1.264,3.259,3.396,4.135,5.552c1.099,2.706,1.233,5.599,1.595,8.448c0.283,2.226,0.141,4.446,0.018,6.675
		c-0.148,2.692-0.933,5.169-2.174,7.537c-1.743,3.324-3.346,6.728-5.208,9.982c-3.607,6.307-7.268,12.572-10.288,19.2
		c-1.628,3.573-3.9,6.76-6.939,9.345C25.418,99.298,24.579,99.501,21.021,98.32z"/>
</g>
</svg>
