<?xml version="1.0" encoding="utf-8"?>
<!-- Generator: Adobe Illustrator 16.0.0, SVG Export Plug-In . SVG Version: 6.00 Build 0)  -->
<!DOCTYPE svg PUBLIC "-//W3C//DTD SVG 1.1//EN" "http://www.w3.org/Graphics/SVG/1.1/DTD/svg11.dtd" [
	<!ENTITY ns_flows "http://ns.adobe.com/Flows/1.0/">
	<!ENTITY ns_extend "http://ns.adobe.com/Extensibility/1.0/">
	<!ENTITY ns_ai "http://ns.adobe.com/AdobeIllustrator/10.0/">
	<!ENTITY ns_graphs "http://ns.adobe.com/Graphs/1.0/">
]>
<svg version="1.1" id="Layer_1" xmlns:x="&ns_extend;" xmlns:i="&ns_ai;" xmlns:graph="&ns_graphs;"
	 xmlns="http://www.w3.org/2000/svg" xmlns:xlink="http://www.w3.org/1999/xlink" xmlns:a="http://ns.adobe.com/AdobeSVGViewerExtensions/3.0/"
	 x="0px" y="0px" width="70.914px" height="88.458px" viewBox="0 0 70.914 88.458" enable-background="new 0 0 70.914 88.458"
	 xml:space="preserve">
<path d="M37.703,0c1.633,0.662,4.002,8.432,6.092,10.373c2.578-1.596,4.877-3.433,7.168-5.286c0.74-0.599,1.516-1.179,2.352-1.624
	c0.693-0.369,1.505-0.622,2.357,0.235c-0.127,0.426-0.225,0.952-0.435,1.428c-0.805,1.82-1.672,3.613-2.467,5.438
	c-1.024,2.354-2.38,4.465-4.085,6.403c-1.25,1.42-2.227,3.082-3.26,4.546c0.207,1.12,1.115,1.07,1.724,1.226
	c1.729,0.442,3.291,1.137,4.761,2.167c0.898,0.63,1.98,1.048,3.034,1.396c2.269,0.752,3.976,2.346,5.767,3.779
	c7.371,5.834,9.607,20.413,10.008,21.676c0.229,0.724,0.248,1.589,0.102,2.338c-0.445,2.265-0.834,4.568-1.596,6.732
	c-0.625,1.776-1.75,3.377-2.721,5.178c0.291,1.513-6.075,11.07-6.213,11.121c-2.512,1.74-3.724,4.242-6.275,5.312
	c-0.986,0.414-1.592,1.463-2.694,1.896c-3.688,1.449-7.366,2.879-11.364,3.219c-0.556,0.047-1.164,0.057-1.646,0.291
	c-2.011,0.975-4.066,0.57-6.091,0.236c-2.833-0.469-5.67-0.972-8.457-1.656c-3.981-0.979-7.729-2.57-11.088-4.959
	c-0.903-0.641-1.712-1.438-2.473-2.25c-1.254-1.338-2.489-2.703-3.633-4.135c-1.613-2.021-2.7-4.371-3.531-6.778
	C2.05,65.44,1.36,62.471,0.574,59.538c-1.138-4.246-0.396-8.402,0.631-12.549c0.871-3.516,2.5-6.711,4.115-9.914
	c0.214-0.425,0.491-0.829,0.794-1.197c3.011-3.651,6.208-7.128,10.222-9.703c1.94-1.244,4.041-2.237,6.292-3.465
	c0.712-1.523,0.582-3.344,0.117-5.138c-0.58-2.236-2.342-7.698-1.979-9.269c0.336-0.066,0.21-2.573,0.668-3.149
	c0.351,0.06,2.537,1.437,2.802,1.643c1.085,0.841,1.905,1.896,2.443,3.19c0.654,1.57,1.733,2.812,3.321,3.877
	c0.289-0.594,0.608-1.046,0.736-1.547c0.944-3.682,3.08-6.834,4.55-10.283C35.717,1.024,36.453,0.107,37.703,0z"/>
<path fill="#FFFFFF" d="M24.593,11.135c1.433,0.917,3.381,4.884,4.196,6.28c0.995,0.735,2.135,1.577,3.32,2.453
	c0.51-0.333,0.89-0.582,1.326-0.866c-0.599-4.965,0.784-9.453,2.938-13.848c1.108,0.252,1.573,1.004,2.043,1.732
	c0.867,1.34,1.739,2.676,2.56,4.043c0.733,1.223,1.694,2.1,3.194,2.412c1.56-0.624,2.836-1.624,3.822-3.054
	C48.839,9.055,49.8,7.9,51.064,6.843c-0.037,0.399,0.048,0.868-0.132,1.186c-0.944,1.664-1.81,3.405-2.978,4.904
	c-2.067,2.656-3.947,5.411-5.375,8.419c-0.769,0.372-1.47,0.712-2.16,1.046c0.32,0.816,2.398,1.911,3.164,1.706
	c2.595,0.623,4.996,1.646,7.19,3.172c0.649,0.452,1.366,0.829,2.089,1.155c3.973,1.796,6.635,4.753,8.387,8.75
	c1.481,3.382,1.998,6.843,1.864,10.466c-0.006,0.16-0.022,0.326,0.011,0.479c0.662,3.055,0.299,6.037-0.638,8.974
	c-0.456,1.43-0.961,2.845-1.539,4.549c-1.073-1.166-0.96-2.372-1.192-3.45c-0.635-2.947-1.118-5.938-1.916-8.843
	c-0.715-2.604-1.767-5.12-2.641-7.59c-2.904-5.133-7.465-8.659-11.662-12.675c-0.223,0.04-0.509,0.092-1.017,0.183
	c0.517,0.733,0.894,1.323,1.325,1.872c1.63,2.074,3.355,4.079,4.889,6.221c0.969,1.353,1.791,2.847,2.452,4.376
	c1.931,4.469,3.741,8.977,4.774,13.78c0.543,2.521,0.768,5.044,0.942,7.59c0.039,0.559-0.047,1.135,0.06,1.676
	c0.668,3.366-0.883,5.892-3.088,8.139c-1.285,1.312-2.832,2.285-4.603,3.279c-0.039-0.627-0.155-1.031-0.071-1.389
	c0.519-2.213,0.477-4.43,0.225-6.672c-0.104-0.939,0.058-1.906,0.041-2.859c-0.043-2.311-0.125-4.621-0.18-6.932
	c-0.02-0.799-0.119-1.615,0.006-2.393c0.396-2.435,0.139-4.764-0.86-7.017c-0.063-0.146-0.151-0.303-0.146-0.45
	c0.08-2.41-0.986-4.449-1.98-6.546c-0.799-1.684-1.622-3.292-3.053-4.319c-1.459-3.403-3.246-5.564-5.352-6.413
	c-0.148,1.164,0.965,1.848,0.977,2.857c-0.174,0.146-0.35,0.291-0.523,0.436c-0.02,0.072-0.078,0.167-0.051,0.212
	c2.083,3.495,2.701,7.685,5.264,11.229c1.668,4.824,1.814,10.076,1.766,15.365c-0.029,3.109,0.008,6.229,0.232,9.326
	c0.196,2.686-0.632,5.209-0.666,7.906c-2.456,1.287-4.902,2.109-7.65,2.455c-0.723-1.771-1.67-3.332-1.624-5.248
	c0.014-0.553-0.098-1.111-0.158-1.668c-0.3-2.758-1.056-5.494-0.417-8.301c0.035-0.152,0.025-0.32,0.01-0.479
	c-0.398-4.07,0.228-8.108,0.342-12.164c0.128-4.538,0.125-9.085-0.191-13.621c-0.055-0.792-0.232-1.585-0.453-2.349
	c-0.094-0.324-0.446-0.574-0.827-1.033c-1.014,1.966-1.518,3.824-1.611,5.819c-0.149,3.191-0.337,6.38-0.511,9.57
	c-0.264,4.838-0.581,9.676-0.779,14.518c-0.124,3.025,0.15,6.039,0.644,9.035c0.321,1.949,0.498,3.922,0.737,5.867
	c-1.428,0.277-4.255-0.027-6.239-0.658c-0.41-1.785-0.847-3.711-1.298-5.635c-0.18-0.768-0.421-1.521-0.581-2.292
	c-0.385-1.868-0.883-3.726-1.078-5.614c-0.566-5.492-0.708-11.006-0.029-16.494c0.242-1.961,0.908-3.873,1.416-5.796
	c0.488-1.849,0.934-3.716,1.556-5.521c0.923-2.676,1.737-5.414,3.452-7.785c-0.151-0.167-0.303-0.335-0.561-0.619
	c-0.524,0.362-1.147,0.614-1.509,1.072c-2.031,2.568-4.266,5.135-5.014,8.352c-1.101,4.733-3.049,9.254-3.497,14.146
	c-0.505,5.519-0.469,10.994,0.711,16.453c0.579,2.678,1.622,5.175,2.459,7.752c0.115,0.354,0.207,0.713,0.362,1.256
	c-1.491,0.021-2.624-0.582-3.931-0.938c-1.317-2.002-2.731-4.002-3.735-6.24c-0.314-0.698-0.331-1.541-0.434-2.325
	c-0.384-2.925-0.748-5.851-1.121-8.774c-0.03-0.236-0.101-0.472-0.103-0.707c-0.032-3.261-0.056-6.521-0.08-9.779
	c-0.039-5.318,1.853-9.96,4.951-14.188c0.44-0.601,1.144-1.083,1.199-2.125c-0.968,0.047-1.679,0.436-2.163,1.024
	c-1.871,2.279-3.7,4.599-4.877,7.339c-1.802,4.192-3.214,8.508-3.739,13.055c-0.341,2.951-0.061,5.896,0.661,8.784
	c0.35,1.395,0.777,2.77,1.156,4.154c0.292,1.068,0.495,2.146,0.23,3.351c-0.289-0.142-0.582-0.187-0.673-0.345
	c-0.833-1.448-1.858-2.842-2.377-4.4c-0.589-1.769-1.551-3.314-2.278-4.988c-0.595-1.367-0.903-2.857-1.342-4.293
	c-0.78-2.551-0.806-5.151-0.517-7.771c0.043-0.393,0.082-0.809,0.237-1.164c1.116-2.549,1.54-5.388,2.986-7.774
	c1.346-2.223,2.687-4.431,4.604-6.329c2.117-2.096,4.543-3.729,6.856-5.523c1.101-0.853,9.014-4.447,8.963-5.169
	c-0.19-2.69-0.518-5.369-1.179-7.997c-0.154-0.613-0.203-1.261-0.218-1.896C25.634,14.301,24.435,11.458,24.593,11.135z"/>
</svg>
