<?xml version="1.0" encoding="utf-8"?>
<!-- Generator: Adobe Illustrator 16.0.0, SVG Export Plug-In . SVG Version: 6.00 Build 0)  -->
<!DOCTYPE svg PUBLIC "-//W3C//DTD SVG 1.1//EN" "http://www.w3.org/Graphics/SVG/1.1/DTD/svg11.dtd" [
	<!ENTITY ns_flows "http://ns.adobe.com/Flows/1.0/">
	<!ENTITY ns_extend "http://ns.adobe.com/Extensibility/1.0/">
	<!ENTITY ns_ai "http://ns.adobe.com/AdobeIllustrator/10.0/">
	<!ENTITY ns_graphs "http://ns.adobe.com/Graphs/1.0/">
]>
<svg version="1.1" id="Layer_1" xmlns:x="&ns_extend;" xmlns:i="&ns_ai;" xmlns:graph="&ns_graphs;"
	 xmlns="http://www.w3.org/2000/svg" xmlns:xlink="http://www.w3.org/1999/xlink" xmlns:a="http://ns.adobe.com/AdobeSVGViewerExtensions/3.0/"
	 x="0px" y="0px" width="161.961px" height="105.375px" viewBox="0 0 161.961 105.375" enable-background="new 0 0 161.961 105.375"
	 xml:space="preserve">
<path d="M135.269,22.456c-1.015,0.627-2.026,1.253-3.133,1.938c0.194,1.29,0.396,2.478,1.11,3.594
	c0.508,0.79,0.803,1.735,1.088,2.645c1.394,4.466,1.758,9.063,1.44,13.697c-0.151,2.208-0.573,4.412-1.058,6.577
	c-0.622,2.791-1.43,5.538-2.164,8.33c-1.771,1.199-2.023,3.244-2.721,4.961c-1.106,2.725-2.881,4.913-4.565,7.232
	c-1.501,2.066-3.05,3.953-5.2,5.416c-1.352,0.918-2.32,2.383-3.518,3.545c-0.901,0.877-1.719,1.962-3.271,1.748
	c-0.567,1.755-1.866,2.576-3.462,3.061c-1.211,0.365-2.393,0.859-3.622,1.131c-1.565,0.348-3.12,0.217-4.639-0.424
	c-0.802-0.337-1.69-0.459-2.483-0.664c-1.744,0.172-3.085,0.977-4.197,2.191c-0.826,0.902-1.818,1.48-2.967,1.921
	c-0.945,0.362-1.74,1.099-2.664,1.539c-3.511,1.677-7.117,3.099-10.883,4.017c-1.062,0.502-2.126,1.004-3.188,1.504
	c-0.36,0.172-0.783,0.271-1.072,0.521c-1.383,1.197-3.082,1.634-4.783,2.074c-1.155,0.3-2.373,0.443-3.458,0.904
	c-1.081,0.459-2.032,1.228-3.198,1.959c-1.793-0.315-3.565,0.402-5.406,0.922c-1.982,0.562-4.038,0.961-6.088,1.162
	c-5.483,0.539-10.974,1.09-16.475,1.332c-4.271,0.188-8.584,0.213-12.706-1.401c-1.082-0.425-2.3-0.521-3.465-0.7
	c-1.432-0.221-2.797-0.557-4.046-1.354c-1.068-0.685-2.348-1.084-3.305-1.883c-1.397-1.168-2.657-2.521-3.843-3.908
	c-0.728-0.852-1.481-1.599-2.35-2.317C2.789,91.909,0.486,90.083,0,86.848c0.959-2.225,0.339-4.635,0.352-7.01
	c0.008-1.418-0.323-2.842-0.28-4.256c0.045-1.492,0.291-2.986,0.566-4.457c0.38-2.025,0.872-4.031,1.404-6.443
	c0.47-1.215,1.178-2.811,1.706-4.461c0.834-2.607,2.381-4.829,3.737-7.148c1.363-2.331,3.121-4.321,5.185-6.129
	c2.366-2.072,4.349-4.575,6.595-6.793c2.41-2.381,4.72-4.856,7.882-6.384c3.799-1.836,7.446-3.985,11.191-5.937
	c3.104-1.618,6.364-2.965,9.358-4.761c3.451-2.07,7.02-4.017,10.008-6.786c0.279-0.259,0.478-0.605,0.762-0.976
	c-0.373-0.656-0.714-1.256-1.072-1.886c0.128-0.295,0.175-0.675,0.39-0.861c2.711-2.337,5.047-5.143,8.297-6.809
	c1.268-0.65,2.627-1.117,3.908-1.742c0.923-0.45,1.784-1.024,2.678-1.546c0.998-0.394,1.991-0.88,3.038-1.175
	c1.38-0.388,2.788-0.771,4.207-0.896c2.913-0.256,5.815-0.625,8.77-0.192c2.439,0.358,4.93,0.367,7.393,0.582
	c2.385,0.208,4.771,0.416,7.141,0.74c3.791,0.518,7.127,2.224,10.4,4.102c3.709,2.13,6.795,5.018,9.758,7.913
	c1.448,0.579,2.61,0.03,3.711-0.651c3.115-1.925,6.09-4.123,9.352-5.749c2.109-1.052,4.036-2.543,6.415-3.08
	c2.36-0.532,4.733-0.706,7.142-0.591c1.354,0.064,2.711,0.115,4.064,0.1c2.297-0.025,3.986,1.142,5.297,2.831
	c1.066,1.375,1.984,2.878,2.091,4.737c0.044,0.766,0.339,1.519,0.521,2.288c-0.727,0.426-1.34,0.786-1.926,1.13
	c-3.105,0.335-6.074,0.903-8.965,2.204c-2.828,1.273-5.631,2.583-8.436,3.901c-2.18,1.024-4.707,1.31-7.079,1.924
	C135.461,22.539,135.366,22.497,135.269,22.456z"/>
<g>
	<path fill="#FFFFFF" d="M121.991,29.861c0.504-2.937,0.985-5.744,1.467-8.539c3.635,1.781,7.315,8.289,7.73,16.346
		c-0.68,1.126-1.408,2.334-2.166,3.589c0.465,0.376,0.764,0.618,1.047,0.848c0.58-0.165,1.082-0.308,1.733-0.493
		c0.334,3.483-0.07,6.729-1.673,9.653c-1.562,2.853-3.469,5.514-5.217,8.264c-0.553,0.869-1.238,1.693-1.599,2.642
		c-1.741,4.57-5.165,7.777-8.743,11.19c-0.473-0.764-0.857-1.385-1.246-2.013c-1.1,0.037-2.099,0.966-3.266,0.293
		c0.423-1.124,0.926-2.208,1.23-3.348c0.287-1.065,0.448-2.185,0.51-3.289c0.07-1.27,0.121-2.573-0.09-3.816
		c-0.285-1.676-0.285-3.298-0.056-4.979c0.159-1.162,0.042-2.383-0.089-3.562c-0.429-3.867-1.945-7.387-3.604-10.852
		c-0.516-1.079-1.104-2.123-1.627-3.199c-2.502-5.161-6.021-9.522-10.301-13.312c-0.88-0.78-1.533-1.81-2.373-2.642
		c-1.191-1.183-2.709-1.942-4.052-2.906c-2.237-1.605-4.854-2.65-6.764-4.785c-1.279-1.431-3.145-2.155-4.987-2.723
		c-3.831-1.181-7.709-2.033-11.763-1.477c-0.229,0.031-0.471-0.038-1.092-0.096c1.146-0.826,2.047-1.476,2.754-1.985
		c3.224-0.88,6.205-1.761,9.224-2.488c1.459-0.351,2.985-0.443,4.487-0.593c1.111-0.111,2.246-0.028,3.344-0.202
		c2.258-0.357,4.433,0.179,6.633,0.458c0.224,0.028,0.433,0.172,0.823,0.338c-1.078,0.78-2.126,1.219-3.321,1.304
		c-1.333,0.094-2.454,0.71-3.481,1.484c-0.76,0.573-1.411,1.277-1.305,2.374c1.467,0.611,2.875,0.917,4.377,1.02
		c1.758,0.119,3.135-0.507,4.248-1.75c0.84-0.938,1.791-1.814,2.146-3.112c0.098-0.355,0.441-0.643,0.638-0.913
		c2.708-0.35,10.991,1.275,13.138,2.614c-0.484,0.628-0.961,1.242-1.633,2.108c-0.125,0.702-0.305,1.696-0.5,2.781
		c0.942,0.427,1.717,0.778,2.545,1.153c1.299-1.361,1.862-2.99,2.664-4.615c1.838,0.851,3.428,1.984,4.979,3.46
		c-1.015,1.955-3.195,2.662-4.433,4.598c0.002-0.037-0.074,0.214-0.01,0.422c0.092,0.29,0.286,0.547,0.471,0.88
		c0.646,0,1.265,0,1.881,0c0.709-0.855,1.367-1.651,1.992-2.407c0.195-0.923,0.377-1.776,0.594-2.805
		c2.666,1.096,4.07,3.287,5.759,5.498c-0.94,1.485-1.917,2.906-2.765,4.4c-0.848,1.492-1.565,3.058-2.391,4.689
		c0.648,0.681,1.229,1.29,1.889,1.983c0.481-0.332,0.787-0.549,1.099-0.756C121.183,30.373,121.521,30.162,121.991,29.861z
		 M113.405,23.858c-1.113,1.245-2.271,1.931-2.787,3.265c-0.455,1.175-1.087,2.281-1.57,3.445c-0.455,1.094-0.924,2.201-1.188,3.348
		c-0.208,0.899,0.079,1.752,1.131,2.014c1.169-0.664,2.306-1.31,3.378-1.919c0.471-2.176,1.02-4.32,1.363-6.497
		C113.895,26.468,114.038,25.328,113.405,23.858z M106.866,15.893c-0.363,0.344-0.652,0.513-0.789,0.764
		c-1.291,2.38-2.564,4.769-3.82,7.167c-0.221,0.42-0.424,0.886-0.473,1.348c-0.048,0.437,0.115,0.896,0.192,1.381
		c2.13,0.525,3.226-1.828,5.246-1.405C107.715,21.98,107.635,19.036,106.866,15.893z M125.348,53.026
		c0.607-2.317,1.188-4.529,1.812-6.917c-0.137-0.411-0.33-0.998-0.519-1.566c0.187-0.658,0.356-1.258,0.55-1.939
		c-0.245-0.262-0.482-0.516-0.939-1.004c-0.393,2.478-1.678,4.146-3.023,5.824c-0.947,1.179-1.453,2.636-1.568,4.181
		c-0.017,0.233,0.026,0.471,0.049,0.817c0.349,0.418,0.744,0.895,1.149,1.383C123.687,53.545,124.43,53.313,125.348,53.026z
		 M115.292,68.167c1.672,0.763,2.637-0.037,3.414-0.726c0.334-1.802,0.496-3.388,0.945-4.888c0.439-1.469,0.395-2.795-0.335-4.113
		c-0.067-0.123-0.237-0.189-0.479-0.374c-0.459,0.306-0.959,0.64-1.457,0.972c0.031,0.654,0.057,1.197,0.078,1.642
		c-0.688,1.979-2.621,3.139-2.922,5.474C114.734,66.678,115.008,67.411,115.292,68.167z M101.133,11.194
		c-1.605,1.25-3.174,2.435-4.697,3.674c-0.734,0.598-1.389,1.296-2.073,1.954c-0.286,0.275-0.62,0.524-0.827,0.852
		c-0.339,0.531-0.607,1.115-0.062,1.975c1.248,0.005,2.134-1.027,3.33-1.562c0.602,0,1.306,0,2.015,0
		c0.338-0.274,0.741-0.463,0.93-0.78c0.685-1.148,1.295-2.339,1.93-3.505C101.667,12.931,101.911,12.048,101.133,11.194z
		 M124.655,38.827c0.823-1.845,1.549-3.266,2.09-4.753c0.375-1.03,0.562-2.143,0.697-3.235c0.044-0.354-0.342-0.761-0.661-1.409
		c-1.003,1.668-2.786,2.311-3.284,4c-0.492,1.674-2.268,2.659-2.441,4.516c0.885,0.555,1.676,1.05,2.468,1.547
		C124.019,39.2,124.424,38.962,124.655,38.827z M116.405,50.594c0.549-1.729,1.176-3.373,1.577-5.069
		c0.42-1.775,0.306-3.572-0.407-5.537c-1.014,1.708-1.832,3.232-2.791,4.664c-0.914,1.368-1.412,2.82-1.484,4.323
		C114.047,50.296,115.174,50.518,116.405,50.594z"/>
	<path fill="#FFFFFF" d="M131.542,18.725c-0.609,0.807-1.086,1.438-1.641,2.17c-0.807-0.49-1.4-1.049-1.643-1.939
		c0.371-0.776,0.738-1.542,1.156-2.415c2.291-1.387,5.349-1.891,6.729-4.668c1.712-0.961,3.309-1.989,5.012-2.784
		c2.362-1.103,4.776-2.114,7.23-2.989c0.908-0.325,2.011-0.643,3.23,0.238c0.133,0.222,0.41,0.69,0.766,1.288
		c0.373,0.131,0.879,0.309,1.445,0.509c-0.199,0.241-0.312,0.495-0.502,0.584c-0.502,0.233-1.051,0.366-1.558,0.592
		c-1.452,0.647-3.054,1.104-4.306,2.03c-2.682,1.98-5.834,2.843-8.799,4.154c-0.213,0.094-0.485,0.057-0.695,0.156
		C135.833,16.662,133.702,17.689,131.542,18.725z"/>
	<path fill="#FFFFFF" d="M108.176,78.301c0.724-0.036,1.404-0.07,2.103-0.107c0.31,1.115-0.622,1.428-1.11,1.975
		c-0.474,0.531-1.014,1.002-1.532,1.51c-0.847,0.298-1.546,0.068-2.228-0.684c0.077-0.393,0.168-0.84,0.252-1.264
		C106.48,79.266,107.241,78.834,108.176,78.301z"/>
</g>
</svg>
