<?xml version="1.0" encoding="utf-8"?>
<!-- Generator: Adobe Illustrator 19.0.0, SVG Export Plug-In . SVG Version: 6.00 Build 0)  -->
<svg version="1.1" id="Camada_1" xmlns="http://www.w3.org/2000/svg" xmlns:xlink="http://www.w3.org/1999/xlink" x="0px" y="0px"
	 viewBox="-415 244.1 128.6 72.9" style="enable-background:new -415 244.1 128.6 72.9;" xml:space="preserve">
<style type="text/css">
	.st0{fill:#FFFFFF;}
	.st1{fill:#ADC77F;}
</style>
<g id="XMLID_8961_">
	<g id="XMLID_11748_">
		<rect id="XMLID_22_" x="-367" y="258.2" class="st0" width="23.7" height="24"/>
		<path id="XMLID_19_" class="st1" d="M-343.3,282.3l-11.9,0.3l-11.9,0.2l-0.6,0l0-0.6c-0.1-4-0.1-8-0.1-12l-0.1-12l0-0.7l0.7,0
			l11.9,0.1c4,0,7.9,0,11.9,0.1l0.6,0l0,0.6l-0.2,12L-343.3,282.3z M-343.4,282.2l0-24l0.1,0.1l-23.7,0l0.1-0.1l0,24l-0.1-0.1
			L-343.4,282.2z"/>
	</g>
	<g id="XMLID_11742_">
		<rect id="XMLID_18_" x="-365.8" y="258.2" class="st0" width="23.7" height="24"/>
		<path id="XMLID_15_" class="st1" d="M-342,282.3l-11.9,0.3l-11.9,0.2l-0.6,0l0-0.6c-0.1-4-0.1-8-0.1-12l-0.1-12l0-0.7l0.7,0
			l11.9,0.1c4,0,7.9,0,11.9,0.1l0.6,0l0,0.6l-0.2,12L-342,282.3z M-342.1,282.2l0-24l0.1,0.1l-23.7,0l0.1-0.1l0,24l-0.1-0.1
			L-342.1,282.2z"/>
	</g>
	<g id="XMLID_11734_">
		<rect id="XMLID_100_" x="-364.4" y="258.2" class="st0" width="23.7" height="24"/>
		<path id="XMLID_10_" class="st1" d="M-340.6,282.3l-11.9,0.3l-11.9,0.2l-0.6,0l0-0.6c-0.1-4-0.1-8-0.1-12l-0.1-12l0-0.7l0.7,0
			l11.9,0.1c4,0,7.9,0,11.9,0.1l0.6,0l0,0.6l-0.2,12L-340.6,282.3z M-340.7,282.2l0-24l0.1,0.1l-23.7,0l0.1-0.1l0,24l-0.1-0.1
			L-340.7,282.2z"/>
	</g>
	<rect id="XMLID_8982_" x="-364.4" y="258.2" class="st1" width="23.7" height="6"/>
	<g id="XMLID_8978_">
		<path id="XMLID_99_" class="st0" d="M-340.6,265.6c0,0-0.4,9.1,1.7,11.7c1.1,1.4,3,1.5,3,1.5h-23.9c0,0-2.1,0-3-1.5
			c-0.9-1.5-1.6-11.4-1.6-11.4"/>
		<path id="XMLID_90_" class="st1" d="M-340.5,265.6c0,1.3,0.1,2.6,0.2,3.8c0.1,1.3,0.3,2.5,0.5,3.8c0.1,0.6,0.3,1.2,0.4,1.8
			c0.1,0.3,0.2,0.6,0.3,0.9c0.1,0.3,0.2,0.6,0.4,0.8c0.1,0.1,0.2,0.2,0.2,0.3l0.2,0.2l0.1,0.1c0.2,0.2,0.4,0.3,0.7,0.4
			c0.3,0.1,0.5,0.2,0.8,0.3c0.3,0.1,0.6,0.1,0.8,0.1l0,1.2l-9.7,0.1c-3.2,0-6.5,0-9.7-0.1l-2.4,0l-1.2,0l-0.6,0c-0.1,0-0.2,0-0.3,0
			c-0.1,0-0.2,0-0.3,0c-0.9-0.2-1.8-0.5-2.5-1.2c-0.7-0.7-0.8-1.7-1-2.5c-0.3-1.6-0.4-3.3-0.5-4.9c-0.1-1.6-0.2-3.3-0.2-4.9l0.1,0
			c0.1,1.6,0.3,3.2,0.4,4.8c0.2,1.6,0.4,3.2,0.7,4.8c0.2,0.8,0.3,1.6,0.9,2.2c0.6,0.6,1.4,0.8,2.2,1c0.8,0.1,1.6,0,2.4,0l2.4,0
			l19.5,0l0,0.1c-0.7-0.1-1.3-0.3-1.9-0.6c-0.6-0.3-1.1-0.7-1.4-1.3c-0.2-0.3-0.3-0.6-0.4-0.9c-0.1-0.3-0.2-0.6-0.3-0.9
			c-0.2-0.6-0.3-1.3-0.4-1.9C-340.6,270.7-340.7,268.1-340.5,265.6L-340.5,265.6z"/>
	</g>
	<g id="XMLID_8967_">
		<path id="XMLID_89_" class="st0" d="M-361.6,260h0.7v2.1c0,0.3,0,0.5-0.1,0.6c-0.1,0.2-0.2,0.4-0.4,0.5c-0.2,0.1-0.4,0.2-0.7,0.2
			c-0.3,0-0.6-0.1-0.8-0.3c-0.2-0.2-0.3-0.5-0.3-0.8l0.6-0.1c0,0.2,0,0.3,0.1,0.4c0.1,0.1,0.2,0.2,0.3,0.2c0.1,0,0.3,0,0.3-0.1
			c0.1-0.1,0.1-0.3,0.1-0.5V260z"/>
		<path id="XMLID_86_" class="st0" d="M-357.1,263.3h-0.7l-0.3-0.8h-1.3l-0.3,0.8h-0.7l1.3-3.3h0.7L-357.1,263.3z M-358.4,262
			l-0.5-1.2l-0.5,1.2H-358.4z"/>
		<path id="XMLID_84_" class="st0" d="M-356.7,263.3V260h0.7l1.4,2.2V260h0.6v3.3h-0.7l-1.3-2.2v2.2H-356.7z"/>
	</g>
	<g id="XMLID_10824_">
		<path id="XMLID_240_" class="st1" d="M-354.3,268.8c0.8,0,1.4,0.3,1.8,0.9c0.5,0.7,0.8,1.7,1,3.2c0.1,1.5-0.1,2.6-0.6,3.2
			c-0.4,0.6-1,0.9-1.8,0.9c-0.8,0-1.4-0.2-1.9-0.8c-0.5-0.6-0.8-1.7-0.9-3.3c-0.1-1.6,0.1-2.7,0.6-3.3
			C-355.6,269.1-355,268.8-354.3,268.8z M-354.3,270.1c-0.2,0-0.3,0.1-0.5,0.2c-0.1,0.1-0.2,0.3-0.3,0.6c-0.1,0.4-0.1,1.1,0,2
			c0.1,1,0.2,1.6,0.3,2c0.1,0.4,0.2,0.6,0.4,0.7c0.1,0.1,0.3,0.2,0.5,0.2c0.2,0,0.3-0.1,0.5-0.2c0.1-0.1,0.2-0.3,0.3-0.6
			c0.1-0.4,0.1-1.1,0-2c-0.1-0.9-0.2-1.6-0.3-1.9c-0.1-0.4-0.2-0.6-0.4-0.7C-353.9,270.2-354.1,270.1-354.3,270.1z"/>
		<path id="XMLID_238_" class="st1" d="M-346.4,276.6c-0.5,0-1,0-1.5,0.1c0-1.8-0.2-3.7-0.3-5.5c-0.5,0.5-1.1,0.9-1.9,1.1
			c0-0.4-0.1-0.9-0.1-1.3c0.4-0.1,0.8-0.3,1.2-0.7c0.4-0.3,0.8-0.7,0.9-1.2c0.4,0,0.8,0,1.2,0C-346.7,271.6-346.4,274.1-346.4,276.6
			z"/>
	</g>
</g>
</svg>
