<?xml version="1.0" encoding="utf-8"?>
<!-- Generator: Adobe Illustrator 16.0.0, SVG Export Plug-In . SVG Version: 6.00 Build 0)  -->
<!DOCTYPE svg PUBLIC "-//W3C//DTD SVG 1.1//EN" "http://www.w3.org/Graphics/SVG/1.1/DTD/svg11.dtd" [
	<!ENTITY ns_flows "http://ns.adobe.com/Flows/1.0/">
	<!ENTITY ns_extend "http://ns.adobe.com/Extensibility/1.0/">
	<!ENTITY ns_ai "http://ns.adobe.com/AdobeIllustrator/10.0/">
	<!ENTITY ns_graphs "http://ns.adobe.com/Graphs/1.0/">
]>
<svg version="1.1" id="Layer_1" xmlns:x="&ns_extend;" xmlns:i="&ns_ai;" xmlns:graph="&ns_graphs;"
	 xmlns="http://www.w3.org/2000/svg" xmlns:xlink="http://www.w3.org/1999/xlink" xmlns:a="http://ns.adobe.com/AdobeSVGViewerExtensions/3.0/"
	 x="0px" y="0px" width="147.535px" height="88.458px" viewBox="0 0 147.535 88.458" enable-background="new 0 0 147.535 88.458"
	 xml:space="preserve">
<g>
	<path fill-rule="evenodd" clip-rule="evenodd" d="M37.702,0c1.634,0.662,1.93,2.066,2.081,3.644
		c2.128,1.659,1.921,4.788,4.012,6.729c2.578-1.596,4.877-3.433,7.167-5.286c0.74-0.599,1.516-1.179,2.352-1.624
		c0.693-0.369,1.505-0.622,2.358,0.235c-0.127,0.426-0.225,0.952-0.435,1.428c-0.805,1.82-1.672,3.613-2.467,5.438
		c-1.025,2.354-2.38,4.465-4.085,6.403c-1.25,1.42-2.226,3.082-3.26,4.546c0.208,1.12,1.115,1.07,1.724,1.226
		c1.729,0.442,3.291,1.137,4.76,2.167c0.899,0.63,1.981,1.048,3.035,1.397c2.268,0.752,3.975,2.346,5.766,3.779
		c1.409,1.127,2.056,2.814,2.613,4.996c0.842,0.86,1.957,1.998,3.071,3.135c0.083-0.072,0.167-0.145,0.251-0.218
		c1.335,3.323,2.67,6.647,4.015,9.994c-0.458,1.285-0.342,2.506,0.058,3.77c0.229,0.723,0.249,1.588,0.102,2.337
		c-0.445,2.265-0.834,4.569-1.596,6.733c-0.625,1.776-1.75,3.377-2.721,5.178c0.292,1.512-0.512,2.803-1.273,4.133
		c-1.221,2.135-2.379,4.305-3.567,6.464c-0.645,0.247-1.235,0.472-1.372,0.524c-2.512,1.74-3.724,4.242-6.276,5.312
		c-0.986,0.414-1.592,1.463-2.694,1.896c-3.688,1.45-7.366,2.879-11.364,3.219c-0.556,0.047-1.164,0.057-1.646,0.291
		c-2.01,0.975-4.066,0.57-6.091,0.236c-2.833-0.468-5.67-0.971-8.457-1.656c-3.981-0.979-7.729-2.57-11.088-4.958
		c-0.903-0.642-1.712-1.438-2.473-2.251c-1.254-1.338-2.489-2.703-3.633-4.135c-1.613-2.021-2.7-4.371-3.531-6.778
		c-0.988-2.864-1.678-5.833-2.464-8.767c-1.138-4.246-0.396-8.402,0.631-12.549c0.871-3.515,2.5-6.71,4.115-9.913
		c0.214-0.425,0.491-0.829,0.794-1.197c3.011-3.651,6.208-7.128,10.222-9.703c1.94-1.244,4.041-2.237,6.292-3.465
		c0.712-1.523,0.582-3.344,0.117-5.138c-0.58-2.236-1.245-4.453-1.939-6.657c-0.335-1.062-0.403-1.041-0.04-2.612
		c0.336-0.066,0.708-0.14,1.214-0.241c0.325-0.408,0.715-0.897,1.173-1.473c0.351,0.06,0.818,0.002,1.083,0.208
		c1.085,0.841,1.905,1.896,2.443,3.19c0.654,1.57,1.733,2.812,3.321,3.877c0.289-0.594,0.608-1.046,0.736-1.547
		c0.944-3.682,3.08-6.834,4.55-10.283C35.717,1.024,36.453,0.107,37.702,0z M26.017,13.731c-0.158,0.323-0.383,0.57-0.377,0.811
		c0.015,0.634,0.064,1.283,0.218,1.896c0.661,2.628,0.988,5.307,1.179,7.997c0.051,0.722-0.327,1.474-0.49,2.141
		c-1.691,0.443-3.178,0.734-4.592,1.231c-1.345,0.472-2.781,0.944-3.881,1.797c-2.313,1.794-4.74,3.428-6.856,5.523
		c-1.917,1.898-3.257,4.106-4.604,6.329c-1.446,2.387-1.87,5.226-2.986,7.774c-0.155,0.355-0.194,0.771-0.237,1.164
		c-0.289,2.62-0.263,5.221,0.517,7.771c0.439,1.436,0.747,2.926,1.342,4.293c0.727,1.674,1.688,3.221,2.278,4.989
		c0.52,1.56,1.545,2.952,2.377,4.4c0.092,0.159,0.385,0.204,0.673,0.345c0.264-1.205,0.062-2.281-0.23-3.35
		c-0.379-1.387-0.807-2.762-1.156-4.155c-0.723-2.888-1.002-5.833-0.661-8.784c0.525-4.547,1.938-8.863,3.739-13.055
		c1.178-2.74,3.007-5.06,4.877-7.339c0.483-0.589,1.194-0.978,2.163-1.024c-0.055,1.042-0.759,1.524-1.199,2.125
		c-3.098,4.229-4.99,8.87-4.951,14.188c0.023,3.26,0.048,6.52,0.08,9.779c0.002,0.236,0.073,0.471,0.103,0.707
		c0.373,2.926,0.736,5.852,1.121,8.775c0.103,0.784,0.12,1.627,0.434,2.326c1.004,2.237,2.418,4.238,3.735,6.24
		c1.307,0.355,2.44,0.957,3.931,0.938c-0.155-0.543-0.247-0.902-0.362-1.256c-0.837-2.577-1.88-5.074-2.459-7.752
		c-1.18-5.459-1.216-10.936-0.711-16.453c0.448-4.892,2.396-9.413,3.497-14.146c0.748-3.217,2.982-5.784,5.014-8.352
		c0.362-0.458,0.985-0.71,1.509-1.072c0.258,0.284,0.41,0.453,0.561,0.619c-1.714,2.372-2.528,5.109-3.452,7.785
		c-0.623,1.804-1.068,3.671-1.556,5.521c-0.508,1.924-1.174,3.836-1.416,5.797c-0.678,5.487-0.537,11.002,0.029,16.493
		c0.195,1.89,0.693,3.747,1.078,5.615c0.16,0.771,0.401,1.524,0.581,2.292c0.451,1.924,0.888,3.85,1.298,5.635
		c1.983,0.631,4.811,0.936,6.239,0.658c-0.239-1.945-0.416-3.918-0.737-5.867c-0.494-2.996-0.768-6.01-0.644-9.036
		c0.198-4.842,0.515-9.679,0.779-14.517c0.174-3.189,0.362-6.379,0.511-9.57c0.094-1.995,0.597-3.854,1.611-5.819
		c0.381,0.459,0.733,0.708,0.827,1.033c0.221,0.764,0.397,1.558,0.453,2.349c0.316,4.536,0.319,9.083,0.191,13.621
		c-0.114,4.055-0.74,8.094-0.342,12.164c0.016,0.158,0.025,0.326-0.01,0.479c-0.639,2.807,0.117,5.543,0.417,8.301
		c0.061,0.557,0.172,1.115,0.158,1.669c-0.048,1.915,0.901,3.478,1.624,5.247c2.748-0.346,5.194-1.168,7.65-2.454
		c0.034-2.698,0.862-5.222,0.666-7.907c-0.225-3.099-0.262-6.217-0.233-9.326c0.049-5.289-0.096-10.541-1.765-15.366
		c-2.563-3.542-3.181-7.733-5.264-11.228c-0.026-0.044,0.032-0.14,0.051-0.212c0.174-0.145,0.349-0.291,0.524-0.436
		c-0.012-1.009-1.125-1.694-0.977-2.857c2.105,0.849,3.893,3.01,5.351,6.413c1.432,1.027,2.255,2.635,3.053,4.319
		c0.996,2.098,2.061,4.136,1.98,6.546c-0.005,0.148,0.082,0.307,0.146,0.451c1,2.252,1.257,4.582,0.861,7.016
		c-0.126,0.777-0.026,1.594-0.007,2.393c0.056,2.311,0.137,4.621,0.18,6.932c0.018,0.953-0.144,1.92-0.04,2.859
		c0.25,2.242,0.293,4.459-0.225,6.672c-0.084,0.357,0.032,0.761,0.071,1.389c1.771-0.994,3.317-1.967,4.603-3.279
		c2.205-2.248,3.756-4.772,3.088-8.139c-0.107-0.541-0.021-1.117-0.06-1.676c-0.175-2.546-0.399-5.068-0.942-7.59
		c-1.034-4.803-2.844-9.31-4.775-13.78c-0.661-1.529-1.483-3.023-2.452-4.376c-1.534-2.143-3.259-4.147-4.889-6.221
		c-0.431-0.548-0.809-1.139-1.325-1.872c0.507-0.091,0.793-0.143,1.017-0.183c4.197,4.016,8.758,7.542,11.662,12.675
		c0.874,2.471,1.926,4.985,2.641,7.59c0.797,2.904,1.281,5.895,1.916,8.843c0.232,1.078,0.119,2.284,1.192,3.45
		c0.578-1.704,1.083-3.119,1.539-4.549c0.937-2.937,1.299-5.919,0.637-8.973c-0.033-0.152-0.016-0.318-0.01-0.479
		c0.132-3.623-0.383-7.084-1.865-10.466c-1.751-3.997-4.413-6.954-8.386-8.75c-0.724-0.327-1.439-0.703-2.089-1.155
		c-2.194-1.526-4.596-2.549-7.191-3.172c-0.765,0.204-1.517,0.404-2.259,0.602c-0.31-0.791-0.584-1.491-0.904-2.308
		c0.689-0.334,1.391-0.674,2.16-1.046c1.429-3.008,3.307-5.764,5.375-8.419c1.168-1.5,2.032-3.24,2.977-4.904
		c0.181-0.318,0.095-0.787,0.132-1.186c-1.264,1.057-2.224,2.212-3.073,3.444c-0.986,1.43-2.263,2.43-3.821,3.054
		c-1.501-0.312-2.461-1.189-3.195-2.412c-0.82-1.367-1.693-2.703-2.559-4.043c-0.47-0.728-0.935-1.48-2.044-1.732
		c-2.153,4.395-3.536,8.883-2.937,13.848C33,19.287,32.62,19.535,32.11,19.868c-1.186-0.876-2.326-1.718-3.32-2.453
		C27.974,16.019,27.45,14.647,26.017,13.731z"/>
	<path fill-rule="evenodd" clip-rule="evenodd" fill="#FFFFFF" d="M26.017,13.731c1.433,0.917,1.957,2.288,2.772,3.684
		c0.995,0.735,2.135,1.577,3.32,2.453c0.51-0.333,0.89-0.582,1.326-0.866c-0.599-4.965,0.784-9.453,2.937-13.848
		c1.109,0.252,1.574,1.004,2.044,1.732c0.866,1.34,1.739,2.676,2.559,4.043c0.734,1.223,1.694,2.1,3.195,2.412
		c1.559-0.624,2.835-1.624,3.821-3.054c0.849-1.232,1.81-2.387,3.073-3.444c-0.037,0.399,0.048,0.868-0.132,1.186
		c-0.944,1.664-1.809,3.405-2.977,4.904c-2.068,2.656-3.947,5.411-5.375,8.419c-0.769,0.372-1.47,0.712-2.16,1.046
		c0.32,0.816,0.594,1.517,0.904,2.308c0.743-0.198,1.494-0.397,2.259-0.602c2.595,0.623,4.997,1.646,7.191,3.172
		c0.65,0.452,1.366,0.829,2.089,1.155c3.973,1.796,6.635,4.753,8.386,8.75c1.482,3.382,1.998,6.843,1.865,10.466
		c-0.006,0.16-0.023,0.326,0.01,0.479c0.663,3.054,0.3,6.036-0.637,8.973c-0.456,1.43-0.961,2.845-1.539,4.549
		c-1.073-1.166-0.96-2.372-1.192-3.45c-0.635-2.948-1.119-5.938-1.916-8.843c-0.715-2.605-1.767-5.12-2.641-7.59
		c-2.904-5.133-7.465-8.659-11.662-12.675c-0.223,0.04-0.509,0.092-1.017,0.183c0.516,0.733,0.894,1.323,1.325,1.872
		c1.63,2.074,3.355,4.079,4.889,6.221c0.969,1.353,1.791,2.847,2.452,4.376c1.931,4.47,3.741,8.977,4.775,13.78
		c0.543,2.521,0.767,5.044,0.942,7.59c0.039,0.559-0.047,1.135,0.06,1.676c0.667,3.366-0.883,5.891-3.088,8.139
		c-1.286,1.312-2.832,2.285-4.603,3.279c-0.039-0.628-0.155-1.031-0.071-1.389c0.518-2.213,0.476-4.43,0.225-6.672
		c-0.104-0.939,0.057-1.906,0.04-2.859c-0.042-2.311-0.124-4.621-0.18-6.932c-0.019-0.799-0.119-1.615,0.007-2.393
		c0.396-2.434,0.138-4.764-0.861-7.016c-0.064-0.145-0.151-0.303-0.146-0.451c0.08-2.41-0.985-4.448-1.98-6.546
		c-0.798-1.684-1.622-3.292-3.053-4.319c-1.458-3.403-3.246-5.564-5.351-6.413c-0.148,1.164,0.965,1.848,0.977,2.857
		c-0.175,0.146-0.35,0.291-0.524,0.436c-0.019,0.072-0.078,0.167-0.051,0.212c2.083,3.495,2.701,7.685,5.264,11.228
		c1.668,4.825,1.814,10.077,1.765,15.366c-0.029,3.109,0.008,6.228,0.233,9.326c0.196,2.686-0.632,5.209-0.666,7.907
		c-2.456,1.286-4.902,2.108-7.65,2.454c-0.723-1.77-1.671-3.332-1.624-5.247c0.014-0.554-0.098-1.112-0.158-1.669
		c-0.3-2.758-1.056-5.494-0.417-8.301c0.035-0.152,0.025-0.32,0.01-0.479c-0.398-4.07,0.228-8.109,0.342-12.164
		c0.128-4.538,0.125-9.085-0.191-13.621c-0.055-0.792-0.232-1.585-0.453-2.349c-0.094-0.324-0.446-0.574-0.827-1.033
		c-1.014,1.966-1.518,3.824-1.611,5.819c-0.149,3.191-0.337,6.38-0.511,9.57c-0.264,4.838-0.581,9.675-0.779,14.517
		c-0.124,3.026,0.15,6.04,0.644,9.036c0.321,1.949,0.498,3.922,0.737,5.867c-1.428,0.277-4.255-0.027-6.239-0.658
		c-0.41-1.785-0.847-3.711-1.298-5.635c-0.18-0.768-0.421-1.521-0.581-2.292c-0.385-1.868-0.883-3.726-1.078-5.615
		c-0.566-5.491-0.708-11.006-0.029-16.493c0.242-1.961,0.908-3.873,1.416-5.797c0.488-1.849,0.934-3.716,1.556-5.521
		c0.923-2.676,1.737-5.414,3.452-7.785c-0.151-0.167-0.303-0.335-0.561-0.619c-0.524,0.362-1.147,0.614-1.509,1.072
		c-2.031,2.568-4.266,5.135-5.014,8.352c-1.101,4.733-3.049,9.254-3.497,14.146c-0.505,5.518-0.469,10.994,0.711,16.453
		c0.579,2.678,1.622,5.175,2.459,7.752c0.115,0.354,0.207,0.713,0.362,1.256c-1.491,0.02-2.624-0.582-3.931-0.938
		c-1.317-2.002-2.731-4.003-3.735-6.24c-0.314-0.699-0.331-1.542-0.434-2.326c-0.384-2.924-0.748-5.85-1.121-8.775
		c-0.03-0.236-0.101-0.471-0.103-0.707c-0.032-3.26-0.056-6.52-0.08-9.779c-0.039-5.318,1.853-9.96,4.951-14.188
		c0.44-0.601,1.144-1.083,1.199-2.125c-0.968,0.047-1.679,0.436-2.163,1.024c-1.871,2.279-3.7,4.599-4.877,7.339
		c-1.802,4.192-3.214,8.508-3.739,13.055C8.188,58.855,8.468,61.8,9.19,64.688c0.35,1.394,0.777,2.769,1.156,4.155
		c0.292,1.068,0.495,2.145,0.23,3.35c-0.289-0.141-0.582-0.186-0.673-0.345c-0.833-1.448-1.858-2.841-2.377-4.4
		c-0.589-1.769-1.551-3.315-2.278-4.989c-0.595-1.367-0.903-2.857-1.342-4.293c-0.78-2.551-0.806-5.151-0.517-7.771
		c0.043-0.393,0.082-0.809,0.237-1.164c1.116-2.549,1.54-5.388,2.986-7.774c1.346-2.223,2.687-4.431,4.604-6.329
		c2.117-2.096,4.543-3.729,6.856-5.523c1.101-0.853,2.537-1.325,3.881-1.797c1.414-0.497,2.901-0.788,4.592-1.231
		c0.164-0.667,0.541-1.419,0.49-2.141c-0.19-2.69-0.518-5.369-1.179-7.997c-0.154-0.613-0.203-1.261-0.218-1.896
		C25.634,14.301,25.859,14.054,26.017,13.731z"/>
</g>
<g>
	<path fill-rule="evenodd" clip-rule="evenodd" d="M142.317,71.447c-2.622,2.652-4.964,5.154-7.457,7.494
		c-1.487,1.398-3.092,2.706-4.926,3.67c-0.354,0.187-0.713,0.518-1.068,0.519c-1.863,0.001-3.043,1.646-4.777,1.916
		c-1.619,1.595-3.823,1.942-5.852,2.438c-2.361,0.578-4.848,0.656-7.285,0.903c-2.082,0.21-4.115-0.06-6.123-0.675
		c-0.665-0.203-1.419-0.117-2.44-0.184c-1.659-0.576-3.577-1.387-5.573-1.898c-2.468-0.633-4.546-1.961-6.584-3.348
		c-2.568-1.748-5-3.709-6.809-6.282c-0.672-0.954-1.142-2.069-1.59-3.158c-0.627-1.522-1.149-3.089-1.696-4.581
		c-0.2-1.281-0.34-2.535-0.599-3.765c-0.524-2.487-1.399-4.937-1.611-7.444c-0.37-4.369-0.288-8.758,1.727-12.855
		c0.341-0.694,0.461-1.497,0.68-2.25c0.111-0.383,0.124-0.828,0.334-1.145c1.26-1.906,2.543-3.796,3.86-5.662
		c0.687-0.974,1.565-1.824,2.169-2.842c0.805-1.355,1.91-2.304,3.236-3.081c0.611-0.358,1.167-0.816,1.733-1.248
		c0.188-0.143,0.304-0.387,0.5-0.512c2.204-1.408,4.365-2.894,6.646-4.163c1.304-0.726,2.781-1.175,4.224-1.608
		c5.359-1.61,10.777-2.153,16.29-0.768c2.009,0.505,4.075,0.807,6.05,1.411c1.668,0.51,3.319,1.186,4.844,2.031
		c2.91,1.612,5.58,3.605,8.102,5.776c0.895,0.771,1.658,1.696,2.478,2.555c0.812,0.851,1.617,1.706,2.51,2.485
		c0.591,0.606,0.374,1.658,1.298,2.166c0.359,0.198,0.654,0.755,0.722,1.189c0.13,0.843,0.624,1.41,1.072,2.074
		c0.712,1.051,1.105,2.222,1.128,3.58c0.08,5.104-0.551,10.151-1.171,15.19c-0.218,1.775-0.993,3.492-1.583,5.213
		C143.954,66.982,143.07,69.354,142.317,71.447z M136.407,63.986c0.833-1.792,1.635-3.441,2.371-5.119
		c1.488-3.389,1.693-6.977,1.354-10.581c-0.121-1.284-0.535-2.612-1.23-3.97c-0.526,0.344-0.914,0.575-1.275,0.838
		c-0.838,0.613-1.631,1.295-2.504,1.85c-0.914,0.579-1.264,0.451-2.058-0.446c1.359-2.058,2.71-4.103,3.992-6.045
		c-1.159-2.336-3.203-4.885-5.134-6.48c-0.674,0.043-1.057,1.115-1.906,0.556c-0.221-1.081-0.442-2.166-0.627-3.066
		c-2.986-2.914-6.674-4.127-10.144-5.723c-0.312-0.143-0.745-0.019-1.169-0.019c0.781,1.942,1.497,3.773,2.261,5.583
		c0.183,0.433,0.566,0.776,0.786,1.197c0.662,1.268,1.446,2.501,1.377,4.016c-1.054,1.604-1.054,1.604-2.354,1.307
		c-0.617-5.435-3.448-9.657-6.676-13.501c-2.957-0.218-6.841,0.133-8.344,0.74c-0.644,0.26-1.402,0.403-1.681,1.389
		c2.7,2.442,6.067,4.278,8.161,7.52c-0.107,0.317-0.202,0.601-0.365,1.091c-1.879-1.554-3.594-3.066-5.406-4.449
		c-1.898-1.449-3.859-2.835-6.387-3.544c-1.529,0.836-3.1,1.771-4.736,2.569c-1.998,0.974-3.507,2.43-4.806,4.316
		c1.554,1.214,3.253,1.769,5.073,2.091c2.598,0.459,5.074,1.246,7.271,2.891c-0.168,0.449-0.272,0.729-0.396,1.058
		c-0.695-0.045-1.346,0-1.951-0.143c-2.792-0.658-5.559-1.426-8.36-2.037c-1.61-0.351-3.203-1.028-5.03-0.655
		c-0.633,1.96-3.145,3.013-2.691,5.696c1.477,1.05,3.193,1.679,4.885,2.351c2.517,0.998,5.043,1.969,7.552,2.985
		c0.303,0.122,0.52,0.458,0.964,0.868c-0.609,0.096-0.911,0.189-1.211,0.184c-3.95-0.078-7.756-0.834-11.39-2.422
		c-0.628-0.275-1.269-0.742-2.253-0.191c-0.154,2.066-0.318,4.267-0.494,6.62c0.852,0.315,1.567,0.647,2.318,0.84
		c1.082,0.278,2.23,0.337,3.282,0.694c3.976,1.35,8.027,0.949,12.087,0.699c1.018-0.063,2.05,0.162,3.075,0.164
		c1.066,0.002,2.134-0.107,3.497-0.184c-0.689,1.042-1.459,1.146-2.245,1.242c-2.537,0.309-5.069,0.654-7.609,0.938
		c-2.506,0.279-4.937-0.137-7.312-0.934c-1.667-0.561-3.323-1.152-5.002-1.672c-0.559-0.173-1.174-0.167-2.068-0.283
		c0.51,2.398,0.951,4.477,1.412,6.646c1.049,0.723,2.086,1.438,2.939,2.025c2.434,0.209,4.566,0.152,6.68-0.468
		c1.296-0.38,2.635-0.638,3.969-0.862c0.82-0.137,1.688-0.218,2.68,0.308c-0.359,0.357-0.529,0.62-0.771,0.755
		c-2.646,1.463-5.688,1.445-8.467,2.188c-0.357,0.492-0.668,0.92-0.924,1.271c-1.619-0.059-3.08-0.348-4.801,0.031
		c0.925,1.258,1.608,2.328,2.436,3.272c0.852,0.973,1.363,2.392,2.901,2.583c0.651-0.779,1.247-1.495,1.919-2.299
		c0.596,0.354,1.055,0.625,1.812,1.076c1.3-0.178,2.934-0.189,4.428-0.65c2.956-0.914,5.834-2.08,8.749-3.126
		c0.197-0.071,0.441-0.009,0.878-0.009c-0.107,0.52-0.064,1.04-0.302,1.332c-1.014,1.248-2.181,2.348-3.671,3.025
		c-2.688,1.223-5.385,2.426-8.076,3.641c-0.395,0.178-0.779,0.379-1.438,0.701c1.807,0.965,3.28,1.943,4.893,2.559
		c1.615,0.615,3.369,0.865,4.717,1.193c2.883-1.404,5.058-3.23,7.825-4.715c-0.481,2.576-2.812,3.391-3.627,5.269
		c1.64,0.565,4.786,0.599,7.097,0.084c1.949-2.431,3.914-4.88,6.211-7.743c-0.041,3.033-1.689,4.958-2.692,7.32
		c3.126-0.582,5.632-1.947,8.127-3.324c0.403-0.223,0.748-0.602,1.04-0.973c1.829-2.322,3.67-4.639,5.43-7.016
		c0.549-0.74,1.246-1.475,1.275-2.631c-0.534-0.568-1.102-1.172-1.861-1.979C134.091,64.181,135.234,64.085,136.407,63.986z"/>
	<path fill-rule="evenodd" clip-rule="evenodd" fill="#FFFFFF" d="M136.407,63.986c-1.173,0.1-2.315,0.195-3.721,0.313
		c0.76,0.808,1.327,1.411,1.861,1.979c-0.029,1.156-0.727,1.891-1.275,2.631c-1.76,2.377-3.601,4.693-5.43,7.016
		c-0.292,0.371-0.637,0.75-1.04,0.973c-2.495,1.377-5.001,2.742-8.127,3.324c1.003-2.362,2.651-4.287,2.692-7.32
		c-2.297,2.863-4.262,5.312-6.211,7.743c-2.311,0.515-5.457,0.481-7.097-0.084c0.814-1.878,3.146-2.692,3.627-5.269
		c-2.768,1.484-4.942,3.311-7.825,4.715c-1.348-0.328-3.102-0.578-4.717-1.193c-1.612-0.615-3.086-1.594-4.893-2.559
		c0.658-0.322,1.043-0.523,1.438-0.701c2.691-1.215,5.389-2.418,8.076-3.641c1.49-0.678,2.657-1.777,3.671-3.025
		c0.237-0.292,0.194-0.812,0.302-1.332c-0.437,0-0.681-0.062-0.878,0.009c-2.915,1.046-5.793,2.212-8.749,3.126
		c-1.494,0.461-3.128,0.473-4.428,0.65c-0.758-0.451-1.217-0.723-1.812-1.076c-0.672,0.804-1.268,1.52-1.919,2.299
		c-1.538-0.191-2.05-1.61-2.901-2.583c-0.827-0.944-1.511-2.015-2.436-3.272c1.721-0.379,3.182-0.09,4.801-0.031
		c0.256-0.352,0.566-0.779,0.924-1.271c2.779-0.742,5.82-0.725,8.467-2.188c0.242-0.135,0.412-0.397,0.771-0.755
		c-0.992-0.525-1.859-0.444-2.68-0.308c-1.334,0.225-2.673,0.482-3.969,0.862c-2.113,0.62-4.246,0.677-6.68,0.468
		c-0.854-0.588-1.891-1.303-2.939-2.025c-0.461-2.17-0.902-4.248-1.412-6.646c0.895,0.116,1.51,0.11,2.068,0.283
		c1.679,0.52,3.335,1.111,5.002,1.672c2.375,0.797,4.806,1.213,7.312,0.934c2.54-0.283,5.072-0.629,7.609-0.938
		c0.786-0.097,1.556-0.2,2.245-1.242c-1.363,0.076-2.431,0.186-3.497,0.184c-1.025-0.002-2.058-0.228-3.075-0.164
		c-4.06,0.25-8.111,0.65-12.087-0.699c-1.052-0.357-2.2-0.416-3.282-0.694c-0.751-0.192-1.467-0.524-2.318-0.84
		c0.176-2.354,0.34-4.554,0.494-6.62c0.984-0.551,1.625-0.084,2.253,0.191c3.634,1.588,7.439,2.344,11.39,2.422
		c0.3,0.006,0.602-0.088,1.211-0.184c-0.444-0.41-0.661-0.746-0.964-0.868c-2.509-1.017-5.035-1.987-7.552-2.985
		c-1.691-0.672-3.408-1.301-4.885-2.351c-0.453-2.683,2.059-3.736,2.691-5.696c1.827-0.373,3.42,0.305,5.03,0.655
		c2.802,0.61,5.568,1.379,8.36,2.037c0.605,0.143,1.256,0.097,1.951,0.143c0.123-0.329,0.228-0.608,0.396-1.058
		c-2.196-1.645-4.673-2.432-7.271-2.891c-1.82-0.322-3.52-0.876-5.073-2.091c1.299-1.886,2.808-3.342,4.806-4.316
		c1.637-0.798,3.207-1.733,4.736-2.569c2.527,0.709,4.488,2.095,6.387,3.544c1.812,1.383,3.527,2.895,5.406,4.449
		c0.163-0.49,0.258-0.773,0.365-1.091c-2.094-3.242-5.461-5.078-8.161-7.52c0.278-0.986,1.037-1.129,1.681-1.389
		c1.503-0.607,5.387-0.958,8.344-0.74c3.228,3.844,6.059,8.066,6.676,13.501c1.3,0.297,1.3,0.297,2.354-1.307
		c0.069-1.515-0.715-2.748-1.377-4.016c-0.22-0.421-0.604-0.765-0.786-1.197c-0.764-1.811-1.479-3.641-2.261-5.583
		c0.424,0,0.857-0.124,1.169,0.019c3.47,1.596,7.157,2.81,10.144,5.723c0.185,0.9,0.406,1.985,0.627,3.066
		c0.85,0.56,1.232-0.513,1.906-0.556c1.931,1.596,3.975,4.144,5.134,6.48c-1.282,1.942-2.633,3.987-3.992,6.045
		c0.794,0.897,1.144,1.025,2.058,0.446c0.873-0.555,1.666-1.236,2.504-1.85c0.361-0.264,0.749-0.494,1.275-0.838
		c0.695,1.358,1.109,2.686,1.23,3.97c0.34,3.604,0.135,7.192-1.354,10.581C138.042,60.544,137.24,62.194,136.407,63.986z
		 M126.086,61.332c2.853-2.145,5.387-4.65,7.236-7.78c0.159-0.269,0.465-0.448,0.641-0.71c0.35-0.523,0.654-1.074,0.913-1.506
		c-0.153-1.043-0.194-1.943-1.093-2.49c-3.023-0.752-6.107,0.896-9.602-0.049c1.326-3.613,0.793-7.233,1.045-10.81
		c-1.591-0.34-1.652-0.421-2.664,0.289c-1.301,0.913-2.508,1.962-3.737,2.975c-0.661,0.544-1.284,1.133-1.793,1.585
		c-2.005-0.234-2.917-1.769-4.331-2.47c-1.416-0.703-2.811-1.45-4.488-2.318c-0.562,0.055-1.408,0.136-2.234,0.216
		c-0.399,1.143-0.293,2.033,0.138,2.947c1.511,3.208,2.018,6.718,2.975,10.092c0.105,0.371,0.058,0.786,0.087,1.314
		c-0.474,0.738-0.96,1.561-1.512,2.338c-0.83,1.172-1.727,2.297-2.559,3.468c-0.851,1.196-1.335,2.517-1.25,3.892
		c0.718,1.122,1.678,1.39,3.08,1.395c1.867-0.771,3.994-1.648,6.287-2.596c0.391,0.744,0.757,1.436,1.116,2.13
		c0.732,1.419,1.394,2.88,2.206,4.25c1.662,2.806,3.114,3.345,6.417,2.546C125.381,67.672,125.465,64.453,126.086,61.332z"/>
	<path fill-rule="evenodd" clip-rule="evenodd" d="M126.086,61.332c-0.621,3.121-0.705,6.341-3.122,8.707
		c-3.303,0.799-4.755,0.26-6.417-2.546c-0.812-1.37-1.474-2.831-2.206-4.25c-0.359-0.694-0.726-1.386-1.116-2.13
		c-2.293,0.947-4.42,1.824-6.287,2.596c-1.402-0.005-2.362-0.272-3.08-1.395c-0.085-1.375,0.399-2.695,1.25-3.892
		c0.832-1.171,1.729-2.296,2.559-3.468c0.552-0.777,1.038-1.6,1.512-2.338c-0.029-0.528,0.019-0.943-0.087-1.314
		c-0.957-3.374-1.464-6.885-2.975-10.092c-0.431-0.915-0.537-1.805-0.138-2.947c0.826-0.08,1.672-0.161,2.234-0.216
		c1.678,0.869,3.072,1.615,4.488,2.318c1.414,0.701,2.326,2.235,4.331,2.47c0.509-0.452,1.132-1.041,1.793-1.585
		c1.229-1.013,2.437-2.062,3.737-2.975c1.012-0.71,1.073-0.629,2.664-0.289c-0.252,3.577,0.281,7.197-1.045,10.81
		c3.494,0.945,6.578-0.703,9.602,0.049c0.898,0.547,0.939,1.447,1.093,2.49c-0.259,0.432-0.563,0.982-0.913,1.506
		c-0.176,0.262-0.481,0.441-0.641,0.71C131.473,56.681,128.939,59.187,126.086,61.332z M110.204,57.243
		c1.025-0.235,2.008-0.44,2.98-0.688c1.349-0.346,2.515-0.086,3.461,0.889c1.345,6.639,1.345,6.639,2.735,8.003
		c1.72-1.663,1.831-4.2,3.182-5.95c2.63-1.572,5.077-4.602,6.048-7.455c-1.683-0.927-4.031,0.172-5.396-1.631
		c0.361-6.323,0.321-6.752-0.889-8.86c-2.246,1.674-3.506,4.344-6.061,5.796c-0.098,0.009-0.34,0.068-0.57,0.038
		c-0.227-0.029-0.442-0.15-0.633-0.22c-1.74-3.584-3.938-6.332-5.73-7.12c-0.574,0.764-0.582,1.606-0.303,2.471
		c0.418,1.289,0.77,2.612,1.328,3.84c1.031,2.266,1.406,4.709,2.09,7.067c0.08,0.278-0.059,0.62-0.086,0.843
		C111.613,55.251,110.11,55.513,110.204,57.243z"/>
	<path fill-rule="evenodd" clip-rule="evenodd" fill="#FFFFFF" d="M110.204,57.243c-0.094-1.729,1.409-1.991,2.156-2.978
		c0.027-0.223,0.166-0.564,0.086-0.843c-0.684-2.358-1.059-4.802-2.09-7.067c-0.559-1.228-0.91-2.551-1.328-3.84
		c-0.279-0.865-0.271-1.707,0.303-2.471c1.793,0.788,3.99,3.536,5.73,7.12c0.19,0.069,0.406,0.19,0.633,0.22
		c0.23,0.03,0.473-0.029,0.57-0.038c2.555-1.452,3.814-4.122,6.061-5.796c1.21,2.108,1.25,2.537,0.889,8.86
		c1.365,1.803,3.714,0.704,5.396,1.631c-0.971,2.854-3.418,5.883-6.048,7.455c-1.351,1.75-1.462,4.287-3.182,5.95
		c-1.391-1.364-1.391-1.364-2.735-8.003c-0.946-0.975-2.112-1.234-3.461-0.889C112.211,56.802,111.229,57.007,110.204,57.243z"/>
</g>
</svg>
