<?xml version="1.0" encoding="utf-8"?>
<!-- Generator: Adobe Illustrator 19.0.0, SVG Export Plug-In . SVG Version: 6.00 Build 0)  -->
<svg version="1.1" id="Camada_1" xmlns="http://www.w3.org/2000/svg" xmlns:xlink="http://www.w3.org/1999/xlink" x="0px" y="0px"
	 viewBox="-431.8 234.6 162.3 92" style="enable-background:new -431.8 234.6 162.3 92;" xml:space="preserve">
<style type="text/css">
	.st0{fill:#FFFFFF;}
	.st1{fill:#808080;}
	.st2{fill:none;stroke:#FFFFFF;stroke-width:0;stroke-linecap:round;stroke-linejoin:round;}
	.st3{fill:#CDC4BD;}
	.st4{fill:#ADC77F;}
</style>
<g id="XMLID_416_">
	<path id="XMLID_417_" class="st0" d="M-277.3,317.4l-3.3-0.5l-0.7,3.6l0,0.2l-0.2,0l-3-0.1l3.5,0.3l6.7,0.5l-3.1-30.5l-1.5-16.5
		l-0.7-8.2c-0.2-2.7-0.5-5.3-0.7-8l-3.6-1.2l6.3,57.1L-277.3,317.4z"/>
	<path id="XMLID_429_" class="st0" d="M-421.1,258.1c-0.2,2.7-0.5,5.3-0.7,8l-0.7,8.2l-1.5,16.5l-3.1,30.5l6.7-0.5
		c1.4-0.1,2.8-0.2,4.2-0.3l-4.6,0.2l-0.2,0l0-0.2l-0.6-2.2l-2.2,0.5l0.3-2.3l1.2-8.3c0.4-2.8,0.8-5.5,1.2-8.3l2.5-16.5l2.5-16.3
		c0.6-3.7,1.2-8,1.8-11h-0.2l0,0L-421.1,258.1z"/>
	<path id="XMLID_431_" class="st0" d="M-380.2,252.8c0.1-0.1,0.2-0.2,0.2-0.3c0-0.3-0.1-0.4-0.2-0.4c-0.2,0.1-0.7,0.2-0.9,0.5
		c0,0,0,0-0.1,0.1c0.1,0.1,0.2,0.1,0.3,0.2C-380.6,252.9-380.4,252.9-380.2,252.8z"/>
	<path id="XMLID_432_" class="st0" d="M-394.2,265.4c-0.5,0-0.9,0.1-1.4,0.1c-0.4,0-0.8,0-1.3,0c-0.4,0-0.9,0.2-1.4,0.2
		c-0.4,0-0.8-0.1-1.2,0.1c0.1,0.1,0.1,0.6,0.1,0.7c0.1,0.4,0.5,0.4,0.8,0.4c0.4,0,0.8,0,1.3,0c-0.1,0-0.3,0,0,0c0.2,0,0.1,0,0,0
		c0.4,0,0.8-0.1,1.2-0.2c0.7-0.6,1.2-0.4,1.8-0.5c0.2-0.2,0.4-0.3,0.6-0.5c0.1-0.2,0.1-0.4,0.1-0.6
		C-393.8,265.1-394,265.2-394.2,265.4z"/>
	<path id="XMLID_433_" class="st0" d="M-392.5,265.5c0.5-0.6,1.1-1.3,1.6-2c0.2,0,0.4-0.1,0.6-0.1c0,0.2,0,0.4,0,0.7
		c-0.8,0.6-1.5,1.2-2.3,1.7c-0.1,0.7-0.2,1.4,0,1.9c0.2-0.2,0.4-0.4,0.6-0.6c0.2-0.1,0.5-0.3,0.7-0.4c0.1,0.1,0.2,0.1,0.3,0.2
		c0,0.1-0.1,0.2-0.1,0.4c-0.5,0.4-1,0.3-1.4,0.7c0,0.5,0.1,1,0.2,1.3c0.4-0.3,0.7-0.7,1.2-0.9c0.1,0.2,0.1,0.3,0.2,0.5
		c-0.2,0.2-0.4,0.5-0.5,0.6c-0.2,0.1-0.4,0.3-0.6,0.4c0.1,0.5,1.1,1.8,1.6,1.9c0.5-0.3,1-0.8,1.5-0.9c0.5-0.1,0.9,0.4,1.1,0.8
		c-0.2,0.4-0.7,0.5-1,0.5c-0.4,0-0.7-0.2-1.1-0.1c0.3,0.7,1,1,1.6,1.2c0,0,0,0,0,0c0.1,0.1,0.1,0,0,0c0.8,0.3,1.7,0.4,2.7,0.6
		c0.1,0,0.3-0.1,0.5-0.1c0-0.1,0.1-0.1,0.1-0.2c0,0,0,0,0,0c-0.7-0.2-1.1-0.8-1.5-1.3c-0.2-0.3-0.4-0.6-0.4-1c0-0.4,0-0.8-0.1-1.1
		c-0.1-0.7-0.4-1.4-0.4-2.2c0-0.5,0-0.9,0-1.4c0-0.4,0-0.8,0.1-1.3c0.1-0.9,0.3-1.8,0.6-2.8c0.3-1,0.6-2,1-3c0.2-0.5,0.5-1,0.8-1.5
		c0.3-0.4,0.6-0.9,0.9-1.4c0.5-1,1.2-1.7,2-2.4c-0.1-0.3-0.4-0.1-0.6-0.2c0-0.2,0.1-0.4,0.1-0.6c-0.7,0.3-1.4,0.6-2.1,1
		c-0.4,0.2-0.7,0.5-1,0.8c-0.3,0.3-0.7,0.5-1,0.8c-0.7,0.5-1.5,1-2.2,1.6c-0.6,0.5-1.1,1.2-1.5,2c0.1,0,0.2,0,0.4,0
		c0,0.1,0,0.2,0,0.3c-0.3,0.2-0.6,0.5-0.9,0.7C-392.3,262.8-392.8,264.7-392.5,265.5z"/>
	<path id="XMLID_436_" class="st0" d="M-375.2,305.6c1.6-0.3,3.1-0.6,4.7-0.8l2.4-0.3l2.4-0.2c0.8,0,1.6,0,2.4,0
		c0.8,0.1,1.6,0.1,2.4,0.4c1.6,0.3,3.1,1,4.5,1.9c1.4,0.9,2.6,2,3.5,3.4c0.9,1.2,1.6,2.6,2.1,4c2.6-1.3,5.3-2.5,8-3.5
		c1.4-0.5,2.8-1,4.3-1.4c1.5-0.4,2.9-0.8,4.4-1.1c0.7-0.2,1.5-0.2,2.3-0.3c0.8,0,1.5-0.1,2.3-0.1c1.3,0,2.6,0.1,3.9,0.2
		c0.2,0,0.4,0,0.6,0c3,0.3,6,0.6,9,1c6,0.8,11.9,1.6,17.9,2.5c5.8,0.9,11.6,1.8,17.4,2.8l-6.5-61.6c-4.8-2.4-9.7-4.6-14.7-6.7
		c-2.5-1-5-2-7.6-2.9c-1.3-0.5-2.6-0.9-3.9-1.3c-0.6-0.2-1.3-0.4-1.9-0.6c-0.7-0.2-1.3-0.4-2-0.5c-0.7-0.1-1.3-0.3-2-0.4l-2-0.2
		c-0.7-0.1-1.3-0.1-2-0.1c-0.7,0-1.3-0.1-2,0c-0.7,0-1.4,0-2,0.1l-2,0.2c-1.3,0.1-2.7,0.3-4,0.5c-1.3,0.2-2.7,0.5-4,0.8
		c-1.3,0.3-2.6,0.6-3.9,1c-1.3,0.3-2.6,0.7-3.9,1.1c-1.3,0.4-2.6,0.8-3.8,1.3l-0.1,0l-0.1-0.1c-1.1-0.8-2.3-1.5-3.5-2.1
		c-1.2-0.6-2.5-1.1-3.8-1.5l-2-0.6l-2-0.4l-2.1-0.3c-0.7-0.1-1.4-0.1-2.1-0.1c-0.7-0.1-1.4,0-2.1,0c-0.7,0-1.4,0-2.1,0.1l-2.1,0.2
		l-2,0.4c-0.7,0.1-1.4,0.3-2,0.4l-2,0.5l-4,1.2c-10.7,3-21.4,5.8-32.1,8.6l-8.5,65.8c12.3-3.1,24.6-6.2,37-8.9
		C-381.5,306.8-378.3,306.2-375.2,305.6z M-294.4,263.8c0,0-0.7-0.4-2.5-1.2l-20.4-6c-2.2-0.4-3.7-0.6-3.7-0.6l0.1-1
		c0.1,0,8.2,1,16.4,3.7c8.2,2.7,10.6,4.2,10.7,4.3L-294.4,263.8z M-293.9,268l-0.6,0.8c0,0-0.7-0.4-2.5-1.2l-20.4-6
		c-2.2-0.4-3.7-0.6-3.7-0.6l0.1-1c0.1,0,8.2,1,16.4,3.7C-296.3,266.4-294,268-293.9,268z M-289.6,304.9c-0.1,0-11.4-2.6-23.6-5.7
		c-12-3.1-22.7-1.4-22.8-1.4l-0.6,0.1l-0.7-27.9l0.5,0c0.5,0,11.8-0.9,18.3,0c6.4,0.9,25.7,7.1,26.5,7.4l0.3,0.1l2.7,27.7
		L-289.6,304.9z M-320.9,250.7c0.1,0,8.2,1,16.4,3.7c8.2,2.7,10.6,4.2,10.7,4.3l-0.6,0.8c0,0-0.7-0.4-2.5-1.2l-20.4-6
		c-2.2-0.4-3.7-0.6-3.7-0.6L-320.9,250.7z M-348.8,245.8l-1.4,64.7l-0.5,0v0v0l-0.5,0l1.4-64.7L-348.8,245.8z M-387.7,255.3
		c0.5-0.1,1.1-0.8,1.6-1.2c0.6-0.5,1.2-0.8,1.8-1.2c0.3-0.2,0.6-0.4,0.9-0.5c0.3-0.1,0.6-0.2,0.9-0.3c0.5-0.2,1.3-0.8,1.6-0.5
		c0.6-0.6,1.1-0.4,1.6-0.4c0.6,0.1,0.8,0.5,1.1,1c0.3,0.1,0.8,0.2,1.2,0.2c0.8,0,2.2-0.2,4.8,1.7c3.2,2.4,1.8,5.6-0.2,9.5
		c-2,3.8-7.2,8.1-8.8,8.7c-1.6,0.6-2.8,1.3-2.9,1.7c-0.1,0.3-0.6,0.9-1.8,1.2c-0.6,0.1-1.1,0.1-1.7,0.2c-1,0-1.8-0.2-2.6-0.7
		c-0.4-0.3-0.7-0.6-1-0.9c-0.3-0.3-0.6-0.5-1-0.8c-0.7-0.6-1-1.3-1.3-2.3c-0.2-0.9-0.3-2-0.3-3c-0.2-0.4-0.7-0.2-1.2-0.1
		c-0.5,0.1-1,0.2-1.4,0.3c-0.9,0.2-1.8,0.3-2.5,0c-0.4-0.2-0.7-0.4-1.1-0.6c-0.3-0.2-0.5-0.3-0.6-0.7c-0.1-0.4,0-0.9,0.1-1.3
		c0.1-0.5,0.4-0.9,0.6-1.4c0.2,0,0.3-0.1,0.5-0.1c0.8,0.3,1.7,0.3,2.6,0.3c0.5,0,1-0.1,1.4-0.1c0.4,0,0.7,0.2,1.1,0.2c0,0,0,0,0,0.1
		c0.3-0.1,0.5-0.1,0.8-0.2c0.4-0.7,0.5-1.5,0.9-2.2c0.4-0.8,0.8-1.6,1.3-2.4C-390.2,257.8-388.9,256.6-387.7,255.3z M-407.1,303.3
		l-0.3-1c0.7-0.2,17.3-5,22.4-5.6l0.1,0.5c0,0,0,0,0,0l0,0l0.1,0.5C-389.9,298.3-407,303.3-407.1,303.3z M-407.1,298.4l-0.3-1
		c0.7-0.2,17.3-5,22.4-5.6l0.1,0.5c0,0,0,0,0,0l0,0l0.1,0.5C-389.9,293.4-407,298.4-407.1,298.4z M-407.1,292.2l-0.3-1
		c0.7-0.2,17.3-5,22.4-5.6l0.1,0.5c0,0,0,0,0,0l0,0l0.1,0.5C-389.9,287.2-407,292.1-407.1,292.2z"/>
	<path id="XMLID_446_" class="st0" d="M-329.7,317c5.4,0.1,10.7,0.2,16.1,0.3l30.4,0.9l0.4-2.2l-15.6-2.3
		c-5.9-0.9-11.9-1.7-17.8-2.4c-3-0.4-5.9-0.7-8.9-0.9c-1.5-0.1-2.9-0.2-4.3-0.2l-0.3,0l-0.1,0l0,0l-0.6,0l-1.1,0.1
		c-0.7,0.1-1.2,0.2-2,0.3c-1.4,0.3-2.7,0.6-4.1,1c-1.4,0.4-2.7,0.9-4.1,1.4c-1.4,0.5-2.7,1.1-4,1.7c-1.3,0.6-2.7,1.2-3.9,1.9
		l-2.8,1.4l-1.1-3.1c-0.1-0.1-0.2-0.5-0.3-0.8c-0.1-0.3-0.3-0.6-0.4-0.9c-0.3-0.6-0.7-1.1-1-1.7c-0.8-1.1-1.7-2-2.8-2.7
		c-1.1-0.7-2.2-1.3-3.5-1.5c-0.6-0.2-1.3-0.2-2-0.3c-0.3,0-0.7,0-1,0l-1,0l-2.4,0.2l-2.2,0.3c-1.5,0.2-3.1,0.5-4.6,0.8
		c-3.1,0.6-6.2,1.2-9.3,1.8c-6.2,1.3-12.4,2.7-18.6,4.2l-16.5,3.9l0,0.1l31-0.9c5.4-0.2,10.9-0.2,16.3-0.3l16.3-0.3l0.8,0l-0.2,0.7
		l-1.1,4.7l5,0.2l6-0.2c-0.4-1.6-0.9-3.1-1.3-4.7l-0.2-0.8l0.8,0L-329.7,317z"/>
	<polygon id="XMLID_447_" class="st0" points="-351.1,322.5 -351.1,322.5 -351.1,322.5 	"/>
	<path class="st1" d="M-271.8,323.4l-0.2-1.8l0.1-0.1l-0.1,0l-7.7-63.7l0-0.1l-0.1,0l-4.1-1.2l-0.5-4.5l-0.1-1.3l-1.1-0.6
		c-2.5-1.2-5-2.4-7.5-3.5c-2.5-1.1-5-2.2-7.6-3.2c-2.6-1-5.1-2-7.7-2.9c-1.3-0.4-2.6-0.9-4-1.3c-0.7-0.2-1.3-0.4-2-0.6l-1-0.3
		l-0.2-0.1l-0.3-0.1l-0.5-0.1c-0.7-0.1-1.4-0.3-2.2-0.4l-2.2-0.2c-0.7-0.1-1.4-0.1-2.1-0.1c-0.7,0-1.4,0-2.1,0c-0.7,0-1.4,0-2.1,0.1
		l-2.1,0.2c-1.4,0.2-2.8,0.3-4.2,0.6c-1.4,0.2-2.7,0.5-4.1,0.8c-1.3,0.3-2.7,0.7-4,1c-1.3,0.4-2.7,0.8-4,1.2c-1,0.3-2.1,0.7-3.1,1.1
		c-1-0.7-2-1.2-3.1-1.7c-1.3-0.6-2.7-1.1-4.1-1.6l-2.1-0.6l-2.1-0.4l-2.2-0.3c-0.7-0.1-1.4-0.1-2.2-0.1c-0.7-0.1-1.4,0-2.2,0
		c-0.7,0-1.4,0-2.2,0.1c-0.7,0.1-1.4,0.2-2.1,0.3l-2.1,0.4c-0.7,0.1-1.4,0.3-2.1,0.5l-2,0.6l-4,1.3c-5.3,1.6-10.6,3.2-16,4.8
		l-16.1,4.7l0,0.1c-0.3,1.8-0.6,3.5-0.9,5.3c-0.6,3.7-1.2,7.5-1.8,11.2l-2.5,16.5l-2.5,16.5c-0.4,2.8-0.8,5.5-1.2,8.3l-1.2,8.3
		l-0.3,2.3l2.2-0.5l0.6,2.2l0,0.2l0.2,0c0,0,1.8,0,0.4,0.1l-6.7,0.5l3.1-30.5l1.5-16.5l0.7-8.2c0.2-2.7,0.5-5.3,0.7-8l6.7-2.3l0-0.1
		l0-0.1l-7.1,2.1l-0.1,0l0,0.1l-7.7,63.7l-0.1,0l0.1,0.1l-0.2,1.9l0,0.3l0.3,0l1.9-0.1l0.1,0.1l0-0.1l70.3-3.9l-0.5,1.8l-0.1,0
		l0.1,0.2l-0.7,2.4l-0.1,0.3l0.3,0c0.8,0.1,1.6,0.1,2.4,0.2l0.2,0.2l0.1-0.2c3.1,0.2,6.1,0.2,9.2,0l0.1,0.2l0.2-0.3
		c0.8,0,1.6-0.1,2.4-0.1l0.3,0l-0.1-0.3l-0.6-2.4l0.1-0.2l-0.2,0l-0.5-1.8l70.3,3.9l0,0.1l0.1-0.1l1.9,0.1l0.3,0L-271.8,323.4z
		 M-421.6,316.3l8.5-65.8c10.7-2.7,21.5-5.5,32.1-8.6l4-1.2l2-0.5c0.7-0.2,1.3-0.4,2-0.4l2-0.4l2.1-0.2c0.7-0.1,1.4-0.1,2.1-0.1
		c0.7,0,1.4,0,2.1,0c0.7,0.1,1.4,0.1,2.1,0.1l2.1,0.3l2,0.4l2,0.6c1.3,0.4,2.6,0.9,3.8,1.5c1.2,0.6,2.4,1.3,3.5,2.1l0.1,0.1l0.1,0
		c1.3-0.5,2.5-0.9,3.8-1.3c1.3-0.4,2.6-0.8,3.9-1.1c1.3-0.4,2.6-0.7,3.9-1c1.3-0.3,2.7-0.5,4-0.8c1.3-0.2,2.7-0.4,4-0.5l2-0.2
		c0.7,0,1.4,0,2-0.1c0.7,0,1.4,0,2,0c0.7,0,1.4,0,2,0.1l2,0.2c0.7,0.1,1.3,0.3,2,0.4c0.7,0.1,1.3,0.3,2,0.5c0.7,0.2,1.3,0.4,1.9,0.6
		c1.3,0.4,2.6,0.8,3.9,1.3c2.6,0.9,5.1,1.9,7.6,2.9c5,2.1,9.9,4.3,14.7,6.7l6.5,61.6c-5.8-1-11.6-1.9-17.4-2.8
		c-6-0.9-11.9-1.8-17.9-2.5c-3-0.4-6-0.7-9-1c-0.2,0-0.4,0-0.6,0c-1.3-0.1-2.6-0.2-3.9-0.2c-0.8,0-1.5,0.1-2.3,0.1
		c-0.8,0.1-1.5,0.2-2.3,0.3c-1.5,0.3-3,0.6-4.4,1.1c-1.5,0.4-2.9,0.9-4.3,1.4c-2.7,1-5.4,2.2-8,3.5c-0.5-1.4-1.2-2.8-2.1-4
		c-1-1.3-2.2-2.5-3.5-3.4c-1.4-0.9-2.9-1.6-4.5-1.9c-0.8-0.2-1.6-0.2-2.4-0.4c-0.8,0-1.6,0-2.4,0l-2.4,0.2l-2.4,0.3
		c-1.6,0.2-3.2,0.5-4.7,0.8c-3.1,0.6-6.3,1.2-9.4,1.9C-397,310.2-409.3,313.2-421.6,316.3z M-355.6,316.7l-16.3,0.3
		c-5.4,0.1-10.9,0.2-16.3,0.3l-31,0.9l0-0.1l16.5-3.9c6.2-1.4,12.4-2.9,18.6-4.2c3.1-0.6,6.2-1.3,9.3-1.8c1.5-0.2,3.1-0.6,4.6-0.8
		l2.2-0.3l2.4-0.2l1,0c0.3,0,0.7,0,1,0c0.7,0.1,1.3,0.1,2,0.3c1.3,0.3,2.4,0.8,3.5,1.5c1.1,0.7,2,1.6,2.8,2.7c0.4,0.5,0.7,1.1,1,1.7
		c0.1,0.3,0.3,0.6,0.4,0.9c0.1,0.3,0.2,0.6,0.3,0.8l1.1,3.1l2.8-1.4c1.2-0.6,2.6-1.3,3.9-1.9c1.3-0.6,2.7-1.2,4-1.7
		c1.4-0.5,2.7-1,4.1-1.4c1.4-0.4,2.7-0.8,4.1-1c0.7-0.2,1.3-0.2,2-0.3l1.1-0.1l0.6,0l0,0l0.1,0l0.3,0c1.3,0,2.8,0.1,4.3,0.2
		c2.9,0.2,5.9,0.6,8.9,0.9c5.9,0.7,11.9,1.5,17.8,2.4l15.6,2.3l-0.4,2.2l-30.4-0.9c-5.4-0.2-10.7-0.2-16.1-0.3l-16.1-0.3l-0.8,0
		l0.2,0.8c0.4,1.6,0.9,3.1,1.3,4.7l-6,0.2l-5-0.2l1.1-4.7l0.2-0.7L-355.6,316.7z M-344.4,322.6l-1.2-5.1l0,0L-344.4,322.6z
		 M-281,320.7l-2.2-0.2l1.7,0.1l0.2,0l0-0.2l0.7-3.6l3.3,0.5l-0.4-3.5l-6.3-57.1l3.6,1.2c0.2,2.7,0.5,5.3,0.7,8l0.7,8.2l1.5,16.5
		l3.1,30.5L-281,320.7z"/>
	<line id="XMLID_451_" class="st2" x1="-350.7" y1="310.5" x2="-350.7" y2="310.5"/>
	<polygon id="XMLID_452_" class="st3" points="-351.2,310.5 -350.7,310.5 -350.2,310.5 -348.8,245.8 -349.8,245.8 	"/>
	<path id="XMLID_453_" class="st0" d="M-304.8,255.3c-4.7-1.5-9.4-2.5-12.5-3l20.4,6C-298.5,257.5-301,256.5-304.8,255.3z"/>
	<path id="XMLID_454_" class="st3" d="M-304.8,255.3c3.8,1.2,6.4,2.2,8,3c1.8,0.8,2.4,1.2,2.5,1.2l0.6-0.8
		c-0.1-0.1-2.5-1.6-10.7-4.3c-8.2-2.7-16.3-3.6-16.4-3.7l-0.1,1c0,0,1.5,0.2,3.7,0.6C-314.2,252.8-309.5,253.7-304.8,255.3z"/>
	<path id="XMLID_455_" class="st0" d="M-317.3,256.6l20.4,6c-1.6-0.7-4.1-1.7-8-3C-309.5,258.1-314.2,257.2-317.3,256.6z"/>
	<path id="XMLID_456_" class="st3" d="M-304.5,258.7c-8.2-2.7-16.3-3.6-16.4-3.7l-0.1,1c0,0,1.5,0.2,3.7,0.6c3.1,0.5,7.8,1.5,12.5,3
		c3.8,1.2,6.4,2.2,8,3c1.8,0.8,2.4,1.2,2.5,1.2l0.6-0.8C-294,262.9-296.3,261.4-304.5,258.7z"/>
	<path id="XMLID_457_" class="st0" d="M-317.3,261.6l20.4,6c-1.6-0.7-4.1-1.7-8-3C-309.5,263.1-314.2,262.2-317.3,261.6z"/>
	<path id="XMLID_458_" class="st3" d="M-320.9,260.1l-0.1,1c0,0,1.5,0.2,3.7,0.6c3.1,0.5,7.8,1.5,12.5,3c3.8,1.2,6.4,2.2,8,3
		c1.8,0.8,2.4,1.2,2.5,1.2l0.6-0.8c-0.1-0.1-2.5-1.6-10.7-4.3C-312.7,261.1-320.8,260.1-320.9,260.1z"/>
	<polygon id="XMLID_459_" class="st0" points="-385,297.3 -385,297.3 -385,297.3 	"/>
	<path id="XMLID_460_" class="st3" d="M-385,297.3l-0.1-0.5c-5.1,0.5-21.7,5.4-22.4,5.6l0.3,1c0.2-0.1,17.2-5,22.2-5.5L-385,297.3
		L-385,297.3z"/>
	<polygon id="XMLID_461_" class="st0" points="-385,292.4 -385,292.4 -385,292.4 	"/>
	<path id="XMLID_462_" class="st3" d="M-385,292.4l-0.1-0.5c-5.1,0.5-21.7,5.4-22.4,5.6l0.3,1c0.2-0.1,17.2-5,22.2-5.5L-385,292.4
		L-385,292.4z"/>
	<polygon id="XMLID_463_" class="st0" points="-385,286.2 -385,286.2 -385,286.2 	"/>
	<path id="XMLID_464_" class="st3" d="M-385,286.2l-0.1-0.5c-5.1,0.5-21.7,5.4-22.4,5.6l0.3,1c0.2-0.1,17.2-5,22.2-5.5L-385,286.2
		L-385,286.2z"/>
	<path id="XMLID_465_" class="st0" d="M-318.6,270.9c-5.6-0.8-15.3-0.2-17.6,0l0.6,25.8c1.1-0.1,3.6-0.4,7.1-0.4
		c4.2,0,9.7,0.4,15.5,1.9c10.4,2.7,20.2,5,22.8,5.6l-2.5-25.6C-295.1,277.4-312.7,271.8-318.6,270.9z"/>
	<path id="XMLID_468_" class="st4" d="M-291.9,277.3c-0.8-0.3-20.1-6.5-26.5-7.4c-6.4-0.9-17.8,0-18.3,0l-0.5,0l0.7,27.9l0.6-0.1
		c0.1,0,10.8-1.7,22.8,1.4c12.1,3.1,23.4,5.7,23.6,5.7l0.7,0.2l-2.7-27.7L-291.9,277.3z M-312.9,298.2c-5.8-1.5-11.3-1.9-15.5-1.9
		c-3.4,0-6,0.3-7.1,0.4l-0.6-25.8c2.3-0.2,12-0.7,17.6,0c5.9,0.8,23.5,6.4,26,7.2l2.5,25.6C-292.7,303.2-302.5,300.9-312.9,298.2z"
		/>
	<path id="XMLID_471_" class="st4" d="M-392.5,261.7c-0.3,0.7-0.5,1.5-0.9,2.2c-0.3,0.1-0.5,0.1-0.8,0.2c0,0,0,0,0-0.1
		c-0.4-0.1-0.7-0.2-1.1-0.2c-0.4,0-0.9,0-1.4,0.1c-1,0.1-1.8,0-2.6-0.3c-0.1,0-0.3,0.1-0.5,0.1c-0.2,0.5-0.5,0.9-0.6,1.4
		c-0.1,0.5-0.2,0.9-0.1,1.3c0.1,0.4,0.4,0.5,0.6,0.7c0.3,0.2,0.7,0.5,1.1,0.6c0.7,0.3,1.6,0.1,2.5,0c0.5-0.1,1-0.2,1.4-0.3
		c0.4-0.1,1-0.3,1.2,0.1c0,1.1,0,2.1,0.3,3c0.3,1,0.7,1.7,1.3,2.3c0.3,0.3,0.6,0.5,1,0.8c0.4,0.3,0.7,0.6,1,0.9
		c0.7,0.5,1.6,0.7,2.6,0.7c0.6-0.1,1.1-0.1,1.7-0.2c1.2-0.3,1.6-0.8,1.8-1.2c0.1-0.3,1.3-1,2.9-1.7c1.6-0.6,6.8-4.8,8.8-8.7
		c2-3.8,3.4-7.1,0.2-9.5c-2.6-1.9-4-1.7-4.8-1.7c-0.3,0-0.9-0.1-1.2-0.2c-0.3-0.5-0.5-0.9-1.1-1c-0.5-0.1-1-0.2-1.6,0.4
		c-0.3-0.3-1.1,0.3-1.6,0.5c-0.3,0.1-0.6,0.2-0.9,0.3c-0.3,0.1-0.6,0.3-0.9,0.5c-0.6,0.4-1.2,0.7-1.8,1.2c-0.5,0.4-1,1.1-1.6,1.2
		c-1.2,1.3-2.4,2.6-3.4,4.1C-391.7,260.1-392.1,260.9-392.5,261.7z M-393.6,265.6c-0.2,0.2-0.4,0.3-0.6,0.5
		c-0.6,0.1-1.1-0.1-1.8,0.5c-0.4,0.1-0.8,0.2-1.2,0.2c0.1,0,0.2,0,0,0c-0.3,0-0.1,0,0,0c-0.4,0-0.8,0-1.3,0c-0.3,0-0.7,0-0.8-0.4
		c0-0.1,0-0.6-0.1-0.7c0.4-0.2,0.8-0.1,1.2-0.1c0.4,0,0.9-0.2,1.4-0.2c0.4,0,0.8,0,1.3,0c0.5,0,0.9-0.1,1.4-0.1
		c0.2-0.1,0.4-0.2,0.6-0.4C-393.5,265.2-393.5,265.4-393.6,265.6z M-381.1,252.6c0.2-0.3,0.7-0.4,0.9-0.5c0.2,0,0.3,0.1,0.2,0.4
		c-0.1,0.1-0.2,0.2-0.2,0.3c-0.2,0-0.4,0.1-0.6,0.1c-0.1-0.1-0.2-0.1-0.3-0.2C-381.1,252.7-381.1,252.6-381.1,252.6z M-390.1,259.7
		c-0.1,0-0.2,0-0.4,0c0.4-0.7,0.9-1.4,1.5-2c0.7-0.6,1.5-1.1,2.2-1.6c0.3-0.2,0.7-0.5,1-0.8c0.3-0.3,0.7-0.6,1-0.8
		c0.7-0.4,1.4-0.7,2.1-1c-0.1,0.2-0.1,0.4-0.1,0.6c0.2,0.1,0.5,0,0.6,0.2c-0.8,0.7-1.5,1.5-2,2.4c-0.3,0.5-0.6,0.9-0.9,1.4
		c-0.3,0.5-0.6,1-0.8,1.5c-0.5,1-0.8,2-1,3c-0.3,1-0.5,1.9-0.6,2.8c0,0.4-0.1,0.9-0.1,1.3c0,0.5,0,0.9,0,1.4c0,0.8,0.3,1.5,0.4,2.2
		c0.1,0.3,0,0.7,0.1,1.1c0.1,0.4,0.2,0.7,0.4,1c0.4,0.6,0.8,1.1,1.5,1.3c0,0,0,0,0,0c0,0.1-0.1,0.1-0.1,0.2
		c-0.2,0.1-0.4,0.1-0.5,0.1c-0.9-0.1-1.8-0.2-2.7-0.6c0.1,0,0.1,0.1,0,0c0,0,0,0,0,0c-0.6-0.2-1.3-0.6-1.6-1.2
		c0.5-0.1,0.7,0.1,1.1,0.1c0.3,0,0.8-0.1,1-0.5c-0.2-0.4-0.5-0.9-1.1-0.8c-0.5,0.1-1,0.5-1.5,0.9c-0.5-0.2-1.5-1.4-1.6-1.9
		c0.2-0.1,0.4-0.2,0.6-0.4c0.1-0.2,0.3-0.4,0.5-0.6c-0.1-0.2-0.1-0.4-0.2-0.5c-0.4,0.2-0.8,0.6-1.2,0.9c-0.1-0.4-0.2-0.8-0.2-1.3
		c0.5-0.4,0.9-0.3,1.4-0.7c0.1-0.1,0.1-0.2,0.1-0.4c-0.1-0.1-0.2-0.1-0.3-0.2c-0.3,0.1-0.5,0.3-0.7,0.4c-0.2,0.2-0.3,0.4-0.6,0.6
		c-0.2-0.5-0.1-1.2,0-1.9c0.8-0.6,1.5-1.1,2.3-1.7c0-0.2,0-0.4,0-0.7c-0.2,0.1-0.4,0.1-0.6,0.1c-0.6,0.7-1.1,1.3-1.6,2
		c-0.3-0.8,0.2-2.8,1.5-4.8c0.3-0.2,0.6-0.4,0.9-0.7C-390.1,259.9-390.1,259.8-390.1,259.7z"/>
</g>
</svg>
