<?xml version="1.0" encoding="utf-8"?>
<!-- Generator: Adobe Illustrator 19.0.0, SVG Export Plug-In . SVG Version: 6.00 Build 0)  -->
<svg version="1.1" id="Camada_1" xmlns="http://www.w3.org/2000/svg" xmlns:xlink="http://www.w3.org/1999/xlink" x="0px" y="0px"
	 viewBox="-415 244.1 128.6 72.9" style="enable-background:new -415 244.1 128.6 72.9;" xml:space="preserve">
<style type="text/css">
	.st0{fill:none;}
	.st1{fill:#ADC77F;}
	.st2{fill:#FFFFFF;}
	.st3{fill:none;stroke:#EFEBE6;stroke-width:0;stroke-linecap:round;stroke-linejoin:round;}
</style>
<g id="XMLID_61_">
	<path id="XMLID_135_" class="st0" d="M-367.6,260.6c1.8-0.5,4.3-1.1,6.4-1.7L-367.6,260.6z"/>
	<path id="XMLID_143_" class="st1" d="M-329,282.4l-2.3-19l-1.5-0.4l1.9,16.8l0.1,0.6l-0.6-0.1c0,0,0,0,0,0l-0.3,1.3l-18.7-0.9
		l0.4,1.5c0,0-0.9,0-1.9,0c-1,0-1.6,0-1.6,0l0.3-1.5l-18.9,0.9l-0.2-0.8c0,0,0,0,0,0l-0.4,0.1l0.1-0.4c0.4-3.2,0.9-6.3,1.4-9.5
		l1.2-7.9h-0.1l-2,0.5l-2.3,19l21.1-1.2l-0.4,1.4c0,0,0.8,0.1,2,0.1s2.2-0.1,2.2-0.1l-0.4-1.4L-329,282.4z"/>
	<path id="XMLID_147_" class="st2" d="M-333.3,261.7c-1.4-0.7-2.8-1.4-4.3-2c-0.7-0.3-1.5-0.6-2.2-0.9c-0.4-0.1-0.7-0.3-1.1-0.4
		c-0.4-0.1-0.8-0.2-1.1-0.3c-1.5-0.4-3.1-0.3-4.7,0c-1.6,0.3-3.1,0.7-4.6,1.2l0,0l0,0c-0.6-0.5-1.4-0.8-2.1-1.1
		c-0.4-0.1-0.8-0.2-1.2-0.3c-0.4-0.1-0.8-0.1-1.2-0.1c-0.4,0-0.8,0-1.2,0c-0.4,0-0.8,0.1-1.2,0.2c-0.4,0.1-0.8,0.2-1.2,0.3l-1.2,0.3
		l-0.5,0.1c-2.2,0.6-4.7,1.3-6.4,1.7l-2.3,0.6l-2.5,19.1c3.6-0.9,7.2-1.8,10.8-2.6c1.8-0.4,3.6-0.8,5.5-1c0.5,0,0.9,0,1.4,0.1
		c0.5,0.1,0.9,0.3,1.3,0.5c0.8,0.5,1.3,1.3,1.6,2.2c1.5-0.8,3.2-1.4,4.9-1.8c0.4-0.1,0.9-0.1,1.3-0.1c0.4,0,0.9,0,1.3,0.1
		c0.9,0.1,1.7,0.2,2.6,0.3c3.4,0.4,6.9,1,10.3,1.5L-333.3,261.7z M-351.8,278.6L-351.8,278.6l-0.3,0l0.4-18.8l0.3,0v0v0l0.3,0
		l-0.4,18.8L-351.8,278.6L-351.8,278.6z"/>
	<path id="XMLID_150_" class="st1" d="M-372.7,280.4l-0.1,0.4l0.4-0.1c0,0,0,0,0,0l-0.1-0.3c0,0,12.9-3.3,16.3-3.5
		c3.4-0.2,4.3,2.8,4.3,2.8s3.5-1.8,6.1-1.9c2.6-0.1,14.4,1.9,14.4,1.9l-0.1,0.5c0,0,0,0,0,0l0.6,0.1l-0.1-0.6l-1.9-16.8l-0.1-1.2
		l0-0.2l-0.2-0.1c-1.4-0.7-2.9-1.4-4.3-2c-0.7-0.3-1.5-0.6-2.2-0.8c-0.4-0.1-0.8-0.3-1.1-0.4c-0.4-0.1-0.7-0.2-1.2-0.3
		c-1.6-0.4-3.3-0.3-4.8,0c-1.5,0.3-3,0.7-4.5,1.2c-0.7-0.5-1.4-0.8-2.1-1c-0.4-0.1-0.8-0.2-1.2-0.3c-0.4-0.1-0.8-0.1-1.2-0.1
		c-0.4,0-0.8,0-1.2,0c-0.4,0-0.8,0.1-1.2,0.2c-0.4,0.1-0.8,0.2-1.2,0.3l-1.2,0.3l-9.3,2.7l-0.2,1.5l-1.2,8.1
		C-371.8,274-372.3,277.2-372.7,280.4z M-341.7,278.1c-0.9-0.1-1.7-0.2-2.6-0.3c-0.4,0-0.9-0.1-1.3-0.1c-0.4,0-0.9,0.1-1.3,0.1
		c-1.7,0.3-3.3,1-4.9,1.8c-0.3-0.9-0.9-1.7-1.6-2.2c-0.4-0.3-0.8-0.5-1.3-0.5c-0.5-0.1-0.9-0.1-1.4-0.1c-1.8,0.2-3.7,0.6-5.5,1
		c-3.6,0.8-7.2,1.7-10.8,2.6l2.5-19.1l2.3-0.6l6.4-1.7l0.5-0.1l1.2-0.3c0.4-0.1,0.8-0.2,1.2-0.3c0.4-0.1,0.8-0.1,1.2-0.2
		c0.4,0,0.8,0,1.2,0c0.4,0,0.8,0.1,1.2,0.1c0.4,0.1,0.8,0.2,1.2,0.3c0.8,0.3,1.5,0.6,2.1,1.1l0,0l0,0c1.5-0.5,3-1,4.6-1.2
		c1.5-0.2,3.2-0.3,4.7,0c0.4,0.1,0.8,0.2,1.1,0.3c0.4,0.1,0.7,0.2,1.1,0.4c0.7,0.3,1.5,0.5,2.2,0.9c1.4,0.6,2.9,1.3,4.3,2l1.9,17.9
		C-334.9,279.1-338.3,278.6-341.7,278.1z"/>
	<path id="XMLID_151_" class="st1" d="M-345.8,277.8c-2.6,0.1-6.1,1.9-6.1,1.9s-0.8-3-4.3-2.8c-3.4,0.2-16.3,3.5-16.3,3.5l0.1,0.3
		l0.2,0.8l18.9-0.9l-0.3,1.5c0,0,0.6,0,1.6,0c1,0,1.9,0,1.9,0l-0.4-1.5l18.7,0.9l0.3-1.3l0.1-0.5
		C-331.4,279.7-343.2,277.7-345.8,277.8z"/>
	<line id="XMLID_152_" class="st3" x1="-351.8" y1="278.6" x2="-351.8" y2="278.6"/>
	<line id="XMLID_153_" class="st3" x1="-351.4" y1="259.9" x2="-351.4" y2="259.9"/>
	<polygon id="XMLID_154_" class="st1" points="-351.1,259.9 -351.4,259.9 -351.7,259.9 -352.1,278.6 -351.8,278.6 -351.5,278.7 	"/>
</g>
</svg>
