<?xml version="1.0" encoding="utf-8"?>
<!-- Generator: Adobe Illustrator 16.0.0, SVG Export Plug-In . SVG Version: 6.00 Build 0)  -->
<!DOCTYPE svg PUBLIC "-//W3C//DTD SVG 1.1//EN" "http://www.w3.org/Graphics/SVG/1.1/DTD/svg11.dtd" [
	<!ENTITY ns_flows "http://ns.adobe.com/Flows/1.0/">
	<!ENTITY ns_extend "http://ns.adobe.com/Extensibility/1.0/">
	<!ENTITY ns_ai "http://ns.adobe.com/AdobeIllustrator/10.0/">
	<!ENTITY ns_graphs "http://ns.adobe.com/Graphs/1.0/">
]>
<svg version="1.1" id="Layer_1" xmlns:x="&ns_extend;" xmlns:i="&ns_ai;" xmlns:graph="&ns_graphs;"
	 xmlns="http://www.w3.org/2000/svg" xmlns:xlink="http://www.w3.org/1999/xlink" xmlns:a="http://ns.adobe.com/AdobeSVGViewerExtensions/3.0/"
	 x="0px" y="0px" width="264.307px" height="118.948px" viewBox="0 0 264.307 118.948" enable-background="new 0 0 264.307 118.948"
	 xml:space="preserve">
<g>
	<path fill-rule="evenodd" clip-rule="evenodd" d="M147.476,103.855c-0.309,2.518-1.641,4.609-3.535,6.207
		c-1.809,1.523-3.676,3.014-5.818,4.143c-1.08,0.57-2.143,0.986-3.303,1.293c-1.224,0.324-2.497,0.623-3.6,1.211
		c-4.947,2.639-10.042,2.895-15.249,1.037c-1.33-0.475-2.56-1.295-3.75-2.086c-2.051-1.363-4.006-2.869-6.051-4.242
		c-3.051-2.047-4.792-5.037-6.157-8.314c-0.398-0.959-0.824-1.91-1.132-2.898c-0.283-0.904-0.588-1.854-0.599-2.785
		c-0.036-3.352-0.208-6.732,0.173-10.047c0.268-2.332,1.37-4.562,2.062-6.852c1.633-5.4,4.23-10.443,5.954-15.797
		c1.457-4.525,2.5-9.186,3.65-13.807c0.267-1.07,0.238-2.216,0.324-3.328c0.27-3.525,1.435-6.848,2.338-10.227
		c0.493-1.844,0.984-3.697,1.658-5.479c0.795-2.102,1.956-3.986,3.691-5.518c2.146-1.893,4.077-4.055,6.751-5.248
		c2.692-1.2,5.415-2.276,8.385-2.702c2.158-0.31,4.281-0.269,6.425-0.085c1.283,0.109,2.392,0.543,3.547,1.219
		c2.344,1.369,4.614,2.809,6.695,4.547c0.481,0.401,0.971,0.812,1.367,1.293c0.964,1.164,1.852,2.391,2.812,3.557
		c1.227,1.489,1.88,3.293,2.82,4.937c1.924,3.364,2.385,7.218,3.758,10.765c0.934,2.414,0.457,5.033,0.783,7.539
		c0.278,2.149,0.271,4.256-0.183,6.377c-0.095,0.438,0.121,0.937,0.15,1.41c0.059,0.95,0.147,1.903,0.114,2.852
		c-0.074,2.146-0.238,4.289-0.31,6.436c-0.019,0.543,0.175,1.094,0.079,1.621c-0.354,2.195-0.675,4.396-1.074,6.584
		c-0.184,1.006-0.358,2.066-0.817,2.959c-1.136,2.203-2.107,4.445-2.762,6.848c-0.283,1.043-0.84,2.117-1.566,2.91
		c-1.246,1.357-1.885,2.953-2.308,4.658c-0.316,1.279-0.915,2.324-1.745,3.346c-0.893,1.1-1.542,2.398-2.297,3.609
		C148.339,102.471,147.919,103.143,147.476,103.855z M113.801,78.529c2.597-0.65,4.075-2.342,5.183-4.48
		c0.881-1.699,1.842-3.357,2.728-5.055c0.997-1.908,2.136-3.834,1.934-6.07c-0.258-2.854-0.799-5.672-1.99-8.415
		c-1.161-0.431-1.936-1.648-3.417-1.628c-1.371,1.444-1.879,3.273-2.323,5.148c-0.46,1.94-0.979,3.867-1.5,5.791
		c-0.333,1.23-0.749,2.441-1.072,3.674c-0.323,1.234-0.699,2.471-0.837,3.73c-0.231,2.113-1.033,4.174-0.767,6.221
		C112.497,77.844,113.11,78.166,113.801,78.529z"/>
	<path fill-rule="evenodd" clip-rule="evenodd" fill="#FFFFFF" d="M113.801,78.529c-0.69-0.363-1.304-0.686-2.062-1.084
		c-0.267-2.047,0.535-4.107,0.767-6.221c0.138-1.26,0.514-2.496,0.837-3.73c0.323-1.232,0.739-2.443,1.072-3.674
		c0.521-1.924,1.04-3.85,1.5-5.791c0.444-1.875,0.952-3.704,2.323-5.148c1.481-0.021,2.256,1.197,3.417,1.628
		c1.191,2.742,1.732,5.561,1.99,8.415c0.202,2.236-0.937,4.162-1.934,6.07c-0.886,1.697-1.847,3.355-2.728,5.055
		C117.876,76.188,116.397,77.879,113.801,78.529z"/>
</g>
<g>
	<path fill-rule="evenodd" clip-rule="evenodd" d="M222.354,108.133c-2.515,2.273-4.963,3.283-7.652,3.219
		c-3.213,2.861-6.651,4.982-10.568,6.279c-0.523,0.174-1.066,0.33-1.612,0.391c-3.092,0.334-6.181,0.766-9.282,0.9
		c-1.973,0.088-4.024-0.035-5.937-0.498c-3.334-0.805-6.539-2.018-9.43-3.99c-1.516-1.033-3.004-2.074-4.442-3.221
		c-4.576-3.654-6.347-8.68-7.022-14.191c-0.289-2.363-0.338-4.812-0.063-7.172c0.481-4.143,1.552-8.164,3.946-11.688
		c2.239-3.295,4.457-6.607,6.812-9.818c0.98-1.338,2.289-2.434,3.45-3.639c0.714-0.74,1.361-1.566,2.158-2.207
		c2.5-2.004,4.553-4.441,6.696-6.787c1.287-1.407,2.429-2.947,3.686-4.384c1.363-1.558,2.849-3.012,4.163-4.607
		c1.551-1.882,3.128-3.758,4.162-6.011c0.596-1.297,1.188-2.611,1.94-3.818c1.074-1.722,1.613-3.614,2.229-5.516
		c0.759-2.341,1.724-4.627,2.764-6.86c0.773-1.658,1.893-3.153,2.709-4.795c1.776-3.572,4.54-6.321,7.335-9.051
		c0.854-0.832,1.722-1.684,2.708-2.338c1.918-1.271,3.923-2.409,5.896-3.595c0.204-0.122,0.49-0.14,0.649-0.296
		c2.092-2.053,5.005-2.341,7.52-3.473c2.295-1.033,4.751-1.229,7.257-0.636c2.154,0.51,4.33,0.795,6.336,1.935
		c1.853,1.052,3.282,2.376,4.577,4.06c1.839,2.388,3.52,4.887,5.356,7.268c1.856,2.407,2.765,5.203,3.74,7.979
		c0.604,1.719,1.05,3.504,1.434,5.287c0.266,1.233,0.402,2.514,0.422,3.776c0.035,2.305,0.02,4.616-0.122,6.916
		c-0.138,2.223-0.474,4.422-1.314,6.525c-0.442,1.106-0.769,2.275-1.004,3.444c-0.456,2.272-1.333,4.318-2.416,6.39
		c-1.124,2.148-2.544,4.181-3.241,6.583c-0.343,1.18-1.249,2.191-1.876,3.295c-3.15,5.545-6.27,11.107-9.456,16.631
		c-0.673,1.168-1.623,2.17-2.374,3.297c-0.926,1.389-1.854,2.785-2.634,4.258c-0.572,1.08-1.244,1.943-2.229,2.719
		c-1.611,1.268-3.007,2.809-4.514,4.213c-0.638,0.594-1.346,1.115-1.992,1.701c-0.944,0.857-1.841,1.723-2.365,2.965
		c-0.324,0.77-0.899,1.652-1.601,1.998c-1.813,0.895-2.602,2.535-3.513,4.119C223.123,106.588,222.673,107.525,222.354,108.133z
		 M219.399,71.145c-0.195,2.012,1.069,3.281,0.795,4.957c-1.156-0.066-1.898-0.674-2.549-1.352
		c-0.995-1.035-1.908-2.148-2.877-3.211c-0.146-0.16-0.407-0.219-0.665-0.348c-0.263,0.182-0.553,0.328-0.768,0.549
		c-0.265,0.27-0.469,0.6-0.763,0.99c0.568,1.02,1.21,1.943,1.626,2.959c1.387,3.387,2.708,6.799,4.003,10.221
		c0.122,0.324-0.124,0.787-0.236,1.383c-1.496-1.029-2.36-2.25-3.3-3.428c-2.629-3.291-3.938-7.281-5.892-10.93
		c-0.255-0.477-0.274-1.074-0.438-1.605c-0.113-0.363-0.288-0.709-0.559-1.355c-0.904,1.639-0.208,3.043-0.3,4.395
		c-0.096,1.414,0.21,2.705,0.655,3.982c0.459,1.316,1.05,2.588,1.758,4.301c-1.306-0.613-2.171-1.02-3.252-1.527
		c0.153,3.629,0.685,6.924,1.657,10.137c0.282,0.934,0.348,1.781,0.034,2.871c-1.242-0.998-1.967-2.117-2.664-3.262
		c-1.526-2.496-2.297-5.262-2.842-8.102c-0.13-0.672-0.184-1.35-0.791-1.867c-1.223,1.328-0.395,3.92-2.947,4.355
		c-0.129-0.582-0.244-1.102-0.42-1.898c-0.473,2.506-1.302,4.643-1.446,6.947c-0.081,1.297-0.596,2.473-1.762,3.414
		c-0.627-0.131-1.312-0.275-2.086-0.438c-0.284-0.459-0.636-0.895-0.848-1.391c-0.74-1.736-0.927-3.578-0.655-5.416
		c0.501-3.393,1.124-6.768,1.676-10.152c0.067-0.412,0.01-0.844,0.01-1.877c-0.872,1.148-1.493,1.77-1.883,2.512
		c-2.073,3.941-4.502,7.709-5.828,12.021c-0.369,1.201-1.033,2.311-1.466,3.256c-0.811,0.459-1.362,0.775-1.918,1.082
		c-0.059,0.033-0.142,0.02-0.331,0.041c-1.312-4.814,0.023-9.406,1.384-14.158c-1.017,0.568-1.697,1.354-2.917,1.057
		c-0.135-0.234-0.321-0.557-0.519-0.898c0.789-1.465,1.507-2.887,2.312-4.26c0.561-0.957,1.253-1.838,1.863-2.768
		c0.328-0.5,0.367-0.98-0.372-1.566c-0.619,2.096-1.819,3.502-3.565,4.432c-0.133,0.07-0.235,0.215-0.328,0.342
		c-1.552,2.115-3.338,4.082-4.151,6.658c-0.094,0.299-0.253,0.605-0.463,0.832c-1.688,1.83-2.268,4.156-2.886,6.453
		c-0.858,3.189-1.082,6.455-0.86,9.736c0.26,3.848,1.487,7.342,4.297,10.096c0.901,0.885,2.047,1.516,3.061,2.291
		c3.034,2.318,6.538,3.195,10.269,3.525c1.675,0.148,3.339-0.047,4.99,0.076c2.824,0.209,5.566-0.25,8.267-0.873
		c1.599-0.369,3.3-0.617,4.717-1.574c2.374-1.602,4.784-3.16,7.074-4.877c2.686-2.014,5.099-4.34,7.21-6.965
		c0.298-0.371,0.621-0.744,1.002-1.02c3.033-2.189,6.023-4.416,8.266-7.484c1.929-2.641,4.576-4.658,6.42-7.381
		c1.46-2.158,2.956-4.291,4.486-6.396c1.26-1.732,1.89-3.904,3.722-5.289c0.06-0.43,0.023-0.939,0.204-1.352
		c0.956-2.186,1.852-4.41,2.988-6.5c1.361-2.502,2.079-5.366,4.143-7.487c0.262-0.268,0.446-0.698,0.491-1.074
		c0.271-2.247,1.527-4.167,2.056-6.329c0.166-0.68,0.614-1.289,0.932-1.931c1.232-2.5,2.553-4.948,3.225-7.7
		c1.477-6.057,1.627-12.147,0.76-18.295c-0.365-2.581-1.279-4.902-2.802-7.039c-1.194-1.675-2.533-3.23-3.462-5.134
		c-0.82-1.68-2.211-3.086-3.377-4.591c-0.238-0.308-0.58-0.552-0.91-0.77C246.027,2.753,242.137,1.36,237.634,2
		c-0.917,0.727-1.959,1.216-3.236,1.197c-0.518-0.007-1.025,0.417-1.562,0.535c-4.882,1.07-8.13,4.877-12.191,7.316
		c-1.332,0.8-2.354,2.149-3.43,3.329c-0.633,0.694-1.185,1.501-1.604,2.341c-0.747,1.496-1.197,3.162-2.077,4.565
		c-1.529,2.442-1.369,5.328-2.444,7.9c0.366-0.091,0.668-0.215,0.807-0.44c0.995-1.614,2.387-2.963,3.109-4.768
		c0.293-0.729,0.771-1.408,1.271-2.025c1.56-1.928,3.325-3.691,4.615-5.869c-0.62,2.792-1.254,5.545-2.462,8.129
		c-0.269,0.575-0.557,1.181-0.638,1.799c-0.253,1.937-0.957,3.697-1.902,5.377c-0.483,0.858-0.758,1.735-0.449,3.004
		c2.097-2.212,4.002-4.334,6.03-6.331c2.056-2.024,4.233-3.925,6.49-6.002c0.141,0.497,0.352,0.822,0.285,1.074
		c-0.405,1.545-0.957,3.094-2.122,4.187c-1.237,1.162-2.109,2.566-3.141,3.867c-2.311,2.913-3.458,6.357-4.647,9.817
		c0.809,0.427,1.28-0.133,1.807-0.416c3.446-1.85,6.876-3.73,10.338-5.55c0.723-0.38,1.48-0.913,2.625-0.591
		c-0.379,0.596-0.59,1.128-0.968,1.482c-1.436,1.348-2.878,2.696-4.41,3.932c-1.216,0.98-2.262,2.063-3.297,3.498
		c2.234,0.183,4.298-0.489,6.435,0.623c-1.213,0.961-2.412,1.341-3.524,1.887c-1.783,0.876-3.548,1.794-5.286,2.757
		c-0.322,0.178-0.481,0.649-0.881,1.222c3.104-0.172,5.902-0.627,8.642-0.392c2.681,0.23,5.494,0.42,8.31,1.98
		c-0.709,0.219-1.058,0.398-1.417,0.424c-2.071,0.148-4.151,0.203-6.217,0.406c-1.259,0.124-2.501,0.438-3.741,0.705
		c-1.161,0.25-2.267,0.726-3.521,0.446c-0.889-0.198-1.619,0.17-2.153,1.231c0.925,0.275,1.673,0.497,2.422,0.721
		c1.759,0.524,3.523,1.032,5.271,1.592c0.284,0.092,0.494,0.413,1.178,1.015c-2.008,0-3.444-0.089-4.864,0.025
		c-1.371,0.111-2.764-0.486-4.376,0.028c0.379,0.314,0.526,0.488,0.713,0.584c3.26,1.676,6.535,3.327,9.777,5.036
		c0.414,0.219,0.666,0.746,0.996,1.135c-0.774,0.76-1.459,0.57-2.156,0.385c-2.45-0.652-4.899-1.305-7.357-1.922
		c-0.312-0.078-0.679,0.059-1.373,0.137c0.976,1.08,1.738,1.875,2.44,2.723c0.262,0.314,0.382,0.748,0.677,1.354
		c-1.382-0.109-2.457-0.195-3.765-0.299c0.248,0.816,0.438,1.441,0.618,2.033c0.445-0.07,0.747-0.117,0.769-0.121
		c0.751,0.662,1.317,1.174,1.897,1.67c0.787,0.674,1.637,1.287,2.354,2.027c0.316,0.328,0.371,0.908,0.646,1.646
		C223.979,74.068,221.97,72.258,219.399,71.145z M209.279,46.875c-1.109,0.28-2.037,0.314-2.74,0.729
		c-2.269,1.342-4.308,2.961-5.418,5.481c-0.316,0.719-0.668,1.437-1.104,2.086c-0.749,1.112-1.522,2.217-2.388,3.239
		c-0.956,1.132-1.218,2.36-0.921,3.846c0.713,0.326,1.424,0.652,2.169,0.994c0.382-0.26,0.783-0.416,1.013-0.707
		c1.372-1.74,3.161-3.051,4.691-4.627c1.426-1.468,3.072-2.759,3.903-4.721c0.368-0.868,0.738-1.735,1.125-2.646
		C209.515,49.491,209.416,48.394,209.279,46.875z"/>
	<path fill-rule="evenodd" clip-rule="evenodd" fill="#FFFFFF" d="M219.399,71.145c2.57,1.113,4.579,2.924,7.542,3.271
		c-0.274-0.738-0.329-1.318-0.646-1.646c-0.717-0.74-1.566-1.354-2.354-2.027c-0.58-0.496-1.146-1.008-1.897-1.67
		c-0.021,0.004-0.323,0.051-0.769,0.121c-0.18-0.592-0.37-1.217-0.618-2.033c1.308,0.104,2.383,0.189,3.765,0.299
		c-0.295-0.605-0.415-1.039-0.677-1.354c-0.702-0.848-1.465-1.643-2.44-2.723c0.694-0.078,1.061-0.215,1.373-0.137
		c2.458,0.617,4.907,1.27,7.357,1.922c0.697,0.186,1.382,0.375,2.156-0.385c-0.33-0.389-0.582-0.916-0.996-1.135
		c-3.242-1.709-6.518-3.359-9.777-5.036c-0.187-0.096-0.334-0.27-0.713-0.584c1.612-0.515,3.005,0.083,4.376-0.028
		c1.42-0.114,2.856-0.025,4.864-0.025c-0.684-0.602-0.894-0.923-1.178-1.015c-1.748-0.56-3.513-1.067-5.271-1.592
		c-0.749-0.224-1.497-0.445-2.422-0.721c0.534-1.062,1.265-1.43,2.153-1.231c1.255,0.279,2.36-0.196,3.521-0.446
		c1.24-0.268,2.482-0.581,3.741-0.705c2.065-0.203,4.146-0.258,6.217-0.406c0.359-0.025,0.708-0.205,1.417-0.424
		c-2.815-1.561-5.629-1.75-8.31-1.98c-2.739-0.235-5.537,0.22-8.642,0.392c0.399-0.572,0.559-1.044,0.881-1.222
		c1.738-0.963,3.503-1.881,5.286-2.757c1.112-0.546,2.312-0.926,3.524-1.887c-2.137-1.112-4.2-0.44-6.435-0.623
		c1.035-1.435,2.081-2.518,3.297-3.498c1.532-1.235,2.975-2.584,4.41-3.932c0.378-0.354,0.589-0.887,0.968-1.482
		c-1.145-0.322-1.902,0.211-2.625,0.591c-3.462,1.819-6.892,3.7-10.338,5.55c-0.526,0.283-0.998,0.843-1.807,0.416
		c1.189-3.46,2.337-6.904,4.647-9.817c1.031-1.301,1.903-2.705,3.141-3.867c1.165-1.093,1.717-2.642,2.122-4.187
		c0.066-0.252-0.145-0.577-0.285-1.074c-2.257,2.077-4.435,3.978-6.49,6.002c-2.028,1.997-3.934,4.119-6.03,6.331
		c-0.309-1.269-0.034-2.146,0.449-3.004c0.945-1.68,1.649-3.44,1.902-5.377c0.081-0.618,0.369-1.224,0.638-1.799
		c1.208-2.584,1.842-5.337,2.462-8.129c-1.29,2.178-3.056,3.941-4.615,5.869c-0.499,0.617-0.978,1.296-1.271,2.025
		c-0.723,1.805-2.114,3.153-3.109,4.768c-0.139,0.226-0.44,0.35-0.807,0.44c1.075-2.572,0.915-5.458,2.444-7.9
		c0.88-1.403,1.33-3.069,2.077-4.565c0.419-0.84,0.971-1.646,1.604-2.341c1.075-1.18,2.098-2.529,3.43-3.329
		c4.062-2.439,7.31-6.247,12.191-7.316c0.536-0.118,1.044-0.542,1.562-0.535c1.277,0.019,2.319-0.471,3.236-1.197
		c4.503-0.64,8.394,0.753,12.019,3.147c0.33,0.218,0.672,0.462,0.91,0.77c1.166,1.505,2.557,2.911,3.377,4.591
		c0.929,1.903,2.268,3.459,3.462,5.134c1.522,2.137,2.437,4.458,2.802,7.039c0.867,6.147,0.717,12.238-0.76,18.295
		c-0.672,2.752-1.992,5.2-3.225,7.7c-0.317,0.642-0.766,1.251-0.932,1.931c-0.528,2.162-1.785,4.082-2.056,6.329
		c-0.045,0.376-0.229,0.807-0.491,1.074c-2.063,2.121-2.781,4.985-4.143,7.487c-1.137,2.09-2.032,4.314-2.988,6.5
		c-0.181,0.412-0.145,0.922-0.204,1.352c-1.832,1.385-2.462,3.557-3.722,5.289c-1.53,2.105-3.026,4.238-4.486,6.396
		c-1.844,2.723-4.491,4.74-6.42,7.381c-2.242,3.068-5.232,5.295-8.266,7.484c-0.381,0.275-0.704,0.648-1.002,1.02
		c-2.111,2.625-4.524,4.951-7.21,6.965c-2.29,1.717-4.7,3.275-7.074,4.877c-1.417,0.957-3.118,1.205-4.717,1.574
		c-2.7,0.623-5.442,1.082-8.267,0.873c-1.651-0.123-3.315,0.072-4.99-0.076c-3.73-0.33-7.234-1.207-10.269-3.525
		c-1.014-0.775-2.159-1.406-3.061-2.291c-2.81-2.754-4.037-6.248-4.297-10.096c-0.222-3.281,0.002-6.547,0.86-9.736
		c0.618-2.297,1.198-4.623,2.886-6.453c0.21-0.227,0.369-0.533,0.463-0.832c0.813-2.576,2.6-4.543,4.151-6.658
		c0.093-0.127,0.195-0.271,0.328-0.342c1.746-0.93,2.946-2.336,3.565-4.432c0.739,0.586,0.7,1.066,0.372,1.566
		c-0.61,0.93-1.303,1.811-1.863,2.768c-0.805,1.373-1.522,2.795-2.312,4.26c0.197,0.342,0.384,0.664,0.519,0.898
		c1.22,0.297,1.9-0.488,2.917-1.057c-1.36,4.752-2.695,9.344-1.384,14.158c0.189-0.021,0.272-0.008,0.331-0.041
		c0.556-0.307,1.107-0.623,1.918-1.082c0.433-0.945,1.097-2.055,1.466-3.256c1.326-4.312,3.755-8.08,5.828-12.021
		c0.39-0.742,1.011-1.363,1.883-2.512c0,1.033,0.058,1.465-0.01,1.877c-0.552,3.385-1.175,6.76-1.676,10.152
		c-0.271,1.838-0.085,3.68,0.655,5.416c0.212,0.496,0.563,0.932,0.848,1.391c0.773,0.162,1.459,0.307,2.086,0.438
		c1.166-0.941,1.681-2.117,1.762-3.414c0.145-2.305,0.974-4.441,1.446-6.947c0.176,0.797,0.291,1.316,0.42,1.898
		c2.553-0.436,1.725-3.027,2.947-4.355c0.607,0.518,0.661,1.195,0.791,1.867c0.545,2.84,1.315,5.605,2.842,8.102
		c0.697,1.145,1.422,2.264,2.664,3.262c0.313-1.09,0.248-1.938-0.034-2.871c-0.973-3.213-1.504-6.508-1.657-10.137
		c1.081,0.508,1.946,0.914,3.252,1.527c-0.708-1.713-1.299-2.984-1.758-4.301c-0.445-1.277-0.751-2.568-0.655-3.982
		c0.092-1.352-0.604-2.756,0.3-4.395c0.271,0.646,0.445,0.992,0.559,1.355c0.164,0.531,0.184,1.129,0.438,1.605
		c1.953,3.648,3.263,7.639,5.892,10.93c0.939,1.178,1.804,2.398,3.3,3.428c0.112-0.596,0.358-1.059,0.236-1.383
		c-1.295-3.422-2.616-6.834-4.003-10.221c-0.416-1.016-1.058-1.939-1.626-2.959c0.294-0.391,0.498-0.721,0.763-0.99
		c0.215-0.221,0.505-0.367,0.768-0.549c0.258,0.129,0.519,0.188,0.665,0.348c0.969,1.062,1.882,2.176,2.877,3.211
		c0.65,0.678,1.393,1.285,2.549,1.352C220.469,74.426,219.204,73.156,219.399,71.145z"/>
	<path fill-rule="evenodd" clip-rule="evenodd" fill="#FFFFFF" d="M209.279,46.875c0.137,1.519,0.235,2.615,0.33,3.676
		c-0.387,0.91-0.757,1.777-1.125,2.646c-0.831,1.962-2.478,3.253-3.903,4.721c-1.53,1.576-3.319,2.887-4.691,4.627
		c-0.229,0.291-0.631,0.447-1.013,0.707c-0.745-0.342-1.456-0.668-2.169-0.994c-0.297-1.486-0.035-2.714,0.921-3.846
		c0.865-1.022,1.639-2.127,2.388-3.239c0.437-0.649,0.788-1.367,1.104-2.086c1.11-2.521,3.149-4.14,5.418-5.481
		C207.242,47.19,208.17,47.156,209.279,46.875z"/>
</g>
<g>
	<path fill-rule="evenodd" clip-rule="evenodd" d="M75.205,82.762c1.299,0.496,2.32,0.887,3.738,1.428
		c0.775,0.543,1.074,1.594,0.676,2.727c-0.884,1.004-1.666,1.885-2.441,2.773c-0.711,0.814-1.469,1.49-2.8,0.994
		c-0.177-0.217-0.465-0.494-0.667-0.824c-0.793-1.297-1.725-2.465-2.941-3.393c-0.8-0.611-1.338-1.355-1.09-2.551
		c0.911-0.342,1.862-0.699,2.96-1.111c0.401,0.146,0.914,0.332,1.556,0.564C74.514,83.178,74.906,82.941,75.205,82.762z"/>
	<g>
		<path fill-rule="evenodd" clip-rule="evenodd" d="M34.107,21.386c1.356,0.731,2.649,1.361,3.87,2.11
			c0.877,0.539,1.841,1.097,2.443,1.891c1.32,1.737,3.107,2.953,4.174,4.045c5.128,7.325,7.99,15.065,10.902,22.894
			c1.498,0.658,2.379,1.944,2.968,3.485c0.141,0.368,0.306,0.774,0.58,1.037c2.063,1.981,3.877,4.214,6.429,5.689
			c2.688,1.557,5.22,3.379,7.833,5.066c1.945,1.254,3.913,2.473,5.865,3.717c0.404,0.258,0.876,0.479,1.16,0.84
			c2.848,3.615,6.072,7,7.299,11.631c0.101,0.379,0.154,0.785,0.145,1.178c-0.027,1.066,0.195,2.047,0.769,2.963
			c0.658,1.053,0.88,2.195,0.65,3.443c-0.402,2.188-0.753,4.385-1.187,6.934c0.609,1.051,0.234,2.432-0.365,3.971
			c-1.143,1.211-2.366,2.566-2.992,4.354c-0.146,0.418-0.554,0.779-0.912,1.084c-1.156,0.979-2.316,1.957-3.538,2.852
			c-0.428,0.312-1.055,0.572-1.558,0.521c-1.26-0.123-2.142,0.523-3.001,1.227c-1.433,1.17-3.042,1.99-4.731,2.715
			c-1.084,0.465-2.05,1.197-3.115,1.715c-0.923,0.449-1.881,0.92-2.875,1.111c-3.374,0.652-6.764,1.203-10.234,0.924
			c-0.944-0.076-1.923,0.246-2.861,0.148c-1.897-0.199-3.825-0.393-5.656-0.893c-3.53-0.967-7.043-1.99-10.622-2.77
			c-0.539-0.117-1.049-0.381-1.562-0.6c-4.637-1.99-8.629-4.926-11.867-8.742c-2.691-3.172-5.67-6.066-8.358-9.227
			c-2.483-2.92-4.907-5.893-7.277-8.904c-1.239-1.572-2.123-3.354-2.673-5.316c-0.688-2.457-1.531-4.869-2.299-7.305
			c-0.842-2.67-1.595-5.34-1.37-8.207c0.105-1.342-0.086-2.705-0.12-4.059c-0.102-4.075,0.223-8.122,0.84-12.144
			c0.463-3.012,1.476-5.875,2.547-8.712c0.192-0.512,0.492-1.048,0.893-1.403c1.472-1.308,2.264-3.053,3.181-4.717
			c0.897-1.628,2.111-2.997,3.409-4.302c1.408-1.414,2.72-2.957,4.278-4.184c2.503-1.97,5.095-3.857,7.813-5.51
			c1.164-0.708,2.726-0.826,4.132-1.058C29.426,20.5,31.707,21.044,34.107,21.386z M2.338,52.579
			C2.499,53.463,2.7,54.4,2.834,55.346c0.135,0.946,0.405,1.935,0.262,2.849c-0.554,3.53,0.021,7.03,0.219,10.526
			c0.134,2.373,0.86,4.674,1.804,6.906c1.113,2.633,2.405,5.188,3.167,7.982c0.52,1.91,1.566,3.635,2.969,5.139
			c2.339,2.508,4.601,5.092,6.828,7.701c1.77,2.074,3.724,3.922,5.86,5.617c2.558,2.029,4.98,4.227,7.505,6.299
			c1.415,1.16,2.833,2.332,4.709,2.756c1.468,0.332,2.892,0.85,4.357,1.189c4.113,0.951,8.122,2.271,12.364,2.781
			c5.424,0.652,10.681,0.311,15.87-1.303c3.264-1.016,6.482-2.09,9.04-4.576c2.826-2.75,5.438-5.572,6.753-9.432
			c1.243-3.646,1.96-7.309,0.705-11.023c-1.019-3.016-2.326-5.943-3.629-8.854c-0.41-0.918-1.139-1.738-1.864-2.461
			c-1.184-1.18-2.44-2.297-3.748-3.336c-1.421-1.131-2.886-2.248-4.886-2.367c-0.368,3.158-0.726,6.229-1.07,9.188
			c-0.663,0.756-1.237,1.41-1.766,2.012c-1.428,0.771-3.136,1.002-3.951,2.627c0.515,1.107,1.013,2.178,1.506,3.236
			c0.891,0.133,1.685,0.215,2.46,0.381c0.753,0.16,1.487,0.408,2.223,0.617c0.306,2.191,0.576,4.197,2.268,5.455
			c0.35,1.164,0.665,2.215,0.943,3.143c-0.511,0.875-1.224,1.09-1.943,1.049c-1.119-0.061-1.986,0.377-2.862,0.996
			c-2.359,1.668-4.085,1.172-5.391-1.422c-0.525-1.043-1.174-2.023-1.809-3.104c0.096-0.363,0.222-0.838,0.347-1.311
			c-1.558-0.432-3.125-0.018-4.348-1.207c-0.122-0.459-0.265-0.992-0.395-1.48c-0.655-0.66-1.193-1.391-2.254-1.395
			c-0.64,0.387-1.312,0.795-1.874,1.135c-2.369-0.189-3.138-2.242-4.503-3.422c-1.362,0.049-1.362,0.049-2.534,1.09
			c-0.101,0.994,0.841,2.188-0.523,3.084c-1.189-0.121-2.132-0.723-2.958-1.674c-1.188-1.373-2.476-2.656-3.721-3.979
			c-1.057-1.027-0.384-2.17-0.079-3.191c-0.604-0.844-1.131-1.582-1.728-2.416c-1.829,0.158-3.723,0.322-5.561,0.482
			c-0.738-0.416-1.4-0.789-2.163-1.219c0.937-1.383,2.467-1.34,3.613-1.967c1.137-0.621,2.419-0.975,3.869-1.535
			c-0.704-0.67-1.184-1.371-1.849-1.707c-1.464-0.736-2.303-1.947-2.933-3.35c-0.614-1.371-1.146-2.777-1.692-4.115
			c-0.792-0.318-1.511-0.617-2.237-0.898c-0.812-0.316-1.632-0.613-2.298-0.863c-1.013,0.229-1.831,0.76-2.868-0.029
			c-0.055-0.869-0.118-1.879-0.183-2.9c-1.292-1.779-2.586-3.561-3.946-5.432c0.802-0.607,1.422-1.077,2.087-1.581
			c-0.883-1.229-2.277-2.118-2.755-3.967c2.016,0.695,4.051,0.686,5.148,2.618c-0.06,0.397-0.117,0.782-0.176,1.177
			c1.216,1.146,2.42,2.28,3.586,3.379c-0.383,1.037-1.768,1.312-1.318,2.603c1.424,0.314,2.884,0.637,4.215,0.932
			c0.947-0.492,1.783-0.928,2.593-1.35c-0.519-0.861-1.035-1.72-1.552-2.579c-0.474-0.369-0.959-0.747-1.431-1.114
			c0.014-1.974,1.391-2.879,2.576-3.826c0.171-0.779,0.323-1.478,0.453-2.071c0.666-0.739,1.25-1.388,1.763-1.957
			c0.833-0.309,1.555-0.576,2.221-0.823c0.357-1.809-1.082-2.501-1.626-3.236c-0.461-1.661-0.156-2.857,0.606-3.801
			c-0.427-1.355-1.732-1.273-2.461-1.957c-1.041-0.924-1.221-2.226-1.51-3.463c-0.483-2.068-0.102-2.852,2.033-4.176
			c2.573,0.497,4.469,1.97,5.604,4.418c-0.393,1.043-0.861,2.007-0.113,3.243c0.562,0.19,1.291,0.438,2.062,0.699
			c0.204-0.511,0.366-0.916,0.563-1.411c0.765,0.614,1.439,1.157,2.155,1.733c0.957-0.104,2.105,0.504,2.696-0.936
			c-1.043-2.489-1.933-5.066-3.188-7.45c-0.877-1.665-2.255-3.064-3.375-4.537c-0.473,0.12-0.812,0.207-1.24,0.315
			c-0.129-0.799-0.229-1.412-0.324-1.999c-0.617-0.368-1.146-0.737-1.718-1.013c-1.072-0.516-2.129-1.227-3.266-1.416
			c-3.427-0.569-6.862-0.504-10.094,0.99c-2.817,1.302-5.701,2.47-7.719,5.085c-1.003,1.301-2.44,2.262-3.653,3.407
			c-0.93,0.878-1.733,1.835-2.261,3.049c-0.946,2.177-1.976,4.325-3.805,5.951c-0.115,0.102-0.175,0.265-0.31,0.479
			C4.394,46.128,3.38,49.308,2.338,52.579z M44.373,56.951c0.223,2.003,0.433,3.893,0.626,5.629
			c0.677,0.975,1.491,1.748,1.795,2.688c0.374,1.154,1.138,1.871,1.912,2.664c1.996,2.043,3.972,4.102,6.041,6.076
			c1.232,1.178,2.413,2.258,4.209,2.863c0.303-0.365,0.807-0.723,0.942-1.186c0.332-1.137,0.707-2.328,0.682-3.49
			c-0.057-2.488-0.721-4.938-1.851-7.105c-1.709-3.281-3.105-6.833-6.203-9.202c-0.126-0.096-0.234-0.214-0.09-0.081
			c-1.877-0.87-3.445-1.597-5.045-2.338C45.826,54.206,45.383,55.859,44.373,56.951z"/>
		<path fill-rule="evenodd" clip-rule="evenodd" fill="#FFFFFF" d="M2.338,52.579c1.042-3.271,2.056-6.45,3.042-9.544
			c0.135-0.214,0.194-0.377,0.31-0.479c1.829-1.626,2.858-3.774,3.805-5.951c0.527-1.214,1.331-2.171,2.261-3.049
			c1.213-1.146,2.65-2.106,3.653-3.407c2.018-2.615,4.901-3.783,7.719-5.085c3.231-1.494,6.667-1.56,10.094-0.99
			c1.137,0.189,2.193,0.9,3.266,1.416c0.572,0.275,1.101,0.645,1.718,1.013c0.096,0.587,0.195,1.2,0.324,1.999
			c0.429-0.108,0.768-0.195,1.24-0.315c1.12,1.473,2.498,2.872,3.375,4.537c1.255,2.384,2.145,4.961,3.188,7.45
			c-0.591,1.439-1.739,0.832-2.696,0.936c-0.716-0.576-1.391-1.119-2.155-1.733c-0.197,0.495-0.359,0.9-0.563,1.411
			c-0.771-0.261-1.5-0.509-2.062-0.699c-0.748-1.236-0.279-2.2,0.113-3.243c-1.136-2.448-3.031-3.921-5.604-4.418
			c-2.135,1.324-2.517,2.107-2.033,4.176c0.289,1.237,0.469,2.539,1.51,3.463c0.729,0.684,2.034,0.602,2.461,1.957
			c-0.763,0.943-1.067,2.14-0.606,3.801c0.544,0.735,1.983,1.428,1.626,3.236c-0.666,0.247-1.388,0.515-2.221,0.823
			c-0.513,0.569-1.097,1.218-1.763,1.957c-0.13,0.594-0.282,1.292-0.453,2.071c-1.186,0.947-2.562,1.853-2.576,3.826
			c0.472,0.367,0.957,0.745,1.431,1.114c0.517,0.858,1.033,1.717,1.552,2.579c-0.81,0.422-1.646,0.857-2.593,1.35
			c-1.331-0.295-2.791-0.617-4.215-0.932c-0.449-1.291,0.936-1.566,1.318-2.603c-1.166-1.099-2.37-2.233-3.586-3.379
			c0.059-0.395,0.116-0.779,0.176-1.177c-1.098-1.933-3.133-1.923-5.148-2.618c0.478,1.849,1.872,2.737,2.755,3.967
			c-0.665,0.504-1.285,0.974-2.087,1.581c1.36,1.871,2.654,3.653,3.946,5.432c0.064,1.021,0.128,2.031,0.183,2.9
			c1.037,0.789,1.855,0.258,2.868,0.029c0.666,0.25,1.485,0.547,2.298,0.863c0.727,0.281,1.445,0.58,2.237,0.898
			c0.547,1.338,1.078,2.744,1.692,4.115c0.63,1.402,1.469,2.613,2.933,3.35c0.665,0.336,1.145,1.037,1.849,1.707
			c-1.45,0.561-2.732,0.914-3.869,1.535c-1.146,0.627-2.677,0.584-3.613,1.967c0.763,0.43,1.425,0.803,2.163,1.219
			c1.838-0.16,3.731-0.324,5.561-0.482c0.597,0.834,1.124,1.572,1.728,2.416c-0.305,1.021-0.978,2.164,0.079,3.191
			c1.245,1.322,2.533,2.605,3.721,3.979c0.826,0.951,1.769,1.553,2.958,1.674c1.364-0.896,0.423-2.09,0.523-3.084
			c1.172-1.041,1.172-1.041,2.534-1.09c1.365,1.18,2.134,3.232,4.503,3.422c0.562-0.34,1.234-0.748,1.874-1.135
			c1.061,0.004,1.599,0.734,2.254,1.395c0.13,0.488,0.272,1.021,0.395,1.48c1.223,1.189,2.79,0.775,4.348,1.207
			c-0.125,0.473-0.251,0.947-0.347,1.311c0.635,1.08,1.283,2.061,1.809,3.104c1.306,2.594,3.031,3.09,5.391,1.422
			c0.876-0.619,1.743-1.057,2.862-0.996c0.72,0.041,1.433-0.174,1.943-1.049c-0.278-0.928-0.594-1.979-0.943-3.143
			c-1.691-1.258-1.962-3.264-2.268-5.455c-0.735-0.209-1.47-0.457-2.223-0.617c-0.775-0.166-1.569-0.248-2.46-0.381
			c-0.493-1.059-0.991-2.129-1.506-3.236c0.815-1.625,2.523-1.855,3.951-2.627c0.528-0.602,1.103-1.256,1.766-2.012
			c0.345-2.959,0.702-6.029,1.07-9.188c2,0.119,3.465,1.236,4.886,2.367c1.308,1.039,2.564,2.156,3.748,3.336
			c0.726,0.723,1.454,1.543,1.864,2.461c1.303,2.91,2.61,5.838,3.629,8.854c1.255,3.715,0.538,7.377-0.705,11.023
			c-1.315,3.859-3.927,6.682-6.753,9.432c-2.558,2.486-5.776,3.561-9.04,4.576c-5.189,1.613-10.446,1.955-15.87,1.303
			c-4.242-0.51-8.251-1.83-12.364-2.781c-1.466-0.34-2.89-0.857-4.357-1.189c-1.876-0.424-3.294-1.596-4.709-2.756
			c-2.524-2.072-4.947-4.27-7.505-6.299c-2.137-1.695-4.091-3.543-5.86-5.617c-2.228-2.609-4.489-5.193-6.828-7.701
			c-1.402-1.504-2.449-3.229-2.969-5.139c-0.762-2.795-2.054-5.35-3.167-7.982c-0.943-2.232-1.67-4.533-1.804-6.906
			c-0.197-3.496-0.772-6.996-0.219-10.526c0.144-0.914-0.127-1.902-0.262-2.849C2.7,54.4,2.499,53.463,2.338,52.579z M75.205,82.762
			c-0.299,0.18-0.691,0.416-1.01,0.607c-0.642-0.232-1.154-0.418-1.556-0.564c-1.098,0.412-2.049,0.77-2.96,1.111
			c-0.248,1.195,0.29,1.939,1.09,2.551c1.217,0.928,2.148,2.096,2.941,3.393c0.202,0.33,0.49,0.607,0.667,0.824
			c1.331,0.496,2.089-0.18,2.8-0.994c0.775-0.889,1.558-1.77,2.441-2.773c0.398-1.133,0.1-2.184-0.676-2.727
			C77.525,83.648,76.504,83.258,75.205,82.762z M33.012,43.822c-0.627-0.47-1.176-0.88-1.718-1.286
			c-2.56,1.112-4.646,2.657-6.627,4.358c-0.486,0.418-0.626,0.914-0.016,1.537c1.133-0.369,2.351-0.255,3.279,0.579
			c1.022,0.917,2.169,1.272,3.677,1.386c0.455-0.466,0.986-1.009,1.483-1.518c-0.35-0.947-0.624-1.688-0.879-2.378
			C32.462,45.663,32.689,44.902,33.012,43.822z M17.586,38.751c1.555,0.737,2.916,1.353,4.707,0.83
			c0.213-0.85,0.434-1.733,0.612-2.446c-0.942-1.254-2.002-1.697-3.212-1.979c-1.121-0.261-2.201-0.701-3.468-1.118
			C16.125,35.869,17.099,37.177,17.586,38.751z M54.61,95.527c-1.774-1.141-3.535-1.467-5.386-1.404
			c-0.503,0.016-1.179-0.15-1.317,0.799c1.001,0.918,2.031,1.902,3.108,2.834c0.794,0.684,1.679,0.887,2.694,0.152
			C53.962,97.24,54.24,96.506,54.61,95.527z"/>
		<path fill-rule="evenodd" clip-rule="evenodd" fill="#FFFFFF" d="M44.373,56.951c1.01-1.092,1.453-2.745,3.019-3.481
			c1.6,0.741,3.168,1.468,5.045,2.338c-0.145-0.133-0.036-0.015,0.09,0.081c3.098,2.368,4.494,5.92,6.203,9.202
			c1.13,2.168,1.794,4.617,1.851,7.105c0.025,1.162-0.35,2.354-0.682,3.49c-0.136,0.463-0.64,0.82-0.942,1.186
			c-1.796-0.605-2.977-1.686-4.209-2.863c-2.069-1.975-4.045-4.033-6.041-6.076c-0.774-0.793-1.538-1.51-1.912-2.664
			c-0.304-0.939-1.118-1.713-1.795-2.688C44.806,60.844,44.596,58.954,44.373,56.951z"/>
		<path fill-rule="evenodd" clip-rule="evenodd" d="M33.012,43.822c-0.322,1.08-0.55,1.841-0.8,2.679
			c0.255,0.69,0.529,1.431,0.879,2.378c-0.497,0.509-1.028,1.052-1.483,1.518c-1.508-0.113-2.654-0.469-3.677-1.386
			c-0.929-0.834-2.146-0.948-3.279-0.579c-0.61-0.623-0.471-1.119,0.016-1.537c1.981-1.701,4.067-3.246,6.627-4.358
			C31.836,42.942,32.385,43.352,33.012,43.822z"/>
		<path fill-rule="evenodd" clip-rule="evenodd" d="M17.586,38.751c-0.487-1.574-1.461-2.883-1.36-4.713
			c1.267,0.417,2.347,0.857,3.468,1.118c1.21,0.281,2.27,0.725,3.212,1.979c-0.179,0.713-0.399,1.597-0.612,2.446
			C20.502,40.104,19.141,39.489,17.586,38.751z"/>
	</g>
	<path fill-rule="evenodd" clip-rule="evenodd" d="M54.61,95.527c-0.37,0.979-0.648,1.713-0.9,2.381
		c-1.016,0.734-1.9,0.531-2.694-0.152c-1.077-0.932-2.107-1.916-3.108-2.834c0.139-0.949,0.814-0.783,1.317-0.799
		C51.075,94.061,52.836,94.387,54.61,95.527z"/>
</g>
</svg>
