<?xml version="1.0" encoding="utf-8"?>
<!-- Generator: Adobe Illustrator 19.0.0, SVG Export Plug-In . SVG Version: 6.00 Build 0)  -->
<svg version="1.1" id="Camada_1" xmlns="http://www.w3.org/2000/svg" xmlns:xlink="http://www.w3.org/1999/xlink" x="0px" y="0px"
	 viewBox="-415 244.1 128.6 72.9" style="enable-background:new -415 244.1 128.6 72.9;" xml:space="preserve">
<style type="text/css">
	.st0{fill:#ADC77F;}
	.st1{fill:#FFFFFF;}
</style>
<g id="XMLID_9012_">
	<path id="XMLID_9017_" class="st0" d="M-337.8,255.6h-17.8c-2.7,0-4.9,2.2-4.9,4.9v10.4c0,2.7,2.2,4.9,4.9,4.9h12.3l4.5,6.5v-6.5
		h1.1c2.7,0,4.9-2.2,4.9-4.9v-10.4C-333,257.8-335.2,255.6-337.8,255.6z"/>
	<g id="XMLID_9013_">
		<path id="XMLID_246_" class="st1" d="M-351.8,260.4h-13.7c-2.7,0-4.9,2.2-4.9,4.9v7.4c0,2.7,2.2,4.9,4.9,4.9h5.9l-0.2,6.1l4.8-6.1
			l3.2-0.1c2.7,0,4.9-2.2,4.9-4.9v-7.4C-346.9,262.6-349.1,260.4-351.8,260.4z"/>
		<path id="XMLID_243_" class="st0" d="M-351.8,260.5l-10.6,0l-2.6,0c-0.9,0-1.7,0.1-2.5,0.5c-1.6,0.7-2.6,2.4-2.7,4.1
			c0,0.9,0,1.8,0,2.6l0,2.6c0,0.9,0,1.8,0,2.6c0,0.8,0.4,1.7,0.8,2.3c0.5,0.7,1.2,1.2,1.9,1.6c0.8,0.4,1.6,0.4,2.5,0.4l5.3,0l0.3,0
			l0,0.3l-0.2,6.1l-0.6-0.2l4.8-6.1l0.1-0.1l0.2,0l3.2-0.1c0.6,0,1-0.1,1.5-0.3c0.5-0.2,0.9-0.4,1.3-0.7c0.8-0.6,1.4-1.5,1.6-2.5
			c0.1-0.5,0.2-1,0.2-1.5l0-1.6l0.1-3.2l0-1.6c0-0.5,0-1.1-0.1-1.6c-0.2-1-0.8-2-1.6-2.6C-349.7,260.8-350.7,260.5-351.8,260.5z
			 M-351.8,260.4c1.1,0,2.2,0.3,3,1c0.9,0.7,1.5,1.6,1.8,2.7c0.1,0.5,0.2,1.1,0.2,1.6l0,1.6l0.1,3.2l0,1.6c0,0.5,0,1.1-0.1,1.7
			c-0.2,1.1-0.9,2.1-1.8,2.9c-0.4,0.4-1,0.7-1.5,0.8c-0.5,0.2-1.2,0.3-1.7,0.3l-3.2,0.1l0.3-0.1l-4.8,6.1l-0.6,0.8l0-1l0.2-6.1
			l0.3,0.3l-5.3,0c-0.9,0-1.9-0.1-2.7-0.5c-0.8-0.4-1.6-1-2.1-1.8c-0.5-0.8-0.8-1.7-0.9-2.6c0-0.9,0-1.8,0-2.7l0-2.6
			c0-0.9,0-1.8,0-2.6c0.1-1.8,1.3-3.6,2.9-4.3c0.8-0.4,1.8-0.5,2.6-0.4l2.6,0L-351.8,260.4z"/>
	</g>
</g>
</svg>
