<?xml version="1.0" encoding="utf-8"?>
<!-- Generator: Adobe Illustrator 19.0.0, SVG Export Plug-In . SVG Version: 6.00 Build 0)  -->
<svg version="1.1" id="Camada_1" xmlns="http://www.w3.org/2000/svg" xmlns:xlink="http://www.w3.org/1999/xlink" x="0px" y="0px"
	 viewBox="-415 244.1 128.6 72.9" style="enable-background:new -415 244.1 128.6 72.9;" xml:space="preserve">
<style type="text/css">
	.st0{fill:none;}
	.st1{fill:#C5D9A7;}
</style>
<g id="XMLID_259_">
	<path id="XMLID_260_" class="st0" d="M-335,289.2l0.3-8l-3.6-3.4l-3.9-3.9l-3.9-3.9c-1.3-1.3-2.5-2.6-3.8-3.9
		c-1.3,1.3-2.5,2.6-3.8,3.9l-3.9,3.9l-3.9,3.9l-3.6,3.4l0.3,8c0.1,2.3,0.1,4.5,0.2,6.8c3.2-0.1,6.4-0.1,9.6-0.1l0-6.3l0-1.9l1.9,0
		c2.6,0,5.2,0,7.7,0l1.9,0l0,1.9l0,6.3c1.4,0,2.8,0,4.1,0.1l4.4,0.1C-335.2,293.8-335.1,291.5-335,289.2z"/>
	<path id="XMLID_263_" class="st1" d="M-333,297.8v-17v-0.1l-0.3,0l-16.6-14.9l-16.3,14.9l0.2,0v0.1v17v0.2h-0.4h13.1h0.3v-0.2
		l-0.1-7.9l7.7,0l0.4,8v0.2h-0.6h12h0.6V297.8z M-343.7,295.9l0-6.3l0-1.9l-1.9,0c-2.6,0-5.2,0-7.7,0l-1.9,0l0,1.9l0,6.3
		c-3.2,0-6.4,0.1-9.6,0.1c0-2.3-0.1-4.5-0.2-6.8l-0.3-8l3.6-3.4l3.9-3.9l3.9-3.9c1.3-1.3,2.5-2.6,3.8-3.9c1.3,1.3,2.5,2.6,3.8,3.9
		l3.9,3.9l3.9,3.9l3.6,3.4l-0.3,8c-0.1,2.3-0.1,4.5-0.2,6.8l-4.4-0.1C-341,296-342.3,295.9-343.7,295.9z"/>
</g>
</svg>
