<?xml version="1.0" encoding="utf-8"?>
<!-- Generator: Adobe Illustrator 19.0.0, SVG Export Plug-In . SVG Version: 6.00 Build 0)  -->
<svg version="1.1"
	 id="Camada_1" xmlns:dc="http://purl.org/dc/elements/1.1/" xmlns:svg="http://www.w3.org/2000/svg" xmlns:sodipodi="http://sodipodi.sourceforge.net/DTD/sodipodi-0.dtd" xmlns:inkscape="http://www.inkscape.org/namespaces/inkscape" xmlns:cc="http://creativecommons.org/ns#" xmlns:rdf="http://www.w3.org/1999/02/22-rdf-syntax-ns#" inkscape:version="0.91 r13725" sodipodi:docname="home.svg"
	 xmlns="http://www.w3.org/2000/svg" xmlns:xlink="http://www.w3.org/1999/xlink" x="0px" y="0px" viewBox="15 -21.9 128.6 72.9"
	 style="enable-background:new 15 -21.9 128.6 72.9;" xml:space="preserve">
<style type="text/css">
	.st0{fill:#B9CE90;}
</style>
<sodipodi:namedview  id="namedview8" inkscape:cx="10.590589" pagecolor="#ffffff" borderopacity="1" bordercolor="#666666" guidetolerance="10" objecttolerance="10" inkscape:cy="36.450001" gridtolerance="10" showgrid="false" inkscape:zoom="1.9828926" inkscape:current-layer="Camada_1" inkscape:window-width="773" inkscape:window-y="0" inkscape:pageopacity="0" inkscape:window-maximized="0" inkscape:window-height="480" inkscape:pageshadow="2" inkscape:window-x="0">
	</sodipodi:namedview>
<g id="XMLID_259_" transform="matrix(1.5,0,0,1.5,174.85,-140.975)">
	<g>
		<path id="XMLID_9_" inkscape:connector-curvature="0" class="st0" d="M-47,119.5v-17v-0.1h-0.3l-16.6-14.9l-16.3,14.9h0.2v0.1v17
			v0.2h-0.4h13.1h0.3v-0.2l-0.1-7.9h7.7l0.4,8v0.2h-0.6h12h0.6L-47,119.5L-47,119.5z M-57.7,117.6v-6.3v-1.9h-1.9
			c-2.6,0-5.2,0-7.7,0h-1.9v1.9v6.3c-3.2,0-6.4,0.1-9.6,0.1c0-2.3-0.1-4.5-0.2-6.8l-0.3-8l3.6-3.4l3.9-3.9l3.9-3.9
			c1.3-1.3,2.5-2.6,3.8-3.9c1.3,1.3,2.5,2.6,3.8,3.9l3.9,3.9l3.9,3.9l3.6,3.4l-0.3,8c-0.1,2.3-0.1,4.5-0.2,6.8l-4.4-0.1
			C-55,117.7-56.3,117.6-57.7,117.6L-57.7,117.6z"/>
	</g>
</g>
</svg>
