<?xml version="1.0" encoding="UTF-8" standalone="no"?>
<!-- Generator: Adobe Illustrator 19.0.0, SVG Export Plug-In . SVG Version: 6.00 Build 0)  -->

<svg
   xmlns:dc="http://purl.org/dc/elements/1.1/"
   xmlns:cc="http://creativecommons.org/ns#"
   xmlns:rdf="http://www.w3.org/1999/02/22-rdf-syntax-ns#"
   xmlns:svg="http://www.w3.org/2000/svg"
   xmlns="http://www.w3.org/2000/svg"
   xmlns:sodipodi="http://sodipodi.sourceforge.net/DTD/sodipodi-0.dtd"
   xmlns:inkscape="http://www.inkscape.org/namespaces/inkscape"
   version="1.1"
   id="Camada_1"
   x="0px"
   y="0px"
   viewBox="-415 244.1 128.6 72.9"
   style="enable-background:new -415 244.1 128.6 72.9;"
   xml:space="preserve"
   inkscape:version="0.91 r13725"
   sodipodi:docname="home.svg"><metadata
     id="metadata12"><rdf:RDF><cc:Work
         rdf:about=""><dc:format>image/svg+xml</dc:format><dc:type
           rdf:resource="http://purl.org/dc/dcmitype/StillImage" /></cc:Work></rdf:RDF></metadata><defs
     id="defs10" /><sodipodi:namedview
     pagecolor="#ffffff"
     bordercolor="#666666"
     borderopacity="1"
     objecttolerance="10"
     gridtolerance="10"
     guidetolerance="10"
     inkscape:pageopacity="0"
     inkscape:pageshadow="2"
     inkscape:window-width="773"
     inkscape:window-height="480"
     id="namedview8"
     showgrid="false"
     inkscape:zoom="1.9828926"
     inkscape:cx="10.590589"
     inkscape:cy="36.450001"
     inkscape:window-x="0"
     inkscape:window-y="0"
     inkscape:window-maximized="0"
     inkscape:current-layer="Camada_1" /><style
     type="text/css"
     id="style3">
	.st0{fill:none;}
	.st1{fill:#C5D9A7;}
</style><g
     id="XMLID_259_"
     transform="matrix(1.5,0,0,1.5,174.85,-140.975)"><path
       id="XMLID_260_"
       class="st0"
       d="m -335,289.2 0.3,-8 -3.6,-3.4 -3.9,-3.9 -3.9,-3.9 c -1.3,-1.3 -2.5,-2.6 -3.8,-3.9 -1.3,1.3 -2.5,2.6 -3.8,3.9 l -3.9,3.9 -3.9,3.9 -3.6,3.4 0.3,8 c 0.1,2.3 0.1,4.5 0.2,6.8 3.2,-0.1 6.4,-0.1 9.6,-0.1 l 0,-6.3 0,-1.9 1.9,0 c 2.6,0 5.2,0 7.7,0 l 1.9,0 0,1.9 0,6.3 c 1.4,0 2.8,0 4.1,0.1 l 4.4,0.1 c -0.2,-2.3 -0.1,-4.6 0,-6.9 z"
       inkscape:connector-curvature="0"
       style="fill:none" /><path
       id="XMLID_263_"
       class="st1"
       d="m -333,297.8 0,-17 0,-0.1 -0.3,0 -16.6,-14.9 -16.3,14.9 0.2,0 0,0.1 0,17 0,0.2 -0.4,0 13.1,0 0.3,0 0,-0.2 -0.1,-7.9 7.7,0 0.4,8 0,0.2 -0.6,0 12,0 0.6,0 0,-0.3 z m -10.7,-1.9 0,-6.3 0,-1.9 -1.9,0 c -2.6,0 -5.2,0 -7.7,0 l -1.9,0 0,1.9 0,6.3 c -3.2,0 -6.4,0.1 -9.6,0.1 0,-2.3 -0.1,-4.5 -0.2,-6.8 l -0.3,-8 3.6,-3.4 3.9,-3.9 3.9,-3.9 c 1.3,-1.3 2.5,-2.6 3.8,-3.9 1.3,1.3 2.5,2.6 3.8,3.9 l 3.9,3.9 3.9,3.9 3.6,3.4 -0.3,8 c -0.1,2.3 -0.1,4.5 -0.2,6.8 l -4.4,-0.1 c -1.2,0.1 -2.5,0 -3.9,0 z"
       inkscape:connector-curvature="0"
       style="fill:#c5d9a7" /></g></svg>