<?xml version="1.0" encoding="utf-8"?>
<!-- Generator: Adobe Illustrator 19.0.0, SVG Export Plug-In . SVG Version: 6.00 Build 0)  -->
<svg version="1.1"
	 id="Camada_1" xmlns:dc="http://purl.org/dc/elements/1.1/" xmlns:sodipodi="http://sodipodi.sourceforge.net/DTD/sodipodi-0.dtd" xmlns:inkscape="http://www.inkscape.org/namespaces/inkscape" xmlns:cc="http://creativecommons.org/ns#" xmlns:rdf="http://www.w3.org/1999/02/22-rdf-syntax-ns#" xmlns:svg="http://www.w3.org/2000/svg" inkscape:version="0.91 r13725" sodipodi:docname="settings.svg"
	 xmlns="http://www.w3.org/2000/svg" xmlns:xlink="http://www.w3.org/1999/xlink" x="0px" y="0px" viewBox="-201 364.1 128.6 72.9"
	 style="enable-background:new -201 364.1 128.6 72.9;" xml:space="preserve">
<style type="text/css">
	.st0{fill:none;}
	.st1{fill:#C1D6A1;}
	.st2{fill:#FFFFFF;}
</style>
<sodipodi:namedview  pagecolor="#ffffff" showgrid="false" objecttolerance="10" borderopacity="1" inkscape:cx="64.300003" bordercolor="#666666" inkscape:cy="36.450001" gridtolerance="10" inkscape:zoom="1.9517884" guidetolerance="10" id="namedview31" inkscape:pageshadow="2" inkscape:pageopacity="0" inkscape:window-height="734" inkscape:window-maximized="0" inkscape:window-width="1183" inkscape:window-y="111" inkscape:current-layer="Camada_1" inkscape:window-x="255">
	</sodipodi:namedview>
<g id="XMLID_4_">
	<polygon id="XMLID_6_" class="st0" points="-119.6,381.3 -119.6,381.3 -119.7,381.3 -119.7,381.3 	"/>
	<path id="XMLID_824_" class="st0" d="M-119.6,381.3C-119.6,381.3-119.6,381.3-119.6,381.3L-119.6,381.3z"/>
	<path id="XMLID_825_" class="st0" d="M-119.3,382.8c0,0,0-0.1-0.1-0.1c-0.2-0.3-0.3-0.8-0.3-1.2c0,0.4,0.1,0.9,0.3,1.2
		C-119.3,382.7-119.3,382.8-119.3,382.8z"/>
	<path id="XMLID_826_" class="st0" d="M-119.6,381.4C-119.6,381.4-119.6,381.4-119.6,381.4C-119.6,381.4-119.6,381.4-119.6,381.4
		L-119.6,381.4L-119.6,381.4L-119.6,381.4C-119.6,381.3-119.6,381.3-119.6,381.4L-119.6,381.4L-119.6,381.4L-119.6,381.4z"/>
	<path id="XMLID_827_" class="st0" d="M-126.3,391l0.3,0.4c0.5-0.9,1.2-1.6,1.9-2.3c0.6-0.6,1.2-1.1,1.9-1.6l-0.2-0.1
		C-123.6,388.5-124.9,389.8-126.3,391z"/>
	<path id="XMLID_828_" class="st0" d="M-117.9,378.4c0.1,0.2,0.3,0.3,0.4,0.5c0.1,0.2,0.1,0.4,0.1,0.6c0,0.2,0,0.4,0,0.7
		c0,0,0,0.1,0,0.1c0.8,0.2,1.5,0.4,2.1,1c0.5,0.6,0.6,1.5,0.3,2.2c0,0-0.1,0-0.1,0c0,0,0.2,0,0.2,0c0.3-0.7,0.2-1.6-0.4-2.2
		c-0.5-0.6-1.4-0.8-2.1-1c0,0,0,0,0-0.1c0-0.2,0-0.4,0-0.7c0-0.2-0.1-0.4-0.1-0.6C-117.6,378.7-117.7,378.5-117.9,378.4
		c-0.2-0.1-0.3-0.3-0.5-0.3c-0.4-0.2-0.8-0.2-1.3-0.2c0.4,0,0.9,0,1.3,0.2C-118.2,378.1-118,378.2-117.9,378.4z"/>
	<path id="XMLID_830_" class="st0" d="M-128,389.3c0.1,0.1,0.2,0.1,0.2,0.2l2-1.9c-0.4,0-0.9-0.1-1.3-0.2
		C-127.3,388-127.6,388.7-128,389.3z"/>
	<polygon id="XMLID_842_" class="st0" points="-119.6,381.5 -119.6,381.5 -119.6,381.5 	"/>
	<path id="XMLID_854_" class="st0" d="M-125.1,376.4c1.4,0.2,2.9,0.6,4,1.6c0,0,0.1,0,0.1,0c0,0,0,0,0,0c0,0-0.1,0-0.1,0
		C-122.1,377-123.6,376.6-125.1,376.4c-0.4,0-0.7-0.1-1.1-0.1l-0.6,0l0.6,0C-125.8,376.3-125.4,376.4-125.1,376.4z"/>
	<path id="XMLID_855_" class="st0" d="M-139.9,408.2c-0.6-0.4-1.2-0.7-1.9-1c-0.3-0.1-0.7-0.2-1-0.3c0,0-0.1,0-0.1,0
		c0,0,0.1,0.1,0.1,0.1c0.2,0.3,0.5,0.5,0.7,0.7c0.5,0.5,1.1,0.9,1.7,1.3c0.9,0.6,2,1.1,3.1,1.4C-138.1,409.5-139,408.8-139.9,408.2z
		"/>
	<path id="XMLID_856_" class="st0" d="M-119.7,381.6c0,0.1,0,0.1,0,0.2c0-0.1,0-0.2,0.1-0.2L-119.7,381.6L-119.7,381.6z"/>
	<path id="XMLID_857_" class="st0" d="M-120.2,383.4C-120.2,383.4-120.2,383.4-120.2,383.4C-120.2,383.4-120.2,383.3-120.2,383.4
		c-0.1-0.1-0.3-0.2-0.3-0.3c0-0.1-0.1-0.3-0.1-0.4c0,0.1,0.1,0.3,0.1,0.5C-120.5,383.2-120.4,383.3-120.2,383.4z"/>
	<path id="XMLID_858_" class="st0" d="M-120.5,382.4c0.1-0.1,0.2-0.3,0.3-0.4c0.1-0.1,0.3-0.3,0.4-0.4l0,0l0,0l0,0
		c-0.2,0.2-0.4,0.3-0.5,0.4C-120.3,382.1-120.4,382.3-120.5,382.4C-120.5,382.4-120.5,382.4-120.5,382.4c-0.1,0.1-0.1,0.1-0.1,0.2
		C-120.6,382.5-120.6,382.5-120.5,382.4C-120.5,382.4-120.5,382.4-120.5,382.4z"/>
	<path id="XMLID_861_" class="st1" d="M-115,386.9L-115,386.9C-115,386.9-115,386.9-115,386.9c1-1.2,0.5-2.5-0.3-3.5
		c0,0,0.2,0,0.2,0c0.3-0.7,0.3-1.6-0.3-2.2c-0.5-0.6-1.3-0.8-2.1-1c0,0,0,0,0-0.1c0-0.2,0.1-0.4,0-0.7c0-0.2-0.1-0.4-0.1-0.6
		c-0.1-0.2-0.2-0.4-0.4-0.5c-0.2-0.1-0.3-0.3-0.5-0.3c-0.4-0.2-0.8-0.2-1.3-0.2c-0.4,0-0.9,0.1-1.3,0.2c0,0,0,0,0,0c0,0,0,0,0,0
		c0,0-0.1,0-0.1,0c-1.1-1-2.6-1.4-4-1.6c-0.4,0-0.7-0.1-1.1-0.1l-0.6,0c-0.2,0-0.4,0-0.5,0c-0.3,0.1-0.6,0.4-0.6,0.7
		c-0.1,0.3,0,0.7,0.1,1c0,0,0,0.1,0,0.1c-0.2,0.2-0.3,0.5-0.4,0.7c0,0,0,0.1-0.1,0.1c-0.8,0.2-1.5,0.7-2,1.3
		c-0.5,0.6-0.8,1.4-0.8,2.2c0,0.8,0.2,1.6,0.6,2.3c0.4,0.7,1,1.3,1.7,1.7c0.1,0,0.1,0.1,0,0.2c-0.4,0.8-1,1.5-1.5,2.2
		c0,0-0.1,0.1-0.1,0.1l0,0c-0.4-0.1-0.9-0.1-1.3-0.1c-0.5,0-0.9,0.1-1.3,0.2c-0.9,0.2-1.7,0.6-2.5,1.1c-1.5,0.9-2.9,2-4.1,3.3
		l1.4,0.8c0.3,0.1,0.5,0.3,0.8,0.5c0.3,0.2,0.5,0.4,0.8,0.6c1,0.8,1.9,1.7,2.6,2.8c0.1,0.1,0,0.2-0.1,0.3c0,0-0.1,0-0.1,0
		c-1.3-0.1-2.6-0.6-3.8-1.2c-0.3-0.1-0.6-0.3-0.9-0.5l-0.4-0.3l-0.4-0.3l-1.4-1.1c-2.1,2.4-4,5-5.8,7.6c-1.8,2.6-3.4,5.3-5,8.1
		l1,0.5c0.4,0.2,0.8,0.5,1.1,0.8c0.4,0.3,0.7,0.6,1,0.9c0.3,0.3,0.6,0.7,0.9,1.1c0.1,0.1,0,0.3-0.1,0.4c-0.1,0-0.1,0-0.2,0
		c-0.5,0-0.9-0.2-1.4-0.3c-0.4-0.1-0.9-0.3-1.3-0.5c-0.2-0.1-0.4-0.2-0.6-0.3l-0.3-0.2l-0.1-0.1l-0.2-0.1l-0.8-0.6l-1.7,3l-0.9,1.7
		c-0.3,0.6-0.6,1.1-0.9,1.7c-0.3,0.6-0.5,1.1-0.8,1.7c-0.2,0.6-0.4,1.2-0.6,1.8c-0.2,0.6-0.3,1.2-0.3,1.8c0,0.3,0,0.6,0,0.9
		c0,0.2,0.1,0.5,0.1,0.6c0.5,0,1-0.1,1.6-0.2c0.6-0.2,1.2-0.4,1.7-0.7c1-0.5,1.9-1,2.8-1.6c-0.1-0.1-0.3-0.1-0.4-0.2
		c-0.3-0.2-0.6-0.4-0.8-0.6c-0.3-0.2-0.5-0.5-0.8-0.7c-0.1-0.1-0.2-0.3-0.3-0.4c-0.1-0.1-0.2-0.3-0.3-0.5c-0.1-0.2,0-0.4,0.1-0.5
		c0.1,0,0.1-0.1,0.2,0c0.2,0,0.4,0.1,0.6,0.1c0.2,0,0.4,0.1,0.6,0.2c0.4,0.1,0.7,0.3,1.1,0.5c0.2,0.1,0.3,0.2,0.5,0.3l0.3,0.1
		l0.1,0.1l0.1,0.1l0.7,0.5c4.5-3.2,8.7-6.9,12.8-10.6c-0.5-0.1-1-0.3-1.4-0.4c-0.7-0.3-1.3-0.6-2-1c-0.6-0.4-1.2-0.9-1.8-1.4
		c-0.3-0.3-0.5-0.5-0.8-0.8c-0.2-0.3-0.5-0.6-0.7-0.9l0,0c-0.1-0.2,0-0.4,0.1-0.5c0.1,0,0.1-0.1,0.2,0c0.8,0.1,1.5,0.3,2.2,0.6
		c0.7,0.3,1.3,0.6,2,1c1.1,0.8,2.2,1.6,3,2.8l3.8-3.6c1.3-1.3,2.7-2.6,4-4c1.3-1.4,2.5-2.8,3.3-4.5c0.2-0.4,0.4-0.8,0.5-1.3
		c0.2-0.4,0.2-0.9,0.3-1.3c0-0.5,0.1-0.9-0.1-1.3c0-0.5-0.2-0.9-0.4-1.3l0,0c0-0.1,0-0.1,0-0.2c1.3-1.4,2.6-2.7,4.1-3.9
		c0.1-0.1,0.2,0,0.2,0c0.1,0.1,0,0.2,0,0.2c-0.3,0.3-0.4,0.9-0.2,1.3c0.1,0.2,0.3,0.3,0.5,0.5l0.3,0.2l0.3,0.2
		c0.2,0.1,0.4,0.2,0.7,0.3c0.2,0.1,0.5,0.1,0.7,0.1c0.2,0,0.5,0,0.7,0c0.2,0,0.5,0,0.7-0.1c0.5-0.1,0.9-0.4,1.4-0.6
		c0.2-0.1,0.4-0.3,0.6-0.5c0.1-0.2,0.3-0.4,0.4-0.6l0.2-0.3l0.1-0.4c0.1-0.2,0.1-0.5,0.2-0.7c0-0.3-0.4-0.5-0.4-0.8
		C-114.5,387.4-114,387.2-115,386.9z M-128.9,383.2l-0.1-0.1c-0.1-0.1-0.2-0.3-0.2-0.5c0.1-0.2,0.2-0.4,0.5-0.4l0,0l0,0l0,0
		c0,0,0,0,0,0l0,0.1c0.1,0.2,0.2,0.3,0.2,0.3c0,0.1,0,0.1,0,0.3l0,0l0,0.1c0,0.1-0.1,0.3-0.2,0.3
		C-128.7,383.4-128.9,383.3-128.9,383.2z M-127.9,390.2L-127.9,390.2c-0.3-0.2-0.6-0.3-0.8-0.5l0,0c-0.2-0.1-0.2-0.4-0.1-0.5l0,0
		c0.5-0.7,1.1-1.3,1.8-1.9l0,0c0,0,0,0,0,0c0.5,0.1,1.1,0.1,1.6,0c0.1,0,0.2,0,0.2,0.1c0,0,0,0.1,0,0.1l0,0l-2.2,2.6
		C-127.6,390.3-127.8,390.3-127.9,390.2z M-121.2,387.5c0,0-0.1,0.1-0.1,0.1c-0.8,0.7-1.5,1.3-2.2,2c-0.8,0.6-1.5,1.3-2.3,1.9l0,0
		c0,0,0,0,0,0l-0.4-0.4c0,0,0-0.1,0-0.1c1.3-1.4,2.5-2.8,3.8-4.2c0.1-0.1,0.2-0.1,0.3-0.1l0.1,0l0.8,0.3
		C-121.2,387.1-121.1,387.3-121.2,387.5z M-119.6,381.3L-119.6,381.3C-119.6,381.3-119.6,381.3-119.6,381.3z M-121,382.6L-121,382.6
		c0-0.1,0.2-0.1,0.3-0.2c0,0,0.1,0,0.1,0c0.1-0.1,0.3-0.3,0.4-0.4c0.1-0.1,0.4-0.3,0.5-0.4l0,0l0.1-0.1l0,0c0,0-0.2,0-0.2,0l-0.2,0
		v0l0.2-0.2l0.1,0l0,0l0,0c0,0,0,0,0,0c0,0,0,0,0,0l0,0l0,0c0,0,0,0,0,0c0,0,0,0,0,0l0,0l0,0.1l-0.2,0c0,0-0.2,0-0.2,0.1v0
		c0,0.4,0.3,0.9,0.5,1.2c0,0,0.1,0.1,0.2,0.1c0,0,0.1,0.1,0,0.1l0,0.1l-0.3,0.6c0,0-0.1,0.4-0.2,0.4h0l-0.2-0.3c0,0-0.1-0.1-0.1-0.2
		c0,0,0-0.1-0.1-0.1c-0.1,0-0.5-0.2-0.5-0.3C-120.7,382.9-121,382.7-121,382.6z M-118.3,388.5c0,0.1-0.1,0.1-0.2,0.1l0,0
		c-0.3,0.1-0.5,0.2-0.8,0.2c-0.3,0-0.6-0.1-0.9-0.1c-0.1,0-0.2,0.1-0.3,0.1c0,0,0,0-0.1,0c0,0,0,0,0,0l0,0c0.2-0.2,0.4-0.4,0.6-0.6
		l0.6-0.6c0.1-0.1,0.2-0.1,0.3,0l0.1,0c0.2,0.1,0.4,0.2,0.6,0.4C-118.3,388.2-118.2,388.4-118.3,388.5z M-117.2,382l-0.3,0.5
		c0,0-0.1,0.1-0.1,0c0,0,0,0,0,0l0,0c0-0.1-0.1-0.1-0.1-0.3l0,0l0,0c0,0,0,0,0,0l0,0l-0.1,0c0,0,0,0,0,0l0,0l0.1-0.1c0,0,0,0,0,0
		c0-0.1,0-0.1,0.1-0.2c0-0.1,0.1-0.1,0.1,0l0,0.1c0,0,0.1,0,0.1-0.1c0.1,0,0.2,0,0.2,0.1C-117.2,381.9-117.2,381.9-117.2,382z"/>
	<path id="XMLID_873_" class="st2" d="M-113.9,387.7c0-0.3-0.1-0.5-0.1-0.8c0.3-1.2,0.1-2.5-0.7-3.5c0.3-0.7,0.2-1.7-0.4-2.3
		c-0.6-0.6-1.4-0.8-2.1-1c0-0.2,0-0.4,0-0.6c0-0.2-0.1-0.5-0.2-0.7c-0.1-0.2-0.2-0.4-0.4-0.6c-0.2-0.2-0.4-0.3-0.6-0.4
		c-0.8-0.3-1.8-0.3-2.6,0c-1.1-1-2.6-1.5-4.1-1.7c-0.4-0.1-0.7-0.1-1.1-0.1c-0.4,0-0.7-0.1-1.1,0c-0.4,0.1-0.7,0.5-0.8,0.9
		c-0.1,0.4,0,0.8,0.1,1.1c-0.2,0.2-0.3,0.4-0.4,0.7c-0.8,0.2-1.5,0.7-2.1,1.3c-0.6,0.7-0.9,1.5-0.9,2.4c0,0.9,0.2,1.7,0.7,2.4
		c0.4,0.7,1,1.3,1.7,1.7c-0.4,0.7-0.9,1.3-1.4,2c-0.4-0.1-0.9-0.1-1.3-0.1c-0.5,0-0.9,0.1-1.4,0.2c-0.9,0.2-1.8,0.6-2.6,1.1
		c-1.6,0.9-3.1,2.2-4.4,3.5c0,0,0,0,0,0c0,0.1,0,0.2,0.1,0.2l0,0l1.6,0.9c0.3,0.1,0.5,0.3,0.8,0.5c0.2,0.2,0.5,0.4,0.7,0.6
		c0.8,0.7,1.6,1.4,2.2,2.3c-1.1-0.2-2.2-0.6-3.2-1.1c-0.3-0.1-0.6-0.3-0.8-0.5l-0.4-0.2l-0.4-0.3l-1.5-1.2c-0.1-0.1-0.2-0.1-0.3,0
		c-2.2,2.4-4.1,5.1-6,7.8c-1.8,2.7-3.5,5.5-5.2,8.3l0,0c-0.1,0.1,0,0.3,0.1,0.4l0,0l1.2,0.6c0.4,0.2,0.7,0.5,1.1,0.8
		c0.3,0.3,0.7,0.6,1,0.9c0.2,0.2,0.3,0.3,0.4,0.5c-0.2,0-0.4-0.1-0.6-0.2c-0.4-0.1-0.8-0.3-1.2-0.5c-0.2-0.1-0.4-0.2-0.6-0.3
		l-0.3-0.2l-0.1-0.1l-0.1-0.1l-1.1-0.8l0,0c-0.1-0.1-0.3,0-0.4,0.1l-1.9,3.3l-0.9,1.7c-0.3,0.5-0.6,1.1-0.9,1.7
		c-0.3,0.6-0.6,1.2-0.8,1.8c-0.2,0.6-0.5,1.2-0.6,1.8c-0.2,0.6-0.3,1.3-0.4,1.9c0,0.3,0,0.7,0,1c0,0.4,0.1,0.7,0.3,1.1
		c0,0.1,0.1,0.1,0.2,0.1l0,0c0.7,0.1,1.4,0,2-0.2c0.6-0.2,1.2-0.5,1.8-0.8c1.2-0.6,2.3-1.3,3.3-2c0,0,0.1-0.1,0.1-0.1
		c0.1-0.2,0-0.4-0.1-0.5l0,0l-0.4-0.2c-0.1-0.1-0.3-0.1-0.4-0.2c-0.3-0.2-0.5-0.4-0.8-0.6c-0.2-0.2-0.5-0.4-0.7-0.7c0,0,0,0,0,0
		c0,0,0.1,0,0.1,0c0.3,0.1,0.7,0.3,1,0.4c0.2,0.1,0.3,0.2,0.5,0.3l0.2,0.1l0.1,0.1l0.1,0.1l0.9,0.7c0.1,0.1,0.3,0.1,0.4,0
		c2.4-1.7,4.7-3.6,7-5.5c2.3-1.9,4.5-3.9,6.6-5.9c0,0,0-0.1,0.1-0.1l4-3.9c1.3-1.3,2.7-2.6,4-4c1.3-1.4,2.5-2.9,3.3-4.6
		c0.2-0.4,0.4-0.9,0.5-1.3c0.2-0.5,0.2-0.9,0.3-1.4c0-0.5,0-1-0.1-1.5c0-0.4-0.2-0.9-0.4-1.3c1-1.2,2.2-2.2,3.3-3.2
		c0,0.3,0,0.6,0.1,0.8c0.1,0.3,0.4,0.5,0.6,0.6c0.2,0.2,0.4,0.3,0.7,0.4c0.2,0.1,0.5,0.2,0.7,0.3c0.2,0.1,0.5,0.1,0.8,0.1
		c0.3,0,0.5,0,0.8,0c0.3-0.1,0.5-0.1,0.8-0.2c0.5-0.1,1-0.4,1.4-0.7c0.2-0.2,0.4-0.3,0.6-0.5c0.2-0.2,0.3-0.4,0.5-0.6l0.2-0.3
		l0.1-0.4c0.1-0.2,0.1-0.5,0.2-0.8C-113.9,388.2-113.9,387.9-113.9,387.7z M-114.2,389.2l-0.1,0.4l-0.2,0.3
		c-0.1,0.2-0.3,0.4-0.4,0.6c-0.2,0.2-0.4,0.4-0.6,0.5c-0.4,0.3-0.9,0.5-1.4,0.6c-0.2,0.1-0.5,0.1-0.7,0.1c-0.2,0-0.5,0-0.7,0
		c-0.2-0.1-0.5-0.1-0.7-0.1c-0.2-0.1-0.5-0.1-0.7-0.3l-0.3-0.2l-0.3-0.2c-0.2-0.2-0.4-0.3-0.5-0.5c-0.2-0.4-0.1-0.9,0.2-1.3
		c0.1-0.1,0.1-0.2,0-0.2c-0.1-0.1-0.2-0.1-0.2,0c-1.5,1.2-2.8,2.5-4.1,3.9c0,0.1-0.1,0.1,0,0.2l0,0c0.1,0.4,0.4,0.8,0.4,1.3
		c0.1,0.4,0.1,0.9,0.1,1.3c-0.1,0.4-0.1,0.9-0.3,1.3c-0.1,0.4-0.3,0.9-0.5,1.3c-0.9,1.6-2.1,3.1-3.3,4.5c-1.3,1.4-2.6,2.7-4,4
		l-3.8,3.6c-0.8-1.1-1.8-2-3-2.8c-0.6-0.4-1.3-0.7-2-1c-0.7-0.3-1.4-0.5-2.2-0.6c-0.1,0-0.2,0-0.2,0c-0.2,0.1-0.2,0.3-0.1,0.5l0,0
		c0.2,0.4,0.4,0.6,0.7,0.9c0.2,0.3,0.5,0.6,0.8,0.8c0.5,0.5,1.1,1,1.8,1.4c0.6,0.4,1.3,0.7,2,1c0.5,0.2,0.9,0.3,1.4,0.4
		c-4.1,3.8-8.3,7.4-12.8,10.6l-0.7-0.5l-0.1-0.1l-0.1-0.1l-0.3-0.1c-0.2-0.1-0.3-0.2-0.5-0.3c-0.4-0.2-0.7-0.3-1.1-0.5
		c-0.2-0.1-0.4-0.1-0.6-0.2c-0.2,0-0.4-0.1-0.6-0.1c-0.1,0-0.1,0-0.2,0c-0.2,0.1-0.2,0.3-0.1,0.5c0.1,0.2,0.2,0.3,0.3,0.5
		c0.1,0.1,0.2,0.3,0.3,0.4c0.2,0.3,0.5,0.5,0.8,0.7c0.3,0.2,0.5,0.4,0.8,0.6c0.1,0.1,0.3,0.2,0.4,0.2c-0.9,0.6-1.8,1.2-2.8,1.6
		c-0.6,0.3-1.1,0.5-1.7,0.7c-0.5,0.2-1.1,0.3-1.6,0.2c-0.1-0.2-0.1-0.4-0.1-0.6c0-0.3,0-0.6,0-0.9c0.1-0.6,0.2-1.2,0.3-1.8
		c0.2-0.6,0.4-1.2,0.6-1.8c0.2-0.6,0.5-1.2,0.8-1.7c0.3-0.6,0.6-1.1,0.9-1.7l0.9-1.7l1.7-3l0.8,0.6l0.2,0.1l0.1,0.1l0.3,0.2
		c0.2,0.1,0.4,0.2,0.6,0.3c0.4,0.2,0.8,0.4,1.3,0.5c0.4,0.1,0.9,0.3,1.4,0.3c0.1,0,0.1,0,0.2,0c0.1-0.1,0.2-0.2,0.1-0.4
		c-0.3-0.4-0.6-0.8-0.9-1.1c-0.3-0.3-0.7-0.7-1-0.9c-0.4-0.3-0.7-0.6-1.1-0.8l-1-0.5c1.6-2.7,3.2-5.5,5-8.1c1.8-2.7,3.6-5.2,5.8-7.6
		l1.4,1.1l0.4,0.3l0.4,0.3c0.3,0.2,0.6,0.3,0.9,0.5c1.2,0.6,2.4,1.1,3.8,1.2c0,0,0.1,0,0.1,0c0.1-0.1,0.1-0.2,0.1-0.3
		c-0.7-1.1-1.6-2-2.6-2.8c-0.2-0.2-0.5-0.4-0.8-0.6c-0.3-0.2-0.5-0.4-0.8-0.5l-1.4-0.8c1.3-1.2,2.6-2.4,4.1-3.3
		c0.8-0.5,1.6-0.8,2.5-1.1c0.4-0.1,0.9-0.2,1.3-0.2c0.5,0,0.9,0,1.3,0.1l0,0c0,0,0.1,0,0.1-0.1c0.6-0.7,1.1-1.4,1.5-2.2
		c0-0.1,0-0.1,0-0.2c-0.7-0.4-1.3-1-1.7-1.7c-0.4-0.7-0.7-1.5-0.6-2.3c0-0.8,0.3-1.6,0.8-2.2c0.5-0.6,1.2-1.1,2-1.3
		c0,0,0.1,0,0.1-0.1c0.1-0.3,0.2-0.5,0.4-0.7c0,0,0-0.1,0-0.1c-0.2-0.3-0.2-0.7-0.1-1c0.1-0.3,0.3-0.6,0.6-0.7c0.1,0,0.3-0.1,0.5,0
		l0.6,0c0.4,0,0.7,0.1,1.1,0.1c1.4,0.2,2.9,0.6,4,1.6c0,0,0.1,0,0.1,0c0,0,0,0,0,0c0.4-0.1,0.9-0.2,1.3-0.2c0.4,0,0.9,0,1.3,0.2
		c0.2,0.1,0.4,0.2,0.5,0.3c0.1,0.2,0.3,0.3,0.4,0.5c0.1,0.2,0.1,0.4,0.1,0.6c0,0.2,0,0.4,0,0.7c0,0,0,0.1,0,0.1
		c0.8,0.2,1.6,0.4,2.1,1c0.5,0.6,0.7,1.5,0.4,2.2c0,0-0.4,0-0.4,0c0.8,1,1.3,2.3,0.3,3.5c0,0,0,0,0,0v0c1,0.3,0.5,0.5,0.5,0.8
		c0,0.3,0.4,0.5,0.3,0.8C-114.2,388.7-114.1,389-114.2,389.2z M-137.4,410.4c-1.1-0.3-2.1-0.8-3.1-1.4c-0.6-0.4-1.1-0.8-1.7-1.3
		c-0.3-0.2-0.5-0.5-0.7-0.7c0,0-0.1-0.1-0.1-0.1c0,0,0.1,0,0.1,0c0.3,0.1,0.7,0.2,1,0.3c0.6,0.3,1.3,0.6,1.9,1
		C-139,408.8-138.1,409.5-137.4,410.4z"/>
	<path id="XMLID_877_" class="st2" d="M-125.3,387.5c0,0,0-0.1,0-0.1c0-0.1-0.1-0.1-0.2-0.1c-0.5,0.1-1.1,0.1-1.6,0c0,0,0,0,0,0l0,0
		c-0.7,0.6-1.3,1.2-1.8,1.9l0,0c-0.1,0.2-0.1,0.4,0.1,0.5l0,0c0.3,0.2,0.5,0.3,0.8,0.4l0,0c0.1,0.1,0.3,0,0.4-0.1L-125.3,387.5
		L-125.3,387.5z M-127.8,389.4c-0.1-0.1-0.2-0.1-0.2-0.2c0.4-0.6,0.8-1.3,1-2c0.4,0.1,0.8,0.2,1.3,0.2L-127.8,389.4z"/>
	<path id="XMLID_878_" class="st2" d="M-128.4,383l0-0.1l0,0c0-0.1,0.1-0.2,0-0.3c0-0.1-0.1-0.1-0.2-0.3l0-0.1c0,0,0,0,0,0l0,0l0,0
		l0,0c-0.3,0-0.4,0.2-0.5,0.4c-0.1,0.2,0.1,0.4,0.2,0.5l0.1,0.1c0.1,0.1,0.2,0.1,0.3,0.1C-128.5,383.3-128.4,383.2-128.4,383z"/>
	<path id="XMLID_897_" class="st2" d="M-121.4,387l-0.8-0.3l-0.1,0c-0.1,0-0.2,0-0.3,0.1c-1.3,1.4-2.6,2.8-3.8,4.2c0,0,0,0.1,0,0.1
		l0.4,0.4c0,0,0,0,0,0l0,0c0.8-0.6,1.6-1.3,2.3-1.9c0.8-0.6,1.5-1.3,2.2-2c0,0,0.1-0.1,0.1-0.1C-121.1,387.3-121.2,387.1-121.4,387z
		 M-124,389c-0.7,0.7-1.3,1.5-1.9,2.3l-0.3-0.4c1.3-1.2,2.6-2.5,3.9-3.7l0.2,0.1C-122.8,387.9-123.5,388.4-124,389z"/>
	<path id="XMLID_898_" class="st2" d="M-119.6,381.5C-119.6,381.5-119.6,381.5-119.6,381.5C-119.6,381.5-119.6,381.5-119.6,381.5
		L-119.6,381.5L-119.6,381.5L-119.6,381.5L-119.6,381.5z"/>
	<path id="XMLID_899_" class="st2" d="M-120.2,383.3C-120.2,383.3-120.2,383.4-120.2,383.3c0.1,0.1,0.2,0.3,0.2,0.3l0.2,0.3h0
		c0.1,0,0.1-0.3,0.2-0.4l0.3-0.5l0.1-0.2c0,0,0-0.1,0-0.1c0,0-0.2-0.1-0.3-0.1c-0.2-0.3-0.5-0.8-0.5-1.2v0c0,0,0.3-0.1,0.2-0.1
		l0.1,0l-0.2,0l-0.1,0.2v0l0.2,0c0,0.1,0.1,0.2,0,0.2c0-0.1,0-0.1,0-0.2l0,0l0,0c-0.2,0.2-0.3,0.3-0.4,0.4c-0.1,0.1-0.3,0.3-0.3,0.4
		c0,0-0.2,0-0.2,0c0,0.1-0.3,0.1-0.3,0.2v0c0,0.1,0.3,0.3,0.3,0.4C-120.7,383.2-120.4,383.3-120.2,383.3z"/>
	<path id="XMLID_900_" class="st2" d="M-119.7,381.3C-119.7,381.3-119.7,381.3-119.7,381.3C-119.7,381.3-119.7,381.3-119.7,381.3
		L-119.7,381.3L-119.7,381.3L-119.7,381.3L-119.7,381.3C-119.6,381.4-119.6,381.3-119.7,381.3z"/>
	<path id="XMLID_901_" class="st2" d="M-118.5,388.1c-0.2-0.1-0.4-0.2-0.6-0.4l-0.1,0c-0.1-0.1-0.2-0.1-0.3,0l-0.6,0.6
		c-0.2,0.2-0.4,0.4-0.6,0.6l0,0c0,0,0,0,0,0c0,0,0,0,0.1,0c0.1,0,0.2-0.1,0.3-0.1c0.3,0,0.6,0,0.9,0.1c0.3,0,0.6-0.1,0.8-0.2l0,0
		c0.1,0,0.1-0.1,0.2-0.1C-118.2,388.4-118.3,388.2-118.5,388.1z"/>
	<path id="XMLID_903_" class="st2" d="M-117.4,381.8c0,0-0.1,0-0.1,0.1l0-0.1c0,0-0.1-0.1-0.1,0c0,0,0,0.1-0.1,0.2c0,0,0,0,0,0
		l-0.1,0.1l0,0c0,0,0,0,0,0l0.1,0l0,0c0,0,0,0,0,0l0,0l0,0c0,0.1,0.1,0.2,0.1,0.3l0,0c0,0,0,0,0,0c0,0.1,0.1,0,0.1,0l0.3-0.5
		c0,0,0-0.1,0-0.1C-117.2,381.8-117.3,381.8-117.4,381.8z"/>
</g>
</svg>
