<?xml version="1.0" encoding="utf-8"?>
<!-- Generator: Adobe Illustrator 16.0.0, SVG Export Plug-In . SVG Version: 6.00 Build 0)  -->
<!DOCTYPE svg PUBLIC "-//W3C//DTD SVG 1.1//EN" "http://www.w3.org/Graphics/SVG/1.1/DTD/svg11.dtd" [
	<!ENTITY ns_flows "http://ns.adobe.com/Flows/1.0/">
	<!ENTITY ns_extend "http://ns.adobe.com/Extensibility/1.0/">
	<!ENTITY ns_ai "http://ns.adobe.com/AdobeIllustrator/10.0/">
	<!ENTITY ns_graphs "http://ns.adobe.com/Graphs/1.0/">
]>
<svg version="1.1" id="Layer_1" xmlns:x="&ns_extend;" xmlns:i="&ns_ai;" xmlns:graph="&ns_graphs;"
	 xmlns="http://www.w3.org/2000/svg" xmlns:xlink="http://www.w3.org/1999/xlink" xmlns:a="http://ns.adobe.com/AdobeSVGViewerExtensions/3.0/"
	 x="0px" y="0px" width="64.469px" height="114.615px" viewBox="0 0 64.469 114.615" enable-background="new 0 0 64.469 114.615"
	 xml:space="preserve">
<g>
	<g>
		<path fill-rule="evenodd" clip-rule="evenodd" d="M12.261,0.006c-1.239,1.07-2.479,2.141-3.699,3.195
			C8.441,4.288,8.335,5.235,8.229,6.182c-0.51,0.981-1.02,1.964-1.596,3.074c0.474,1.492,0.949,2.989,1.638,5.16
			c0.341,2.266,0.819,5.248,1.225,8.239c0.16,1.18,0.185,2.381,0.22,3.574c0.051,1.745,0.104,3.493,0.068,5.238
			c-0.039,1.912-0.11,3.829-0.3,5.729c-0.128,1.281-0.027,2.519,0.044,3.79c0.078,1.395-0.346,2.824-0.603,4.229
			c-0.287,1.568-0.654,3.123-0.942,4.69c-0.246,1.335-0.336,2.705-0.658,4.02c-1.071,4.369-1.385,8.826-1.685,13.289
			c-0.043,0.633-0.145,1.271-0.307,1.886c-0.695,2.644-0.943,5.294-0.583,8.034c0.394,2.994,0.581,6.016,0.845,8.877
			c1.157,2.85,2.178,5.617,3.411,8.287c0.588,1.275,1.511,2.42,2.402,3.528c1.396,1.735,2.644,3.612,4.431,5.004
			c0.189,0.147,0.416,0.257,0.574,0.432c3.877,4.261,8.995,6.188,14.368,7.606c3.765,0.995,7.236,0.243,10.548-1.764
			c1.988-1.205,3.883-2.497,5.639-4.023c2.314-2.014,4.31-4.244,5.528-7.105c0.375-0.88,0.919-1.688,1.298-2.567
			c0.725-1.679,1.504-3.348,2.046-5.087c0.901-2.893,1.815-5.802,2.389-8.769c0.726-3.757,0.94-7.555,0.487-11.42
			c-0.372-3.173-0.594-6.351-1.402-9.456c-0.841-3.228-1.637-6.466-2.454-9.7c-0.606-2.401-1.304-4.784-1.79-7.209
			c-0.276-1.379-0.805-2.583-1.604-3.691c-2.379-3.296-4.456-6.792-7.117-9.907c-3.111-3.643-6.803-6.539-10.828-8.994
			c-1.911-1.166-3.884-2.163-5.502-3.757c-1.141-1.124-2.198-2.248-3.023-3.667c-1.116-1.919-2.551-3.652-3.836-5.474
			c-0.322-0.457-0.663-0.92-0.875-1.43c-1.126-2.716-3.204-4.496-5.682-5.904c-0.125-0.071-0.195-0.237-0.291-0.358
			c1.221-0.359,2.289-0.225,3.351,0.557c2.525,1.859,4.717,4.008,5.967,6.973c0.563,1.337,1.335,2.535,2.56,3.402
			c0.448,0.317,0.901,0.716,1.172,1.182c1.463,2.52,3.778,4.085,6.18,5.522c1.846,1.104,3.795,2.036,5.68,3.079
			c0.554,0.307,1.135,0.65,1.547,1.116c1.791,2.024,3.916,3.693,5.818,5.596c0.728,0.729,1.416,1.557,1.897,2.46
			c1.406,2.633,3.438,4.788,5.224,7.132c0.679,0.892,1.246,1.794,1.596,2.906c0.525,1.665,1.391,3.22,2.016,4.857
			c1.135,2.966,2.192,5.96,3.301,8.936c0.22,0.589,0.579,1.129,0.783,1.722c0.479,1.398,1.607,2.625,1.076,4.305
			c-0.098,0.311,0.182,0.746,0.306,1.117c1.075,3.197,1.515,6.492,1.515,9.855c0,0.558,0,1.119,0.061,1.674
			c0.385,3.531-0.342,6.996-0.694,10.476c-0.14,1.38-0.755,2.735-1.296,4.043c-0.67,1.616-1.566,3.14-2.216,4.762
			c-0.409,1.024-0.505,2.169-0.815,3.237c-0.265,0.906-0.523,1.845-0.982,2.658c-1.133,2.007-2.371,3.955-3.582,5.916
			c-0.334,0.541-0.666,1.102-1.098,1.559c-1.094,1.16-2.091,2.509-3.406,3.34c-2.135,1.35-4.406,2.6-6.783,3.422
			c-2.537,0.879-5.277,1.158-7.906,1.799c-4.242,1.035-8.218,0.05-12.146-1.439c-3.576-1.355-6.633-3.57-9.321-6.189
			c-3.023-2.949-5.977-6.114-7.505-10.111c-1.682-4.395-4.234-8.432-5.301-13.07C0.645,80.498-0.008,77.626,0,74.64
			c0.013-5.364,0.518-10.682,1.345-15.975c0.296-1.895,0.478-3.806,0.778-5.699c0.187-1.18,0.53-2.334,0.741-3.511
			C3.172,47.732,3.436,46,3.699,44.269c0.204-1.34,0.379-2.685,0.567-4.028c0.477-3.4,0.918-6.805,1.439-10.197
			c0.535-3.485,0.572-6.996,0.662-10.504c0.075-2.9-0.439-5.732-1.161-8.52C4.462,8.146,5.127,5.484,6.22,2.863
			c0.15-0.361,0.375-0.712,0.639-1.002C7.761,0.869,10.61-0.089,12.261,0.006z"/>
		<path fill-rule="evenodd" clip-rule="evenodd" d="M23.479,25.51c0.324-0.126,0.642-0.339,0.974-0.366
			c3.836-0.309,7.455,0.61,10.955,2.068c0.645,0.269,1.214,0.771,1.745,1.247c1.069,0.958,2.082,1.98,3.13,2.962
			c1.671,1.567,2.841,3.405,3.223,5.706c0.091,0.545,0.229,1.121,0.503,1.592c1.19,2.045,1.625,4.328,2.177,6.578
			c0.266,1.083,0.66,2.093,1.206,3.094c0.717,1.316,1.133,2.798,1.646,4.221c0.161,0.447,0.188,0.942,0.33,1.398
			c0.545,1.73,1.365,3.42,1.601,5.189c0.248,1.862,0.95,3.508,1.517,5.24c0.589,1.799,1.01,3.641,0.867,5.609
			c-0.195,2.688-0.143,5.394-0.211,8.895c-0.865,2.352-2.016,5.482-3.098,8.426c-1.094,0.586-1.745,0.178-2.391-0.189
			c0.455-1.904,0.895-3.662,1.289-5.432c0.208-0.936,0.504-1.893,0.471-2.83c-0.178-5.084,0.538-10.205-0.472-15.25
			c-0.579-2.894-1.266-5.777-2.101-8.607c-0.789-2.675-1.836-5.274-2.767-7.907c-0.239-0.677-0.583-1.343-0.679-2.041
			c-0.526-3.818-2.885-6.902-4.118-10.433c-0.13-0.37-0.318-0.789-0.61-1.021c-2.354-1.864-4.006-4.593-7.04-5.629
			c-1.507-0.515-2.935-1.266-4.447-1.763c-0.807-0.265-1.717-0.221-2.581-0.309c-0.354-0.036-0.709-0.051-1.064-0.075
			C23.516,25.759,23.498,25.634,23.479,25.51z"/>
	</g>
	<path fill-rule="evenodd" clip-rule="evenodd" d="M17.418,31.757c0.359,1.013,0.719,2.024,1.081,3.046
		c-0.739,0.665-1.321,1.188-1.963,1.764c-0.062,0.417-0.235,0.899-0.181,1.355c0.143,1.204,0.01,2.327-0.27,3.525
		c-0.301,1.29-0.03,2.705-0.102,4.061c-0.046,0.856-0.201,1.719-0.415,2.551c-0.733,2.853-1.642,5.667-2.235,8.546
		c-0.48,2.331-0.586,4.736-0.89,7.104c-0.08,0.621-0.157,1.293-0.446,1.826c-0.655,1.205-0.76,2.454-0.426,3.717
		c0.835,3.157,1.059,6.3-0.042,9.203c1.043,3.115,2.003,5.977,2.958,8.838c0.729,2.184,1.365,4.403,2.201,6.545
		c1.038,2.656,2.553,4.936,5.425,6.006c1.031,0.385,1.972,1.012,3.247,1.682c1.421,0.125,3.168,0.336,4.921,0.405
		c0.688,0.026,1.403-0.222,2.082-0.425c0.99-0.299,1.959-0.67,2.793-0.96c1.398-0.983,2.686-1.889,4.102-2.884
		c0.287,0.607,0.48,1.016,0.682,1.442c-1.572,2.586-3.783,4.369-6.585,4.901c-2.616,0.496-5.36,0.296-8.034-0.122
		c-0.228-0.036-0.445-0.175-0.652-0.293c-1.729-0.98-3.466-1.95-5.177-2.963c-0.54-0.319-1.126-0.673-1.49-1.159
		c-2.006-2.688-4.036-5.374-4.774-8.758c-0.102-0.469-0.156-0.967-0.362-1.388c-1.462-2.985-1.957-6.235-2.522-9.449
		c-0.273-1.556-0.218-3.175-0.243-4.767c-0.028-1.834,0.019-3.67,0.034-5.506c0.005-0.64-0.102-1.305,0.035-1.914
		c0.985-4.379,0.338-8.951,1.589-13.293c0.094-5.676,2.359-10.886,3.522-16.333c0.448-2.1,1.03-4.17,1.551-6.254
		C17.028,31.792,17.223,31.774,17.418,31.757z"/>
</g>
</svg>
