<?xml version="1.0" encoding="utf-8"?>
<!-- Generator: Adobe Illustrator 16.0.0, SVG Export Plug-In . SVG Version: 6.00 Build 0)  -->
<!DOCTYPE svg PUBLIC "-//W3C//DTD SVG 1.1//EN" "http://www.w3.org/Graphics/SVG/1.1/DTD/svg11.dtd" [
	<!ENTITY ns_flows "http://ns.adobe.com/Flows/1.0/">
	<!ENTITY ns_extend "http://ns.adobe.com/Extensibility/1.0/">
	<!ENTITY ns_ai "http://ns.adobe.com/AdobeIllustrator/10.0/">
	<!ENTITY ns_graphs "http://ns.adobe.com/Graphs/1.0/">
]>
<svg version="1.1" id="Layer_1" xmlns:x="&ns_extend;" xmlns:i="&ns_ai;" xmlns:graph="&ns_graphs;"
	 xmlns="http://www.w3.org/2000/svg" xmlns:xlink="http://www.w3.org/1999/xlink" xmlns:a="http://ns.adobe.com/AdobeSVGViewerExtensions/3.0/"
	 x="0px" y="0px" width="89.282px" height="98.198px" viewBox="0 0 89.282 98.198" enable-background="new 0 0 89.282 98.198"
	 xml:space="preserve">
<g>
	<path fill-rule="evenodd" clip-rule="evenodd" d="M75.205,62.012c1.299,0.496,2.32,0.887,3.738,1.428
		c0.775,0.543,1.074,1.594,0.676,2.727c-0.884,1.004-1.666,1.885-2.441,2.773c-0.711,0.814-1.469,1.49-2.8,0.994
		c-0.177-0.217-0.465-0.494-0.667-0.824c-0.793-1.297-1.725-2.465-2.941-3.393c-0.8-0.611-1.338-1.355-1.09-2.551
		c0.911-0.342,1.862-0.699,2.96-1.111c0.401,0.146,0.914,0.332,1.556,0.564C74.514,62.428,74.906,62.191,75.205,62.012z"/>
	<g>
		<path fill-rule="evenodd" clip-rule="evenodd" d="M34.107,0.636c1.356,0.731,2.649,1.361,3.87,2.11
			c0.877,0.539,1.841,1.097,2.443,1.891c1.32,1.737,3.107,2.953,4.174,4.045c5.128,7.325,7.99,15.065,10.902,22.894
			c1.498,0.658,2.379,1.944,2.968,3.485c0.141,0.368,0.306,0.774,0.58,1.037c2.063,1.981,3.877,4.214,6.429,5.689
			c2.688,1.557,5.22,3.379,7.833,5.066c1.945,1.254,3.913,2.473,5.865,3.717c0.404,0.258,0.876,0.479,1.16,0.84
			c2.848,3.615,6.072,7,7.299,11.631c0.101,0.379,0.154,0.785,0.145,1.178c-0.027,1.066,0.195,2.047,0.769,2.963
			c0.658,1.053,0.88,2.195,0.65,3.443c-0.402,2.188-0.753,4.385-1.187,6.934c0.609,1.051,0.234,2.432-0.365,3.971
			c-1.143,1.211-2.366,2.566-2.992,4.354c-0.146,0.418-0.554,0.779-0.912,1.084c-1.156,0.979-2.316,1.957-3.538,2.852
			c-0.428,0.312-1.055,0.572-1.558,0.521c-1.26-0.123-2.142,0.523-3.001,1.227c-1.433,1.17-3.042,1.99-4.731,2.715
			c-1.084,0.465-2.05,1.197-3.115,1.715c-0.923,0.449-1.881,0.92-2.875,1.111c-3.374,0.652-6.764,1.203-10.234,0.924
			c-0.944-0.076-1.923,0.246-2.861,0.148c-1.897-0.199-3.825-0.393-5.656-0.893c-3.53-0.967-7.043-1.99-10.622-2.77
			c-0.539-0.117-1.049-0.381-1.562-0.6c-4.637-1.99-8.629-4.926-11.867-8.742c-2.691-3.172-5.67-6.066-8.358-9.227
			c-2.483-2.92-4.907-5.893-7.277-8.904c-1.239-1.572-2.123-3.354-2.673-5.316c-0.688-2.457-1.531-4.869-2.299-7.305
			c-0.842-2.67-1.595-5.34-1.37-8.207c0.105-1.342-0.086-2.705-0.12-4.059c-0.102-4.075,0.223-8.122,0.84-12.144
			c0.463-3.012,1.476-5.875,2.547-8.712c0.192-0.512,0.492-1.048,0.893-1.403c1.472-1.308,2.264-3.053,3.181-4.717
			c0.897-1.628,2.111-2.997,3.409-4.302c1.408-1.414,2.72-2.957,4.278-4.184c2.503-1.97,5.095-3.857,7.813-5.51
			c1.164-0.708,2.726-0.826,4.132-1.058C29.426-0.25,31.707,0.294,34.107,0.636z M2.338,31.829c0.161,0.885,0.362,1.821,0.496,2.768
			c0.135,0.946,0.405,1.935,0.262,2.849c-0.554,3.53,0.021,7.03,0.219,10.526c0.134,2.373,0.86,4.674,1.804,6.906
			c1.113,2.633,2.405,5.188,3.167,7.982c0.52,1.91,1.566,3.635,2.969,5.139c2.339,2.508,4.601,5.092,6.828,7.701
			c1.77,2.074,3.724,3.922,5.86,5.617c2.558,2.029,4.98,4.227,7.505,6.299c1.415,1.16,2.833,2.332,4.709,2.756
			c1.468,0.332,2.892,0.85,4.357,1.189c4.113,0.951,8.122,2.271,12.364,2.781c5.424,0.652,10.681,0.311,15.87-1.303
			c3.264-1.016,6.482-2.09,9.04-4.576c2.826-2.75,5.438-5.572,6.753-9.432c1.243-3.646,1.96-7.309,0.705-11.023
			c-1.019-3.016-2.326-5.943-3.629-8.854c-0.41-0.918-1.139-1.738-1.864-2.461c-1.184-1.18-2.44-2.297-3.748-3.336
			c-1.421-1.131-2.886-2.248-4.886-2.367c-0.368,3.158-0.726,6.229-1.07,9.188c-0.663,0.756-1.237,1.41-1.766,2.012
			c-1.428,0.771-3.136,1.002-3.951,2.627c0.515,1.107,1.013,2.178,1.506,3.236c0.891,0.133,1.685,0.215,2.46,0.381
			c0.753,0.16,1.487,0.408,2.223,0.617c0.306,2.191,0.576,4.197,2.268,5.455c0.35,1.164,0.665,2.215,0.943,3.143
			c-0.511,0.875-1.224,1.09-1.943,1.049c-1.119-0.061-1.986,0.377-2.862,0.996c-2.359,1.668-4.085,1.172-5.391-1.422
			c-0.525-1.043-1.174-2.023-1.809-3.104c0.096-0.363,0.222-0.838,0.347-1.311c-1.558-0.432-3.125-0.018-4.348-1.207
			c-0.122-0.459-0.265-0.992-0.395-1.48c-0.655-0.66-1.193-1.391-2.254-1.395c-0.64,0.387-1.312,0.795-1.874,1.135
			c-2.369-0.189-3.138-2.242-4.503-3.422c-1.362,0.049-1.362,0.049-2.534,1.09c-0.101,0.994,0.841,2.188-0.523,3.084
			c-1.189-0.121-2.132-0.723-2.958-1.674c-1.188-1.373-2.476-2.656-3.721-3.979c-1.057-1.027-0.384-2.17-0.079-3.191
			c-0.604-0.844-1.131-1.582-1.728-2.416c-1.829,0.158-3.723,0.322-5.561,0.482c-0.738-0.416-1.4-0.789-2.163-1.219
			c0.937-1.383,2.467-1.34,3.613-1.967c1.137-0.621,2.419-0.975,3.869-1.535c-0.704-0.67-1.184-1.371-1.849-1.707
			c-1.464-0.736-2.303-1.947-2.933-3.35c-0.614-1.371-1.146-2.777-1.692-4.115c-0.792-0.318-1.511-0.617-2.237-0.898
			c-0.812-0.316-1.632-0.613-2.298-0.863c-1.013,0.229-1.831,0.76-2.868-0.029c-0.055-0.869-0.118-1.879-0.183-2.9
			c-1.292-1.779-2.586-3.561-3.946-5.432c0.802-0.607,1.422-1.077,2.087-1.581c-0.883-1.229-2.277-2.118-2.755-3.967
			c2.016,0.695,4.051,0.686,5.148,2.618c-0.06,0.397-0.117,0.782-0.176,1.177c1.216,1.146,2.42,2.28,3.586,3.379
			c-0.383,1.037-1.768,1.312-1.318,2.603c1.424,0.314,2.884,0.637,4.215,0.932c0.947-0.492,1.783-0.928,2.593-1.35
			c-0.519-0.861-1.035-1.72-1.552-2.579c-0.474-0.369-0.959-0.747-1.431-1.114c0.014-1.974,1.391-2.879,2.576-3.826
			c0.171-0.779,0.323-1.478,0.453-2.071c0.666-0.739,1.25-1.388,1.763-1.957c0.833-0.309,1.555-0.576,2.221-0.823
			c0.357-1.809-1.082-2.501-1.626-3.236c-0.461-1.661-0.156-2.857,0.606-3.801c-0.427-1.355-1.732-1.273-2.461-1.957
			c-1.041-0.924-1.221-2.226-1.51-3.463c-0.483-2.068-0.102-2.852,2.033-4.176c2.573,0.497,4.469,1.97,5.604,4.418
			c-0.393,1.043-0.861,2.007-0.113,3.243c0.562,0.19,1.291,0.438,2.062,0.699c0.204-0.511,0.366-0.916,0.563-1.411
			c0.765,0.614,1.439,1.157,2.155,1.733c0.957-0.104,2.105,0.504,2.696-0.936c-1.043-2.489-1.933-5.066-3.188-7.45
			c-0.877-1.665-2.255-3.064-3.375-4.537c-0.473,0.12-0.812,0.207-1.24,0.315c-0.129-0.799-0.229-1.412-0.324-1.999
			c-0.617-0.368-1.146-0.737-1.718-1.013c-1.072-0.516-2.129-1.227-3.266-1.416c-3.427-0.569-6.862-0.504-10.094,0.99
			c-2.817,1.302-5.701,2.47-7.719,5.085c-1.003,1.301-2.44,2.262-3.653,3.407c-0.93,0.878-1.733,1.835-2.261,3.049
			c-0.946,2.177-1.976,4.325-3.805,5.951c-0.115,0.102-0.175,0.265-0.31,0.479C4.394,25.378,3.38,28.558,2.338,31.829z
			 M44.373,36.201c0.223,2.003,0.433,3.893,0.626,5.629c0.677,0.975,1.491,1.748,1.795,2.688c0.374,1.154,1.138,1.871,1.912,2.664
			c1.996,2.043,3.972,4.102,6.041,6.076c1.232,1.178,2.413,2.258,4.209,2.863c0.303-0.365,0.807-0.723,0.942-1.186
			c0.332-1.137,0.707-2.328,0.682-3.49c-0.057-2.488-0.721-4.938-1.851-7.105c-1.709-3.281-3.105-6.833-6.203-9.202
			c-0.126-0.096-0.234-0.214-0.09-0.081c-1.877-0.87-3.445-1.597-5.045-2.338C45.826,33.456,45.383,35.109,44.373,36.201z"/>
		<path fill-rule="evenodd" clip-rule="evenodd" fill="#FFFFFF" d="M2.338,31.829c1.042-3.271,2.056-6.45,3.042-9.544
			c0.135-0.214,0.194-0.377,0.31-0.479c1.829-1.626,2.858-3.774,3.805-5.951c0.527-1.214,1.331-2.171,2.261-3.049
			c1.213-1.146,2.65-2.106,3.653-3.407c2.018-2.615,4.901-3.783,7.719-5.085c3.231-1.494,6.667-1.56,10.094-0.99
			c1.137,0.189,2.193,0.9,3.266,1.416c0.572,0.275,1.101,0.645,1.718,1.013c0.096,0.587,0.195,1.2,0.324,1.999
			c0.429-0.108,0.768-0.195,1.24-0.315c1.12,1.473,2.498,2.872,3.375,4.537c1.255,2.384,2.145,4.961,3.188,7.45
			c-0.591,1.439-1.739,0.832-2.696,0.936c-0.716-0.576-1.391-1.119-2.155-1.733c-0.197,0.495-0.359,0.9-0.563,1.411
			c-0.771-0.261-1.5-0.509-2.062-0.699c-0.748-1.236-0.279-2.2,0.113-3.243c-1.136-2.448-3.031-3.921-5.604-4.418
			c-2.135,1.324-2.517,2.107-2.033,4.176c0.289,1.237,0.469,2.539,1.51,3.463c0.729,0.684,2.034,0.602,2.461,1.957
			c-0.763,0.943-1.067,2.14-0.606,3.801c0.544,0.735,1.983,1.428,1.626,3.236c-0.666,0.247-1.388,0.515-2.221,0.823
			c-0.513,0.569-1.097,1.218-1.763,1.957c-0.13,0.594-0.282,1.292-0.453,2.071c-1.186,0.947-2.562,1.853-2.576,3.826
			c0.472,0.367,0.957,0.745,1.431,1.114c0.517,0.858,1.033,1.717,1.552,2.579c-0.81,0.422-1.646,0.857-2.593,1.35
			c-1.331-0.295-2.791-0.617-4.215-0.932c-0.449-1.291,0.936-1.566,1.318-2.603c-1.166-1.099-2.37-2.233-3.586-3.379
			c0.059-0.395,0.116-0.779,0.176-1.177c-1.098-1.933-3.133-1.923-5.148-2.618c0.478,1.849,1.872,2.737,2.755,3.967
			c-0.665,0.504-1.285,0.974-2.087,1.581c1.36,1.871,2.654,3.653,3.946,5.432c0.064,1.021,0.128,2.031,0.183,2.9
			c1.037,0.789,1.855,0.258,2.868,0.029c0.666,0.25,1.485,0.547,2.298,0.863c0.727,0.281,1.445,0.58,2.237,0.898
			c0.547,1.338,1.078,2.744,1.692,4.115c0.63,1.402,1.469,2.613,2.933,3.35c0.665,0.336,1.145,1.037,1.849,1.707
			c-1.45,0.561-2.732,0.914-3.869,1.535c-1.146,0.627-2.677,0.584-3.613,1.967c0.763,0.43,1.425,0.803,2.163,1.219
			c1.838-0.16,3.731-0.324,5.561-0.482c0.597,0.834,1.124,1.572,1.728,2.416c-0.305,1.021-0.978,2.164,0.079,3.191
			c1.245,1.322,2.533,2.605,3.721,3.979c0.826,0.951,1.769,1.553,2.958,1.674c1.364-0.896,0.423-2.09,0.523-3.084
			c1.172-1.041,1.172-1.041,2.534-1.09c1.365,1.18,2.134,3.232,4.503,3.422c0.562-0.34,1.234-0.748,1.874-1.135
			c1.061,0.004,1.599,0.734,2.254,1.395c0.13,0.488,0.272,1.021,0.395,1.48c1.223,1.189,2.79,0.775,4.348,1.207
			c-0.125,0.473-0.251,0.947-0.347,1.311c0.635,1.08,1.283,2.061,1.809,3.104c1.306,2.594,3.031,3.09,5.391,1.422
			c0.876-0.619,1.743-1.057,2.862-0.996c0.72,0.041,1.433-0.174,1.943-1.049c-0.278-0.928-0.594-1.979-0.943-3.143
			c-1.691-1.258-1.962-3.264-2.268-5.455c-0.735-0.209-1.47-0.457-2.223-0.617c-0.775-0.166-1.569-0.248-2.46-0.381
			c-0.493-1.059-0.991-2.129-1.506-3.236c0.815-1.625,2.523-1.855,3.951-2.627c0.528-0.602,1.103-1.256,1.766-2.012
			c0.345-2.959,0.702-6.029,1.07-9.188c2,0.119,3.465,1.236,4.886,2.367c1.308,1.039,2.564,2.156,3.748,3.336
			c0.726,0.723,1.454,1.543,1.864,2.461c1.303,2.91,2.61,5.838,3.629,8.854c1.255,3.715,0.538,7.377-0.705,11.023
			c-1.315,3.859-3.927,6.682-6.753,9.432c-2.558,2.486-5.776,3.561-9.04,4.576c-5.189,1.613-10.446,1.955-15.87,1.303
			c-4.242-0.51-8.251-1.83-12.364-2.781c-1.466-0.34-2.89-0.857-4.357-1.189c-1.876-0.424-3.294-1.596-4.709-2.756
			c-2.524-2.072-4.947-4.27-7.505-6.299c-2.137-1.695-4.091-3.543-5.86-5.617c-2.228-2.609-4.489-5.193-6.828-7.701
			c-1.402-1.504-2.449-3.229-2.969-5.139c-0.762-2.795-2.054-5.35-3.167-7.982c-0.943-2.232-1.67-4.533-1.804-6.906
			c-0.197-3.496-0.772-6.996-0.219-10.526c0.144-0.914-0.127-1.902-0.262-2.849C2.7,33.65,2.499,32.713,2.338,31.829z
			 M75.205,62.012c-0.299,0.18-0.691,0.416-1.01,0.607c-0.642-0.232-1.154-0.418-1.556-0.564c-1.098,0.412-2.049,0.77-2.96,1.111
			c-0.248,1.195,0.29,1.939,1.09,2.551c1.217,0.928,2.148,2.096,2.941,3.393c0.202,0.33,0.49,0.607,0.667,0.824
			c1.331,0.496,2.089-0.18,2.8-0.994c0.775-0.889,1.558-1.77,2.441-2.773c0.398-1.133,0.1-2.184-0.676-2.727
			C77.525,62.898,76.504,62.508,75.205,62.012z M33.012,23.072c-0.627-0.47-1.176-0.88-1.718-1.286
			c-2.56,1.112-4.646,2.657-6.627,4.358c-0.486,0.418-0.626,0.914-0.016,1.537c1.133-0.369,2.351-0.255,3.279,0.579
			c1.022,0.917,2.169,1.272,3.677,1.386c0.455-0.466,0.986-1.009,1.483-1.518c-0.35-0.947-0.624-1.688-0.879-2.378
			C32.462,24.913,32.689,24.152,33.012,23.072z M17.586,18.001c1.555,0.737,2.916,1.353,4.707,0.83
			c0.213-0.85,0.434-1.733,0.612-2.446c-0.942-1.254-2.002-1.697-3.212-1.979c-1.121-0.261-2.201-0.701-3.468-1.118
			C16.125,15.119,17.099,16.427,17.586,18.001z M54.61,74.777c-1.774-1.141-3.535-1.467-5.386-1.404
			c-0.503,0.016-1.179-0.15-1.317,0.799c1.001,0.918,2.031,1.902,3.108,2.834c0.794,0.684,1.679,0.887,2.694,0.152
			C53.962,76.49,54.24,75.756,54.61,74.777z"/>
		<path fill-rule="evenodd" clip-rule="evenodd" fill="#FFFFFF" d="M44.373,36.201c1.01-1.092,1.453-2.745,3.019-3.481
			c1.6,0.741,3.168,1.468,5.045,2.338c-0.145-0.133-0.036-0.015,0.09,0.081c3.098,2.368,4.494,5.92,6.203,9.202
			c1.13,2.168,1.794,4.617,1.851,7.105c0.025,1.162-0.35,2.354-0.682,3.49c-0.136,0.463-0.64,0.82-0.942,1.186
			c-1.796-0.605-2.977-1.686-4.209-2.863c-2.069-1.975-4.045-4.033-6.041-6.076c-0.774-0.793-1.538-1.51-1.912-2.664
			c-0.304-0.939-1.118-1.713-1.795-2.688C44.806,40.094,44.596,38.204,44.373,36.201z"/>
		<path fill-rule="evenodd" clip-rule="evenodd" d="M33.012,23.072c-0.322,1.08-0.55,1.841-0.8,2.679
			c0.255,0.69,0.529,1.431,0.879,2.378c-0.497,0.509-1.028,1.052-1.483,1.518c-1.508-0.113-2.654-0.469-3.677-1.386
			c-0.929-0.834-2.146-0.948-3.279-0.579c-0.61-0.623-0.471-1.119,0.016-1.537c1.981-1.701,4.067-3.246,6.627-4.358
			C31.836,22.192,32.385,22.602,33.012,23.072z"/>
		<path fill-rule="evenodd" clip-rule="evenodd" d="M17.586,18.001c-0.487-1.574-1.461-2.883-1.36-4.713
			c1.267,0.417,2.347,0.857,3.468,1.118c1.21,0.281,2.27,0.725,3.212,1.979c-0.179,0.713-0.399,1.597-0.612,2.446
			C20.502,19.354,19.141,18.739,17.586,18.001z"/>
	</g>
	<path fill-rule="evenodd" clip-rule="evenodd" d="M54.61,74.777c-0.37,0.979-0.648,1.713-0.9,2.381
		c-1.016,0.734-1.9,0.531-2.694-0.152c-1.077-0.932-2.107-1.916-3.108-2.834c0.139-0.949,0.814-0.783,1.317-0.799
		C51.075,73.311,52.836,73.637,54.61,74.777z"/>
</g>
</svg>
