<?xml version="1.0" encoding="UTF-8" standalone="no"?>
<!-- Generator: Adobe Illustrator 19.0.0, SVG Export Plug-In . SVG Version: 6.00 Build 0)  -->

<svg
   xmlns:dc="http://purl.org/dc/elements/1.1/"
   xmlns:cc="http://creativecommons.org/ns#"
   xmlns:rdf="http://www.w3.org/1999/02/22-rdf-syntax-ns#"
   xmlns:svg="http://www.w3.org/2000/svg"
   xmlns="http://www.w3.org/2000/svg"
   xmlns:sodipodi="http://sodipodi.sourceforge.net/DTD/sodipodi-0.dtd"
   xmlns:inkscape="http://www.inkscape.org/namespaces/inkscape"
   version="1.1"
   id="Camada_1"
   x="0px"
   y="0px"
   viewBox="-415 244.1 128.6 72.9"
   style="enable-background:new -415 244.1 128.6 72.9;"
   xml:space="preserve"
   inkscape:version="0.91 r13725"
   sodipodi:docname="mensagens.svg"><metadata
     id="metadata18"><rdf:RDF><cc:Work
         rdf:about=""><dc:format>image/svg+xml</dc:format><dc:type
           rdf:resource="http://purl.org/dc/dcmitype/StillImage" /></cc:Work></rdf:RDF></metadata><defs
     id="defs16" /><sodipodi:namedview
     pagecolor="#ffffff"
     bordercolor="#666666"
     borderopacity="1"
     objecttolerance="10"
     gridtolerance="10"
     guidetolerance="10"
     inkscape:pageopacity="0"
     inkscape:pageshadow="2"
     inkscape:window-width="1438"
     inkscape:window-height="805"
     id="namedview14"
     showgrid="false"
     inkscape:zoom="1.7515551"
     inkscape:cx="64.300003"
     inkscape:cy="36.450001"
     inkscape:window-x="0"
     inkscape:window-y="0"
     inkscape:window-maximized="0"
     inkscape:current-layer="Camada_1" /><style
     type="text/css"
     id="style3">
	.st0{fill:none;}
	.st1{fill:#C5D9A7;}
</style><g
     id="XMLID_293_"
     transform="matrix(1.5,0,0,1.5,174.7,-140.9)"><polygon
       id="XMLID_294_"
       class="st0"
       points="-364.7,269.9 -349.3,284.6 -333.7,269.9 "
       style="fill:none" /><path
       id="XMLID_298_"
       class="st0"
       d="m -336.7,274.2 -1.8,2.1 c -0.6,0.7 -1.2,1.4 -1.8,2.1 -1,1.2 -2.1,2.3 -3.2,3.4 0.2,0.3 0.5,0.5 0.7,0.8 1.1,1.2 2.5,2.9 3.9,4.6 1.4,1.7 2.8,3.4 3.8,4.6 0.7,0.9 1.2,1.6 1.5,1.9 l 0,-23.7 c -0.5,0.7 -0.9,1.3 -1.4,1.9 -0.5,0.9 -1.1,1.6 -1.7,2.3 z"
       inkscape:connector-curvature="0"
       style="fill:none" /><path
       id="XMLID_299_"
       class="st0"
       d="m -359.9,287.1 c 1.4,-1.7 2.7,-3.4 3.8,-4.7 0.3,-0.3 0.5,-0.6 0.7,-0.9 -1,-1 -2,-2.1 -2.9,-3.1 -0.6,-0.7 -1.2,-1.4 -1.8,-2.1 l -1.8,-2.1 c -0.6,-0.7 -1.2,-1.4 -1.7,-2.2 -0.5,-0.6 -0.9,-1.2 -1.3,-1.9 l 0,23.5 c 0.3,-0.4 0.8,-1 1.4,-1.8 1,-1.3 2.3,-3 3.6,-4.7 z"
       inkscape:connector-curvature="0"
       style="fill:none" /><path
       id="XMLID_301_"
       class="st0"
       d="m -336,292.7 c -0.4,-0.2 -0.7,-0.5 -1.1,-0.8 -0.4,-0.3 -0.8,-0.6 -1.1,-1 -0.4,-0.4 -0.8,-0.7 -1.1,-1.1 -0.4,-0.4 -0.7,-0.8 -1.1,-1.2 -0.3,-0.4 -0.7,-0.9 -1,-1.3 -0.3,-0.4 -0.6,-0.9 -0.9,-1.3 -0.3,-0.4 -0.5,-0.9 -0.8,-1.3 -0.2,-0.4 -0.4,-0.8 -0.6,-1.2 -0.2,-0.3 -0.3,-0.7 -0.4,-1 -0.6,0.6 -1.2,1.2 -1.8,1.8 l -2,1.9 -1.3,1.3 -1.3,-1.3 -2,-1.9 c -0.6,-0.6 -1.3,-1.3 -1.9,-1.9 -0.1,-0.1 -0.1,-0.1 -0.2,-0.2 -0.1,0.3 -0.2,0.6 -0.4,1 -0.2,0.4 -0.3,0.8 -0.6,1.2 -0.2,0.4 -0.4,0.9 -0.7,1.3 -0.3,0.4 -0.5,0.9 -0.9,1.3 -0.3,0.4 -0.6,0.9 -1,1.3 -0.4,0.4 -0.7,0.8 -1.1,1.2 -0.3,0.4 -0.7,0.8 -1.1,1.1 -0.4,0.4 -0.7,0.7 -1.1,1 -0.4,0.3 -0.7,0.6 -1.1,0.8 -0.7,0.5 -1.3,0.9 -1.8,1.1 -0.1,0 -0.2,0.1 -0.3,0.1 l 30.6,0.1 c -0.1,0 -0.2,-0.1 -0.3,-0.2 -0.3,0.1 -1,-0.3 -1.6,-0.8 z"
       inkscape:connector-curvature="0"
       style="fill:none" /><path
       id="XMLID_304_"
       class="st1"
       d="m -333.4,268.3 -7.9,-0.3 -7.9,-0.1 c -2.6,-0.1 -5.3,-0.1 -7.9,-0.1 l -7.9,0 -1.9,0 0,1.9 0.1,12.2 0.2,12.2 0,1.7 1.6,-0.1 15.9,-0.6 c 2.6,-0.1 5.3,-0.3 7.9,-0.4 2.6,-0.1 5.3,-0.3 7.9,-0.5 l 0.1,0 0.2,-3.1 c 0.1,-1 0.1,-2 0.2,-3 l 0.4,-6.1 c 0.1,-2 0.2,-4.1 0.3,-6.1 l 0.2,-6.1 0,-1.3 -1.5,-0.2 z m -0.1,25.8 c 0,0 -0.2,-0.1 -0.4,-0.2 l -30.6,-0.1 c -0.3,0.2 -0.5,0.2 -0.5,0.2 l -0.2,-0.1 c 0,0 0.1,-0.1 0.3,-0.3 l 0,-23.5 c -0.1,-0.1 -0.2,-0.3 -0.3,-0.4 l 0.1,-0.2 0.3,0.3 31,-0.1 0.2,-0.2 0.1,0.2 c -0.1,0.1 -0.2,0.2 -0.2,0.3 l 0,23.7 c 0.1,0.1 0.2,0.2 0.2,0.2 l 0,0.2 z"
       inkscape:connector-curvature="0"
       style="fill:#c5d9a7" /><path
       id="XMLID_305_"
       class="st1"
       d="m -361.9,274.2 1.8,2.1 c 0.6,0.7 1.2,1.4 1.8,2.1 0.9,1.1 1.9,2.1 2.9,3.1 0.6,-0.8 1,-1.2 1,-1.2 l 0.2,0.1 c 0,0 0,0.3 -0.2,0.8 -0.1,0.3 -0.2,0.6 -0.3,1 0.1,0.1 0.1,0.1 0.2,0.2 0.6,0.7 1.3,1.3 1.9,1.9 l 2,1.9 1.3,1.3 1.3,-1.3 2,-1.9 c 0.6,-0.6 1.2,-1.2 1.8,-1.8 -0.1,-0.4 -0.2,-0.7 -0.3,-1 -0.1,-0.5 -0.2,-0.8 -0.2,-0.8 l 0.2,-0.1 c 0,0 0.4,0.5 1.1,1.2 1.1,-1.1 2.2,-2.2 3.2,-3.4 0.6,-0.7 1.2,-1.4 1.8,-2.1 l 1.8,-2.1 c 0.6,-0.7 1.2,-1.4 1.7,-2.2 0.5,-0.6 0.9,-1.3 1.4,-1.9 0.1,-0.1 0.2,-0.2 0.2,-0.3 l -0.1,-0.2 -0.2,0.2 -15.5,14.7 -15.5,-14.7 -0.3,-0.3 -0.1,0.2 c 0.1,0.1 0.2,0.3 0.3,0.4 0.4,0.6 0.9,1.3 1.3,1.9 0.4,0.8 1,1.5 1.5,2.2 z"
       inkscape:connector-curvature="0"
       style="fill:#c5d9a7" /><path
       id="XMLID_306_"
       class="st1"
       d="m -335,291.9 c -1,-1.3 -2.4,-2.9 -3.8,-4.6 -1.4,-1.7 -2.8,-3.3 -3.9,-4.6 -0.3,-0.3 -0.5,-0.6 -0.7,-0.8 -0.7,-0.7 -1.1,-1.2 -1.1,-1.2 l -0.2,0.1 c 0,0 0.1,0.3 0.2,0.8 0.1,0.3 0.2,0.6 0.3,1 0.1,0.3 0.3,0.6 0.4,1 0.2,0.4 0.4,0.8 0.6,1.2 0.2,0.4 0.5,0.9 0.8,1.3 0.3,0.4 0.6,0.9 0.9,1.3 0.3,0.4 0.7,0.9 1,1.3 0.4,0.4 0.7,0.8 1.1,1.2 0.3,0.4 0.8,0.7 1.1,1.1 0.4,0.4 0.8,0.7 1.1,1 0.4,0.3 0.7,0.6 1.1,0.8 0.7,0.5 1.3,0.8 1.8,1.1 0.1,0.1 0.2,0.1 0.3,0.2 0.3,0.1 0.4,0.2 0.4,0.2 l 0.2,-0.1 c 0,0 -0.1,-0.1 -0.2,-0.2 -0.2,-0.6 -0.7,-1.2 -1.4,-2.1 z"
       inkscape:connector-curvature="0"
       style="fill:#c5d9a7" /><path
       id="XMLID_307_"
       class="st1"
       d="m -362.5,292.6 c 0.3,-0.3 0.7,-0.5 1.1,-0.8 0.4,-0.3 0.8,-0.6 1.1,-1 0.4,-0.4 0.8,-0.7 1.1,-1.1 0.4,-0.4 0.7,-0.8 1.1,-1.2 0.3,-0.4 0.6,-0.9 1,-1.3 0.3,-0.4 0.6,-0.9 0.9,-1.3 0.3,-0.4 0.5,-0.9 0.7,-1.3 0.2,-0.4 0.4,-0.8 0.6,-1.2 0.2,-0.4 0.3,-0.7 0.4,-1 0.1,-0.4 0.2,-0.7 0.3,-1 0.1,-0.5 0.2,-0.8 0.2,-0.8 l -0.2,-0.1 c 0,0 -0.4,0.5 -1,1.2 -0.2,0.3 -0.5,0.6 -0.7,0.9 -1,1.3 -2.4,3 -3.8,4.7 -1.3,1.7 -2.7,3.4 -3.7,4.7 -0.6,0.8 -1.1,1.5 -1.4,1.8 -0.2,0.2 -0.3,0.3 -0.3,0.3 l 0.2,0.1 c 0,0 0.2,-0.1 0.5,-0.2 0.1,0 0.2,-0.1 0.3,-0.1 0.3,-0.4 0.9,-0.7 1.6,-1.3 z"
       inkscape:connector-curvature="0"
       style="fill:#c5d9a7" /></g></svg>