<?xml version="1.0" encoding="utf-8"?>
<!-- Generator: Adobe Illustrator 19.0.0, SVG Export Plug-In . SVG Version: 6.00 Build 0)  -->
<svg version="1.1" id="Camada_1" xmlns="http://www.w3.org/2000/svg" xmlns:xlink="http://www.w3.org/1999/xlink" x="0px" y="0px"
	 viewBox="-415 244.1 128.6 72.9" style="enable-background:new -415 244.1 128.6 72.9;" xml:space="preserve">
<style type="text/css">
	.st0{fill:none;}
	.st1{fill:#C5D9A7;}
</style>
<g id="XMLID_293_">
	<polygon id="XMLID_294_" class="st0" points="-333.7,269.9 -364.7,269.9 -349.3,284.6 	"/>
	<path id="XMLID_298_" class="st0" d="M-336.7,274.2l-1.8,2.1c-0.6,0.7-1.2,1.4-1.8,2.1c-1,1.2-2.1,2.3-3.2,3.4
		c0.2,0.3,0.5,0.5,0.7,0.8c1.1,1.2,2.5,2.9,3.9,4.6c1.4,1.7,2.8,3.4,3.8,4.6c0.7,0.9,1.2,1.6,1.5,1.9l0-23.7
		c-0.5,0.7-0.9,1.3-1.4,1.9C-335.5,272.8-336.1,273.5-336.7,274.2z"/>
	<path id="XMLID_299_" class="st0" d="M-359.9,287.1c1.4-1.7,2.7-3.4,3.8-4.7c0.3-0.3,0.5-0.6,0.7-0.9c-1-1-2-2.1-2.9-3.1
		c-0.6-0.7-1.2-1.4-1.8-2.1l-1.8-2.1c-0.6-0.7-1.2-1.4-1.7-2.2c-0.5-0.6-0.9-1.2-1.3-1.9l0,23.5c0.3-0.4,0.8-1,1.4-1.8
		C-362.5,290.5-361.2,288.8-359.9,287.1z"/>
	<path id="XMLID_301_" class="st0" d="M-336,292.7c-0.4-0.2-0.7-0.5-1.1-0.8c-0.4-0.3-0.8-0.6-1.1-1c-0.4-0.4-0.8-0.7-1.1-1.1
		c-0.4-0.4-0.7-0.8-1.1-1.2c-0.3-0.4-0.7-0.9-1-1.3c-0.3-0.4-0.6-0.9-0.9-1.3c-0.3-0.4-0.5-0.9-0.8-1.3c-0.2-0.4-0.4-0.8-0.6-1.2
		c-0.2-0.3-0.3-0.7-0.4-1c-0.6,0.6-1.2,1.2-1.8,1.8l-2,1.9l-1.3,1.3l-1.3-1.3l-2-1.9c-0.6-0.6-1.3-1.3-1.9-1.9
		c-0.1-0.1-0.1-0.1-0.2-0.2c-0.1,0.3-0.2,0.6-0.4,1c-0.2,0.4-0.3,0.8-0.6,1.2c-0.2,0.4-0.4,0.9-0.7,1.3c-0.3,0.4-0.5,0.9-0.9,1.3
		c-0.3,0.4-0.6,0.9-1,1.3c-0.4,0.4-0.7,0.8-1.1,1.2c-0.3,0.4-0.7,0.8-1.1,1.1c-0.4,0.4-0.7,0.7-1.1,1c-0.4,0.3-0.7,0.6-1.1,0.8
		c-0.7,0.5-1.3,0.9-1.8,1.1c-0.1,0-0.2,0.1-0.3,0.1l30.6,0.1c-0.1,0-0.2-0.1-0.3-0.2C-334.7,293.6-335.4,293.2-336,292.7z"/>
	<path id="XMLID_304_" class="st1" d="M-333.4,268.3l-7.9-0.3l-7.9-0.1c-2.6-0.1-5.3-0.1-7.9-0.1l-7.9,0l-1.9,0l0,1.9l0.1,12.2
		l0.2,12.2l0,1.7l1.6-0.1l15.9-0.6c2.6-0.1,5.3-0.3,7.9-0.4c2.6-0.1,5.3-0.3,7.9-0.5l0.1,0l0.2-3.1c0.1-1,0.1-2,0.2-3l0.4-6.1
		c0.1-2,0.2-4.1,0.3-6.1l0.2-6.1l0-1.3L-333.4,268.3z M-333.5,294.1c0,0-0.2-0.1-0.4-0.2l-30.6-0.1c-0.3,0.2-0.5,0.2-0.5,0.2
		l-0.2-0.1c0,0,0.1-0.1,0.3-0.3l0-23.5c-0.1-0.1-0.2-0.3-0.3-0.4l0.1-0.2l0.3,0.3l31-0.1l0.2-0.2l0.1,0.2c-0.1,0.1-0.2,0.2-0.2,0.3
		l0,23.7c0.1,0.1,0.2,0.2,0.2,0.2L-333.5,294.1z"/>
	<path id="XMLID_305_" class="st1" d="M-361.9,274.2l1.8,2.1c0.6,0.7,1.2,1.4,1.8,2.1c0.9,1.1,1.9,2.1,2.9,3.1c0.6-0.8,1-1.2,1-1.2
		l0.2,0.1c0,0,0,0.3-0.2,0.8c-0.1,0.3-0.2,0.6-0.3,1c0.1,0.1,0.1,0.1,0.2,0.2c0.6,0.7,1.3,1.3,1.9,1.9l2,1.9l1.3,1.3l1.3-1.3l2-1.9
		c0.6-0.6,1.2-1.2,1.8-1.8c-0.1-0.4-0.2-0.7-0.3-1c-0.1-0.5-0.2-0.8-0.2-0.8l0.2-0.1c0,0,0.4,0.5,1.1,1.2c1.1-1.1,2.2-2.2,3.2-3.4
		c0.6-0.7,1.2-1.4,1.8-2.1l1.8-2.1c0.6-0.7,1.2-1.4,1.7-2.2c0.5-0.6,0.9-1.3,1.4-1.9c0.1-0.1,0.2-0.2,0.2-0.3l-0.1-0.2l-0.2,0.2
		l-15.5,14.7l-15.5-14.7l-0.3-0.3l-0.1,0.2c0.1,0.1,0.2,0.3,0.3,0.4c0.4,0.6,0.9,1.3,1.3,1.9C-363,272.8-362.4,273.5-361.9,274.2z"
		/>
	<path id="XMLID_306_" class="st1" d="M-335,291.9c-1-1.3-2.4-2.9-3.8-4.6c-1.4-1.7-2.8-3.3-3.9-4.6c-0.3-0.3-0.5-0.6-0.7-0.8
		c-0.7-0.7-1.1-1.2-1.1-1.2l-0.2,0.1c0,0,0.1,0.3,0.2,0.8c0.1,0.3,0.2,0.6,0.3,1c0.1,0.3,0.3,0.6,0.4,1c0.2,0.4,0.4,0.8,0.6,1.2
		c0.2,0.4,0.5,0.9,0.8,1.3c0.3,0.4,0.6,0.9,0.9,1.3c0.3,0.4,0.7,0.9,1,1.3c0.4,0.4,0.7,0.8,1.1,1.2c0.3,0.4,0.8,0.7,1.1,1.1
		c0.4,0.4,0.8,0.7,1.1,1c0.4,0.3,0.7,0.6,1.1,0.8c0.7,0.5,1.3,0.8,1.8,1.1c0.1,0.1,0.2,0.1,0.3,0.2c0.3,0.1,0.4,0.2,0.4,0.2l0.2-0.1
		c0,0-0.1-0.1-0.2-0.2C-333.8,293.4-334.3,292.8-335,291.9z"/>
	<path id="XMLID_307_" class="st1" d="M-362.5,292.6c0.3-0.3,0.7-0.5,1.1-0.8c0.4-0.3,0.8-0.6,1.1-1c0.4-0.4,0.8-0.7,1.1-1.1
		c0.4-0.4,0.7-0.8,1.1-1.2c0.3-0.4,0.6-0.9,1-1.3c0.3-0.4,0.6-0.9,0.9-1.3c0.3-0.4,0.5-0.9,0.7-1.3c0.2-0.4,0.4-0.8,0.6-1.2
		c0.2-0.4,0.3-0.7,0.4-1c0.1-0.4,0.2-0.7,0.3-1c0.1-0.5,0.2-0.8,0.2-0.8l-0.2-0.1c0,0-0.4,0.5-1,1.2c-0.2,0.3-0.5,0.6-0.7,0.9
		c-1,1.3-2.4,3-3.8,4.7c-1.3,1.7-2.7,3.4-3.7,4.7c-0.6,0.8-1.1,1.5-1.4,1.8c-0.2,0.2-0.3,0.3-0.3,0.3l0.2,0.1c0,0,0.2-0.1,0.5-0.2
		c0.1,0,0.2-0.1,0.3-0.1C-363.8,293.5-363.2,293.2-362.5,292.6z"/>
</g>
</svg>
