<?xml version="1.0" encoding="utf-8"?>
<!-- Generator: Adobe Illustrator 19.0.0, SVG Export Plug-In . SVG Version: 6.00 Build 0)  -->
<svg version="1.1"
	 id="Camada_1" xmlns:dc="http://purl.org/dc/elements/1.1/" xmlns:svg="http://www.w3.org/2000/svg" xmlns:sodipodi="http://sodipodi.sourceforge.net/DTD/sodipodi-0.dtd" xmlns:inkscape="http://www.inkscape.org/namespaces/inkscape" xmlns:cc="http://creativecommons.org/ns#" xmlns:rdf="http://www.w3.org/1999/02/22-rdf-syntax-ns#" inkscape:version="0.91 r13725" sodipodi:docname="mensagens.svg"
	 xmlns="http://www.w3.org/2000/svg" xmlns:xlink="http://www.w3.org/1999/xlink" x="0px" y="0px" viewBox="15 -21.9 128.6 72.9"
	 style="enable-background:new 15 -21.9 128.6 72.9;" xml:space="preserve">
<style type="text/css">
	.st0{fill:#B9CE90;}
</style>
<sodipodi:namedview  id="namedview14" inkscape:cx="64.300003" pagecolor="#ffffff" borderopacity="1" bordercolor="#666666" guidetolerance="10" objecttolerance="10" inkscape:cy="36.450001" gridtolerance="10" showgrid="false" inkscape:zoom="1.7515551" inkscape:current-layer="Camada_1" inkscape:window-width="1438" inkscape:window-y="0" inkscape:pageopacity="0" inkscape:window-maximized="0" inkscape:window-height="805" inkscape:pageshadow="2" inkscape:window-x="0">
	</sodipodi:namedview>
<g id="XMLID_293_" transform="matrix(1.5,0,0,1.5,174.7,-140.9)">
	<g>
		<path id="XMLID_36_" inkscape:connector-curvature="0" class="st0" d="M-47.6,90.1l-7.9-0.3l-7.9-0.1c-2.6-0.1-5.3-0.1-7.9-0.1
			h-7.9h-1.9v1.9l0.1,12.2l0.2,12.2v1.7l1.6-0.1l15.9-0.6c2.6-0.1,5.3-0.3,7.9-0.4s5.3-0.3,7.9-0.5h0.1l0.2-3.1c0.1-1,0.1-2,0.2-3
			l0.4-6.1c0.1-2,0.2-4.1,0.3-6.1l0.2-6.1v-1.3L-47.6,90.1L-47.6,90.1z M-47.7,115.9c0,0-0.2-0.1-0.4-0.2l-30.6-0.1
			c-0.3,0.2-0.5,0.2-0.5,0.2l-0.2-0.1c0,0,0.1-0.1,0.3-0.3V91.9c-0.1-0.1-0.2-0.3-0.3-0.4l0.1-0.2l0.3,0.3l31-0.1l0.2-0.2l0.1,0.2
			c-0.1,0.1-0.2,0.2-0.2,0.3v23.7c0.1,0.1,0.2,0.2,0.2,0.2V115.9z"/>
		<path id="XMLID_35_" inkscape:connector-curvature="0" class="st0" d="M-76.1,96l1.8,2.1c0.6,0.7,1.2,1.4,1.8,2.1
			c0.9,1.1,1.9,2.1,2.9,3.1c0.6-0.8,1-1.2,1-1.2l0.2,0.1c0,0,0,0.3-0.2,0.8c-0.1,0.3-0.2,0.6-0.3,1c0.1,0.1,0.1,0.1,0.2,0.2
			c0.6,0.7,1.3,1.3,1.9,1.9l2,1.9l1.3,1.3l1.3-1.3l2-1.9c0.6-0.6,1.2-1.2,1.8-1.8c-0.1-0.4-0.2-0.7-0.3-1c-0.1-0.5-0.2-0.8-0.2-0.8
			l0.2-0.1c0,0,0.4,0.5,1.1,1.2c1.1-1.1,2.2-2.2,3.2-3.4c0.6-0.7,1.2-1.4,1.8-2.1l1.8-2.1c0.6-0.7,1.2-1.4,1.7-2.2
			c0.5-0.6,0.9-1.3,1.4-1.9c0.1-0.1,0.2-0.2,0.2-0.3l-0.1-0.2l-0.2,0.2l-15.5,14.7l-15.5-14.7l-0.3-0.3l-0.1,0.2
			c0.1,0.1,0.2,0.3,0.3,0.4c0.4,0.6,0.9,1.3,1.3,1.9C-77.2,94.6-76.6,95.3-76.1,96L-76.1,96z"/>
		<path id="XMLID_34_" inkscape:connector-curvature="0" class="st0" d="M-49.2,113.7c-1-1.3-2.4-2.9-3.8-4.6s-2.8-3.3-3.9-4.6
			c-0.3-0.3-0.5-0.6-0.7-0.8c-0.7-0.7-1.1-1.2-1.1-1.2l-0.2,0.1c0,0,0.1,0.3,0.2,0.8c0.1,0.3,0.2,0.6,0.3,1c0.1,0.3,0.3,0.6,0.4,1
			c0.2,0.4,0.4,0.8,0.6,1.2c0.2,0.4,0.5,0.9,0.8,1.3s0.6,0.9,0.9,1.3s0.7,0.9,1,1.3c0.4,0.4,0.7,0.8,1.1,1.2
			c0.3,0.4,0.8,0.7,1.1,1.1c0.4,0.4,0.8,0.7,1.1,1c0.4,0.3,0.7,0.6,1.1,0.8c0.7,0.5,1.3,0.8,1.8,1.1c0.1,0.1,0.2,0.1,0.3,0.2
			c0.3,0.1,0.4,0.2,0.4,0.2l0.2-0.1c0,0-0.1-0.1-0.2-0.2C-48,115.2-48.5,114.6-49.2,113.7L-49.2,113.7z"/>
		<path id="XMLID_33_" inkscape:connector-curvature="0" class="st0" d="M-76.7,114.4c0.3-0.3,0.7-0.5,1.1-0.8s0.8-0.6,1.1-1
			c0.4-0.4,0.8-0.7,1.1-1.1c0.4-0.4,0.7-0.8,1.1-1.2c0.3-0.4,0.6-0.9,1-1.3c0.3-0.4,0.6-0.9,0.9-1.3s0.5-0.9,0.7-1.3
			s0.4-0.8,0.6-1.2c0.2-0.4,0.3-0.7,0.4-1c0.1-0.4,0.2-0.7,0.3-1c0.1-0.5,0.2-0.8,0.2-0.8l-0.2-0.1c0,0-0.4,0.5-1,1.2
			c-0.2,0.3-0.5,0.6-0.7,0.9c-1,1.3-2.4,3-3.8,4.7c-1.3,1.7-2.7,3.4-3.7,4.7c-0.6,0.8-1.1,1.5-1.4,1.8c-0.2,0.2-0.3,0.3-0.3,0.3
			l0.2,0.1c0,0,0.2-0.1,0.5-0.2c0.1,0,0.2-0.1,0.3-0.1C-78,115.3-77.4,115-76.7,114.4L-76.7,114.4z"/>
	</g>
</g>
</svg>
