<?xml version="1.0" encoding="utf-8"?>
<!-- Generator: Adobe Illustrator 19.0.0, SVG Export Plug-In . SVG Version: 6.00 Build 0)  -->
<svg version="1.1"
	 id="Camada_1" xmlns:dc="http://purl.org/dc/elements/1.1/" xmlns:svg="http://www.w3.org/2000/svg" xmlns:sodipodi="http://sodipodi.sourceforge.net/DTD/sodipodi-0.dtd" xmlns:inkscape="http://www.inkscape.org/namespaces/inkscape" xmlns:cc="http://creativecommons.org/ns#" xmlns:rdf="http://www.w3.org/1999/02/22-rdf-syntax-ns#" inkscape:version="0.91 r13725" sodipodi:docname="minhassementes.svg"
	 xmlns="http://www.w3.org/2000/svg" xmlns:xlink="http://www.w3.org/1999/xlink" x="0px" y="0px" viewBox="15 -21.9 128.6 72.9"
	 style="enable-background:new 15 -21.9 128.6 72.9;" xml:space="preserve">
<style type="text/css">
	.st0{fill:#B9CE90;}
</style>
<sodipodi:namedview  id="namedview9" inkscape:cx="64.300003" pagecolor="#ffffff" borderopacity="1" bordercolor="#666666" guidetolerance="10" objecttolerance="10" inkscape:cy="36.450001" gridtolerance="10" showgrid="false" inkscape:zoom="1.9828926" inkscape:current-layer="Camada_1" inkscape:window-width="1210" inkscape:window-y="0" inkscape:pageopacity="0" inkscape:window-maximized="0" inkscape:window-height="691" inkscape:pageshadow="2" inkscape:window-x="0">
	</sodipodi:namedview>
<g id="XMLID_8827_" transform="matrix(1.5,0,0,1.5,174.67777,-140.69507)">
	<g>
		<g id="g6_8_">
			<path id="XMLID_9_" inkscape:connector-curvature="0" class="st0" d="M-52.2,103.6c-0.9-2.3-1.7-4.6-3.1-6.6
				c-1.2-1.7-2.9-3.6-5-4c-1.1-0.2-2.1-0.5-3-1c-0.5-0.2-0.9-0.5-1.3-0.8c-0.4-0.4-0.6-1-0.9-1.5c-0.5-0.9-1.4-1.8-2.3-2.3
				c-0.9-0.4-2-0.3-2.9,0c-0.6,0.6-1.2,1-1.4,1.9c-0.2,0.9-0.1,2-0.1,3c-0.6,1-1.2,2-1.8,2.9c-0.6,0.9-1.1,1.7-1.4,2.6
				c-0.4,1-0.5,1.8-0.4,2.9c0.2,0.9,0.8,7.6,1,8.3c0.2,0.6,0.3,1,0.6,1.6c0.2,0.5,0.3,1.2,0.5,1.7c0.3,0.6,0.5,1.2,0.8,1.8
				c0.5,1.2,1,2.2,1.9,3.1c0.8,0.8,1.7,1.3,2.7,1.8s2.2,0.7,3.3,0.8c2.4,0.2,4.9-0.3,7.2-1.1c1.2-0.4,2.3-1.1,3.3-1.9
				c1-0.7,1.7-1.6,2.4-2.5c0.1-0.4,0.1-0.8,0.2-1.2c0.1-0.4,0.3-0.8,0.4-1.3c0-0.2,0.1-0.4,0.1-0.6s-0.1-0.4,0-0.6
				c0.2-0.5,0.1-1,0.1-1.5s0-1-0.1-1.5s-0.3-1.1-0.4-1.6c0-0.5-0.1-0.9-0.2-1.4S-52.1,104.1-52.2,103.6L-52.2,103.6z M-53.1,110.4
				c-0.3,1.3-0.4,1.9-0.6,1.9s-0.2-0.5-0.4-0.8c-0.1-0.4-0.8-2.7-1-3.6s-0.5-2.4-0.6-3.2c-0.4-1.3-0.9-2.3-1.4-3.5
				c-0.3-0.6-0.5-1.4-0.9-2s-0.9-1.2-1.4-1.8c-0.8-1.1-2-1.5-3.2-2.1s-2.4-1.4-3.7-1.7c0.4,0.8,1.2,1.2,1.9,1.6
				c1,0.6,1.9,1.3,2.8,1.9c0.7,1.2,1.2,2.6,1.4,4c0.1,0.4,0.2,1.8,0.4,2.1c0.3,0.7,1.3,2.4,1.3,2.4s1.8,4.9,2.6,6.3
				c0.8,1.4,0.4,2.5,0.1,2.7s-1,0.8-1.3,0.8c-0.2-0.1-0.6-2.1-1.1-3.7s-1.3-4.8-1.5-5.8c-1-2.5-1.8-5.1-3.4-7.3
				c-0.7-1-1.6-1.8-2.5-2.6c-0.9-0.8-1.7-1.8-2.8-2.3c0,1.2,0.9,1.9,1.7,2.7c0.8,0.9,1.3,2,1.9,3c0.7,1.2,0.6,2.4,0.9,3.7
				c0.3,1.4,0.6,2.7,0.9,4c0.3,0.5,1.7,4,2.2,5.1c0.4,1,1.3,4.4,0.9,4.5s-1.2,0.5-1.6,0.3c-0.4-0.1-0.8-1.6-1.4-2.8
				c-0.6-1.2-1.5-5.5-1.7-6.7c-0.3-1.1-0.6-2.3-1-3.3c-0.5-1.2-1.1-2.2-1.6-3.4c-0.5-1.1-0.9-2.3-1.3-3.5c-0.3-1.1-0.6-2.4-1.4-3.2
				c-0.6,1-0.3,2,0,3.1c0.3,1.3,0.9,2.4,1.2,3.6c0.1,0.6,0.1,1.1,0.3,1.7c0.2,0.7,0.4,1.4,0.6,2.1c0.3,1.2,0.7,2.5,1,3.7
				c0.2,0.4,0.9,3.1,1.2,4c0.3,0.9,2,5.6,1.5,5.7c-0.5,0.1-1.5,0-1.8-0.3s-0.6-1.3-0.6-1.9c0-0.5-0.8-2.2-1-2.9
				c-0.2-0.7-1.1-2.8-1.2-3.9c-0.4-1.3-0.7-2.6-1.2-3.8c-0.5-1.3-1.3-2.5-1.8-3.8c-0.4-1.1-0.5-2.4-0.1-3.5c0.2-0.6,0.4-1.3,0.5-1.9
				c0.2-0.6,0.4-1.3,0.2-1.9c-0.8,1-1.3,2.3-1.5,3.5c-0.1,0.6-0.1,1.2-0.3,1.8c-0.2,0.6-0.4,1.1-0.3,1.8c0.1,0.6,0.3,1.3,0.4,1.9
				c0.2,0.8,0.3,1.5,0.6,2.2c0.5,1.5,0.8,3.1,1.3,4.6c0,0.2,0.6,2.1,0.5,2.1c0.1,1.2,0.4,1.6,0.6,2.7c-0.1,0.1,0.2,1.9,0.1,2.1
				c0.1,0.4-0.5-0.2-1-0.5c-0.5-0.2-0.7-1-1-1.1l-1.5-4.4c-0.3-0.7-0.5-1.5-0.7-2.2c-0.5-1.8,0.2,0.7,0,0c-0.6-2-0.9-3.9-1-6
				c0-0.9,0-1.8,0.2-2.7c0.2-1,0.7-1.8,1.2-2.7c0.5-0.8,1.1-1.5,1.5-2.3s0.7-1.6,0.8-2.5c0.1-0.9,0.1-1.8,0.3-2.6
				c0.2-0.7,0.5-1.1,1.2-1.4c0.4,0.1,0.7,0.1,1,0.2c1.2,0.8,1.5,2.2,2.5,3.4c1.3,0.8,2.6,1.6,4.1,2c0.7,0.2,1.4,0.2,2.1,0.5
				s1.3,0.7,1.8,1.2c2.5,2.2,3.9,5.3,5,8.3C-52.8,104.9-52.8,109.1-53.1,110.4L-53.1,110.4z"/>
		</g>
	</g>
</g>
</svg>
