<?xml version="1.0" encoding="UTF-8" standalone="no"?>
<!-- Generator: Adobe Illustrator 19.0.0, SVG Export Plug-In . SVG Version: 6.00 Build 0)  -->

<svg
   xmlns:dc="http://purl.org/dc/elements/1.1/"
   xmlns:cc="http://creativecommons.org/ns#"
   xmlns:rdf="http://www.w3.org/1999/02/22-rdf-syntax-ns#"
   xmlns:svg="http://www.w3.org/2000/svg"
   xmlns="http://www.w3.org/2000/svg"
   xmlns:sodipodi="http://sodipodi.sourceforge.net/DTD/sodipodi-0.dtd"
   xmlns:inkscape="http://www.inkscape.org/namespaces/inkscape"
   version="1.1"
   id="Camada_1"
   x="0px"
   y="0px"
   viewBox="-415 244.1 128.6 72.9"
   style="enable-background:new -415 244.1 128.6 72.9;"
   xml:space="preserve"
   inkscape:version="0.91 r13725"
   sodipodi:docname="minhassementes.svg"><metadata
     id="metadata13"><rdf:RDF><cc:Work
         rdf:about=""><dc:format>image/svg+xml</dc:format><dc:type
           rdf:resource="http://purl.org/dc/dcmitype/StillImage" /></cc:Work></rdf:RDF></metadata><defs
     id="defs11" /><sodipodi:namedview
     pagecolor="#ffffff"
     bordercolor="#666666"
     borderopacity="1"
     objecttolerance="10"
     gridtolerance="10"
     guidetolerance="10"
     inkscape:pageopacity="0"
     inkscape:pageshadow="2"
     inkscape:window-width="1210"
     inkscape:window-height="691"
     id="namedview9"
     showgrid="false"
     inkscape:zoom="1.9828926"
     inkscape:cx="64.300003"
     inkscape:cy="36.450001"
     inkscape:window-x="0"
     inkscape:window-y="0"
     inkscape:window-maximized="0"
     inkscape:current-layer="Camada_1" /><style
     type="text/css"
     id="style3">
	.st0{fill:#C1D6A1;}
</style><g
     id="XMLID_8827_"
     transform="matrix(1.5,0,0,1.5,174.67777,-140.69507)"><g
       id="g6"><path
         id="XMLID_23_"
         class="st0"
         d="m -338,281.5 c -0.9,-2.3 -1.7,-4.6 -3.1,-6.6 -1.2,-1.7 -2.9,-3.6 -5,-4 -1.1,-0.2 -2.1,-0.5 -3,-1 -0.5,-0.2 -0.9,-0.5 -1.3,-0.8 -0.4,-0.4 -0.6,-1 -0.9,-1.5 -0.5,-0.9 -1.4,-1.8 -2.3,-2.3 -0.9,-0.4 -2,-0.3 -2.9,0 -0.6,0.6 -1.2,1 -1.4,1.9 -0.2,0.9 -0.1,2 -0.1,3 -0.6,1 -1.2,2 -1.8,2.9 -0.6,0.9 -1.1,1.7 -1.4,2.6 -0.4,1 -0.5,1.8 -0.4,2.9 0.2,0.9 0.8,7.6 1,8.3 0.2,0.6 0.3,1 0.6,1.6 0.2,0.5 0.3,1.2 0.5,1.7 0.3,0.6 0.5,1.2 0.8,1.8 0.5,1.2 1,2.2 1.9,3.1 0.8,0.8 1.7,1.3 2.7,1.8 1,0.5 2.2,0.7 3.3,0.8 2.4,0.2 4.9,-0.3 7.2,-1.1 1.2,-0.4 2.3,-1.1 3.3,-1.9 1,-0.7 1.7,-1.6 2.4,-2.5 0.1,-0.4 0.1,-0.8 0.2,-1.2 0.1,-0.4 0.3,-0.8 0.4,-1.3 0,-0.2 0.1,-0.4 0.1,-0.6 0,-0.2 -0.1,-0.4 0,-0.6 0.2,-0.5 0.1,-1 0.1,-1.5 0,-0.5 0,-1 -0.1,-1.5 -0.1,-0.5 -0.3,-1.1 -0.4,-1.6 0,-0.5 -0.1,-0.9 -0.2,-1.4 -0.1,-0.5 -0.1,-0.5 -0.2,-1 z m -0.9,6.8 c -0.3,1.3 -0.4,1.9 -0.6,1.9 -0.2,0 -0.2,-0.5 -0.4,-0.8 -0.1,-0.4 -0.8,-2.7 -1,-3.6 -0.2,-0.9 -0.5,-2.4 -0.6,-3.2 -0.4,-1.3 -0.9,-2.3 -1.4,-3.5 -0.3,-0.6 -0.5,-1.4 -0.9,-2 -0.4,-0.6 -0.9,-1.2 -1.4,-1.8 -0.8,-1.1 -2,-1.5 -3.2,-2.1 -1.2,-0.6 -2.4,-1.4 -3.7,-1.7 0.4,0.8 1.2,1.2 1.9,1.6 1,0.6 1.9,1.3 2.8,1.9 0.7,1.2 1.2,2.6 1.4,4 0.1,0.4 0.2,1.8 0.4,2.1 0.3,0.7 1.3,2.4 1.3,2.4 0,0 1.8,4.9 2.6,6.3 0.8,1.4 0.4,2.5 0.1,2.7 -0.3,0.2 -1,0.8 -1.3,0.8 -0.2,-0.1 -0.6,-2.1 -1.1,-3.7 -0.5,-1.6 -1.3,-4.8 -1.5,-5.8 -1,-2.5 -1.8,-5.1 -3.4,-7.3 -0.7,-1 -1.6,-1.8 -2.5,-2.6 -0.9,-0.8 -1.7,-1.8 -2.8,-2.3 0,1.2 0.9,1.9 1.7,2.7 0.8,0.9 1.3,2 1.9,3 0.7,1.2 0.6,2.4 0.9,3.7 0.3,1.4 0.6,2.7 0.9,4 0.3,0.5 1.7,4 2.2,5.1 0.4,1 1.3,4.4 0.9,4.5 -0.4,0.1 -1.2,0.5 -1.6,0.3 -0.4,-0.1 -0.8,-1.6 -1.4,-2.8 -0.6,-1.2 -1.5,-5.5 -1.7,-6.7 -0.3,-1.1 -0.6,-2.3 -1,-3.3 -0.5,-1.2 -1.1,-2.2 -1.6,-3.4 -0.5,-1.1 -0.9,-2.3 -1.3,-3.5 -0.3,-1.1 -0.6,-2.4 -1.4,-3.2 -0.6,1 -0.3,2 0,3.1 0.3,1.3 0.9,2.4 1.2,3.6 0.1,0.6 0.1,1.1 0.3,1.7 0.2,0.7 0.4,1.4 0.6,2.1 0.3,1.2 0.7,2.5 1,3.7 0.2,0.4 0.9,3.1 1.2,4 0.3,0.9 2,5.6 1.5,5.7 -0.5,0.1 -1.5,0 -1.8,-0.3 -0.3,-0.3 -0.6,-1.3 -0.6,-1.9 0,-0.5 -0.8,-2.2 -1,-2.9 -0.2,-0.7 -1.1,-2.8 -1.2,-3.9 -0.4,-1.3 -0.7,-2.6 -1.2,-3.8 -0.5,-1.3 -1.3,-2.5 -1.8,-3.8 -0.4,-1.1 -0.5,-2.4 -0.1,-3.5 0.2,-0.6 0.4,-1.3 0.5,-1.9 0.2,-0.6 0.4,-1.3 0.2,-1.9 -0.8,1 -1.3,2.3 -1.5,3.5 -0.1,0.6 -0.1,1.2 -0.3,1.8 -0.2,0.6 -0.4,1.1 -0.3,1.8 0.1,0.6 0.3,1.3 0.4,1.9 0.2,0.8 0.3,1.5 0.6,2.2 0.5,1.5 0.8,3.1 1.3,4.6 0,0.2 0.6,2.1 0.5,2.1 0.1,1.2 0.4,1.6 0.6,2.7 -0.1,0.1 0.2,1.9 0.1,2.1 0.1,0.4 -0.5,-0.2 -1,-0.5 -0.5,-0.2 -0.7,-1 -1,-1.1 l -1.5,-4.4 c -0.3,-0.7 -0.5,-1.5 -0.7,-2.2 -0.5,-1.8 0.2,0.7 0,0 -0.6,-2 -0.9,-3.9 -1,-6 0,-0.9 0,-1.8 0.2,-2.7 0.2,-1 0.7,-1.8 1.2,-2.7 0.5,-0.8 1.1,-1.5 1.5,-2.3 0.4,-0.8 0.7,-1.6 0.8,-2.5 0.1,-0.9 0.1,-1.8 0.3,-2.6 0.2,-0.7 0.5,-1.1 1.2,-1.4 0.4,0.1 0.7,0.1 1,0.2 1.2,0.8 1.5,2.2 2.5,3.4 1.3,0.8 2.6,1.6 4.1,2 0.7,0.2 1.4,0.2 2.1,0.5 0.7,0.3 1.3,0.7 1.8,1.2 2.5,2.2 3.9,5.3 5,8.3 0.4,0.9 0.4,5.1 0.1,6.4 z"
         inkscape:connector-curvature="0"
         style="fill:#c1d6a1" /></g></g></svg>