<?xml version="1.0" encoding="utf-8"?>
<!-- Generator: Adobe Illustrator 16.0.0, SVG Export Plug-In . SVG Version: 6.00 Build 0)  -->
<!DOCTYPE svg PUBLIC "-//W3C//DTD SVG 1.1//EN" "http://www.w3.org/Graphics/SVG/1.1/DTD/svg11.dtd" [
	<!ENTITY ns_flows "http://ns.adobe.com/Flows/1.0/">
	<!ENTITY ns_extend "http://ns.adobe.com/Extensibility/1.0/">
	<!ENTITY ns_ai "http://ns.adobe.com/AdobeIllustrator/10.0/">
	<!ENTITY ns_graphs "http://ns.adobe.com/Graphs/1.0/">
]>
<svg version="1.1" id="Layer_1" xmlns:x="&ns_extend;" xmlns:i="&ns_ai;" xmlns:graph="&ns_graphs;"
	 xmlns="http://www.w3.org/2000/svg" xmlns:xlink="http://www.w3.org/1999/xlink" xmlns:a="http://ns.adobe.com/AdobeSVGViewerExtensions/3.0/"
	 x="0px" y="0px" width="231.809px" height="222.484px" viewBox="-0.476 0.209 231.809 222.484"
	 enable-background="new -0.476 0.209 231.809 222.484" xml:space="preserve">
<g>
	<path fill="#000100" d="M67.411,21.935c-0.455-2.023-0.534-3.958-0.235-5.802c0.297-1.843,0.903-3.51,1.812-5.002
		c0.909-1.492,2.094-2.752,3.555-3.781c1.462-1.027,3.111-1.749,4.949-2.162c1.917-0.432,3.756-0.496,5.517-0.193
		c1.76,0.304,3.362,0.93,4.807,1.877c1.444,0.949,2.69,2.193,3.736,3.734c1.046,1.542,1.801,3.337,2.262,5.387
		c0.443,1.971,0.529,3.875,0.256,5.713c-0.273,1.838-0.853,3.514-1.742,5.029c-0.891,1.516-2.062,2.814-3.508,3.896
		c-1.45,1.082-3.147,1.841-5.09,2.278c-1.971,0.444-3.847,0.496-5.631,0.156c-1.782-0.34-3.394-1.005-4.835-1.997
		c-1.439-0.99-2.662-2.26-3.669-3.811C68.588,25.706,67.86,23.932,67.411,21.935z M71.283,19.93
		c0.378,1.677,0.956,3.254,1.736,4.729c0.778,1.476,1.725,2.725,2.835,3.747c1.113,1.023,2.362,1.763,3.751,2.219
		c1.391,0.457,2.884,0.505,4.481,0.146c1.305-0.293,2.405-0.842,3.303-1.646c0.896-0.803,1.593-1.778,2.092-2.926
		c0.495-1.146,0.78-2.428,0.854-3.843c0.074-1.415-0.061-2.882-0.403-4.399c-0.399-1.785-1.032-3.405-1.891-4.863
		c-0.859-1.458-1.859-2.672-3.004-3.646c-1.141-0.974-2.394-1.657-3.754-2.05c-1.362-0.392-2.761-0.427-4.2-0.104
		c-1.171,0.265-2.206,0.77-3.101,1.516c-0.895,0.748-1.601,1.677-2.12,2.786c-0.522,1.112-0.838,2.371-0.954,3.782
		C70.792,16.788,70.917,18.307,71.283,19.93z"/>
	<path fill="#000100" d="M107.001,11.268l4.174-0.143c0.008,0.273-0.008,0.582-0.051,0.924c-0.043,0.343-0.142,0.653-0.296,0.932
		c-1.445,0.049-2.694,0.254-3.747,0.619l0.337,9.984c0.031,0.9,0.123,1.621,0.279,2.162c0.155,0.541,0.387,0.97,0.699,1.287
		c0.312,0.316,0.694,0.53,1.148,0.637c0.455,0.108,1.009,0.164,1.665,0.17c0.148,0.377,0.237,0.96,0.264,1.752
		c-0.63-0.034-1.409-0.042-2.337-0.024c-0.927,0.018-1.869,0.043-2.823,0.075l-1.514,0.051c-0.519,0.018-1.023,0.041-1.514,0.072
		c-0.49,0.03-0.941,0.059-1.35,0.086c-0.408,0.028-0.75,0.059-1.021,0.097c-0.026-0.792,0.021-1.379,0.146-1.767
		c1.088-0.091,1.824-0.382,2.202-0.874c0.379-0.491,0.547-1.418,0.501-2.782l-0.371-10.926c-0.604-0.116-1.2-0.19-1.789-0.226
		c-0.589-0.034-1.086-0.045-1.497-0.031c-0.023-0.737,0.146-1.357,0.511-1.861l2.701-0.092l-0.057-1.637
		c-0.051-1.527,0.149-2.879,0.602-4.055c0.451-1.176,1.066-2.167,1.845-2.971c0.777-0.805,1.671-1.415,2.684-1.833
		c1.009-0.416,2.046-0.644,3.111-0.679c1.063-0.037,1.864,0.039,2.403,0.226s1.044,0.409,1.519,0.665
		c-0.026,0.875-0.039,1.709-0.039,2.501c-0.001,0.792,0.012,1.556,0.037,2.293c-0.351,0.121-0.729,0.215-1.137,0.284
		s-0.803,0.109-1.184,0.123c-0.038-1.117-0.314-2.038-0.831-2.758c-0.516-0.719-1.347-1.061-2.493-1.021
		c-1.117,0.038-1.893,0.563-2.321,1.574c-0.431,1.011-0.616,2.431-0.552,4.259L107.001,11.268z"/>
	<path fill="#000100" d="M123.581,21.128c-0.899-0.074-1.771-0.134-2.617-0.176c-0.042,0.601-0.041,1.19,0.002,1.773
		c0.079,0.998,0.296,1.916,0.654,2.752c0.357,0.838,0.888,1.545,1.592,2.119c0.703,0.575,1.65,0.932,2.844,1.067
		c0.895,0.104,1.8,0.007,2.711-0.287c0.914-0.293,1.753-0.795,2.522-1.504c0.201,0.161,0.383,0.374,0.545,0.64
		c0.161,0.267,0.257,0.511,0.286,0.734c-1.089,1.112-2.26,1.857-3.511,2.234c-1.253,0.379-2.625,0.483-4.116,0.313
		c-1.438-0.166-2.669-0.568-3.695-1.206c-1.024-0.64-1.848-1.434-2.467-2.384c-0.62-0.95-1.038-2.035-1.256-3.255
		c-0.217-1.22-0.25-2.494-0.098-3.823c0.15-1.302,0.487-2.513,1.015-3.634c0.525-1.121,1.2-2.088,2.02-2.901
		c0.822-0.812,1.785-1.416,2.887-1.812c1.103-0.396,2.305-0.519,3.608-0.37c1.327,0.152,2.427,0.504,3.299,1.057
		c0.87,0.553,1.561,1.244,2.07,2.071s0.862,1.767,1.057,2.82c0.197,1.052,0.269,2.167,0.217,3.342
		c-0.173,0.531-0.426,0.969-0.769,1.313l-2.074-0.236c-0.923-0.107-1.962-0.218-3.115-0.335
		C126.037,21.321,124.833,21.217,123.581,21.128z M121.769,16.43c-0.241,0.66-0.443,1.474-0.61,2.443l7.811,0.894
		c0.205-1.789,0.046-3.277-0.479-4.463c-0.522-1.187-1.383-1.849-2.575-1.985c-0.487-0.055-0.987-0.01-1.499,0.139
		c-0.512,0.146-0.993,0.462-1.447,0.947C122.516,14.887,122.116,15.562,121.769,16.43z"/>
	<path fill="#000100" d="M146.06,22.307c-0.347,0.526-0.617,1.088-0.813,1.685l-1.172,4.179c-0.244,0.868-0.373,1.582-0.388,2.145
		c-0.018,0.562,0.073,1.041,0.275,1.438c0.201,0.396,0.503,0.714,0.902,0.954c0.4,0.24,0.911,0.462,1.535,0.664
		c0.027,0.405-0.064,0.99-0.278,1.751c-0.59-0.223-1.329-0.465-2.219-0.73c-0.889-0.264-1.795-0.523-2.715-0.782l-1.459-0.409
		c-0.5-0.14-0.987-0.27-1.464-0.389c-0.476-0.12-0.913-0.229-1.312-0.325c-0.397-0.098-0.732-0.17-1.003-0.218
		c0.215-0.762,0.438-1.309,0.674-1.64c1.063,0.243,1.854,0.187,2.362-0.166c0.511-0.353,0.95-1.187,1.319-2.501l2.188-7.804
		c0.133-0.473,0.215-0.89,0.244-1.25s-0.028-0.682-0.175-0.964c-0.149-0.282-0.396-0.537-0.744-0.762
		c-0.348-0.225-0.847-0.443-1.498-0.653c0.081-0.289,0.183-0.545,0.301-0.767c0.119-0.222,0.273-0.418,0.464-0.593
		c0.402,0.085,0.857,0.149,1.371,0.193c0.512,0.044,1.026,0.075,1.548,0.093c0.519,0.019,1.015,0.016,1.489-0.007
		s0.892-0.068,1.252-0.139c0.214,0.146,0.37,0.368,0.473,0.665c0.1,0.298,0.07,0.736-0.093,1.314
		c-0.259,0.92-0.565,1.712-0.922,2.377l-0.809,1.518c0.269-0.35,0.485-0.671,0.653-0.965c0.29-0.429,0.584-0.772,0.884-1.028
		c0.835-0.756,1.732-1.327,2.69-1.711c0.958-0.382,1.949-0.431,2.975-0.144c0.525,0.147,0.983,0.361,1.372,0.64
		c0.391,0.28,0.75,0.637,1.083,1.069c-0.289,0.628-0.578,1.376-0.864,2.245c-0.287,0.871-0.525,1.646-0.717,2.33
		c-0.258,0.012-0.602,0-1.031-0.035c-0.431-0.037-0.869-0.116-1.315-0.241c0.303-1.276,0.33-2.162,0.087-2.656
		c-0.246-0.493-0.631-0.814-1.155-0.961c-0.342-0.096-0.751-0.054-1.226,0.124c-0.476,0.179-0.95,0.478-1.422,0.898
		C146.937,21.171,146.487,21.689,146.06,22.307z"/>
	<path fill="#000100" d="M163.361,31.816c-0.831-0.352-1.641-0.681-2.432-0.985c-0.228,0.558-0.412,1.119-0.551,1.685
		c-0.237,0.972-0.317,1.913-0.239,2.819c0.076,0.908,0.36,1.744,0.848,2.511c0.488,0.766,1.278,1.399,2.37,1.903
		c0.817,0.376,1.706,0.568,2.666,0.574c0.958,0.006,1.912-0.208,2.864-0.641c0.141,0.216,0.246,0.474,0.317,0.778
		c0.069,0.303,0.084,0.565,0.043,0.786c-1.381,0.717-2.727,1.058-4.033,1.026c-1.31-0.032-2.645-0.362-4.007-0.989
		c-1.314-0.605-2.36-1.373-3.133-2.299c-0.775-0.928-1.308-1.94-1.6-3.036s-0.35-2.258-0.176-3.484
		c0.175-1.228,0.542-2.448,1.103-3.663c0.548-1.189,1.246-2.234,2.098-3.135c0.851-0.9,1.793-1.608,2.826-2.124
		c1.035-0.516,2.137-0.789,3.309-0.819c1.171-0.032,2.352,0.228,3.542,0.775c1.215,0.56,2.148,1.239,2.804,2.035
		c0.653,0.798,1.095,1.669,1.32,2.616c0.226,0.944,0.265,1.948,0.123,3.009c-0.143,1.061-0.423,2.142-0.84,3.242
		c-0.327,0.45-0.708,0.786-1.14,1.007l-1.897-0.875c-0.843-0.387-1.795-0.818-2.853-1.291
		C165.634,32.766,164.522,32.292,163.361,31.816z M163.108,26.786c-0.434,0.551-0.883,1.262-1.343,2.131l7.139,3.29
		c0.755-1.637,1.067-3.1,0.942-4.391c-0.127-1.29-0.736-2.187-1.827-2.689c-0.445-0.206-0.936-0.318-1.467-0.337
		c-0.532-0.02-1.09,0.129-1.671,0.446C164.298,25.555,163.707,26.071,163.108,26.786z"/>
	<path fill="#000100" d="M186.206,52.067c-1.269,0.56-2.522,0.782-3.763,0.668c-1.083-0.105-2.178-0.484-3.284-1.135l-1.959,0.702
		c0.798,0.77,1.277,1.606,1.442,2.508c0.163,0.902-0.027,1.76-0.578,2.574c-0.383,0.564-0.86,0.966-1.434,1.205
		c-0.573,0.238-1.177,0.35-1.809,0.334c-0.631-0.016-1.251-0.122-1.86-0.319c-0.607-0.197-1.127-0.441-1.555-0.731
		c0.015-0.22,0.071-0.437,0.168-0.652c0.096-0.215,0.204-0.413,0.327-0.594c0.68,0.458,1.405,0.71,2.181,0.758
		c0.777,0.046,1.363-0.225,1.759-0.812c0.385-0.565,0.477-1.154,0.28-1.764c-0.196-0.611-0.611-1.131-1.244-1.559
		c-0.091-0.258-0.119-0.532-0.086-0.823c0.032-0.292,0.147-0.585,0.346-0.878l2.495-1.13c-0.452-0.404-0.857-0.876-1.218-1.416
		c-0.606-0.905-1.019-1.917-1.234-3.035c-0.218-1.118-0.192-2.311,0.075-3.582c0.265-1.269,0.849-2.572,1.752-3.906
		c0.688-1.018,1.513-1.908,2.476-2.675c0.962-0.765,2.002-1.33,3.123-1.694c1.119-0.363,2.27-0.482,3.454-0.357
		c1.184,0.127,2.354,0.577,3.505,1.358c2.125,1.437,3.489,3.1,4.092,4.989c-0.56,0.58-1.062,1.177-1.513,1.796
		c-0.452,0.618-0.897,1.254-1.342,1.911c-0.257-0.01-0.55-0.1-0.878-0.273s-0.617-0.343-0.865-0.511
		c0.751-1.403,1.048-2.668,0.889-3.798c-0.16-1.129-0.736-2.031-1.731-2.703c-1.131-0.765-2.369-0.844-3.717-0.241
		c-1.348,0.605-2.68,1.879-3.994,3.823c-0.583,0.859-1.031,1.758-1.353,2.694c-0.32,0.938-0.482,1.847-0.49,2.733
		c-0.005,0.885,0.169,1.713,0.524,2.479c0.355,0.767,0.927,1.418,1.719,1.953c1.515,1.024,3.212,1.218,5.095,0.579
		c0.12,0.213,0.201,0.457,0.245,0.734C186.29,51.555,186.275,51.817,186.206,52.067z"/>
	<path fill="#000100" d="M194.209,50.446c0.967-1.002,2.024-1.774,3.172-2.316c1.148-0.542,2.32-0.843,3.517-0.904
		c1.196-0.06,2.371,0.127,3.529,0.559c1.154,0.433,2.224,1.123,3.206,2.071c1.043,1.004,1.813,2.071,2.316,3.201
		c0.504,1.13,0.741,2.279,0.715,3.447c-0.027,1.168-0.307,2.332-0.835,3.49c-0.529,1.157-1.296,2.257-2.3,3.298
		c-0.967,1.001-2.029,1.779-3.187,2.331c-1.158,0.552-2.325,0.857-3.502,0.917c-1.177,0.059-2.343-0.126-3.499-0.56
		c-1.155-0.434-2.235-1.132-3.238-2.1c-1.001-0.966-1.754-2.014-2.256-3.144c-0.502-1.129-0.752-2.279-0.744-3.446
		c0.008-1.168,0.271-2.335,0.791-3.503C192.415,52.621,193.186,51.506,194.209,50.446z M197.784,52.697
		c-1.933,2.004-3.063,3.883-3.388,5.635c-0.327,1.754,0.111,3.207,1.31,4.364c1.178,1.136,2.521,1.494,4.028,1.071
		s3.011-1.411,4.507-2.962c0.873-0.904,1.556-1.829,2.05-2.773c0.495-0.946,0.811-1.854,0.95-2.724
		c0.137-0.872,0.099-1.677-0.118-2.417c-0.214-0.74-0.598-1.375-1.147-1.905c-1.139-1.1-2.435-1.457-3.884-1.073
		C200.638,50.296,199.204,51.225,197.784,52.697z"/>
</g>
<g>
	<g>
		<path d="M56.93,192.489c-0.043,0.508-0.063,1.047-0.063,1.62c0,0.57,0.041,1.131,0.126,1.681
			c-0.423,0.253-0.951,0.381-1.586,0.381c-0.043-0.444-0.153-0.873-0.334-1.286c-0.179-0.413-0.423-0.781-0.73-1.109
			c-0.306-0.329-0.673-0.592-1.095-0.794c-0.423-0.2-0.888-0.303-1.396-0.303c-0.657,0-1.181,0.16-1.572,0.477
			c-0.392,0.317-0.588,0.741-0.588,1.27c0,0.276,0.038,0.52,0.111,0.731c0.075,0.211,0.245,0.429,0.509,0.65
			c0.263,0.223,0.644,0.455,1.141,0.698c0.498,0.244,1.169,0.533,2.017,0.872c0.845,0.318,1.56,0.635,2.143,0.953
			c0.581,0.316,1.048,0.654,1.396,1.015c0.349,0.361,0.597,0.752,0.745,1.174c0.149,0.425,0.224,0.921,0.224,1.493
			c0,0.678-0.15,1.29-0.445,1.841c-0.297,0.548-0.703,1.021-1.223,1.411c-0.517,0.394-1.131,0.694-1.841,0.906
			c-0.708,0.21-1.477,0.316-2.301,0.316c-0.634,0-1.195-0.025-1.681-0.08c-0.487-0.052-0.936-0.124-1.35-0.222
			c-0.413-0.095-0.792-0.216-1.143-0.365c-0.349-0.146-0.704-0.315-1.064-0.508c0.021-0.253,0.043-0.549,0.064-0.888
			c0.022-0.338,0.032-0.693,0.032-1.063c0-0.369-0.004-0.73-0.016-1.079c-0.011-0.35-0.027-0.65-0.048-0.903
			c0.17-0.128,0.407-0.219,0.715-0.272c0.306-0.051,0.618-0.078,0.937-0.078c0.169,1.334,0.582,2.327,1.236,2.984
			c0.656,0.655,1.535,0.984,2.636,0.984c0.868,0,1.539-0.19,2.016-0.572c0.474-0.381,0.713-0.867,0.713-1.462
			c0-0.272-0.048-0.521-0.143-0.744c-0.097-0.223-0.27-0.434-0.524-0.635c-0.253-0.201-0.602-0.413-1.046-0.636
			c-0.446-0.222-1.016-0.48-1.715-0.777c-0.868-0.339-1.598-0.66-2.189-0.968c-0.593-0.308-1.076-0.641-1.445-0.999
			c-0.37-0.36-0.64-0.767-0.809-1.223c-0.17-0.454-0.254-0.999-0.254-1.635c0-0.676,0.174-1.265,0.524-1.762
			c0.349-0.497,0.789-0.91,1.317-1.236c0.529-0.328,1.1-0.572,1.714-0.73c0.614-0.158,1.184-0.24,1.714-0.24
			c0.952,0,1.788,0.097,2.506,0.287C55.585,191.854,56.274,192.13,56.93,192.489z"/>
		<path d="M67.277,199.123c-0.699,0.021-1.377,0.054-2.032,0.096c0.021,0.465,0.074,0.92,0.159,1.365
			c0.148,0.762,0.396,1.448,0.747,2.062c0.348,0.614,0.817,1.11,1.41,1.491c0.593,0.382,1.355,0.571,2.287,0.571
			c0.698,0,1.385-0.151,2.062-0.46c0.677-0.306,1.279-0.768,1.81-1.382c0.168,0.107,0.329,0.256,0.477,0.444
			c0.146,0.191,0.243,0.372,0.286,0.541c-0.742,0.953-1.577,1.629-2.51,2.031c-0.93,0.402-1.979,0.603-3.143,0.603
			c-1.119,0-2.104-0.2-2.949-0.603c-0.847-0.402-1.552-0.939-2.111-1.619c-0.562-0.676-0.979-1.476-1.255-2.396
			c-0.274-0.922-0.412-1.899-0.412-2.937c0-1.017,0.153-1.978,0.46-2.89c0.306-0.908,0.74-1.714,1.302-2.412
			c0.56-0.696,1.248-1.248,2.063-1.65c0.813-0.401,1.728-0.604,2.747-0.604c1.035,0,1.913,0.176,2.631,0.525
			c0.721,0.349,1.313,0.82,1.779,1.413c0.465,0.591,0.818,1.286,1.062,2.077c0.243,0.794,0.396,1.646,0.46,2.555
			c-0.085,0.425-0.242,0.785-0.476,1.08h-1.62c-0.718,0-1.528,0.006-2.427,0.017C69.187,199.056,68.25,199.081,67.277,199.123z
			 M65.467,195.663c-0.126,0.53-0.211,1.175-0.254,1.937h6.093c0-1.397-0.252-2.527-0.76-3.396c-0.51-0.868-1.228-1.303-2.16-1.303
			c-0.381,0-0.76,0.08-1.141,0.237c-0.38,0.16-0.725,0.445-1.033,0.859C65.907,194.409,65.658,194.964,65.467,195.663z"/>
		<path d="M78.893,192.457c0.276-0.019,0.604-0.062,0.986-0.126c0.38-0.063,0.767-0.148,1.157-0.254
			c0.391-0.105,0.763-0.216,1.111-0.334c0.35-0.115,0.631-0.236,0.843-0.366c0.19,0.066,0.354,0.192,0.49,0.382
			c0.139,0.191,0.207,0.486,0.207,0.889c0,0.36-0.021,0.763-0.062,1.206c0,0.213-0.021,0.476-0.064,0.796
			c0.085-0.192,0.148-0.34,0.19-0.445c0.149-0.277,0.255-0.455,0.316-0.539c0.171-0.255,0.398-0.514,0.685-0.778
			c0.285-0.266,0.618-0.509,1-0.73c0.381-0.223,0.813-0.408,1.3-0.556c0.488-0.147,1.006-0.224,1.555-0.224
			c0.89,0,1.704,0.202,2.445,0.604c0.74,0.402,1.28,1.092,1.619,2.065c0.062,0.21,0.105,0.476,0.126,0.792
			c0.065-0.188,0.128-0.35,0.191-0.477c0.105-0.19,0.221-0.37,0.35-0.539c0.168-0.255,0.396-0.513,0.683-0.778
			c0.285-0.263,0.624-0.508,1.015-0.729s0.826-0.406,1.302-0.556c0.476-0.147,0.988-0.221,1.54-0.221c0.59,0,1.159,0.09,1.697,0.27
			c0.54,0.179,1.016,0.471,1.428,0.871c0.414,0.403,0.741,0.934,0.984,1.589c0.243,0.656,0.365,1.471,0.365,2.443v5.459
			c0,0.551,0.036,1.001,0.11,1.349c0.074,0.35,0.191,0.625,0.35,0.826c0.159,0.201,0.36,0.344,0.603,0.428
			c0.243,0.086,0.524,0.139,0.839,0.159c0.065,0.191,0.108,0.393,0.129,0.604c0.021,0.214,0.032,0.466,0.032,0.761
			c-0.487-0.043-1.027-0.07-1.618-0.078c-0.594-0.012-1.207-0.017-1.843-0.017c-0.634,0-1.29,0.005-1.965,0.017
			c-0.679,0.008-1.283,0.035-1.811,0.078c0-0.613,0.053-1.067,0.159-1.364c0.846-0.042,1.422-0.249,1.73-0.618
			c0.306-0.37,0.461-1.084,0.461-2.144v-4.824c0-0.741-0.076-1.358-0.223-1.858c-0.147-0.497-0.35-0.894-0.602-1.188
			c-0.255-0.297-0.562-0.509-0.921-0.634c-0.36-0.129-0.751-0.192-1.174-0.192c-0.403,0-0.816,0.095-1.239,0.286
			c-0.424,0.191-0.805,0.497-1.143,0.921c-0.339,0.424-0.615,0.968-0.826,1.633c-0.211,0.668-0.317,1.488-0.317,2.462v3.396
			c0,0.551,0.044,1.001,0.127,1.349c0.085,0.35,0.214,0.625,0.382,0.826c0.17,0.201,0.397,0.344,0.683,0.428
			c0.286,0.086,0.629,0.139,1.032,0.159c0.063,0.191,0.106,0.393,0.125,0.604c0.021,0.214,0.033,0.466,0.033,0.761
			c-0.551-0.043-1.165-0.07-1.841-0.078c-0.678-0.012-1.322-0.017-1.937-0.017s-1.253,0.005-1.919,0.017
			c-0.668,0.008-1.286,0.035-1.858,0.078c0-0.613,0.054-1.067,0.158-1.364c0.848-0.042,1.425-0.249,1.73-0.618
			c0.307-0.37,0.46-1.084,0.46-2.144v-4.982c0-0.742-0.073-1.36-0.221-1.858c-0.148-0.496-0.349-0.893-0.604-1.189
			c-0.253-0.295-0.561-0.509-0.92-0.636c-0.359-0.125-0.751-0.188-1.175-0.188c-0.401,0-0.816,0.095-1.238,0.285
			c-0.422,0.189-0.805,0.497-1.142,0.921c-0.339,0.423-0.615,0.966-0.826,1.633c-0.212,0.667-0.317,1.488-0.317,2.461v3.555
			c0,1.06,0.159,1.773,0.476,2.144c0.318,0.369,0.899,0.576,1.747,0.618c0.062,0.191,0.105,0.393,0.125,0.604
			c0.022,0.214,0.032,0.466,0.032,0.761c-0.549-0.043-1.178-0.07-1.887-0.078c-0.71-0.012-1.338-0.017-1.89-0.017
			c-0.549,0-1.188,0.005-1.918,0.017c-0.732,0.008-1.35,0.035-1.858,0.078c0-0.613,0.053-1.067,0.159-1.364
			c0.848-0.042,1.422-0.249,1.73-0.618c0.305-0.37,0.459-1.084,0.459-2.144v-6.283c0-0.383-0.026-0.711-0.079-0.985
			s-0.164-0.501-0.332-0.684c-0.17-0.177-0.41-0.316-0.714-0.412c-0.309-0.094-0.725-0.153-1.254-0.175
			c0-0.23,0.021-0.443,0.064-0.634C78.714,192.807,78.789,192.628,78.893,192.457z"/>
		<path d="M113.555,199.123c-0.698,0.021-1.375,0.054-2.032,0.096c0.02,0.465,0.074,0.92,0.159,1.365
			c0.147,0.762,0.396,1.448,0.746,2.062c0.348,0.614,0.818,1.11,1.412,1.491c0.593,0.382,1.354,0.571,2.286,0.571
			c0.698,0,1.385-0.151,2.062-0.46c0.677-0.306,1.282-0.768,1.812-1.382c0.167,0.107,0.328,0.256,0.476,0.444
			c0.146,0.191,0.241,0.372,0.283,0.541c-0.739,0.953-1.576,1.629-2.505,2.031c-0.934,0.402-1.981,0.603-3.144,0.603
			c-1.121,0-2.105-0.2-2.951-0.603c-0.847-0.402-1.551-0.939-2.11-1.619c-0.562-0.676-0.979-1.476-1.254-2.396
			c-0.274-0.922-0.411-1.899-0.411-2.937c0-1.017,0.153-1.978,0.459-2.89c0.307-0.908,0.74-1.714,1.3-2.412
			c0.561-0.696,1.249-1.248,2.064-1.65c0.813-0.401,1.73-0.604,2.746-0.604c1.036,0,1.913,0.176,2.632,0.525
			c0.722,0.349,1.312,0.82,1.78,1.413c0.465,0.591,0.819,1.286,1.062,2.077c0.241,0.794,0.396,1.646,0.46,2.555
			c-0.085,0.425-0.244,0.785-0.475,1.08h-1.621c-0.718,0-1.529,0.006-2.429,0.017C115.465,199.056,114.528,199.081,113.555,199.123z
			 M111.745,195.663c-0.126,0.53-0.211,1.175-0.253,1.937h6.092c0-1.397-0.251-2.527-0.76-3.396s-1.228-1.303-2.158-1.303
			c-0.383,0-0.763,0.08-1.144,0.237c-0.379,0.16-0.725,0.445-1.032,0.859C112.185,194.409,111.936,194.964,111.745,195.663z"/>
		<path d="M139.518,202.17c0,1.102,0.153,1.836,0.458,2.206c0.307,0.371,0.777,0.556,1.413,0.556
			c0.064,0.191,0.106,0.393,0.126,0.604c0.023,0.214,0.033,0.466,0.033,0.761c-0.465-0.043-0.993-0.07-1.586-0.078
			c-0.595-0.012-1.217-0.017-1.873-0.017s-1.329,0.013-2.017,0.03c-0.686,0.021-1.274,0.044-1.759,0.064
			c0-0.613,0.048-1.067,0.155-1.364c0.762,0,1.315-0.196,1.67-0.587c0.347-0.393,0.522-1.115,0.522-2.175v-4.824
			c0-0.741-0.076-1.358-0.223-1.858c-0.149-0.497-0.353-0.894-0.62-1.188c-0.264-0.297-0.576-0.509-0.936-0.634
			c-0.36-0.129-0.753-0.192-1.174-0.192c-0.425,0-0.848,0.095-1.27,0.286c-0.424,0.191-0.805,0.497-1.144,0.921
			s-0.618,0.968-0.84,1.633c-0.224,0.668-0.334,1.488-0.334,2.462v3.396c0,1.06,0.157,1.782,0.475,2.175
			c0.317,0.391,0.889,0.587,1.714,0.587c0.064,0.191,0.107,0.393,0.129,0.604c0.021,0.214,0.031,0.466,0.031,0.761
			c-0.445-0.021-1.021-0.043-1.73-0.064c-0.709-0.018-1.394-0.03-2.046-0.03c-0.654,0-1.334,0.005-2.031,0.017
			c-0.699,0.008-1.28,0.035-1.747,0.078c0-0.613,0.053-1.067,0.158-1.364c0.826,0,1.398-0.196,1.715-0.587
			c0.316-0.393,0.479-1.115,0.479-2.175v-6.283c0-0.383-0.027-0.711-0.081-0.985s-0.166-0.501-0.335-0.684
			c-0.168-0.177-0.407-0.316-0.714-0.412c-0.307-0.094-0.723-0.153-1.255-0.175c0-0.23,0.022-0.443,0.065-0.634
			c0.04-0.19,0.115-0.369,0.221-0.54c0.316-0.019,0.671-0.068,1.065-0.143c0.391-0.073,0.78-0.158,1.173-0.254
			c0.392-0.097,0.762-0.199,1.111-0.317c0.349-0.115,0.652-0.236,0.904-0.366c0.191,0.066,0.355,0.197,0.494,0.398
			c0.136,0.201,0.205,0.532,0.205,1.001c0,0.253-0.013,0.539-0.032,0.854c-0.021,0.319-0.085,0.658-0.19,1.019
			c0.063-0.108,0.128-0.229,0.19-0.367s0.157-0.291,0.287-0.46c0.166-0.255,0.403-0.513,0.698-0.778
			c0.293-0.263,0.64-0.508,1.029-0.729c0.394-0.222,0.825-0.406,1.304-0.556c0.475-0.147,0.998-0.221,1.569-0.221
			c0.592,0,1.166,0.09,1.715,0.27c0.551,0.179,1.035,0.471,1.459,0.871c0.424,0.403,0.757,0.934,1,1.589
			c0.244,0.656,0.366,1.471,0.366,2.443V202.17z"/>
		<path d="M147.167,191.98v-4.19c0.424-0.104,0.848-0.272,1.269-0.507c0.424-0.231,0.795-0.485,1.112-0.762
			c0.104,0.043,0.191,0.091,0.255,0.145c0.062,0.052,0.114,0.136,0.157,0.253c0.043,0.116,0.067,0.271,0.081,0.46
			c0.01,0.19,0.014,0.456,0.014,0.794v3.808h4.097c0,0.467-0.096,0.933-0.289,1.398c-1.54,0.063-2.812,0.201-3.808,0.411v7.937
			c0,1.078,0.158,1.854,0.477,2.332c0.318,0.477,0.763,0.714,1.335,0.714c0.441,0,0.829-0.063,1.158-0.191
			c0.327-0.124,0.638-0.316,0.937-0.569c0.273,0.316,0.435,0.666,0.476,1.047c-0.361,0.402-0.879,0.742-1.556,1.015
			c-0.679,0.276-1.354,0.413-2.031,0.413c-1.269,0-2.202-0.316-2.792-0.951c-0.595-0.635-0.891-1.683-0.891-3.143v-8.603
			c-0.316-0.104-0.646-0.189-0.981-0.254c-0.342-0.063-0.775-0.116-1.303-0.157c0-0.276,0.019-0.515,0.062-0.716
			c0.041-0.198,0.114-0.429,0.222-0.683H147.167z"/>
		<path d="M162.941,199.123c-0.699,0.021-1.375,0.054-2.031,0.096c0.02,0.465,0.073,0.92,0.157,1.365
			c0.15,0.762,0.399,1.448,0.747,2.062c0.352,0.614,0.821,1.11,1.414,1.491c0.59,0.382,1.352,0.571,2.285,0.571
			c0.698,0,1.385-0.151,2.062-0.46c0.679-0.306,1.281-0.768,1.811-1.382c0.168,0.107,0.325,0.256,0.476,0.444
			c0.147,0.191,0.241,0.372,0.284,0.541c-0.74,0.953-1.576,1.629-2.507,2.031c-0.932,0.402-1.979,0.603-3.143,0.603
			c-1.123,0-2.106-0.2-2.952-0.603s-1.55-0.939-2.109-1.619c-0.562-0.676-0.982-1.476-1.256-2.396
			c-0.272-0.922-0.412-1.899-0.412-2.937c0-1.017,0.154-1.978,0.461-2.89c0.307-0.908,0.738-1.714,1.302-2.412
			c0.561-0.696,1.246-1.248,2.062-1.65c0.818-0.401,1.732-0.604,2.748-0.604c1.036,0,1.915,0.176,2.634,0.525
			c0.72,0.349,1.312,0.82,1.778,1.413c0.464,0.591,0.819,1.286,1.063,2.077c0.242,0.794,0.396,1.646,0.457,2.555
			c-0.084,0.425-0.242,0.785-0.475,1.08h-1.618c-0.721,0-1.531,0.006-2.427,0.017C164.85,199.056,163.914,199.081,162.941,199.123z
			 M161.129,195.663c-0.124,0.53-0.209,1.175-0.252,1.937h6.096c0-1.397-0.253-2.527-0.762-3.396s-1.228-1.303-2.159-1.303
			c-0.38,0-0.761,0.08-1.145,0.237c-0.378,0.16-0.724,0.445-1.029,0.859C161.572,194.409,161.323,194.964,161.129,195.663z"/>
		<path d="M184.397,192.489c-0.043,0.508-0.062,1.047-0.062,1.62c0,0.57,0.041,1.131,0.129,1.681
			c-0.425,0.253-0.955,0.381-1.588,0.381c-0.041-0.444-0.152-0.873-0.334-1.286c-0.181-0.413-0.421-0.781-0.731-1.109
			c-0.304-0.329-0.671-0.592-1.093-0.794c-0.425-0.2-0.891-0.303-1.397-0.303c-0.656,0-1.181,0.16-1.568,0.477
			c-0.396,0.317-0.59,0.741-0.59,1.27c0,0.276,0.035,0.52,0.111,0.731c0.072,0.211,0.243,0.429,0.508,0.65
			c0.264,0.223,0.646,0.455,1.143,0.698c0.497,0.244,1.17,0.533,2.014,0.872c0.849,0.318,1.562,0.635,2.142,0.953
			c0.584,0.316,1.05,0.654,1.398,1.015c0.351,0.361,0.599,0.752,0.746,1.174c0.15,0.425,0.221,0.921,0.221,1.493
			c0,0.678-0.147,1.29-0.443,1.841c-0.294,0.548-0.705,1.021-1.222,1.411c-0.519,0.394-1.132,0.694-1.84,0.906
			c-0.708,0.21-1.477,0.316-2.301,0.316c-0.636,0-1.195-0.025-1.685-0.08c-0.484-0.052-0.935-0.124-1.346-0.222
			c-0.414-0.095-0.795-0.216-1.146-0.365c-0.345-0.146-0.703-0.315-1.063-0.508c0.024-0.253,0.043-0.549,0.065-0.888
			c0.021-0.338,0.031-0.693,0.031-1.063c0-0.369-0.006-0.73-0.016-1.079c-0.009-0.35-0.026-0.65-0.048-0.903
			c0.168-0.128,0.409-0.219,0.716-0.272c0.305-0.051,0.618-0.078,0.935-0.078c0.171,1.334,0.584,2.327,1.237,2.984
			c0.658,0.655,1.534,0.984,2.638,0.984c0.866,0,1.539-0.19,2.016-0.572c0.474-0.381,0.712-0.867,0.712-1.462
			c0-0.272-0.047-0.521-0.143-0.744s-0.269-0.434-0.523-0.635c-0.257-0.201-0.603-0.413-1.049-0.636
			c-0.444-0.222-1.013-0.48-1.714-0.777c-0.867-0.339-1.596-0.66-2.188-0.968c-0.595-0.308-1.076-0.641-1.446-0.999
			c-0.369-0.36-0.637-0.767-0.808-1.223c-0.17-0.454-0.252-0.999-0.252-1.635c0-0.676,0.172-1.265,0.521-1.762
			s0.787-0.91,1.317-1.236c0.529-0.328,1.1-0.572,1.712-0.73c0.617-0.158,1.187-0.24,1.715-0.24c0.953,0,1.789,0.097,2.509,0.287
			S183.743,192.13,184.397,192.489z"/>
	</g>
</g>
<g>
	<path fill-rule="evenodd" clip-rule="evenodd" d="M27.63,67.616c0.029,0.023,0.051,0.053,0.08,0.075
		c0.767,0.606,2.645,0.551,3.384-0.07c1.743-1.466,2.982-3.379,4.505-5.04c0.146-0.158,0.277-0.355,0.156-0.599
		c-0.16-0.159-0.332-0.068-0.512-0.045c-2.8,0.374-5.134,1.855-7.51,3.207C25.894,66.19,25.917,66.35,27.63,67.616z"/>
	<path fill-rule="evenodd" clip-rule="evenodd" d="M17.384,62.123c0.158-0.013,0.31-0.182,0.453-0.295
		c1.417-1.105,2.7-2.355,3.921-3.67c0.313-0.335,0.826-0.687,0.448-1.203c-0.355-0.486-0.887-0.467-1.487-0.287
		c-1.69,0.513-2.942,1.753-4.427,2.603c-1.154,0.659-2.406,1.231-3.522,2.315C14.34,62.49,15.872,62.248,17.384,62.123z"/>
	<path fill-rule="evenodd" clip-rule="evenodd" d="M35.161,36.933c-0.489,0.714-0.485,1.48-0.092,2.188
		c0.401,0.724,1.187,0.533,1.795,0.427c1.014-0.176,2.038-0.505,3.034-0.209c1.682,0.497,3.377,0.396,5.251,0.359
		c-0.21-0.231-0.294-0.354-0.404-0.438c-2.588-1.976-5.613-2.575-8.762-2.786C35.622,36.451,35.363,36.639,35.161,36.933z"/>
	<path fill-rule="evenodd" clip-rule="evenodd" d="M18.958,47.044c0.602-0.438,1.228-0.726,1.935-0.965
		c1.861-0.629,3.872-0.831,5.647-1.994c-0.75-0.897-1.605-1.305-2.788-1.236c-1.438,0.084-2.829,0.382-4.189,0.77
		c-1.542,0.439-2.077,1.288-2.002,2.713C17.618,47.396,18.099,47.668,18.958,47.044z"/>
	<path fill-rule="evenodd" clip-rule="evenodd" d="M32.66,27.24c2.663,0.427,5.31,0.903,7.833,2.336
		c-1.312-2.828-5.631-5.63-8.407-5.572c-0.156,0.815-0.114,1.652-0.087,2.486C32.013,26.923,32.246,27.174,32.66,27.24z"/>
	<path fill-rule="evenodd" clip-rule="evenodd" d="M30.269,53.707c0.63-0.161,1.443-0.029,1.846-0.722
		c0.68-1.173,2.066-1.449,2.92-2.399c0.166-0.184,0.586-0.16,0.504-0.564c-0.067-0.334-0.345-0.441-0.65-0.494
		c-0.468-0.081-0.922-0.151-1.398,0.033c-1.188,0.459-2.357,0.947-3.642,1.146c-0.867,0.135-1.326,0.867-1.453,1.726
		C28.348,52.767,29.757,53.704,30.269,53.707z"/>
	<path fill-rule="evenodd" clip-rule="evenodd" d="M47.741,63.29c0.362-0.528,0.847-1.284,1.318-1.682
		c1.029-0.873,1.518-0.936,2.702-1.611c-0.947-0.285-1.841-0.598-2.596-0.505c-0.792,0.095-1.496,0.415-2.218,0.82
		c-1.414,0.792-1.717,1.494-0.947,2.865C46.446,63.97,47.223,64.045,47.741,63.29z"/>
	<path fill-rule="evenodd" clip-rule="evenodd" d="M47.089,51.831c-1.398-0.102-2.803-0.302-4.195-0.247
		c-0.767,0.031-1.567,0.408-2.261,0.794c-0.777,0.434-0.881,1.184-0.521,2.008c0.398,0.912,0.969,0.473,1.541,0.251
		c0.887-0.348,1.773-0.688,2.676-0.994c1.119-0.378,2.176-0.937,3.243-1.41C47.459,51.878,47.267,51.843,47.089,51.831z"/>
	<path fill-rule="evenodd" clip-rule="evenodd" d="M54.872,46.827c2.966-0.215,5.68,0.829,8.486,1.554
		c-2.321-2.796-5.26-3.689-8.666-2.622c-0.298,0.094-0.567,0.25-0.548,0.598C54.168,46.81,54.534,46.853,54.872,46.827z"/>
	<path fill-rule="evenodd" clip-rule="evenodd" d="M50.558,23.652c-1.206-1.682-1.86-3.633-3.023-5.468
		c-1.016,0.927-0.841,1.821-0.371,2.693C47.91,22.256,49.029,23.202,50.558,23.652z"/>
	<path fill-rule="evenodd" clip-rule="evenodd" d="M219.98,176.347c-1.726-0.055-2.654-0.504-4.38-0.591
		c-3.408-0.174-12.088-0.027-13.023-0.022c-2.192,0.013-4.388-0.014-6.58,0.036c-2.378,0.056-4.75,0.332-7.139,0.137
		c-0.976-0.08-8.637,0.021-11.484,0.034c-1.632,0.008-3.263-0.11-4.897-0.149c-2.612-0.062-5.226-0.122-7.839-0.153
		c-1.768-0.022-3.536,0.031-5.304-0.005c-2.229-0.048-4.456-0.224-6.682-0.214c-1.954,0.008-3.907,0.102-5.866,0.041
		c-1.446-0.044-4.616,0.029-4.754,0.031c0.018-0.374,0.342-1.06,0.521-1.377c0.646-1.14,2.175-3.954,2.275-4.229
		c0.213-0.582,4.024-6.469,2.78-7.486c-0.999-0.817-3.869-1.229-5.122-1.801c-0.211-0.08-2.594-1.487-5.033-1.842
		c-1.695-0.245-3.332-0.938-3.236-2.961c0.002-0.056-1.875-0.468-1.893-0.528c-0.376-1.476,0.238-2.172-0.146-3.701
		c-0.515-2.056-1.87-3.879-1.764-6.133c0.007-0.15-0.071-0.337-0.169-0.458c-0.984-1.218-0.735-2.856-1.428-4.174
		c-0.469-0.894,0.229-1.771,0.004-2.738c-0.464-2.022-0.549-4.119-0.669-6.197c-0.01-0.218,0.056-0.473,0.17-0.659
		c0.246-0.404,0.239-0.759,0.063-1.206c-0.217-0.558-0.289-1.348,0.282-1.601c1.004-0.444,2.04-0.833,3.068-1.23
		c0.769-0.299,1.448-0.585,1.804-1.381c0.297-0.668,0.769-1.132,1.529-1.259c0.183-0.032,0.39-0.142,0.505-0.28
		c1.16-1.391,2.508-2.725,3.019-4.472c0.516-1.757,1.473-3.361,1.733-5.194c0.044-0.323,0.015-0.668,0.119-0.968
		c1.246-3.511,1.153-7.058,0.474-10.668c-0.498-2.637-1.788-4.763-3.636-6.628c-0.555-0.558-3.63-4.323-4.499-5.222
		c-0.762-0.788-5.838-3.306-6.983-3.783c-0.684-0.284-2.823-0.595-4.397-0.641c-0.636-0.019-0.972-0.368-1.238-0.948
		c-0.426-0.92-0.304-1.814-0.208-2.771c0.235-2.383,0.513-4.749,1.063-7.084c0.329-1.402,0.544-2.833,0.18-4.271
		c-0.199-0.793-0.582-1.498-1.311-1.905c-1.172-0.653-1.659-0.704-2.934-1.07c-0.511-0.035-1.604-0.222-1.991-0.12
		c-1.692,0.443-3.136,0.392-4.191,1.862c-0.305,0.411-2.541,2.963-1.81,5.583c0.068,0.247,0.05,0.525,0.037,0.786
		c-0.109,2.098-1.291,6.966,2.701,7.327c0.72,0.51,0.856,1.164,0.945,1.984c-0.943,0.021-7.866,0.876-9.024-0.166
		c-0.948-0.853-3.832-1.584-4.49-2.759c-1.287-2.298-2.05-2.714-3.673-4.783c-1.526-1.948-2.422-5.281-3.347-7.728
		c-0.978-2.589-2.086-5.418-2.127-8.132c-0.004-0.4,0.267-1.265,0.397-1.646c0.673-1.842,2.021-5.1,1.032-4.626
		c-0.22,0.078-0.638,1.165-1.115,1.536c-0.31,0.636-1.491-1.502-1.527-2.249c-0.08-1.601,0.194-2.086,0.42-3.657
		c0.143-1,0.425-2.123,0.479-2.555c-0.095-0.017-1.495,0.738-1.588,0.72c-1.33,1.695-1.046,1.658-2.306,3.353
		c-0.085,0.618-0.422,1.914-0.07,2.883c0.847,2.33,1.145,3.965,1.246,4.417c-0.647,1.081-0.211,11.6-0.242,12.386
		c-0.087,2.175,0.2,4.216,1.116,6.221c0.518,1.136,1.335,2.151,1.566,3.397c0.258,1.39,0.871,2.628,1.495,3.856
		c0.517,1.013,4.615,5.911,5.478,6.659c0.612,0.534,8.102,4.105,9.314,4.995c1.501,1.098,0.962,4.15,1.358,6.046
		c0,0.244,0.965,5.239,1.702,7.452c0.188,0.563,0.231,1.167,0.181,1.762c-0.11,1.249-0.237,2.495-0.355,3.742
		c-0.196,2.046,0.256,3.684-0.988,5.36c-0.535,0.722-2.036,3.04-2.35,3.458c-0.514,0.684-0.944,1.438-1.509,2.074
		c-2.578,2.914-4.947,6.002-6.822,9.396c-1.677,3.029-3.882,5.768-5.026,9.101c-0.599,1.742-1.58,3.369-2.039,5.138
		c-0.967,3.743-3.982,9.904-4.521,13.758c-1.204,0.193-2.363,0.113-3.476-0.561c-1.235-0.748-2.398-1.627-3.741-2.184
		c-0.957-0.397-1.844-0.923-2.584-1.624c-0.667-0.633-1.401-0.512-2.131-0.392c-0.586,0.094-0.904,1.018-0.549,1.521
		c0.318,0.453,4.312,4.749,4.67,5.257c0.988,1.397,4.278,3.718,4.524,3.932c1.628,1.409,3.381,2.548,5.634,2.645
		c-0.273-0.34,1.653-4.772,2.02-5.365c0.399-0.644,3.18-1.849,3.33-3.801c0.057-0.742,0.648-1.428,0.566-2.265
		c-0.017-0.172,0.092-0.401,0.219-0.531c1.707-1.771,5.599-6.549,4.801-8.707c-1.713-4.635,0.996-2.657,2.697-3.003
		c0.851-0.175,1.883-0.311,2.154-1.458c0.02-0.089,0.187-0.153,0.294-0.211c1.618-0.905,3.263-1.778,3.705-3.826
		c0.063-0.307,0.29-0.609,0.598-0.579c1.002,0.103,4.22-3.106,4.492-3.75c1.099-0.146,1.407,0.639,1.516,1.438
		c0.122,0.884,0.549,1.583,1.16,2.113c0.757,0.659-0.111,2.905,0.993,3.175c0.933,1.887,1.59,6.16,2.867,7.697
		c0.389,0.47,0.767,1.039,1.275,1.35c1.823,1.11,3.221,2.566,4.538,4.272c2.263,2.928,9.153,2.706,12.449,4.596
		c0.005,0.413,0.6,2.634,0.729,3.032c0.577,1.812,0.877,1.472-0.451,3.07c-0.326,0.395-1.504,2.607-2.542,4.307
		c-1.363,0.022-2.728,0.045-4.094,0.074c-2.099,0.043-4.197,0.221-6.297,0.193c-3.496-0.044-6.986-0.26-10.482-0.305
		c-3.688-0.049-13.582-0.264-14.84-0.236c-2.051,0.044-4.098,0.196-6.153-0.043c-0.923-0.107-1.866-0.069-2.799-0.044
		c-1.346,0.038-2.696,0.229-4.035,0.163c-2.577-0.13-5.133,0.054-7.693,0.259c-0.923,0.073-1.847,0.172-2.771,0.187
		c-2.515,0.046-5.031,0.033-7.546,0.084c-1.633,0.033-3.266,0.143-4.898,0.209c-1.116,0.047-3.814,0.123-4.047,0.129
		c-2.935,0.09-5.873,0.131-8.804,0.285c-2.28,0.121-4.548,0.386-6.842,0.283c-1.628-0.072-3.266,0.069-4.894,0.007
		c-2.656-0.102-5.31-0.297-7.965-0.442c-3.074-0.17-6.147-0.392-9.227-0.103c-0.371,0.034-4.659,0.021-6.428,0.035
		c-0.838,0.007-14.902,0.786-15.732,0.872l12.293,0.864c2.24-0.077,3.788,1.009,6.027,0.897c0.545-0.025,1.085-0.181,1.729-0.293
		c0.895,0.37,0.895,0.327,1.914,0.31c1.11-0.021,6.023,0.288,7.355-0.101c0.782-0.227,1.567-0.195,2.199,0.333
		c0.349-0.093,0.664-0.29,0.883-0.214c1.106,0.387,6.946,0.031,8.752-0.021c1.292-0.037,2.589-0.161,3.874-0.076
		c2,0.134,3.991,0.29,5.989,0.006c0.183-0.026,5.018-0.074,7.252-0.108c1.201-0.019,2.42-0.266,3.597-0.125
		c1.176,0.141,17.73,0.268,18.196,0.283c0.79,0.029,1.578,0.116,2.368,0.134c2.094,0.041,8.802,0.356,9.914-0.102
		c0.563,0.088,1.017,0.204,1.475,0.22c1.672,0.06,3.355-0.019,5.016,0.146c2.178,0.218,4.352,0.011,6.525,0.127
		c1.289,0.067,3.878,0.189,3.88,0.241c0.384-0.164,0.769-0.329,1.181-0.505c0.91,0.421,1.868,0.522,2.863,0.361
		c0.274-0.045,0.562-0.051,0.839-0.027c2.753,0.243,5.497,0.087,8.242-0.146c0.275-0.023,0.558,0.017,0.833,0.022
		c0.887,0.019,6.732,0.314,7.361-0.025c0.771,0.058,2.515,0.083,2.874,0.134c2.13,0.31,10.061,0.206,11.88,0.151
		c0.228-0.006,0.466,0.021,0.688,0.08c0.797,0.216,1.567,0.116,2.41-0.187c1.312,0.459,2.525,0.043,3.832-0.168
		c0.281,0.093,0.631,0.204,0.98,0.318c0.554-0.135,1.098-0.27,1.617-0.4c1.424,0.314,1.784,0.307,3.456-0.06
		c0.658,0.019,6.64-0.031,7.655-0.07c1.093-0.044,2.241,0.226,3.215-0.557c0.453,0.165,0.887,0.323,1.176,0.427
		c1.085-0.044,2.011-0.103,2.938-0.112c0.511-0.004,1.024,0.107,1.535,0.114c1.49,0.02,8.949-0.044,11.188-0.045
		c1.768-0.001,15.169,0.09,17.308,0.08c1.208-0.006,2.424,0.12,3.624,0.015c2.183-0.191,4.387,0.124,6.562-0.251
		c0.135-0.022,0.279-0.003,0.419,0.008c1.819,0.158,3.599-0.092,5.434-0.517c0.604,0.43,11.706-1.509,12.461-1.608L219.98,176.347z
		 M128.851,110.923c0.504-0.908,1.055-7.411,1.696-8.428c0.691,0.603,3.03,5.46,3.104,6.183c0.304,3.026,1.01,5.127-0.116,10.174
		c-0.162,0.722-2.543,1.534-2.757,2.312c-0.633-0.179-1.499-1.895-1.659-2.236c-0.208-0.444-0.542-0.928-0.333-1.568
		c0.23-0.715,0.035-1.457-0.131-2.218C128.358,113.753,128.078,112.32,128.851,110.923z"/>
</g>
<path fill-rule="evenodd" clip-rule="evenodd" d="M211.221,220.143c-1.757,0.191-3.512,0.435-5.272,0.559
	c-1.767,0.128-7.393,0.359-8.433,0.394c-0.549,0.018-1.102-0.127-1.647-0.097c-1.439,0.083-2.875,0.238-4.314,0.33
	c-0.617,0.039-5.852-0.076-7.848-0.132c-0.284-0.008-0.567-0.148-0.964-0.257c-1.013,0.249-2.168,0.112-3.287,0.264
	c-1.771,0.239-3.529-0.043-5.295,0.127c-1.362,0.13-2.743-0.096-4.117-0.112c-1.008-0.01-5.83,0.144-7.224,0.293
	c-1.268,0.136-2.526-0.029-3.788,0.02c-1.235,0.051-2.474,0.139-3.709,0.145c-0.646,0.004-1.294-0.137-1.939-0.217
	c-0.096-0.011-0.191-0.07-0.284-0.061c-2.189,0.227-4.382-0.048-6.574,0.13c-1.003,0.081-2.021-0.176-3.035-0.193
	c-0.882-0.015-9.464,0.185-10.906,0.153c-0.719-0.015-1.429-0.01-2.138,0.161c-0.286,0.07-0.588,0.062-0.882,0.057
	c-1.704-0.038-3.407-0.141-5.111-0.118c-1.663,0.023-3.334-0.062-4.986,0.294c-0.066,0.014-0.131,0.058-0.192,0.047
	c-1.049-0.171-6.007,0.254-6.526,0.28c-0.054-0.026-0.295-0.145-0.563-0.273c-0.558,0.118-1.14,0.241-1.72,0.363
	c-0.162,0.034-3.015,0.257-4.289,0.022c-0.662-0.121-1.363,0.17-2.045,0.16c-1.893-0.029-3.775,0.351-5.677,0.112
	c-0.871-0.111-1.764,0.076-2.647,0.1c-0.419,0.01-0.839-0.051-1.256-0.098c-3.544,0.073-7.085-0.037-10.733-0.427
	c-0.108-0.114-0.301-0.322-0.53-0.569c-0.541,0.449-1.132,0.55-1.768,0.518c-0.782-0.045-1.575,0.094-2.349-0.018
	c-1.169-0.163-2.333-0.082-3.499-0.073c-1.307,0.012-5.095,0.146-5.681,0.155c-0.684,0.007-7.271-0.324-7.718-0.375
	c-0.869,0.295-1.871,0.339-2.782,0.117c-1.188,0.067-2.255,0.357-3.375,0.223c-1.425-0.168-8.82,0.12-11.073,0.041
	c-1.704-0.062-8.512-0.056-10.215,0.056c-1.535,0.098-3.083-0.032-4.623-0.136c-1.7-0.109-6.996-0.505-7.946-0.542
	c-0.982-0.04-1.965-0.083-2.946-0.158c-0.487-0.035-0.97-0.14-1.473-0.217c0.142-0.456,0.442-0.413,0.678-0.438
	c1.695-0.19,3.373-0.619,5.095-0.42c0.941,0.11,1.9-0.015,2.85-0.006c0.423,0.006,0.847,0.115,1.271,0.12
	c1.406,0.02,2.806-0.009,4.211-0.215c1.79-0.264,3.592-0.405,5.4-0.284c0.653,0.044,6.552-0.292,8.853-0.161
	c1.436,0.081,10.873-0.55,14.15-0.685c1.042-0.042,2.09,0.167,3.138,0.212c1.312,0.059,2.624,0.065,3.937,0.089
	c2.295,0.044,14.331,0.108,16.037,0.136c0.852,0.014,1.704-0.032,2.556-0.02c3.478,0.055,6.952-0.073,10.425-0.31
	c1.438-0.098,7.998,0.156,9.831,0.104c1.967-0.059,3.927,0.138,5.891,0.109c2.553-0.035,5.105-0.17,7.657-0.241
	c0.655-0.019,1.311,0.062,1.967,0.059c1.146-0.008,7.043,0.039,8.845,0.062c1.215,0.018,2.43-0.006,3.643-0.047
	c1.441-0.047,2.883-0.094,4.321-0.206c2.225-0.175,4.442-0.438,6.668-0.601c1.308-0.095,2.619-0.086,3.93-0.085
	c1.14,0,2.282,0.043,3.422,0.091c0.948,0.038,1.903,0.234,2.842,0.146c1.25-0.117,6.536,0.205,7.944,0.285
	c0.653,0.039,5.999,0.497,8.023,0.594c1.176,0.056,2.358-0.06,3.537-0.153c2.46-0.195,4.918-0.006,7.377,0.041
	c1.242,0.024,6.094-0.238,7.273-0.194c2.452,0.091,4.9,0.267,7.353,0.354c2.098,0.071,4.196,0.057,6.294,0.101
	c1.635,0.033,3.271,0.102,4.907,0.146c0.775,0.02,1.553,0.005,2.33,0.039c0.254,0.01,0.507,0.118,0.758,0.185
	C211.242,220.045,211.232,220.093,211.221,220.143z"/>
</svg>
