<?xml version="1.0" encoding="utf-8"?>
<!-- Generator: Adobe Illustrator 16.0.0, SVG Export Plug-In . SVG Version: 6.00 Build 0)  -->
<!DOCTYPE svg PUBLIC "-//W3C//DTD SVG 1.1//EN" "http://www.w3.org/Graphics/SVG/1.1/DTD/svg11.dtd" [
	<!ENTITY ns_flows "http://ns.adobe.com/Flows/1.0/">
	<!ENTITY ns_extend "http://ns.adobe.com/Extensibility/1.0/">
	<!ENTITY ns_ai "http://ns.adobe.com/AdobeIllustrator/10.0/">
	<!ENTITY ns_graphs "http://ns.adobe.com/Graphs/1.0/">
]>
<svg version="1.1" id="Layer_1" xmlns:x="&ns_extend;" xmlns:i="&ns_ai;" xmlns:graph="&ns_graphs;"
	 xmlns="http://www.w3.org/2000/svg" xmlns:xlink="http://www.w3.org/1999/xlink" xmlns:a="http://ns.adobe.com/AdobeSVGViewerExtensions/3.0/"
	 x="0px" y="0px" width="232.04px" height="237.994px" viewBox="0 0 232.04 237.994" enable-background="new 0 0 232.04 237.994"
	 xml:space="preserve">
<g>
	<g>
		<path d="M19.209,168.099c0-2.689,0.451-5.158,1.354-7.406c0.903-2.246,2.142-4.186,3.716-5.816
			c1.575-1.623,3.434-2.881,5.575-3.768c2.142-0.885,4.433-1.328,6.875-1.328c2.55,0,4.894,0.443,7.035,1.328
			c2.142,0.887,3.991,2.133,5.548,3.744c1.557,1.609,2.779,3.541,3.664,5.785c0.884,2.25,1.328,4.734,1.328,7.461
			c0,2.619-0.434,5.053-1.302,7.301s-2.079,4.203-3.637,5.865c-1.557,1.666-3.406,2.973-5.547,3.93
			c-2.141,0.955-4.504,1.432-7.088,1.432c-2.619,0-5.008-0.469-7.167-1.406c-2.16-0.936-4.009-2.236-5.549-3.902
			c-1.539-1.662-2.725-3.619-3.557-5.865C19.625,173.205,19.209,170.753,19.209,168.099z M24.677,166.667
			c0,2.229,0.283,4.387,0.85,6.477c0.565,2.086,1.406,3.936,2.521,5.547c1.115,1.611,2.486,2.902,4.115,3.877
			c1.627,0.973,3.503,1.457,5.628,1.457c1.733,0,3.282-0.379,4.645-1.141c1.363-0.76,2.522-1.795,3.478-3.105
			c0.955-1.311,1.68-2.848,2.176-4.619c0.496-1.77,0.743-3.662,0.743-5.682c0-2.371-0.337-4.6-1.008-6.689
			c-0.672-2.086-1.592-3.91-2.761-5.467c-1.167-1.557-2.557-2.779-4.168-3.664c-1.61-0.885-3.371-1.328-5.282-1.328
			c-1.558,0-3.009,0.348-4.353,1.035c-1.347,0.691-2.505,1.664-3.478,2.922c-0.975,1.258-1.735,2.76-2.283,4.512
			C24.951,162.552,24.677,164.505,24.677,166.667z"/>
		<path d="M69.751,162.365h5.415c0,0.355-0.036,0.752-0.106,1.195c-0.071,0.441-0.212,0.842-0.425,1.193
			c-1.876,0-3.503,0.213-4.884,0.639v12.953c0,1.168,0.087,2.105,0.266,2.814c0.176,0.709,0.459,1.271,0.849,1.699
			c0.389,0.426,0.877,0.717,1.46,0.877c0.584,0.158,1.301,0.256,2.151,0.289c0.176,0.498,0.265,1.258,0.265,2.283
			c-0.814-0.07-1.822-0.115-3.026-0.133c-1.204-0.018-2.424-0.025-3.663-0.025h-1.964c-0.673,0-1.328,0.008-1.965,0.025
			s-1.221,0.037-1.752,0.053c-0.53,0.02-0.973,0.045-1.327,0.08c0-1.025,0.088-1.785,0.265-2.283
			c1.416-0.068,2.38-0.416,2.894-1.033c0.513-0.619,0.769-1.814,0.769-3.584v-14.176c-0.778-0.176-1.548-0.301-2.309-0.371
			c-0.762-0.07-1.407-0.107-1.938-0.107c0-0.955,0.247-1.752,0.743-2.389h3.503v-2.123c0-1.984,0.319-3.725,0.957-5.229
			c0.636-1.506,1.477-2.764,2.521-3.771c1.043-1.01,2.23-1.76,3.557-2.256c1.328-0.496,2.682-0.744,4.062-0.744
			c1.38,0,2.416,0.133,3.105,0.398c0.691,0.266,1.336,0.576,1.938,0.928c-0.071,1.135-0.125,2.215-0.16,3.242
			c-0.036,1.025-0.053,2.016-0.053,2.971c-0.46,0.141-0.955,0.248-1.486,0.318c-0.531,0.07-1.044,0.107-1.54,0.107
			c0-1.451-0.319-2.652-0.956-3.609c-0.637-0.957-1.699-1.436-3.186-1.436c-1.452,0-2.478,0.646-3.079,1.939
			c-0.601,1.291-0.902,3.125-0.902,5.494V162.365z"/>
		<path d="M90.404,174.31c-1.168,0.037-2.302,0.09-3.397,0.16c0.034,0.777,0.123,1.539,0.265,2.283
			c0.248,1.273,0.665,2.424,1.248,3.449c0.584,1.029,1.372,1.859,2.362,2.496c0.991,0.637,2.266,0.957,3.824,0.957
			c1.168,0,2.318-0.256,3.451-0.771c1.132-0.512,2.142-1.283,3.025-2.309c0.283,0.176,0.549,0.424,0.797,0.742
			c0.247,0.32,0.406,0.621,0.478,0.904c-1.238,1.592-2.637,2.725-4.194,3.398c-1.558,0.672-3.31,1.006-5.255,1.006
			c-1.876,0-3.523-0.334-4.938-1.006c-1.417-0.674-2.594-1.576-3.531-2.709s-1.638-2.467-2.097-4.01
			c-0.461-1.537-0.69-3.176-0.69-4.912c0-1.697,0.257-3.307,0.77-4.83c0.513-1.521,1.238-2.865,2.177-4.035
			c0.938-1.168,2.087-2.088,3.452-2.76c1.361-0.67,2.892-1.01,4.591-1.01c1.733,0,3.203,0.293,4.407,0.877
			c1.203,0.584,2.193,1.373,2.973,2.363c0.778,0.99,1.372,2.15,1.778,3.477c0.407,1.326,0.664,2.752,0.771,4.273
			c-0.143,0.709-0.408,1.311-0.796,1.807h-2.709c-1.203,0-2.558,0.01-4.061,0.027C93.598,174.197,92.031,174.242,90.404,174.31z
			 M87.377,168.525c-0.212,0.885-0.354,1.963-0.425,3.238h10.194c0-2.336-0.426-4.23-1.274-5.682
			c-0.849-1.451-2.053-2.178-3.611-2.178c-0.636,0-1.274,0.135-1.911,0.398c-0.636,0.266-1.212,0.742-1.725,1.436
			C88.113,166.425,87.696,167.355,87.377,168.525z"/>
		<path d="M118.543,170.328c-0.248,0.781-0.39,1.574-0.425,2.391v5.627c0,1.168,0.088,2.105,0.266,2.814
			c0.176,0.709,0.459,1.271,0.849,1.699c0.39,0.426,0.877,0.717,1.46,0.877c0.585,0.158,1.301,0.256,2.151,0.289
			c0.176,0.498,0.265,1.258,0.265,2.283c-0.815-0.07-1.823-0.115-3.027-0.133c-1.202-0.018-2.424-0.025-3.663-0.025h-1.963
			c-0.674,0-1.327,0.008-1.966,0.025c-0.637,0.018-1.22,0.037-1.751,0.053c-0.53,0.02-0.975,0.045-1.328,0.08
			c0-1.025,0.089-1.785,0.267-2.283c1.415-0.068,2.38-0.416,2.893-1.033c0.513-0.619,0.77-1.814,0.77-3.584v-10.512
			c0-0.639-0.044-1.188-0.133-1.646c-0.088-0.459-0.273-0.84-0.557-1.143c-0.284-0.299-0.683-0.529-1.195-0.689
			c-0.513-0.158-1.212-0.256-2.097-0.293c0-0.387,0.034-0.742,0.106-1.062c0.07-0.316,0.194-0.617,0.371-0.9
			c0.531-0.035,1.123-0.115,1.779-0.24c0.654-0.121,1.309-0.264,1.964-0.424c0.654-0.16,1.274-0.336,1.858-0.531
			c0.585-0.191,1.089-0.396,1.512-0.611c0.32,0.107,0.594,0.328,0.824,0.664c0.229,0.338,0.346,0.895,0.346,1.674
			c0,1.238-0.106,2.334-0.319,3.291l-0.478,2.176c0.212-0.529,0.372-1.008,0.478-1.432c0.213-0.639,0.46-1.17,0.744-1.594
			c0.777-1.238,1.698-2.264,2.76-3.078c1.062-0.816,2.283-1.223,3.664-1.223c0.707,0,1.354,0.105,1.937,0.318
			c0.585,0.213,1.16,0.531,1.727,0.957c-0.142,0.885-0.239,1.92-0.292,3.105c-0.054,1.186-0.08,2.238-0.08,3.16
			c-0.318,0.104-0.752,0.213-1.3,0.316c-0.551,0.105-1.125,0.16-1.726,0.16c-0.071-1.699-0.346-2.814-0.822-3.344
			c-0.479-0.533-1.072-0.797-1.779-0.797c-0.462,0-0.957,0.195-1.488,0.584c-0.53,0.389-1.017,0.928-1.458,1.619
			C119.242,168.603,118.861,169.41,118.543,170.328z"/>
		<path d="M143.125,174.31c-1.17,0.037-2.302,0.09-3.399,0.16c0.037,0.777,0.124,1.539,0.267,2.283
			c0.246,1.273,0.663,2.424,1.247,3.449c0.583,1.029,1.37,1.859,2.361,2.496s2.267,0.957,3.823,0.957
			c1.168,0,2.317-0.256,3.451-0.771c1.133-0.512,2.142-1.283,3.026-2.309c0.283,0.176,0.548,0.424,0.796,0.742
			c0.248,0.32,0.408,0.621,0.478,0.904c-1.239,1.592-2.636,2.725-4.193,3.398c-1.559,0.672-3.31,1.006-5.256,1.006
			c-1.877,0-3.522-0.334-4.938-1.006c-1.416-0.674-2.592-1.576-3.528-2.709c-0.938-1.133-1.641-2.467-2.1-4.01
			c-0.459-1.537-0.689-3.176-0.689-4.912c0-1.697,0.256-3.307,0.77-4.83c0.514-1.521,1.239-2.865,2.176-4.035
			c0.938-1.168,2.091-2.088,3.452-2.76c1.362-0.67,2.894-1.01,4.593-1.01c1.734,0,3.203,0.293,4.406,0.877
			c1.204,0.584,2.194,1.373,2.974,2.363c0.776,0.99,1.37,2.15,1.777,3.477c0.408,1.326,0.665,2.752,0.771,4.273
			c-0.143,0.709-0.406,1.311-0.796,1.807h-2.708c-1.203,0-2.557,0.01-4.061,0.027C146.318,174.197,144.751,174.242,143.125,174.31z
			 M140.097,168.525c-0.213,0.885-0.354,1.963-0.424,3.238h10.192c0-2.336-0.425-4.23-1.274-5.682
			c-0.849-1.451-2.054-2.178-3.61-2.178c-0.636,0-1.273,0.135-1.911,0.398c-0.636,0.266-1.212,0.742-1.726,1.436
			C140.832,166.425,140.415,167.355,140.097,168.525z"/>
		<path d="M182.04,182.009c-0.956,1.52-2.143,2.672-3.557,3.451c-1.239,0.672-2.69,1.061-4.354,1.166l-1.593,2.178
			c1.416,0.246,2.539,0.797,3.372,1.646c0.831,0.85,1.248,1.91,1.248,3.186c0,0.883-0.223,1.662-0.663,2.336
			c-0.445,0.674-1.01,1.229-1.7,1.672s-1.433,0.779-2.23,1.01c-0.795,0.23-1.531,0.346-2.203,0.346
			c-0.141-0.252-0.239-0.523-0.292-0.824s-0.08-0.594-0.08-0.877c1.062,0,2.026-0.256,2.895-0.77
			c0.866-0.512,1.301-1.23,1.301-2.148c0-0.889-0.328-1.586-0.982-2.098c-0.656-0.514-1.479-0.771-2.468-0.771
			c-0.285-0.211-0.514-0.486-0.69-0.824c-0.179-0.334-0.267-0.732-0.267-1.193l1.859-3.025c-0.78-0.104-1.559-0.318-2.337-0.637
			c-1.311-0.531-2.487-1.318-3.531-2.363c-1.044-1.043-1.884-2.344-2.521-3.9c-0.638-1.557-0.956-3.381-0.956-5.469
			c0-1.596,0.238-3.15,0.716-4.672c0.479-1.523,1.186-2.885,2.125-4.09c0.936-1.203,2.088-2.166,3.451-2.893
			c1.361-0.727,2.945-1.09,4.751-1.09c3.326,0,5.999,0.797,8.017,2.391c-0.179,1.025-0.284,2.035-0.319,3.025
			c-0.036,0.992-0.053,1.998-0.053,3.025c-0.282,0.178-0.663,0.293-1.141,0.346c-0.479,0.053-0.911,0.08-1.301,0.08
			c-0.213-2.053-0.815-3.629-1.806-4.725s-2.266-1.646-3.822-1.646c-1.77,0-3.158,0.814-4.168,2.443
			c-1.009,1.629-1.513,3.963-1.513,7.008c0,1.346,0.168,2.637,0.504,3.873c0.336,1.24,0.823,2.338,1.461,3.293
			c0.636,0.957,1.423,1.719,2.362,2.283c0.937,0.568,2.024,0.85,3.266,0.85c2.37,0,4.335-1.025,5.892-3.078
			c0.282,0.141,0.549,0.344,0.796,0.609C181.755,181.398,181.933,181.691,182.04,182.009z"/>
		<path d="M188.833,173.99c0-1.803,0.292-3.475,0.877-5.016c0.585-1.539,1.406-2.877,2.469-4.008
			c1.062-1.131,2.327-2.018,3.797-2.654c1.468-0.637,3.086-0.957,4.856-0.957c1.875,0,3.558,0.303,5.044,0.904
			c1.485,0.602,2.743,1.459,3.77,2.574c1.025,1.115,1.814,2.451,2.363,4.01c0.549,1.557,0.821,3.275,0.821,5.146
			c0,1.807-0.292,3.49-0.874,5.047c-0.585,1.559-1.4,2.893-2.442,4.006c-1.046,1.115-2.303,1.992-3.771,2.629
			c-1.47,0.637-3.105,0.955-4.911,0.955c-1.804,0-3.45-0.299-4.937-0.902c-1.487-0.6-2.755-1.451-3.797-2.549
			c-1.045-1.096-1.851-2.424-2.416-3.98S188.833,175.904,188.833,173.99z M194.197,172.876c0,3.611,0.637,6.381,1.912,8.309
			c1.273,1.932,2.988,2.893,5.148,2.893c2.124,0,3.698-0.873,4.726-2.627c1.027-1.752,1.539-4.023,1.539-6.82
			c0-1.629-0.195-3.107-0.583-4.436c-0.39-1.326-0.911-2.459-1.567-3.396s-1.415-1.654-2.283-2.15
			c-0.866-0.494-1.795-0.744-2.786-0.744c-2.053,0-3.585,0.834-4.593,2.494C194.702,168.064,194.197,170.222,194.197,172.876z"/>
	</g>
	<g>
		<path d="M46.839,206.513c-0.049,0.576-0.071,1.188-0.071,1.836s0.045,1.285,0.143,1.908c-0.479,0.287-1.08,0.434-1.8,0.434
			c-0.048-0.506-0.174-0.992-0.379-1.459c-0.202-0.469-0.479-0.889-0.827-1.26c-0.349-0.373-0.764-0.672-1.243-0.9
			c-0.481-0.229-1.008-0.342-1.583-0.342c-0.745,0-1.34,0.18-1.783,0.539c-0.444,0.359-0.667,0.84-0.667,1.441
			c0,0.312,0.042,0.588,0.125,0.826c0.085,0.242,0.277,0.488,0.577,0.738c0.299,0.254,0.731,0.518,1.295,0.793
			s1.326,0.607,2.288,0.99c0.958,0.361,1.769,0.721,2.43,1.08c0.659,0.359,1.189,0.744,1.584,1.152
			c0.396,0.408,0.677,0.854,0.845,1.332c0.168,0.48,0.254,1.045,0.254,1.693c0,0.768-0.169,1.465-0.505,2.088
			c-0.336,0.623-0.798,1.158-1.387,1.602c-0.587,0.445-1.283,0.787-2.089,1.027c-0.804,0.24-1.674,0.359-2.61,0.359
			c-0.719,0-1.355-0.029-1.907-0.09c-0.552-0.061-1.062-0.143-1.531-0.252c-0.468-0.107-0.9-0.246-1.295-0.414
			c-0.397-0.168-0.799-0.359-1.207-0.576c0.023-0.289,0.048-0.623,0.072-1.008c0.025-0.385,0.037-0.785,0.037-1.207
			c0-0.418-0.006-0.828-0.018-1.223c-0.013-0.396-0.031-0.738-0.054-1.027c0.192-0.145,0.462-0.246,0.811-0.307
			c0.347-0.059,0.702-0.09,1.062-0.09c0.192,1.514,0.66,2.641,1.403,3.385c0.745,0.744,1.741,1.117,2.99,1.117
			c0.984,0,1.746-0.217,2.287-0.648c0.539-0.432,0.81-0.984,0.81-1.658c0-0.311-0.054-0.592-0.163-0.844
			c-0.108-0.254-0.305-0.492-0.593-0.721c-0.288-0.229-0.684-0.469-1.188-0.721c-0.505-0.252-1.153-0.545-1.946-0.883
			c-0.984-0.383-1.812-0.75-2.483-1.098c-0.673-0.348-1.219-0.727-1.64-1.133c-0.419-0.408-0.725-0.871-0.917-1.389
			c-0.194-0.514-0.289-1.133-0.289-1.854c0-0.768,0.197-1.434,0.595-1.998c0.396-0.564,0.894-1.031,1.494-1.404
			c0.6-0.371,1.247-0.648,1.944-0.828c0.696-0.18,1.344-0.271,1.944-0.271c1.08,0,2.028,0.109,2.844,0.326
			C45.313,205.792,46.095,206.105,46.839,206.513z"/>
		<path d="M58.578,214.039c-0.793,0.023-1.562,0.061-2.305,0.109c0.023,0.527,0.084,1.043,0.18,1.547
			c0.168,0.865,0.449,1.645,0.847,2.34c0.395,0.697,0.928,1.262,1.6,1.693c0.673,0.432,1.537,0.648,2.595,0.648
			c0.792,0,1.572-0.174,2.339-0.523c0.767-0.346,1.452-0.869,2.053-1.564c0.191,0.119,0.372,0.287,0.541,0.502
			c0.167,0.217,0.275,0.422,0.324,0.613c-0.841,1.08-1.788,1.85-2.846,2.305c-1.055,0.457-2.245,0.684-3.565,0.684
			c-1.271,0-2.387-0.227-3.347-0.684c-0.961-0.455-1.76-1.068-2.394-1.836c-0.638-0.77-1.111-1.674-1.423-2.719
			c-0.311-1.045-0.467-2.154-0.467-3.332c0-1.152,0.174-2.242,0.521-3.277c0.348-1.029,0.84-1.943,1.476-2.736
			c0.636-0.791,1.416-1.416,2.341-1.871c0.922-0.455,1.96-0.686,3.116-0.686c1.175,0,2.17,0.199,2.986,0.596
			c0.817,0.396,1.489,0.932,2.019,1.602c0.528,0.672,0.928,1.459,1.205,2.359c0.275,0.9,0.449,1.867,0.522,2.896
			c-0.096,0.48-0.275,0.891-0.541,1.227h-1.837c-0.815,0-1.734,0.006-2.755,0.018C60.745,213.962,59.681,213.992,58.578,214.039z
			 M56.524,210.115c-0.143,0.6-0.239,1.332-0.288,2.195h6.913c0-1.584-0.287-2.867-0.863-3.852c-0.578-0.984-1.393-1.479-2.45-1.479
			c-0.432,0-0.863,0.092-1.295,0.271c-0.432,0.18-0.822,0.504-1.17,0.973C57.023,208.691,56.741,209.322,56.524,210.115z"/>
		<path d="M71.756,206.476c0.312-0.021,0.685-0.07,1.117-0.143c0.432-0.072,0.871-0.168,1.314-0.289
			c0.443-0.119,0.864-0.244,1.259-0.377c0.397-0.131,0.716-0.27,0.955-0.416c0.217,0.074,0.402,0.217,0.558,0.434
			c0.157,0.217,0.234,0.553,0.234,1.008c0,0.408-0.023,0.865-0.071,1.369c0,0.24-0.024,0.539-0.073,0.9
			c0.097-0.217,0.168-0.385,0.217-0.504c0.168-0.312,0.288-0.518,0.359-0.613c0.192-0.287,0.451-0.582,0.774-0.883
			c0.325-0.301,0.703-0.576,1.135-0.828s0.923-0.461,1.476-0.629s1.141-0.254,1.764-0.254c1.01,0,1.932,0.23,2.773,0.686
			c0.84,0.455,1.452,1.236,1.836,2.342c0.071,0.238,0.12,0.539,0.143,0.898c0.074-0.215,0.146-0.396,0.217-0.539
			c0.12-0.217,0.252-0.42,0.396-0.613c0.191-0.287,0.451-0.582,0.776-0.883c0.322-0.299,0.707-0.576,1.15-0.828
			c0.444-0.25,0.937-0.461,1.478-0.629c0.539-0.168,1.121-0.252,1.747-0.252c0.67,0,1.315,0.104,1.925,0.307
			c0.613,0.203,1.152,0.533,1.62,0.99c0.469,0.455,0.841,1.057,1.116,1.801c0.275,0.742,0.415,1.668,0.415,2.771v6.193
			c0,0.625,0.041,1.135,0.125,1.531c0.084,0.395,0.217,0.707,0.396,0.936s0.408,0.391,0.685,0.486
			c0.275,0.096,0.595,0.156,0.952,0.18c0.074,0.217,0.122,0.445,0.146,0.684c0.023,0.242,0.036,0.529,0.036,0.865
			c-0.552-0.049-1.165-0.08-1.835-0.09c-0.674-0.014-1.369-0.02-2.091-0.02c-0.719,0-1.463,0.006-2.23,0.02
			c-0.77,0.01-1.455,0.041-2.053,0.09c0-0.697,0.06-1.213,0.18-1.549c0.959-0.047,1.614-0.283,1.962-0.701
			c0.348-0.42,0.523-1.232,0.523-2.432v-5.473c0-0.84-0.086-1.541-0.252-2.107c-0.168-0.564-0.396-1.014-0.685-1.35
			s-0.637-0.576-1.044-0.721c-0.409-0.145-0.853-0.217-1.332-0.217c-0.458,0-0.926,0.109-1.406,0.324
			c-0.48,0.217-0.913,0.564-1.296,1.045c-0.384,0.48-0.697,1.098-0.937,1.854s-0.359,1.688-0.359,2.791v3.854
			c0,0.625,0.048,1.135,0.144,1.531c0.096,0.395,0.241,0.707,0.432,0.936c0.192,0.229,0.451,0.391,0.774,0.486
			s0.714,0.156,1.17,0.18c0.071,0.217,0.12,0.445,0.143,0.684c0.024,0.242,0.037,0.529,0.037,0.865
			c-0.625-0.049-1.32-0.08-2.089-0.09c-0.769-0.014-1.5-0.02-2.197-0.02c-0.696,0-1.42,0.006-2.177,0.02
			c-0.757,0.01-1.459,0.041-2.106,0.09c0-0.697,0.06-1.213,0.18-1.549c0.961-0.047,1.614-0.283,1.962-0.701
			c0.348-0.42,0.521-1.232,0.521-2.432v-5.652c0-0.842-0.083-1.543-0.251-2.107c-0.168-0.564-0.396-1.014-0.684-1.352
			c-0.288-0.334-0.636-0.576-1.044-0.719s-0.853-0.217-1.333-0.217c-0.455,0-0.925,0.109-1.404,0.324
			c-0.479,0.217-0.913,0.564-1.295,1.045c-0.385,0.48-0.697,1.098-0.938,1.854c-0.24,0.756-0.359,1.688-0.359,2.791v4.033
			c0,1.199,0.18,2.012,0.541,2.432c0.361,0.418,1.02,0.654,1.98,0.701c0.071,0.217,0.12,0.445,0.144,0.684
			c0.024,0.242,0.036,0.529,0.036,0.865c-0.625-0.049-1.337-0.08-2.142-0.09c-0.804-0.014-1.519-0.02-2.144-0.02
			c-0.623,0-1.349,0.006-2.177,0.02c-0.83,0.01-1.531,0.041-2.107,0.09c0-0.697,0.06-1.213,0.18-1.549
			c0.961-0.047,1.614-0.283,1.963-0.701c0.347-0.42,0.522-1.232,0.522-2.432v-7.129c0-0.434-0.031-0.805-0.09-1.117
			c-0.06-0.311-0.186-0.57-0.378-0.775c-0.192-0.201-0.463-0.359-0.81-0.467c-0.349-0.107-0.823-0.174-1.423-0.199
			c0-0.262,0.024-0.502,0.073-0.719S71.636,206.669,71.756,206.476z"/>
		<path d="M111.078,214.039c-0.792,0.023-1.561,0.061-2.305,0.109c0.022,0.527,0.084,1.043,0.18,1.547
			c0.168,0.865,0.45,1.645,0.847,2.34c0.396,0.697,0.929,1.262,1.602,1.693c0.672,0.432,1.536,0.648,2.594,0.648
			c0.792,0,1.57-0.174,2.338-0.523c0.77-0.346,1.454-0.869,2.054-1.564c0.19,0.119,0.373,0.287,0.541,0.502
			c0.166,0.217,0.274,0.422,0.322,0.613c-0.841,1.08-1.788,1.85-2.843,2.305c-1.059,0.457-2.247,0.684-3.565,0.684
			c-1.272,0-2.389-0.227-3.349-0.684c-0.961-0.455-1.76-1.068-2.394-1.836c-0.638-0.77-1.111-1.674-1.424-2.719
			c-0.311-1.045-0.467-2.154-0.467-3.332c0-1.152,0.174-2.242,0.521-3.277c0.348-1.029,0.84-1.943,1.476-2.736
			c0.636-0.791,1.416-1.416,2.342-1.871c0.923-0.455,1.962-0.686,3.115-0.686c1.175,0,2.17,0.199,2.985,0.596
			c0.818,0.396,1.488,0.932,2.02,1.602c0.527,0.672,0.93,1.459,1.206,2.359c0.273,0.9,0.447,1.867,0.521,2.896
			c-0.097,0.48-0.276,0.891-0.539,1.227h-1.839c-0.815,0-1.734,0.006-2.755,0.018C113.245,213.962,112.181,213.992,111.078,214.039z
			 M109.024,210.115c-0.143,0.6-0.239,1.332-0.287,2.195h6.911c0-1.584-0.285-2.867-0.861-3.852
			c-0.578-0.984-1.394-1.479-2.449-1.479c-0.434,0-0.864,0.092-1.296,0.271s-0.823,0.504-1.171,0.973
			C109.523,208.691,109.241,209.322,109.024,210.115z"/>
		<path d="M140.531,217.496c0,1.248,0.174,2.082,0.521,2.502s0.881,0.631,1.603,0.631c0.071,0.217,0.12,0.445,0.143,0.684
			c0.026,0.242,0.037,0.529,0.037,0.865c-0.527-0.049-1.126-0.08-1.8-0.09c-0.673-0.014-1.38-0.02-2.124-0.02
			s-1.506,0.014-2.287,0.035c-0.778,0.025-1.446,0.049-1.996,0.074c0-0.697,0.057-1.213,0.177-1.549
			c0.863,0,1.494-0.221,1.894-0.666c0.394-0.443,0.593-1.268,0.593-2.467v-5.473c0-0.84-0.085-1.541-0.254-2.107
			c-0.168-0.564-0.399-1.014-0.701-1.35c-0.3-0.336-0.653-0.576-1.061-0.721c-0.411-0.145-0.854-0.217-1.332-0.217
			c-0.482,0-0.961,0.109-1.44,0.324c-0.482,0.217-0.913,0.564-1.298,1.045s-0.701,1.098-0.952,1.854
			c-0.254,0.756-0.38,1.688-0.38,2.791v3.854c0,1.199,0.18,2.023,0.539,2.467c0.359,0.445,1.01,0.666,1.945,0.666
			c0.071,0.217,0.12,0.445,0.146,0.684c0.022,0.242,0.034,0.529,0.034,0.865c-0.505-0.025-1.158-0.049-1.962-0.074
			c-0.805-0.021-1.58-0.035-2.321-0.035c-0.744,0-1.515,0.006-2.305,0.02c-0.793,0.01-1.454,0.041-1.981,0.09
			c0-0.697,0.06-1.213,0.179-1.549c0.938,0,1.586-0.221,1.945-0.666c0.359-0.443,0.542-1.268,0.542-2.467v-7.129
			c0-0.434-0.031-0.805-0.091-1.117c-0.061-0.311-0.188-0.57-0.38-0.775c-0.19-0.201-0.462-0.359-0.81-0.467
			s-0.821-0.174-1.423-0.199c0-0.262,0.025-0.502,0.073-0.719c0.046-0.217,0.132-0.42,0.251-0.613
			c0.359-0.021,0.762-0.078,1.207-0.162c0.444-0.082,0.887-0.18,1.332-0.287c0.444-0.109,0.863-0.227,1.26-0.359
			c0.396-0.131,0.739-0.27,1.027-0.416c0.217,0.074,0.401,0.223,0.559,0.451c0.154,0.229,0.233,0.605,0.233,1.135
			c0,0.289-0.014,0.611-0.037,0.971c-0.025,0.361-0.097,0.744-0.216,1.154c0.073-0.121,0.146-0.258,0.216-0.414
			c0.072-0.156,0.18-0.33,0.325-0.523c0.191-0.287,0.457-0.582,0.793-0.883c0.334-0.299,0.725-0.576,1.17-0.828
			c0.444-0.25,0.935-0.461,1.477-0.629c0.539-0.168,1.133-0.252,1.782-0.252c0.671,0,1.321,0.104,1.945,0.307
			c0.622,0.203,1.175,0.533,1.654,0.99c0.481,0.455,0.858,1.057,1.135,1.801c0.276,0.742,0.414,1.668,0.414,2.771V217.496z"/>
		<path d="M149.208,205.937v-4.754c0.479-0.119,0.961-0.311,1.44-0.576c0.479-0.264,0.901-0.551,1.261-0.863
			c0.119,0.049,0.217,0.104,0.288,0.162c0.071,0.061,0.131,0.156,0.18,0.287c0.048,0.133,0.076,0.307,0.091,0.523
			c0.012,0.215,0.018,0.516,0.018,0.9v4.32h4.646c0,0.529-0.108,1.057-0.325,1.586c-1.751,0.07-3.191,0.227-4.32,0.467v9.002
			c0,1.223,0.179,2.105,0.538,2.646c0.362,0.541,0.867,0.811,1.515,0.811c0.502,0,0.941-0.072,1.314-0.217
			c0.371-0.143,0.725-0.359,1.062-0.648c0.311,0.359,0.493,0.756,0.542,1.188c-0.411,0.457-0.999,0.842-1.766,1.152
			c-0.771,0.312-1.537,0.469-2.305,0.469c-1.439,0-2.498-0.359-3.168-1.08c-0.673-0.721-1.01-1.908-1.01-3.564v-9.758
			c-0.359-0.119-0.732-0.217-1.115-0.289c-0.385-0.072-0.878-0.131-1.477-0.178c0-0.312,0.022-0.584,0.071-0.812
			c0.048-0.227,0.131-0.486,0.251-0.773H149.208z"/>
		<path d="M167.104,214.039c-0.793,0.023-1.56,0.061-2.305,0.109c0.023,0.527,0.083,1.043,0.18,1.547
			c0.169,0.865,0.451,1.645,0.848,2.34c0.396,0.697,0.93,1.262,1.603,1.693c0.67,0.432,1.534,0.648,2.592,0.648
			c0.793,0,1.572-0.174,2.342-0.523c0.768-0.346,1.451-0.869,2.051-1.564c0.193,0.119,0.37,0.287,0.542,0.502
			c0.168,0.217,0.273,0.422,0.322,0.613c-0.839,1.08-1.788,1.85-2.844,2.305c-1.058,0.457-2.244,0.684-3.564,0.684
			c-1.275,0-2.391-0.227-3.352-0.684c-0.958-0.455-1.757-1.068-2.393-1.836c-0.636-0.77-1.112-1.674-1.423-2.719
			s-0.468-2.154-0.468-3.332c0-1.152,0.174-2.242,0.521-3.277c0.349-1.029,0.839-1.943,1.478-2.736
			c0.636-0.791,1.415-1.416,2.339-1.871c0.927-0.455,1.965-0.686,3.117-0.686c1.175,0,2.173,0.199,2.988,0.596
			s1.489,0.932,2.017,1.602c0.527,0.672,0.93,1.459,1.206,2.359s0.45,1.867,0.521,2.896c-0.097,0.48-0.276,0.891-0.541,1.227h-1.834
			c-0.818,0-1.737,0.006-2.755,0.018C169.271,213.962,168.208,213.992,167.104,214.039z M165.05,210.115
			c-0.143,0.6-0.239,1.332-0.288,2.195h6.916c0-1.584-0.288-2.867-0.864-3.852s-1.392-1.479-2.449-1.479
			c-0.431,0-0.864,0.092-1.298,0.271c-0.431,0.18-0.821,0.504-1.169,0.973C165.549,208.691,165.267,209.322,165.05,210.115z"/>
		<path d="M191.445,206.513c-0.049,0.576-0.071,1.188-0.071,1.836s0.048,1.285,0.146,1.908c-0.482,0.287-1.081,0.434-1.8,0.434
			c-0.049-0.506-0.174-0.992-0.38-1.459c-0.205-0.469-0.479-0.889-0.829-1.26c-0.346-0.373-0.762-0.672-1.241-0.9
			c-0.481-0.229-1.009-0.342-1.585-0.342c-0.745,0-1.338,0.18-1.78,0.539c-0.447,0.359-0.667,0.84-0.667,1.441
			c0,0.312,0.04,0.588,0.126,0.826c0.082,0.242,0.276,0.488,0.575,0.738c0.3,0.254,0.733,0.518,1.298,0.793
			c0.562,0.275,1.326,0.607,2.284,0.99c0.962,0.361,1.771,0.721,2.43,1.08c0.662,0.359,1.189,0.744,1.586,1.152
			s0.679,0.854,0.847,1.332c0.169,0.48,0.251,1.045,0.251,1.693c0,0.768-0.168,1.465-0.504,2.088
			c-0.334,0.623-0.799,1.158-1.387,1.602c-0.587,0.445-1.283,0.787-2.087,1.027c-0.805,0.24-1.675,0.359-2.609,0.359
			c-0.722,0-1.357-0.029-1.911-0.09c-0.551-0.061-1.061-0.143-1.528-0.252c-0.468-0.107-0.901-0.246-1.298-0.414
			c-0.394-0.168-0.799-0.359-1.206-0.576c0.025-0.289,0.048-0.623,0.074-1.008c0.022-0.385,0.034-0.785,0.034-1.207
			c0-0.418-0.006-0.828-0.018-1.223c-0.012-0.396-0.031-0.738-0.054-1.027c0.19-0.145,0.462-0.246,0.81-0.307
			c0.348-0.059,0.701-0.09,1.061-0.09c0.194,1.514,0.662,2.641,1.406,3.385s1.739,1.117,2.989,1.117
			c0.983,0,1.748-0.217,2.287-0.648s0.81-0.984,0.81-1.658c0-0.311-0.055-0.592-0.163-0.844c-0.107-0.254-0.305-0.492-0.593-0.721
			c-0.291-0.229-0.685-0.469-1.189-0.721s-1.151-0.545-1.944-0.883c-0.984-0.383-1.812-0.75-2.484-1.098s-1.221-0.727-1.64-1.133
			c-0.419-0.408-0.725-0.871-0.918-1.389c-0.191-0.514-0.285-1.133-0.285-1.854c0-0.768,0.196-1.434,0.593-1.998
			s0.893-1.031,1.494-1.404c0.599-0.371,1.246-0.648,1.942-0.828c0.698-0.18,1.346-0.271,1.945-0.271c1.08,0,2.03,0.109,2.846,0.326
			C189.921,205.792,190.701,206.105,191.445,206.513z"/>
	</g>
</g>
<g>
	<path fill-rule="evenodd" clip-rule="evenodd" d="M36.771,43.465c0.025,0.02,0.045,0.046,0.07,0.065
		c0.674,0.533,2.325,0.484,2.975-0.062c1.533-1.289,2.623-2.972,3.962-4.432c0.128-0.139,0.243-0.312,0.137-0.526
		c-0.14-0.14-0.292-0.06-0.45-0.039c-2.462,0.328-4.514,1.631-6.604,2.819C35.244,42.211,35.265,42.352,36.771,43.465z"/>
	<path fill-rule="evenodd" clip-rule="evenodd" d="M27.761,38.635c0.139-0.012,0.272-0.16,0.398-0.26
		c1.246-0.972,2.374-2.071,3.448-3.228c0.275-0.295,0.726-0.604,0.394-1.058c-0.312-0.428-0.779-0.411-1.308-0.252
		c-1.486,0.451-2.587,1.542-3.892,2.289c-1.015,0.579-2.115,1.082-3.097,2.035C25.085,38.958,26.432,38.744,27.761,38.635z"/>
	<path fill-rule="evenodd" clip-rule="evenodd" d="M43.393,16.485c-0.43,0.628-0.427,1.302-0.081,1.925
		c0.353,0.637,1.044,0.469,1.578,0.375c0.891-0.154,1.792-0.443,2.668-0.184c1.479,0.437,2.97,0.349,4.618,0.315
		c-0.185-0.203-0.258-0.311-0.355-0.385c-2.275-1.737-4.936-2.265-7.705-2.449C43.798,16.062,43.57,16.227,43.393,16.485z"/>
	<path fill-rule="evenodd" clip-rule="evenodd" d="M29.146,25.376c0.529-0.385,1.08-0.639,1.701-0.849
		c1.637-0.553,3.405-0.73,4.966-1.753c-0.66-0.789-1.411-1.147-2.451-1.087c-1.265,0.074-2.487,0.336-3.684,0.677
		c-1.356,0.387-1.826,1.133-1.76,2.386C27.967,25.686,28.39,25.925,29.146,25.376z"/>
	<path fill-rule="evenodd" clip-rule="evenodd" d="M41.193,7.963c2.341,0.375,4.668,0.794,6.888,2.054
		c-1.154-2.486-4.952-4.95-7.393-4.899c-0.137,0.717-0.1,1.452-0.076,2.186C40.625,7.684,40.83,7.904,41.193,7.963z"/>
	<path fill-rule="evenodd" clip-rule="evenodd" d="M39.091,31.234c0.554-0.142,1.269-0.025,1.623-0.635
		c0.598-1.031,1.817-1.273,2.568-2.109c0.146-0.161,0.516-0.141,0.443-0.496c-0.059-0.294-0.303-0.388-0.571-0.435
		c-0.412-0.071-0.811-0.133-1.229,0.029c-1.044,0.403-2.073,0.833-3.203,1.008c-0.762,0.118-1.166,0.762-1.277,1.518
		C37.401,30.408,38.641,31.231,39.091,31.234z"/>
	<path fill-rule="evenodd" clip-rule="evenodd" d="M54.454,39.661c0.318-0.465,0.745-1.129,1.158-1.479
		c0.905-0.768,1.335-0.823,2.376-1.417c-0.833-0.251-1.619-0.525-2.283-0.444c-0.697,0.084-1.316,0.364-1.95,0.721
		c-1.243,0.696-1.51,1.313-0.833,2.52C53.315,40.259,53.998,40.325,54.454,39.661z"/>
	<path fill-rule="evenodd" clip-rule="evenodd" d="M53.881,29.585c-1.229-0.09-2.464-0.266-3.689-0.217
		c-0.674,0.027-1.378,0.358-1.988,0.698c-0.684,0.381-0.775,1.041-0.458,1.766c0.351,0.802,0.853,0.416,1.354,0.221
		c0.78-0.306,1.56-0.605,2.354-0.874c0.984-0.332,1.914-0.823,2.852-1.239C54.206,29.627,54.038,29.596,53.881,29.585z"/>
	<path fill-rule="evenodd" clip-rule="evenodd" d="M60.724,25.186c2.607-0.189,4.994,0.729,7.461,1.366
		c-2.041-2.459-4.625-3.243-7.619-2.305c-0.262,0.082-0.499,0.22-0.482,0.525C60.105,25.17,60.427,25.208,60.724,25.186z"/>
	<path fill-rule="evenodd" clip-rule="evenodd" d="M56.931,4.808C55.871,3.329,55.295,1.613,54.273,0
		c-0.894,0.815-0.74,1.602-0.326,2.368C54.603,3.58,55.587,4.412,56.931,4.808z"/>
	<path fill-rule="evenodd" clip-rule="evenodd" d="M230.793,139.732c-0.653-0.055-1.31-0.072-1.964-0.121
		c-1.798-0.135-3.595-0.324-5.396-0.404c-2.416-0.109-4.837-0.16-7.255-0.197c-2.21-0.033-4.412-0.387-6.629-0.174
		c-0.12,0.012-0.245-0.018-0.367-0.023c-0.858-0.053-1.717-0.125-2.577-0.152c-1.518-0.047-3.038-0.031-4.555-0.109
		c-2.996-0.152-5.99-0.197-8.987-0.049c-0.819,0.039-1.642,0.025-2.464,0.029c-1.928,0.012-3.857-0.012-5.785,0.033
		c-2.092,0.049-4.179,0.291-6.277,0.119c-0.858-0.07-1.723-0.1-2.584-0.092c-2.505,0.029-5.01,0.111-7.514,0.123
		c-1.436,0.006-2.87-0.098-4.307-0.131c-2.297-0.057-4.596-0.107-6.893-0.137c-1.555-0.02-3.11,0.029-4.664-0.004
		c-1.959-0.041-3.918-0.195-5.875-0.188c-1.72,0.006-3.437,0.088-5.158,0.035c-1.271-0.037-2.545,0.004-3.818,0.023
		c-0.12,0.002-0.241,0.004-0.361,0.006c0.016-0.33,0.301-0.934,0.459-1.213c0.568-1.002,1.912-3.475,2-3.717
		c0.187-0.514,3.539-5.689,2.445-6.584c-0.88-0.719-3.402-1.08-4.504-1.584c-0.187-0.07-2.282-1.307-4.426-1.619
		c-1.49-0.215-2.93-0.824-2.847-2.604c0.003-0.049-1.647-0.41-1.663-0.465c-0.33-1.297,0.209-1.909-0.129-3.253
		c-0.453-1.808-1.645-3.411-1.551-5.393c0.006-0.133-0.062-0.296-0.148-0.402c-0.865-1.072-0.646-2.513-1.256-3.671
		c-0.413-0.786,0.201-1.558,0.004-2.407c-0.408-1.778-0.482-3.622-0.588-5.45c-0.01-0.191,0.049-0.415,0.148-0.579
		c0.217-0.355,0.21-0.667,0.057-1.061c-0.191-0.49-0.255-1.185,0.248-1.407c0.882-0.391,1.793-0.732,2.696-1.082
		c0.677-0.263,1.274-0.514,1.586-1.214c0.262-0.588,0.677-0.995,1.346-1.107c0.16-0.028,0.343-0.124,0.444-0.246
		c1.02-1.223,2.205-2.396,2.654-3.932c0.452-1.545,1.294-2.956,1.522-4.567c0.04-0.284,0.015-0.588,0.106-0.852
		c1.095-3.087,1.014-6.206,0.415-9.381c-0.437-2.318-1.571-4.188-3.197-5.828c-0.485-0.49-3.19-3.801-3.954-4.592
		c-0.671-0.692-5.133-2.907-6.142-3.326c-0.601-0.25-2.481-0.523-3.866-0.563c-0.559-0.017-0.854-0.323-1.089-0.833
		c-0.374-0.81-0.267-1.595-0.183-2.437c0.207-2.095,0.451-4.176,0.935-6.229c0.29-1.232,0.479-2.491,0.159-3.756
		c-0.176-0.697-0.512-1.316-1.152-1.675c-1.031-0.574-1.459-0.619-2.581-0.94c-0.448-0.03-1.409-0.195-1.75-0.105
		c-1.487,0.39-2.757,0.345-3.685,1.637c-0.269,0.361-2.234,2.605-1.591,4.909c0.06,0.217,0.044,0.462,0.032,0.69
		c-0.096,1.845-1.135,6.125,2.375,6.442c0.633,0.448,0.752,1.023,0.831,1.744c-0.829,0.019-6.917,0.771-7.935-0.146
		c-0.833-0.749-3.369-1.393-3.947-2.426c-1.132-2.021-1.803-2.387-3.229-4.206c-1.343-1.713-2.13-4.644-2.943-6.795
		c-0.86-2.276-1.834-4.764-1.87-7.15c-0.004-0.353,0.234-1.112,0.35-1.447c0.591-1.62,1.777-4.484,0.907-4.068
		c-0.193,0.068-0.561,1.024-0.98,1.351c-0.272,0.559-1.311-1.321-1.343-1.978c-0.07-1.407,0.171-1.834,0.37-3.215
		c0.126-0.88,0.374-1.867,0.421-2.247c-0.083-0.015-1.314,0.648-1.396,0.633c-1.169,1.491-0.919,1.458-2.027,2.948
		c-0.075,0.543-0.372,1.683-0.062,2.535c0.745,2.049,1.006,3.486,1.096,3.884c-0.569,0.95-0.186,10.199-0.213,10.891
		c-0.076,1.912,0.176,3.707,0.981,5.47c0.456,0.999,1.174,1.892,1.377,2.987c0.227,1.222,0.766,2.311,1.314,3.391
		c0.454,0.891,4.058,5.197,4.816,5.855c0.539,0.47,7.124,3.609,8.19,4.392c1.32,0.966,0.846,3.649,1.194,5.316
		c0,0.215,0.849,4.606,1.496,6.553c0.166,0.495,0.204,1.026,0.16,1.55c-0.097,1.098-0.208,2.193-0.312,3.29
		c-0.173,1.8,0.225,3.239-0.869,4.714c-0.471,0.635-1.79,2.673-2.066,3.04c-0.452,0.601-0.831,1.264-1.327,1.824
		c-2.267,2.562-4.35,5.277-5.998,8.262c-1.475,2.664-3.414,5.071-4.42,8.003c-0.526,1.531-1.389,2.962-1.792,4.517
		c-0.851,3.292-3.501,8.709-3.976,12.098c-1.058,0.17-2.077,0.1-3.057-0.494c-1.086-0.656-2.109-1.43-3.29-1.92
		c-0.841-0.35-1.622-0.811-2.272-1.428c-0.586-0.557-1.231-0.449-1.874-0.344c-0.516,0.082-0.795,0.895-0.483,1.338
		c0.279,0.398,3.791,4.176,4.106,4.623c0.869,1.229,3.762,3.268,3.979,3.457c1.431,1.238,2.973,2.24,4.954,2.324
		c-0.241-0.299,1.453-4.197,1.776-4.719c0.351-0.564,2.796-1.625,2.928-3.34c0.05-0.654,0.57-1.256,0.498-1.992
		c-0.016-0.15,0.081-0.354,0.193-0.467c1.5-1.557,4.923-5.758,4.221-7.657c-1.506-4.075,0.876-2.336,2.372-2.641
		c0.748-0.153,1.656-0.272,1.894-1.281c0.018-0.078,0.165-0.135,0.258-0.186c1.423-0.796,2.87-1.563,3.258-3.365
		c0.056-0.269,0.255-0.535,0.526-0.508c0.881,0.09,3.71-2.732,3.95-3.298c0.966-0.128,1.236,0.562,1.333,1.264
		c0.107,0.777,0.482,1.393,1.02,1.858c0.666,0.579-0.099,2.555,0.873,2.791c0.82,1.66,1.397,5.417,2.521,6.768
		c0.343,0.414,0.674,0.914,1.121,1.188c1.604,0.977,2.833,2.256,3.991,3.756c1.99,2.576,8.049,2.381,10.947,4.041
		c0.003,0.363,0.527,2.316,0.641,2.668c0.508,1.592,0.771,1.293-0.396,2.699c-0.287,0.346-1.323,2.291-2.234,3.785
		c-1.199,0.021-2.399,0.041-3.6,0.066c-1.847,0.037-3.691,0.193-5.537,0.17c-3.074-0.039-6.144-0.229-9.218-0.268
		c-3.242-0.043-6.478-0.332-9.726-0.166c-1.104,0.055-2.216-0.066-3.322-0.043c-1.804,0.039-3.604,0.174-5.41-0.037
		c-0.811-0.094-1.641-0.061-2.46-0.039c-1.184,0.033-2.371,0.201-3.548,0.145c-2.266-0.115-4.513,0.047-6.764,0.227
		c-0.812,0.064-1.624,0.15-2.437,0.164c-2.211,0.041-4.424,0.029-6.636,0.074c-1.436,0.029-2.871,0.125-4.307,0.184
		c-0.981,0.041-1.962,0.074-2.944,0.107c-0.205,0.008-0.41,0-0.614,0.006c-2.581,0.08-5.164,0.115-7.741,0.252
		c-2.005,0.105-4,0.338-6.017,0.248c-1.432-0.064-2.872,0.061-4.303,0.006c-2.336-0.09-4.668-0.262-7.003-0.389
		c-2.703-0.15-5.405-0.346-8.113-0.09c-0.326,0.029-0.657-0.006-0.985-0.004c-1.556,0.01-3.111,0.021-4.667,0.035
		c-0.737,0.006-1.48-0.043-2.21,0.033c-2.937,0.305-5.867,0.666-8.803,0.973c-1.714,0.176-3.434,0.348-5.155,0.41
		c-2.913,0.105-5.83,0.117-8.744,0.182c-0.327,0.006-0.652,0.088-0.978,0.137c1.027,0.324,2.038,0.48,3.052,0.518
		c2.257,0.084,4.517,0.098,6.775,0.162c2.584,0.076,5.168,0.211,7.753,0.254c1.558,0.025,3.118-0.066,4.677-0.119
		c1.97-0.066,3.939-0.137,5.908-0.232c0.48-0.023,0.954-0.16,1.521-0.26c0.787,0.326,0.786,0.289,1.683,0.273
		c0.976-0.018,1.958,0.113,2.93,0.057c1.179-0.07,2.367,0.195,3.538-0.145c0.688-0.201,1.378-0.172,1.934,0.291
		c0.307-0.08,0.583-0.254,0.776-0.188c0.973,0.34,1.959,0.082,2.933,0.105c1.586,0.035,3.175-0.078,4.763-0.123
		c1.136-0.033,2.277-0.143,3.406-0.068c1.759,0.117,3.51,0.256,5.266,0.006c0.161-0.023,0.322-0.062,0.483-0.062
		c1.964-0.012,3.929-0.004,5.894-0.033c1.056-0.016,2.128-0.234,3.163-0.109c1.034,0.123,2.043,0.059,3.065,0.055
		c1.31-0.006,2.62,0.068,3.929,0.102c1.091,0.027,2.183,0.041,3.274,0.066c0.445,0.01,0.891,0.039,1.336,0.043
		c1.055,0.01,2.109,0.01,3.164,0.008c0.411,0,0.822-0.039,1.231-0.025c0.695,0.025,1.388,0.104,2.083,0.117
		c1.842,0.037,3.686,0.1,5.526,0.055c1.096-0.025,2.214,0.26,3.191-0.143c0.495,0.076,0.894,0.18,1.296,0.193
		c1.471,0.051,2.951-0.018,4.411,0.129c1.915,0.191,3.826,0.008,5.738,0.111c1.133,0.059,2.269,0.051,3.404,0.076
		c0.002,0.045,0.005,0.09,0.007,0.135c0.338-0.145,0.676-0.289,1.039-0.443c0.8,0.369,1.643,0.459,2.518,0.318
		c0.242-0.039,0.495-0.045,0.738-0.023c2.42,0.213,4.833,0.074,7.248-0.129c0.242-0.021,0.489,0.014,0.732,0.02
		c0.778,0.016,1.557,0.041,2.334,0.045c0.654,0.002,1.307-0.021,1.959-0.027c0.809-0.008,1.627,0.26,2.18-0.041
		c0.678,0.051,1.12,0.092,1.563,0.113c0.321,0.014,0.647-0.039,0.964,0.006c1.873,0.271,3.764,0.211,5.646,0.273
		c1.597,0.051,3.199-0.092,4.8-0.141c0.201-0.006,0.41,0.02,0.605,0.07c0.701,0.189,1.379,0.102,2.119-0.164
		c1.153,0.404,2.221,0.037,3.369-0.146c0.247,0.08,0.554,0.178,0.863,0.279c0.486-0.119,0.964-0.238,1.422-0.352
		c1.252,0.275,1.568,0.268,3.038-0.053c0.578,0.016,1.023,0.045,1.47,0.039c0.859-0.008,1.721-0.039,2.579-0.055
		c0.894-0.018,1.789-0.014,2.683-0.047c0.961-0.039,1.971,0.199,2.826-0.488c0.397,0.145,0.781,0.283,1.035,0.375
		c0.953-0.039,1.767-0.092,2.582-0.1c0.449-0.004,0.899,0.094,1.35,0.1c1.311,0.018,2.621,0.02,3.932,0.014
		c1.969-0.014,3.938-0.051,5.906-0.053c1.555,0,3.109,0.037,4.664,0.059c1.639,0.021,3.275,0.062,4.913,0.062
		c1.88,0,3.76-0.041,5.642-0.051c1.062-0.006,2.131,0.105,3.185,0.014c1.921-0.168,3.857,0.109,5.771-0.221
		c0.119-0.02,0.245-0.004,0.369,0.008c1.599,0.139,3.164-0.082,4.777-0.455c0.531,0.377,1.184,0.385,1.847,0.297
		c0.487-0.061,0.967-0.164,1.456,0.049c0.164,0.072,0.394,0.006,0.592-0.006c0.972-0.053,1.935-0.244,2.919-0.043
		c0.39,0.08,0.817-0.021,1.227-0.049c1.385-0.096,2.77-0.195,4.155-0.291c0.082-0.006,0.165-0.004,0.247,0.008
		c2.048,0.277,4.089-0.049,6.132-0.117c1.054-0.033,2.108-0.076,3.162-0.119c1.553-0.062,3.127,0.092,4.655-0.326
		c0.157-0.043,0.305-0.125,0.72-0.301C231.424,139.841,231.112,139.759,230.793,139.732z M125.774,81.544
		c0.442-0.798,0.928-6.516,1.492-7.41c0.607,0.53,2.664,4.801,2.729,5.437c0.267,2.66,0.889,4.508-0.102,8.946
		c-0.143,0.635-2.236,1.349-2.424,2.032c-0.557-0.157-1.319-1.666-1.459-1.966c-0.184-0.391-0.477-0.816-0.293-1.379
		c0.203-0.629,0.03-1.281-0.115-1.951C125.34,84.033,125.093,82.772,125.774,81.544z"/>
</g>
<path fill-rule="evenodd" clip-rule="evenodd" d="M222.57,235.757c-1.938,0.168-3.872,0.381-5.813,0.49
	c-1.946,0.111-3.901,0.111-5.852,0.178c-1.147,0.041-2.294,0.139-3.442,0.168c-0.604,0.014-1.212-0.111-1.814-0.084
	c-1.586,0.072-3.169,0.207-4.754,0.289c-0.682,0.033-1.365-0.002-2.049-0.012c-2.199-0.031-4.4-0.057-6.601-0.105
	c-0.313-0.006-0.626-0.129-1.062-0.225c-1.116,0.219-2.39,0.1-3.624,0.23c-1.951,0.209-3.89-0.037-5.836,0.111
	c-1.501,0.113-3.023-0.084-4.537-0.098c-1.109-0.01-2.221,0.053-3.33,0.088c-1.544,0.049-3.094,0.037-4.631,0.168
	c-1.397,0.119-2.784-0.025-4.176,0.018c-1.361,0.045-2.725,0.123-4.087,0.127c-0.712,0.004-1.425-0.121-2.138-0.189
	c-0.105-0.01-0.211-0.062-0.312-0.053c-2.412,0.197-4.829-0.043-7.244,0.113c-1.107,0.07-2.229-0.154-3.347-0.17
	c-0.972-0.012-1.946,0.107-2.919,0.123c-1.444,0.021-2.889,0-4.333,0.004c-1.589,0.002-3.179,0.035-4.769,0.008
	c-0.792-0.014-1.573-0.008-2.355,0.141c-0.315,0.062-0.648,0.057-0.973,0.051c-1.877-0.033-3.755-0.125-5.633-0.104
	c-1.833,0.02-3.675-0.055-5.496,0.256c-0.072,0.012-0.144,0.051-0.211,0.043c-1.156-0.15-2.297,0.117-3.445,0.133
	c-0.576,0.008-1.147-0.086-1.723,0.088c-0.226,0.068-0.499-0.027-0.75-0.025c-0.352,0.002-0.704,0.025-1.276,0.049
	c-0.059-0.023-0.325-0.125-0.621-0.24c-0.615,0.105-1.255,0.213-1.896,0.32c-0.178,0.029-0.359,0.096-0.534,0.082
	c-1.396-0.102-2.789,0.143-4.193-0.062c-0.729-0.107-1.502,0.148-2.253,0.141c-2.086-0.025-4.162,0.307-6.257,0.098
	c-0.96-0.098-1.944,0.066-2.918,0.088c-0.461,0.008-0.924-0.045-1.385-0.086c-3.905,0.064-7.808-0.033-11.83-0.375
	c-0.118-0.1-0.332-0.281-0.584-0.498c-0.596,0.395-1.249,0.482-1.948,0.453c-0.862-0.039-1.736,0.082-2.589-0.016
	c-1.289-0.143-2.571-0.072-3.856-0.062c-1.441,0.01-2.882-0.014-4.323,0.008c-0.646,0.01-1.292,0.119-1.938,0.127
	c-0.753,0.006-1.508-0.072-2.261-0.07c-1.683,0.004-3.355-0.309-5.044-0.158c-0.35,0.031-0.709-0.057-1.201-0.1
	c-0.957,0.258-2.062,0.297-3.065,0.102c-1.311,0.061-2.486,0.314-3.719,0.197c-1.571-0.148-3.162-0.123-4.744-0.105
	c-2.487,0.027-4.977,0.209-7.46,0.141c-1.878-0.055-3.752-0.076-5.631-0.055c-1.875,0.023-3.75,0.006-5.627,0.104
	c-1.692,0.086-3.398-0.029-5.095-0.119c-1.874-0.096-3.743-0.283-5.617-0.396c-1.044-0.062-2.094-0.047-3.141-0.08
	c-1.083-0.035-2.166-0.072-3.248-0.137c-0.536-0.031-1.068-0.123-1.623-0.191c0.156-0.4,0.487-0.361,0.747-0.385
	c1.868-0.166,3.717-0.541,5.615-0.367c1.038,0.096,2.094-0.014,3.142-0.004c0.467,0.004,0.933,0.1,1.4,0.104
	c1.549,0.018,3.093-0.008,4.641-0.188c1.973-0.23,3.959-0.355,5.953-0.25c0.719,0.039,1.444-0.035,2.167-0.051
	c2.529-0.057,5.054-0.205,7.59-0.09c1.583,0.07,3.176-0.062,4.763-0.131c3.61-0.152,7.219-0.352,10.831-0.469
	c1.15-0.037,2.305,0.145,3.459,0.186c1.446,0.051,2.892,0.057,4.338,0.078c2.53,0.037,5.06,0.09,7.59,0.102
	c1.482,0.006,2.964-0.084,4.446-0.078c1.88,0.006,3.759,0.07,5.639,0.096c0.938,0.012,1.878-0.029,2.817-0.018
	c3.833,0.049,7.661-0.064,11.49-0.271c1.585-0.086,3.18-0.02,4.769,0c2.022,0.023,4.045,0.137,6.065,0.09
	c2.167-0.051,4.329,0.121,6.493,0.098c2.812-0.033,5.625-0.15,8.439-0.213c0.722-0.016,1.444,0.057,2.168,0.053
	c1.263-0.008,2.527-0.07,3.79-0.059c1.986,0.018,3.971,0.092,5.957,0.111c1.339,0.016,2.678-0.006,4.015-0.041
	c1.589-0.041,3.177-0.082,4.763-0.18c2.451-0.154,4.896-0.385,7.349-0.527c1.44-0.082,2.887-0.076,4.331-0.074
	c1.256,0,2.515,0.037,3.771,0.08c1.045,0.033,2.098,0.205,3.132,0.127c1.376-0.104,2.737,0.043,4.104,0.049
	c1.551,0.006,3.1,0.131,4.65,0.201c0.721,0.033,1.441,0.047,2.161,0.092c2.228,0.143,4.452,0.344,6.683,0.43
	c1.296,0.049,2.6-0.053,3.898-0.135c2.712-0.172,5.42-0.006,8.131,0.035c1.369,0.021,2.741-0.1,4.112-0.133
	c1.301-0.031,2.604-0.076,3.903-0.037c2.702,0.078,5.401,0.234,8.104,0.311c2.311,0.062,4.624,0.051,6.936,0.088
	c1.804,0.029,3.605,0.088,5.409,0.129c0.855,0.018,1.712,0.004,2.567,0.033c0.279,0.01,0.558,0.105,0.836,0.162
	C222.59,235.671,222.581,235.714,222.57,235.757z"/>
</svg>
