<?xml version="1.0" encoding="utf-8"?>
<!-- Generator: Adobe Illustrator 16.0.0, SVG Export Plug-In . SVG Version: 6.00 Build 0)  -->
<!DOCTYPE svg PUBLIC "-//W3C//DTD SVG 1.1//EN" "http://www.w3.org/Graphics/SVG/1.1/DTD/svg11.dtd" [
	<!ENTITY ns_flows "http://ns.adobe.com/Flows/1.0/">
	<!ENTITY ns_extend "http://ns.adobe.com/Extensibility/1.0/">
	<!ENTITY ns_ai "http://ns.adobe.com/AdobeIllustrator/10.0/">
	<!ENTITY ns_graphs "http://ns.adobe.com/Graphs/1.0/">
]>
<svg version="1.1" id="Layer_1" xmlns:x="&ns_extend;" xmlns:i="&ns_ai;" xmlns:graph="&ns_graphs;"
	 xmlns="http://www.w3.org/2000/svg" xmlns:xlink="http://www.w3.org/1999/xlink" xmlns:a="http://ns.adobe.com/AdobeSVGViewerExtensions/3.0/"
	 x="0px" y="0px" width="112.662px" height="154.396px" viewBox="0 0 112.662 154.396" enable-background="new 0 0 112.662 154.396"
	 xml:space="preserve">
<path d="M39.37,6.098c0.623,0.04,1.254,0.081,1.916,0.123c0.306-0.387,0.588-0.743,0.945-1.194c1.11,0.479,2.178,0.432,2.793-0.269
	c1.549-0.268,2.807-0.416,4.027-0.711c2.481-0.6,4.933-1.329,7.418-1.909c1.551-0.362,3.146-0.528,4.715-0.821
	c1.086-0.202,6.424-0.775,7.969-1.041c5.082-0.87,9.828,0.467,14.556,1.97c0.952,0.303,1.765,0.952,2.579,1.636
	c1.631,1.37,3.549,2.393,5.273,3.66c1.922,1.411,3.779,2.912,5.629,4.418c0.854,0.698,1.68,1.452,2.418,2.271
	c1.49,1.653,2.817,3.442,3.49,5.598c0.75,2.402,2.021,4.729,3.357,6.138c1.12,2.727,2.005,5.022,3.005,7.268
	c0.718,1.61,1.563,3.156,1.447,5.001c-0.015,0.231,0.055,0.476,0.118,0.704c1.011,3.643,1.344,7.357,1.336,11.127
	c-0.006,1.991,0.24,3.982,0.291,5.976c0.035,1.34-0.068,2.684-0.199,4.027c0,1.583,0.008,3.167-0.006,4.75
	c-0.004,0.398-0.143,0.803-0.104,1.191c0.42,4.235-0.018,8.463-0.082,12.694c-0.043,2.786,0.096,5.582-0.078,8.356
	c-0.185,2.916-0.646,5.812-0.982,8.719c-0.119,1.029-0.232,2.06-0.34,3.091c-0.215,2.057-0.563,4.067-1.062,6.094
	c-0.583,2.369-1.265,4.74-1.466,7.229c-0.198,2.441-0.874,4.86-2.101,7.047c-1.988,3.542-4.072,7.027-6.582,10.229
	c-1.174,1.5-2.496,2.885-4.077,4.697c-0.4,1.328-1.46,2.755-3.106,3.774c-0.511,0.316-0.878,0.912-1.224,1.439
	c-1.306,1.986-2.601,3.979-3.843,6.006c-0.488,0.798-0.789,1.669-1.031,2.617c-0.475,1.846-1.493,3.481-3.016,4.754
	c-0.965,0.806-1.709,1.973-3.651,1.552c-0.474-0.431-1.212-1.128-1.978-1.794c-0.774-0.676-1.533-1.384-2.375-1.969
	c-2.492-1.732-5.021-3.412-7.537-5.106c-0.594-0.398-1.162-0.872-1.812-1.14c-2.438-1.008-4.796-2.143-7.062-3.506
	c-1.494-0.898-3.116-1.607-4.729-2.281c-2.601-1.088-4.874-2.705-7.241-4.186c-1.688-1.056-3.516-1.886-5.253-2.863
	c-2.575-1.453-5.226-2.803-7.663-4.46c-3.491-2.373-6.896-4.891-10.182-7.538c-1.468-1.184-2.689-2.744-3.786-4.301
	c-2.206-3.129-4.265-6.361-6.345-9.577c-0.385-0.595-0.583-1.311-0.867-1.969c-0.381-0.881-0.62-1.86-1.166-2.622
	c-2.449-3.421-3.271-7.42-4.179-11.388c-0.517-2.254-0.819-4.562-1.423-6.791C5.432,80.337,5,77.859,4.936,75.279
	C4.899,73.793,4.588,72.28,3.9,70.895c-1.15-2.315-1.578-4.845-2.056-7.349c-0.569-2.98-1.078-5.971-1.589-8.961
	c-0.621-3.63-0.072-7.087,1.148-10.571c1.617-4.613,3.655-9.028,5.634-13.479c0.562-1.263,1.34-2.34,2.245-3.369
	c3.705-4.218,7.809-8.042,12.212-11.482c4.472-3.493,9.412-6.307,14.744-8.356C37.209,6.955,38.172,6.569,39.37,6.098z"/>
<path fill="#FFFFFF" d="M74.062,143.974c-1.438-0.517-2.365-1.526-3.48-2.238c-1.073-0.684-2.236-1.226-3.329-1.812
	c-1.416-1.854-2.853-3.66-4.207-5.526c-2.31-3.18-3.978-6.679-5.035-10.468c-0.663-2.374-1.352-4.739-2.021-7.112
	c-0.367-1.301-0.716-2.606-1.212-4.416c-0.562-1.08-1.431-2.607-2.16-4.198c-0.394-0.859-0.678-1.812-0.787-2.75
	c-0.222-1.896-0.717-3.709-1.321-5.505c-0.102-0.303-0.215-0.617-0.226-0.931c-0.074-2.185-1.117-4.161-1.415-6.259
	c-0.389-2.739-1.577-5.123-2.525-7.637c-0.721-1.91-0.954-3.976-1.314-5.994c-0.378-2.12-0.921-4.208-1.362-6.317
	c-0.339-1.622-1.01-3.16-0.841-4.912c0.076-0.796-0.495-1.653-0.599-1.964c-0.165-1.542-0.2-2.571-0.399-3.566
	c-0.296-1.483-0.681-2.95-1.077-4.411c-0.254-0.933-0.498-1.841-0.272-2.822c0.067-0.295-0.036-0.633-0.074-0.95
	c-0.215-1.815-0.535-3.627-0.626-5.449c-0.111-2.255-0.81-4.387-1.457-6.479c-0.655-2.116-0.927-4.228-0.856-6.36
	c0.067-2.044-0.426-3.979-0.915-5.868c-0.521-2.007-1.017-3.987-1.264-6.052c-0.36-3.008-0.857-6-1.273-9.003
	c-0.065-0.467-0.01-0.95-0.01-1.574c1.56-1.573,3.295-2.839,5.909-2.764c0.369,0.596,0.889,1.145,1.079,1.791
	c0.971,3.286,1.886,6.589,2.763,9.9c0.773,2.917,1.387,5.878,2.235,8.771c0.531,1.812,1.502,3.479,1.938,5.346
	c0.652,2.799,1.377,5.581,2.098,8.362c1.263,4.868,2.582,9.723,3.804,14.602c0.503,2.008,0.766,4.075,1.225,6.096
	c0.797,3.496,1.664,6.976,2.495,10.463c0.239,1.005,0.414,2.028,0.691,3.021c0.597,2.137,1.224,4.265,1.869,6.388
	c0.565,1.854,0.772,3.749,0.719,5.679c-0.085,2.987,0.304,5.901,1.342,8.716c0.801,2.17,1.604,4.34,2.408,6.509
	c0.056,0.149,0.145,0.29,0.179,0.444c1.082,4.767,3.318,9.146,4.611,13.837c1.207,4.382,2.29,8.798,3.429,13.198
	c0.061,0.232,1.051,6.344,1.403,9.181C74.231,143.222,74.125,143.521,74.062,143.974z"/>
<path fill="#FFFFFF" d="M90.298,99.966c-0.22-1.732-0.453-3.463-0.697-5.191c-0.08-0.553-0.109-1.146-0.343-1.638
	c-1.485-3.132-1.376-6.673-2.508-9.858c-1.319-3.715-1.716-7.595-2.567-11.389c-0.719-3.199-1.924-6.196-3.279-9.158
	c-1.557-3.4-2.664-6.964-3.784-10.53c-0.83-2.647-1.75-5.276-3.065-7.773c-1.021-1.937-2.218-3.842-2.543-6.131
	c-0.162-1.151-0.695-2.306-1.289-3.326c-0.931-1.596-1.39-3.341-2.017-5.043c-0.931-2.521-2.047-4.977-3.095-7.455
	c-0.219-0.514-0.61-0.983-0.705-1.513c-0.387-2.167-1.512-4.026-2.51-5.909c-1.406-2.656-3.047-5.189-4.576-7.781
	c-0.073-0.124-0.06-0.3-0.107-0.579c1.369-1.107,2.979-1.156,4.523-1.032c3.812,3.408,6.5,7.397,8.695,11.778
	c1.422,2.84,3.014,5.596,4.559,8.373c3.173,5.708,5.98,11.565,7.574,17.942c0.403,1.614,1.133,3.12,1.607,4.728
	c1.123,3.808,1.991,7.688,3.439,11.411c0.799,2.051,1.035,4.319,1.539,6.486c0.106,0.463,0.266,0.915,0.401,1.371
	c1.464,4.885,3.017,9.746,4.358,14.664c0.796,2.914,1.255,5.919,1.877,8.881c0.736,3.512,1.457,7.029,2.242,10.531
	c0.955,4.255,1.076,8.546,0.654,12.862c-0.258,2.619-1.615,4.838-2.897,7.022c-1.08,1.837-2.509,3.47-3.933,5.396
	c-0.22-0.481-0.459-0.785-0.485-1.105c-0.316-3.811-0.357-7.62-0.249-11.445C91.172,112.679,90.618,102.478,90.298,99.966z"/>
<path fill="#FFFFFF" d="M34.611,119.367c-0.697-0.098-1.357-0.044-1.885-0.284c-2.246-1.025-4.365-2.222-5.896-4.283
	c-0.753-1.014-1.697-1.902-2.639-2.756c-2.333-2.116-4.159-4.572-5.484-7.44c-1.131-2.45-2.476-4.802-3.602-7.253
	c-0.626-1.364-0.928-2.875-1.5-4.268c-1.145-2.785-2.443-5.488-2.535-8.611c-0.039-1.318-0.549-2.627-1.325-3.794
	c-0.969-1.454-1.139-3.162-1.08-4.84c0.075-2.207-0.46-4.194-1.301-6.232c-0.811-1.967-1.404-4.122-1.567-6.233
	c-0.254-3.283-0.975-6.463-1.603-9.662c-0.564-2.876,0.01-5.564,0.973-8.2c0.901-2.465,1.946-4.88,2.997-7.288
	c0.477-1.092,1.017-2.186,1.711-3.146c1.095-1.517,4.06-7.135,5.145-8.352c0.698,1.188,0.642,2.283,0.487,3.346
	c-0.433,2.996-0.989,5.976-1.374,8.978c-0.19,1.489-0.145,3.014-0.146,4.521c-0.001,2.07,0.016,4.144,0.097,6.212
	c0.096,2.47,0.187,4.942,0.421,7.401c0.632,6.629,2.795,12.925,4.355,19.352c1.374,5.654,2.859,11.284,4.385,16.9
	c1.064,3.916,2.262,7.795,3.442,11.68c0.252,0.828,0.684,1.604,1.04,2.399c1.604,3.585,3.576,6.94,6.159,9.921
	c0.257,0.295,0.448,0.66,0.612,1.021C34.59,118.651,34.561,118.903,34.611,119.367z"/>
<path fill="#FFFFFF" d="M106.169,61.121c-0.469-0.209-0.878-0.395-1.412-0.634c-0.211-0.812-0.381-1.669-0.656-2.489
	c-0.637-1.884-1.142-3.845-2.035-5.604c-1.239-2.442-1.983-5.04-2.866-7.599c-0.597-1.729-1.148-3.476-1.903-5.771
	c-0.154-2.553-1.412-5.415-2.472-8.324c-0.962-2.646-2.731-4.844-4.208-7.197c-2.075-3.312-4.231-6.571-6.574-10.193
	c-1.543-1.215-3.406-2.683-5.271-4.149c-0.068,0.062-1.012-1.471-1.492-2.463c2.41-0.343,8.369,3.188,9.605,3.855
	c3.037,1.641,5.868,3.558,8.348,5.953c0.787,0.759,1.519,1.657,2.011,2.625c1.335,2.625,2.614,5.264,4.09,7.829
	c2.185,3.799,3.907,7.887,4.496,12.278c0.413,3.077,0.485,6.21,0.558,9.322c0.092,3.912,0.029,7.827,0.021,11.741
	C106.403,60.522,106.282,60.741,106.169,61.121z"/>
</svg>
