<?xml version="1.0" encoding="utf-8"?>
<!-- Generator: Adobe Illustrator 19.0.0, SVG Export Plug-In . SVG Version: 6.00 Build 0)  -->
<svg version="1.1" id="Camada_1" xmlns="http://www.w3.org/2000/svg" xmlns:xlink="http://www.w3.org/1999/xlink" x="0px" y="0px"
	 viewBox="-431.8 234.6 162.3 92" style="enable-background:new -431.8 234.6 162.3 92;" xml:space="preserve">
<style type="text/css">
	.st0{fill:none;}
	.st1{fill:#FFFFFF;}
	.st2{fill:#ADC77F;}
	.st3{fill:#BFCBCE;}
	.st4{fill:none;stroke:#FFFFFF;stroke-width:0;stroke-linecap:round;stroke-linejoin:round;}
	.st5{fill:#808080;}
</style>
<g id="XMLID_36_">
	<path id="XMLID_37_" class="st0" d="M-301.3,291.4c0.1,0,0.4-0.3,0.8-0.3h-0.2c-0.2,0.1-0.4,0.2-0.6,0.2c0,0-0.1-0.1-0.1-0.2h-0.1
		C-301.4,291.1-301.3,291.4-301.3,291.4z"/>
	<path id="XMLID_610_" class="st0" d="M-384.7,291.1L-384.7,291.1C-384.7,291.1-384.7,291.1-384.7,291.1
		C-384.7,291.1-384.7,291.1-384.7,291.1z"/>
	<polygon id="XMLID_611_" class="st0" points="-307.2,249.7 -307.2,249.6 -307.3,249.7 	"/>
	<path id="XMLID_614_" class="st0" d="M-410,291.3l0.1,0c-0.1-0.2-0.2-0.2-0.4-0.2C-410.1,291.1-410,291.2-410,291.3z"/>
	<polygon id="XMLID_615_" class="st0" points="-415.2,291.3 -415.2,291.3 -415.2,291.3 	"/>
	<polygon id="XMLID_617_" class="st0" points="-286.3,317.6 -286.2,291.4 -286.3,291.4 	"/>
	<path id="XMLID_618_" class="st0" d="M-408.2,290.1c-0.2-0.2-0.4-0.5-0.6-0.7c0,0-0.1-0.1-0.1-0.1c0,0.1,0.1,0.1,0.1,0.1
		C-408.6,289.6-408.4,289.8-408.2,290.1z"/>
	<path id="XMLID_636_" class="st0" d="M-407.4,291.1c0,0,0.1,0,0.1,0C-407.3,291.1-407.4,291.1-407.4,291.1z"/>
	<path id="XMLID_637_" class="st0" d="M-384.9,289.2c0.1-0.3,0.2-0.6,0.2-1c0.1-1.3,0-2.5,0-3.8c0-1.4-0.8-2.3-1.6-3.3
		c-0.4-0.4-0.6-0.9-1.1-1.3c-0.5-0.4-1-0.7-1.4-1.1c-0.2,0.4,0.2,0.8,0.3,1.2c0.2,0.4,0.5,0.8,0.7,1.2c0.5,0.9,0.6,2,1.1,2.9
		c-0.5-0.3-0.9-0.7-1.4-1.1c-0.5-0.4-0.8-0.9-1.2-1.3c-0.5-0.4-1-0.7-1.4-1.2c-0.3-0.4-0.5-0.8-1.2-0.9c0.5,2,0.9,4,1.2,6.1
		c-0.7-0.1-1.1-0.5-1.3-1c-0.3-0.6-0.5-1.3-0.7-2c-0.5-1.2-1.4-2.1-2.3-3c-0.4,0.2-0.3,0.8-0.4,1.1c-0.1,0.6-0.2,1.2-0.2,1.7
		c-0.1,0.6-0.2,1.2-0.2,1.7c-0.1,0.5,0,1-0.5,1.4c-0.7-1.3-0.4-2.9-1-4.3c-0.6,0.7-0.9,1.5-1.8,2.1c0-0.7,0.2-1.4,0.3-2.1
		c0.1-0.4,0.1-0.8,0.2-1.2c0.1-0.4,0-0.5-0.2-0.9c-1.3,2-2.5,4.2-4.8,5.6c0.4-1.2,1.4-2.2,1.9-3.3c0.3-0.5,0.4-1.1,0.7-1.6
		c0.3-0.5,0.8-0.8,0.5-1.4c-1,0.9-2.1,2.1-3.4,2.6c0.4-0.6,0.9-1.1,1.2-1.7c0.3-0.5,0.9-0.9,1.1-1.5c-1.8,0.7-3.4,2.5-5.3,3
		c-0.1-0.6,0.9-1.2,1.4-1.7c0.4-0.4,0.9-0.8,1.3-1.2c0.2-0.2,0.4-0.5,0.5-0.7c-0.8,0.2-1.5,0.4-2.2,0.5c0.4-0.5,0.7-0.8,1.1-1.2
		c-0.1,0-0.2,0-0.3,0c-0.5,0.2-1,0.4-1.5,0.5c-0.5,0.2-0.9,0.4-1.4,0.6c0.1,0,0.2-0.1,0.3-0.1c0.5-0.3,1.1-0.5,1.6-0.8
		c0.5-0.3,0.9-0.5,1.4-0.7c0.1-0.1,0.1-0.2,0.2-0.2c-0.5,0-1-0.1-1.6-0.1c0.6-0.5,1.2-0.9,1.9-1.3c-0.2,0-0.4-0.1-0.6-0.1
		c-0.6,0-1.3,0.1-2,0.1c-0.2,0-0.3,0-0.5,0.1c-0.6,0.1-1.3,0.2-1.5-0.2c0.6-0.4,1.3-0.6,2.1-0.8c1.2-0.3,2.5-0.5,3.6-1
		c-0.5-0.3-1.2-0.1-1.8-0.3c-0.4-0.1-0.7-0.1-1.1-0.2c-0.3,0-0.6-0.1-0.9-0.1c0.4-0.2,0.7-0.3,1.1-0.4c1-0.2,2.1-0.2,3-0.3
		c-0.1-0.7-0.7-0.5-1.2-0.6c-0.4-0.1-0.7-0.2-1.1-0.4l0,0c-0.2-0.1-0.4-0.2-0.5-0.2c-0.3-0.1-0.5-0.2-0.8-0.2l0,0l0,0
		c-0.9-0.2-1.9-0.3-2.8-0.7c1.1-0.3,2.3-0.4,3.3-0.3l0,0l0,0c0.5,0,1,0.1,1.4,0.2l0,0c0.3,0.1,0.6,0.1,0.8,0.2c0.2,0,0.4,0,0.7,0
		c0.1,0,0.2,0,0.4,0h0.4c0,0,0,0,0,0c-0.1-0.2-0.2-0.3-0.4-0.5c-0.3-0.2-0.6-0.5-0.9-0.7c-0.1-0.1-0.2-0.1-0.3-0.2
		c-0.4-0.2-0.7-0.5-1-0.8c-0.1-0.1-0.2-0.2-0.3-0.3c0.2,0,0.3-0.1,0.5-0.1c0.5-0.1,0.9,0,1.4,0.1l0.4-0.8c-0.2-0.4-0.5-0.7-0.7-1.1
		c-0.4-0.5-0.7-1.1-0.9-1.8c0.6-0.1,0.9,0.4,1.3,0.6c0.1,0,0.1,0.1,0.2,0.1c0.3,0.2,0.6,0.5,0.9,0.7l1.7-3.3
		c-0.1-0.2-0.2-0.5-0.3-0.7c0-0.2-0.1-0.3-0.1-0.5c0-0.4,0-0.8,0.3-1.2c0.1,0.1,0.1,0.2,0.2,0.3c0.2,0.3,0.4,0.6,0.5,0.9
		c0.8,1.3,1.6,2.7,2.4,4.1c0.4-0.5,0.3-1,0.2-1.5c-0.1-0.6,0.1-1.2,0.2-1.9c0.1-0.6,0-1.2,0-1.9c0.1-0.6,0.2-1.2,0.3-1.8
		c0.2,1,0.9,1.9,1.1,2.9c0.1,0.5,0.1,1,0.3,1.4c0.1,0.3,0.1,0.9,0.5,1.1c0-0.6,0.2-1.2,0.3-1.9c0.1-0.6,0-1.1-0.1-1.7
		c-0.1-1.3-0.2-2.5-1-3.5c-0.3-0.4-0.7-0.8-1-1.2c-0.1-0.2-0.3-0.3-0.4-0.5c-0.3-0.4-0.7-0.7-1.1-1.1c-0.5-0.4-1.1-0.6-1.7-1
		c-0.2-0.2-0.5-0.2-0.8-0.3c-0.2-0.1-0.4-0.3-0.6-0.5c-1.3-0.4-2.9-0.3-4.4,0.1c-0.8,0.2-1.4,0.5-2.1,0.9c-0.8,0.5-1.4,1-2.1,1.6
		c-1.4,1.1-2.7,1.9-3.7,3.3c-0.9,1.3-1.5,2.6-2,4c-0.5,1.4-0.9,2.8-0.9,4.1c0,0.7,0.1,1.4,0.2,2.1c0.1,0.6,0,1.2,0,1.8
		c0,0.3,0,0.7,0,1c0,0.3,0.3,2,0.3,2.7c0.1,1.1,0.4,4.2,0.6,5.7c0,0.3,0.1,0.5,0.1,0.6c0,0,0,0.1,0,0.1c0.1,0.4,0.3,0.9,0.4,1.3
		c-0.2,0.1-0.4,0.1-0.6,0.2c0.3,0.6,0.6,1.2,0.9,1.8c0,0.1,0.1,0.1,0.1,0.2c0,0,0-0.1,0-0.1c0.1,0.3,0.2,0.2,0.1,0.1
		c-0.1,0.1-0.3,0.3,0.7,0.5v0c0,0-0.3,0-0.3,0.1c0.3,0.5,0.4,1.1,0.9,1.7c0.8,1.1,1.6,2.3,2,2.8c0.4,0.4,1.1,1.6,1.4,2.1l-2.5,0
		c-0.1-0.2-0.2-0.5-0.4-0.7c-0.5-0.8-1-1.6-1.5-2.4c0,0,0,0,0-0.1l-1.6,2.9l0,0.1l0,0.1l3.5,0c0.1,0.2,0.2,0.3,0.3,0.4
		c0.3,0.3,0.6,0.6,0.8,1c-0.2-0.3-0.5-0.7-0.8-1c-0.1-0.1-0.2-0.3-0.3-0.4l2.5,0L-384.9,289.2C-384.9,289.3-384.9,289.3-384.9,289.2
		l0.8,0c0,0,0,0,0,0L-384.9,289.2z"/>
	<path id="XMLID_638_" class="st0" d="M-330.7,269.5c0,0,0-0.1,0-0.1c0-0.1,0-0.4-0.1-0.4h0C-330.8,269.1-330.8,269.4-330.7,269.5
		C-330.7,269.5-330.7,269.5-330.7,269.5z"/>
	<path id="XMLID_642_" class="st0" d="M-365.4,269c0,0,0,0.1,0,0.1c0,0,0,0.5,0.1,0.8c0.1,0.6,0.2,1.4,0.3,2
		c0.3,1.3,0.7,2.6,0.9,3.9c0.4,1.9,1.4,3.6,2.9,4.7c1.5,1.2,3,1.6,4.9,1.5c1-0.1,1.7-0.5,2.6-0.8c0.9-0.3,1.8-0.6,2.7-1.1
		c0.8-0.5,1.6-1.1,2.3-1.7c0.3-0.2,0.5-0.5,0.7-0.8l-0.3-0.4c0.9-0.8,1.7-1.7,2.5-2.6c0.1-0.2,0.2-0.4,0.2-0.6
		c0.2-0.7,0.4-1.9,0.8-1.9c0,0,0,0-0.1,0c0,0,0,0,0,0c0,0,0.1-0.1,0.3-0.3c0.2-0.2,0.3-0.7,0.5-0.9c0.2-0.3,0.3-0.6,0.5-1
		c0-0.1,0-0.5,0-0.5c0,0,0-0.2,0.1-0.2h-8.9h-0.1h-3.7h0c0,0,0,0.1-0.1,0.1c-0.2,1-0.4,1.2-0.9,1.7c-0.3,0.4-0.2,0.3,0,0.1
		c0,0,0,0,0,0c0.3-0.3,0.1-0.2,0,0c-0.2,0.3-0.4,0.6-0.6,1c-0.3,0.6-0.4,1.3-0.4,2c-0.3-0.1-0.5-0.1-0.8-0.1
		c-0.4-0.6-0.6-1.3-0.7-1.9c-0.1-0.4-0.1-1-0.2-1.4c0.3-0.5,0.5-0.5,0.8-1.5h-2.3h-0.1c-0.2,1-0.4,2-0.6,3c0,0,0,0,0,0
		c0,0-0.1,0.2-0.1,0.4c-0.3,0-0.5-0.4-0.7-0.4c0,0,0,0,0,0c-0.4-1-0.1-2,0.2-3H-365.4c0,0,0-0.1,0-0.1c1.1,0,2.2,0.1,3.3,0.1
		c0,0-0.1,0.1-0.1,0.1h0.1c0,0,0,0,0,0c0.3-0.3,0.6-0.8,1.2-1.1c-0.1,0.3-0.2,0.6-0.2,1c0.8,0,1.5,0.1,2.3,0.1c0,0,0,0,0-0.1
		c0,0,0.1,0,0.1,0c0,0,0,0,0-0.1c0.5-0.4,1.3-0.7,2-0.9c0.2,0.3,0.4,0.6,0.6,0.9c0,0,0,0.1,0,0.2c1.2,0,2.4,0.1,3.6,0.1
		c-0.3-0.9,0-1,0.1-1.5c0.2-0.7,0.5-1.4,0.8-2c0.3-0.2,0.6-0.4,0.9-0.6c0.1,0.8-0.4,1.5-0.6,2.2c-0.3,0.7-0.5,1-1.1,2
		c0.3,0,0.7,0,1,0c2.7,0,5.3,0,8,0c0,0,0,0,0-0.1c0,0,0.1,0,0.1,0c0.8-1.1,1.5-2.2,2.2-3.2c0,0,0,0,0-0.1l0.2,0.3
		c0.3-0.5,0.6-1,1.1-1.5c0.1,0,0.3-0.1,0.6-0.1c0.8-1.8,1.9-3.5,2.3-5.5c0.4-1.9,0.1-3.7-0.1-5.6c0-0.3-0.1-0.7-0.1-1c0,0,0,0,0,0
		c-0.1-0.8-0.3-2.3-0.6-2.3c0,0,0-0.1,0-0.1c-0.2-0.6-0.3-1.8-0.5-2.3c-0.4-1.8-1.4-3.6-2.9-4.7c-1.5-1.2-3-1.6-4.8-1.5
		c-0.9,0.1-1.7,0.5-2.6,0.8c-0.9,0.3-1.8,0.6-2.7,1.1c-0.8,0.5-1.6,1.1-2.3,1.7c-0.2,0.2-0.5,0.5-0.7,0.8l0.3,0.4
		c-0.9,0.7-1.6,1.5-2.3,2.4c-0.1,0.1-0.2,0.5-0.3,0.9c1.2,0,2.4,0.1,3.6,0.1c0-0.2,0,0,0,0c0,0,0,0,0,0c0.3-0.9,0.7-1.9,1.1-2.8
		c0.3,0.3,0.4,0.3,0.4,0.8c0,0.3-0.1,0.7-0.1,1c0,0.3,0,0.7-0.1,1c0,0.1,0-0.5,0,0.5c0,0-0.1,0.6-0.1,1c-0.5,0.7-1.1,1.1-2,1.3
		c0.1-0.9,0.3-2.3,0.6-2.3h-3.8c-0.2,0-0.5,1.3-0.5,1.8c0,0,0,0.2,0,0.2h-0.4c0,0-0.2-0.2-0.2-0.2c-0.2,0.2-0.2,0.2-0.3,0.4
		c0,0.1-0.1,0.2-0.1,0.3c-0.2,0.3-0.3,0.6-0.5,1c0,0.1,0,0.4,0,0.4c-1,1.4-1.8,2.5-2.6,3.7c0,0,0,0,0,0.1l-0.3-0.4
		c-0.3,0.5-0.6,1.1-1.1,1.6c-0.1,0-0.3,0.1-0.6,0.1c-0.9,1.8-1.9,3.6-2.3,5.5C-365.7,266-365.6,267-365.4,269
		C-365.4,269-365.4,269-365.4,269z M-351,275.8c0-0.3,0.1-0.6,0.1-1c0.1-0.8,0.1-1.5,0.2-2.3c0.1-0.2,0.3-0.4,0.5-0.6
		c0.4-0.4,0.9-0.7,1.5-0.8c0,0.3-0.1,0.5-0.2,0.8c-0.3,1.6-0.9,3.2-1.7,4.7C-350.9,276.4-351.1,276.3-351,275.8z M-353.8,274.7
		c-0.2,1.8-1,3.6-1.6,5.3c-0.6-0.1-0.6-0.1-0.9-0.8c0.3-1.1-0.1-2.1-0.5-3.2C-355.6,275-354.8,274.6-353.8,274.7z M-361.6,276.9
		c0-0.3-0.1-0.7-0.1-1.1c0.6,0,1.2,0,1.8-0.1l1.3,0.1c-0.1,0.7-0.7,1-1.1,1.5c-0.5,0.5-0.8,1.2-1.2,1.7c-0.2,0-0.3,0-0.6,0
		c-0.1-0.5-0.3-0.9-0.4-1.4C-361.9,277.4-361.8,277.2-361.6,276.9z M-345.2,265.6c-0.2,1-0.4,1.3-1.5,2.7l-0.4,0
		c-0.4-0.8-0.7-1.5-0.4-2.4c0.9-0.5,1.7-1.3,2.9-1.3C-344.6,265.1-344.9,265.4-345.2,265.6z M-346.7,260.9c0.1-0.9,0.5-1.6,0.9-2.5
		l0.7,1c-0.3,0.4-0.7,0.8-0.9,1.2C-346.2,260.9-346.4,261.1-346.7,260.9z M-343.4,261.5c0.6-1.4,1.2-2.5,2.5-3.3
		c0.2,0.7,0.4,1.3,0.6,2C-341.2,260.7-342.1,261.4-343.4,261.5z M-339.4,252.2c0,0.7-0.2,1.6-0.5,1.9c-0.4,0.4-0.7,0.9-1.4,1.3
		c0.3-1.1,0.5-2.1,0.8-3.1c0.1-0.4,0.2-0.8,0.3-1.2C-339.7,251-339.4,251.6-339.4,252.2z M-342.5,246.1c0.5-0.5,0.8-1.2,1.2-1.7
		c0.2,0,0.3,0,0.6,0c0.1,0.5,0.3,0.9,0.4,1.4c-0.1,0.2-0.2,0.4-0.3,0.6c0,0.3,0.1,0.6,0.1,1.1c-0.6,0-1.2,0-1.8,0.1l-1.3-0.1
		C-343.5,246.9-342.9,246.6-342.5,246.1z M-345,252.3c0,0,0.1-0.1,0-0.1c0.1-0.1,0-0.1,0-0.1c0,0,0,0,0,0c0,0,0,0,0,0c0,0,0,0,0,0
		c0,0,0,0,0,0c0.5-0.1,0.8-1,0.9-2h0.9c0.5,0,0.6,1,0.7,2c0,0,0,0,0,0c0,0,0,0.4,0.1,0.5c-0.4,0.6-0.7,1.3-1.1,2
		c-0.5,0.3-1.3,0.8-2.1,0.9c-0.2-0.3-0.4-0.5-0.6-0.9c0.3-0.7,0.5-1.5,1.1-2.2C-345,252.3-345,252.3-345,252.3L-345,252.3z
		 M-346.8,243.3c0.6,0.1,0.6,0.1,0.9,0.8c-0.3,1.1,0.1,2.1,0.5,3.2c-1.2,1.1-2,1.4-3,1.3C-348.2,246.8-347.4,245-346.8,243.3z
		 M-348.9,253.7l0.6,0.9c-0.6,0.6-1.2,1.1-1.5,1.2C-349.7,255-349.3,254.3-348.9,253.7z M-349.4,259.1c0.3-0.6,0.6-1.2,1-1.8
		c0.5,0.6,0.6,1.2,0.3,2.3c-0.5,0.3-1.1,0.7-1.7,1.1C-350.1,260.1-349.6,259.6-349.4,259.1z M-352.8,264.2c-0.3,0.6-0.6,1.2-1,1.8
		c-0.5-0.6-0.6-1.2-0.3-2.3c0.5-0.3,1.1-0.7,1.7-1.1C-352.1,263.2-352.6,263.7-352.8,264.2z M-354.2,258.3c0.2-0.7,0.5-1.3,0.8-2
		c0.3-0.2,0.6-0.4,0.9-0.6c0.1,0.8-0.4,1.5-0.6,2.2c-0.3,0.7-0.6,1.5-1.2,2.1C-354.6,259.4-354.3,258.9-354.2,258.3z M-356.4,264.9
		l-0.7-1c0.3-0.4,0.7-0.8,0.9-1.2c0.2-0.3,0.3-0.4,0.7-0.2C-355.6,263.3-356,264-356.4,264.9z M-357.6,255c0.5-0.5,1.1-0.9,2-1
		c-0.7,1-1.3,1.9-1.9,2.9c-0.2-0.1-0.3-0.2-0.5-0.4C-357.9,256-358,255.4-357.6,255z M-358.8,261.8c-0.6,1.4-1.2,2.6-2.5,3.3
		c-0.2-0.7-0.4-1.3-0.6-2C-361,262.6-360.1,261.9-358.8,261.8z"/>
	<polygon id="XMLID_659_" class="st0" points="-350.9,319.1 -350.8,319.1 -350.8,319.1 	"/>
	<path id="XMLID_660_" class="st0" d="M-332.3,258.2c0.5,1,1,2.1,1.5,3.3c0.5,1.1,1,2.3,1.5,3.5c0.5,1.2,0.9,2.5,1.4,3.7
		c0,0.1,0.1,0.3,0.1,0.3c0,0,0,0,0,0c0,0,0.1,0.1,0.1,0.1c0,0-0.1-0.1-0.1-0.2c1.5,0,3.1,0.1,4.5,0.1c0,0,0,0,0,0c0,0,0.1,0,0.1,0
		c0.3-0.6,0.7-1.3,1.1-1.9c0.8-1.1,1.4-2.3,2.2-3.5c0-1.2-0.2-2.5,0.1-3.6c0.3-1,1-1.6,1.7-2.3c1.1-0.4,2.4-0.6,3.5,0
		c1.1,0.5,2.2,1.7,2.8,2.7c0.4,0.6,0.6,1.3,1.1,1.7c0.5,0.4,1,0.7,1.6,1c1.2,0.6,2.4,0.9,3.7,1.2c2.6,0.5,4.7,2.8,6.1,4.8
		c0,0,0.2,0.1,0.2,0.1c1.2,0,2.1,0,2.1,0v0.2v0.1c0,0-0.7,0-1.4,0.1c-0.1,0-0.4,0-0.5,0c1.5,2.3,2.4,4.9,3.4,7.4
		c0.2,0.7,0.1,0.7,0.3,1.4c0.1,0.6,0.2,1.1,0.2,1.7c0,0.7,0.3,1.3,0.4,1.9c0.1,0.6,0.1,1.2,0.2,1.8c0,0.6,0.1,1.3-0.2,1.8
		c-0.1,0.2,0,0.5,0,0.7c0,0.2-0.1,0.4-0.1,0.7c-0.1,0.5-0.4,0.9-0.5,1.5c0,0.2-0.1,0.5-0.1,0.5h0.4c0,0,0,0.1,0,0.1l8.8,0l-0.1-0.1
		h0l-20.8-39.2c-0.1,0-0.4,0.1-0.9,0.1c-0.6,0.1-1.6,0.3-2.8,0.4c-2.4,0.3-5.8,0.7-9.9,1c-2,0.2-4.3,0.3-6.6,0.5
		c-2.3,0.1-4.8,0.3-7.4,0.4c-0.1,0-0.1,0-0.2,0.1c0,0,0,0,0,0c0,0,0,0,0,0c0.1,0.5,0.3,0.9,0.4,1.4c0,0.1,0.3,0.3,0.3,0.4
		c0,0,0,0,0,0s-0.3,0-0.3,0c0,0,0,0.1,0,0.2c0.2,0.4,0.4,0.7,0.6,1.1C-333.2,256.2-332.7,257.2-332.3,258.2z"/>
	<path id="XMLID_662_" class="st0" d="M-391.8,269c4.4,0,9.6,0,15.2,0c0,0,0,0,0,0c0,0,0,0,0.1,0c0,0,0-0.2,0.1-0.2
		c0.4-1.2,0.9-2.5,1.3-3.8c0.4-1.2,1-2.4,1.4-3.5c0.5-1.1,1-2.2,1.5-3.3c0.5-1,1-2,1.4-2.9c0.7-1.3,1.4-2.5,1.9-3.4
		c-1.7-0.1-3.4-0.2-5.1-0.3c-2.3-0.1-4.5-0.3-6.6-0.4c-4.1-0.3-7.5-0.7-9.9-1c-0.7-0.1-1.4-0.3-1.9-0.3h-2l-1.7,3.3c0,0,0,0,0,0
		c0.2,0.1,0.3,0.3,0.5,0.4c0.6,0.5,0.9,1.2,1.3,1.8c0.4,0.7,0.8,1.5,1,2.3c0.2,0.7,0.3,1.6,0.4,2.3c0.3,1.6-0.1,3.4,0.1,5
		C-392.4,266.6-392.2,268-391.8,269C-391.8,269-391.8,269-391.8,269C-391.7,269-391.7,269.1-391.8,269c0.1,0.1,0.1,0.2,0.2,0.3
		c0-0.1-0.1-0.2-0.1-0.2C-391.7,269.1-391.7,269-391.8,269z"/>
	<polygon id="XMLID_663_" class="st0" points="-373.7,269 -368,252.1 -368,252.1 -373.7,269 	"/>
	<path id="XMLID_664_" class="st0" d="M-395.1,269.6c-0.2-0.2-0.3-0.4-0.5-0.5c-0.2,0-0.3,0-0.5,0c-0.1-0.1-0.3-0.2-0.4-0.2
		c0,0.1-0.1,0.1-0.1,0.1c0,0-0.1,0-0.1,0c-0.2,1-0.4,0.9-0.5,1.2c0,0.5,0,1,0.1,1.4l0.4,2.5c0.2,0.3,0.5,0.7,0.8,1
		c0.4,0.1,0.8,0.2,1.4,0.4c0.3-0.6,0.5-1,0.5-1.6c0-0.4,0.3-1.4,0.1-1.2l-0.4-1.8C-394.5,270.6-394.9,269.9-395.1,269.6z"/>
	<path id="XMLID_667_" class="st0" d="M-334.8,258c0-0.1,0-0.2,0.1-0.3c0,0,0-0.1,0-0.1l4,11.4c0,0,0,0,0,0l-4-11.5
		c0.2-0.5,0.2-0.9,0.3-1.4c0-0.4,0-0.7,0-1.1c0,0.4,0,0.7,0,1.1c0,0.5-0.1,1-0.3,1.4c0,0,0,0.1,0,0.1
		C-334.7,257.8-334.7,257.9-334.8,258c0,0.3,0,0.6-0.1,0.8c-0.3,1-0.6,2-0.9,3c-0.5,0.9-3.2,5.2-3.3,5.6c-0.2,0.2-0.3,0.4-0.5,0.6
		c-0.1,0.2-0.2,0.6-0.3,0.8c3,0,5.9,0.1,8.8,0.1C-332.3,265-333.7,261.2-334.8,258z"/>
	<path id="XMLID_671_" class="st0" d="M-380,289h-0.5h0.2c-0.1,0,0.2,0.4,0.2,0.4l0.1,0v0l-0.1,0.1c0,0-0.1-0.1-0.1-0.3l29.4,0
		l26.7,0c0,0,0-0.2,0-0.2h0.4h0.2c0,0,0,0.1,0,0.1c0,0,0,0,0,0l2.5,0c0.1,0.1,0.2,0.1,0.2,0l1.7,0v0l2.4,0c0,0-0.1,0-0.1,0
		c-0.2-0.7-0.5-1.3-0.5-2.3c0.2,0.1-0.5-2.2-0.6-2.5c-0.6-1.8-1-3.7-1.6-5.6c-0.3-0.9-0.5-1.8-0.7-2.7c-0.2-0.8-0.4-1.5-0.5-2.3
		c-0.1-0.8,0.2-1.4,0.4-2.2c0-0.1,0.1-0.3,0.1-0.4c0.1-0.6,0.1-1.3,0.2-1.8c0-0.1,0-0.4,0.1-0.4h0c0,0,0,0,0,0c0,0,0,0,0.1,0
		c0.3-1,0.9-2.7,1.7-3.8c0.2,0.8-0.1,1.6-0.3,2.3c-0.1,0.5-0.2,0.9-0.4,1.4c0,0,0,0.1,0,0.1c0,0,0,0,0,0c0,0.1,0,0.1-0.1,0.2
		c-0.1,0.2-0.1,0.4-0.2,0.6c-0.1,0.4-0.2,0.8-0.2,1.2c0,0,0,0,0,0.1c-0.1,1,0,2,0.4,3c0.6,1.6,1.5,3.1,2.2,4.6
		c0.6,1.5,1,3.1,1.5,4.6c0.1,1.3,1.2,3.9,1.5,4.7c0.1,0.3,0.2,0.7,0.4,1.1l-3.5,0l3.5,0.1c0,0,0,0,0,0l2.5,0c0,0,0,0,0,0l2.4,0
		c0.1,0.2,0.1,0.1,0,0l-2.4,0c-0.3-0.8-0.5-1.5-0.7-1.9c0-0.1-0.1-0.1-0.1-0.2c-0.4-1.3-1.1-4.1-1.4-4.6c-0.4-1.5-0.8-3-1.2-4.5
		c-0.2-0.8-0.5-1.7-0.8-2.5c-0.2-0.7-0.2-1.3-0.4-2c0-0.1-0.1-0.2-0.1-0.3c0-0.1-0.1-0.3-0.1-0.5c-0.2-0.6-0.5-0.9-0.7-1.9
		c0,0,0,0,0,0c0,0,0,0,0,0c0-0.1,0-0.1,0-0.1c0-0.1,0-0.2,0-0.2c-0.2-0.7-0.4-0.6-0.4-1.6h0c0,0,0,0.1,0,0.1c0-0.1,0,0,0-0.1
		c0,0,0,0,0,0c0,0,0,0,0,0c-0.3-1.2-0.5-2.3,0.1-3.5c0.1,0.1,0.2,0.2,0.3,0.3c0,0,0.1,0.1,0.1,0.1c0.1,0.1,0.1,0.2,0.2,0.3
		c0,0.1,0.1,0.1,0.1,0.2c0.1,0.1,0.1,0.2,0.1,0.3c0,0.1,0,0.1,0.1,0.2c0,0.1,0.1,0.2,0.1,0.3c0,0.1,0,0.1,0.1,0.2
		c0,0.1,0.1,0.2,0.1,0.3c0,0.1,0,0.1,0,0.2c0,0.1,0.1,0.2,0.1,0.3c0,0,0,0,0,0.1c0.1,0.3,0.2,0.8,0.2,0.8h0.1c0,0-0.1,0-0.1,0.1v0
		c0,0,0,0,0,0c0,0,0,0.1,0,0.1c0.1,0.3,0.3,1.1,0.5,1.6c0,0,0,0,0,0.1c0,0.1,0.1,0.3,0.1,0.4c0.1,0.4,0.3,0.8,0.4,1.1
		c0.2,0.4,0.3,0.8,0.5,1.2c0.7,1.4,1.4,2.7,2,4.1c0.5,1.3,0.9,2.7,1.2,4c0.3,1.3,1.3,5.7,1.9,7.6l3.3,0.1l3.1,0
		c0.2,0.7,0.3,1.7,0.5,1.7c-0.1,0-0.3-1-0.5-1.7l2.7,0c-0.1,0.5-0.2,0.9-0.5,1.1c0.2-0.2,0.6-0.6,0.6-1.1l4,0c0,0,0-0.3,0-0.3h-0.4
		c0,0,0,0,0,0h0l-3.8,0.1c0.1-0.6-0.1-1.2-0.6-2.1c-1-1.7-3.1-7.6-3.1-7.6c0-0.1-1.2-2.1-1.6-2.9c-0.2-0.4-0.4-2.2-0.5-2.6
		c-0.1-0.3-0.1-0.6-0.2-0.9c-0.1-0.2-0.1-0.5-0.2-0.7c0-0.1,0-0.1,0-0.2c-0.2-0.6-0.6-1.1-0.6-1.7c0,0,0-0.5,0-0.5h-0.2
		c0,0,0,0.1,0,0.1c0-0.1-0.1,0-0.1,0c-0.1-0.1-0.2-0.3-0.2-0.5c0-0.2-0.1-0.5-0.1-0.5c0,0,0,0,0,0h-0.3c0,0,0,0.1,0,0.1
		c0,0-0.7-0.1-1.2-0.1h1.4h0.1c-1.1-1-2.2-1.5-3.4-2.2c-0.9-0.5-1.8-1-2.3-1.9c0,0,0,0,0,0c1.6,0.4,3,1.4,4.5,2.1
		c0.9,0.5,1.9,0.9,2.8,1.5c0,0,0,0,0,0c0.2,0.2,0.4,0.3,0.6,0.5c0,0,0.1,0,0.1,0c0,0,0,0,0,0c0,0,0.1,0,0.1,0c0,0,0,0,0,0
		c0,0,0,0,0,0c0,0,0.1,0.1,0.1,0.1c0,0,0,0,0,0c0.1,0.2,0.5,0.7,0.7,0.9c0,0,0.1,0,0.1,0c0,0,0,0,0,0c0,0,0,0,0,0
		c0.3,1,0.6,1,0.8,1.4c0.5,0.7,0.7,1.8,1,2.6c0.6,1.5,1.2,2.7,1.7,4.3c0.1,1,0.4,2.8,0.7,3.9c0.3,1.1,1,3.9,1.2,4.3
		c0.1,0.5,0.2,1,0.4,1s0.3-0.7,0.7-2.3c0.4-1.6,0.4-6.6-0.1-7.9c-1-2.6-2.1-5.3-3.8-7.6c0,0-0.1-0.1-0.1-0.1
		c-0.1-0.1-0.2-0.3-0.3-0.4c0-0.1-0.1-0.1-0.1-0.2c0,0,0,0-0.1-0.1c0,0,0,0,0,0c-0.5-0.6-1-1.2-1.6-1.7c-0.6-0.6-1.4-1.1-2.2-1.4
		c-0.8-0.3-1.7-0.4-2.5-0.6c-1.8-0.5-3.3-1.5-4.9-2.5c-1.2-1.5-1.6-3.2-3-4.2c-0.4-0.1-0.8-0.2-1.2-0.2c-0.8,0.4-1.1,0.8-1.4,1.7
		c-0.3,1-0.2,2.1-0.4,3.2c-0.2,1.1-0.4,2.1-0.9,3c-0.5,1-1.2,1.7-1.8,2.7h-0.1c0,0,0,0,0,0c-0.4,1-0.7,1.5-1,2.2
		c-0.1,0-0.1,0.1-0.2,0.1c0.1,0,0.1,0,0.2,0c-0.1,0.3-0.2,0.7-0.3,1c-0.2,1.1-0.2,2.2-0.1,3.3c0,0.6,0.2,1.2,0.2,1.8
		c0.2,1.8,0.3,3.5,1.2,5.3c0,0,0.1,0,0.1,0.1c0,0,0.1,0,0.1,0c0,0,0,0,0,0c0,0-0.1,0-0.1,0c0,0-0.1,0-0.1-0.1
		c-0.1-0.1-0.3-0.2-0.3-0.3c0-0.1-0.3-0.2-0.3-0.3c0,0.1,0.1,0.3,0.2,0.7c0,0,0,0,0,0c0,0,0,0,0,0c0,0,0,0,0,0
		c-0.1-0.2,0.2-0.3,0.2-0.4c0,0.1,0.4,0.3,0.4,0.4c0,0,0,0,0,0c0,0,0,0,0,0c0,0-0.3,0-0.3,0c0,0-0.2,0-0.2,0
		c0.3,0.9,0.5,1.8,0.8,2.6l1.3,3.7l-1.5,0c-0.3-0.5-0.5-1.1-0.8-1.6c-0.3-0.6-0.4-1.4-0.6-2c-0.3-0.7-0.4-1.2-0.7-1.9
		c-0.3-0.8-1.1-8.8-1.3-10c-0.1-0.8-0.1-1.6,0-2.3c-1,0-2,0-3,0c-0.9,0-1.9,0-2.9,0c0,0.1,0,0.2,0.1,0.2c-0.5,0-1,0-1.5,0
		c-3.2,0.1-6.4,0.3-9.7,0.3c0,0,0,0,0,0c0.1,0,0.1-0.5,0.2-0.6c0.3-0.5,0.6-1,0.8-1.6c-0.3,0.6-0.5,1-0.8,1.5c0,0.2-0.1,0.4-0.2,0.6
		c-0.2,0.5-0.3,0.9-0.6,1.4c-1,1.8-2.1,3.5-3.5,5c-0.8,0.8-1.6,1.4-2.5,2.1c-0.8,0.6-1.6,1.2-2.5,1.5c-0.5,0.2-1.1,0.3-1.6,0.5
		c-0.5,0.2-0.9,0.4-1.3,0.5c-0.9,0.3-1.8,0.5-2.7,0.6c-2,0.2-3.8-0.2-5.6-0.9c-0.5-0.2-0.8-0.6-1.2-0.9c-0.4-0.3-0.7-0.6-1.1-1
		c-0.6-0.7-1.6-1.3-1.9-2.2c-0.6-1.9-1.5-4-1.5-5.9c0-0.2,0-0.5,0-0.5c0,0,0,0,0,0c0,0,0,0,0,0c-1.3,0-2.5-0.2-3.8-0.2
		c-1,0-2-0.2-3-0.2c-1.5,4.3-2.9,8.4-4,11.6c-1,3-1.8,4.8-2.1,5.8h-0.2h-0.2c0,0,0-0.1,0-0.2c0-0.3,0-0.7,0.1-1.3
		c0.1-1.2,0.3-2.8,0.6-4.8c0.2-1,0.3-2,0.6-3.2c0.2-1.1,0.5-2.3,0.8-3.5c0.3-1.2,0.6-2.5,1-3.7c0.1-0.3,0.2-0.7,0.3-1
		c0.9,0,1.8,0,2.7,0.1c0.1,0,0.2,0.1,0.3,0.1c-0.1,0-0.2-0.1-0.3-0.1c-0.9,0-1.8-0.1-2.7-0.2c0,0,0,0,0,0.1c-1,0-2.1,0-3.1,0
		c-2.9-0.1-5.6-0.3-8.2-0.5c-1.1-0.1-2.1-0.1-3.1-0.2l0.1-0.8c0,0,0,0,0,0l-0.1,0.8c-0.1,0-0.2,0-0.3,0c0.1,0,0.2,0,0.3,0l-0.1,0.4
		c0,0.1,0.1,0.2,0.1,0.3c0.5,1.5,1.3,2.7,2.2,3.9c0.9,1.3,2.4,2.3,3.3,3.7c0.4,0.7,0.9,1.3,1.2,2c0.4,0.8,0.6,1.6,0.8,2.4
		c0.2,0.7,0.3,1.5,0.3,2.3c0,0.8-0.3,1.8-0.2,2.6c0,0.3,0.3,0.7,0.3,1l3.8-0.1V289z M-312.2,267.1c0.2,0.2,0.5,0.5,0.7,0.7
		c0,0,0,0,0,0c0.4,0.4,0.8,0.7,1.2,1.1c0.1,0,0.1,0,0.2,0c0,0,0,0,0.1,0.1c0,0,0.1,0.1,0.1,0.1c0,0,0,0,0,0c0.1,0.3,0.2,0.5,0.3,0.7
		c0.2,0.3,0.5,0.6,0.7,0.8c0,0,0,0,0.1,0c0.1,0.1,0.2,0.3,0.3,0.4c1.8,2.6,2.9,5.8,4,8.8c0.2,1.2,1.2,5,1.8,7
		c0.3,0.8,0.5,1.7,0.7,2.5l-3.1,0c-0.2-0.8-0.5-1.6-0.6-2c-0.5-1.2-2.3-5.5-2.6-6.1c-0.4-1.6-0.8-3.2-1.1-4.9
		c-0.3-1.5-0.3-3-1.1-4.4c-0.1-0.2-0.2-0.4-0.4-0.6c0,0-0.1,0-0.1,0c-0.1-0.1-0.2-0.3-0.3-0.5c0,0,0-0.1-0.1-0.1
		c-0.1-0.3-0.3-0.6-0.4-1c-0.1-0.2-0.2-0.6-0.2-0.6c0,0,0,0,0,0h-0.1c0,0-0.1,0-0.1,0c-0.1-0.1-0.2-0.3-0.3-0.4
		c-0.1-0.1-0.1-0.2-0.2-0.3c-0.9-1-2-1.8-2.1-3.2c0,0,0,0,0,0C-313.8,265.5-313,266.3-312.2,267.1z M-329.7,271.6c0.9,0,1.8,0,2.8,0
		c0.1,0.3,0.2,0.6,0.3,0.9c0.4,1.2,0.7,2.5,1,3.7c0.3,1.2,0.6,2.4,0.8,3.5c0.3,1.1,0.5,2.2,0.6,3.2c0.4,2,0.6,3.6,0.7,4.8
		c0.1,0.6,0.1,1,0.1,1.3c0,0.1,0,0.2,0,0.2h-0.2h-0.2c-0.3-1-1.1-2.8-2.1-5.8c-1.1-3.2-2.6-7.3-4.1-11.6
		C-330,271.6-329.9,271.6-329.7,271.6z"/>
	<path id="XMLID_673_" class="st0" d="M-307.2,249.8L-307.2,249.8L-307.2,249.8C-307.2,249.7-307.2,249.7-307.2,249.8z"/>
	<path id="XMLID_675_" class="st0" d="M-368.3,251.3c0.3-0.5,0.6-0.8,0.8-1c-0.2,0.3-0.5,0.4-0.8,0.9c-0.2,0.2-0.3,0.5-0.5,0.8
		c0,0,0,0,0,0C-368.6,251.7-368.5,251.5-368.3,251.3z"/>
	<path id="XMLID_676_" class="st0" d="M-367.8,269.1c0,0,0,0.1,0,0.1c0,0,0,0.2,0,0.3C-367.8,269.3-367.8,269.1-367.8,269.1
		C-367.8,269.1-367.8,269.1-367.8,269.1z"/>
	<path id="XMLID_680_" class="st1" d="M-402.1,266.7c-0.1-0.3-0.3-0.7-0.5-1l-0.4,0.8C-402.7,266.7-402.4,266.7-402.1,266.7z"/>
	<path id="XMLID_681_" class="st1" d="M-401.5,264.6c0.4,0.4,0.9,0.7,1.3,1.1c0.2,0.2,0.5,0.7,1,0.5c0.1-1.3,0.1-2.7-0.3-3.9
		c-0.2-0.4-0.3-0.8-0.5-1.2l-1.7,3.3C-401.7,264.5-401.6,264.6-401.5,264.6z"/>
	<path id="XMLID_682_" class="st1" d="M-321.6,282.8C-321.6,282.8-321.6,282.8-321.6,282.8C-321.6,282.8-321.6,282.8-321.6,282.8
		C-321.6,282.8-321.6,282.8-321.6,282.8C-321.6,282.8-321.6,282.8-321.6,282.8z"/>
	<path id="XMLID_683_" class="st1" d="M-314.9,269.1C-314.9,269.1-314.9,269.1-314.9,269.1C-314.9,269.1-314.9,269.1-314.9,269.1
		C-314.9,269.1-314.9,269.1-314.9,269.1z"/>
	<path id="XMLID_684_" class="st1" d="M-321.6,282.8C-321.6,282.8-321.6,282.8-321.6,282.8c0-0.1-0.1-0.3-0.1-0.4
		C-321.7,282.5-321.7,282.6-321.6,282.8C-321.6,282.8-321.6,282.8-321.6,282.8C-321.6,282.8-321.6,282.8-321.6,282.8z"/>
	<path id="XMLID_685_" class="st1" d="M-319.7,269.1c0,0,0,0.1,0,0.2h0C-319.7,269.2-319.7,269.2-319.7,269.1
		C-319.7,269.1-319.7,269.1-319.7,269.1z"/>
	<path id="XMLID_686_" class="st1" d="M-306.8,269.1h-1.4C-307.7,269.1-307.2,269.1-306.8,269.1
		C-306.7,269.1-306.7,269.1-306.8,269.1L-306.8,269.1L-306.8,269.1z"/>
	<path id="XMLID_687_" class="st2" d="M-413.8,282.1c0,0,0,0.1,0,0.1C-413.7,282.3-413.7,282.4-413.8,282.1z"/>
	<path id="XMLID_690_" class="st2" d="M-413.5,285.9c0,0.1,0.1,0.1,0.1,0.1l0,0.1c0,0,0,0,0,0.1c0.5,0.8,1,1.6,1.5,2.4
		c0.1,0.2,0.2,0.5,0.4,0.7l2.5,0c-0.3-0.4-1-1.6-1.4-2.1c-0.4-0.5-1.3-1.7-2.1-2.8c-0.4-0.6-0.5-1.2-0.8-1.7c0,0,0.3,0,0.3-0.1v0
		c-1-0.2-0.8-0.4-0.7-0.5c0,0-0.1-0.1-0.1-0.2c-0.3-0.6-0.6-1.2-0.9-1.8c0.2-0.1,0.4-0.1,0.5-0.2c-0.1-0.4-0.3-0.9-0.4-1.3
		c0,0,0-0.1,0-0.1c0-0.1-0.1-0.3-0.1-0.6c-0.2-1.5-0.6-4.5-0.6-5.7c0-0.7-0.4-2.4-0.3-2.7c0.1-0.4,0.1-0.7,0-1c0-0.6,0-1.2,0-1.8
		c-0.1-0.7-0.2-1.4-0.2-2.1c0-1.3,0.4-2.8,0.9-4.1c0.5-1.3,1.1-2.7,2-4c0.9-1.4,2.3-2.2,3.7-3.3c0.7-0.6,1.3-1.1,2.1-1.6
		c0.7-0.4,1.3-0.7,2.1-0.9c1.5-0.4,3-0.5,4.4-0.1c0.2,0.2,0.4,0.4,0.6,0.5c0.3,0.1,0.6,0.1,0.8,0.3c0.5,0.4,1.2,0.6,1.7,1
		c0.4,0.3,0.7,0.7,1.1,1.1c0.1,0.1,0.3,0.3,0.4,0.5c0.3,0.4,0.7,0.8,1,1.2c0.9,1,1,2.2,1,3.5c0,0.6,0.2,1.1,0.1,1.7
		c-0.1,0.6-0.3,1.3-0.3,1.9c-0.4-0.2-0.4-0.7-0.5-1.1c-0.2-0.5-0.2-0.9-0.3-1.4c-0.2-1-0.9-1.9-1.1-2.9c-0.1,0.6-0.2,1.2-0.3,1.8
		c-0.1,0.6,0.1,1.2,0,1.9c-0.1,0.7-0.2,1.3-0.2,1.9c0.1,0.5,0.2,1-0.2,1.5c-0.7-1.4-1.5-2.8-2.4-4.1c-0.2-0.3-0.3-0.6-0.5-0.9
		c-0.1-0.1-0.1-0.2-0.2-0.3c-0.3,0.4-0.4,0.8-0.3,1.2c0,0.2,0,0.3,0.1,0.5c0.1,0.3,0.2,0.5,0.3,0.7c0.2,0.4,0.4,0.8,0.5,1.2
		c0.5,1.2,0.4,2.6,0.3,3.9c-0.4,0.1-0.8-0.3-1-0.5c-0.4-0.4-0.9-0.7-1.3-1.1c-0.1-0.1-0.2-0.1-0.3-0.2c-0.3-0.2-0.6-0.5-0.9-0.7
		c-0.1,0-0.1-0.1-0.2-0.1c-0.4-0.3-0.7-0.7-1.3-0.6c0.2,0.7,0.5,1.2,0.9,1.8c0.3,0.4,0.5,0.7,0.7,1.1c0.2,0.3,0.3,0.6,0.5,1
		c-0.3,0-0.6-0.1-0.9-0.1c-0.4-0.1-0.9-0.2-1.4-0.1c-0.1,0-0.3,0-0.5,0.1c0.1,0.1,0.2,0.2,0.3,0.3c0.3,0.3,0.7,0.5,1,0.8
		c0.1,0.1,0.2,0.1,0.3,0.2c0.3,0.2,0.6,0.5,0.9,0.7c0.2,0.2,0.3,0.3,0.4,0.5c0,0,0,0,0,0h-0.4c-0.1,0-0.2,0-0.4,0
		c-0.2,0-0.4,0-0.7,0c-0.3-0.1-0.6-0.1-0.8-0.2l0,0c-0.5-0.1-1-0.2-1.4-0.2l0,0l0,0c-1.1-0.1-2.2-0.1-3.3,0.3
		c0.8,0.4,1.8,0.5,2.8,0.7l0,0l0,0c0.3,0.1,0.6,0.1,0.8,0.2c0.2,0.1,0.4,0.1,0.5,0.2l0,0c0.3,0.1,0.7,0.3,1.1,0.4
		c0.6,0.2,1.2,0,1.2,0.6c-0.9,0.1-2,0.1-3,0.3c-0.4,0.1-0.8,0.2-1.1,0.4c0.3,0,0.6,0.1,0.9,0.1c0.4,0,0.7,0.1,1.1,0.2
		c0.6,0.1,1.2,0,1.8,0.3c-1.1,0.5-2.4,0.7-3.6,1c-0.7,0.2-1.5,0.4-2.1,0.8c0.2,0.4,0.9,0.3,1.5,0.2c0.2,0,0.4-0.1,0.5-0.1
		c0.7-0.1,1.3-0.2,2-0.1c0.2,0,0.4,0,0.6,0.1c-0.7,0.4-1.3,0.8-1.9,1.3c0.6,0,1,0.1,1.6,0.1c-0.1,0.1-0.1,0.2-0.2,0.2
		c-0.5,0.2-0.9,0.5-1.4,0.7c-0.5,0.3-1.1,0.4-1.6,0.8c-0.1,0-0.2,0.1-0.3,0.1c0.5-0.1,0.9-0.4,1.4-0.6c0.5-0.2,1-0.3,1.5-0.5
		c0.1,0,0.2,0,0.3,0c-0.4,0.4-0.7,0.8-1.1,1.2c0.8,0,1.5-0.3,2.2-0.5c-0.1,0.3-0.3,0.5-0.5,0.7c-0.4,0.4-0.9,0.8-1.3,1.2
		c-0.5,0.4-1.5,1-1.4,1.7c1.9-0.5,3.4-2.2,5.3-3c-0.2,0.6-0.8,1-1.1,1.5c-0.4,0.6-0.8,1.1-1.2,1.7c1.3-0.5,2.4-1.7,3.4-2.6
		c0.4,0.5-0.1,0.8-0.5,1.4c-0.3,0.5-0.5,1.1-0.7,1.6c-0.6,1.1-1.5,2.2-1.9,3.3c2.3-1.4,3.5-3.6,4.8-5.6c0.2,0.3,0.2,0.5,0.2,0.9
		c-0.1,0.4-0.1,0.8-0.2,1.2c-0.1,0.7-0.4,1.4-0.3,2.1c0.9-0.6,1.2-1.4,1.8-2.1c0.6,1.3,0.3,3,1,4.3c0.5-0.4,0.4-1,0.5-1.4
		c0.1-0.6,0.2-1.2,0.2-1.7c0.1-0.6,0.2-1.2,0.2-1.7c0-0.3,0-0.9,0.4-1.1c0.9,0.9,1.9,1.8,2.3,3c0.2,0.6,0.4,1.4,0.7,2
		c0.2,0.5,0.6,1,1.3,1c-0.3-2.1-0.7-4.1-1.2-6.1c0.6,0.1,0.9,0.5,1.2,0.9c0.4,0.5,0.9,0.8,1.4,1.2c0.5,0.4,0.8,0.9,1.2,1.3
		c0.4,0.4,0.9,0.7,1.4,1.1c-0.5-0.9-0.6-2-1.1-2.9c-0.2-0.4-0.6-0.8-0.7-1.2c-0.1-0.3-0.5-0.8-0.3-1.2c0.4,0.5,0.9,0.8,1.4,1.1
		c0.5,0.4,0.7,0.8,1.1,1.3c0.8,1,1.6,1.9,1.6,3.3c0,1.2,0.1,2.5,0,3.8c0,0.3-0.1,0.6-0.2,1l0.8,0c0.1-0.3,0.1-0.7,0.1-1
		c-0.1-0.8,0.2-1.7,0.2-2.6c0-0.8-0.1-1.5-0.3-2.3c-0.2-0.8-0.4-1.7-0.8-2.4c-0.3-0.7-0.8-1.3-1.2-2c-0.9-1.4-2.3-2.3-3.3-3.7
		c-0.9-1.3-1.7-2.5-2.2-3.9c0-0.1-0.1-0.2-0.1-0.3l0.1-0.4c-0.1,0-0.2,0-0.3,0c0.1,0,0.2,0,0.3,0l0.1-0.8c0-0.1-0.1-0.2-0.1-0.3
		c0-0.1-0.1-0.2-0.1-0.3c0-0.1-0.1-0.3-0.1-0.3c0,0,0-0.1-0.1-0.1c0,0,0,0,0,0c-0.4-1-0.6-2.4-0.8-3.8c-0.2-1.6,0.2-3.4-0.1-5.1
		c-0.1-0.8-0.2-1.6-0.4-2.3c-0.2-0.8-0.6-1.6-1-2.3c-0.4-0.7-0.8-1.3-1.3-1.8c-0.1-0.1-0.3-0.3-0.5-0.4c0,0,0,0,0,0l0,0
		c-0.1-0.1-0.3-0.2-0.4-0.3c0,0,0,0,0,0c-0.3-0.3-0.7-0.6-0.9-0.9c-0.4-0.5-1-0.8-1.7-1.2c-0.6-0.3-1.2-0.8-2-1
		c-0.7-0.2-1.5-0.1-2.3-0.1c-1,0-2,0.2-2.9,0.6c-1,0.4-1.8,1-2.6,1.5c-0.9,0.6-1.8,1.3-2.7,1.9c-1.6,1.1-2.8,2.8-3.9,4.2
		c-0.7,1-1.1,2-1.5,3c-0.4,1-0.8,2-0.9,3c0,0.4,0,0.9-0.1,1.3c-0.1,0.5-0.2,1-0.2,1.5c0,1,0.2,1.9,0.3,2.8c0.1,0.4,0.1,0.9,0.1,1.3
		c-0.1,0.5,0.2,0.9,0.2,1.3c0.2,1,0.5,2,0.7,3c0.2,1,0.7,2,0.7,3c0,0,0,0,0,0c0,1,0.4,1.9,0.6,2.9c-0.1,0.1-0.4,0.2-0.5,0.2
		c0.3,0.6,0.5,1.2,0.9,1.8c0,0,0,0,0,0c0.2,0.3,0.3,0.5,0.5,0.8l0,0C-414.2,284.8-413.9,285.4-413.5,285.9z M-394.1,273.9
		c0,0.6-0.2,1-0.5,1.6c-0.6-0.2-1-0.3-1.4-0.4c-0.3-0.3-0.6-0.6-0.8-1l-0.4-2.5c-0.1-0.4-0.1-1-0.1-1.4c0.2-0.3,0.3-0.2,0.5-1.2
		c0,0,0.1,0,0.1,0c0,0,0.1-0.1,0.1-0.1c0.2,0.1,0.3,0.2,0.4,0.2c0.2,0,0.3,0,0.5,0c0.2,0.1,0.3,0.4,0.5,0.5c0.2,0.2,0.6,1,0.7,1.2
		l0.4,1.8C-393.8,272.6-394.1,273.6-394.1,273.9z"/>
	<path id="XMLID_691_" class="st2" d="M-395.9,253.4L-395.9,253.4l1.7-3.4h0.2v-0.1v-0.1v-0.1l-0.2-0.1c-0.7,1.1-1.4,2.3-2.1,3.4
		c0,0,0,0,0,0C-396.2,253.1-396.1,253.2-395.9,253.4z"/>
	<path id="XMLID_692_" class="st2" d="M-415.3,291h0.1h5h0.4h0h2.4h21.8c0,0,0,0.1,0,0c0,0,0,0,0.1,0h0.9c0,0,0,0,0,0h0
		c0.1,0,0.1-0.5,0.2-0.7c0.1-0.3,0.2-0.7,0.3-1.1l-0.8,0c0,0,0,0,0,0l-24.1,0c0,0.1,0.1,0.1,0.1,0.1c0.2,0.2,0.4,0.4,0.6,0.7
		c-0.2-0.2-0.4-0.5-0.6-0.6c0,0-0.1-0.1-0.1-0.1l-2.5,0c0.1,0.2,0.2,0.3,0.3,0.4c0.3,0.3,0.6,0.6,0.8,1c-0.2-0.3-0.5-0.7-0.8-1
		c-0.1-0.1-0.2-0.3-0.3-0.4l-3.5,0l0-0.1l0-0.1l1.6-2.9l0-0.1c0-0.1-0.1-0.1-0.1-0.1c-0.4-0.6-0.7-1.1-1.1-1.7l0,0l-2.5,4.3
		l-1.5,2.7l2.9,0.1c0-0.1,0-0.4,0-0.4h0.1H-415.3z"/>
	<path id="XMLID_695_" class="st2" d="M-307.1,249.8C-307.1,249.7-307.1,249.7-307.1,249.8L-307.1,249.8L-307.1,249.8
		C-307.1,249.8-307.1,249.8-307.1,249.8l20.7,39.2h0l0.1,0.1l-8.8,0c0,0,0,0.2,0,0.2l-4,0c-0.1,0.5-0.4,0.9-0.6,1.1
		c0.2-0.2,0.4-0.6,0.4-1.1l-2.7,0c0.2,0.7,0.3,1.7,0.4,1.7h0.1c0,0,0,0-0.1,0h0.9c-0.1,0-0.1,0-0.2,0h0.2h4.2h10h0h0.1h0.2l0,0.4
		l3.1-0.1l-1.5-2.7l-5.5-9.8l-2.8-4.9l-2.8-4.9l-5.7-9.7c-1.9-3.3-3.8-6.5-5.8-9.7l-0.1,0.1L-307.1,249.8L-307.1,249.8z M-307,249.6
		v0.1c0,0,0,0-0.1,0l0-0.1L-307,249.6z"/>
	<path id="XMLID_696_" class="st2" d="M-295.4,289.1C-295.4,289.1-295.4,289.1-295.4,289.1l0.2,0c0,0,0,0,0,0H-295.4z"/>
	<path id="XMLID_697_" class="st2" d="M-318.7,291h2.2h4h2.4h2.5h3h3.1c-0.1,0-0.3-1-0.5-1.7l-3.1,0l-3.3-0.1c0.1,0.2,0.1,0.2,0,0
		l-2.4,0c0,0,0,0,0,0l-2.5,0c0,0,0,0,0,0l-3.5-0.1c0,0,0.1,0,0.1,0l-2.4,0v0l-1.7,0c0.1,0.1-0.1,0.1-0.1,0l-2.5,0c0,0,0,0,0,0
		c0,0.1,0,0.2,0,0.2l-0.3,0.1c0,0,0-0.1-0.1-0.3l-26.9,0l-29.6,0c-0.1,0.2-0.1,0.3-0.1,0.3l-0.3-0.1l0,0l0,0c0,0,0-0.1,0-0.2l-3.5,0
		c0,0,0,0,0,0c-0.1,0.3-0.2,0.7-0.3,1.1c-0.1,0.2-0.1,0.7-0.2,0.7h64.5H-318.7z"/>
	<path id="XMLID_698_" class="st1" d="M-362.1,268.9c-1.1,0-2.2-0.1-3.3-0.1c0,0.1,0,0.2,0,0.2h3h0.1
		C-362.2,269-362.1,269-362.1,268.9z"/>
	<path id="XMLID_699_" class="st1" d="M-344.8,271.9c0.1-0.1,0.1-0.2,0.2-0.3C-344.7,271.7-344.8,271.9-344.8,271.9
		C-344.9,271.9-344.9,271.9-344.8,271.9z"/>
	<polygon id="XMLID_700_" class="st1" points="-357.2,270.9 -357.2,270.9 -357.2,270.9 	"/>
	<path id="XMLID_701_" class="st1" d="M-356.1,268.9c0,0.1,0,0.1-0.1,0.1h3.7c0,0,0,0,0-0.1C-353.7,268.9-354.9,268.9-356.1,268.9z"
		/>
	<path id="XMLID_702_" class="st1" d="M-352.4,268.9C-352.4,269-352.5,269-352.4,268.9l8.8,0.1c0.1,0,0.1-0.1,0.2-0.1
		c-2.6,0-5.3,0-8,0C-351.7,268.9-352.1,268.9-352.4,268.9z"/>
	<path id="XMLID_703_" class="st1" d="M-358.9,268.9c-0.8,0-1.5,0-2.3,0c0,0,0,0,0,0c0,0.1,0,0.1-0.1,0.1h2.3
		C-359,269-358.9,268.9-358.9,268.9z"/>
	<path id="XMLID_704_" class="st1" d="M-352.7,249.5c-1.2,0-2.4-0.1-3.6-0.1c-0.1,0.2-0.1,0.6-0.2,0.6h3.8
		C-352.8,250-352.8,249.6-352.7,249.5z"/>
	<path id="XMLID_705_" class="st3" d="M-356.1,268.7c-0.2-0.3-0.4-0.6-0.6-0.9c-0.8,0.2-1.5,0.6-2,0.9c0,0,0,0,0,0.1
		c0,0-0.1,0-0.1,0c0,0,0,0,0,0.1c0,0.1-0.1,0.2-0.1,0.2c-0.3,1-0.5,1-0.8,1.5c0.1,0.4,0.1,0.9,0.2,1.4c0.1,0.6,0.2,1.2,0.7,1.9
		c0.2,0,0.5,0.1,0.8,0.1c0-0.7,0.2-1.4,0.4-2c0.2-0.4,0.3-0.7,0.6-1c0,0,0,0,0,0c-0.2,0.2-0.3,0.3,0-0.1c0.4-0.5,0.7-0.8,0.9-1.8
		c0,0,0-0.1,0.1-0.1h0c0,0,0-0.1,0.1-0.1C-356.1,268.8-356.1,268.8-356.1,268.7z"/>
	<path id="XMLID_706_" class="st3" d="M-357.2,270.9C-357.2,270.9-357.2,270.9-357.2,270.9C-357,270.8-356.9,270.6-357.2,270.9z"/>
	<path id="XMLID_707_" class="st3" d="M-356.3,279.2c0.3,0.7,0.3,0.7,0.9,0.8c0.6-1.7,1.4-3.5,1.6-5.3c-1-0.1-1.8,0.2-3,1.3
		C-356.4,277.1-356,278.1-356.3,279.2z"/>
	<path id="XMLID_708_" class="st3" d="M-361,279c0.4-0.6,0.8-1.2,1.2-1.7c0.4-0.5,1-0.8,1.1-1.5l-1.3-0.1c-0.6,0.1-1.2,0.1-1.8,0.1
		c0.1,0.4,0.1,0.8,0.1,1.1c-0.1,0.3-0.2,0.5-0.3,0.6c0.2,0.5,0.3,1,0.4,1.4C-361.3,279-361.1,279-361,279z"/>
	<path id="XMLID_709_" class="st3" d="M-349,272c0.1-0.3,0.1-0.5,0.2-0.8c-0.6,0.1-1.1,0.4-1.5,0.8c-0.2,0.2-0.3,0.4-0.5,0.6
		c-0.1,0.8-0.1,1.5-0.2,2.3c0,0.3,0,0.6-0.1,1c-0.1,0.4,0.1,0.6,0.4,0.9C-349.9,275.1-349.3,273.6-349,272z"/>
	<path id="XMLID_710_" class="st3" d="M-347.1,268.3l0.4,0c1.2-1.4,1.3-1.7,1.5-2.7c0.3-0.3,0.7-0.5,0.6-1.1
		c-1.1,0.1-1.9,0.8-2.9,1.3C-347.9,266.8-347.6,267.5-347.1,268.3z"/>
	<path id="XMLID_711_" class="st3" d="M-358.8,261.8c-1.3,0.1-2.2,0.8-3.2,1.3c0.2,0.7,0.4,1.3,0.6,2
		C-359.9,264.4-359.3,263.2-358.8,261.8z"/>
	<path id="XMLID_712_" class="st3" d="M-361.2,268.8c0.1-0.3,0.2-0.6,0.2-1c-0.5,0.3-0.8,0.7-1.2,1.1c0,0,0,0,0,0h-0.1h-0.1
		c-0.4,1-0.6,2-0.2,3c0,0,0,0,0,0c0.1,0,0.3,0.4,0.7,0.4c0-0.1,0.1-0.4,0.1-0.4c0,0,0,0,0,0c0.2-1,0.4-2,0.6-3h0.1
		C-361.2,269-361.2,269-361.2,268.8C-361.2,268.9-361.2,268.9-361.2,268.8z"/>
	<path id="XMLID_713_" class="st3" d="M-353.8,266c0.3-0.6,0.7-1.2,1-1.8c0.2-0.5,0.7-1,0.4-1.6c-0.6,0.4-1.2,0.7-1.7,1.1
		C-354.3,264.8-354.3,265.5-353.8,266z"/>
	<path id="XMLID_714_" class="st3" d="M-351.4,267c0.3-0.7,0.7-1.4,0.6-2.2c-0.4,0.2-0.6,0.4-0.9,0.6c-0.3,0.7-0.5,1.3-0.8,2
		c-0.2,0.5-0.4,0.6-0.1,1.5c0,0,0,0,0,0h0.1c0,0,0,0,0.1-0.1C-351.9,268-351.6,267.7-351.4,267z"/>
	<path id="XMLID_715_" class="st3" d="M-353.1,257.9c0.3-0.7,0.7-1.4,0.6-2.2c-0.4,0.2-0.6,0.4-0.9,0.6c-0.3,0.7-0.5,1.3-0.8,2
		c-0.2,0.6-0.4,1.1-0.1,1.6C-353.6,259.4-353.4,258.6-353.1,257.9z"/>
	<path id="XMLID_716_" class="st3" d="M-355.6,254c-0.9,0.1-1.5,0.5-2,1c-0.4,0.4-0.3,1-0.4,1.5c0.2,0.1,0.3,0.3,0.5,0.4
		C-356.9,255.9-356.3,255.1-355.6,254z"/>
	<path id="XMLID_719_" class="st3" d="M-346.2,254.6c0.2,0.3,0.4,0.6,0.6,0.9c0.8-0.2,1.5-0.6,2.1-0.9c0.4-0.7,0.8-1.4,1.1-2
		c0-0.1,0-0.5-0.1-0.5c0,0,0,0,0,0c-0.1-1-0.2-2-0.7-2h-0.9c-0.1,1-0.4,2-0.9,2c0,0,0,0,0,0c0,0,0,0,0,0c0,0,0,0,0,0c0,0,0,0,0,0
		c0,0,0,0.1,0,0.1c0,0,0,0.1,0,0.1v0c0,0,0,0.1-0.1,0.1C-345.7,253.1-345.9,253.9-346.2,254.6z M-345,252.4
		C-345,252.4-345,252.4-345,252.4C-345.3,252.7-345.2,252.6-345,252.4z"/>
	<path id="XMLID_720_" class="st3" d="M-345,252.4C-345,252.4-345,252.4-345,252.4C-345.2,252.6-345.3,252.7-345,252.4z"/>
	<path id="XMLID_721_" class="st3" d="M-345.4,247.3c-0.3-1-0.8-2.1-0.5-3.2c-0.3-0.7-0.3-0.7-0.9-0.8c-0.6,1.7-1.4,3.5-1.6,5.3
		C-347.4,248.7-346.6,248.4-345.4,247.3z"/>
	<path id="XMLID_722_" class="st3" d="M-340.4,247.5c-0.1-0.4-0.1-0.8-0.1-1.1c0.1-0.3,0.2-0.5,0.3-0.6c-0.2-0.5-0.3-1-0.4-1.4
		c-0.2,0-0.4,0-0.6,0c-0.4,0.6-0.8,1.2-1.2,1.7c-0.4,0.5-1,0.8-1.1,1.4l1.3,0.1C-341.7,247.5-341,247.5-340.4,247.5z"/>
	<path id="XMLID_723_" class="st3" d="M-352.7,250C-352.7,250-352.7,250-352.7,250h1.4c0-1,0-0.4,0-0.5c0-0.3,0-0.7,0.1-1
		c0-0.3,0-0.7,0.1-1c0.1-0.4-0.1-0.5-0.4-0.8c-0.5,0.9-0.8,1.9-1.1,2.8c0,0,0,0,0,0c0,0,0-0.2,0,0C-352.8,249.6-352.8,250-352.7,250
		L-352.7,250z"/>
	<path id="XMLID_724_" class="st3" d="M-352.7,250L-352.7,250c-0.3,0-0.5,1.5-0.7,2.3c0.9-0.2,1.5-0.6,2-1.3c0-0.4,0.1-1,0.1-1
		H-352.7C-352.7,250-352.7,250-352.7,250z"/>
	<path id="XMLID_725_" class="st3" d="M-343.4,261.5c1.3-0.1,2.2-0.8,3.1-1.3c-0.2-0.7-0.4-1.3-0.6-2
		C-342.3,258.9-342.9,260.1-343.4,261.5z"/>
	<path id="XMLID_726_" class="st3" d="M-341.3,255.4c0.7-0.4,1-0.9,1.4-1.3c0.3-0.3,0.5-1.1,0.5-1.9c0-0.6-0.3-1.2-0.8-1.1
		c-0.1,0.4-0.2,0.8-0.3,1.2C-340.8,253.3-341,254.3-341.3,255.4z"/>
	<path id="XMLID_727_" class="st3" d="M-348.1,259.6c0.2-1.1,0.2-1.8-0.3-2.3c-0.3,0.6-0.7,1.2-1,1.8c-0.2,0.5-0.7,1-0.4,1.6
		C-349.2,260.3-348.6,259.9-348.1,259.6z"/>
	<path id="XMLID_728_" class="st3" d="M-348.9,253.7c-0.5,0.6-0.8,1.3-0.8,2.2c0.3-0.1,0.9-0.6,1.5-1.2L-348.9,253.7z"/>
	<path id="XMLID_729_" class="st3" d="M-344.9,271.9c0.1-0.1,0.2-0.2,0.3-0.3C-344.8,271.8-344.9,271.9-344.9,271.9
		C-344.9,272-344.9,272-344.9,271.9z"/>
	<path id="XMLID_730_" class="st3" d="M-346,260.6c0.3-0.4,0.6-0.8,0.9-1.2l-0.7-1c-0.4,0.8-0.8,1.6-0.9,2.5
		C-346.4,261.1-346.2,260.9-346,260.6z"/>
	<polygon id="XMLID_731_" class="st3" points="-335,249.6 -335,249.6 -335,249.6 	"/>
	<path id="XMLID_734_" class="st3" d="M-367.8,269.1c0,0,0,0.2,0,0.4c0,0.1,0,0.2,0,0.2c0.1,0.7,0.3,1.3,0.3,2.3c0,0,0,0,0,0
		c0,0,0,0.3,0,0.5c0,2,0.9,4,1.5,5.9c0.3,0.9,1.3,1.5,1.9,2.2c0.3,0.4,0.7,0.7,1.1,1c0.4,0.3,0.7,0.8,1.2,0.9
		c1.9,0.7,3.6,1.1,5.6,0.9c0.9-0.1,1.8-0.3,2.7-0.6c0.5-0.2,0.9-0.4,1.3-0.5c0.5-0.2,1.1-0.3,1.6-0.5c0.9-0.4,1.7-0.9,2.5-1.5
		c0.9-0.7,1.7-1.3,2.5-2.1c1.4-1.5,2.6-3.2,3.5-5c0.2-0.5,0.4-0.9,0.6-1.3c0.1-0.2,0.1-0.4,0.2-0.6c0.3-0.5,0.6-1,0.8-1.5
		c0.1-0.2,0.2-0.5,0.3-0.7c0,0,0.1-0.1,0.1-0.2c0.1,0,0.1,0,0.2,0c0.1-0.2,0.2-0.6,0.3-0.8c0.2-0.2,0.3-0.4,0.5-0.6
		c0.1-0.4,2.8-4.7,3.3-5.6c0.3-1,0.6-2,0.9-3c0.1-0.3,0.1-0.6,0.1-0.8c0-0.1,0-0.2,0.1-0.3c0,0,0-0.1,0-0.1c0.2-0.5,0.2-0.9,0.3-1.4
		c0-0.4,0-0.7,0-1.1c0-0.4,0-0.7-0.1-1.1c0,0,0,0,0,0c0,0.1,0.1,0.1,0.1,0.2c0-0.1,0-0.2,0-0.2c0,0,0.3,0,0.3,0s0,0,0,0
		c0-0.1-0.2-0.3-0.3-0.4c-0.1-0.5-0.3-0.9-0.4-1.4c0,0-0.1,0-0.1,0c0,0,0,0,0,0c0,0,0,0,0,0c0,0,0,0,0,0c0-0.2-0.1-0.4-0.1-0.6
		c0-0.1,0-0.3,0-0.5c0-0.4-0.1-1-0.2-1c-0.1,0,0,0,0,0s0-0.4,0-0.4c0-1.5-0.9-3.5-1.3-4.7c-0.3-0.9-1.3-1.5-1.9-2.2
		c-0.3-0.4-0.7-0.7-1.1-1c-0.4-0.3-0.7-0.8-1.2-0.9c-1.9-0.7-3.6-1.1-5.6-0.9c-0.9,0.1-1.8,0.3-2.7,0.6c-0.5,0.2-0.9,0.4-1.3,0.5
		c-0.5,0.2-1.1,0.3-1.6,0.5c-0.9,0.4-1.7,0.9-2.5,1.5c-0.9,0.7-1.7,1.5-2.5,2.3c-1.2,1.2-2.3,2.7-3.1,4.7c0,0,0,0,0,0
		c0,0-0.1-0.3-0.1-0.3c0,0.1,0,0.3,0,0.3c0,0,0,0,0,0c0,0,0-0.1,0-0.1c0,0.1,0,0.2,0,0.4c-0.1,0-0.2,0-0.2,0.1
		c-0.3,0.6-0.5,0.9-0.7,1.6c-0.1,0.1-0.1,0.2-0.2,0.3c-0.5,0.9-0.9,1.7-1.3,2.6c-0.2,0.3-0.5,0.6-0.7,1c-0.1,0.4-2.8,4.7-3.3,5.6
		c-0.3,1-0.6,2-0.9,3c-0.1,0.4-0.1,0.8-0.2,1.2c-0.2,0.5-0.3,1.1-0.3,1.6C-367.9,267.8-367.9,268-367.8,269.1
		C-367.8,269-367.8,269-367.8,269.1C-367.8,269-367.8,269.1-367.8,269.1z M-365.4,264.5c0.4-1.9,1.5-3.7,2.3-5.5
		c0.3,0,0.5-0.1,0.6-0.1c0.5-0.5,0.8-1,1.1-1.6l0.3,0.4c0,0,0,0,0-0.1c0.8-1.2,1.6-2.3,2.6-3.7c0,0,0-0.3,0-0.4
		c0.2-0.3,0.3-0.6,0.5-1c0-0.1,0.1-0.2,0.1-0.3c0.1-0.2,0.2-0.3,0.3-0.4c0,0,0.1,0.2,0.2,0.2h0.4c0,0,0-0.2,0-0.2
		c0-0.5,0.3-1.8,0.6-1.8c0-0.1,0-0.3,0.1-0.6c0.1-0.3,0.2-0.7,0.2-0.9c0.7-0.9,1.4-1.7,2.3-2.4l-0.3-0.4c0.2-0.3,0.4-0.5,0.7-0.8
		c0.7-0.7,1.5-1.3,2.3-1.7c0.8-0.5,1.7-0.8,2.7-1.1c0.9-0.3,1.6-0.7,2.6-0.8c1.9-0.2,3.3,0.3,4.8,1.5c1.5,1.2,2.5,2.9,2.9,4.7
		c0.1,0.6,0.3,1.7,0.5,2.3c0,0.1,0,0.1,0,0.1c0.2,0,0.4,1.4,0.6,2.3c0,0,0,0,0,0c0.1,0.3,0.1,0.6,0.1,1c0.2,1.9,0.5,3.7,0.1,5.6
		c-0.4,1.9-1.5,3.7-2.3,5.5c-0.3,0-0.5,0.1-0.6,0.1c-0.4,0.5-0.8,1-1.1,1.5l-0.2-0.3c0,0,0,0,0,0.1c-0.7,1-1.4,2-2.2,3.2
		c0,0-0.1,0-0.1,0c0,0,0,0,0,0.1c-0.1,0.1-0.1,0.2-0.2,0.2c0,0,0,0.2-0.1,0.2c0,0,0,0.4,0,0.5c-0.2,0.3-0.3,0.6-0.5,1
		c-0.1,0.3-0.2,0.7-0.5,0.9c-0.1,0.1-0.1,0.2-0.2,0.3c-0.4,0.6-0.6,1.2-0.8,1.9c-0.1,0.2-0.2,0.4-0.2,0.6c-0.8,0.9-1.6,1.8-2.5,2.6
		l0.3,0.4c-0.2,0.3-0.4,0.6-0.7,0.8c-0.7,0.7-1.5,1.3-2.3,1.7c-0.8,0.5-1.8,0.8-2.7,1.1c-0.9,0.3-1.6,0.7-2.6,0.8
		c-1.9,0.2-3.4-0.3-4.9-1.5c-1.5-1.2-2.5-2.9-2.9-4.7c-0.3-1.3-0.7-2.6-0.9-3.9c-0.1-0.6-0.2-1.3-0.3-2c0-0.2,0-0.8-0.1-0.8
		c0,0,0-0.1,0-0.1c0,0,0,0,0,0C-365.6,267-365.7,266-365.4,264.5z"/>
	<path id="XMLID_735_" class="st3" d="M-335,250.1C-335,250.1-335,250.1-335,250.1C-335,250.1-335,250.1-335,250.1
		c0,0-0.1-0.4-0.1-0.4c0,0-0.1,0-0.1,0C-335.2,249.7-335,250.1-335,250.1C-335,250.1-335,250.1-335,250.1z"/>
	<path id="XMLID_736_" class="st3" d="M-356.1,262.7c-0.3,0.4-0.6,0.8-0.9,1.2l0.7,1c0.4-0.8,0.8-1.6,0.9-2.5
		C-355.8,262.2-356,262.4-356.1,262.7z"/>
	<path id="XMLID_748_" class="st1" d="M-409.8,291.3c0,0,0-0.2,0-0.2h-0.4C-410.1,291.1-409.9,291.1-409.8,291.3z"/>
	<path id="XMLID_749_" class="st1" d="M-407.3,291.1c0,0-0.1-0.1-0.1-0.1h-2.4l2.7,0.3C-407.2,291.2-407.2,291.1-407.3,291.1z"/>
	<line id="XMLID_750_" class="st4" x1="-410.2" y1="291.1" x2="-410.2" y2="291.1"/>
	<path id="XMLID_756_" class="st1" d="M-300.7,291.1c0.1,0,0.1-0.1,0.2-0.1h-0.9c0,0.1,0,0.1,0.1,0.1c0,0.1,0.1,0.2,0.1,0.2
		C-301.1,291.3-300.9,291.2-300.7,291.1z"/>
	<path id="XMLID_761_" class="st5" d="M-321.2,282.8C-321.2,282.8-321.2,282.8-321.2,282.8C-321.2,282.8-321.2,282.8-321.2,282.8
		C-321.2,282.8-321.2,282.8-321.2,282.8z"/>
	<path id="XMLID_764_" class="st5" d="M-341.4,272C-341.4,272-341.4,272-341.4,272c3.3,0,6.6-0.2,9.8-0.3c0.5,0,1,0,1.5-0.1
		c0-0.1,0-0.1-0.1-0.2c1,0,2,0,2.9,0c1,0,2.1,0,3,0c-0.2,0.7-0.2,1.5,0,2.3c0.2,1.1,1,9.2,1.3,10c0.3,0.7,0.4,1.2,0.7,1.9
		c0.2,0.6,0.3,1.4,0.6,2c0.2,0.5,0.5,1.1,0.7,1.6l1.5,0l-1.3-3.7c-0.3-0.9-0.6-1.7-0.9-2.6c0,0,0,0,0,0c0,0,0,0,0,0c0,0,0,0,0,0
		c-0.1-0.5-0.2-0.7-0.2-0.7c0,0.1,0.3,0.2,0.3,0.3c0,0.1,0.2,0.2,0.3,0.3c-0.9-1.7-1-3.5-1.2-5.3c-0.1-0.6-0.2-1.2-0.2-1.8
		c0-1.1-0.1-2.2,0.1-3.3c0.1-0.3,0.1-0.7,0.3-1c-0.1,0-0.1,0-0.2,0c0.1,0,0.1-0.2,0.2-0.2c0.3-0.7,0.6-1.2,1-2.2c0,0,0,0,0,0h0.1
		c0.6-1,1.3-1.8,1.8-2.7c0.5-0.9,0.8-2,0.9-3c0.2-1,0.1-2.1,0.4-3.2c0.2-0.9,0.6-1.3,1.4-1.7c0.4,0.1,0.8,0.2,1.2,0.2
		c1.5,0.9,1.9,2.7,3,4.2c1.6,1,3.1,2,4.9,2.5c0.8,0.2,1.7,0.3,2.5,0.6c0.8,0.3,1.5,0.8,2.2,1.4c0.6,0.5,1.1,1.1,1.6,1.7c0,0,0,0,0,0
		c0,0,0,0,0.1,0.1c0,0.1,0.1,0.1,0.1,0.2c0.1,0.1,0.2,0.3,0.3,0.4c0,0,0.1,0.1,0.1,0.1c1.7,2.3,2.8,4.9,3.8,7.6
		c0.5,1.3,0.5,6.3,0.1,7.9c-0.4,1.6-0.4,2.3-0.7,2.3s-0.3-0.5-0.4-1c-0.1-0.5-0.9-3.2-1.2-4.3c-0.3-1.1-0.6-2.9-0.7-3.9
		c-0.5-1.6-1-2.7-1.7-4.3c-0.3-0.8-0.6-1.9-1-2.6c-0.3-0.4-0.6-0.4-0.8-1.4c0,0,0,0,0,0c0,0,0,0,0,0c0,0,0,0-0.1,0
		c-0.2-0.2-0.6-0.7-0.7-0.9c0,0,0,0,0,0c0-0.1-0.1-0.1-0.1-0.1c0,0,0,0,0,0c0,0,0,0,0,0c0,0-0.1,0-0.1,0c0,0,0,0,0,0
		c0,0-0.1,0-0.1,0c-0.2-0.2-0.4-0.4-0.6-0.5c0,0,0,0,0,0c-0.8-0.6-1.8-1-2.8-1.5c-1.4-0.7-2.9-1.7-4.5-2.1c0,0,0,0,0,0
		c0.5,0.9,1.3,1.4,2.2,1.9c1.1,0.7,2.2,1.2,3.2,2.2v0h0.3c0,0,0,0,0,0c0,0,0.1,0.4,0.1,0.6c0.1,0.2,0.2,0.4,0.2,0.5
		c0,0.1,0.1-0.1,0.1-0.1c0,0.1,0-0.1,0-0.1h0.2c0,0,0,0.5,0,0.5c0,0.6,0.4,1.1,0.6,1.7c0,0.1,0,0.1,0,0.2c0.1,0.2,0.1,0.5,0.2,0.7
		c0.1,0.3,0.1,0.6,0.2,0.9c0.1,0.4,0.3,2.2,0.5,2.6c0.3,0.8,1.5,2.9,1.6,2.9c0,0,2.1,5.9,3.1,7.6c0.5,0.9,0.7,1.5,0.6,2.1l3.8-0.1h0
		c0,0,0,0.1,0,0c0,0,0,0,0,0c0-0.2,0.1-0.3,0.1-0.5c0.1-0.5,0.3-1,0.5-1.5c0.1-0.2,0.1-0.4,0.1-0.7c0-0.3-0.1-0.5,0-0.7
		c0.3-0.6,0.2-1.2,0.2-1.8c0-0.6,0-1.2-0.2-1.8c-0.1-0.6-0.4-1.3-0.4-1.9c0-0.6-0.1-1.1-0.2-1.7c-0.2-0.7-0.1-0.7-0.3-1.4
		c-1-2.5-1.9-5.1-3.4-7.4c0.1,0,0.5,0,0.6,0c0.8-0.1,1.4-0.1,1.4-0.1v-0.1v-0.2c0,0-0.9,0-2.1,0c0,0-0.2-0.1-0.2-0.1
		c-1.4-2-3.6-4.3-6.1-4.8c-1.3-0.3-2.5-0.6-3.7-1.2c-0.5-0.3-1.1-0.5-1.6-1c-0.5-0.5-0.7-1.2-1.1-1.7c-0.7-1-1.7-2.2-2.8-2.7
		c-1.1-0.5-2.4-0.4-3.5,0c-0.7,0.8-1.4,1.3-1.7,2.3c-0.3,1.1-0.1,2.5-0.1,3.6c-0.7,1.2-1.4,2.4-2.2,3.5c-0.4,0.6-0.8,1.2-1.1,1.9
		c0,0-0.1,0-0.1,0c0,0,0,0,0,0c-1.5,0-3-0.1-4.5-0.1c0,0.1,0.1,0.2,0.1,0.2c0,0-0.1-0.1-0.1-0.1c0,0,0,0,0,0c0,0-0.1-0.2-0.1-0.3
		c-0.5-1.2-0.9-2.5-1.4-3.7c-0.4-1.2-1-2.4-1.5-3.5c-0.5-1.1-1-2.2-1.5-3.3c-0.5-1-1-2-1.5-2.9c-0.2-0.4-0.4-0.8-0.6-1.1
		c0-0.1-0.1-0.1-0.1-0.2c0,0,0,0,0,0c0,0.4,0.1,0.7,0.1,1.1c0,0.4,0,0.7,0,1.1c0,0.5-0.1,0.9-0.3,1.4l4,11.5c0,0,0,0,0,0l-4-11.4
		c0,0,0,0.1,0,0.1c0,0.1-0.1,0.2-0.1,0.3c1.1,3.2,2.4,7.1,3.8,11c-2.9,0-5.8,0-8.8,0c-0.1,0-0.1,0-0.2,0c0,0-0.1,0.1-0.1,0.1
		c-0.1,0.3-0.2,0.5-0.3,0.7c-0.3,0.6-0.5,1-0.8,1.6C-341.3,271.6-341.3,272-341.4,272z M-330.8,269.1c0,0,0,0.3,0.1,0.4
		c0,0,0,0.1,0,0.1c0,0,0-0.1,0-0.1C-330.8,269.4-330.8,269.1-330.8,269.1L-330.8,269.1z"/>
	<path id="XMLID_765_" class="st5" d="M-321.3,282.7C-321.3,282.7-321.3,282.8-321.3,282.7C-321.3,282.8-321.3,282.7-321.3,282.7z"
		/>
	<path id="XMLID_766_" class="st5" d="M-312.8,268.3c0.1,0.1,0.1,0.2,0.2,0.3c0.1,0.2,0.2,0.3,0.3,0.4c0,0,0.1,0,0.1,0h0.1
		c0,0,0,0,0,0c0.1,0,0.1,0.4,0.2,0.6c0.1,0.4,0.3,0.7,0.4,0.9c0,0,0,0.1,0.1,0.1c0.1,0.2,0.2,0.4,0.3,0.5c0,0,0.1,0,0.1,0
		c0.1,0.2,0.2,0.4,0.4,0.6c0.8,1.4,0.8,2.9,1.1,4.4c0.3,1.6,0.7,3.2,1.1,4.9c0.3,0.5,2.1,4.9,2.6,6.1c0.2,0.4,0.4,1.2,0.6,2l3.1,0
		c-0.2-0.8-0.4-1.7-0.7-2.5c-0.6-1.9-1.6-5.8-1.8-7c-1.2-3-2.2-6.2-4-8.8c-0.1-0.2-0.2-0.3-0.3-0.4c0,0,0,0-0.1,0
		c-0.2-0.2-0.5-0.5-0.7-0.8c-0.1-0.2-0.2-0.4-0.3-0.7c0,0,0,0,0,0c0,0-0.1,0-0.1-0.1c0,0,0,0-0.1-0.1c-0.1,0-0.1,0-0.2,0
		c-0.4-0.4-0.8-0.8-1.2-1.1c0,0,0,0,0,0c-0.3-0.2-0.5-0.4-0.7-0.7c-0.8-0.8-1.6-1.6-2.6-2.1c0,0,0,0,0,0
		C-314.8,266.5-313.7,267.3-312.8,268.3z"/>
	<path id="XMLID_767_" class="st5" d="M-311.4,277.6c-0.6-1.4-1.3-2.7-2-4.1c-0.2-0.4-0.4-0.8-0.5-1.2c-0.1-0.4-0.3-0.7-0.4-1.1
		c0-0.1-0.1-0.2-0.1-0.4c0,0,0,0,0-0.1c-0.2-0.6-0.4-1.3-0.5-1.6c0,0,0-0.1,0-0.1c0,0,0,0,0,0c0,0,0-0.1,0-0.1h-0.1
		c-0.1,0-0.2-0.5-0.2-0.8c0,0,0-0.1,0-0.1c0-0.1-0.1-0.2-0.1-0.3c0-0.1,0-0.1,0-0.2c0-0.1-0.1-0.2-0.1-0.3c0-0.1,0-0.1-0.1-0.2
		c0-0.1-0.1-0.2-0.1-0.3c0-0.1,0-0.1-0.1-0.2c0-0.1-0.1-0.2-0.1-0.3c0-0.1-0.1-0.1-0.1-0.2c-0.1-0.1-0.1-0.2-0.2-0.3
		c0,0-0.1-0.1-0.1-0.1c-0.1-0.1-0.2-0.2-0.3-0.3c-0.6,1.2-0.4,2.3-0.1,3.5c0,0,0,0,0,0c0,0,0,0,0,0c0,0.1,0,0,0,0c0,0,0-0.1,0-0.1h0
		c0.1,1,0.3,0.9,0.4,1.6c0,0.1,0,0.1,0,0.2c0,0,0,0.1,0,0.1c0,0,0,0,0,0c0,0,0,0,0,0c0.2,1,0.5,1.3,0.7,1.9c0.1,0.1,0.1,0.3,0.1,0.4
		c0,0.1,0.1,0.2,0.1,0.3c0.2,0.7,0.2,1.3,0.4,2c0.3,0.8,0.5,1.6,0.8,2.5c0.4,1.5,0.8,3,1.2,4.5c0.3,0.4,1,3.3,1.4,4.6
		c0,0.1,0.1,0.2,0.1,0.2c0.1,0.3,0.4,1,0.7,1.9l2.4,0c-0.6-1.9-1.6-6.3-1.9-7.6C-310.5,280.3-310.9,279-311.4,277.6z"/>
	<path id="XMLID_768_" class="st5" d="M-313.6,288.1c-0.2-0.8-1.3-3.3-1.5-4.7c-0.5-1.5-0.9-3.1-1.5-4.6c-0.6-1.6-1.6-3-2.2-4.6
		c-0.4-1-0.5-2-0.4-3c0,0,0,0,0-0.1c0-0.4,0.1-0.8,0.2-1.2c0.1-0.2,0.1-0.4,0.2-0.6c0-0.1,0-0.1,0.1-0.2c0,0,0,0,0,0
		c0,0,0-0.1,0-0.1c0.1-0.4,0.2-0.9,0.4-1.3c0.2-0.7,0.5-1.5,0.3-2.3c-0.9,1.1-1.4,2.4-1.7,3.8c0,0.1,0,0.1,0,0.2
		c0,0.1,0,0.2-0.1,0.3c-0.1,0.6-0.1,1.1-0.2,1.7c0,0.1-0.1,0.3-0.1,0.4c-0.2,0.8-0.5,1.4-0.4,2.2c0.1,0.8,0.3,1.5,0.5,2.3
		c0.2,0.9,0.4,1.8,0.7,2.7c0.6,1.8,1,3.7,1.6,5.6c0,0.3,0.7,2.5,0.6,2.5c0.1,1.1,0.3,1.6,0.5,2.3l3.5,0
		C-313.4,288.8-313.5,288.4-313.6,288.1z"/>
	<polygon id="XMLID_769_" class="st5" points="-321.6,282.8 -321.6,282.8 -321.6,282.8 	"/>
	<path id="XMLID_770_" class="st5" d="M-367.3,249.8C-367.3,249.8-367.3,249.8-367.3,249.8C-367.3,249.8-367.3,249.8-367.3,249.8
		L-367.3,249.8z"/>
	<path id="XMLID_778_" class="st5" d="M-394,249.9v0.1h-0.2h2c0.5,0,1.2,0.2,1.9,0.3c2.4,0.3,5.8,0.7,9.9,1c2,0.2,4.3,0.3,6.6,0.4
		c1.6,0.1,3.3,0.2,5.1,0.3c0.2-0.3,0.3-0.6,0.5-0.8c0.3-0.5,0.6-0.7,0.8-0.9c-0.2,0.3-0.5,0.5-0.8,1c-0.1,0.2-0.3,0.4-0.5,0.7
		c0,0,0,0,0,0c-0.6,0.9-1.2,2.1-1.9,3.4c-0.5,0.9-1,1.8-1.4,2.9c-0.5,1-1,2.1-1.5,3.3c-0.5,1.1-1,2.3-1.4,3.5
		c-0.4,1.2-0.9,2.5-1.3,3.7c0,0.1,0,0.2-0.1,0.2c0,0,0,0-0.1,0c0,0,0,0,0,0c-5.7,0-10.9-0.1-15.2,0c0,0.1,0,0.1,0.1,0.1
		c0,0,0.1,0.1,0.1,0.3c0,0.1,0,0.2,0.1,0.3c0,0.1,0.1,0.2,0.1,0.3c0,0,0,0,0,0l-0.1,0.8c1,0.1,2,0.1,3.1,0.2
		c2.5,0.2,5.3,0.3,8.2,0.5c1,0,2,0,3.1,0c0,0,0,0,0-0.1c0.9,0,1.8,0.1,2.7,0.2c0.1,0,0.2,0.1,0.3,0.1c1,0,2,0.2,3,0.2
		c1.2,0,2.5,0.2,3.8,0.2c0,0,0,0,0,0c-0.1-1-0.2-1.6-0.3-2.3c0-0.1,0-0.1,0-0.2c0-0.2,0-0.3,0-0.3c0,0,0-0.2,0-0.2c0,0,0,0,0,0
		c-1.9,0-3.7-0.1-5.5-0.1c1.6-4.9,3.1-9.4,4.3-13c0.5-1.6,0.9-2.9,1.2-4c-0.1,0-0.2,0-0.2,0v0c0,0,0.2,0,0.2,0c0.3-0.9,0.5-2,0.7-2
		h0.1c-0.1,0-0.3,1-0.7,2.1c0.4,0,0.8,0,1.2,0c1.8,0,3.6,0.1,5.4,0.1c0.1-0.1,0.1-0.2,0.2-0.3c0.2-0.6,0.4-1,0.7-1.6
		c0.1-0.1,0.2-0.2,0.2-0.2c0-0.2,0.1-0.2,0.1-0.2c-2.5,0-5.2,0.2-7.2,0.2V250c0,0-0.3,0-0.3,0l-0.5,1.4l0.5-1.4l0,0h-0.1h0
		c0,0,0.1-0.1,0.1-0.2c-15,0-26.8-0.3-26.8-0.3v0.2V249.9L-394,249.9z M-368,252.1l-5.7,16.9c0,0,0,0,0,0L-368,252.1L-368,252.1z"/>
	<path id="XMLID_779_" class="st5" d="M-359.9,250.1c0-0.1,0-0.2,0-0.3c0-0.6,0-0.6,0,0.1C-359.9,249.9-359.9,250-359.9,250.1
		C-359.9,250.1-359.9,250.1-359.9,250.1z"/>
	<path id="XMLID_780_" class="st5" d="M-335,250C-335,250-335,250-335,250c0,0,0.1,0.6,0.1,1c0,0.2,0,0.3,0,0.5c0,0.2,0,0.4,0.1,0.7
		c0,0,0,0,0,0c0,0,0,0,0,0c0.1,0,0.1,0,0.2,0c2.6-0.1,5-0.2,7.4-0.4c2.3-0.1,4.5-0.3,6.6-0.5c4.1-0.3,7.5-0.7,9.9-1
		c1.2-0.1,2.1-0.3,2.8-0.4c0.4-0.1,0.7-0.1,0.9-0.1c0,0,0,0,0,0l-0.1,0l0,0l0,0l0.1,0l0.1-0.1v-0.2C-307,249.5-319.5,250-335,250
		C-335,250-335,250-335,250C-335,250-335,250-335,250z"/>
	<path id="XMLID_781_" class="st5" d="M-335,250.1c0,0-0.2-0.4-0.2-0.4c0,0,0,0,0,0v0c0,0,0,0.4,0,0.4S-335.1,250.1-335,250.1z"/>
	<path id="XMLID_782_" class="st5" d="M-307,249.8v-0.1l-0.1,0.1L-307,249.8C-307.1,249.8-307,249.8-307,249.8z"/>
	<path id="XMLID_783_" class="st5" d="M-377.3,271.4c-0.1,0.3-0.2,0.7-0.3,1c-0.4,1.2-0.7,2.5-1,3.7c-0.3,1.2-0.6,2.4-0.8,3.5
		c-0.3,1.1-0.4,2.2-0.6,3.2c-0.3,2-0.5,3.6-0.6,4.8c-0.1,0.6-0.1,1-0.1,1.3c0,0.1,0,0.2,0,0.2h0.2h0.2c0.3-1,1-2.8,2.1-5.8
		c1.1-3.2,2.5-7.3,4-11.6c-0.1,0-0.2-0.1-0.3-0.1C-375.5,271.5-376.4,271.5-377.3,271.4z"/>
	<path id="XMLID_784_" class="st5" d="M-380.3,289.2l-0.2,0l-0.2,0v0c0,0.1,0,0.2,0,0.2l0,0l0.3,0.1
		C-380.4,289.5-380.4,289.4-380.3,289.2z"/>
	<path id="XMLID_785_" class="st5" d="M-323.8,289h0.2h0.2c0,0,0-0.1,0-0.2c0-0.3,0-0.7-0.1-1.3c-0.1-1.2-0.3-2.9-0.7-4.8
		c-0.2-1-0.4-2.1-0.6-3.2c-0.3-1.1-0.5-2.3-0.8-3.5c-0.3-1.2-0.6-2.4-1-3.7c-0.1-0.3-0.2-0.6-0.3-0.9c-0.9,0-1.8,0-2.8,0
		c-0.1,0-0.2,0-0.3,0c1.5,4.3,3,8.4,4.1,11.6C-324.8,286.2-324.1,288-323.8,289z"/>
	<path id="XMLID_786_" class="st5" d="M-323.6,289.2l-0.2,0c0,0,0,0,0,0c0.1,0.2,0.1,0.3,0.1,0.3l0.3-0.1c0,0,0-0.1,0-0.2
		c0,0,0,0,0,0L-323.6,289.2z"/>
	<path id="XMLID_787_" class="st5" d="M-284.6,316c0-1.2-0.1-2.4-0.2-3.6l-0.4-7.2l-0.4-7.2c0-1.2-0.1-2.4-0.2-3.6l-0.2-3.1l0-0.4
		h-0.2h0.1v0.2v0.1v0.1l-0.2,26.2l-0.1,1.5h0h0h-64.4h0h-0.1l-64.1,0.3v-27.9v0v0l0-0.1l0-0.1V291h-0.3h-0.2h-0.1c0,0,0,0.2,0,0.4
		l0.1,0c-0.1,2.3-0.4,4.5-0.5,6.8l-0.4,7.2l-0.4,7.2c-0.1,2.4-0.2,4.8-0.3,7.2l-0.1,1.5l1.6,0l16.2,0.5l8.1,0.2l8.1,0.1
		c5.4,0.1,10.8,0.2,16.2,0.2l16.2,0.1l16.2-0.1c5.4,0,10.8-0.1,16.2-0.2l8.1-0.1l8.1-0.2l16.2-0.5l1.6,0l0-1.5L-284.6,316z"/>
</g>
</svg>
