<?xml version="1.0" encoding="utf-8"?>
<!-- Generator: Adobe Illustrator 19.0.0, SVG Export Plug-In . SVG Version: 6.00 Build 0)  -->
<svg version="1.1" id="Camada_1" xmlns="http://www.w3.org/2000/svg" xmlns:xlink="http://www.w3.org/1999/xlink" x="0px" y="0px"
	 viewBox="-415 244.1 128.6 72.9" style="enable-background:new -415 244.1 128.6 72.9;" xml:space="preserve">
<style type="text/css">
	.st0{fill:#CDC4BD;}
</style>
<path id="XMLID_68_" class="st0" d="M-328.8,298.2l-10.7-10.7c-0.1-0.1-0.2-0.1-0.3-0.2c4.5-6.7,3.8-15.8-2.1-21.7
	c-6.7-6.7-17.6-6.7-24.3,0c-6.7,6.7-6.7,17.6,0,24.3c3.3,3.3,7.7,5,12.1,5c3.3,0,6.7-1,9.6-2.9c0.1,0.1,0.1,0.2,0.2,0.3l10.7,10.7
	c0.6,0.6,1.5,1,2.4,1s1.7-0.3,2.4-1C-327.5,301.6-327.5,299.5-328.8,298.2z M-363,286.7c-5-5-5-13,0-18c2.5-2.5,5.7-3.7,9-3.7
	s6.5,1.2,9,3.7c5,5,5,13,0,18C-349.9,291.7-358,291.7-363,286.7z"/>
</svg>
