<?xml version="1.0" encoding="utf-8"?>
<!-- Generator: Adobe Illustrator 19.0.0, SVG Export Plug-In . SVG Version: 6.00 Build 0)  -->
<svg version="1.1" id="Layer_1" xmlns="http://www.w3.org/2000/svg" xmlns:xlink="http://www.w3.org/1999/xlink" x="0px" y="0px"
	 viewBox="-243 84.6 471.4 392.4" style="enable-background:new -243 84.6 471.4 392.4;" xml:space="preserve">
<style type="text/css">
	.st0{fill:#FFFFFF;}
</style>
<g>
	<g>
		<path class="st0" d="M-196.3,288.4c0.3-1.5,0.4-2.8,0.4-3.8s-0.2-1.8-0.6-2.4c-0.4-0.6-1.1-1.1-2-1.4c-0.9-0.3-2.1-0.6-3.6-0.8
			c-0.3-1.4-0.4-2.9-0.2-4.3c0.9,0.1,2,0.1,3.3,0.2c1.2,0,2.5,0.1,3.8,0.1s2.5,0.1,3.7,0.1s2.3,0,3.1,0c0.7,0,1.5,0,2.6-0.1
			c1.1,0,2.2-0.1,3.5-0.1c1.2,0,2.5-0.1,3.9-0.1c1.3,0,2.6-0.1,3.8-0.1c7.3,0,12.6,2,15.8,6c3.2,4,4.1,9.5,2.7,16.7
			c-0.6,3.2-1.7,6-3.2,8.5s-3.5,4.7-5.8,6.5s-4.9,3.2-7.9,4.1c-3,1-6.1,1.5-9.5,1.5c-2.9,0-5.1-0.4-6.6-1.2c-0.1-0.5,0-1.2,0.2-2.1
			c0.2-0.9,0.4-1.5,0.7-1.9c0.7,0.2,1.4,0.4,2.3,0.5c0.9,0.1,1.8,0.2,2.8,0.2c4.6,0,8.3-1.3,11.3-3.9c2.9-2.6,4.9-6.6,5.9-11.8
			c1.1-5.9,0.7-10.5-1.5-13.7c-2.1-3.2-6.1-4.8-12.1-4.8c-1.1,0-2.1,0-3.1,0.1c-1,0.1-2.1,0.3-3.3,0.6l-8.4,49.1
			c-0.3,2-0.5,3.5-0.6,4.7c-0.1,1.2,0.1,2.2,0.6,2.9c0.5,0.7,1.3,1.3,2.4,1.7c1.1,0.4,2.7,0.7,4.7,1c0.2,0.7,0.3,1.3,0.4,2
			c0,0.6,0,1.4-0.1,2.4c-2.6-0.1-4.8-0.2-6.6-0.3c-1.9,0-3.9-0.1-6.2-0.1c-2.5,0-4.7,0-6.8,0.1c-2,0-4.2,0.1-6.5,0.3
			c0.1-1.7,0.3-3.1,0.8-4.3c1.5-0.3,2.7-0.6,3.6-1c0.9-0.4,1.7-0.9,2.3-1.6s1-1.5,1.3-2.6c0.3-1.1,0.6-2.5,1-4.1L-196.3,288.4z"/>
		<path class="st0" d="M-143.4,321.7c-0.7,3.6-1.2,6.4-1.5,8.6s-0.4,3.9-0.4,5c0,1.1,0.2,1.9,0.6,2.3c0.3,0.4,0.8,0.6,1.3,0.6
			c0.7,0,1.4-0.2,2.2-0.7c0.8-0.4,1.8-1.2,2.9-2.3c0.9,0.8,1.5,1.8,1.8,3c-1.6,2-3.5,3.6-5.5,4.9c-2.1,1.3-4,2-5.9,2
			c-4.8,0-7.1-2.7-6.9-8.2c0-0.8,0-1.6,0.1-2.5c0.1-0.9,0.2-2,0.4-3.4c0.2-1.4,0.5-3.1,0.9-5.1c0.4-2.1,0.9-4.7,1.5-7.9
			c0.6-3.2,1.3-7.1,2.2-11.6s2-9.9,3.2-16.2c0.5-2.3,0.8-4.1,0.9-5.4c0.1-1.3,0-2.3-0.4-3c-0.3-0.7-1-1.1-1.9-1.2
			c-0.9-0.1-2.2-0.2-3.8-0.2c0-0.7,0-1.4,0.1-2.1c0-0.6,0.2-1.2,0.6-1.8c0.8-0.1,1.8-0.3,3.1-0.6c1.2-0.3,2.5-0.7,3.8-1.1
			c1.3-0.4,2.6-0.8,3.8-1.3c1.2-0.4,2.2-0.9,2.9-1.3c2,0.7,2.7,2.8,2.1,6.5c-1.3,7.7-2.7,15-4.1,22.1
			C-140.7,308.3-142,315.1-143.4,321.7z"/>
		<path class="st0" d="M-95.9,329.5c-0.4,2-0.7,3.5-0.9,4.6c-0.2,1.1-0.3,2-0.2,2.6c0.1,0.6,0.3,1,0.6,1.2s0.7,0.3,1.3,0.3
			c0.7,0,1.5-0.2,2.3-0.7c0.8-0.4,1.9-1.2,3.2-2.4c0.5,0.5,0.8,1,1.1,1.5s0.5,1.1,0.7,1.7c-1.6,1.9-3.5,3.5-5.5,4.8
			c-2.1,1.3-4,2-5.7,2c-2.3,0-4-0.6-5-1.7c-1-1.1-1.7-2.5-1.9-4.1c-0.2-1.6-0.1-3.3,0.3-5.1c0.4-1.8,0.9-3.4,1.5-4.8h-0.1
			c-0.9,1.9-2.1,3.8-3.4,5.6c-1.3,1.9-2.8,3.5-4.4,5c-1.6,1.5-3.3,2.7-5.1,3.7c-1.8,0.9-3.6,1.4-5.5,1.4c-3.4,0-5.8-1.7-7.2-5.1
			c-1.4-3.4-1.4-8.8,0.1-16.3c0.8-3.9,2.1-7.5,3.7-10.8c1.7-3.3,3.7-6.1,6.1-8.4c2.4-2.4,5.1-4.2,8-5.6c2.9-1.3,6-2,9.3-2
			c0.9,0,1.9,0.1,3,0.3c1,0.2,1.9,0.4,2.7,0.7c1,0,2.1-0.1,3.1-0.2c1.1-0.1,2-0.4,2.6-0.7c0.3,0.1,0.5,0.3,0.8,0.6
			c0.2,0.3,0.4,0.7,0.5,1.4c0.1,0.7,0,1.6-0.1,2.8c-0.1,1.2-0.4,2.8-0.9,4.8L-95.9,329.5z M-98.8,303.3c-1.8-0.7-3.8-1-6.2-1
			c-2.1,0-3.9,0.4-5.6,1.3c-1.6,0.8-3,2-4.2,3.5s-2.2,3.3-3.1,5.4c-0.8,2.1-1.5,4.4-2,6.9c-1.2,5.7-1.5,10.1-1,13.2
			c0.6,3.1,1.9,4.6,3.9,4.6c0.9,0,2-0.6,3.5-1.8c1.4-1.2,2.9-3,4.5-5.3c1.5-2.3,3.1-5.1,4.6-8.4s2.8-7,3.8-11.2L-98.8,303.3z"/>
		<path class="st0" d="M-42.6,328.9c-0.5,2.3-0.9,4.1-1.2,5.4s-0.4,2.2-0.5,2.8c0,0.6,0.1,1,0.3,1.1c0.2,0.1,0.6,0.2,1,0.2
			c0.7,0,1.7-0.3,2.8-1c1.1-0.6,2.1-1.4,2.9-2.2c0.9,0.9,1.5,2,1.8,3.2c-2.2,2.3-4.3,4-6.1,5.1c-1.9,1.1-3.7,1.7-5.5,1.7
			c-2,0-3.5-0.4-4.4-1.1s-1.5-1.8-1.8-3.2c-0.2-1.4-0.2-3.1,0.2-5.1c0.3-2,0.8-4.3,1.3-6.8l2.7-12c0.6-2.6,1-4.7,1.1-6.3
			c0.1-1.6,0-2.9-0.2-3.9c-0.2-0.9-0.6-1.6-1.2-2c-0.6-0.4-1.2-0.6-2-0.6c-1,0-2.3,0.7-4,2s-3.3,3.2-5,5.6c-1.7,2.4-3.3,5.2-4.7,8.5
			c-1.5,3.3-2.6,6.9-3.3,10.9l-2.5,13.1h-9.2l5.6-29.4c0.4-2.4,0.7-4.2,0.8-5.5s0-2.3-0.3-2.9c-0.3-0.6-1-1-1.9-1.2
			c-0.9-0.1-2.2-0.2-3.8-0.2c0-0.7,0-1.4,0.1-2.1c0-0.6,0.2-1.2,0.6-1.8c0.8-0.1,1.8-0.3,3.1-0.6c1.2-0.3,2.5-0.7,3.9-1.1
			c1.3-0.4,2.6-0.8,3.8-1.3c1.2-0.4,2.2-0.9,2.9-1.3c2,0.7,2.7,2.9,2.1,6.6c-0.5,2.9-1.1,5.3-1.8,7.2c-0.6,1.9-1.3,3.7-2.1,5.4h0.1
			l1.6-3.4c0.8-1.6,2-3.3,3.4-5.2c1.5-1.9,3.1-3.6,5-5.1c1.9-1.6,3.8-2.9,5.8-3.9s3.9-1.5,5.6-1.5c1.1,0,2.2,0.3,3.3,0.8
			s2,1.5,2.8,2.9c0.7,1.4,1.2,3.4,1.3,5.9s-0.3,5.8-1.3,9.7L-42.6,328.9z"/>
		<path class="st0" d="M-15.3,323.8c-0.6,2.8-1,5.1-1.2,7c-0.2,1.9-0.1,3.5,0.1,4.7s0.7,2.1,1.3,2.6c0.6,0.5,1.3,0.8,2.1,0.8
			c1.1,0,2.4-0.4,3.8-1.3c1.4-0.8,2.6-1.9,3.7-3.3c0.5,0.3,1,0.8,1.4,1.4c0.4,0.6,0.6,1.2,0.8,1.8c-0.7,0.9-1.5,1.8-2.5,2.7
			c-1,0.9-2.1,1.7-3.2,2.4c-1.2,0.7-2.4,1.3-3.7,1.8c-1.3,0.5-2.6,0.7-4,0.7c-4.2,0-7-1.6-8.3-4.9s-1.1-8.5,0.6-15.8l4.7-20.9
			c-1.1-0.1-2.4-0.3-3.7-0.4c-1.3-0.1-2.6-0.2-3.8-0.2c0-1.5,0.4-2.9,1.1-3.9h7.5l0.2-1c0.7-3.1,1.3-5.8,1.8-8.2
			c0.4-2.4,0.7-4.3,0.9-5.7c1.3-0.2,2.8-0.5,4.3-1c1.5-0.4,2.7-0.9,3.7-1.5c0.4,0.2,0.7,0.5,1,0.9c0.2,0.4,0.4,1,0.4,1.9
			c0,0.8-0.1,2-0.4,3.6c-0.3,1.5-0.7,3.6-1.3,6.1l-1.1,4.9h9.4c0,0.7,0,1.4-0.2,2.1c-0.1,0.7-0.3,1.3-0.6,1.8
			c-1.8,0-3.6,0.1-5.3,0.2c-1.7,0.1-3.2,0.3-4.5,0.5L-15.3,323.8z"/>
		<path class="st0" d="M26.3,297.2c2,0,3.7,0.3,5,1c1.3,0.6,2.4,1.5,3.1,2.5s1.1,2.2,1.3,3.6c0.2,1.3,0.1,2.7-0.2,4.1
			c-0.4,2.1-1.4,4-3.1,5.8c-1.7,1.8-3.6,3.3-5.9,4.5c-2.2,1.3-4.6,2.3-7.1,3s-4.8,1.1-6.9,1.2c-0.2,1.8-0.3,3.5-0.3,5.3
			s0.3,3.3,0.7,4.7s1,2.6,1.9,3.4c0.9,0.9,2.1,1.3,3.6,1.3s3.2-0.5,5-1.4c1.9-0.9,3.6-2.2,5-4c1,0.7,1.7,1.7,2.1,2.9
			c-0.9,1.2-2.1,2.4-3.4,3.6s-2.7,2.3-4.2,3.2s-3.1,1.7-4.7,2.3c-1.6,0.6-3.2,0.9-4.8,0.9c-2.8,0-5-0.7-6.6-2.1
			c-1.6-1.4-2.7-3.2-3.4-5.4c-0.7-2.2-1-4.7-0.9-7.5s0.4-5.5,1-8.3c0.7-3.9,1.9-7.4,3.5-10.5c1.6-3.1,3.5-5.7,5.5-7.8
			c2.1-2.1,4.3-3.7,6.6-4.8C21.8,297.7,24.1,297.2,26.3,297.2z M13.1,319.2c1.7-0.1,3.3-0.3,4.9-0.8c1.6-0.4,3.1-1.1,4.4-1.9
			s2.4-1.8,3.3-2.9c0.9-1.1,1.4-2.5,1.7-3.9c0.1-0.8,0.2-1.6,0.1-2.4s-0.3-1.6-0.7-2.3c-0.4-0.7-0.9-1.3-1.5-1.7
			c-0.6-0.4-1.4-0.7-2.4-0.7c-2,0-3.8,1.3-5.6,3.8c-1.8,2.6-3.1,6.1-3.9,10.5L13.1,319.2z"/>
		<path class="st0" d="M44.8,316.2c0.7-2.6,1.3-4.6,1.6-6c0.3-1.4,0.3-2.5,0-3.3c-0.3-0.7-0.9-1.2-1.8-1.4c-0.9-0.2-2.2-0.3-3.9-0.3
			c-0.1-1.5,0.1-2.8,0.6-3.8c0.8-0.1,1.8-0.3,2.8-0.6c1.1-0.3,2.2-0.7,3.3-1.1c1.1-0.4,2.2-0.8,3.1-1.3c1-0.4,1.8-0.9,2.4-1.3
			c2.1,0.9,3.3,2.3,3.8,4.4c0.4,2.1,0.1,5.2-1.1,9.3L50,330.3c-0.5,1.6-0.8,2.9-1,4c-0.2,1-0.3,1.8-0.2,2.4c0.1,0.5,0.3,0.9,0.6,1.1
			c0.3,0.2,0.7,0.3,1.2,0.3c0.7,0,1.5-0.2,2.4-0.7s1.9-1.2,2.9-2.2c1,0.7,1.6,1.8,1.8,3.2c-2,2.2-3.9,3.8-5.8,5s-3.8,1.8-5.7,1.8
			c-3.4,0-5.4-1.3-6.2-4c-0.8-2.7-0.6-6.2,0.7-10.6L44.8,316.2z M57.8,273.9c1.7,0,2.9,0.6,3.7,1.7c0.8,1.1,1,2.6,0.6,4.5
			c-0.3,1.8-1.1,3.2-2.3,4.3c-1.2,1.1-2.7,1.7-4.3,1.7c-1.6,0-2.8-0.6-3.6-1.7c-0.8-1.1-1-2.5-0.7-4.3c0.4-1.9,1.2-3.4,2.4-4.5
			C54.9,274.5,56.2,273.9,57.8,273.9z"/>
		<path class="st0" d="M90.9,340.2c-0.3,1.6-1,2.8-1.9,3.6c-0.9,0.9-2.1,1.3-3.6,1.3c-1.8,0-3.2-0.6-4.1-1.8
			c-0.9-1.2-1.2-2.7-0.8-4.7c0.3-1.3,0.9-2.5,2-3.4c1-0.9,2.3-1.4,3.7-1.4c1.5,0,2.8,0.6,3.8,1.8C90.9,336.9,91.3,338.4,90.9,340.2z
			"/>
		<path class="st0" d="M142.8,297.2c2,0,3.7,0.3,5,1c1.3,0.6,2.4,1.5,3.1,2.5s1.1,2.2,1.3,3.6c0.2,1.3,0.1,2.7-0.2,4.1
			c-0.4,2.1-1.4,4-3.1,5.8s-3.6,3.3-5.9,4.5c-2.2,1.3-4.6,2.3-7.1,3s-4.8,1.1-6.9,1.2c-0.2,1.8-0.3,3.5-0.3,5.3s0.3,3.3,0.7,4.7
			s1,2.6,1.9,3.4c0.9,0.9,2.1,1.3,3.6,1.3s3.2-0.5,5-1.4c1.9-0.9,3.6-2.2,5-4c1,0.7,1.7,1.7,2.1,2.9c-0.9,1.2-2.1,2.4-3.4,3.6
			s-2.7,2.3-4.2,3.2s-3.1,1.7-4.7,2.3c-1.6,0.6-3.2,0.9-4.8,0.9c-2.8,0-5-0.7-6.6-2.1c-1.6-1.4-2.7-3.2-3.4-5.4
			c-0.7-2.2-1-4.7-0.9-7.5s0.4-5.5,1-8.3c0.7-3.9,1.9-7.4,3.5-10.5c1.6-3.1,3.5-5.7,5.5-7.8c2-2.1,4.3-3.7,6.6-4.8
			C138.3,297.7,140.6,297.2,142.8,297.2z M129.6,319.2c1.7-0.1,3.3-0.3,4.9-0.8c1.6-0.4,3.1-1.1,4.4-1.9s2.4-1.8,3.3-2.9
			c0.9-1.1,1.4-2.5,1.7-3.9c0.1-0.8,0.2-1.6,0.1-2.4s-0.3-1.6-0.7-2.3c-0.4-0.7-0.9-1.3-1.5-1.7c-0.6-0.4-1.4-0.7-2.4-0.7
			c-2,0-3.8,1.3-5.6,3.8c-1.8,2.6-3.1,6.1-3.9,10.5L129.6,319.2z"/>
		<path class="st0" d="M184.3,329.1c-0.8,1.7-1.9,3.5-3.2,5.4c-1.3,1.9-2.8,3.6-4.5,5.3c-1.7,1.6-3.5,2.9-5.4,4
			c-1.9,1-3.8,1.6-5.8,1.6c-2.4,0-4.1-0.7-5.1-2.2c-1.1-1.4-1.7-3.3-2-5.6c-0.3-2.3-0.2-4.8,0.3-7.6c0.4-2.8,0.9-5.5,1.6-8.2
			c1-4,1.7-7.2,2.2-9.4c0.4-2.2,0.6-3.9,0.4-4.9s-0.7-1.7-1.6-1.9s-2.2-0.3-3.8-0.3c-0.1-0.6-0.2-1.3-0.1-2s0.3-1.3,0.6-1.9
			c0.7-0.1,1.7-0.3,3-0.6c1.2-0.3,2.5-0.7,3.9-1.1c1.3-0.4,2.6-0.8,3.8-1.3c1.2-0.4,2.1-0.9,2.8-1.3c0.7,0.5,1.3,1,1.7,1.5
			c0.4,0.5,0.5,1.6,0.4,3.2c-0.1,1.6-0.5,4-1.2,7.2s-1.7,7.6-3.1,13.2c-2.6,10.3-2,15.5,1.7,15.5c0.9,0,2.2-0.6,3.7-1.7
			c1.5-1.1,3.2-2.8,4.8-5.1c1.7-2.3,3.3-5.2,4.8-8.6c1.5-3.4,2.7-7.5,3.6-12.1l2.3-12.2h9.2l-4.9,25c-0.7,3.6-1.3,6.4-1.6,8.4
			c-0.3,2-0.5,3.5-0.6,4.5s0,1.6,0.3,1.9c0.3,0.2,0.7,0.4,1.3,0.4c0.7,0,1.5-0.2,2.2-0.7s1.6-1.3,2.8-2.4c0.5,0.4,0.9,0.9,1.2,1.5
			c0.3,0.6,0.6,1.2,0.8,1.8c-1.6,1.9-3.5,3.5-5.5,4.8c-2.1,1.3-4,2-5.8,2c-3.1,0-5.1-1-6-3.1c-0.9-2.1-1-4.8-0.4-8.2
			c0.3-1.8,0.9-3.4,1.6-4.8L184.3,329.1L184.3,329.1z"/>
	</g>
	<g>
		<path class="st0" d="M-175.5,175.3c0.4-0.5,0.7-1,1-1.5s0.7-1,1-1.5c0.5-0.7,1-1.2,1.5-1.6s1-0.6,1.5-0.8c0.5-0.1,1-0.1,1.5,0
			s0.9,0.3,1.4,0.6c0.8,0.6,1.4,1.4,1.5,2.4c0.2,0.9,0,1.9-0.4,3c0.3-0.1,0.5-0.1,0.7-0.1c0.3,0,0.6-0.1,1-0.1c0.3,0,0.7,0,1.1,0.1
			c0.4,0,0.9,0.1,1.5,0.2c1.1,0.1,1.9,0.1,2.6,0s1.2-0.5,1.7-1.1c0.1,0.1,0.3,0.2,0.4,0.3c0.1,0.1,0.2,0.2,0.3,0.3
			c-0.3,0.5-0.7,0.9-1,1.4s-0.6,1-0.9,1.5c-0.4,0-1-0.1-1.7-0.1c-0.7-0.1-1.4-0.2-2.2-0.3c-0.8-0.1-1.5-0.2-2.3-0.1
			c-0.7,0-1.3,0.1-2,0.2c-0.3,0.5-0.6,1-0.9,1.3l3.2,2.3c0.6,0.4,1.1,0.6,1.4,0.6s0.7-0.2,1-0.7c0.1,0,0.3,0.1,0.4,0.2
			c0.1,0.1,0.3,0.2,0.4,0.3c-0.3,0.4-0.6,0.8-0.9,1.2c-0.3,0.4-0.5,0.7-0.7,1l-0.4,0.5c-0.1,0.2-0.3,0.4-0.4,0.6
			c-0.1,0.2-0.3,0.4-0.4,0.6c-0.1,0.2-0.2,0.4-0.3,0.5c-0.1-0.1-0.3-0.2-0.4-0.3c-0.1-0.1-0.2-0.2-0.3-0.3c0.3-0.5,0.4-0.9,0.3-1.2
			c-0.1-0.3-0.4-0.7-1-1.1l-7.6-5.4c-0.6-0.4-1.1-0.6-1.4-0.6s-0.7,0.3-1,0.8c-0.1,0-0.3-0.1-0.4-0.2c-0.1-0.1-0.3-0.2-0.4-0.3
			c0.1-0.2,0.4-0.5,0.7-0.9C-176.1,176.2-175.8,175.8-175.5,175.3z M-173.8,174.3c-0.1,0.2-0.2,0.4-0.3,0.7l5.1,3.6
			c0.1-0.1,0.2-0.2,0.3-0.3c0.1-0.1,0.2-0.3,0.3-0.4c0.3-0.5,0.6-1,0.8-1.5s0.3-1,0.3-1.5s-0.1-0.9-0.3-1.3c-0.2-0.4-0.6-0.8-1-1.1
			c-0.8-0.5-1.5-0.7-2.3-0.6s-1.6,0.7-2.3,1.8C-173.5,173.8-173.7,174.1-173.8,174.3z"/>
		<path class="st0" d="M-158.6,153.7c0.2,0.2,0.4,0.3,0.7,0.5c0.3,0.2,0.5,0.3,0.8,0.5s0.5,0.4,0.8,0.5c0.3,0.2,0.5,0.3,0.7,0.4
			c0,0.2,0,0.3-0.1,0.5c-0.1,0.2-0.2,0.3-0.3,0.5c-0.3-0.2-0.6-0.4-0.9-0.5s-0.7-0.2-1.1-0.2c-0.4,0-0.8,0.2-1.2,0.4
			s-0.9,0.6-1.3,1.2l-1,1.2l4.6,4l0.6-0.7c0.3-0.3,0.5-0.7,0.7-0.9s0.3-0.5,0.3-0.8c0-0.2,0-0.5-0.1-0.7c-0.1-0.2-0.3-0.4-0.6-0.7
			c0.1-0.2,0.2-0.3,0.2-0.5c0.1-0.1,0.2-0.3,0.3-0.4c0.3,0.3,0.6,0.5,0.9,0.8l1.9,1.6c0.4,0.3,0.7,0.6,1,0.8
			c-0.1,0.2-0.3,0.3-0.4,0.4c-0.1,0.1-0.2,0.2-0.4,0.3c-0.3-0.2-0.6-0.4-0.8-0.5c-0.3-0.1-0.5-0.1-0.7-0.1s-0.5,0.2-0.7,0.4
			c-0.2,0.2-0.5,0.5-0.8,0.8l-0.6,0.7l3,2.6c0.3,0.3,0.6,0.5,0.8,0.6s0.5,0.2,0.7,0.2s0.4-0.1,0.6-0.3c0.2-0.2,0.5-0.4,0.7-0.7
			l0.1-0.1c0.4-0.5,0.8-1,0.9-1.4c0.2-0.4,0.3-0.8,0.3-1.1c0-0.4-0.1-0.7-0.2-1.1c-0.2-0.4-0.3-0.7-0.6-1.2c0.2-0.1,0.4-0.2,0.5-0.3
			c0.2-0.1,0.3-0.1,0.5-0.1c0.3,0.5,0.6,0.9,1,1.4s0.7,0.9,1.1,1.3c-0.1,0.2-0.3,0.4-0.5,0.6s-0.4,0.5-0.7,0.8s-0.5,0.6-0.8,0.9
			l-1.7,2c-0.4,0.4-0.7,0.8-1.1,1.2c-0.3,0.4-0.7,0.8-1,1.2c-0.3,0.4-0.5,0.7-0.7,0.9c-0.3-0.3-0.5-0.5-0.7-0.7
			c0.2-0.2,0.3-0.4,0.4-0.6c0.1-0.2,0.1-0.4,0-0.6c0-0.2-0.2-0.4-0.3-0.6c-0.2-0.2-0.4-0.5-0.7-0.7l-6.9-5.9c-0.6-0.5-1-0.7-1.3-0.7
			s-0.7,0.2-1.1,0.6c-0.1,0-0.2-0.1-0.4-0.2c-0.1-0.1-0.3-0.2-0.4-0.3c0.2-0.2,0.3-0.4,0.6-0.6c0.2-0.3,0.5-0.5,0.7-0.8
			s0.5-0.5,0.7-0.8l0.5-0.6c1-1.2,1.8-2.1,2.4-2.9C-159.3,154.5-158.8,153.9-158.6,153.7z"/>
		<path class="st0" d="M-152.5,147c0.1-0.1,0.3-0.2,0.4-0.4c0.2-0.2,0.3-0.3,0.5-0.5s0.4-0.3,0.6-0.5l0.5-0.5c0.4-0.3,0.7-0.7,1-1
			s0.7-0.7,1-1c0.7-0.7,1.5-1.3,2.3-1.9s1.7-0.9,2.7-1.1c0.9-0.2,1.9-0.1,2.9,0.2c1,0.3,2.1,1,3.1,2.1c0.8,0.9,1.4,1.7,1.8,2.5
			s0.6,1.6,0.6,2.4c0.1,0.7,0,1.5-0.2,2.1s-0.5,1.3-0.8,1.9s-0.7,1.1-1.1,1.5c-0.4,0.4-0.7,0.8-1,1.1l-1,1c-0.4,0.4-0.8,0.8-1.2,1.1
			c-0.4,0.4-0.7,0.7-1.1,1.1c-0.3,0.3-0.6,0.6-0.8,0.8c-0.3-0.3-0.5-0.6-0.6-0.8c0.2-0.2,0.4-0.4,0.5-0.6s0.1-0.4,0.1-0.6
			s-0.1-0.4-0.3-0.6s-0.4-0.5-0.7-0.8l-6.3-6.6c-0.5-0.5-0.9-0.8-1.3-0.9c-0.3,0-0.7,0.1-1.2,0.5c-0.1-0.1-0.2-0.1-0.4-0.2
			C-152.3,147.3-152.4,147.2-152.5,147z M-141.5,153.1c0.3,0.3,0.5,0.5,0.8,0.7c0.2,0.2,0.4,0.2,0.7,0.2c0.2,0,0.4-0.1,0.7-0.2
			c0.2-0.1,0.5-0.3,0.8-0.6c0.6-0.6,1.2-1.3,1.5-1.9c0.4-0.7,0.6-1.4,0.7-2.1c0-0.7-0.1-1.5-0.5-2.3s-1-1.7-1.8-2.6
			s-1.7-1.5-2.5-1.8c-0.8-0.4-1.7-0.5-2.5-0.5s-1.6,0.2-2.3,0.6s-1.4,0.8-2,1.4c-0.2,0.2-0.4,0.4-0.6,0.6c-0.2,0.2-0.4,0.5-0.5,0.6
			L-141.5,153.1z"/>
		<path class="st0" d="M-129.1,126.5c0.2,0.2,0.4,0.4,0.6,0.6c0.2,0.2,0.4,0.4,0.7,0.7c0.2,0.2,0.4,0.4,0.7,0.7
			c0.2,0.2,0.4,0.4,0.6,0.5c0,0.2-0.1,0.3-0.2,0.4c-0.1,0.1-0.2,0.3-0.4,0.4c-0.2-0.2-0.5-0.5-0.8-0.7c-0.3-0.2-0.6-0.3-1-0.4
			s-0.8,0-1.3,0.2s-1,0.5-1.5,0.9l-1.3,1l3.8,4.8l0.7-0.6c0.4-0.3,0.6-0.5,0.9-0.8c0.2-0.2,0.4-0.5,0.4-0.7c0.1-0.2,0.1-0.5,0-0.7
			s-0.2-0.5-0.4-0.8c0.1-0.2,0.2-0.3,0.3-0.4c0.1-0.1,0.2-0.2,0.4-0.4c0.2,0.3,0.5,0.6,0.7,1l1.5,1.9c0.3,0.4,0.6,0.7,0.8,1
			c-0.2,0.1-0.3,0.2-0.4,0.3c-0.1,0.1-0.3,0.2-0.4,0.2c-0.3-0.3-0.5-0.5-0.7-0.6s-0.5-0.2-0.7-0.2s-0.5,0.1-0.8,0.2
			c-0.3,0.1-0.6,0.4-1,0.6l-0.7,0.6l2.5,3.1c0.3,0.3,0.5,0.6,0.7,0.8c0.2,0.2,0.4,0.3,0.6,0.3c0.2,0,0.4,0,0.7-0.1
			c0.2-0.1,0.5-0.3,0.8-0.6l0.1-0.1c0.5-0.4,0.9-0.8,1.2-1.2c0.3-0.4,0.4-0.7,0.5-1.1s0.1-0.7,0-1.1s-0.2-0.8-0.4-1.3
			c0.2-0.1,0.4-0.1,0.6-0.2c0.2,0,0.3,0,0.5,0c0.2,0.5,0.4,1,0.7,1.6c0.3,0.5,0.5,1,0.8,1.5c-0.2,0.1-0.4,0.3-0.6,0.5
			s-0.5,0.4-0.8,0.6s-0.6,0.5-0.9,0.7l-2.1,1.7c-0.4,0.3-0.9,0.7-1.3,1c-0.4,0.3-0.8,0.7-1.2,1s-0.7,0.5-0.9,0.7
			c-0.3-0.3-0.4-0.6-0.5-0.8c0.2-0.2,0.4-0.4,0.5-0.6s0.2-0.4,0.2-0.6s-0.1-0.4-0.2-0.7c-0.1-0.2-0.3-0.5-0.6-0.9l-5.6-7.1
			c-0.5-0.6-0.8-0.9-1.2-1s-0.7,0.1-1.2,0.4c-0.1-0.1-0.2-0.2-0.3-0.3s-0.2-0.3-0.3-0.4c0.2-0.1,0.4-0.3,0.7-0.5s0.6-0.4,0.8-0.6
			c0.3-0.2,0.6-0.4,0.8-0.6l0.6-0.5c1.2-0.9,2.2-1.7,2.9-2.3C-129.9,127.2-129.4,126.7-129.1,126.5z"/>
		<path class="st0" d="M-114,116c0.1-0.1,0.3-0.1,0.5-0.3c0.2-0.1,0.4-0.2,0.6-0.3c0.2-0.1,0.4-0.2,0.7-0.4l0.7-0.4
			c0.4-0.2,0.8-0.5,1.3-0.8c0.4-0.3,0.8-0.5,1.2-0.7c0.8-0.5,1.7-0.9,2.7-1.3c1-0.3,1.9-0.5,2.9-0.5s1.9,0.3,2.8,0.9
			c0.9,0.6,1.7,1.5,2.5,2.8c0.6,1,1,2,1.2,2.9s0.2,1.7,0.1,2.4c-0.1,0.7-0.4,1.4-0.7,2c-0.4,0.6-0.8,1.2-1.2,1.6
			c-0.4,0.5-0.9,0.9-1.4,1.2s-0.9,0.6-1.2,0.8l-1.2,0.7c-0.5,0.3-0.9,0.5-1.4,0.8s-0.9,0.5-1.3,0.8s-0.7,0.4-1,0.6
			c-0.2-0.4-0.3-0.7-0.4-0.9c0.2-0.2,0.4-0.3,0.6-0.5c0.1-0.2,0.2-0.3,0.2-0.5s0-0.4-0.1-0.7s-0.2-0.6-0.5-0.9l-4.6-7.9
			c-0.4-0.6-0.7-1-1-1.1s-0.7,0-1.3,0.2c-0.1-0.1-0.2-0.2-0.3-0.3S-113.9,116.2-114,116z M-104.8,124.5c0.2,0.4,0.4,0.6,0.6,0.8
			c0.2,0.2,0.4,0.3,0.6,0.4s0.4,0.1,0.7,0s0.6-0.2,0.9-0.4c0.8-0.4,1.4-0.9,2-1.5c0.5-0.6,0.9-1.2,1.1-1.9c0.2-0.7,0.3-1.5,0.1-2.4
			c-0.1-0.9-0.5-1.9-1.2-2.9c-0.6-1-1.3-1.8-2-2.4c-0.7-0.5-1.5-0.9-2.3-1.1c-0.8-0.2-1.6-0.1-2.4,0c-0.8,0.2-1.6,0.5-2.3,0.9
			c-0.2,0.1-0.5,0.3-0.7,0.5c-0.3,0.2-0.5,0.4-0.6,0.5L-104.8,124.5z"/>
		<path class="st0" d="M-86.4,101.6c0.1,0.2,0.3,0.5,0.4,0.7c0.2,0.3,0.3,0.5,0.5,0.8s0.3,0.5,0.5,0.8s0.3,0.5,0.5,0.7
			c-0.1,0.1-0.2,0.3-0.3,0.4c-0.1,0.1-0.3,0.2-0.5,0.3c-0.2-0.3-0.4-0.6-0.6-0.8s-0.5-0.5-0.9-0.6s-0.8-0.2-1.3-0.1
			c-0.5,0-1,0.2-1.7,0.5l-1.5,0.7l2.5,5.5l0.8-0.4c0.4-0.2,0.8-0.4,1-0.5c0.3-0.2,0.5-0.4,0.6-0.6c0.1-0.2,0.2-0.4,0.2-0.7
			s-0.1-0.5-0.2-0.9c0.1-0.1,0.3-0.2,0.4-0.3c0.1-0.1,0.3-0.2,0.5-0.3c0.1,0.4,0.3,0.7,0.5,1.1l1,2.3c0.2,0.4,0.4,0.8,0.6,1.2
			c-0.2,0.1-0.4,0.2-0.5,0.2c-0.1,0.1-0.3,0.1-0.5,0.1c-0.2-0.3-0.4-0.6-0.6-0.8c-0.2-0.2-0.4-0.3-0.6-0.4s-0.5-0.1-0.8,0
			s-0.7,0.2-1.1,0.4l-0.8,0.4l1.7,3.6c0.2,0.4,0.3,0.7,0.5,0.9s0.3,0.4,0.5,0.4c0.2,0.1,0.4,0.1,0.7,0s0.6-0.2,1-0.3l0.1-0.1
			c0.6-0.3,1.1-0.6,1.4-0.9c0.3-0.3,0.6-0.6,0.7-0.9c0.1-0.3,0.2-0.7,0.2-1.1s0-0.8,0-1.3c0.2,0,0.4,0,0.6,0s0.3,0,0.5,0.1
			c0.1,0.5,0.2,1.1,0.3,1.7s0.3,1.1,0.4,1.6c-0.2,0.1-0.4,0.2-0.7,0.3s-0.6,0.3-1,0.4c-0.4,0.2-0.7,0.3-1.1,0.5l-2.4,1.1
			c-0.5,0.2-1,0.5-1.5,0.7s-0.9,0.4-1.4,0.7c-0.4,0.2-0.8,0.4-1,0.5c-0.2-0.4-0.3-0.7-0.3-0.9c0.3-0.1,0.5-0.3,0.6-0.4
			c0.2-0.1,0.2-0.3,0.3-0.5c0-0.2,0-0.4,0-0.7c-0.1-0.3-0.2-0.6-0.4-1l-3.8-8.3c-0.3-0.7-0.6-1.1-0.9-1.2s-0.7-0.1-1.3,0.1
			c-0.1-0.1-0.2-0.2-0.3-0.4c-0.1-0.1-0.2-0.3-0.2-0.5c0.2-0.1,0.5-0.2,0.8-0.3s0.6-0.3,1-0.4c0.3-0.1,0.6-0.3,0.9-0.4l0.7-0.3
			c1.4-0.6,2.5-1.2,3.4-1.6S-86.7,101.8-86.4,101.6z"/>
		<path class="st0" d="M-65,93.7c0.8-0.2,1.5-0.4,2.1-0.3s1.1,0.1,1.5,0.3c0.1,0.4,0.3,0.9,0.5,1.4s0.4,1,0.5,1.3
			c-0.1,0.1-0.3,0.2-0.5,0.3s-0.4,0.2-0.6,0.2c-0.3-0.6-0.6-1-0.8-1.4c-0.3-0.3-0.5-0.6-0.8-0.8s-0.5-0.2-0.8-0.3
			c-0.3,0-0.5,0-0.8,0.1c-0.6,0.2-1.1,0.5-1.3,1c-0.3,0.5-0.3,1.1-0.1,1.7c0.2,0.6,0.5,1.1,1,1.4c0.4,0.3,1,0.5,1.5,0.7
			c0.6,0.2,1.2,0.3,1.8,0.4c0.6,0.1,1.3,0.3,1.9,0.5c0.6,0.2,1.1,0.5,1.6,0.9s0.8,1,1.1,1.8c0.2,0.5,0.2,1.1,0.1,1.6
			s-0.2,1.1-0.5,1.6s-0.6,0.9-1.1,1.3s-1,0.7-1.6,0.8c-0.5,0.2-0.9,0.3-1.3,0.3c-0.4,0.1-0.8,0.1-1.1,0.1c-0.4,0-0.7-0.1-1.1-0.1
			s-0.8-0.2-1.3-0.3c-0.1-0.6-0.2-1.1-0.3-1.7c-0.1-0.5-0.3-1-0.4-1.4c0.1-0.1,0.3-0.2,0.5-0.3s0.4-0.2,0.6-0.2
			c0.2,0.5,0.4,1,0.7,1.4c0.2,0.4,0.5,0.7,0.9,0.9c0.3,0.2,0.7,0.4,1.1,0.4c0.4,0,1,0,1.5-0.2c0.4-0.1,0.7-0.3,1-0.5
			s0.5-0.4,0.6-0.7s0.2-0.5,0.2-0.8s0-0.6-0.1-0.9c-0.2-0.6-0.5-1.1-1-1.4c-0.4-0.3-1-0.5-1.5-0.7c-0.6-0.1-1.2-0.3-1.8-0.3
			c-0.7-0.1-1.3-0.2-1.9-0.4s-1.1-0.5-1.6-1c-0.5-0.4-0.9-1.1-1.1-1.9c-0.2-0.6-0.2-1.1-0.2-1.6s0.2-1,0.4-1.4s0.6-0.8,1-1.1
			S-65.6,93.9-65,93.7z"/>
		<path class="st0" d="M-43.5,88.5c0.1,0.2,0.1,0.5,0.2,0.8c0.1,0.3,0.2,0.6,0.3,0.9c0.1,0.3,0.2,0.6,0.3,0.9s0.2,0.5,0.3,0.8
			c-0.1,0.1-0.2,0.2-0.4,0.3s-0.3,0.1-0.5,0.2c-0.1-0.3-0.2-0.6-0.4-1s-0.4-0.6-0.8-0.8c-0.3-0.2-0.7-0.3-1.2-0.4s-1.1,0-1.8,0.1
			l-1.6,0.3l1.3,5.9l0.9-0.2c0.4-0.1,0.8-0.2,1.1-0.3s0.5-0.3,0.7-0.4c0.2-0.2,0.3-0.4,0.3-0.6c0-0.2,0-0.5-0.1-0.9
			c0.2-0.1,0.3-0.2,0.5-0.2c0.1-0.1,0.3-0.1,0.5-0.1c0.1,0.4,0.1,0.8,0.2,1.2l0.5,2.4c0.1,0.5,0.2,0.9,0.3,1.2
			c-0.2,0-0.4,0.1-0.5,0.1s-0.3,0-0.5,0c-0.1-0.4-0.2-0.7-0.4-0.9c-0.1-0.2-0.3-0.4-0.5-0.5s-0.5-0.2-0.8-0.2s-0.7,0.1-1.1,0.1
			l-0.9,0.2l0.8,3.9c0.1,0.4,0.2,0.7,0.3,1c0.1,0.2,0.2,0.4,0.4,0.6c0.2,0.1,0.4,0.2,0.7,0.2s0.6,0,1-0.1h0.1
			c0.7-0.1,1.2-0.3,1.6-0.5c0.4-0.2,0.7-0.4,0.9-0.7s0.4-0.6,0.5-1s0.2-0.8,0.2-1.3c0.2,0,0.4,0.1,0.6,0.1c0.2,0,0.3,0.1,0.5,0.2
			c-0.1,0.5-0.1,1.1-0.1,1.7c0,0.6,0,1.2,0.1,1.7c-0.2,0-0.5,0.1-0.8,0.2c-0.3,0.1-0.7,0.1-1,0.2c-0.4,0.1-0.8,0.2-1.2,0.2l-2.6,0.6
			c-0.5,0.1-1.1,0.2-1.6,0.3s-1,0.2-1.5,0.3s-0.8,0.2-1.1,0.3c-0.1-0.4-0.1-0.7-0.1-1c0.3-0.1,0.5-0.2,0.7-0.3s0.3-0.2,0.4-0.4
			c0.1-0.2,0.1-0.4,0.1-0.7s-0.1-0.6-0.1-1l-1.9-8.9c-0.2-0.7-0.4-1.2-0.6-1.4c-0.3-0.2-0.7-0.3-1.3-0.2c-0.1-0.1-0.1-0.2-0.2-0.4
			c-0.1-0.2-0.1-0.3-0.1-0.5c0.2,0,0.5-0.1,0.8-0.1c0.3-0.1,0.7-0.1,1-0.2c0.4-0.1,0.7-0.1,1-0.2l0.8-0.2c1.5-0.3,2.7-0.6,3.7-0.8
			C-44.5,88.7-43.8,88.5-43.5,88.5z"/>
		<path class="st0" d="M-32.2,86.6c0.5-0.1,1.1-0.1,1.7-0.2l6.7,11.6l3.6-12.7c0.3,0,0.5,0,0.8,0s0.6,0,0.9-0.1
			c0.3,0,0.6-0.1,0.8-0.1c0.3,0,0.5-0.1,0.8-0.1c0,0.2,0,0.3,0,0.5s0,0.3,0,0.5c-0.3,0-0.5,0.1-0.7,0.2c-0.2,0.1-0.4,0.2-0.5,0.4
			s-0.2,0.4-0.2,0.7s0,0.7,0.1,1.1l1.6,8c0.1,0.5,0.2,1,0.3,1.3c0.1,0.3,0.2,0.6,0.4,0.8c0.1,0.2,0.3,0.3,0.5,0.4
			c0.2,0.1,0.4,0.1,0.7,0.1c0.1,0.2,0.1,0.3,0.1,0.5s0.1,0.3,0.1,0.5c-0.2,0-0.4,0-0.6,0s-0.4,0-0.7,0c-0.2,0-0.5,0-0.7,0.1
			l-0.6,0.1c-0.4,0-0.8,0.1-1.4,0.1c-0.5,0.1-0.9,0.1-1.3,0.2c0-0.1,0-0.3,0-0.5s0-0.3,0.1-0.5c0.4-0.1,0.6-0.2,0.8-0.3
			s0.3-0.3,0.4-0.5s0.1-0.4,0.1-0.8c0-0.3-0.1-0.7-0.2-1.2l-1.5-7.5l-3.5,11.5c-0.2,0.1-0.5,0.2-0.9,0.2l-6.3-10.6v7.1
			c0,0.6,0,1.1,0.1,1.4c0.1,0.4,0.2,0.7,0.3,0.9s0.3,0.4,0.5,0.4c0.2,0.1,0.5,0.1,0.8,0.1c0.1,0.2,0.1,0.3,0.1,0.5s0.1,0.3,0.1,0.4
			c-0.4,0-0.8,0-1.2,0.1c-0.4,0-0.8,0.1-1.2,0.1s-0.7,0.1-1.1,0.1c-0.4,0.1-0.8,0.1-1.1,0.2c0-0.1,0-0.2,0-0.4s0-0.4,0-0.5
			c0.3-0.1,0.5-0.1,0.7-0.2c0.2-0.1,0.3-0.3,0.4-0.5c0.1-0.2,0.2-0.6,0.2-1s0.1-1,0.1-1.6l-0.1-7.9c0-0.8-0.1-1.3-0.4-1.6
			s-0.7-0.4-1.3-0.3c-0.1-0.1-0.1-0.3-0.1-0.5s-0.1-0.3-0.1-0.5c0.2,0,0.5,0,0.8,0C-32.8,86.7-32.5,86.7-32.2,86.6z"/>
		<path class="st0" d="M1.4,84.9c0,0.3,0,0.5,0.1,0.8c0,0.3,0.1,0.6,0.1,0.9c0,0.3,0.1,0.6,0.1,0.9c0,0.3,0.1,0.6,0.1,0.8
			c-0.1,0.1-0.3,0.2-0.4,0.2c-0.2,0-0.4,0.1-0.6,0c0-0.3-0.1-0.7-0.2-1S0.3,86.9,0,86.6c-0.3-0.3-0.6-0.5-1.1-0.7s-1-0.3-1.7-0.3
			h-1.6l-0.1,6.1h0.9c0.5,0,0.8,0,1.2-0.1c0.3,0,0.6-0.1,0.8-0.3c0.2-0.1,0.3-0.3,0.4-0.5s0.1-0.5,0.1-0.9c0.2-0.1,0.4-0.1,0.5-0.1
			s0.3,0,0.5,0c0,0.4-0.1,0.8-0.1,1.2v2.5c0,0.5,0,0.9,0,1.3c-0.2,0-0.4,0-0.5,0c-0.2,0-0.3,0-0.5-0.1c0-0.4-0.1-0.7-0.2-1
			s-0.2-0.5-0.4-0.6c-0.2-0.2-0.4-0.3-0.7-0.3c-0.3-0.1-0.7-0.1-1.1-0.1h-0.9l-0.1,4c0,0.4,0,0.8,0.1,1c0,0.3,0.1,0.5,0.3,0.6
			c0.1,0.2,0.3,0.3,0.6,0.3c0.3,0.1,0.6,0.1,1,0.1h0.1c0.7,0,1.2,0,1.7-0.2c0.4-0.1,0.8-0.3,1.1-0.5c0.3-0.2,0.5-0.5,0.7-0.9
			c0.2-0.3,0.3-0.7,0.5-1.2c0.2,0.1,0.4,0.2,0.6,0.2c0.1,0.1,0.3,0.2,0.4,0.3c-0.2,0.5-0.3,1.1-0.4,1.6c-0.1,0.6-0.2,1.1-0.3,1.6
			c-0.2,0-0.5,0-0.8,0s-0.7,0-1.1,0s-0.8,0-1.2,0H-4c-0.5,0-1.1,0-1.6,0s-1,0-1.5,0s-0.9,0-1.1,0c0-0.4,0-0.7,0.1-1
			c0.3,0,0.5,0,0.7-0.1s0.4-0.2,0.5-0.3c0.1-0.2,0.2-0.4,0.3-0.6c0.1-0.3,0.1-0.6,0.1-1.1l0.1-9.1c0-0.7-0.1-1.2-0.3-1.5
			c-0.2-0.3-0.6-0.4-1.2-0.5c0-0.1-0.1-0.3-0.1-0.4c0-0.2,0-0.3,0-0.5c0.2,0,0.5,0,0.8,0s0.7,0,1.1,0s0.7,0,1,0h0.8
			c1.5,0,2.8,0,3.7,0C0.3,84.9,1,84.9,1.4,84.9z"/>
		<path class="st0" d="M20.2,86.3c0.3,0.1,0.7,0.1,1,0.2c0.4,0,0.7,0.1,1,0.1s0.7,0.1,1.1,0.1s0.7,0.1,1,0.1c0,0.1,0,0.3-0.1,0.5
			s-0.1,0.3-0.1,0.5c-0.2,0-0.5,0-0.6,0.1s-0.3,0.2-0.5,0.5s-0.2,0.5-0.3,0.9c-0.1,0.4-0.2,0.9-0.2,1.5l-1.2,11c-0.1,0-0.3,0-0.4,0
			c-0.2,0-0.3,0-0.5,0l-7.9-12.9l-0.8,7.6c-0.1,0.6-0.1,1.1-0.1,1.6c0,0.4,0,0.8,0.1,1c0.1,0.3,0.2,0.5,0.4,0.6
			c0.2,0.1,0.4,0.2,0.7,0.2c0,0.1,0,0.3,0,0.4c0,0.1,0,0.3,0,0.5c-0.3-0.1-0.7-0.1-1.1-0.2c-0.4,0-0.8-0.1-1.1-0.1s-0.7-0.1-1.1-0.1
			s-0.8-0.1-1.1-0.1c0-0.2,0-0.4,0.1-0.5c0-0.2,0.1-0.3,0.1-0.4c0.3,0,0.5,0,0.8-0.1s0.4-0.2,0.5-0.5c0.1-0.2,0.3-0.6,0.3-1
			c0.1-0.4,0.2-0.9,0.2-1.5l1-9.1l-0.1-0.1c-0.2-0.3-0.4-0.5-0.5-0.6c-0.2-0.1-0.5-0.2-0.8-0.3c0-0.2,0-0.3,0-0.5s0-0.3,0-0.4
			c0.2,0.1,0.5,0.1,0.8,0.1s0.6,0.1,0.9,0.1c0.6,0.1,1.1,0.1,1.5,0.1l7.4,12.3l0.8-7.3c0.1-0.6,0.1-1.1,0.1-1.5s0-0.7-0.1-1
			s-0.2-0.4-0.4-0.6c-0.2-0.1-0.4-0.2-0.7-0.2c0-0.3,0-0.4,0-0.6C20.2,86.6,20.2,86.4,20.2,86.3z"/>
		<path class="st0" d="M36.3,89.9l-1.1-0.2c-0.6-0.1-1-0.1-1.4-0.1c-0.4,0.1-0.6,0.2-0.9,0.4c-0.2,0.2-0.4,0.4-0.6,0.7
			s-0.3,0.6-0.4,0.9c-0.2,0-0.3-0.1-0.5-0.2c-0.2-0.1-0.3-0.2-0.4-0.3c0.2-0.5,0.4-1,0.6-1.6s0.3-1.1,0.4-1.6
			c0.6,0.2,1.4,0.3,2.4,0.6c1,0.2,2,0.4,3.1,0.7l1.6,0.3c0.5,0.1,1,0.2,1.5,0.3s0.9,0.2,1.4,0.3c0.4,0.1,0.8,0.1,1.1,0.2
			c-0.2,1-0.4,2.1-0.5,3.3c-0.2,0-0.4,0.1-0.5,0c-0.2,0-0.4,0-0.5-0.1c0.1-0.8,0-1.4-0.3-2c-0.3-0.5-0.9-0.9-1.8-1.1l-1-0.2
			l-2.3,11.1c-0.1,0.4-0.1,0.7-0.1,0.9s0,0.5,0.1,0.6c0.1,0.2,0.2,0.3,0.5,0.4c0.2,0.1,0.5,0.2,0.8,0.3c0,0.2,0,0.5-0.1,1
			c-0.5-0.1-0.9-0.2-1.4-0.3s-1-0.2-1.4-0.3s-1-0.2-1.5-0.3s-1-0.2-1.4-0.2c0.1-0.4,0.2-0.7,0.3-0.9c0.4,0.1,0.6,0.1,0.9,0.1
			c0.2,0,0.4-0.1,0.6-0.2c0.2-0.1,0.3-0.3,0.4-0.5s0.2-0.5,0.3-0.9L36.3,89.9z"/>
		<path class="st0" d="M59.4,94.9c-0.1,0.2-0.1,0.5-0.2,0.8s-0.1,0.6-0.2,0.9c-0.1,0.3-0.1,0.6-0.2,0.9c0,0.3-0.1,0.6-0.1,0.8
			c-0.1,0.1-0.3,0.1-0.5,0.1s-0.4-0.1-0.6-0.1c0.1-0.3,0.1-0.7,0.1-1s-0.1-0.7-0.3-1c-0.2-0.3-0.5-0.6-0.9-0.9
			c-0.4-0.3-0.9-0.5-1.6-0.7l-1.5-0.5l-1.8,5.8l0.9,0.3c0.4,0.1,0.8,0.2,1.1,0.3c0.3,0,0.6,0,0.8,0c0.2-0.1,0.4-0.2,0.6-0.4
			s0.3-0.5,0.4-0.8c0.2,0,0.4,0,0.5,0c0.2,0,0.3,0.1,0.5,0.1c-0.1,0.4-0.3,0.7-0.4,1.2l-0.7,2.4c-0.1,0.5-0.2,0.9-0.3,1.2
			c-0.2-0.1-0.4-0.1-0.5-0.2c-0.1-0.1-0.3-0.1-0.4-0.2c0.1-0.4,0.1-0.7,0.1-1s-0.1-0.5-0.2-0.7s-0.3-0.4-0.6-0.5
			c-0.3-0.1-0.6-0.3-1.1-0.4l-0.9-0.3l-1.2,3.8c-0.1,0.4-0.2,0.7-0.2,1s0,0.5,0.1,0.7s0.3,0.4,0.5,0.5s0.5,0.3,0.9,0.4h0.1
			c0.6,0.2,1.2,0.3,1.6,0.3s0.8-0.1,1.2-0.2c0.3-0.1,0.6-0.4,0.9-0.6c0.3-0.3,0.5-0.6,0.8-1c0.2,0.1,0.3,0.3,0.5,0.4
			c0.1,0.1,0.2,0.3,0.3,0.4c-0.3,0.4-0.6,0.9-0.9,1.5c-0.3,0.5-0.5,1-0.7,1.5c-0.2-0.1-0.5-0.1-0.8-0.2s-0.6-0.2-1-0.3
			s-0.7-0.2-1.1-0.4l-2.6-0.8c-0.5-0.2-1-0.3-1.6-0.5c-0.5-0.1-1-0.3-1.5-0.4c-0.5-0.1-0.8-0.2-1.1-0.3c0.1-0.4,0.3-0.7,0.4-0.9
			c0.3,0.1,0.5,0.1,0.7,0.1s0.4-0.1,0.6-0.2c0.2-0.1,0.3-0.3,0.4-0.6s0.3-0.6,0.4-1l2.6-8.7c0.2-0.7,0.3-1.2,0.1-1.5
			c-0.1-0.3-0.5-0.6-1-0.8c0-0.1,0-0.3,0-0.4c0-0.2,0.1-0.3,0.1-0.5c0.2,0.1,0.5,0.2,0.8,0.3s0.7,0.2,1,0.3s0.7,0.2,1,0.3l0.8,0.2
			c1.5,0.4,2.7,0.8,3.6,1.1C58.4,94.7,59,94.8,59.4,94.9z"/>
		<path class="st0" d="M72,99.4c0.8,0.3,1.4,0.7,1.9,1.1c0.5,0.4,0.8,0.8,1,1.1c-0.2,0.4-0.3,0.9-0.5,1.4s-0.3,1-0.4,1.4
			c-0.2,0-0.4,0-0.6-0.1s-0.4-0.1-0.6-0.2c0.1-0.6,0.2-1.2,0.2-1.6c0-0.4,0-0.8-0.1-1.1s-0.2-0.5-0.4-0.7c-0.2-0.2-0.4-0.3-0.7-0.4
			c-0.6-0.2-1.2-0.3-1.7-0.1s-0.9,0.6-1.1,1.3c-0.2,0.6-0.3,1.2-0.1,1.7c0.2,0.5,0.4,1,0.8,1.5s0.7,1,1.2,1.5c0.4,0.5,0.8,1,1.2,1.5
			c0.3,0.5,0.6,1.1,0.7,1.7c0.1,0.6,0,1.3-0.3,2.1c-0.2,0.5-0.5,1-0.9,1.4s-0.9,0.7-1.4,0.9s-1.1,0.3-1.7,0.3s-1.2-0.1-1.8-0.4
			c-0.5-0.2-0.9-0.4-1.2-0.6s-0.6-0.4-0.9-0.6c-0.3-0.2-0.5-0.5-0.8-0.8c-0.2-0.3-0.5-0.6-0.8-1c0.3-0.5,0.5-1,0.8-1.5
			c0.2-0.5,0.4-1,0.6-1.3c0.2,0,0.4,0.1,0.6,0.1c0.2,0.1,0.4,0.1,0.6,0.2c-0.2,0.5-0.3,1-0.4,1.5s0,0.9,0.1,1.3s0.3,0.7,0.6,1
			c0.3,0.3,0.8,0.6,1.3,0.8c0.4,0.2,0.7,0.2,1.1,0.2c0.3,0,0.6-0.1,0.9-0.2c0.3-0.1,0.5-0.3,0.7-0.5s0.4-0.5,0.5-0.8
			c0.2-0.6,0.3-1.2,0.1-1.7c-0.2-0.5-0.4-1-0.8-1.5s-0.8-0.9-1.2-1.4c-0.5-0.5-0.8-1-1.2-1.5s-0.6-1.1-0.7-1.8
			c-0.1-0.6,0-1.4,0.3-2.2c0.2-0.5,0.5-1,0.9-1.4s0.8-0.7,1.2-0.8c0.5-0.2,1-0.3,1.5-0.3C70.9,99.1,71.5,99.2,72,99.4z"/>
		<path class="st0" d="M90.2,123.9c0.5,0.3,1,0.5,1.4,0.6s0.8,0.1,1.1,0.1c0.4-0.1,0.7-0.2,1.1-0.4c0.3-0.2,0.7-0.5,1.1-0.9
			c0.2,0.2,0.3,0.3,0.4,0.5c0.1,0.1,0.2,0.3,0.2,0.5c-0.4,0.4-0.8,0.8-1.2,1.2c-0.4,0.5-0.7,0.9-1,1.3c-0.2-0.1-0.4-0.2-0.7-0.4
			c-0.3-0.2-0.6-0.3-0.9-0.5s-0.7-0.4-1-0.6l-2.3-1.3c-0.5-0.3-1-0.5-1.4-0.8c-0.5-0.3-0.9-0.5-1.3-0.7s-0.8-0.4-1-0.5
			c0.2-0.4,0.4-0.6,0.6-0.8c0.3,0.1,0.5,0.2,0.7,0.3c0.2,0,0.4,0,0.6-0.1s0.4-0.2,0.5-0.4s0.4-0.5,0.6-0.9l4.5-7.9
			c0.4-0.6,0.5-1.1,0.5-1.5c-0.1-0.3-0.3-0.7-0.8-1c0-0.1,0.1-0.3,0.1-0.4c0.1-0.2,0.1-0.3,0.2-0.5c0.2,0.1,0.4,0.2,0.6,0.4l0.6,0.4
			l1.1,0.6c0.4,0.2,0.8,0.5,1.2,0.7c0.4,0.2,0.8,0.4,1.2,0.6c-0.2,0.4-0.4,0.6-0.6,0.8c-0.3-0.1-0.5-0.2-0.7-0.3
			c-0.2,0-0.4,0-0.6,0.1s-0.3,0.2-0.5,0.4s-0.3,0.5-0.5,0.8l-4.4,7.9c-0.2,0.4-0.3,0.7-0.4,0.9c-0.1,0.3-0.1,0.5,0,0.7
			s0.2,0.4,0.4,0.6c0.2,0.2,0.5,0.4,0.8,0.6L90.2,123.9z"/>
		<path class="st0" d="M107,121c0.4-0.6,0.6-1.1,0.6-1.4c0-0.3-0.3-0.7-0.8-1c0.1-0.2,0.2-0.5,0.4-0.9c0.7,0.5,1.4,1,2.2,1.5
			c0.4,0.3,0.8,0.5,1.1,0.7s0.7,0.5,1.1,0.7c-0.2,0.4-0.4,0.6-0.6,0.7c-0.5-0.3-0.9-0.4-1.2-0.3c-0.3,0.1-0.7,0.5-1.1,1.1l-5.2,7.8
			c-0.4,0.6-0.6,1.1-0.6,1.4c0,0.3,0.3,0.7,0.8,1c-0.1,0.2-0.2,0.5-0.4,0.9c-0.7-0.5-1.4-1-2.2-1.5c-0.4-0.2-0.7-0.5-1.1-0.8
			s-0.8-0.5-1.1-0.7c0.2-0.4,0.4-0.6,0.6-0.7c0.5,0.3,0.9,0.4,1.2,0.3c0.3-0.1,0.7-0.5,1.1-1.1L107,121z"/>
		<path class="st0" d="M119,130.1c-0.4,1.5-0.8,3.1-1.2,4.6c-0.4,1.4-0.8,2.9-1.3,4.3c1.2-0.7,2.4-1.4,3.6-2.1
			c1.3-0.8,2.6-1.6,3.9-2.5c0.7-0.5,1.2-0.9,1.4-1.3c0.2-0.4,0-0.9-0.5-1.4c0.1-0.2,0.1-0.3,0.2-0.5c0.1-0.1,0.2-0.3,0.3-0.4
			c0.2,0.2,0.5,0.4,0.7,0.6c0.2,0.2,0.5,0.4,0.7,0.6c0.3,0.2,0.6,0.4,0.9,0.7s0.6,0.5,0.9,0.6c-0.1,0.1-0.2,0.2-0.3,0.4
			c-0.1,0.1-0.2,0.2-0.4,0.3c-0.4-0.2-0.9-0.2-1.4,0s-1,0.5-1.7,0.9c-1.7,1.1-3.5,2.2-5.2,3.2c-1.7,1.1-3.5,2.1-5.3,3.2
			c-0.2-0.1-0.5-0.3-0.7-0.5c0.3-1.1,0.7-2.2,1-3.3c0.3-1.1,0.6-2.2,0.9-3.2s0.6-2,0.8-3c0.3-1,0.5-1.8,0.7-2.7
			c0.1-0.6,0.3-1.1,0.3-1.4c0.1-0.4,0.1-0.6,0.1-0.9c0-0.2,0-0.4-0.1-0.5s-0.2-0.3-0.3-0.4c0.1-0.2,0.2-0.3,0.3-0.5
			c0.1-0.1,0.2-0.3,0.2-0.4c0.2,0.2,0.5,0.5,0.9,0.8s0.8,0.6,1.1,0.9c0.7,0.6,1.5,1.1,2.1,1.6c-0.2,0.2-0.4,0.5-0.7,0.7
			c-0.3-0.2-0.5-0.3-0.8-0.4c-0.2-0.1-0.4-0.1-0.5,0c-0.2,0.1-0.3,0.3-0.4,0.6C119.3,129.2,119.1,129.6,119,130.1z"/>
		<path class="st0" d="M136.1,140.3c0.4,0.4,0.9,0.9,1.3,1.3c0.5,0.4,0.9,0.8,1.3,1.3c0.6,0.6,1.1,1.2,1.4,1.7
			c0.3,0.6,0.5,1.1,0.5,1.6s0,1-0.2,1.5s-0.4,0.9-0.8,1.3c-0.7,0.7-1.6,1.1-2.6,1.1c-0.9,0-1.9-0.3-2.9-0.8c0,0.3,0,0.5,0,0.8
			s0,0.6-0.1,0.9s-0.1,0.7-0.2,1.1s-0.2,0.9-0.4,1.4c-0.3,1-0.4,1.9-0.4,2.6s0.3,1.3,0.8,1.8c-0.1,0.1-0.2,0.2-0.3,0.3
			c-0.1,0.1-0.2,0.2-0.4,0.3c-0.4-0.4-0.8-0.8-1.3-1.2c-0.4-0.4-0.9-0.8-1.3-1.1c0.1-0.4,0.2-1,0.4-1.7c0.2-0.7,0.4-1.4,0.6-2.1
			s0.4-1.5,0.5-2.3c0.1-0.6,0.1-1.3,0.1-2c-0.5-0.4-0.8-0.8-1.2-1.1l-2.7,2.8c-0.5,0.5-0.8,1-0.8,1.3s0.1,0.7,0.5,1.1
			c-0.1,0.1-0.1,0.3-0.3,0.4s-0.2,0.3-0.3,0.4c-0.3-0.3-0.7-0.7-1-1.1s-0.6-0.6-0.8-0.8l-0.5-0.4c-0.2-0.2-0.3-0.3-0.5-0.5
			s-0.4-0.3-0.5-0.5c-0.2-0.2-0.3-0.3-0.4-0.4c0.1-0.1,0.2-0.2,0.4-0.3c0.1-0.1,0.3-0.2,0.4-0.3c0.4,0.4,0.8,0.6,1.2,0.5
			c0.3,0,0.8-0.3,1.3-0.9l6.5-6.7c0.5-0.5,0.8-1,0.8-1.3s-0.2-0.7-0.6-1.1c0.1-0.1,0.2-0.3,0.2-0.4c0.1-0.1,0.2-0.2,0.3-0.4
			c0.1,0.2,0.4,0.4,0.8,0.8C135.3,139.5,135.7,139.9,136.1,140.3z M136.8,142.1c-0.2-0.1-0.4-0.3-0.6-0.4l-4.3,4.5
			c0.1,0.1,0.2,0.2,0.3,0.3c0.1,0.1,0.2,0.3,0.4,0.4c0.4,0.4,0.9,0.8,1.4,1c0.5,0.3,0.9,0.4,1.4,0.5s0.9,0,1.4-0.1s0.9-0.4,1.3-0.8
			c0.6-0.7,1-1.4,1-2.2c0-0.8-0.5-1.7-1.4-2.6C137.2,142.4,137,142.2,136.8,142.1z"/>
		<path class="st0" d="M154.9,160.2c-0.2,0.2-0.4,0.4-0.6,0.6s-0.4,0.5-0.6,0.7s-0.4,0.5-0.6,0.7s-0.4,0.4-0.5,0.6
			c-0.2,0-0.3-0.1-0.4-0.2s-0.3-0.2-0.4-0.4c0.2-0.2,0.5-0.5,0.6-0.8s0.3-0.6,0.3-1s-0.1-0.8-0.2-1.2c-0.2-0.5-0.5-0.9-1-1.5l-1-1.2
			l-4.6,4l0.6,0.7c0.3,0.3,0.6,0.6,0.8,0.8c0.2,0.2,0.5,0.3,0.7,0.4s0.5,0,0.7,0s0.5-0.2,0.8-0.5c0.2,0.1,0.3,0.2,0.4,0.3
			c0.1,0.1,0.2,0.2,0.4,0.4c-0.3,0.2-0.6,0.5-1,0.8l-1.9,1.6c-0.4,0.3-0.7,0.6-0.9,0.9c-0.1-0.2-0.2-0.3-0.3-0.4
			c-0.1-0.1-0.2-0.3-0.2-0.4c0.3-0.3,0.5-0.5,0.6-0.8c0.1-0.2,0.2-0.5,0.2-0.7s-0.1-0.5-0.2-0.8c-0.2-0.3-0.4-0.6-0.7-0.9l-0.6-0.7
			l-3,2.6c-0.3,0.3-0.6,0.5-0.7,0.7c-0.2,0.2-0.3,0.4-0.3,0.6s0,0.4,0.2,0.7c0.1,0.2,0.3,0.5,0.6,0.8l0.1,0.1
			c0.4,0.5,0.8,0.9,1.2,1.1c0.4,0.2,0.7,0.4,1.1,0.5s0.7,0,1.1-0.1s0.8-0.2,1.2-0.4c0.1,0.2,0.2,0.4,0.2,0.6s0.1,0.3,0,0.5
			c-0.5,0.2-1,0.5-1.5,0.8s-1,0.6-1.4,0.9c-0.1-0.2-0.3-0.4-0.5-0.6s-0.4-0.5-0.7-0.8c-0.2-0.3-0.5-0.6-0.8-0.9l-1.7-2
			c-0.4-0.4-0.7-0.8-1.1-1.2c-0.4-0.4-0.7-0.8-1-1.1c-0.3-0.4-0.6-0.6-0.8-0.8c0.3-0.3,0.6-0.5,0.8-0.5c0.2,0.2,0.4,0.4,0.6,0.5
			s0.4,0.2,0.6,0.1s0.4-0.1,0.7-0.2c0.2-0.1,0.5-0.3,0.8-0.6l6.9-5.9c0.6-0.5,0.9-0.9,0.9-1.2c0.1-0.3-0.1-0.7-0.5-1.2
			c0.1-0.1,0.1-0.2,0.3-0.3c0.1-0.1,0.2-0.2,0.4-0.4c0.1,0.2,0.3,0.4,0.5,0.7c0.2,0.3,0.4,0.5,0.7,0.8c0.2,0.3,0.5,0.5,0.7,0.8
			l0.5,0.6c1,1.2,1.8,2.1,2.5,2.8C154.2,159.5,154.7,160,154.9,160.2z"/>
		<path class="st0" d="M163.2,170.8c0.5,0.7,0.8,1.3,1,1.9s0.3,1.1,0.2,1.5c-0.3,0.2-0.7,0.5-1.2,0.9c-0.4,0.3-0.8,0.6-1.1,0.9
			c-0.2-0.1-0.3-0.2-0.5-0.4c-0.2-0.2-0.3-0.3-0.4-0.5c0.4-0.5,0.8-0.9,1-1.2c0.2-0.4,0.4-0.7,0.5-1s0.1-0.6,0-0.8
			c-0.1-0.2-0.2-0.5-0.4-0.7c-0.4-0.5-0.9-0.9-1.4-0.9c-0.5-0.1-1.1,0.1-1.7,0.5c-0.5,0.4-0.9,0.8-1,1.3s-0.2,1.1-0.2,1.7
			s0.1,1.2,0.2,1.9c0.1,0.6,0.2,1.3,0.2,1.9s-0.1,1.2-0.4,1.8s-0.7,1.1-1.3,1.6c-0.5,0.3-1,0.5-1.5,0.7c-0.5,0.1-1.1,0.1-1.6,0
			s-1.1-0.3-1.6-0.6s-0.9-0.7-1.3-1.3c-0.3-0.4-0.5-0.8-0.7-1.2c-0.2-0.3-0.3-0.7-0.4-1s-0.2-0.7-0.2-1.1s-0.1-0.8-0.1-1.3
			c0.5-0.3,1-0.5,1.5-0.8s0.9-0.6,1.2-0.8c0.1,0.1,0.3,0.2,0.4,0.4s0.3,0.3,0.4,0.5c-0.4,0.4-0.8,0.7-1.1,1.1s-0.5,0.7-0.6,1.1
			s-0.1,0.8,0,1.2c0.1,0.4,0.3,0.9,0.7,1.4c0.2,0.3,0.5,0.6,0.8,0.8c0.3,0.2,0.6,0.3,0.9,0.3s0.6,0,0.9,0c0.3-0.1,0.6-0.2,0.8-0.4
			c0.5-0.4,0.9-0.8,1-1.4c0.1-0.5,0.2-1.1,0.1-1.7s-0.1-1.2-0.3-1.9c-0.1-0.6-0.2-1.3-0.2-1.9s0.1-1.3,0.4-1.9s0.8-1.2,1.5-1.7
			c0.5-0.3,1-0.6,1.5-0.7s1-0.1,1.5,0s1,0.3,1.4,0.6C162.5,169.9,162.8,170.3,163.2,170.8z"/>
	</g>
	<g>
		<path class="st0" d="M-24,425.3c-1.8-1-2.6-3.1-4.9-3.8c-0.6,0.1-1.3,0.3-2.1,0.4c-1,1.5-0.4,2.6,0.1,3.5c1.6,0.6,3.2,1,4.6,1.8
			c1.4,0.7,3.3,1.1,4.6,0c-0.2-0.5-0.5-1.1-0.7-1.6C-23,425.4-23.6,425.4-24,425.3C-25.8,424.3-23.6,425.4-24,425.3z"/>
		<path class="st0" d="M10.2,424.3c-1.5-0.9-7.1-6.1-8.4-3.1c0.5,1.3,0.9,2.5,1.3,3.7c2.9,1.2,6.6,3.5,9.8,2.8
			C11.9,426.3,11.4,425,10.2,424.3C9.1,423.7,11.4,425,10.2,424.3z"/>
		<path class="st0" d="M14.9,416.6c-0.9-0.7-1.6-0.7-2.6-0.7c-0.9,2,1.2,3.5,0.5,5.4c3,1,5.9,1.4,9.2,1.2c-0.8-1.1-1.8-1.9-2.9-2.7
			C17.6,418.8,16.2,417.7,14.9,416.6C14.5,416.4,17,418.3,14.9,416.6z"/>
		<path class="st0" d="M-11.9,433.3c-1.2-1.4-2.9-2.2-4.7-2.3c-0.5,0.3-1,0.6-1.6,0.9c0.1,0.9,0.2,1.6,0.3,2.6c2.2,1,4.3,1.9,6.5,3
			c0.4-0.1,1-0.2,1.6-0.2c0.6,0.3,1.2,0.6,1.8,0.9c0.3-0.2,0.6-0.4,1.1-0.8C-9.1,436.4-10.5,434.9-11.9,433.3
			C-12.9,432.1-10.5,434.9-11.9,433.3z"/>
		<path class="st0" d="M23.1,410.1c-0.6-0.9-1.4-1.9-2.6-1.4c-0.2,1.2,0.6,2.3,1,3.5c-0.1,0.6-0.2,1.3-0.3,2
			c0.9,1.5,2.3,2.5,3.7,3.5c0.9,0.1,1.7,0.5,2.7-0.1C26.1,415.1,24.8,412.5,23.1,410.1C22.9,409.7,23.6,410.9,23.1,410.1z"/>
		<path class="st0" d="M1.8,435.9c-1.6-0.8-2.2-2.7-4-3.2c-0.7,0.8-1.3,1.5-1.9,2.2c0.2,0.5,0.4,1,0.5,1.2c1.3,0.9,2.6,1.8,4,2.6
			c0.8,0.5,1.6,0.8,2.4,1.1c1.1,0.4,1.4,0.3,2.6-0.1C3.7,438.6,3.4,436.7,1.8,435.9C0.2,435.1,3.4,436.7,1.8,435.9z"/>
		<path class="st0" d="M-7.8,425.4c-1.2-1.1-2.5-1.9-4-2.2c-1.4,0.5-1.8,1.6-2.1,2.8c3.3,1.7,6.3,3.7,10.2,3
			C-5.2,427.7-6.5,426.6-7.8,425.4C-9,424.3-6.5,426.6-7.8,425.4z"/>
		<path class="st0" d="M-105.1,227.7c0.7,3.5,1.9,6.9,3.4,10.2c0.4,0.1,0.7,0.1,1.3,0.2c0.4-2,0.8-3.9,1.3-6.2
			c-1.1-1.6-2.2-3.1-3.5-5c0-2.3-0.9-4.7-2.4-6.5c-1.2-1-2.2-1.7-3.3-2.6c-0.5,0.4-0.9,0.8-1.4,1.3c0.8,1.5,1.7,3,2.5,4.5
			C-106.5,224.8-105.4,226.1-105.1,227.7C-104.4,231.2-105.3,226.6-105.1,227.7z"/>
		<path class="st0" d="M-122.4,206.8c0.6,2,1.7,3.3,2.7,4.7c0.8,0,1.5,0,2.3,0c0.6-1.7,0.8-3.5,0.8-4.9c-0.8-1.7-1.4-2.9-2-4.4
			c-1.9-0.7-3.9-2.2-6.7-2.3c-0.4,0.4-0.8,0.8-1.2,1.3C-124.5,202.7-123.1,204.6-122.4,206.8C-121.9,208.7-123.1,204.6-122.4,206.8z
			"/>
		<path class="st0" d="M-133.5,208.2c1.4-1.7,1.8-3.5,1.3-7c-2.3-0.7-4.8-1.2-6.4-3.1c-1.7-0.2-1.7-0.2-2.6,0.7
			C-138.9,202-136.6,205.6-133.5,208.2z"/>
		<path class="st0" d="M-127.8,195.7c0.5-1.2,1.4-2.3,2.1-3.4c-0.8-0.4-1.5-0.8-2.1-1.1c-0.3-0.6-0.6-1-0.8-1.3
			c-1.2-0.4-2.1-0.7-3.1-1c-0.3,0.4-0.5,0.7-0.7,1c0.5,1.4,1.3,2.9,1.7,4.4c0.4,1.3,0.2,2.8,1.3,3.8L-127.8,195.7z"/>
		<path class="st0" d="M-133.3,216.4c-1.3-1-2.7-2.1-4-3.1c-0.6-0.4-1.1-0.9-1.7-1.3c-0.7-0.7-1.1-0.5-2-0.4
			c2.2,3.9,4.6,7.2,7.8,10.2C-132.4,219.8-132.6,218.1-133.3,216.4z"/>
		<path class="st0" d="M-130.6,228.9c1.2,3.9,1.5,4.6,3.1,6.2c0.1,1,0.2,1.9,1.2,2.4c1.3-2.1,1-4.5,1.1-6.9c-1.2-1.8-3-2.1-4.9-2.3
			L-130.6,228.9z"/>
		<path class="st0" d="M-102.4,207.6c-1.5-0.5-2.8-0.9-4.4-1.3c-0.3,3.5,1.2,6,2.9,8.8C-102.3,212.6-102.6,210.1-102.4,207.6z"/>
		<path class="st0" d="M-113,199.4c-0.2-1.6-4.3-5.5-5.9-3.1c2.2,2.4,4.3,4.7,6.6,7.2C-112.2,201.9-112.8,200.6-113,199.4z"/>
		<path class="st0" d="M-117.7,219c0.7,1.3,1.4,2.7,2.1,4c0.6,1.1,0.9,2.6,2.4,2.7c0.1-1.6,0.1-3.1,0.2-4.5
			C-114.8,219.4-116,218.8-117.7,219z"/>
		<path class="st0" d="M-124.7,217.6c0.3,1.8,1.3,3.2,2.3,4.7c1,1.4,1.7,3,3.2,3.9c0-0.9,0-1.6,0.1-2.5c-0.9-1.4-1.7-2.6-2.8-3.9
			C-122.7,218.8-123.3,217.7-124.7,217.6z"/>
		<path class="st0" d="M-92.8,225.5c-0.2-1.1-1.5-1.7-2.2-2.5c-0.5,0.2-0.8,0.3-1.3,0.4c0.9,2.3,1.8,4.5,2.9,7.1
			C-92.5,228.7-92.5,227.1-92.8,225.5z"/>
		<path class="st0" d="M-87.3,389.8c-0.2,1.7-0.5,3.4-0.7,5.1c-0.1,0.9-0.2,1.9-0.4,2.8c-0.1,0.8,0.1,1.2,0.4,1.9
			c0.7-0.9,1.2-1.6,1.7-2.1c0.2-3.1,1.1-6.1-0.4-9.3C-87,389-87.2,389.4-87.3,389.8C-87.7,392.7-87.2,389.4-87.3,389.8z"/>
		<path class="st0" d="M-115.9,389c0,0-1.8,5.6-1.5,8.8c0.2,1.7,0.2,3.4,0.4,5c0.2,1,0.1,3.1,1.4,3.4c1.4-1.7,1.2-4.5,1.4-6.6
			c0.3-2.4,0.3-4.7,0.3-7.1C-114.5,391.7-114.7,390.1-115.9,389z"/>
		<path class="st0" d="M-121,391.5c-1.2,3.2-1.4,6.3-0.7,9.6c0.4,1.7,0.9,3.3,1.4,5c0.4,1.5,0.1,3.6,1,4.7c-0.3-1.5-0.2-3,0-4.4
			c0.2-1.7,0.2-3.2,0.2-4.9c0,0,0.3-3,0.5-4.3C-119.7,392.9-121,391.8-121,391.5z"/>
		<path class="st0" d="M-232.1,247.5c7.5,0.2,14.9,0.8,22.3,1.2c7.7,0.4,15.4-0.1,23.1-0.1s15.3,0.1,23-0.1c3.7-0.1,7.4-0.2,11.1,0
			c1.9,0.1,3.7,0.3,5.6,0.2c1.8-0.1,15.9-0.6,17.7-0.6c2.2,0,4.4,0.3,6.7,0.4c2,0.1,4.1,0.2,6.1,0.2c2.2,0,4.4-0.3,6.6-0.3
			c4.5,0,9-0.2,13.4,0c2.3,0.1,4.5,0.3,6.8,0.2c2.1-0.1,24.8,1.1,33.4,0.9c3.4,0.3,6.7-0.2,10.1,0c3.8,0.3,7.7-0.2,11.5-0.3
			c1.8,0,3.5-0.2,5.2-0.4c1.8-0.1,3.7,0.3,5.5,0.2c1.8,0,3.8,0.2,5.6-0.1c1.7-0.3,6.2-0.4,6.3-0.3c4-0.2,8-0.2,12.1-0.5
			c1.1-0.1,2.2-0.2,3.3-0.1c0.9,0.1,1.8-0.2,2.7-0.3c2.5-0.3,5-0.3,7.5-0.3c4.9,0,9.8,0.1,14.7,0.2c2.3,0,4.5-0.4,6.8-0.4
			c2.5,0,5.1,0,7.6,0c4.7,0,9.5,0.1,14.3,0c2.3-0.1,4.7-0.4,7-0.2c2.5,0.2,4.9,0.4,7.4,0.3c4.9-0.2,9.9,0.2,14.8-0.2
			c0.9-0.1,1.9,0.3,2.8,0.4c1.1,0.1,2.1,0.2,3.2,0.2c2.4,0,4.9-0.1,7.3-0.2c2.5-0.1,5,0,7.5,0s5-0.3,7.4-0.3
			c4.9-0.1,9.8-0.5,14.7-0.3c4.9,0.2,9.8,0,14.8,0.1c2.5,0,5-0.1,7.5-0.3c2.3-0.1,17.9,0.2,23.3,0.3c2.9,0,5.7,0,8.6-0.2
			s5.8-0.6,8.7-0.4c2.9,0.2,5.8-0.1,8.7-0.2c2.9-0.1,5.9-0.2,8.8-0.2c6.1-0.2,12.1-0.8,18.1-1.3c0-0.1,0-0.2,0.1-0.3
			c-3.9-0.8-8.1-0.4-12.1-0.5c-4.2-0.1-8.5-0.2-12.7-0.2c-8.5-0.1-17.1-0.4-25.6-0.7c-8.4-0.3-16.8,0.4-25.2,0.2
			c-4.2-0.1-8.5-0.2-12.7,0c-4.2,0.3-8.3,0.4-12.6,0.1c0.1-4.7,1.2-9,2.5-13.5c1.3-4.5,3.9-8.4,4.9-13c0.5-2.2,1.1-4.3,1.4-6.5
			c0.4-2.4,0.3-4.8,0.2-7.2c-0.1-2.2-0.2-4.2-0.8-6.3c-0.6-2.2-1.7-4.5-1.9-6.7c-0.2-1.9-1.2-3.5-2.1-5.1c-0.9-1.7-1.6-3.5-2.9-5
			c-1.2-1.4-2.8-2.3-4.4-3.2c-2-1.2-4-2.1-6.3-2.4s-4.5,0.1-6.7,0.6c-2.4,0.5-4.8,0.9-7.2,1.4c-4.2,0.9-8.3,3.4-11.8,5.8
			c-2.3,1.6-4.2,3.7-6,5.8c-1.8,2-3.5,4.1-4.7,6.5c-0.5,1.1-0.9,2.2-1.5,3.3c-0.6,1.2-1.4,2.4-2,3.7c-1,2.4-1.6,5-2.2,7.5
			c-0.3,1.2-0.7,2.4-1.2,3.5c-0.6,1.1-0.6,2.5-0.9,3.7c-0.7,2.8-1.3,5.6-2,8.5c-0.7,2.8-1.3,5.6-2,8.5c-0.6,2.8-0.8,5.6-1.3,8.4
			c-8.2,0.4-16.3,1.3-24.4,1.5c0.8-4.6,2-9.4,1.9-14.1c0-2.1-0.3-4,0.3-6.1c0.7-2.3,1.1-4.6,1.3-6.9c0.4-4.7,1.4-9.3,1.4-14
			c0-2.2-0.7-4.3-0.9-6.4c-0.1-1-0.1-2-0.1-3c-0.1-1.3-0.5-2.6-0.8-3.8c-1.1-4.3-1.8-9.3-4.1-13.2c-2.3-4.1-5.2-8.1-8.1-11.8
			c-2.8-3.6-6.2-6.7-9.1-10.3c-1.3-1.6-2.5-3.3-4-4.8c-1.5-1.7-3.4-3.1-4.9-4.8c-2.7-3.1-5.8-5.8-8.2-9.1c-2.7-3.5-5.2-7-7.3-10.9
			c-1.8-1.1-4,0.1-5.6,1.1c-2,1.2-2.9,3.4-4.6,4.8c-2,1.6-3.9,3.2-6,4.7c-1.8,1.3-16.1,9.8-20.7,14.1c-2.3,2.2-3.4,4.8-4.9,7.5
			c-1.7,3-3.8,5.7-5.3,8.8c-2.9,5.9-5.7,11.8-7.9,18c-1.1,3.1-2.4,6.2-3.5,9.3c-1.2,3.3-2.2,6.5-3.3,9.8c-1.2,2.6-1.9,5.2-2.7,7.9
			c-0.9,3-2,6-2.5,9.1c-0.2,1.2,0,2.9-0.5,4.1c-0.6,1.3-0.5,2.8-0.4,4.1c0.3,3,0.4,5.9,0.6,8.9c1.1,2.4,1.1,4.9,1.2,7.5
			c-4.7,0.1-9.4,0-14.1,0.1c-0.5-5.1-1.8-10-3.5-14.8s-3.4-9.5-5.2-14.3c-0.6-0.7-5.2-10.9-6.1-13c-1.5-1.8-2.9-3.6-4.4-5.3
			c-0.6-0.7-1.4-1.1-1.9-1.8c-0.7-1-1.5-1.7-2.5-2.4c-1.5-1.2-3.1-2.2-4.9-3c-1.8-0.8-3.8-1.5-5.4-2.7c-3.6-2.5-8.6-3.4-12.7-4.6
			c-1.9-0.6-4.4,0.4-6.4,0.7c-1.1,0.1-2.1,0.4-3.1,0.7c-1.1,0.3-2.2,0.3-3.2,0.9c-3.6,2.5-6.4,5.3-8.5,9.2c-1,1.8-1.7,3.7-2.3,5.7
			c-0.3,1-0.4,2.1-0.7,3.1c-0.3,1.2-0.9,2.3-1.2,3.6c-0.5,2.1-0.4,4.3-0.2,6.4c0.1,2.4,0.3,4.8,0.8,7.2c0.9,4.4,2.6,8.6,4.7,12.6
			c0.7,1.3,1.5,2.4,2.4,3.6c1.3,2.6,2.7,5,4.2,7.5c-8.9,0.1-17.9,0.7-26.8,1.1c-8.8,0.5-35.2,0.3-39.5,0.7
			c-4.4,0.4-8.7,0.8-13.1,0.8c-4.3,0-8.6-0.3-12.9-0.3c-2.3,0-4.5,0.3-6.8,0.5c-1.2,0.1-4.5-0.2-5,1.2
			C-239.3,247.2-235.8,247.4-232.1,247.5C-229.8,247.5-234.5,247.4-232.1,247.5z M120.3,242.8c-2.1-0.2-4.2-0.3-6.3-0.4
			c0-2.1,0.7-3.9,1.4-5.8c0.8-0.7,1.6-1.5,2.7-2.5c0.9,1.4,1.6,2.3,1.9,3.9C120.4,239.6,120.6,241.2,120.3,242.8z M72.9,235.5
			c0.2-2.1,3.5-13.7,4.7-17.2c0.6-1.8,1.7-6.7,2-7.4c0.5-0.8,0.8-1.7,1.1-2.6c0.6-1.6,1.3-3,1.7-4.7c0.5-1.8,1-3.7,1.7-5.5
			c1.3-3.4,3.6-6.6,5.9-9.4s4.9-5.5,7.8-7.6c3.2-2.3,6.7-2.6,10.5-3.6c1.9-0.5,3.7-1.1,5.7-1.4c1.8-0.2,3.2-0.2,5,0.3
			c3.4,0.9,6.5,2.6,8.7,5.4c0.1,0.7,0.3,1.4,0.7,2c0.4,0.6,1,1,1.3,1.7c0.7,1.7,1.7,3,2.3,4.8c1,3.2,1.5,6.8,2.2,10.1
			c0.8,3.7-0.3,7-1.4,10.4c-0.5,1.5-0.8,3-1.5,4.5c-0.8,1.5-1.8,2.9-2.4,4.4c-0.6-0.9-0.1-2.4,0-3.4c0.1-1.4,0.6-2.6,0.9-4
			c0.6-2.9,0.1-5.9,0.8-8.9c-0.8,1.4-1.6,2.8-2.3,4.2c-0.8,1.5-1.1,3.3-1.9,4.8c-0.8,1.6-1.7,2.9-2.2,4.6c-0.4,1.4-0.7,2.6-2,3.5
			c-0.1-5.9-0.4-11.7-0.9-17.5c-1.4,0.8-2,2.4-2.2,4.1c-0.2,2-0.2,4-0.3,6c-0.3,3.7-1.8,7-3.2,10.4c-1-0.3-1.1-1.8-1.4-2.6
			c-0.5-1.5-1-3-1.5-4.4s-1-3-1.5-4.4c-0.4-1.2-0.7-2.7-1.9-3.3c-0.7,4.1,0.8,8.2,0.3,12.4c-1.8-1.4-2.8-3.3-5.2-3.9
			c0.3,1.8,1.2,3.6,1.9,5.3c0.4,1,0.7,2,1.1,3.1c0.4,1,0.3,1.5,0.2,2.5c-3.9-4-7.8-8.9-13.5-10.3c1.6,2.7,4.2,4.5,6.1,7
			c0.9,1.2,1.6,2.5,2.5,3.6c1,1.2,2.3,1.4,1.8,3.2c-2.7-1.3-5.7-3.5-8.8-3.6c1.2,1.1,2.5,2.1,3.6,3.3c1,1.1,2.4,1.6,3.2,3
			c-4.4-0.2-8.6-3.4-13-2.8c0.1,1.8,2.6,2.4,3.9,3.1c1.8,1,3.7,1.7,5,3.2c-1.8,0.2-3.4,0.2-5,0.9c1.1,0.9,1.9,1.5,3,2.3
			c-0.2,0.1-0.4,0.2-0.6,0.4c-1.2,0-2.3,0-3.5,0.1c-1.3,0-2.7-0.3-3.9-0.1c-5.3-0.4-10.6-0.4-15.9-0.3
			C72.4,239.4,72.6,237.4,72.9,235.5C73.1,233.4,72.6,237.4,72.9,235.5z M31.2,236.6c1.3-5.3,1.5-10.8,1.9-16.3
			c0.4-5.8,1-11.5,1.4-17.3c0.2-2.7,0.4-5.4,0.5-8.1c0.1-2.8,0.5-5.8,0.3-8.6c-0.2-2.7-0.6-5.5-1.2-8.2c-0.5-2.2-2.1-4.6-1.6-6.8
			c2.3,1.2,4.2,3.1,5.3,5.5c0.7,1.4,1.1,2.9,1.8,4.3c0.7,1.4,1.4,2.8,1.9,4.3c1,3.1,1.2,6.4,1.7,9.6c0.5,3.4,0.4,6.8,0.6,10.2
			c0.1,1.5,0.1,3-0.1,4.5c-0.2,1.6-0.9,3.1-0.7,4.7c0.1,1.6,0.6,2.9,0.3,4.5c-0.3,1.5-1,2.9-1.3,4.5c-0.5,3.2,0.2,6.4-0.6,9.6
			c-0.8,3.3-1.3,6.6-1.7,9.9c-3.5,0.1-7,0.1-10.5,0C30,240.9,30.7,238.8,31.2,236.6C32.8,230.1,30.7,238.8,31.2,236.6z M-6.4,236.7
			c0.4-4.4,0.7-8.9,1-13.3c0.4-4.3,1.1-8.6,1.5-13c0.4-4.2,0.9-8.4,1.1-12.6c0.1-2,0.1-3.9,0.5-5.9c0.5-2.1,1.4-4.1,1.9-6.2
			c0.9-4.3,0-8.6,0.4-12.9c0.4-4.5-0.1-8.9,0.1-13.4s0.7-9.1,1.1-13.6c0.1-1.8,0.9-3.4,1.1-5.2c0.2-1.8,0.2-3.8,1.1-5.4
			c1,0.8,1.6,1.9,2.3,2.9c0.8,1.1,1.9,2.1,2.8,3.2c1.7,5.1,3.4,10,3.5,15.3c0.1,4.9-0.5,9.9-0.8,14.7c0.3,1.9,0.7,3.7,0.7,5.6
			c0,2-0.6,3.9-0.7,5.8c-0.2,4.1-1.2,8.3-1.1,12.5c0,2.1,0.3,4.2,0.1,6.2c-0.2,2.3-0.7,4.5-1,6.7c-0.2,2-0.5,4-0.6,6.1
			c-0.1,1-0.2,2-0.6,2.9c-0.3,0.7-0.1,1.4-0.1,2c-0.4,1.7-0.8,3.4-1,5.2c-0.1,1.1-0.2,2.2-0.3,3.3c-0.1,1-0.6,1.8-0.8,2.7
			c-0.8,4.2-1.9,8.1-2,12.4l0,0c-3.6,0.1-7.2,0.2-10.8,0.3C-6.8,241-6.6,238.8-6.4,236.7C-6,231.6-6.6,238.8-6.4,236.7z M-37.4,227
			c0.1-1.7,0-3.3,0-5c0.1-1.9,0.2-3.8,0.4-5.7c0.2-3.8,0.1-7.5,0.6-11.2s0.5-7.6,0.6-11.3c0.2-3.9,0.3-7.7,0.9-11.5
			c0.5-3.7,1-7.5,1.5-11.2c0.5-3.6,0.8-7.2,1.9-10.8c1-3.2,2.2-6.5,4.7-9c2.4-2.4,5.2-4.1,8-6c0.3,2.9-1.3,6.2-2.2,8.9
			c-0.5,1.5-1.1,3.1-1.7,4.5c-0.6,1.3-3.2,11.5-3.8,14.4c-0.3,1.5-1.1,3.5-0.9,5.1c0.2,1.6,0,3.2-0.3,4.8c-0.5,3.3-0.5,6.5-0.9,9.8
			s-1.1,6.6-1.2,10c-0.1,3.5,0.4,6.9,0.5,10.4s-0.1,7-0.1,10.4s0.9,6.6,0.9,9.9c0,1.6-0.4,3.2-0.2,4.8c0.2,1.6,0.4,3.2,0.4,4.8
			c-2.8,0-5.5,0-8.3-0.1C-37.5,237.7-37.9,232.4-37.4,227C-37.3,225.3-37.9,232.4-37.4,227z M-60.9,223.6c0.7-3.4,1.8-6.8,2.9-10.1
			c0.6-1.9,1.3-3.7,1.9-5.5c0.6-1.7,1-3.7,2.1-5.1c0.4,0.4,0.7,0.7,1.1,1.1c-0.1,1.8-0.2,3.5-0.3,5.3c0,2.1,0.3,4.1,0.4,6.1
			c0.1,3.8,0,7.5-0.1,11.3c-0.7,2.4-0.5,5.1-0.4,7.6c0.1,3,0.8,5.8,1.5,8.7c-2.6,0.1-5.2,0.3-7.8,0.3
			C-60.5,236.7-62.2,230.2-60.9,223.6C-60.3,220.6-61.8,228-60.9,223.6z M-139.3,228.7c-0.3-1.8-1.6-3.1-2.7-4.6
			c-1.2-1.6-2.1-3.3-2.5-5.2c-0.4-2-1.4-3.9-1.8-5.9c-0.4-2.1-0.5-4.2-0.4-6.3c0.2-2.1,0.6-4.2,1.3-6.3c0.6-2,0.7-3.8,1.7-5.7
			c2-3.7,4.7-5.8,8.7-7.1c4-1.3,8.4-1,12.2,0.6c4,1.7,8.1,2.7,12,4.8c3.7,2,7.4,3.7,10.3,6.8c3.1,3.1,5,7.3,7.1,11
			c-0.3,0.6-0.4,0.9-0.6,1.2c0.9,4.4,3.9,7.5,6.8,10.9c1,3.5,2.1,6.9,3.1,10.4c1,3.4,2.1,6.8,2.4,10.3c-6.6,0.1-13.1-0.3-19.7-0.1
			c-0.5-1.7-1.3-3.3-3-4.5c-0.1,0.8,0.1,2.5,0.5,4.5c-3.3,0-6.5,0-9.8-0.1c-1.1-2-2.1-3.7-3.6-5.1c-0.7,0.4-0.6,0.9-0.3,1.5
			c0.5,1.1,0.8,2.3,1.1,3.6c-5.3-0.1-10.5-0.1-15.8-0.3c-0.2-0.1-0.5-0.2-0.7-0.4c-1.1-3-2.2-5.9-3.5-9.4c0,0-0.4-0.4-0.7-0.6
			c-0.4-0.7-0.8-1.4-1.2-2.1C-138.5,230.1-139.2,229.4-139.3,228.7C-139.7,226.5-139.2,229.1-139.3,228.7z"/>
		<path class="st0" d="M228.1,377.2c-16-0.1-31.9-0.2-47.9,0.2c-3.9,0.1-7.8,0.2-11.7,0.2c-4,0-7.9-0.3-11.9-0.7
			c-4.1-0.3-8.2-0.5-12.3-0.5c-3.6,0-26.8,0.2-34.5-0.1c-9.5,0.4-19.1,0.5-28.6,0.8c-2.3,0.1-4.6,0.3-6.9,0.3
			c-2.5-0.1-5-0.1-7.5-0.1c-4.9,0-9.8-0.1-14.7-0.2c-9.7-0.1-19.5-0.5-29.2,0c-4.8,0.3-9.5,1.1-14.3,1.5c-4.8,0.4-9.7,0.4-14.5,0.5
			c-4.7,0.1-9.4-0.2-14.1-0.1c-4.8,0.1-9.6,0.2-14.4,0.1c-4.9-0.1-9.8,0.4-14.7,0.4s-9.7-0.3-14.5-0.5c-9.8-0.4-19.5,0.1-29.3,0.2
			c-4.8,0.1-9.5,0.5-14.3,0.5s-9.5-0.2-14.3-0.1c-9.6,0.2-19.2,0.5-28.8,1.1c-4.8,0.3-9.6,0.5-14.5,0.4c-4.8,0-9.7,0.3-14.5,0.3
			c-4.7-0.1-9.4-0.6-14.1-0.5c-4.9,0.1-9.8,0.4-14.6,0.5c-4.8,0.1-9.7,0.3-14.5,0.5c-4.8,0.2-9.5-0.2-14.3-0.1c-1,0-3.1-0.3-3.7,0.5
			c1.2,1.2,3.4,0.8,4.9,0.8c2.2,0.1,4.4,0.3,6.7,0.4c4.4,0.2,8.9-0.1,13.3,0c4.5,0.1,8.9,0.1,13.4,0.2c2.3,0,4.6,0.1,7,0.3
			c2.2,0.2,4.4,0.6,6.5,0.6c4.4,0,8.9,0.1,13.3,0.4c4.5,0.2,8.8,0.9,13.3,0.8c4.4-0.1,8.9-0.6,13.3-0.7c4.5,0,9,0.1,13.4-0.5
			c0.1,1.8-0.3,3.8-0.1,5.6c0.2,2.1,0.5,4.2,0.8,6.2c0.5,4.1,1,7.7,2.9,11.4c1.6,3.1,3.9,5.7,6.4,8.2c2.6,2.6,6,4.3,9.4,5.7
			c7.3,3,15.4,4,23.2,3.7c4.2-0.1,8-1.3,11.9-2.7c3.6-1.3,6.7-3.4,9.8-5.4c0.7-1.1,1.1-2.4,1.8-3.5c0.7-1.2,1.6-2.3,2.4-3.5
			c0.3-0.5,0.6-1.1,0.8-1.6c0.2-0.6,0.2-1.4,0.6-1.9c1.1-1.2,1.4-3,1.9-4.5c0.4-1.5,0.8-3.1,1-4.7c0.2-1.7,0-3.6,0.5-5.3
			c0.4-1.6,0.6-2.9,0.8-4.5c0.1-1.8,0.3-3.6,0.4-5.4c3.4,0,6.8-0.1,10.2,0.1c0.4,3.7,1,7.8,2.5,11.3c0.7,1.6,0.8,3.3,1.9,4.7
			c1,1.3,1.6,2.9,1.4,4.5c-1.2,2.7-2.6,4.8-2.2,7.9c0.3,2.4,0.4,5.3,2.8,6.6c-0.7,2.3,2.1,4.6,3.3,6.3c0.8,1.1,1.2,2.4,2,3.5
			c0.7,1.1,1.6,2.1,2.5,3.1c1.8,1.9,3.6,4,5.8,5.6c1.9,1.4,4.7,2.1,5.7,4.4c5.5,2.5,10.9,5.2,17,6.3c3,0.5,6.1,0.7,9.2,0.5
			c2.8-0.2,5.4-1.3,8.3-1.3c0.5,1.2,0.9,2.3,1.4,3.4c-0.1,0.1-0.1,0.2-0.2,0.3c0.2,1.9,0.1,3.9,0.4,5.8c0.3,2.2,1.1,4.4,1.7,6.6
			c1.2,4.4,2,8.5,1.7,13.1c0.2,0.6,0.5,1.3,0.8,2.1c1.7-0.1,3.5,0.1,5.2-0.4c1.6-0.5,3.3-1.4,4.5-2.7c1.2-1.4,1.4-3,1.7-4.7
			c0.4-2.2,1-4.4,1.1-6.6c0.2-4.1-1.2-7.9-2.6-11.7c-0.8-2.1-1.7-4.1-2.5-6.1c-0.8-1.8-2-3.9-0.9-5.8c3.5-2.6,7-5.2,9.8-8.6
			c3-3.6,5-7.3,6.3-11.8c0.6-2.1,1.2-4.3,1.7-6.5c0.6-2.4,1.4-4.7,1.9-7.1c1-4.7,0.9-9.3-0.1-14c-0.9-2.5-1.4-5.2-2.3-7.7
			c2,0,10.1,0.3,12.1,0.3c2.4-0.1,4.8,0.5,7.1,0.2c0.3,5.9,0.6,12,2.4,17.7c1.5,4.8,4.2,10.4,8.8,13c2.3,1.3,4.4,2.7,6.4,4.5
			c0.9,0.9,1.8,1.7,2.4,2.8c0.7,1.3,0.7,2.7,1.1,4c0.7,2.4,1.9,5.3,3.8,7c1.8,1.7,4.4,2.1,6.8,2.1c1.8-1,3.5-1.6,4.7-3.4
			c1.2-2,1.6-4.7,2.3-6.9c2.1-1.8,4.1-3.7,6.3-5.4c2-1.6,3.7-3.1,5.2-5.1c1.5-2.1,2.6-3.9,3-6.5c0.3-2.3,3.7-18.4,3.7-20
			c0-1.6-0.4-3.1-0.6-4.7c0.3,0,9.7-0.1,11.1-0.1c1.7,0,3.4-0.1,5,0c2.9,0.3,5.8-0.5,8.8-0.1c1-0.2,7.6,0,7.6,0
			c4.4-0.1,8.5-0.2,12.9-0.3c0.1,0,6.2,0.1,8.8-0.4c2.8-0.5,5.6-0.5,8.5-0.6c5.9-0.2,11.7-0.3,17.5-1.1c1.2-0.2,2.4-0.4,3.7-0.5
			c1.4-0.1,2.9,0.2,4.3,0.2c3-0.1,5.9-0.4,8.9-0.5c2.8-0.1,5.6-0.5,8.4-0.8c1.5-0.1,3.1-0.3,4.6-0.4c1.5-0.1,3-0.1,4.4-0.7
			C228.3,377.4,228.2,377.2,228.1,377.2C225.3,377.2,228.2,377.2,228.1,377.2z M-132.6,394c0.3-1.6-0.1-3.3,0.1-4.9
			c0.1-1.6,0.1-3.1-0.1-4.7c0.4,0,0.9,0,1.4,0c0.4,3.6,0.1,7.6-1,10.4C-132.4,394.5-132.7,394.2-132.6,394
			C-132.3,392.2-132.7,394.2-132.6,394z M-109.8,418.5c0,0.1-0.1,0.3-0.3,0.7c-1.3-0.3-2.4-0.6-3.7-0.9c-0.8-2.2-1.3-4.6-2.5-6.9
			c-1.4,1.6-0.5,3.5-1.2,5.1c-1.8-0.3-3.3-1.4-4.9-2.2c-1.4-2.7-0.5-5.6-0.9-8.8c-0.8-0.7-1.7-1.5-2.9-2.5c-0.5,2-0.9,3.6-1.3,5.2
			c-2.2-1.2-3.5-4-3.6-7.7c0.8,0.6,0.7,2,2.1,2c1.5-0.6,1.3-3.5,1.5-4.8c0.5-0.3,1-0.5,1.5-0.7c0.6-3.7-0.4-7.6,0.6-11.4
			c0.4,0.3,0.8,0.6,1.2,0.9c0.7-0.5,0.9-1.2,1.1-1.9c3.5,0.1,7-0.2,10.5-0.1c0.5,2.7,1,5.3,1.4,8c0.4,2.8,1.5,5.5,1.7,8.3
			C-109.3,406.7-110,412.6-109.8,418.5C-109.8,418.7-110,414-109.8,418.5z M-81.5,414.5c0.2,1.4,0.5,4.8-1.7,4.9
			c-0.6-1.8,0.6-3.3,0.7-5c-0.3-1.2-1-2.2-2.3-3c-0.5,0.6-0.9,1.1-1.3,1.6c-0.6-1.8-1.2-3.5-1.9-5.7c-1,1.8-1,4.5-1.1,6.5
			c-0.1,1.2-0.4,2.5-0.3,3.8c0.1,1.3,0.6,2.6-0.2,3.9c-1.2,0.5-2.6,0.6-4.2,0.7c0.8-1.1,1.6-2.1,2.3-3.1c-0.2-2.2-0.7-4.4-1.2-6.5
			c-0.2-1-0.5-2.1-0.9-3.1c-0.5-1.1-1.2-2.1-1.8-3.1c-1.5,1.9-1.2,4.3-1.1,6.6c0.2,2.9,0.4,5.7,0.5,8.6c-0.8,0.7-1.6,0.5-2.5,0.5
			c-1.6-2.3-1.5-5.2-3.1-7.7c-1.6,1.9-1.6,4.3-2.5,6.3c-0.8,0.6-1.6,0.5-2.4-0.1c0-1.4,0.3-2.7,0.3-4.1c0-1.6-0.2-3.2-0.6-4.7
			c-0.4-1.3-0.9-2.6-1-4c-0.2-1.6,0.2-3.2,0.2-4.8c0.1-3.1,0.5-6.2,0-9.2c-0.6-3.2-0.8-6.3-0.8-9.5c0.4,0,0.7-0.1,1.1-0.2
			c0.1,1.3,0.3,2.6,0.7,4c1.2-1.5,1.4-2.9,1.7-4.3c1.3,0,2.6,0.1,3.9,0.1c-1.5,1.1-1,4.3-1.1,5.9c-0.1,2.3,0,4.5,0.2,6.7
			s0.3,4.4,0.1,6.6c-0.2,2.1-0.9,4-0.9,6.1c0.1,0.1,0.3,0.2,0.4,0.3c1.3-1.4,3.6-1.5,4.6-3.3c-0.7-1.8-1.1-3.6-1.1-5.5
			c0-2,0.1-3.9-0.2-5.9c-0.3-1.9-1.1-3.6-0.8-5.5c0.2-1.5,1.9-4,0.7-5.4c1.2,0,2.4,0.1,3.7,0.1c-0.6,1.9,0.4,3.8,0.3,5.8
			c-0.1,1.8-0.3,3.6-0.1,5.4c0.4-0.2,1.1-0.3,1.4-0.7c0.6-0.7,1-1.4,1.5-2.2c0-2.9-0.2-5.7,0.8-8.4c2.9-0.2,5.7-0.6,8.6-0.9
			c0.3,4.2,0.1,8.6,0.7,12.8c0.3,2,0.3,4,0.5,6s0.5,3.9,0.7,5.8C-81.7,409.5-81.9,412-81.5,414.5C-81.3,415.5-81.9,412-81.5,414.5z
			 M-71.4,385.3c-0.4,5-0.5,10-0.7,14.9c-0.1,2.5,0.1,4.9-0.2,7.3c-0.2,1.7-0.7,4.9-2.7,5.2c0.2-2.7,0.4-5.3,0.8-8
			c0.2-1.2,0.4-2.5,0.2-3.7s-0.7-2.4-1.2-3.5c-2.3,3.3-2.7,7.5-3.4,11.3c-0.5-0.6-0.9-1-0.9-1.1c0.1-4.1,0.1-8.2,0.1-12.4
			c0-1.9,0.8-3.8,0.9-5.8c0.1-2.2-0.3-4.3-0.5-6.4c2.6,0,5.1-0.3,7.7-0.2C-71.4,383.8-71.4,384.5-71.4,385.3
			C-71.8,389.1-71.4,384.5-71.4,385.3z M-66.8,389.9c-0.8,2.1-0.7,4.6-1.3,6.7c-0.5,1.9-0.7,4.5-2,6.1c-0.7-2.9,0.3-6,0.7-8.9
			c0.4-3.6-0.5-7.2-0.1-10.9c1-0.1,2.1-0.3,3.1-0.4C-66.2,385.1-65.9,387.5-66.8,389.9C-67,390.4-66.1,387.9-66.8,389.9z M-40,415.3
			c-1.4,0.1-2.4-2.3-3-3.2c-0.1-0.9,0.2-1.5,1.1-2.1c0.4,0.1,0.8,0.3,1.2,0.5c0.3,0.9,0.6,1.7,1,2.7
			C-39.9,413.9-39.9,414.6-40,415.3C-41.2,415.4-39.9,414.6-40,415.3z M22.7,457.5c0.5,2,1,4,1.4,6c0.3,1.6,0.9,3.5-0.5,4.8
			c-0.2,0.1-1.9,1.3-2.1,1.9c-1.1-1.3-1.1-3.8-1.6-5.5c-0.6-2-1.6-3.9-2.1-5.9s-0.7-4.1-1.2-6c-0.6-2.1-1.2-4.2-1.8-6.3
			c-0.7-0.7-1.2-1.3-1.9-2c0.6-0.7,1.3-1.2,2.2-1.3c0.7,0.5,1.4,1,2.2,1.5c1,2.5,0.9,5.6,3.4,7.4C21.5,453.9,22.2,455.6,22.7,457.5
			C23.4,460,22.2,455.6,22.7,457.5z M36.4,399.3c-0.2,3.4-0.5,7.6-2.4,10.5c-0.9-1.8-0.4-3.5-0.9-5.4c-0.4-1.4-1.2-3.3-2.8-3.5
			c-1.3,2-2.5,4.8-1.6,7.1c0.8,2.2,2.8,3.3,4.4,4.9c-0.1,2.7-3.1,10.6-4.8,12.5c-0.5-0.6-1.1-1.2-1.8-2c-0.7-0.2-1.6-0.6-2.7-1
			c-0.6,0.9-1.1,1.6-1.6,2.3c1.1,1.5,2.6,2.3,4.1,3.4c-1.1,1.7-2.5,3-4.3,4.3c-1.8-1.3-2.1-3.6-3.8-5.1c-0.5-0.1-0.8,0.1-1.4,0.2
			c-0.1,0.6-0.2,1.2-0.3,1.9c0.7,0.8,1.4,1.6,2,2.4c0.9,0.3,1.7,0.7,2.7,1.1c-1.5,2.4-3.9,3.4-6.4,4.7c-2.6-2.4-5.2-4.5-8.1-6.6
			c-0.8,0.5-1.5,1-2.3,1.5c0.4,0.8,0.7,1.6,1.1,2.5c2.8,1,5.5,2,8.2,2.9c-2.4,3.3-9.4,5.8-17.4,4.8c-1-0.9-2.1-1.8-3.2-2.7
			c-0.4,0.4-0.7,0.6-1,0.9c0.1,0.6,0.1,1.1,0.2,1.8c-2.8-0.2-5.7-0.9-8.1-2.5c-2.8-1.8-5.2-4.4-7.6-6.6c-1.1-1.1-2.2-2.2-3.5-3
			s-2.5-1.9-3.6-3c-2.1-2.2-3.8-4.7-5.5-7.3c0.8-0.3,1.5-0.6,2.2-0.9c0.2-1.1-0.6-2.2,0.3-3.3c3.1,1.8,6.3,3.4,10,3.4
			c1.9,0,3.6,0.5,5.4,0.9c1.9,0.5,3.9,0.5,5.8,0.4c3.8-0.2,7.4-1.3,11-2.4c3.5-1.1,6.8-2.3,9.9-4.1c1.5-0.9,2.9-1.8,4.3-2.8
			c1.5-1.1,3.1-2.1,4.6-3.1c2.7-1.9,4.7-4.9,6.9-7.2c1.1-1.1,2.5-1.9,3.6-3c1.3-1.3,2.1-2.9,2.9-4.5c1.6-3.3,2.9-6.7,3-10.4l0,0
			c0.3,0,0.5,0,0.8,0c0.4,0.8,0.7,1.4,1,2C36.1,390,36.7,394.6,36.4,399.3C36.3,400.4,36.5,397.8,36.4,399.3z M111.6,388.5
			c-0.1,5-0.7,9.8-2.1,14.6c-0.6,2.1-1.3,4.3-2.4,6.2c-1.2,2.1-2.9,3.7-4.7,5.3c-1.7,1.5-3.6,2.8-5.2,4.4c-1.5,1.5-2.7,3.3-3.7,5.3
			c-0.9,1.9-1.5,4.1-2.6,5.9c-1,1.6-2,2.1-3.7,2.5c-0.8-0.4-1.5-0.8-2.2-1.2c-2.2-2.7-2-6.3-3.3-9.9c-2.5-2.8-4.8-5.7-8-7.7
			c-1.5-0.9-3.1-1.6-4.5-2.7c-1.3-1.1-2.4-2.6-3.3-4.1c-4.1-6.9-5.1-15.1-5.5-23.1c0.2,0.1,6.1-0.2,6.3-0.1c0,3.3,0.4,5.9,0.6,9.3
			c0.1,1.7,0.1,3.5,0.6,5.2c0.5,1.8,1.2,3.5,1.8,5.3c1,3.1,3.6,5.1,5.9,7.2c2.3,2.2,4.6,5,7.4,6.7c-0.4-2.1-1.9-3.6-3.3-5.2
			c-1.8-2.1-3.4-4.3-5.1-6.4c-0.7-3.4-0.9-6.9-0.5-10.4c0.1-0.9,0.7-4.4,0.7-5.3c-0.1-1.8-1.1-5.9-1.2-6.1c0-0.2,0-0.4,0-0.6
			c0.2-0.1,2.2,0.1,3,0.2c0.4,6.4,0.6,13.3,2.5,19.5c0.9,2.8,2.3,5.5,3.9,7.9c1.6,2.5,2.6,5.4,4.7,7.4c0.8-2.8-0.8-5.1-2-7.5
			c-1.3-2.6-1.7-5.5-2.3-8.3c-0.7-3.2,0.3-6.1,0.6-9.2c0.3-3.3,0.6-6.7,0.8-10c1.3,0.1,2.7,0.2,4,0.2c-0.2,2.8-0.3,5.7-0.1,8.5
			c0.2,3.1,0.9,6,1.4,9.1c0.5,3,0.5,6,0.5,9c0,2.7-0.4,6.1,1,8.5c2-2,2.1-4.5,2.3-7.2c0.3-3.1-0.4-6.2-0.3-9.3
			c0.1-1.4,0.5-2.7,0.5-4.1c-0.1-1.7,0-3.5,0-5.2c0.1-3.1,0.3-6.2,0.3-9.4c1.7-0.1,3.3-0.1,5-0.2c0,3.2-0.2,6.5,0.1,9.7
			c0.3,3.4,1.2,6.8,1.4,10.3c0.1,3-0.6,5.9-2.3,8.3c-1,1.3-1.8,2.7-2.7,4.1c-0.8,1.3-1.9,2.7-2,4.3c2.6-1.8,4.7-4.3,6.2-7.1
			c0.7-1.3,1.1-2.7,1.9-3.9c0.9-1.3,1.8-2.4,2.1-4c0.3-1.5,0.3-3.2,0.4-4.8c0.2-1.9,0.3-3.7,0.3-5.6c-0.1-3.9,0.4-7.8,0.4-11.7
			c0.9,0.2,2.2-0.2,3.1-0.2c1.1,0,2.2,0,3.3-0.1C111.6,384.7,111.6,386.6,111.6,388.5C111.5,393,111.6,386.6,111.6,388.5z"/>
	</g>
</g>
</svg>
