<?xml version="1.0" encoding="utf-8"?>
<!-- Generator: Adobe Illustrator 19.0.0, SVG Export Plug-In . SVG Version: 6.00 Build 0)  -->
<svg version="1.1"
	 id="Camada_1" xmlns:dc="http://purl.org/dc/elements/1.1/" xmlns:svg="http://www.w3.org/2000/svg" xmlns:sodipodi="http://sodipodi.sourceforge.net/DTD/sodipodi-0.dtd" xmlns:inkscape="http://www.inkscape.org/namespaces/inkscape" xmlns:cc="http://creativecommons.org/ns#" xmlns:rdf="http://www.w3.org/1999/02/22-rdf-syntax-ns#" inkscape:version="0.91 r13725" sodipodi:docname="sementeca.svg"
	 xmlns="http://www.w3.org/2000/svg" xmlns:xlink="http://www.w3.org/1999/xlink" x="0px" y="0px" viewBox="15 -21.9 128.6 72.9"
	 style="enable-background:new 15 -21.9 128.6 72.9;" xml:space="preserve">
<style type="text/css">
	.st0{fill:#FFFFFF;}
	.st1{fill:#ADC77F;}
</style>
<sodipodi:namedview  id="namedview16341" inkscape:cx="-22.946276" pagecolor="#ffffff" borderopacity="1" bordercolor="#666666" guidetolerance="10" objecttolerance="10" inkscape:cy="16.277451" gridtolerance="10" showgrid="false" inkscape:zoom="1.9828926" inkscape:current-layer="Camada_1" inkscape:window-width="1357" inkscape:window-y="0" inkscape:pageopacity="0" inkscape:window-maximized="0" inkscape:window-height="656" inkscape:pageshadow="2" inkscape:window-x="0">
	</sodipodi:namedview>
<g id="g16194" transform="translate(-637.61521,-236.9317)">
	<g id="XMLID_259_-3" transform="translate(596.2193,222.50042)">
		<path id="path16139-6" sodipodi:nodetypes="cccccc" inkscape:connector-curvature="0" class="st0" d="M120.8,15.4L134,26.3
			l1.1,17.9l-27.3-1.6l-0.3-16.3L120.8,15.4z"/>
	</g>
	<path id="XMLID_49366_" inkscape:connector-curvature="0" class="st1" d="M725.2,256.1c0-0.2-0.1-0.8-0.1-1
		c0.2-0.4,0.4-0.8,0.3-1.3c0-0.4-0.1-0.9-0.4-1.1c0.1-0.3-0.3-0.8-0.5-1.1c-0.1-0.2-0.2-0.4-0.3-0.5c-0.1-0.2-0.2-0.3-0.4-0.5
		c-0.3-0.3-0.7-0.7-1-0.9s-0.8-0.3-1-0.8c-0.9-0.4-1.9-0.9-2.8-1.1c-0.5-0.1-1-0.1-1.5-0.1c-0.4,0-0.9,0.2-1.3,0.2
		c-0.1-0.2-0.1-0.3-0.2-0.5l0,0c0-0.3,0-0.7-0.1-1c0-0.3-0.2-0.8-0.3-1.1c-0.2-0.8-0.3-1.4-0.3-2.2c0-0.1-0.1-0.2-0.1-0.3
		c-0.3,0-0.5,0-0.9,0.1c-0.2,0.1-0.5,0.2-0.8,0.4c-0.2,0.2-0.2,0.5-0.3,0.8c-0.1,0.3-0.1,0.8-0.2,1.1c0,0.7,0.2,1.3,0.4,2
		c0.1,0.3,0.3,0.7,0.4,1c0.1,0.3,0.3,0.7,0.1,1c-0.5,0.4-1.2,0.9-1.6,1.4c-0.5,0.5-0.9,1.2-1.1,2c-0.1,0.3-0.2,0.8-0.3,1.1
		c-0.1,0.4-0.2,0.8-0.3,1.2c-0.1,0.8-0.1,1.5,0,2.3c0.1,0.4,0.2,0.9,0.4,1.3c0.3,0.8,0.8,1,1,0.9c0.2,0,0.8,0.7,1.4,1.6
		c0.7,1,3.8,3.4,6.2,3.4s4.5-0.2,5.2-3.7C725.6,257.7,725.3,256.6,725.2,256.1L725.2,256.1z M713.8,246
		C713.8,246.1,713.8,246.1,713.8,246C713.8,245.8,713.8,245.9,713.8,246c-0.1-0.3-0.2-0.7-0.2-1c0-0.2-0.1-0.5,0.1-0.8
		c0,0,0.3-0.2,0.3-0.3c0.2,0.2,0.2,0.7,0.2,0.9c0.1,0.3,0.2,0.7,0.3,1s0.1,0.7,0.2,1c0.1,0.3,0.2,0.7,0.3,1.1
		c0.1,0.1,0.2,0.2,0.3,0.3c-0.1,0.1-0.2,0.2-0.3,0.2c-0.1-0.1-0.2-0.1-0.3-0.2c-0.1-0.4-0.1-0.9-0.5-1.2
		C714,246.7,713.9,246.4,713.8,246L713.8,246z M723.1,252.9c-0.5-0.3-1.1-0.5-1.6-0.5c-0.3,0-0.5-0.1-0.9-0.1
		c-0.3-0.1-0.7-0.1-1-0.1c-0.7,0-1.2,0.2-1.9,0.4c-0.5,0.2-1.1,0.3-1.6,0.7c-0.2,0.1-0.4,0.3-0.7,0.4c-0.2,0.2-0.5,0.3-0.8,0.5
		c-0.4,0.3-0.8,0.8-1.2,1.2c-0.2,0.2-0.4,0.3-0.5,0.4c-0.2,0.2-0.3,0.4-0.4,0.8c-0.2,0.5-0.4,1.1-0.5,1.7l0,0h-0.1
		c-0.1-0.1-0.1-0.2-0.1-0.3c-0.1-0.8-0.2-1.5-0.1-2.3c0,0.1,0,0.1,0,0l0,0l0,0c0-0.5,0.1-1.2,0.4-1.7c0.1,0.3,0.1,0.5,0.1,0.9
		c0.1,0.2,0.2,0.5,0.4,0.5c0.2-0.3,0.4-0.8,0.2-1.2c-0.1-0.3-0.4-0.5-0.8-0.8c0-0.4,0.5-1.7,0.8-2.1c0.1,0.1,0.2,0.2,0.3,0.3
		c0.1,0,0.2,0.1,0.4,0.1c0.1-0.1,0.2-0.2,0.2-0.3c-0.2-0.2-0.4-0.4-0.7-0.5c0.2-0.3,0.4-0.5,0.7-0.8c0.3,0.2,0.3,0.5,0.7,0.9
		c0.1,0,0.1,0,0.2,0c0-0.1,0-0.2,0-0.3c-0.1-0.1-0.2-0.2-0.3-0.4c-0.1-0.1-0.3-0.1-0.4-0.2c0.2-0.4,0.7-0.5,1.1-0.8
		c0.4,0.4,0.9,0.8,1.3,1.1c0.1-0.1,0.2-0.1,0.3-0.2c-0.1-0.1-0.1-0.2-0.2-0.4c-0.4-0.2-0.9-0.3-1.3-0.4c0.4-0.5,1.5-1,2.8-0.8
		c0.2,0.1,0.3,0.3,0.5,0.4c0.1-0.1,0.1-0.1,0.2-0.1c0-0.1,0-0.2,0-0.3c0.4,0,1,0.1,1.3,0.4c0.4,0.3,0.9,0.8,1.2,1.1
		c0.2,0.2,0.3,0.3,0.5,0.5c0.2,0.1,0.4,0.3,0.7,0.5c0.3,0.3,0.7,0.8,0.9,1.2c-0.1,0.1-0.2,0.1-0.3,0.1
		C723.2,252.5,723.3,252.7,723.1,252.9L723.1,252.9z M724.5,253.9c-0.1,0-0.1,0-0.2-0.1c0-0.1-0.1-0.3-0.1-0.4c0-0.1,0-0.2,0-0.3
		h0.1c0.2,0.1,0.3,0.4,0.4,0.5C724.7,253.7,724.6,253.8,724.5,253.9L724.5,253.9z"/>
	<g id="XMLID_259_" transform="translate(596.25408,222.52805)">
		<path id="path16139" sodipodi:nodetypes="cccccccccccccccccc" inkscape:connector-curvature="0" class="st1" d="M135,44.4
			l0.2-18.7c0-0.1-0.1-0.3-0.1-0.4l-13.8-11.8c-0.1-0.1-0.2-0.1-0.4-0.1c-0.1,0-0.3,0.1-0.3,0.1L106.3,26c-0.1,0.1-0.1,0.2-0.1,0.4
			v17L135,44.4z M120.8,15.4L134,26.3l0.5,17.5l-26.6-1.3l-0.4-16.3L120.8,15.4z"/>
	</g>
</g>
</svg>
