<?xml version="1.0" encoding="UTF-8" standalone="no"?>
<!-- Generator: Adobe Illustrator 19.0.0, SVG Export Plug-In . SVG Version: 6.00 Build 0)  -->

<svg
   xmlns:dc="http://purl.org/dc/elements/1.1/"
   xmlns:cc="http://creativecommons.org/ns#"
   xmlns:rdf="http://www.w3.org/1999/02/22-rdf-syntax-ns#"
   xmlns:svg="http://www.w3.org/2000/svg"
   xmlns="http://www.w3.org/2000/svg"
   xmlns:sodipodi="http://sodipodi.sourceforge.net/DTD/sodipodi-0.dtd"
   xmlns:inkscape="http://www.inkscape.org/namespaces/inkscape"
   version="1.1"
   id="Camada_1"
   x="0px"
   y="0px"
   viewBox="-415 244.1 128.6 72.9"
   style="enable-background:new -415 244.1 128.6 72.9;"
   xml:space="preserve"
   inkscape:version="0.91 r13725"
   sodipodi:docname="sementeca.svg"><metadata
     id="metadata16345"><rdf:RDF><cc:Work
         rdf:about=""><dc:format>image/svg+xml</dc:format><dc:type
           rdf:resource="http://purl.org/dc/dcmitype/StillImage" /><dc:title /></cc:Work></rdf:RDF></metadata><defs
     id="defs16343" /><sodipodi:namedview
     pagecolor="#ffffff"
     bordercolor="#666666"
     borderopacity="1"
     objecttolerance="10"
     gridtolerance="10"
     guidetolerance="10"
     inkscape:pageopacity="0"
     inkscape:pageshadow="2"
     inkscape:window-width="1357"
     inkscape:window-height="656"
     id="namedview16341"
     showgrid="false"
     inkscape:zoom="1.9828926"
     inkscape:cx="-22.946276"
     inkscape:cy="16.277451"
     inkscape:window-x="0"
     inkscape:window-y="0"
     inkscape:window-maximized="0"
     inkscape:current-layer="Camada_1" /><style
     type="text/css"
     id="style16318">
	.st0{fill:#FFFFFF;}
	.st1{fill:#ADC77F;}
</style><g
     id="g16194"
     transform="translate(-637.61521,-236.9317)"><g
       style="fill:#000000;fill-opacity:1"
       id="XMLID_259_-3"
       transform="translate(596.2193,222.50042)"><path
         sodipodi:nodetypes="cccccc"
         inkscape:connector-curvature="0"
         id="path16139-6"
         d="m -309.18077,270.45488 13.1374,10.88487 1.10136,17.87471 -26.979,-0.78599 -0.58671,-17.15171 z"
         style="color:#000000;font-style:normal;font-variant:normal;font-weight:normal;font-stretch:normal;font-size:medium;line-height:normal;font-family:sans-serif;text-indent:0;text-align:start;text-decoration:none;text-decoration-line:none;text-decoration-style:solid;text-decoration-color:#000000;letter-spacing:normal;word-spacing:normal;text-transform:none;direction:ltr;block-progression:tb;writing-mode:lr-tb;baseline-shift:baseline;text-anchor:start;white-space:normal;clip-rule:nonzero;display:inline;overflow:visible;visibility:visible;opacity:1;isolation:auto;mix-blend-mode:normal;color-interpolation:sRGB;color-interpolation-filters:linearRGB;solid-color:#000000;solid-opacity:1;fill:#ffffff;fill-opacity:1;fill-rule:evenodd;stroke:none;stroke-width:1px;stroke-linecap:round;stroke-linejoin:round;stroke-miterlimit:4;stroke-dasharray:none;stroke-dashoffset:0;stroke-opacity:1;color-rendering:auto;image-rendering:auto;shape-rendering:auto;text-rendering:auto;enable-background:accumulate" /></g><path
       style="fill:#adc77f;fill-opacity:1"
       d="m 295.17643,511.08058 c 0,-0.21824 -0.10906,-0.76382 -0.10906,-0.98206 0.21824,-0.43647 0.43646,-0.76382 0.32735,-1.30941 0,-0.43646 -0.10906,-0.87294 -0.43647,-1.09118 0.10907,-0.32734 -0.32735,-0.76382 -0.54559,-1.09116 -0.10905,-0.21824 -0.21823,-0.43648 -0.32734,-0.54559 -0.10907,-0.21824 -0.21824,-0.32735 -0.43648,-0.54558 -0.32734,-0.32736 -0.6547,-0.65472 -0.98206,-0.87295 -0.32734,-0.21823 -0.76382,-0.32735 -0.98205,-0.76381 -0.87294,-0.43647 -1.855,-0.87296 -2.83705,-1.09118 -0.54558,-0.10906 -0.98206,-0.10906 -1.52764,-0.10906 -0.43647,0 -0.87294,0.21824 -1.30941,0.21824 -0.10906,-0.21824 -0.10906,-0.32736 -0.21823,-0.5456 0,0 0,0 0,0 0,-0.32735 0,-0.65469 -0.10905,-0.98205 0,-0.32735 -0.21825,-0.76382 -0.32736,-1.09118 -0.21824,-0.76382 -0.32736,-1.41851 -0.32736,-2.18233 0,-0.10907 -0.10905,-0.21824 -0.10905,-0.32736 -0.32736,0 -0.54559,0 -0.87295,0.10906 -0.21822,0.10906 -0.54558,0.21824 -0.76382,0.43647 -0.21822,0.21823 -0.21822,0.54559 -0.32735,0.76383 -0.10905,0.32734 -0.10905,0.76382 -0.21823,1.09115 0,0.65472 0.21823,1.30942 0.43646,1.96412 0.10907,0.32736 0.32736,0.65471 0.43648,0.98206 0.10906,0.32736 0.32736,0.65471 0.10906,0.98205 -0.5456,0.43648 -1.20029,0.87294 -1.63675,1.41854 -0.5456,0.54558 -0.87296,1.20028 -1.09118,1.96411 -0.10907,0.32734 -0.21824,0.76381 -0.32736,1.09117 -0.10906,0.43646 -0.21823,0.76382 -0.32736,1.20028 -0.10904,0.76382 -0.10904,1.52765 0,2.29147 0.10907,0.43647 0.21824,0.87294 0.43648,1.3094 0.32735,0.76383 0.76382,0.98206 0.98206,0.87295 0.21823,0 0.76382,0.6547 1.41851,1.63676 0.65472,0.98206 3.81911,3.38263 6.2197,3.38263 2.40058,0 4.47381,-0.21824 5.23763,-3.70998 0.98205,-2.83705 0.6547,-3.92823 0.54559,-4.47381 z m -11.3482,-10.03879 c 0,0.10904 0,0.10904 0,0 0,-0.21824 0,-0.10906 0,0 -0.10906,-0.32736 -0.21824,-0.65471 -0.21824,-0.98206 0,-0.21823 -0.10905,-0.54559 0.10907,-0.76383 0,0 0.32734,-0.21822 0.32734,-0.32735 0.21823,0.21823 0.21823,0.65471 0.21823,0.87295 0.10907,0.32733 0.21825,0.65469 0.32736,0.98205 0.10907,0.32735 0.10907,0.6547 0.21824,0.98205 0.10905,0.32735 0.21822,0.65471 0.32734,1.09118 0.10906,0.10905 0.21824,0.21823 0.32736,0.32735 -0.10906,0.10906 -0.21823,0.21824 -0.32736,0.21824 -0.10905,-0.10907 -0.21823,-0.10907 -0.32734,-0.21824 -0.10906,-0.43647 -0.10906,-0.87294 -0.5456,-1.2003 -0.21823,-0.32734 -0.32734,-0.6547 -0.43646,-0.98204 z m 9.27497,6.87438 c -0.54559,-0.32734 -1.09117,-0.54558 -1.63675,-0.54558 -0.32736,0 -0.5456,-0.10906 -0.87295,-0.10906 -0.32735,-0.10906 -0.6547,-0.10906 -0.98205,-0.10906 -0.65471,0 -1.20029,0.21823 -1.855,0.43647 -0.54559,0.21823 -1.09117,0.32735 -1.63676,0.65471 -0.21824,0.10905 -0.43647,0.32734 -0.6547,0.43646 -0.21824,0.21823 -0.54559,0.32736 -0.76382,0.54559 -0.43647,0.32736 -0.76382,0.76382 -1.20029,1.20029 -0.21825,0.21823 -0.43648,0.32735 -0.54558,0.43646 -0.21824,0.21825 -0.32736,0.43648 -0.43648,0.76382 -0.21824,0.54559 -0.43648,1.09118 -0.54558,1.74588 l 0,0 c 0,0 -0.10907,0 -0.10907,0 -0.10905,-0.10905 -0.10905,-0.21822 -0.10905,-0.32734 -0.10907,-0.76382 -0.21824,-1.52765 -0.10907,-2.29147 0,0.10906 0,0.10906 0,0 0,0 0,0 0,0 l 0,0 c 0,-0.54558 0.10907,-1.20028 0.43648,-1.74587 0.10905,0.32734 0.10905,0.54559 0.10905,0.87293 0.10906,0.21823 0.21823,0.54559 0.43647,0.54559 0.21824,-0.32736 0.43648,-0.76383 0.21824,-1.20029 -0.10906,-0.32736 -0.43648,-0.54559 -0.76381,-0.76382 0,-0.43648 0.54557,-1.74587 0.76381,-2.07323 0.10906,0.10906 0.21824,0.21824 0.32734,0.32736 0.10907,0 0.21824,0.10905 0.43648,0.10905 0.10906,-0.10905 0.21824,-0.21823 0.21824,-0.32735 -0.21824,-0.21824 -0.43648,-0.43647 -0.65472,-0.5456 0.21824,-0.32734 0.43648,-0.54558 0.65472,-0.76382 0.32734,0.21824 0.32734,0.5456 0.6547,0.87295 0.10906,0 0.10906,0 0.21823,0 0,-0.10907 0,-0.21824 0,-0.32735 -0.10906,-0.10906 -0.21823,-0.21824 -0.32735,-0.43647 -0.10906,-0.10907 -0.32735,-0.10907 -0.43647,-0.21824 0.21823,-0.43647 0.65471,-0.54558 1.09117,-0.76382 0.43647,0.43647 0.87294,0.76382 1.30941,1.09117 0.10906,-0.10906 0.21824,-0.10906 0.32736,-0.21824 -0.10907,-0.10905 -0.10907,-0.21823 -0.21824,-0.43646 -0.43648,-0.21823 -0.87294,-0.32735 -1.30941,-0.43647 0.43647,-0.54558 1.52765,-0.98206 2.83705,-0.76382 0.21824,0.10906 0.32735,0.32735 0.5456,0.43646 0.10905,-0.10904 0.10905,-0.10904 0.21822,-0.10904 0,-0.10907 0,-0.21825 0,-0.32736 0.43647,0 0.98206,0.10906 1.30941,0.43646 0.43647,0.32736 0.87294,0.76383 1.20029,1.09118 0.21824,0.21823 0.32735,0.32736 0.54559,0.54559 0.21823,0.10906 0.43647,0.32734 0.6547,0.54558 0.32735,0.32735 0.65471,0.76382 0.87295,1.20029 -0.10906,0.10906 -0.21824,0.10906 -0.32736,0.10906 0.21823,0 0.32736,0.21823 0.10906,0.43647 z m 1.41852,0.98206 c -0.10906,0 -0.10906,0 -0.21822,-0.10907 0,-0.10905 -0.10907,-0.32733 -0.10907,-0.43646 0,-0.10905 0,-0.21823 0,-0.32735 0,0 0.10907,0 0.10907,0 0.21822,0.10906 0.32734,0.43648 0.43646,0.54559 0,0.10905 -0.10906,0.21822 -0.21824,0.32735 z"
       class="st1"
       id="XMLID_49366_"
       inkscape:connector-curvature="0" /><g
       style="fill:#000000;fill-opacity:1"
       id="XMLID_259_"
       transform="translate(596.25408,222.52805)"><path
         sodipodi:nodetypes="cccccccccccccccccc"
         inkscape:connector-curvature="0"
         id="path16139"
         d="m -309.0625,268.49023 c -0.12989,0.002 -0.25387,0.0546 -0.3457,0.14649 l -14.33203,12.33008 c -0.0942,0.0942 -0.14698,0.22219 -0.14649,0.35547 l 0,17.04492 c 2e-5,0.27462 1.10538,0.49783 1.37998,0.5 l 27.20986,0.2539 c 0.27842,0.003 0.50585,-0.22156 0.50586,-0.5 l 0,-17.86718 c -2e-5,-0.1326 -0.0527,-0.25976 -0.14648,-0.35352 l -13.76367,-11.76367 c -0.0957,-0.0957 -0.22603,-0.14856 -0.36133,-0.14649 z m -0.11827,1.96465 13.1374,10.88487 1.01015,18.1664 -26.84315,-1.25625 -0.63135,-16.97314 z"
         style="color:#000000;font-style:normal;font-variant:normal;font-weight:normal;font-stretch:normal;font-size:medium;line-height:normal;font-family:sans-serif;text-indent:0;text-align:start;text-decoration:none;text-decoration-line:none;text-decoration-style:solid;text-decoration-color:#000000;letter-spacing:normal;word-spacing:normal;text-transform:none;direction:ltr;block-progression:tb;writing-mode:lr-tb;baseline-shift:baseline;text-anchor:start;white-space:normal;clip-rule:nonzero;display:inline;overflow:visible;visibility:visible;opacity:1;isolation:auto;mix-blend-mode:normal;color-interpolation:sRGB;color-interpolation-filters:linearRGB;solid-color:#000000;solid-opacity:1;fill:#adc77f;fill-opacity:1;fill-rule:evenodd;stroke:none;stroke-width:1px;stroke-linecap:round;stroke-linejoin:round;stroke-miterlimit:4;stroke-dasharray:none;stroke-dashoffset:0;stroke-opacity:1;color-rendering:auto;image-rendering:auto;shape-rendering:auto;text-rendering:auto;enable-background:accumulate" /></g></g></svg>