<?xml version="1.0" encoding="utf-8"?>
<!-- Generator: Adobe Illustrator 19.0.0, SVG Export Plug-In . SVG Version: 6.00 Build 0)  -->
<svg version="1.1" id="Camada_1" xmlns="http://www.w3.org/2000/svg" xmlns:xlink="http://www.w3.org/1999/xlink" x="0px" y="0px"
	 viewBox="0 0 128.6 72.9" style="enable-background:new 0 0 128.6 72.9;" xml:space="preserve">
<style type="text/css">
	.st0{fill:#FFFFFF;}
	.st1{fill:#ADC77F;}
</style>
<g id="XMLID_8934_">
	<g id="XMLID_8956_">
		<path id="XMLID_8960_" class="st0" d="M73.9,29.8c-0.3,1-0.3,1.5-0.5,1.5c-0.2,0-0.2-0.4-0.3-0.7c-0.1-0.3-0.6-2.1-0.8-2.9
			s-0.4-1.9-0.5-2.6c-0.3-1-0.7-1.8-1.1-2.8c-0.2-0.5-0.4-1.1-0.7-1.6c-0.3-0.5-0.7-1-1.1-1.5c-0.6-0.9-1.6-1.2-2.6-1.7
			c-1-0.5-1.9-1.1-3-1.4c0.3,0.6,0.9,0.9,1.5,1.3c0.8,0.5,1.5,1,2.2,1.5c0.5,1,1,2.1,1.2,3.2c0.1,0.3,0.2,1.4,0.3,1.7
			c0.2,0.6,1,1.9,1,2c0,0,1.4,3.9,2.1,5c0.7,1.1,0.4,2,0.1,2.2c-0.3,0.2-0.8,0.7-1,0.6c-0.2-0.1-0.5-1.7-0.9-3s-1-3.8-1.2-4.6
			c-0.8-2-1.5-4.1-2.7-5.8c-0.6-0.8-1.3-1.5-2-2.1c-0.7-0.6-1.3-1.4-2.2-1.9c0,1,0.7,1.5,1.4,2.2c0.7,0.7,1.1,1.6,1.6,2.4
			c0.5,0.9,0.5,1.9,0.7,2.9c0.2,1.1,0.5,2.2,0.7,3.2c0.2,0.4,1.4,3.2,1.7,4c0.3,0.8,1,3.5,0.7,3.6c-0.3,0.1-1,0.4-1.3,0.3
			s-0.7-1.3-1.1-2.3c-0.4-1-1.2-4.4-1.4-5.3c-0.2-0.9-0.5-1.8-0.8-2.7c-0.4-0.9-0.9-1.8-1.3-2.7c-0.4-0.9-0.7-1.8-1-2.8
			c-0.3-0.8-0.5-2-1.1-2.6c-0.4,0.8-0.2,1.6,0,2.5c0.2,1,0.7,1.9,1,2.9c0.1,0.5,0.1,0.9,0.3,1.3c0.2,0.5,0.4,1.1,0.5,1.6
			c0.3,1,0.5,2,0.8,3c0.2,0.3,0.7,2.4,1,3.2c0.3,0.8,1.6,4.5,1.2,4.6s-1.2,0-1.4-0.3c-0.3-0.3-0.5-1.1-0.5-1.5s-0.7-1.8-0.8-2.3
			c-0.2-0.5-0.9-2.2-1-3.1c-0.3-1-0.6-2.1-1-3c-0.4-1-1-2-1.4-3.1c-0.3-0.9-0.4-1.9-0.1-2.8c0.2-0.5,0.3-1,0.4-1.6
			c0.1-0.5,0.3-1,0.2-1.5c-0.6,0.8-1.1,1.8-1.2,2.8c-0.1,0.5-0.1,0.9-0.2,1.4c-0.1,0.5-0.3,0.9-0.3,1.5c0.1,0.5,0.2,1,0.3,1.5
			c0.1,0.6,0.3,1.2,0.5,1.8c0.4,1.2,0.6,2.5,1,3.7c0,0.2,0.5,1.7,0.4,1.6c0.1,1,0.3,1.3,0.5,2.2c-0.1,0.1,0.2,1.6,0,1.7
			c0.1,0.3-0.4-0.1-0.8-0.4c-0.4-0.1-0.6-0.8-0.8-0.9L57.9,30c-0.2-0.6-0.4-1.2-0.6-1.8c-0.4-1.4,0.2,0.6,0,0
			c-0.4-1.6-0.7-3.1-0.8-4.8c0-0.7,0-1.5,0.1-2.2c0.2-0.8,0.5-1.5,0.9-2.1c0.4-0.6,0.9-1.2,1.2-1.9c0.3-0.6,0.5-1.3,0.6-2
			c0.1-0.7,0.1-1.4,0.2-2.1c0.2-0.6,0.4-0.9,0.9-1.1c0.3,0.1,0.5,0.1,0.8,0.2c1,0.6,1.2,1.8,2,2.8c1.1,0.6,2.1,1.3,3.3,1.6
			c0.6,0.1,1.1,0.2,1.7,0.4c0.5,0.2,1,0.6,1.4,0.9c2,1.8,3.1,4.2,4,6.7C74.1,25.4,74.1,28.8,73.9,29.8z"/>
		<path id="XMLID_8957_" class="st1" d="M74.6,24.4c-0.7-1.8-1.4-3.7-2.5-5.3c-1-1.3-2.3-2.9-4-3.2c-0.9-0.2-1.6-0.4-2.4-0.8
			c-0.4-0.2-0.7-0.4-1-0.6c-0.3-0.3-0.5-0.8-0.7-1.2c-0.4-0.7-1.1-1.5-1.9-1.8c-0.7-0.3-1.6-0.2-2.3,0c-0.5,0.5-1,0.8-1.1,1.5
			c-0.2,0.8-0.1,1.6,0,2.4c-0.5,0.8-0.9,1.6-1.4,2.3c-0.5,0.7-0.8,1.3-1.1,2.1c-0.3,0.8-0.4,1.5-0.3,2.3c0.1,0.8,0.6,6.1,0.8,6.6
			c0.2,0.5,0.2,0.8,0.4,1.3c0.2,0.4,0.2,0.9,0.4,1.3c0.2,0.5,0.4,0.9,0.6,1.4c0.4,0.9,0.8,1.8,1.5,2.5c0.6,0.6,1.4,1.1,2.1,1.5
			c0.8,0.4,1.8,0.6,2.7,0.7c2,0.2,3.9-0.2,5.8-0.8c1-0.3,1.8-0.9,2.6-1.5c0.8-0.6,1.3-1.3,1.9-2c0.1-0.3,0.1-0.6,0.2-1
			c0.1-0.3,0.2-0.7,0.3-1c0-0.1,0.1-0.3,0.1-0.5c0-0.2-0.1-0.3,0-0.5c0.2-0.4,0.1-0.8,0.1-1.2c0-0.4,0-0.8-0.1-1.2
			c-0.1-0.4-0.3-0.8-0.3-1.3c0-0.4-0.1-0.7-0.2-1.1C74.7,24.8,74.7,24.8,74.6,24.4z M73.9,29.8c-0.3,1-0.3,1.5-0.5,1.5
			c-0.2,0-0.2-0.4-0.3-0.7c-0.1-0.3-0.6-2.1-0.8-2.9s-0.4-1.9-0.5-2.6c-0.3-1-0.7-1.8-1.1-2.8c-0.2-0.5-0.4-1.1-0.7-1.6
			c-0.3-0.5-0.7-1-1.1-1.5c-0.6-0.9-1.6-1.2-2.6-1.7c-1-0.5-1.9-1.1-3-1.4c0.3,0.6,0.9,0.9,1.5,1.3c0.8,0.5,1.5,1,2.2,1.5
			c0.5,1,1,2.1,1.2,3.2c0.1,0.3,0.2,1.4,0.3,1.7c0.2,0.6,1,1.9,1,2c0,0,1.4,3.9,2.1,5c0.7,1.1,0.4,2,0.1,2.2c-0.3,0.2-0.8,0.7-1,0.6
			c-0.2-0.1-0.5-1.7-0.9-3s-1-3.8-1.2-4.6c-0.8-2-1.5-4.1-2.7-5.8c-0.6-0.8-1.3-1.5-2-2.1c-0.7-0.6-1.3-1.4-2.2-1.9
			c0,1,0.7,1.5,1.4,2.2c0.7,0.7,1.1,1.6,1.6,2.4c0.5,0.9,0.5,1.9,0.7,2.9c0.2,1.1,0.5,2.2,0.7,3.2c0.2,0.4,1.4,3.2,1.7,4
			c0.3,0.8,1,3.5,0.7,3.6c-0.3,0.1-1,0.4-1.3,0.3s-0.7-1.3-1.1-2.3c-0.4-1-1.2-4.4-1.4-5.3c-0.2-0.9-0.5-1.8-0.8-2.7
			c-0.4-0.9-0.9-1.8-1.3-2.7c-0.4-0.9-0.7-1.8-1-2.8c-0.3-0.8-0.5-2-1.1-2.6c-0.4,0.8-0.2,1.6,0,2.5c0.2,1,0.7,1.9,1,2.9
			c0.1,0.5,0.1,0.9,0.3,1.3c0.2,0.5,0.4,1.1,0.5,1.6c0.3,1,0.5,2,0.8,3c0.2,0.3,0.7,2.4,1,3.2c0.3,0.8,1.6,4.5,1.2,4.6
			s-1.2,0-1.4-0.3c-0.3-0.3-0.5-1.1-0.5-1.5s-0.7-1.8-0.8-2.3c-0.2-0.5-0.9-2.2-1-3.1c-0.3-1-0.6-2.1-1-3c-0.4-1-1-2-1.4-3.1
			c-0.3-0.9-0.4-1.9-0.1-2.8c0.2-0.5,0.3-1,0.4-1.6c0.1-0.5,0.3-1,0.2-1.5c-0.6,0.8-1.1,1.8-1.2,2.8c-0.1,0.5-0.1,0.9-0.2,1.4
			c-0.1,0.5-0.3,0.9-0.3,1.5c0.1,0.5,0.2,1,0.3,1.5c0.1,0.6,0.3,1.2,0.5,1.8c0.4,1.2,0.6,2.5,1,3.7c0,0.2,0.5,1.7,0.4,1.6
			c0.1,1,0.3,1.3,0.5,2.2c-0.1,0.1,0.2,1.6,0,1.7c0.1,0.3-0.4-0.1-0.8-0.4c-0.4-0.1-0.6-0.8-0.8-0.9L57.9,30
			c-0.2-0.6-0.4-1.2-0.6-1.8c-0.4-1.4,0.2,0.6,0,0c-0.4-1.6-0.7-3.1-0.8-4.8c0-0.7,0-1.5,0.1-2.2c0.2-0.8,0.5-1.5,0.9-2.1
			c0.4-0.6,0.9-1.2,1.2-1.9c0.3-0.6,0.5-1.3,0.6-2c0.1-0.7,0.1-1.4,0.2-2.1c0.2-0.6,0.4-0.9,0.9-1.1c0.3,0.1,0.5,0.1,0.8,0.2
			c1,0.6,1.2,1.8,2,2.8c1.1,0.6,2.1,1.3,3.3,1.6c0.6,0.1,1.1,0.2,1.7,0.4c0.5,0.2,1,0.6,1.4,0.9c2,1.8,3.1,4.2,4,6.7
			C74.1,25.4,74.1,28.8,73.9,29.8z"/>
	</g>
	<g id="XMLID_25_">
		<path id="XMLID_33_" class="st0" d="M82.4,26.4l-0.1-0.9c0-0.3-0.1-0.6-0.1-0.9c-0.1-0.6-0.2-1.2-0.4-1.7
			c-0.3-1.1-0.7-2.2-1.2-3.1c-0.2-0.5-0.5-0.9-0.7-1.4c-0.2-0.4-0.5-0.8-0.8-1.2c-0.5-0.8-1.1-1.4-1.5-2c-0.3-0.4-0.6-0.7-0.9-1
			c0,0,0.1-0.1,0.1-0.1c0.7-1,0.6-2.4-0.4-3.1s-2.4-0.6-3.1,0.4c-0.7,1-0.6,2.4,0.4,3.1c0.8,0.6,1.9,0.6,2.7,0
			c0.3,0.3,0.5,0.6,0.8,1c0.4,0.6,1,1.2,1.4,2c0.2,0.4,0.5,0.8,0.7,1.2c0.2,0.4,0.5,0.9,0.6,1.4c0.4,0.9,0.8,1.9,1.1,3
			c0.1,0.5,0.3,1.1,0.3,1.7l0.1,0.8l0,0.9c0.1,1.2-0.1,2.3-0.2,3.5c-0.1,0.6-0.2,1.1-0.4,1.7c-0.2,0.5-0.3,1.1-0.6,1.6
			c-0.2,0.5-0.4,1-0.8,1.5l-0.4,0.7c-0.2,0.2-0.3,0.5-0.5,0.7c-0.7,0.9-1.4,1.7-2.2,2.3c-0.8,0.7-1.6,1.2-2.4,1.6
			c-0.8,0.4-1.5,0.8-2.2,1.1c-0.7,0.3-1.3,0.5-1.8,0.6c-0.5,0.1-0.9,0.2-1.2,0.3c-0.3,0.1-0.4,0.1-0.4,0.1l0,0.1c0,0,0.2,0,0.4-0.1
			c0.3,0,0.7-0.1,1.2-0.2c1.1-0.2,2.6-0.6,4.2-1.5c1.7-0.8,3.4-2.1,4.9-4c0.4-0.5,0.7-0.9,1-1.5c0.3-0.5,0.6-1,0.8-1.6
			c0.3-0.5,0.4-1.1,0.7-1.7c0.2-0.6,0.3-1.2,0.4-1.8C82.4,28.8,82.5,27.6,82.4,26.4z"/>
		<path id="XMLID_44_" class="st0" d="M76.2,10.7C76.2,10.7,76.2,10.7,76.2,10.7L76.2,10.7z"/>
		<path id="XMLID_45_" class="st0" d="M76.5,10.9c-0.1-0.1-0.2-0.1-0.2-0.2C76.3,10.8,76.4,10.8,76.5,10.9z"/>
		<path id="XMLID_46_" class="st0" d="M76.7,11.1C76.7,11.1,76.8,11.1,76.7,11.1L76.7,11.1z"/>
		<path id="XMLID_47_" class="st0" d="M76.5,10.9c0.1,0.1,0.2,0.1,0.2,0.2C76.6,11,76.6,11,76.5,10.9z"/>
		<path id="XMLID_48_" class="st0" d="M66.2,44.6C66.2,44.6,66.3,44.6,66.2,44.6C66.3,44.6,66.2,44.6,66.2,44.6z"/>
		<path id="XMLID_49_" class="st0" d="M66.6,44.5C66.6,44.5,66.5,44.5,66.6,44.5C66.5,44.5,66.6,44.5,66.6,44.5z"/>
		<path id="XMLID_50_" class="st0" d="M66.2,40.1c-1,0-1.8,0.8-2.1,1.7c-0.3-0.1-0.5-0.1-0.8-0.2c-0.6-0.1-1.3-0.3-2.1-0.6
			c-1.5-0.5-3.2-1.2-4.8-2.2c-0.4-0.3-0.8-0.5-1.2-0.8c-0.4-0.3-0.8-0.6-1.2-0.9c-0.4-0.3-0.8-0.7-1.2-1l-1.1-1.1
			c-0.7-0.7-1.4-1.5-2-2.3c-0.3-0.4-0.6-0.8-0.8-1.3c-0.3-0.4-0.5-0.8-0.7-1.3c-0.9-1.7-1.6-3.4-1.9-4.9c-0.2-0.8-0.3-1.5-0.4-2.1
			c-0.1-0.6-0.1-1.2-0.1-1.7c0-0.9,0-1.5,0-1.5c1.2,0.3,2.3-0.5,2.6-1.6c0.2-1-0.2-1.9-1-2.4c0.1-0.2,0.2-0.4,0.3-0.6
			c0.3-0.5,0.7-1.1,1.2-1.6c0.2-0.3,0.5-0.6,0.8-0.9c0.3-0.3,0.6-0.5,0.9-0.8c0.3-0.3,0.7-0.5,1-0.8c0.3-0.3,0.7-0.5,1.1-0.7
			c0.4-0.2,0.8-0.5,1.2-0.7c0.4-0.2,0.8-0.4,1.3-0.6C56.1,9,57.1,8.8,58,8.5l1.4-0.2c0.5,0,1-0.1,1.5-0.1c1,0,1.9,0,2.8,0.1
			c0.9,0.1,1.8,0.2,2.6,0.4c0.8,0.2,1.6,0.4,2.3,0.7c0.4,0.1,0.7,0.2,1,0.3c0.3,0.1,0.6,0.3,0.9,0.4c0.6,0.2,1.1,0.4,1.5,0.7
			c0.8,0.4,1.3,0.6,1.3,0.6l0-0.1c0,0-0.4-0.3-1.2-0.7c-0.4-0.3-0.9-0.5-1.4-0.8c-0.3-0.1-0.6-0.3-0.9-0.4c-0.3-0.1-0.7-0.3-1-0.4
			c-0.7-0.3-1.5-0.5-2.3-0.8c-0.9-0.2-1.8-0.4-2.7-0.5c-0.9-0.1-1.9-0.2-2.9-0.2c-0.5,0-1,0.1-1.5,0.1l-1.5,0.2
			c-1,0.2-2,0.5-2.9,0.9C54.5,8.7,54,9,53.6,9.2c-0.5,0.2-0.9,0.5-1.3,0.7c-0.4,0.3-0.8,0.5-1.2,0.8c-0.4,0.3-0.7,0.6-1,0.9
			c-0.3,0.3-0.6,0.6-0.9,0.9c-0.3,0.3-0.5,0.6-0.7,0.9c-0.5,0.6-0.8,1.2-1.2,1.7c-0.1,0.2-0.2,0.4-0.3,0.6c-0.1,0-0.1-0.1-0.2-0.1
			c-1.2-0.3-2.4,0.4-2.7,1.6c0,0,0-0.1,0-0.1c0,0,0,0.1,0,0.1c0,0.1,0,0.2-0.1,0.3c0-0.1,0-0.2,0.1-0.3c-0.3,1.2,0.4,2.4,1.6,2.7
			l0,0c0,0,0,0.1,0,0.4c0,0.2-0.1,0.6-0.1,1.1c0,0.5-0.1,1,0,1.7c0,0.7,0.1,1.4,0.2,2.2c0.3,1.6,0.8,3.4,1.7,5.2
			c0.2,0.5,0.5,0.9,0.7,1.3c0.3,0.5,0.6,0.9,0.9,1.3c0.6,0.9,1.3,1.7,2,2.5c0.4,0.4,0.8,0.8,1.2,1.1c0.4,0.3,0.8,0.7,1.2,1
			c0.8,0.6,1.7,1.2,2.6,1.7c1.7,1,3.5,1.7,5.1,2.1c1.1,0.3,2.2,0.5,3,0.6c0,0.1,0,0.1,0,0.2c0,1.2,1.1,2.2,2.3,2.1
			c1.2,0,2.2-1.1,2.1-2.3C68.5,41,67.4,40.1,66.2,40.1z"/>
		<path id="XMLID_51_" class="st0" d="M66.6,44.5C66.8,44.5,66.8,44.5,66.6,44.5L66.6,44.5z"/>
		<path id="XMLID_281_" class="st0" d="M66.2,44.6C66,44.6,66,44.6,66.2,44.6L66.2,44.6z"/>
		<path id="XMLID_283_" class="st0" d="M44.2,17.1C44.2,17.1,44.2,17.1,44.2,17.1C44.2,17.1,44.2,17.1,44.2,17.1z"/>
		<path id="XMLID_284_" class="st0" d="M44.2,17.1C44.2,17,44.2,17,44.2,17.1L44.2,17.1z"/>
		<path id="XMLID_285_" class="st0" d="M44.1,17.2c0-0.1,0-0.1,0-0.1C44.2,17.1,44.2,17.2,44.1,17.2z"/>
		<path id="XMLID_286_" class="st0" d="M44,17.7C44,17.7,44,17.7,44,17.7L44,17.7z"/>
		<path id="XMLID_287_" class="st0" d="M44,17.6C44,17.6,44,17.7,44,17.6C44,17.7,44,17.7,44,17.6z"/>
	</g>
</g>
</svg>
