<?xml version="1.0" encoding="utf-8"?>
<!-- Generator: Adobe Illustrator 19.0.0, SVG Export Plug-In . SVG Version: 6.00 Build 0)  -->
<svg version="1.1"
	 id="Camada_1" xmlns:dc="http://purl.org/dc/elements/1.1/" xmlns:svg="http://www.w3.org/2000/svg" xmlns:sodipodi="http://sodipodi.sourceforge.net/DTD/sodipodi-0.dtd" xmlns:inkscape="http://www.inkscape.org/namespaces/inkscape" xmlns:cc="http://creativecommons.org/ns#" xmlns:rdf="http://www.w3.org/1999/02/22-rdf-syntax-ns#" inkscape:version="0.91 r13725" sodipodi:docname="sementeca.svg"
	 xmlns="http://www.w3.org/2000/svg" xmlns:xlink="http://www.w3.org/1999/xlink" x="0px" y="0px" viewBox="15 -21.9 128.6 72.9"
	 style="enable-background:new 15 -21.9 128.6 72.9;" xml:space="preserve">
<style type="text/css">
	.st0{fill:none;}
	.st1{fill:#FFFFFF;}
	.st2{fill:#ADC77F;}
</style>
<sodipodi:namedview  id="namedview16341" inkscape:cx="-22.946276" pagecolor="#ffffff" borderopacity="1" bordercolor="#666666" guidetolerance="10" objecttolerance="10" inkscape:cy="16.277451" gridtolerance="10" showgrid="false" inkscape:zoom="1.9828926" inkscape:current-layer="Camada_1" inkscape:window-width="1357" inkscape:window-y="0" inkscape:pageopacity="0" inkscape:window-maximized="0" inkscape:window-height="656" inkscape:pageshadow="2" inkscape:window-x="0">
	</sodipodi:namedview>
<g>
	<polygon class="st0" points="72,7.1 66.1,11.8 66.1,11.8 	"/>
	<polygon class="st0" points="92.7,12.9 92.6,11.9 79.4,1 79.4,1 92.6,11.9 	"/>
	<path class="st1" d="M77.1,11.3c0.1,0.1,0.2,0.1,0.3,0.2c0.1,0,0.2-0.1,0.3-0.2c-0.1-0.1-0.2-0.2-0.3-0.3c-0.1-0.4-0.2-0.8-0.3-1.1
		c-0.1-0.3-0.1-0.7-0.2-1c-0.1-0.3-0.2-0.7-0.3-1c0-0.2,0-0.7-0.2-0.9c0,0.1-0.3,0.3-0.3,0.3C75.9,7.6,76,7.9,76,8.1
		c0,0.3,0.1,0.7,0.2,1c0-0.1,0-0.1,0-0.1s0,0,0,0.1c0.1,0.4,0.2,0.7,0.4,1C77,10.4,77,10.9,77.1,11.3z"/>
	<path class="st1" d="M86.9,17c0.1-0.1,0.2-0.2,0.2-0.3c-0.1-0.1-0.2-0.4-0.4-0.5h-0.1c0,0.1,0,0.2,0,0.3s0.1,0.3,0.1,0.4
		C86.8,17,86.8,17,86.9,17z"/>
	<polygon class="st1" points="93.7,28.9 93.6,29.8 93.7,29.8 	"/>
	<path class="st1" d="M66.5,28.1l26.6,1.3l-0.4-16.5l-0.1-1L79.4,1L72,7.1l-5.8,4.8L66.5,28.1z M73,18c0.1-0.4,0.2-0.8,0.3-1.2
		c0.1-0.3,0.2-0.8,0.3-1.1c0.2-0.8,0.6-1.5,1.1-2c0.4-0.5,1.1-1,1.6-1.4c0.2-0.3,0-0.7-0.1-1c-0.1-0.3-0.3-0.7-0.4-1
		c-0.2-0.7-0.4-1.3-0.4-2c0.1-0.3,0.1-0.8,0.2-1.1s0.1-0.6,0.3-0.8c0.3-0.2,0.6-0.3,0.8-0.4c0.4-0.1,0.6-0.1,0.9-0.1
		c0,0.1,0.1,0.2,0.1,0.3c0,0.8,0.1,1.4,0.3,2.2c0.1,0.3,0.3,0.8,0.3,1.1c0.1,0.3,0.1,0.7,0.1,1c0.1,0.2,0.1,0.3,0.2,0.5
		c0.4,0,0.9-0.2,1.3-0.2c0.5,0,1,0,1.5,0.1c0.9,0.2,1.9,0.7,2.8,1.1c0.2,0.5,0.7,0.6,1,0.8c0.3,0.2,0.7,0.6,1,0.9
		c0.2,0.2,0.3,0.3,0.4,0.5c0.1,0.1,0.2,0.3,0.3,0.5c0.2,0.3,0.6,0.8,0.5,1.1c0.3,0.2,0.4,0.7,0.4,1.1c0.1,0.5-0.1,0.9-0.3,1.3
		c0,0.2,0.1,0.8,0.1,1c0.1,0.5,0.4,1.6-0.4,4.6c-0.7,3.5-2.8,3.7-5.2,3.7s-5.5-2.4-6.2-3.4c-0.6-0.9-1.2-1.6-1.4-1.6
		c-0.2,0.1-0.7-0.1-1-0.9c-0.2-0.4-0.3-0.9-0.4-1.3C72.9,19.5,72.9,18.8,73,18z"/>
	<path class="st1" d="M74.3,21.4L74.3,21.4c0.2-0.6,0.4-1.2,0.6-1.7c0.1-0.4,0.2-0.6,0.4-0.8c0.1-0.1,0.3-0.2,0.5-0.4
		c0.4-0.4,0.8-0.9,1.2-1.2c0.3-0.2,0.6-0.3,0.8-0.5c0.3-0.1,0.5-0.3,0.7-0.4c0.5-0.4,1.1-0.5,1.6-0.7c0.7-0.2,1.2-0.4,1.9-0.4
		c0.3,0,0.7,0,1,0.1c0.4,0,0.6,0.1,0.9,0.1c0.5,0,1.1,0.2,1.6,0.5c0.2-0.2,0.1-0.4-0.2-0.5c0.1,0,0.2,0,0.3-0.1
		c-0.2-0.4-0.6-0.9-0.9-1.2c-0.3-0.2-0.5-0.4-0.7-0.5c-0.2-0.2-0.3-0.3-0.5-0.5c-0.3-0.3-0.8-0.8-1.2-1.1c-0.3-0.3-0.9-0.4-1.3-0.4
		c0,0.1,0,0.2,0,0.3c-0.1,0-0.1,0-0.2,0.1c-0.2-0.1-0.3-0.3-0.5-0.4c-1.3-0.2-2.4,0.3-2.8,0.8l0,0c0.4,0.1,0.9,0.2,1.3,0.4
		c0.1,0.2,0.1,0.3,0.2,0.4c-0.1,0.1-0.2,0.1-0.3,0.2c-0.4-0.3-0.8-0.6-1.2-1l0,0l0,0l-0.1-0.1c-0.4,0.3-0.9,0.4-1.1,0.8
		c0.1,0.1,0.3,0.1,0.4,0.2c0.1,0.2,0.2,0.3,0.3,0.4c0,0.1,0,0.2,0,0.3c-0.1,0-0.1,0-0.2,0c-0.4-0.4-0.4-0.7-0.7-0.9
		c-0.3,0.3-0.5,0.5-0.7,0.8c0.3,0.1,0.5,0.3,0.7,0.5c0,0.1-0.1,0.2-0.2,0.3c-0.2,0-0.3-0.1-0.4-0.1c-0.1-0.1-0.2-0.2-0.3-0.3
		c-0.3,0.4-0.8,1.7-0.8,2.1c0.4,0.3,0.7,0.5,0.8,0.8c0.2,0.4,0,0.9-0.2,1.2c-0.2,0-0.3-0.3-0.4-0.5c0-0.4,0-0.6-0.1-0.9
		c-0.3,0.5-0.4,1.2-0.4,1.7V19c0,0,0,0,0-0.1c-0.1,0.8,0,1.5,0.1,2.3C74.2,21.2,74.2,21.3,74.3,21.4z"/>
	<path class="st0" d="M76.2,9.1c0-0.1,0-0.1,0-0.1"/>
	<path class="st0" d="M74.1,18.8L74.1,18.8"/>
	<path class="st2" d="M73.4,21.6c0.3,0.8,0.8,1,1,0.9c0.2,0,0.8,0.7,1.4,1.6c0.7,1,3.8,3.4,6.2,3.4s4.5-0.2,5.2-3.7
		c0.8-3,0.5-4.1,0.4-4.6c0-0.2-0.1-0.8-0.1-1c0.2-0.4,0.4-0.8,0.3-1.3c0-0.4-0.1-0.9-0.4-1.1c0.1-0.3-0.3-0.8-0.5-1.1
		c-0.1-0.2-0.2-0.4-0.3-0.5c-0.1-0.2-0.2-0.3-0.4-0.5c-0.3-0.3-0.7-0.7-1-0.9c-0.3-0.2-0.8-0.3-1-0.8c-0.9-0.4-1.9-0.9-2.8-1.1
		c-0.5-0.1-1-0.1-1.5-0.1c-0.4,0-0.9,0.2-1.3,0.2c-0.1-0.2-0.1-0.3-0.2-0.5c0-0.3,0-0.7-0.1-1c0-0.3-0.2-0.8-0.3-1.1
		c-0.2-0.8-0.3-1.4-0.3-2.2c0-0.1-0.1-0.2-0.1-0.3c-0.3,0-0.5,0-0.9,0.1c-0.2,0.1-0.5,0.2-0.8,0.4c-0.2,0.2-0.2,0.5-0.3,0.8
		c-0.1,0.3-0.1,0.8-0.2,1.1c0,0.7,0.2,1.3,0.4,2c0.1,0.3,0.3,0.7,0.4,1c0.1,0.3,0.3,0.7,0.1,1c-0.5,0.4-1.2,0.9-1.6,1.4
		c-0.5,0.5-0.9,1.2-1.1,2c-0.1,0.3-0.2,0.8-0.3,1.1c-0.1,0.4-0.2,0.8-0.3,1.2c-0.1,0.8-0.1,1.5,0,2.3C73.1,20.8,73.2,21.2,73.4,21.6
		z M86.6,16.2L86.6,16.2c0.3,0.1,0.4,0.4,0.5,0.5c0,0.1-0.1,0.2-0.2,0.3c-0.1,0-0.1,0-0.2-0.1c0-0.1-0.1-0.3-0.1-0.4
		C86.6,16.4,86.6,16.3,86.6,16.2z M76.2,9.1c-0.1-0.3-0.2-0.7-0.2-1c0-0.2-0.1-0.5,0.1-0.8c0,0,0.3-0.2,0.3-0.3
		c0.2,0.2,0.2,0.7,0.2,0.9c0.1,0.3,0.2,0.7,0.3,1c0.1,0.3,0.1,0.7,0.2,1c0.1,0.3,0.2,0.7,0.3,1.1c0.1,0.1,0.2,0.2,0.3,0.3
		c-0.1,0.1-0.2,0.2-0.3,0.2c-0.1-0.1-0.2-0.1-0.3-0.2c-0.1-0.4-0.1-0.9-0.5-1.2C76.4,9.8,76.3,9.5,76.2,9.1z M74.1,18.8
		c0-0.5,0.1-1.2,0.4-1.7c0.1,0.3,0.1,0.5,0.1,0.9c0.1,0.2,0.2,0.5,0.4,0.5c0.2-0.3,0.4-0.8,0.2-1.2c-0.1-0.3-0.4-0.5-0.8-0.8
		c0-0.4,0.5-1.7,0.8-2.1c0.1,0.1,0.2,0.2,0.3,0.3c0.1,0,0.2,0.1,0.4,0.1c0.1-0.1,0.2-0.2,0.2-0.3c-0.2-0.2-0.4-0.4-0.7-0.5
		c0.2-0.3,0.4-0.5,0.7-0.8c0.3,0.2,0.3,0.5,0.7,0.9c0.1,0,0.1,0,0.2,0c0-0.1,0-0.2,0-0.3c-0.1-0.1-0.2-0.2-0.3-0.4
		c-0.1-0.1-0.3-0.1-0.4-0.2c0.2-0.4,0.7-0.5,1.1-0.8l0.1,0.1c0.4-0.5,1.5-1,2.8-0.8c0.2,0.1,0.3,0.3,0.5,0.4C80.9,12,80.9,12,81,12
		c0-0.1,0-0.2,0-0.3c0.4,0,1,0.1,1.3,0.4c0.4,0.3,0.9,0.8,1.2,1.1c0.2,0.2,0.3,0.3,0.5,0.5c0.2,0.1,0.4,0.3,0.7,0.5
		c0.3,0.3,0.7,0.8,0.9,1.2c-0.1,0.1-0.2,0.1-0.3,0.1c0.3,0.1,0.4,0.3,0.2,0.5c-0.5-0.3-1.1-0.5-1.6-0.5c-0.3,0-0.5-0.1-0.9-0.1
		c-0.3-0.1-0.7-0.1-1-0.1c-0.7,0-1.2,0.2-1.9,0.4c-0.5,0.2-1.1,0.3-1.6,0.7c-0.2,0.1-0.4,0.3-0.7,0.4c-0.2,0.2-0.5,0.3-0.8,0.5
		c-0.4,0.3-0.8,0.8-1.2,1.2c-0.2,0.2-0.4,0.3-0.5,0.4c-0.2,0.2-0.3,0.4-0.4,0.8c-0.2,0.5-0.4,1.1-0.5,1.7h-0.1
		c-0.1-0.1-0.1-0.2-0.1-0.3C74.1,20.3,74,19.6,74.1,18.8z"/>
	<path class="st2" d="M79,13.3c-0.1-0.1-0.1-0.2-0.2-0.4c-0.4-0.2-0.9-0.3-1.3-0.4c0.4,0.4,0.8,0.7,1.2,1
		C78.8,13.4,78.9,13.4,79,13.3z"/>
	<path class="st2" d="M77.5,12.5L77.5,12.5L77.5,12.5z"/>
	<path class="st2" d="M93.8,11.3c0-0.1-0.1-0.3-0.1-0.4L79.9-0.8C79.8-1,79.7-1,79.5-1c-0.1,0-0.3,0.1-0.3,0.1L64.9,11.6
		c-0.1,0.1-0.1,0.2-0.1,0.4v17l28.8,1v-0.2v-0.9L93.8,11.3z M72,7.1L79.5,1l0,0l13.1,10.9v1l0.5,16.5l-26.6-1.3l-0.4-16.3l0,0
		L72,7.1z"/>
</g>
</svg>
