<?xml version="1.0" encoding="utf-8"?>
<!-- Generator: Adobe Illustrator 19.0.0, SVG Export Plug-In . SVG Version: 6.00 Build 0)  -->
<svg version="1.1"
	 id="Camada_1" xmlns:dc="http://purl.org/dc/elements/1.1/" xmlns:sodipodi="http://sodipodi.sourceforge.net/DTD/sodipodi-0.dtd" xmlns:inkscape="http://www.inkscape.org/namespaces/inkscape" xmlns:cc="http://creativecommons.org/ns#" xmlns:rdf="http://www.w3.org/1999/02/22-rdf-syntax-ns#" xmlns:svg="http://www.w3.org/2000/svg" inkscape:version="0.91 r13725" sodipodi:docname="sementeca.svg"
	 xmlns="http://www.w3.org/2000/svg" xmlns:xlink="http://www.w3.org/1999/xlink" x="0px" y="0px" viewBox="-201 364.1 128.6 72.9"
	 style="enable-background:new -201 364.1 128.6 72.9;" xml:space="preserve">
<style type="text/css">
	.st0{fill:none;}
	.st1{fill:#FFFFFF;}
	.st2{fill:#ADC77F;}
</style>
<sodipodi:namedview  pagecolor="#ffffff" showgrid="false" objecttolerance="10" borderopacity="1" inkscape:cx="-22.946276" bordercolor="#666666" inkscape:cy="16.277451" gridtolerance="10" inkscape:zoom="1.9828926" guidetolerance="10" id="namedview16341" inkscape:pageshadow="2" inkscape:pageopacity="0" inkscape:window-height="656" inkscape:window-maximized="0" inkscape:window-width="1357" inkscape:window-y="0" inkscape:current-layer="Camada_1" inkscape:window-x="0">
	</sodipodi:namedview>
<g id="XMLID_1_">
	<polygon id="XMLID_14_" class="st0" points="-144.3,381.8 -150.2,386.5 -150.2,386.5 	"/>
	<polygon id="XMLID_13_" class="st0" points="-123.6,387.6 -123.7,386.6 -136.9,375.7 -136.9,375.7 -123.7,386.6 	"/>
	<path id="XMLID_12_" class="st1" d="M-139.2,386c0.1,0.1,0.2,0.1,0.3,0.2c0.1,0,0.2-0.1,0.3-0.2c-0.1-0.1-0.2-0.2-0.3-0.3
		c-0.1-0.4-0.2-0.8-0.3-1.1c-0.1-0.3-0.1-0.7-0.2-1c-0.1-0.3-0.2-0.7-0.3-1c0-0.2,0-0.7-0.2-0.9c0,0.1-0.3,0.3-0.3,0.3
		c-0.2,0.3-0.1,0.6-0.1,0.8c0,0.3,0.1,0.7,0.2,1c0-0.1,0-0.1,0-0.1s0,0,0,0.1c0.1,0.4,0.2,0.7,0.4,1
		C-139.3,385.1-139.3,385.6-139.2,386z"/>
	<path id="XMLID_11_" class="st1" d="M-129.4,391.7c0.1-0.1,0.2-0.2,0.2-0.3c-0.1-0.1-0.2-0.4-0.4-0.5h-0.1c0,0.1,0,0.2,0,0.3
		c0,0.1,0.1,0.3,0.1,0.4C-129.5,391.7-129.5,391.7-129.4,391.7z"/>
	<polygon id="XMLID_10_" class="st1" points="-122.6,403.6 -122.7,404.5 -122.6,404.5 	"/>
	<path id="XMLID_9_" class="st1" d="M-149.8,402.8l26.6,1.3l-0.4-16.5l-0.1-1l-13.2-10.9l-7.4,6.1l-5.8,4.8L-149.8,402.8z
		 M-143.3,392.7c0.1-0.4,0.2-0.8,0.3-1.2c0.1-0.3,0.2-0.8,0.3-1.1c0.2-0.8,0.6-1.5,1.1-2c0.4-0.5,1.1-1,1.6-1.4c0.2-0.3,0-0.7-0.1-1
		c-0.1-0.3-0.3-0.7-0.4-1c-0.2-0.7-0.4-1.3-0.4-2c0.1-0.3,0.1-0.8,0.2-1.1c0.1-0.3,0.1-0.6,0.3-0.8c0.3-0.2,0.6-0.3,0.8-0.4
		c0.4-0.1,0.6-0.1,0.9-0.1c0,0.1,0.1,0.2,0.1,0.3c0,0.8,0.1,1.4,0.3,2.2c0.1,0.3,0.3,0.8,0.3,1.1c0.1,0.3,0.1,0.7,0.1,1
		c0.1,0.2,0.1,0.3,0.2,0.5c0.4,0,0.9-0.2,1.3-0.2c0.5,0,1,0,1.5,0.1c0.9,0.2,1.9,0.7,2.8,1.1c0.2,0.5,0.7,0.6,1,0.8s0.7,0.6,1,0.9
		c0.2,0.2,0.3,0.3,0.4,0.5c0.1,0.1,0.2,0.3,0.3,0.5c0.2,0.3,0.6,0.8,0.5,1.1c0.3,0.2,0.4,0.7,0.4,1.1c0.1,0.5-0.1,0.9-0.3,1.3
		c0,0.2,0.1,0.8,0.1,1c0.1,0.5,0.4,1.6-0.4,4.6c-0.7,3.5-2.8,3.7-5.2,3.7s-5.5-2.4-6.2-3.4c-0.6-0.9-1.2-1.6-1.4-1.6
		c-0.2,0.1-0.7-0.1-1-0.9c-0.2-0.4-0.3-0.9-0.4-1.3C-143.4,394.2-143.4,393.5-143.3,392.7z"/>
	<path id="XMLID_8_" class="st1" d="M-142,396.1L-142,396.1c0.2-0.6,0.4-1.2,0.6-1.7c0.1-0.4,0.2-0.6,0.4-0.8
		c0.1-0.1,0.3-0.2,0.5-0.4c0.4-0.4,0.8-0.9,1.2-1.2c0.3-0.2,0.6-0.3,0.8-0.5c0.3-0.1,0.5-0.3,0.7-0.4c0.5-0.4,1.1-0.5,1.6-0.7
		c0.7-0.2,1.2-0.4,1.9-0.4c0.3,0,0.7,0,1,0.1c0.4,0,0.6,0.1,0.9,0.1c0.5,0,1.1,0.2,1.6,0.5c0.2-0.2,0.1-0.4-0.2-0.5
		c0.1,0,0.2,0,0.3-0.1c-0.2-0.4-0.6-0.9-0.9-1.2c-0.3-0.2-0.5-0.4-0.7-0.5c-0.2-0.2-0.3-0.3-0.5-0.5c-0.3-0.3-0.8-0.8-1.2-1.1
		c-0.3-0.3-0.9-0.4-1.3-0.4c0,0.1,0,0.2,0,0.3c-0.1,0-0.1,0-0.2,0.1c-0.2-0.1-0.3-0.3-0.5-0.4c-1.3-0.2-2.4,0.3-2.8,0.8l0,0
		c0.4,0.1,0.9,0.2,1.3,0.4c0.1,0.2,0.1,0.3,0.2,0.4c-0.1,0.1-0.2,0.1-0.3,0.2c-0.4-0.3-0.8-0.6-1.2-1l0,0l0,0l-0.1-0.1
		c-0.4,0.3-0.9,0.4-1.1,0.8c0.1,0.1,0.3,0.1,0.4,0.2c0.1,0.2,0.2,0.3,0.3,0.4c0,0.1,0,0.2,0,0.3c-0.1,0-0.1,0-0.2,0
		c-0.4-0.4-0.4-0.7-0.7-0.9c-0.3,0.3-0.5,0.5-0.7,0.8c0.3,0.1,0.5,0.3,0.7,0.5c0,0.1-0.1,0.2-0.2,0.3c-0.2,0-0.3-0.1-0.4-0.1
		c-0.1-0.1-0.2-0.2-0.3-0.3c-0.3,0.4-0.8,1.7-0.8,2.1c0.4,0.3,0.7,0.5,0.8,0.8c0.2,0.4,0,0.9-0.2,1.2c-0.2,0-0.3-0.3-0.4-0.5
		c0-0.4,0-0.6-0.1-0.9c-0.3,0.5-0.4,1.2-0.4,1.7v0.2c0,0,0,0,0-0.1c-0.1,0.8,0,1.5,0.1,2.3C-142.1,395.9-142.1,396-142,396.1z"/>
	<path id="XMLID_7_" class="st0" d="M-140.1,383.8C-140.1,383.7-140.1,383.7-140.1,383.8"/>
	<path id="XMLID_6_" class="st0" d="M-142.2,393.5L-142.2,393.5"/>
	<path id="XMLID_5_" class="st2" d="M-142.9,396.3c0.3,0.8,0.8,1,1,0.9c0.2,0,0.8,0.7,1.4,1.6c0.7,1,3.8,3.4,6.2,3.4
		s4.5-0.2,5.2-3.7c0.8-3,0.5-4.1,0.4-4.6c0-0.2-0.1-0.8-0.1-1c0.2-0.4,0.4-0.8,0.3-1.3c0-0.4-0.1-0.9-0.4-1.1
		c0.1-0.3-0.3-0.8-0.5-1.1c-0.1-0.2-0.2-0.4-0.3-0.5c-0.1-0.2-0.2-0.3-0.4-0.5c-0.3-0.3-0.7-0.7-1-0.9s-0.8-0.3-1-0.8
		c-0.9-0.4-1.9-0.9-2.8-1.1c-0.5-0.1-1-0.1-1.5-0.1c-0.4,0-0.9,0.2-1.3,0.2c-0.1-0.2-0.1-0.3-0.2-0.5c0-0.3,0-0.7-0.1-1
		c0-0.3-0.2-0.8-0.3-1.1c-0.2-0.8-0.3-1.4-0.3-2.2c0-0.1-0.1-0.2-0.1-0.3c-0.3,0-0.5,0-0.9,0.1c-0.2,0.1-0.5,0.2-0.8,0.4
		c-0.2,0.2-0.2,0.5-0.3,0.8c-0.1,0.3-0.1,0.8-0.2,1.1c0,0.7,0.2,1.3,0.4,2c0.1,0.3,0.3,0.7,0.4,1c0.1,0.3,0.3,0.7,0.1,1
		c-0.5,0.4-1.2,0.9-1.6,1.4c-0.5,0.5-0.9,1.2-1.1,2c-0.1,0.3-0.2,0.8-0.3,1.1c-0.1,0.4-0.2,0.8-0.3,1.2c-0.1,0.8-0.1,1.5,0,2.3
		C-143.2,395.5-143.1,395.9-142.9,396.3z M-129.7,390.9L-129.7,390.9c0.3,0.1,0.4,0.4,0.5,0.5c0,0.1-0.1,0.2-0.2,0.3
		c-0.1,0-0.1,0-0.2-0.1c0-0.1-0.1-0.3-0.1-0.4C-129.7,391.1-129.7,391-129.7,390.9z M-140.1,383.8c-0.1-0.3-0.2-0.7-0.2-1
		c0-0.2-0.1-0.5,0.1-0.8c0,0,0.3-0.2,0.3-0.3c0.2,0.2,0.2,0.7,0.2,0.9c0.1,0.3,0.2,0.7,0.3,1c0.1,0.3,0.1,0.7,0.2,1
		c0.1,0.3,0.2,0.7,0.3,1.1c0.1,0.1,0.2,0.2,0.3,0.3c-0.1,0.1-0.2,0.2-0.3,0.2c-0.1-0.1-0.2-0.1-0.3-0.2c-0.1-0.4-0.1-0.9-0.5-1.2
		C-139.9,384.5-140,384.2-140.1,383.8z M-142.2,393.5c0-0.5,0.1-1.2,0.4-1.7c0.1,0.3,0.1,0.5,0.1,0.9c0.1,0.2,0.2,0.5,0.4,0.5
		c0.2-0.3,0.4-0.8,0.2-1.2c-0.1-0.3-0.4-0.5-0.8-0.8c0-0.4,0.5-1.7,0.8-2.1c0.1,0.1,0.2,0.2,0.3,0.3c0.1,0,0.2,0.1,0.4,0.1
		c0.1-0.1,0.2-0.2,0.2-0.3c-0.2-0.2-0.4-0.4-0.7-0.5c0.2-0.3,0.4-0.5,0.7-0.8c0.3,0.2,0.3,0.5,0.7,0.9c0.1,0,0.1,0,0.2,0
		c0-0.1,0-0.2,0-0.3c-0.1-0.1-0.2-0.2-0.3-0.4c-0.1-0.1-0.3-0.1-0.4-0.2c0.2-0.4,0.7-0.5,1.1-0.8l0.1,0.1c0.4-0.5,1.5-1,2.8-0.8
		c0.2,0.1,0.3,0.3,0.5,0.4c0.1-0.1,0.1-0.1,0.2-0.1c0-0.1,0-0.2,0-0.3c0.4,0,1,0.1,1.3,0.4c0.4,0.3,0.9,0.8,1.2,1.1
		c0.2,0.2,0.3,0.3,0.5,0.5c0.2,0.1,0.4,0.3,0.7,0.5c0.3,0.3,0.7,0.8,0.9,1.2c-0.1,0.1-0.2,0.1-0.3,0.1c0.3,0.1,0.4,0.3,0.2,0.5
		c-0.5-0.3-1.1-0.5-1.6-0.5c-0.3,0-0.5-0.1-0.9-0.1c-0.3-0.1-0.7-0.1-1-0.1c-0.7,0-1.2,0.2-1.9,0.4c-0.5,0.2-1.1,0.3-1.6,0.7
		c-0.2,0.1-0.4,0.3-0.7,0.4c-0.2,0.2-0.5,0.3-0.8,0.5c-0.4,0.3-0.8,0.8-1.2,1.2c-0.2,0.2-0.4,0.3-0.5,0.4c-0.2,0.2-0.3,0.4-0.4,0.8
		c-0.2,0.5-0.4,1.1-0.5,1.7h-0.1c-0.1-0.1-0.1-0.2-0.1-0.3C-142.2,395-142.3,394.3-142.2,393.5z"/>
	<path id="XMLID_4_" class="st2" d="M-137.3,388c-0.1-0.1-0.1-0.2-0.2-0.4c-0.4-0.2-0.9-0.3-1.3-0.4c0.4,0.4,0.8,0.7,1.2,1
		C-137.5,388.1-137.4,388.1-137.3,388z"/>
	<path id="XMLID_3_" class="st2" d="M-138.8,387.2L-138.8,387.2L-138.8,387.2z"/>
	<path id="XMLID_2_" class="st2" d="M-122.5,386c0-0.1-0.1-0.3-0.1-0.4l-13.8-11.7c-0.1-0.2-0.2-0.2-0.4-0.2c-0.1,0-0.3,0.1-0.3,0.1
		l-14.3,12.5c-0.1,0.1-0.1,0.2-0.1,0.4v17l28.8,1v-0.2v-0.9L-122.5,386z M-144.3,381.8l7.5-6.1l0,0l13.1,10.9v1l0.5,16.5l-26.6-1.3
		l-0.4-16.3l0,0L-144.3,381.8z"/>
</g>
</svg>
