<?xml version="1.0" encoding="utf-8"?>
<!-- Generator: Adobe Illustrator 19.0.0, SVG Export Plug-In . SVG Version: 6.00 Build 0)  -->
<svg version="1.1"
	 id="Camada_1" xmlns:dc="http://purl.org/dc/elements/1.1/" xmlns:svg="http://www.w3.org/2000/svg" xmlns:sodipodi="http://sodipodi.sourceforge.net/DTD/sodipodi-0.dtd" xmlns:inkscape="http://www.inkscape.org/namespaces/inkscape" xmlns:cc="http://creativecommons.org/ns#" xmlns:rdf="http://www.w3.org/1999/02/22-rdf-syntax-ns#" inkscape:version="0.91 r13725" sodipodi:docname="settings.svg"
	 xmlns="http://www.w3.org/2000/svg" xmlns:xlink="http://www.w3.org/1999/xlink" x="0px" y="0px" viewBox="15 -21.9 128.6 72.9"
	 style="enable-background:new 15 -21.9 128.6 72.9;" xml:space="preserve">
<style type="text/css">
	.st0{fill:#B9CE90;}
</style>
<sodipodi:namedview  id="namedview31" inkscape:cx="64.300003" pagecolor="#ffffff" borderopacity="1" bordercolor="#666666" guidetolerance="10" objecttolerance="10" inkscape:cy="36.450001" gridtolerance="10" showgrid="false" inkscape:zoom="1.9517884" inkscape:current-layer="Camada_1" inkscape:window-width="1183" inkscape:window-y="111" inkscape:pageopacity="0" inkscape:window-maximized="0" inkscape:window-height="734" inkscape:pageshadow="2" inkscape:window-x="255">
	</sodipodi:namedview>
<path id="XMLID_11971_" inkscape:connector-curvature="0" class="st0" d="M98.6,17.7v-6H95c-0.5-2.1-1.2-4.2-2.4-5.9l2.5-2.5L90.7-1
	l-2.5,2.5c-1.8-1.2-3.8-2-5.9-2.4v-3.8h-6v3.6c-2.1,0.5-4.2,1.2-5.9,2.4l-2.5-2.5l-4.4,4.4L66,5.6c-1.2,1.8-2,3.8-2.4,5.9H60v6h3.6
	c0.5,2.1,1.2,4.2,2.4,5.9L63.5,26l4.4,4.4l2.5-2.5c1.8,1.2,3.8,2,5.9,2.4v3.6h6v-3.6c2.1-0.5,4.2-1.2,5.9-2.4l2.5,2.5l4.4-4.4
	l-2.5-2.5c1.2-1.8,2-3.8,2.4-5.9h3.6V17.7z M79.2,19.6c-2.7,0-5-2.2-5-5s2.2-5,5-5s5,2.2,5,5S82,19.6,79.2,19.6z"/>
</svg>
