<?xml version="1.0" encoding="UTF-8" standalone="no"?>
<!-- Generator: Adobe Illustrator 19.0.0, SVG Export Plug-In . SVG Version: 6.00 Build 0)  -->

<svg
   xmlns:dc="http://purl.org/dc/elements/1.1/"
   xmlns:cc="http://creativecommons.org/ns#"
   xmlns:rdf="http://www.w3.org/1999/02/22-rdf-syntax-ns#"
   xmlns:svg="http://www.w3.org/2000/svg"
   xmlns="http://www.w3.org/2000/svg"
   xmlns:sodipodi="http://sodipodi.sourceforge.net/DTD/sodipodi-0.dtd"
   xmlns:inkscape="http://www.inkscape.org/namespaces/inkscape"
   version="1.1"
   id="Camada_1"
   x="0px"
   y="0px"
   viewBox="-415 244.1 128.6 72.9"
   style="enable-background:new -415 244.1 128.6 72.9;"
   xml:space="preserve"
   inkscape:version="0.91 r13725"
   sodipodi:docname="settings.svg"><metadata
     id="metadata35"><rdf:RDF><cc:Work
         rdf:about=""><dc:format>image/svg+xml</dc:format><dc:type
           rdf:resource="http://purl.org/dc/dcmitype/StillImage" /></cc:Work></rdf:RDF></metadata><defs
     id="defs33" /><sodipodi:namedview
     pagecolor="#ffffff"
     bordercolor="#666666"
     borderopacity="1"
     objecttolerance="10"
     gridtolerance="10"
     guidetolerance="10"
     inkscape:pageopacity="0"
     inkscape:pageshadow="2"
     inkscape:window-width="1183"
     inkscape:window-height="734"
     id="namedview31"
     showgrid="false"
     inkscape:zoom="1.9517884"
     inkscape:cx="64.300003"
     inkscape:cy="36.450001"
     inkscape:window-x="255"
     inkscape:window-y="111"
     inkscape:window-maximized="0"
     inkscape:current-layer="Camada_1" /><style
     type="text/css"
     id="style28">
	.st0{fill:#C1D6A1;}
</style><path
     id="XMLID_11971_"
     class="st0"
     d="m -331,283.95 0,-6 -3.6,0 c -0.45,-2.1 -1.2,-4.2 -2.4,-5.85 l 2.55,-2.55 -4.35,-4.35 -2.55,2.55 c -1.8,-1.2 -3.75,-1.95 -5.85,-2.4 l 0,-3.75 -6,0 0,3.6 c -2.1,0.45 -4.2,1.2 -5.85,2.4 l -2.55,-2.55 -4.35,4.35 2.55,2.55 c -1.2,1.8 -1.95,3.75 -2.4,5.85 l -3.6,0 0,6 3.6,0 c 0.45,2.1 1.2,4.2 2.4,5.85 l -2.55,2.55 4.35,4.35 2.55,-2.55 c 1.8,1.2 3.75,1.95 5.85,2.4 l 0,3.6 6,0 0,-3.6 c 2.1,-0.45 4.2,-1.2 5.85,-2.4 l 2.55,2.55 4.35,-4.35 -2.55,-2.55 c 1.2,-1.8 1.95,-3.75 2.4,-5.85 l 3.6,0 z m -19.35,1.95 c -2.7,0 -4.95,-2.25 -4.95,-4.95 0,-2.7 2.25,-4.95 4.95,-4.95 2.7,0 4.95,2.25 4.95,4.95 0,2.7 -2.25,4.95 -4.95,4.95 z"
     inkscape:connector-curvature="0"
     style="fill:#c1d6a1" /></svg>