<?xml version="1.0" encoding="utf-8"?>
<!-- Generator: Adobe Illustrator 19.0.0, SVG Export Plug-In . SVG Version: 6.00 Build 0)  -->
<svg version="1.1" id="Camada_1" xmlns="http://www.w3.org/2000/svg" xmlns:xlink="http://www.w3.org/1999/xlink" x="0px" y="0px"
	 viewBox="-415 244.1 128.6 72.9" style="enable-background:new -415 244.1 128.6 72.9;" xml:space="preserve">
<style type="text/css">
	.st0{fill:#C1D6A1;}
</style>
<path id="XMLID_11971_" class="st0" d="M-337.4,282.9v-4h-2.4c-0.3-1.4-0.8-2.8-1.6-3.9l1.7-1.7l-2.9-2.9l-1.7,1.7
	c-1.2-0.8-2.5-1.3-3.9-1.6V268h-4v2.4c-1.4,0.3-2.8,0.8-3.9,1.6l-1.7-1.7l-2.9,2.9l1.7,1.7c-0.8,1.2-1.3,2.5-1.6,3.9h-2.4v4h2.4
	c0.3,1.4,0.8,2.8,1.6,3.9l-1.7,1.7l2.9,2.9l1.7-1.7c1.2,0.8,2.5,1.3,3.9,1.6v2.4h4v-2.4c1.4-0.3,2.8-0.8,3.9-1.6l1.7,1.7l2.9-2.9
	l-1.7-1.7c0.8-1.2,1.3-2.5,1.6-3.9H-337.4z M-350.3,284.2c-1.8,0-3.3-1.5-3.3-3.3c0-1.8,1.5-3.3,3.3-3.3c1.8,0,3.3,1.5,3.3,3.3
	C-347,282.7-348.5,284.2-350.3,284.2z"/>
</svg>
