<?xml version="1.0" encoding="utf-8"?>
<!-- Generator: Adobe Illustrator 16.0.0, SVG Export Plug-In . SVG Version: 6.00 Build 0)  -->
<!DOCTYPE svg PUBLIC "-//W3C//DTD SVG 1.1//EN" "http://www.w3.org/Graphics/SVG/1.1/DTD/svg11.dtd" [
	<!ENTITY ns_flows "http://ns.adobe.com/Flows/1.0/">
	<!ENTITY ns_extend "http://ns.adobe.com/Extensibility/1.0/">
	<!ENTITY ns_ai "http://ns.adobe.com/AdobeIllustrator/10.0/">
	<!ENTITY ns_graphs "http://ns.adobe.com/Graphs/1.0/">
]>
<svg version="1.1" id="Layer_1" xmlns:x="&ns_extend;" xmlns:i="&ns_ai;" xmlns:graph="&ns_graphs;"
	 xmlns="http://www.w3.org/2000/svg" xmlns:xlink="http://www.w3.org/1999/xlink" xmlns:a="http://ns.adobe.com/AdobeSVGViewerExtensions/3.0/"
	 x="0px" y="0px" width="215.712px" height="48.31px" viewBox="0 0 215.712 48.31" enable-background="new 0 0 215.712 48.31"
	 xml:space="preserve">
<g>
	<path fill-rule="evenodd" clip-rule="evenodd" d="M66.319,24.047c0.482,2.052,0.226,4.111-0.797,5.978
		c-1.144,2.088-1.659,4.285-1.734,6.629c-0.008,0.232-0.112,0.461-0.195,0.781c-0.859,0.729-1.77,1.499-2.88,2.439
		c-0.38,2.598-2.825,3.535-4.929,4.418c-3.81,1.599-7.812,2.747-11.85,3.689c-0.843,0.196-1.728,0.309-2.593,0.307
		c-3.264,0-6.543,0.108-9.788-0.168c-2.001-0.17-3.976-0.182-5.968-0.143c-0.397,0.008-0.805-0.02-1.193-0.102
		c-3.736-0.799-7.482-1.604-11.035-3.035c-1.684-0.678-3.228-1.704-4.838-2.568c-0.834-0.447-1.662-0.906-2.514-1.321
		C1.658,38.83-0.648,34.49,0.16,29.764c0.336-1.963,0.835-3.879,1.668-5.728c0.658-1.458,1.547-2.617,2.92-3.351
		c1.498-0.801,2.713-1.942,4.033-2.971c2.451-1.909,4.98-3.73,7.579-5.433c2.321-1.52,5.097-1.786,7.749-2.293
		c1.717-0.329,3.512-0.266,5.217-0.632C31.917,8.799,34.4,9.265,36.9,9.772c3.596,0.73,7.172,1.49,10.638,2.782
		c2.148,0.801,4.532,0.955,6.713,1.688c2.625,0.884,5.219,1.899,7.586,3.413c1.402,0.896,2.309,2.148,3.049,3.572
		C65.363,22.146,65.825,23.074,66.319,24.047z M4.389,23.43c-0.448,0.537-0.798,0.876-1.056,1.275
		c-1.555,2.41-2.674,4.848-1.398,7.837c0.797,1.87,1.808,3.31,3.846,3.888c0.99,0.28,2.047,0.539,2.892,1.088
		c2.041,1.326,4.372,1.928,6.594,2.755c2.386,0.888,4.921,1.34,7.51,1.362c3.278,0.029,6.532-0.08,9.799-0.488
		c4.759-0.594,9.455-1.359,14.081-2.694c3.357-0.969,6.387-2.476,9.273-4.366c2.692-1.761,4.626-4.096,5.747-7.146
		c0.479-1.307,0.414-2.513-0.065-3.727c-0.608-1.544-1.622-2.802-3.218-3.368c-1.801-0.638-3.65-1.139-5.491-1.657
		c-0.996-0.28-2.027-0.438-3.025-0.709c-2.231-0.606-4.463-1.216-6.675-1.886c-4.332-1.312-8.751-1.569-13.243-1.32
		c-2.656,0.148-5.188,0.818-7.736,1.467c-2.952,0.751-5.771,1.928-8.35,3.464c-1.623,0.966-3.174,2.038-4.891,2.877
		C7.533,22.789,6.129,23.489,4.389,23.43z"/>
	<path fill-rule="evenodd" clip-rule="evenodd" fill="#FFFFFF" d="M4.389,23.43c1.74,0.059,3.144-0.641,4.593-1.349
		c1.717-0.839,3.268-1.911,4.891-2.877c2.578-1.536,5.397-2.713,8.35-3.464c2.549-0.649,5.08-1.319,7.736-1.467
		c4.492-0.25,8.911,0.008,13.243,1.32c2.212,0.67,4.443,1.279,6.675,1.886c0.998,0.271,2.029,0.429,3.025,0.709
		c1.841,0.518,3.69,1.019,5.491,1.657c1.596,0.565,2.609,1.824,3.218,3.368c0.479,1.214,0.545,2.42,0.065,3.727
		c-1.121,3.051-3.055,5.386-5.747,7.146c-2.887,1.891-5.916,3.397-9.273,4.366c-4.626,1.335-9.322,2.101-14.081,2.694
		c-3.267,0.408-6.521,0.518-9.799,0.488c-2.589-0.022-5.124-0.475-7.51-1.362c-2.222-0.827-4.553-1.429-6.594-2.755
		c-0.845-0.549-1.901-0.808-2.892-1.088c-2.038-0.578-3.049-2.018-3.846-3.888c-1.275-2.989-0.156-5.427,1.398-7.837
		C3.591,24.306,3.941,23.966,4.389,23.43z M47.486,21.599c-1.598-0.41-3.356-0.895-5.131-1.312
		c-4.912-1.155-9.775-1.328-14.588,0.571c-2.223,0.877-4.496,1.659-6.801,2.286c-3.646,0.992-7.055,2.503-10.327,4.346
		c-1.05,0.592-2.05,1.227-3.302,1.299c-0.116,0.006-0.215,0.344-0.316,0.52c0.184,0.143,0.301,0.315,0.42,0.316
		c1.907,0.016,3.83,0.152,5.664-0.564c3.02-1.182,6.152-1.604,9.382-1.416c0.47,0.027,0.947-0.066,1.42-0.115
		c1.187-0.124,2.373-0.376,3.556-0.354c2.254,0.041,4.443-0.254,6.644-0.715c1.392-0.291,2.845-0.347,4.274-0.387
		c1.831-0.053,3.668,0.062,5.498,0.012c0.858-0.023,1.75-0.152,2.557-0.435C48.529,24.916,48.796,23.932,47.486,21.599z"/>
	<path fill-rule="evenodd" clip-rule="evenodd" d="M47.486,21.599c1.311,2.333,1.043,3.317-1.051,4.052
		c-0.807,0.282-1.698,0.411-2.557,0.435c-1.83,0.051-3.667-0.064-5.498-0.012c-1.43,0.04-2.883,0.096-4.274,0.387
		c-2.2,0.461-4.39,0.756-6.644,0.715c-1.183-0.022-2.369,0.229-3.556,0.354c-0.473,0.049-0.95,0.143-1.42,0.115
		c-3.229-0.188-6.362,0.234-9.382,1.416c-1.834,0.717-3.757,0.58-5.664,0.564c-0.119-0.001-0.236-0.174-0.42-0.316
		c0.102-0.176,0.2-0.514,0.316-0.52c1.252-0.072,2.252-0.707,3.302-1.299c3.272-1.843,6.681-3.354,10.327-4.346
		c2.305-0.627,4.578-1.409,6.801-2.286c4.812-1.899,9.676-1.726,14.588-0.571C44.129,20.705,45.888,21.189,47.486,21.599z"/>
</g>
<g>
	<path fill-rule="evenodd" clip-rule="evenodd" d="M215.712,13.041c-0.272,1.715-0.449,3.054-0.705,4.378
		c-0.226,1.167-0.454,2.345-0.834,3.466c-0.502,1.48-1.163,2.864-1.45,4.462c-0.319,1.776-1.494,3.305-2.871,4.587
		c-0.98,0.914-1.886,1.908-2.86,2.816c-1.576,1.433-3.153,2.864-4.993,4.535c-0.11,0.038-0.659,0.074-0.989,0.362
		c-1.619,1.409-3.418,2.526-5.294,3.551c-1.791,0.978-3.526,2.056-5.316,3.034c-0.977,0.534-2.037,0.913-3.021,1.437
		c-2.853,1.52-5.85,2.351-9.107,2.549c-3.921,0.239-7.796-0.009-11.67-0.479c-1.824-0.221-3.537-0.759-5.138-1.793
		c-0.963-0.622-2.232-0.774-3.367-1.127c-0.68-0.21-1.439-0.271-2.036-0.618c-2.503-1.461-4.652-3.279-6.228-5.801
		c-1.806-2.889-1.812-5.711-0.146-8.574c0.617-1.061,1.194-2.066,0.764-3.482c2.717-3.502,5.286-7.173,8.234-10.509
		c2.693-3.048,5.912-5.586,9.526-7.555c1.05-0.572,2.104-1.148,3.102-1.804c2.5-1.643,5.282-2.596,8.114-3.452
		c1.603-0.484,3.188-1.029,4.783-1.54c5.447-1.745,10.983-1.877,16.554-0.781c2.185,0.43,4.331,1.057,6.48,1.65
		c0.684,0.189,1.336,0.524,1.97,0.856c3.577,1.876,5.443,4.977,6.26,8.819C215.555,12.418,215.656,12.804,215.712,13.041z
		 M153.389,40.143c0.622,0.164,1.154,0.348,1.703,0.443c1.896,0.327,3.749,0.77,5.467,1.688c0.412,0.221,0.913,0.275,1.373,0.406
		c3.573,1.016,7.241,1.138,10.922,1.201c2.448,0.041,4.741-0.562,6.971-1.494c2.949-1.234,5.836-2.606,8.514-4.362
		c3.882-2.546,7.673-5.241,10.523-8.972c1.985-2.598,3.779-5.343,5.609-8.056c1.069-1.586,2.186-3.168,3.026-4.877
		c1.187-2.412,2.583-4.788,2.674-7.47c-0.366-1.33-1.288-1.941-2.281-2.501c-3.876-2.184-8.151-2.613-12.469-2.854
		c-3.578-0.2-6.914,1.11-10.361,1.714c-1.877,0.329-3.736,0.841-5.549,1.438c-3.265,1.076-6.428,2.468-9.356,4.237
		c-3.19,1.927-6.192,4.175-8.837,6.847c-1.678,1.696-3.379,3.369-5.271,5.252c-0.39,1.11-0.719,2.532-1.366,3.79
		c-1.05,2.04-2.216,4.034-3.504,5.931c-1.24,1.824-0.952,3.676,0.113,5.114C151.904,38.447,152.608,39.209,153.389,40.143z"/>
	<path fill-rule="evenodd" clip-rule="evenodd" fill="#FFFFFF" d="M153.389,40.143c-0.781-0.934-1.485-1.695-2.1-2.524
		c-1.065-1.438-1.354-3.29-0.113-5.114c1.288-1.896,2.454-3.891,3.504-5.931c0.647-1.258,0.977-2.679,1.366-3.79
		c1.893-1.884,3.594-3.557,5.271-5.252c2.645-2.672,5.646-4.919,8.837-6.847c2.929-1.77,6.092-3.162,9.356-4.237
		c1.812-0.598,3.672-1.109,5.549-1.438c3.447-0.604,6.783-1.914,10.361-1.714c4.317,0.241,8.593,0.67,12.469,2.854
		c0.993,0.56,1.915,1.171,2.281,2.501c-0.091,2.682-1.487,5.058-2.674,7.47c-0.841,1.709-1.957,3.291-3.026,4.877
		c-1.83,2.712-3.624,5.458-5.609,8.056c-2.851,3.73-6.642,6.426-10.523,8.972c-2.678,1.756-5.564,3.128-8.514,4.362
		c-2.229,0.932-4.522,1.535-6.971,1.494c-3.681-0.063-7.349-0.186-10.922-1.201c-0.46-0.131-0.961-0.186-1.373-0.406
		c-1.718-0.918-3.57-1.36-5.467-1.688C154.543,40.49,154.011,40.307,153.389,40.143z M205.423,7.631
		c-1.411-0.594-2.52-0.503-3.62-0.404c-5.119,0.464-10.038,1.818-14.886,3.441c-1.352,0.453-2.662,1.091-3.907,1.793
		c-4.608,2.6-8.723,5.911-12.872,9.159c-2.826,2.213-5.582,4.514-8.36,6.79c-0.155,0.127-0.218,0.367-0.516,0.896
		c0.728-0.285,1.158-0.406,1.544-0.611c4.153-2.221,8.437-4.155,12.834-5.838c0.592-0.226,1.204-0.404,1.778-0.668
		c2.52-1.16,5.053-2.296,7.534-3.534c1.844-0.919,3.7-1.859,5.395-3.019c1.433-0.98,2.642-2.289,4.218-3.691
		c2.603-0.733,5.514-1.54,8.414-2.38c0.607-0.176,1.22-0.409,1.752-0.741C205.002,8.656,205.102,8.21,205.423,7.631z"/>
	<path fill-rule="evenodd" clip-rule="evenodd" d="M205.423,7.631c-0.321,0.58-0.421,1.025-0.692,1.194
		c-0.532,0.332-1.145,0.565-1.752,0.741c-2.9,0.84-5.812,1.647-8.414,2.38c-1.576,1.402-2.785,2.71-4.218,3.691
		c-1.694,1.16-3.551,2.099-5.395,3.019c-2.481,1.238-5.015,2.374-7.534,3.534c-0.574,0.264-1.187,0.442-1.778,0.668
		c-4.397,1.683-8.681,3.617-12.834,5.838c-0.386,0.205-0.816,0.326-1.544,0.611c0.298-0.529,0.36-0.77,0.516-0.896
		c2.778-2.275,5.534-4.577,8.36-6.79c4.149-3.249,8.264-6.56,12.872-9.159c1.245-0.703,2.556-1.34,3.907-1.793
		c4.848-1.623,9.767-2.977,14.886-3.441C202.904,7.127,204.012,7.037,205.423,7.631z"/>
</g>
<g>
	<path fill-rule="evenodd" clip-rule="evenodd" d="M141.575,7.051c0.769,0.237,1.758,0.543,2.828,0.873
		c1.798,1.899,1.821,4.062,0.786,6.418c0.062,0.67,0.128,1.384,0.192,2.087c-0.526,1.167-1.029,2.331-1.577,3.474
		c-0.198,0.412-0.492,0.781-0.766,1.152c-0.14,0.189-0.453,0.322-0.481,0.512c-0.329,2.203-2.2,3.466-3.208,5.259
		c-1.005,1.787-2.407,3.344-4.386,3.977c-1.471,1.807-2.862,3.545-4.285,5.258c-1.048,1.262-2.354,2.135-3.985,2.473
		c-0.625,0.129-1.248,0.27-1.389,0.301c-2.433,1.625-4.386,3.166-6.559,4.285c-1.133,0.584-2.532,0.771-3.747,1.338
		c-1.062,0.494-2.096,1.148-3.216,1.396c-2.15,0.475-4.229,1.396-6.515,1.193c-0.457-0.039-0.953,0.107-1.401,0.256
		c-2.616,0.875-5.367,1.18-8.035,0.914c-2.967-0.297-6.017-0.334-8.854-1.682c-2.37-1.125-4.914-1.906-7-3.562
		c-1.734-1.375-3.691-2.582-4.495-5.203c0.067-1.207,0.111-2.723,0.247-4.23c0.158-1.771,0.658-3.42,1.672-4.938
		c0.614-0.918,1.138-1.971,1.39-3.037c0.437-1.847,1.428-3.355,2.425-4.904c2.45-3.809,5.636-6.941,9.093-9.788
		c2.766-2.277,5.399-4.78,8.733-6.265c1.598-0.712,3.221-1.391,4.884-1.926c7.246-2.335,14.684-3.072,22.255-2.435
		c4.283,0.361,8.303,1.646,11.97,3.885C139.285,4.825,140.207,5.868,141.575,7.051z M137.511,7.636
		c-2.065-0.671-3.898-1.211-5.69-1.86c-2.51-0.909-5.053-1.422-7.743-1.219c-1.59,0.12-3.208-0.07-4.791,0.097
		c-3.244,0.341-6.473,0.824-9.706,1.261c-0.23,0.031-0.441,0.186-0.672,0.247c-1.865,0.498-3.486,1.519-5.211,2.324
		c-2.154,1.008-3.757,2.938-6.143,3.494c-0.137,0.032-0.25,0.193-0.36,0.309c-1.69,1.778-3.966,2.565-6.032,3.692
		c-0.913,0.756-1.901,1.397-2.86,2.082c-0.708,0.506-1.406,1.034-2.058,1.609c-0.652,0.577-1.246,1.222-1.853,1.849
		c-0.105,0.109-0.146,0.28-0.305,0.597c-0.023,0.365-0.059,0.909-0.094,1.463c-0.129,0.199-0.224,0.437-0.393,0.593
		c-1.732,1.619-2.129,4.082-3.68,5.816c-0.198,0.223-0.264,0.58-0.346,0.889c-0.651,2.42-1.153,4.836,0.506,7.291
		c1.176,0.732,2.271,1.963,3.942,2.262c0.859,0.154,1.686,0.488,2.542,0.666c2.104,0.432,4.203,0.975,6.333,1.189
		c2.881,0.293,5.604-0.432,8.376-1.357c5.028-1.678,9.723-4.018,14.429-6.381c2.789-1.4,5.24-3.352,7.971-4.816
		c3.059-1.641,5.729-3.775,8.399-5.933c1.938-1.565,3.465-3.518,4.937-5.507c1.295-1.752,1.486-3.839,1.712-6.041
		C138.35,10.835,137.948,9.299,137.511,7.636z"/>
	<path fill-rule="evenodd" clip-rule="evenodd" fill="#FFFFFF" d="M137.511,7.636c0.437,1.663,0.839,3.199,1.211,4.615
		c-0.226,2.202-0.417,4.289-1.712,6.041c-1.472,1.989-2.998,3.941-4.937,5.507c-2.67,2.158-5.341,4.292-8.399,5.933
		c-2.73,1.465-5.182,3.416-7.971,4.816c-4.706,2.363-9.4,4.703-14.429,6.381c-2.771,0.926-5.495,1.65-8.376,1.357
		c-2.13-0.215-4.229-0.758-6.333-1.189c-0.856-0.178-1.683-0.512-2.542-0.666c-1.672-0.299-2.767-1.529-3.942-2.262
		c-1.659-2.455-1.157-4.871-0.506-7.291c0.082-0.309,0.147-0.666,0.346-0.889c1.551-1.734,1.947-4.197,3.68-5.816
		c0.169-0.157,0.264-0.394,0.393-0.593c0.035-0.554,0.07-1.098,0.094-1.463c0.158-0.316,0.199-0.487,0.305-0.597
		c0.606-0.627,1.2-1.271,1.853-1.849c0.651-0.575,1.35-1.104,2.058-1.609c0.959-0.685,1.947-1.326,2.86-2.082
		c2.066-1.127,4.342-1.914,6.032-3.692c0.11-0.115,0.224-0.276,0.36-0.309c2.386-0.557,3.988-2.486,6.143-3.494
		c1.725-0.806,3.346-1.826,5.211-2.324c0.23-0.062,0.441-0.216,0.672-0.247c3.233-0.437,6.462-0.92,9.706-1.261
		c1.583-0.167,3.201,0.023,4.791-0.097c2.69-0.203,5.233,0.31,7.743,1.219C133.613,6.425,135.446,6.965,137.511,7.636z
		 M126.771,8.366c-1.992-0.538-1.993-0.542-3.325-0.317c-2.359,0.396-4.729,0.741-7.075,1.21c-4.49,0.898-8.825,2.22-12.571,5.007
		c-2.945,2.191-5.867,4.416-8.856,6.547c-2.317,1.653-4.057,3.823-5.75,6.049c-0.195,0.258-0.279,0.6-0.415,0.902
		c0.121,0.074,0.243,0.148,0.364,0.225c0.778-0.869,1.557-1.736,1.962-2.188c1.851-0.854,3.234-1.445,4.572-2.125
		c1.064-0.542,2.042-1.257,3.114-1.783c1.784-0.876,3.565-1.797,5.435-2.448c2.02-0.705,4.146-1.099,6.21-1.68
		c0.685-0.192,1.334-0.522,1.979-0.831c1.224-0.585,2.443-1.181,3.644-1.812c0.557-0.292,1.16-0.59,1.576-1.039
		c1.13-1.219,2.577-1.851,4.074-2.412c1.488-0.558,2.988-1.083,4.571-1.655C126.421,9.541,126.574,9.028,126.771,8.366z"/>
	<path fill-rule="evenodd" clip-rule="evenodd" d="M126.771,8.366c-0.197,0.662-0.35,1.175-0.491,1.649
		c-1.583,0.572-3.083,1.098-4.571,1.655c-1.497,0.562-2.944,1.193-4.074,2.412c-0.416,0.449-1.02,0.747-1.576,1.039
		c-1.2,0.631-2.42,1.227-3.644,1.812c-0.646,0.309-1.295,0.639-1.979,0.831c-2.064,0.581-4.19,0.975-6.21,1.68
		c-1.869,0.651-3.65,1.572-5.435,2.448c-1.072,0.526-2.05,1.241-3.114,1.783c-1.338,0.68-2.722,1.272-4.572,2.125
		c-0.405,0.451-1.184,1.318-1.962,2.188c-0.121-0.076-0.243-0.15-0.364-0.225c0.136-0.303,0.22-0.645,0.415-0.902
		c1.693-2.227,3.433-4.396,5.75-6.049c2.989-2.131,5.911-4.355,8.856-6.547c3.746-2.787,8.081-4.108,12.571-5.007
		c2.346-0.469,4.716-0.813,7.075-1.21C124.778,7.824,124.779,7.828,126.771,8.366z"/>
</g>
</svg>
