<?xml version="1.0" encoding="utf-8"?>
<!-- Generator: Adobe Illustrator 16.0.0, SVG Export Plug-In . SVG Version: 6.00 Build 0)  -->
<!DOCTYPE svg PUBLIC "-//W3C//DTD SVG 1.1//EN" "http://www.w3.org/Graphics/SVG/1.1/DTD/svg11.dtd" [
	<!ENTITY ns_flows "http://ns.adobe.com/Flows/1.0/">
	<!ENTITY ns_extend "http://ns.adobe.com/Extensibility/1.0/">
	<!ENTITY ns_ai "http://ns.adobe.com/AdobeIllustrator/10.0/">
	<!ENTITY ns_graphs "http://ns.adobe.com/Graphs/1.0/">
]>
<svg version="1.1" id="Layer_1" xmlns:x="&ns_extend;" xmlns:i="&ns_ai;" xmlns:graph="&ns_graphs;"
	 xmlns="http://www.w3.org/2000/svg" xmlns:xlink="http://www.w3.org/1999/xlink" xmlns:a="http://ns.adobe.com/AdobeSVGViewerExtensions/3.0/"
	 x="0px" y="0px" width="67.256px" height="48.31px" viewBox="0 0 67.256 48.31" enable-background="new 0 0 67.256 48.31"
	 xml:space="preserve">
<g>
	<path fill-rule="evenodd" clip-rule="evenodd" d="M67.256,13.041c-0.272,1.715-0.449,3.054-0.705,4.378
		c-0.226,1.167-0.454,2.345-0.834,3.466c-0.502,1.48-1.163,2.864-1.45,4.462c-0.319,1.776-1.494,3.305-2.871,4.587
		c-0.98,0.914-1.886,1.908-2.86,2.816c-1.576,1.433-3.153,2.864-4.993,4.535c-0.11,0.038-0.659,0.074-0.989,0.362
		c-1.619,1.409-3.418,2.526-5.294,3.551c-1.791,0.978-3.526,2.056-5.316,3.034c-0.977,0.534-2.037,0.913-3.021,1.437
		c-2.853,1.52-5.85,2.351-9.107,2.549c-3.921,0.239-7.796-0.009-11.67-0.479c-1.824-0.221-3.537-0.759-5.138-1.793
		c-0.963-0.622-2.232-0.774-3.367-1.127c-0.68-0.21-1.439-0.271-2.036-0.618C5.101,42.74,2.951,40.922,1.376,38.4
		c-1.806-2.889-1.812-5.711-0.146-8.574c0.617-1.061,1.194-2.066,0.764-3.482c2.717-3.502,5.286-7.173,8.234-10.509
		c2.693-3.048,5.912-5.586,9.526-7.555c1.05-0.572,2.104-1.148,3.102-1.804c2.5-1.643,5.282-2.596,8.114-3.452
		c1.603-0.484,3.188-1.029,4.783-1.54C41.2-0.261,46.736-0.394,52.307,0.703c2.185,0.43,4.331,1.057,6.48,1.65
		c0.684,0.189,1.336,0.524,1.97,0.856c3.577,1.876,5.443,4.977,6.26,8.819C67.099,12.418,67.199,12.804,67.256,13.041z
		 M4.933,40.143c0.622,0.164,1.154,0.348,1.703,0.443c1.896,0.327,3.749,0.77,5.467,1.688c0.412,0.221,0.913,0.275,1.373,0.406
		c3.573,1.016,7.241,1.138,10.922,1.201c2.448,0.041,4.741-0.562,6.971-1.494c2.949-1.234,5.836-2.606,8.514-4.362
		c3.882-2.546,7.673-5.241,10.523-8.972c1.985-2.598,3.779-5.343,5.609-8.056c1.069-1.586,2.186-3.168,3.026-4.877
		c1.187-2.412,2.583-4.788,2.674-7.47c-0.366-1.33-1.288-1.941-2.281-2.501c-3.876-2.184-8.151-2.613-12.469-2.854
		c-3.578-0.2-6.914,1.11-10.361,1.714c-1.877,0.329-3.736,0.841-5.549,1.438c-3.265,1.076-6.428,2.468-9.356,4.237
		c-3.19,1.927-6.192,4.175-8.837,6.847c-1.678,1.696-3.379,3.369-5.271,5.252c-0.39,1.11-0.719,2.532-1.366,3.79
		c-1.05,2.04-2.216,4.034-3.504,5.931c-1.24,1.824-0.952,3.676,0.113,5.114C3.447,38.447,4.151,39.209,4.933,40.143z"/>
	<path fill-rule="evenodd" clip-rule="evenodd" fill="#FFFFFF" d="M4.933,40.143c-0.781-0.934-1.485-1.695-2.1-2.524
		c-1.065-1.438-1.354-3.29-0.113-5.114c1.288-1.896,2.454-3.891,3.504-5.931c0.647-1.258,0.977-2.679,1.366-3.79
		c1.893-1.884,3.594-3.557,5.271-5.252c2.645-2.672,5.646-4.919,8.837-6.847c2.929-1.77,6.092-3.162,9.356-4.237
		c1.812-0.598,3.672-1.109,5.549-1.438c3.447-0.604,6.783-1.914,10.361-1.714c4.317,0.241,8.593,0.67,12.469,2.854
		c0.993,0.56,1.915,1.171,2.281,2.501c-0.091,2.682-1.487,5.058-2.674,7.47c-0.841,1.709-1.957,3.291-3.026,4.877
		c-1.83,2.712-3.624,5.458-5.609,8.056c-2.851,3.73-6.642,6.426-10.523,8.972c-2.678,1.756-5.564,3.128-8.514,4.362
		c-2.229,0.932-4.522,1.535-6.971,1.494c-3.681-0.063-7.349-0.186-10.922-1.201c-0.46-0.131-0.961-0.186-1.373-0.406
		c-1.718-0.918-3.57-1.36-5.467-1.688C6.087,40.49,5.555,40.307,4.933,40.143z M56.967,7.631c-1.411-0.594-2.52-0.503-3.62-0.404
		c-5.119,0.464-10.038,1.818-14.886,3.441c-1.352,0.453-2.662,1.091-3.907,1.793c-4.608,2.6-8.723,5.911-12.872,9.159
		c-2.826,2.213-5.582,4.514-8.36,6.79c-0.155,0.127-0.218,0.367-0.516,0.896c0.728-0.285,1.158-0.406,1.544-0.611
		c4.153-2.221,8.437-4.155,12.834-5.838c0.592-0.226,1.204-0.404,1.778-0.668c2.52-1.16,5.053-2.296,7.534-3.534
		c1.844-0.919,3.7-1.859,5.395-3.019c1.433-0.98,2.642-2.289,4.218-3.691c2.603-0.733,5.514-1.54,8.414-2.38
		c0.607-0.176,1.22-0.409,1.752-0.741C56.546,8.656,56.646,8.21,56.967,7.631z"/>
	<path fill-rule="evenodd" clip-rule="evenodd" d="M56.967,7.631c-0.321,0.58-0.421,1.025-0.692,1.194
		c-0.532,0.332-1.145,0.565-1.752,0.741c-2.9,0.84-5.812,1.647-8.414,2.38c-1.576,1.402-2.785,2.71-4.218,3.691
		c-1.694,1.16-3.551,2.099-5.395,3.019c-2.481,1.238-5.015,2.374-7.534,3.534c-0.574,0.264-1.187,0.442-1.778,0.668
		c-4.397,1.683-8.681,3.617-12.834,5.838c-0.386,0.205-0.816,0.326-1.544,0.611c0.298-0.529,0.36-0.77,0.516-0.896
		c2.778-2.275,5.534-4.577,8.36-6.79c4.149-3.249,8.264-6.56,12.872-9.159c1.245-0.703,2.556-1.34,3.907-1.793
		c4.848-1.623,9.767-2.977,14.886-3.441C54.447,7.127,55.556,7.037,56.967,7.631z"/>
</g>
</svg>
