<?xml version="1.0" encoding="utf-8"?>
<!-- Generator: Adobe Illustrator 19.0.0, SVG Export Plug-In . SVG Version: 6.00 Build 0)  -->
<svg version="1.1" id="Camada_1" xmlns="http://www.w3.org/2000/svg" xmlns:xlink="http://www.w3.org/1999/xlink" x="0px" y="0px"
	 viewBox="-431.8 234.6 162.3 92" style="enable-background:new -431.8 234.6 162.3 92;" xml:space="preserve">
<style type="text/css">
	.st0{fill:none;}
	.st1{fill:#CDC4BD;}
	.st2{fill:#808080;}
	.st3{fill:#ADC77F;}
</style>
<g id="XMLID_27_">
	<path id="XMLID_375_" class="st0" d="M-295,291.5C-295,291.5-295,291.5-295,291.5C-294.9,291.5-294.8,291.4-295,291.5z"/>
	<path id="XMLID_383_" class="st0" d="M-298.7,276C-298.7,276-298.7,276-298.7,276C-298.5,276-297.9,275.8-298.7,276
		C-298.8,276.1-298.8,276.1-298.7,276z"/>
	<path id="XMLID_407_" class="st0" d="M-387.4,274.4c-0.9-0.3-1.9-0.5-2.9-0.5c-0.6,0-1.2,0-1.8,0c-1.2,0.1-2.4,0.3-3.7,0.5
		c-0.1,0-0.2,0.1-0.3,0.1c-0.7,0.2-1.3,0.6-2,0.9c-0.8,0.4-1.4,1.1-2.3,1.3c-0.1,0-0.1,0.1-0.1,0.1c-0.6,0.7-1.5,1-2.3,1.4
		c-0.3,0.3-0.7,0.5-1.1,0.8c-0.3,0.2-0.5,0.4-0.8,0.6c-0.2,0.2-0.5,0.5-0.7,0.7c0,0-0.1,0.1-0.1,0.2c0,0.1,0,0.3,0,0.6
		c0,0.1-0.1,0.2-0.1,0.2c-0.7,0.6-0.8,1.5-1.4,2.2c-0.1,0.1-0.1,0.2-0.1,0.3c-0.2,0.9-0.4,1.8,0.2,2.8c0.4,0.3,0.9,0.7,1.5,0.9
		c0.3,0.1,0.6,0.2,1,0.3c0.8,0.2,1.6,0.4,2.4,0.4c1.1,0.1,2.1-0.2,3.2-0.5c1.9-0.6,3.7-1.5,5.5-2.4c1.1-0.5,2-1.3,3-1.8
		c1.2-0.6,2.2-1.4,3.2-2.2c0.7-0.6,1.3-1.3,1.9-2.1c0.5-0.7,0.6-1.5,0.6-2.3c-0.1-0.5-0.3-1.1-0.5-1.7
		C-386,274.8-386.7,274.6-387.4,274.4z M-389.5,276c-0.6,0.2-1.2,0.4-1.7,0.6c-0.6,0.2-1.1,0.5-1.5,0.9c-0.2,0.2-0.4,0.3-0.6,0.4
		c-0.5,0.2-0.9,0.5-1.4,0.7c-0.2,0.1-0.5,0.2-0.7,0.3c-0.8,0.2-1.6,0.4-2.3,0.6c-0.7,0.2-1.4,0.6-2.1,0.9c-0.4,0.2-0.8,0.5-1.2,0.7
		c-0.5,0.3-1,0.5-1.7,0.8c-0.2,0.2-0.4,0.5-0.7,0.8c0,0-0.1-0.1-0.1-0.1c0.1-0.1,0.1-0.2,0.2-0.3c0.6-0.8,1.3-1.7,2.2-2.3
		c1.1-0.8,2.2-1.6,3.3-2.5c1.4-1.1,3.1-1.6,4.8-1.9c0.9-0.2,1.8-0.3,2.7-0.5c0.5-0.1,0.5-0.1,1.3,0.1
		C-389.4,275.6-389.4,275.8-389.5,276z"/>
	<path id="XMLID_408_" class="st0" d="M-307.5,277.3c0.5-0.2,1-0.2,1.4-0.3c0.5-0.1,0.9-0.2,1.4-0.3c1-0.2,2-0.3,2.9-0.5
		c0.4-0.1,0.7-0.1,1.1-0.2c0.2,0,0.5,0,0.8,0c0.3,0,0.6,0,0.9,0c0,0,0,0,0,0c0.3,0,0.5-0.1,0.8-0.1c0.1,0,0.2,0,0.4,0
		c0,0,0-0.1,0-0.1c0.3-0.1,0.5-0.1,0.8-0.2c0.4-0.1,0.7-0.1,1.1-0.2c1-0.2,1.9-0.4,2.9-0.5c0.5-0.1,0.9-0.2,1.4-0.2
		c0.5-0.1,1-0.2,1.5-0.2c0.5,0,0.9,0,1.4,0.1c0.4,0.1,0.8,0.3,1.2,0.2c-0.2-0.4-0.6-0.7-1-0.8c-0.3-0.1-0.5-0.1-0.8-0.2
		c-0.2-0.1-0.5-0.2-0.8-0.3c-0.5-0.1-1.1-0.1-1.7-0.1c-0.6,0-1.2,0-1.7,0.1c-0.3,0-0.5,0-0.8,0.1c-0.3,0.1-0.5,0.2-0.8,0.2
		c-0.3,0-0.5-0.1-0.8,0c-0.3,0.1-0.5,0.2-0.7,0.3c-0.3,0.1-0.6,0.1-0.8,0.1c-0.2,0-0.5,0.1-0.7,0.1c0,0,0,0,0,0
		c-0.6,0.1-1.1,0.1-1.7,0.1c-0.3,0-0.5,0.1-0.8,0.1c-0.3,0.1-0.6,0.2-0.9,0.2c-0.3,0-0.5,0-0.8,0c-0.3,0-0.5,0.2-0.7,0.2
		c-0.3,0.1-0.5,0-0.8,0.1c-0.3,0-0.5,0.1-0.7,0.2c-0.6,0.2-1.1,0.3-1.7,0.5c-0.5,0.2-1.1,0.4-1.5,0.7c-0.2,0.1-0.4,0.3-0.6,0.5
		c-0.2,0.2-0.4,0.3-0.6,0.5c-0.3,0.3-0.6,0.7-0.7,1.1c0.4,0,0.7-0.4,1.1-0.6C-308.3,277.6-307.9,277.5-307.5,277.3z"/>
	<path id="XMLID_409_" class="st0" d="M-282.1,278.3c-0.9-0.2-1.8-0.4-2.7-0.3c-0.8,0.1-1.7,0.2-2.5,0.4c-0.3,0-0.6-0.1-1,0
		c-0.3,0-0.6,0.2-1,0.2c-0.7,0.1-1.4,0.3-2.1,0.4c-0.4,0-0.7,0-1.1,0.1c-0.4,0.1-0.8,0.2-1.1,0.3c-0.3,0.1-0.7,0.1-1,0.2
		c-0.2,0-0.3,0.1-0.5,0.2c-0.1,0.1-0.2,0-0.3,0c-0.2,0.1-0.3,0.1-0.5,0.2c-0.1,0-0.3,0.1-0.4,0.1c-0.2,0-0.4,0.1-0.6,0.1
		c-0.1,0-0.2,0.1-0.3,0.1c-0.6,0.1-1.2,0.1-1.8,0.1c-0.2,0-0.3,0-0.5,0c-0.2,0-0.4,0.1-0.6,0.1c-0.1,0-0.2,0-0.3,0
		c-0.2,0-0.4,0-0.6,0c-0.1,0-0.2,0.1-0.3,0.1c-0.2,0-0.3,0-0.5,0c-0.3,0.1-0.7,0.1-1,0.2c-0.4,0.1-0.8,0.1-1.2,0.1
		c-0.4,0.1-0.7,0.2-1,0.3c-0.7,0.2-1.4,0.2-2.1,0.3c-0.3,0.1-0.7,0.1-1,0.1c-0.3,0.1-0.6,0.2-0.9,0.4c-0.8,0.2-1.7,0.3-2.5,0.5
		c-0.9,0.2-1.6,0.8-2.4,1.2c-0.1,0.2-0.2,0.4-0.4,0.6c-0.1,0.2-0.3,0.3-0.4,0.5c0.3,0.1,0.6,0,0.9-0.1c0.3,0,0.6,0,0.9,0
		c0.8-0.1,1.5-0.2,2.3-0.4c0.7-0.2,1.5-0.4,2.2-0.6c0.7-0.1,1.4-0.5,2.2-0.5c0.4,0,0.7,0.1,1.1,0c0.3,0,0.7-0.1,1-0.2
		c0.7-0.1,1.4-0.2,2.1-0.4c0.5-0.1,1.1-0.1,1.6-0.2c0.2,0,0.4-0.1,0.6-0.1c0.1,0,0.2,0,0.3-0.1c0,0.1,0,0.2,0,0.2
		c0.4-0.1,0.7-0.1,1.1-0.2c0,0,0,0,0,0c0.7-0.1,1.5-0.3,2.2-0.4c0.2,0,0.4-0.1,0.6-0.1c0.5-0.1,1-0.2,1.6-0.3
		c0.7-0.1,1.4-0.3,2.1-0.4c0.3,0,0.7-0.1,1-0.2c0.4-0.1,0.7-0.3,1-0.4c0.7-0.2,1.5-0.1,2.2-0.3c0.8-0.1,1.5-0.1,2.3-0.2
		c0.8-0.1,1.5-0.3,2.3-0.4c0.3-0.1,0.6-0.2,0.9-0.3c0.3-0.1,0.6-0.1,0.9-0.3c-0.2-0.2-0.3-0.2-0.5-0.3
		C-281.7,278.6-281.9,278.5-282.1,278.3z"/>
	<path id="XMLID_410_" class="st0" d="M-292.7,289.9c-0.1,0-0.2,0-0.3,0c-0.2,0-0.5,0-0.7,0c-0.1,0-0.3,0-0.4,0
		c-0.5,0-1,0.1-1.5,0.2c-0.4,0.2-0.9,0.2-1.3,0.2c-0.3,0-0.5,0-0.8,0c-0.2,0.1-0.5,0.1-0.7,0.2c-0.1,0-0.3,0.1-0.4,0.1
		c-0.2,0.1-0.4,0.1-0.7,0.2c-0.1,0-0.2,0.1-0.3,0.1c-0.3,0.1-0.6,0.1-0.9,0.2c0,0.1-0.1,0.2-0.1,0.2c0.3,0.1,0.6,0.1,0.9,0.1
		c0.2,0,0.3,0,0.5,0c0.2,0,0.3,0,0.5,0c0.5,0,0.9,0.1,1.4,0.1c0.9,0.1,1.7,0.1,2.5-0.2c0.6-0.2,1.1-0.4,1.7-0.7
		c0.2-0.1,0.3-0.1,0.5-0.2c0.1-0.1,0.3-0.1,0.4-0.2c0.3-0.1,0.6-0.2,0.8-0.4c-0.1-0.1-0.1-0.1-0.2-0.2
		C-292.1,289.9-292.4,289.9-292.7,289.9z"/>
	<path id="XMLID_411_" class="st0" d="M-284.6,284c-0.2,0.1-1.9,0.7-2.4,0.9c-0.3,0.1-0.6,0.2-0.9,0.2c-0.3,0-0.5,0.1-0.8,0.1
		c-0.5,0.1-1.1,0.2-1.6,0.3c-0.6,0.1-1.1,0.3-1.7,0.4c-0.6,0.1-1.2,0-1.8,0.1c-0.1,0-0.2,0-0.4,0c-0.3,0-0.7,0.1-1,0.1
		c-0.1,0-0.2,0-0.4,0c-0.6,0.1-1.1,0-1.7,0c-0.2,0-0.5,0.1-0.7,0.1c-0.2,0.1-0.4,0.1-0.6,0.2c-0.1,0-0.2,0.1-0.3,0.1
		c-0.3,0.1-0.7,0.2-1,0.2c-0.1,0-0.3,0.1-0.4,0.1c-0.6,0.2-1.1,0.4-1.7,0.5c-0.6,0.1-1.1,0.2-1.7,0.2c-0.6,0.1-1.1,0.2-1.7,0.3
		c-0.3,0-0.6,0.1-0.8,0.2c-0.3,0.1-0.6,0.1-0.9,0.1c-0.5,0-2.3,0-2.6,0c-0.3,0-0.5-0.1-0.8-0.1c-0.5,0-1.1-0.2-1.6,0
		c0.4,0.4,0.8,0.8,1.3,1.1c0.5,0.3,1.1,0.4,1.7,0.4c0.6,0,1.2-0.1,1.9-0.1c0.6-0.1,1.3-0.2,1.9-0.2c0.7-0.1,1.3-0.2,1.9-0.4
		c0.6-0.1,1.3-0.3,1.9-0.4c0.5-0.1,1-0.2,1.5-0.3c0.1,0,0.3-0.1,0.4-0.1c0.3-0.1,0.6-0.1,1-0.2c0.1,0,0.3-0.1,0.4-0.1
		c0.7,0,1.4,0,2.1-0.2c0,0,0,0,0,0c0.3-0.1,0.6,0,0.8-0.1c0.3,0,0.6-0.1,1-0.2c0.2,0,0.3,0,0.5-0.1c0.5-0.1,1-0.1,1.4-0.2
		c0.6-0.2,1.3-0.2,1.9-0.3c0.7-0.1,1.3-0.2,2-0.3c0.6-0.2,1.3-0.3,1.9-0.4c0.6-0.1,1.2-0.3,1.8-0.5c0.5-0.2,1.1-0.5,1.5-0.9
		c0.4-0.4,0.6-1,0.9-1.5c-0.5,0-1,0.3-1.5,0.5C-284.1,283.7-284.3,283.8-284.6,284z"/>
	<path id="XMLID_414_" class="st1" d="M-382.6,275.2c-0.4-0.1-0.8-0.2-1.1-0.3c-0.5-0.4-0.9-0.8-1.3-1.1c-1.4-0.8-2.9-1.3-4.5-1.5
		c-2.9-0.2-5.7,0-8.4,0.9c-0.6,0.2-1.2,0.5-1.8,0.7c-1.3,0.6-2.3,1.5-3.3,2.4c-1.3,1.1-2.5,2.3-3.4,3.7c-0.4,0.6-0.8,1.2-0.9,1.9
		c-0.1,0.4-0.3,0.8-0.5,1.1c-0.4,0.6-0.6,1.2-0.6,1.9c-0.1,0.6-0.1,1.1-0.1,1.6c0.3,1,1,1.4,1.7,2c0.8,0.6,1.7,0.9,2.6,1.3
		c1.1,0.5,2.2,0.5,3.3,0.6c1,0.1,2,0,3-0.3c0.2-0.1,0.4-0.1,0.5-0.1c0.9,0.1,1.6-0.3,2.5-0.5c0.4-0.1,0.8-0.3,1.2-0.5
		c0.5-0.2,1-0.3,1.4-0.5c0.8-0.4,1.6-1,2.5-1.6c0.1,0,0.3-0.1,0.5-0.1c0.6-0.1,1.1-0.5,1.5-0.9c0.5-0.6,1.1-1.3,1.6-2
		c0.7-0.2,1.3-0.8,1.7-1.5c0.4-0.7,1.1-1.2,1.2-2c0-0.1,0.1-0.1,0.2-0.2c0.1-0.1,0.2-0.3,0.3-0.4c0.2-0.4,0.4-0.9,0.6-1.3
		c0-0.3,0-0.5-0.1-0.8C-381.9,276.7-381.9,275.9-382.6,275.2z M-385.4,279.1c-0.6,0.8-1.1,1.5-1.9,2.1c-1,0.8-2,1.6-3.2,2.2
		c-1,0.6-2,1.3-3,1.8c-1.8,0.9-3.6,1.8-5.5,2.4c-1,0.3-2.1,0.6-3.2,0.5c-0.8-0.1-1.6-0.3-2.4-0.4c-0.3-0.1-0.6-0.2-1-0.3
		c-0.6-0.1-1-0.6-1.5-0.9c-0.6-0.9-0.4-1.8-0.2-2.8c0-0.1,0.1-0.3,0.1-0.3c0.6-0.7,0.7-1.6,1.4-2.2c0.1-0.1,0.1-0.1,0.1-0.2
		c0-0.2,0-0.4,0-0.6c0.1-0.1,0.1-0.2,0.1-0.2c0.2-0.2,0.5-0.5,0.7-0.7c0.2-0.2,0.5-0.4,0.8-0.6c0.4-0.3,0.7-0.5,1.1-0.8
		c0.8-0.4,1.6-0.7,2.3-1.4c0,0,0.1-0.1,0.1-0.1c0.9-0.2,1.5-0.9,2.3-1.3c0.7-0.3,1.3-0.7,2-0.9c0.1,0,0.2-0.1,0.3-0.1
		c1.2-0.2,2.4-0.3,3.7-0.5c0.6-0.1,1.2,0,1.8,0c1-0.1,2,0.1,2.9,0.5c0.7,0.2,1.4,0.4,2.2,0.7c0.2,0.6,0.3,1.2,0.5,1.7
		C-384.9,277.6-384.9,278.4-385.4,279.1z"/>
	<path id="XMLID_415_" class="st1" d="M-390.5,275.2c-0.9,0.2-1.8,0.3-2.7,0.5c-1.7,0.3-3.3,0.8-4.8,1.9c-1.1,0.8-2.2,1.7-3.3,2.5
		c-0.9,0.6-1.5,1.4-2.2,2.3c-0.1,0.1-0.1,0.2-0.2,0.3c0,0,0.1,0.1,0.1,0.1c0.3-0.3,0.6-0.7,0.7-0.8c0.7-0.3,1.2-0.5,1.7-0.8
		c0.4-0.2,0.8-0.5,1.2-0.7c0.7-0.3,1.3-0.7,2.1-0.9c0.8-0.3,1.6-0.4,2.3-0.6c0.3-0.1,0.5-0.2,0.7-0.3c0.5-0.2,0.9-0.4,1.4-0.7
		c0.2-0.1,0.4-0.2,0.6-0.4c0.4-0.5,1-0.7,1.5-0.9c0.6-0.2,1.1-0.4,1.7-0.6c0.1-0.2,0.1-0.4,0.2-0.6
		C-390,275.1-390,275.1-390.5,275.2z"/>
	<path id="XMLID_420_" class="st2" d="M-279,279.2c-0.7-0.3-1.3-0.7-2-1.1c-0.6-0.4-1.1-0.8-1.7-1.3c-0.3-0.2-0.6-0.5-0.9-0.7
		c-0.3-0.2-0.6-0.4-0.9-0.6c-0.7-0.4-1.2-1-1.9-1.4c-0.7-0.4-1.4-0.9-2.1-1.2c-0.7-0.3-1.6-0.4-2.3-0.5c-0.2,0-0.4-0.1-0.7-0.1
		c-0.2,0-0.3,0-0.5,0c-0.4,0-0.7-0.1-1.1,0c-0.8,0.1-1.6,0.3-2.4,0.5c-0.4,0.1-0.8,0.2-1.2,0.3c-0.3,0.1-0.7,0.1-1,0.2c0,0,0,0,0,0
		c-0.8,0.1-1.6,0.3-2.3,0.6c0-0.1,0-0.2,0-0.4c-0.3,0-0.5,0.1-0.8,0.1c0,0,0,0-0.1,0c-0.4,0.1-0.7,0.2-1,0.2c-0.4,0-0.8,0-1.2,0.1
		c-0.8,0.1-1.6,0.2-2.4,0.4c-0.4,0.1-0.7,0.3-1,0.4c-0.2,0.1-0.3,0.1-0.5,0.1c-0.2,0.1-0.4,0.2-0.6,0.3c-0.7,0.4-1.5,0.7-2,1.2
		c-0.6,0.6-1.1,1.2-1.6,1.8c-0.5,0.6-0.8,1.3-1.3,2c-0.2,0.3-0.4,0.6-0.6,0.9c-0.2,0.3-0.4,0.7-0.6,1c-0.4,0.6-0.7,1.2-1.1,1.8
		c-0.5,0.6-0.9,1.2-1.5,1.7c-0.1,0.3,0.2,0.7,0.4,0.9c0.3,0.3,0.7,0.3,1,0.6c0.4,0.3,0.7,0.5,1,0.8c0.3,0.2,2.3,2.2,3.2,2.8
		c0.5,0.3,0.9,0.4,1.5,0.5c0.6,0.1,1.1,0.4,1.7,0.5c1.1,0.2,2.2,0.4,3.3,0.5c0.6,0,1.1,0.1,1.7,0.2c0.6,0.1,1.2,0.1,1.8,0.1
		c0.5,0.1,0.9,0.1,1.4,0.1c0,0,0,0,0,0c0.3,0,0.7,0,1,0c0.2,0,0.4,0,0.6,0c0.2,0,0.5-0.1,0.7-0.1c0,0,0,0,0.1,0c0.5,0,1-0.1,1.5-0.1
		c0.2,0,0.5,0,0.7-0.1c0.2-0.1,0.5-0.1,0.7-0.2c0.2-0.1,0.4-0.1,0.6-0.2c0.3-0.1,0.6-0.3,0.9-0.4c0,0,0,0,0,0
		c0.4-0.2,0.9-0.3,1.3-0.6c0.5-0.2,1.1-0.5,1.6-0.7c0.5-0.2,1-0.5,1.5-0.8c1-0.5,2-1,2.9-1.6c0.5-0.3,0.9-0.7,1.4-1.1
		c0.4-0.3,0.9-0.5,1.2-1c0.7-0.9,1.9-3.4,2.1-3.8c0.2-0.4,0.5-0.7,0.7-1.1c0.2-0.3,0.6-0.5,0.7-0.9
		C-278.9,279.9-278.8,279.5-279,279.2z M-309.1,277.3c0.2-0.2,0.4-0.3,0.6-0.5c0.2-0.2,0.4-0.4,0.6-0.5c0.5-0.3,1-0.5,1.5-0.7
		c0.5-0.2,1.1-0.4,1.7-0.5c0.2-0.1,0.5-0.1,0.7-0.2c0.3,0,0.5,0,0.8-0.1c0.3-0.1,0.5-0.2,0.7-0.2c0.3,0,0.5,0,0.8,0
		c0.3,0,0.6-0.1,0.9-0.2c0.2-0.1,0.5-0.1,0.8-0.1c0.6,0,1.1-0.1,1.7-0.1c0,0,0,0,0,0c0.2-0.1,0.5-0.1,0.7-0.1c0.3,0,0.6,0,0.8-0.1
		c0.3-0.1,0.5-0.2,0.7-0.3c0.3-0.1,0.5,0,0.8,0c0.3,0,0.5-0.1,0.8-0.2c0.2-0.1,0.5-0.1,0.8-0.1c0.6,0,1.2-0.1,1.7-0.1
		c0.6,0,1.1,0,1.7,0.1c0.3,0.1,0.5,0.2,0.8,0.3c0.2,0.1,0.5,0.2,0.8,0.2c0.4,0.2,0.8,0.4,1,0.8c-0.4,0.1-0.8-0.1-1.2-0.2
		c-0.5-0.1-0.9-0.1-1.4-0.1c-0.5,0-1,0.1-1.5,0.2c-0.5,0.1-0.9,0.1-1.4,0.2c-1,0.2-1.9,0.4-2.9,0.5c-0.4,0.1-0.7,0.1-1.1,0.2
		c-0.3,0-0.5,0.1-0.8,0.2c0,0,0,0.1,0,0.1c-0.1,0-0.2,0.1-0.4,0.1c-0.3,0-0.5,0.1-0.8,0.1c0,0,0,0,0,0c-0.3,0-0.6,0-0.9,0
		c-0.3,0-0.5,0-0.8,0.1c-0.4,0.1-0.7,0.1-1.1,0.2c-1,0.2-2,0.3-2.9,0.5c-0.5,0.1-0.9,0.2-1.4,0.3c-0.5,0.1-1,0.2-1.4,0.3
		c-0.4,0.2-0.9,0.3-1.3,0.5c-0.3,0.2-0.7,0.5-1.1,0.6C-309.7,278-309.5,277.6-309.1,277.3z M-298.7,276
		C-298.7,276-298.7,276-298.7,276C-298.8,276.1-298.8,276.1-298.7,276C-297.9,275.8-298.5,276-298.7,276z M-292.4,290.4
		c-0.1,0.1-0.3,0.1-0.4,0.2c-0.2,0.1-0.3,0.1-0.5,0.2c-0.5,0.2-1.1,0.5-1.7,0.7c0.2-0.1,0.1,0,0,0c0,0,0,0,0,0
		c-0.8,0.3-1.7,0.2-2.5,0.2c-0.5,0-0.9,0-1.4-0.1c-0.2,0-0.3,0-0.5,0c-0.2,0-0.3,0-0.5,0c-0.3,0-0.7,0-0.9-0.1
		c0-0.1,0.1-0.1,0.1-0.2c0.3-0.1,0.6-0.1,0.9-0.2c0.1,0,0.2-0.1,0.3-0.1c0.2-0.1,0.4-0.2,0.7-0.2c0.1,0,0.3-0.1,0.4-0.1
		c0.2-0.1,0.5-0.1,0.7-0.2c0.3,0,0.5,0,0.8,0c0.4,0,0.9,0,1.3-0.2c0.5-0.1,1-0.1,1.5-0.2c0.1,0,0.3,0,0.4,0c0.2,0,0.5,0,0.7,0
		c0.1,0,0.2,0,0.3,0c0.3,0,0.6-0.1,0.9-0.1c0.1,0.1,0.1,0.1,0.2,0.2C-291.8,290.2-292.1,290.3-292.4,290.4z M-283.2,284.5
		c-0.4,0.5-0.9,0.7-1.5,0.9c-0.6,0.2-1.2,0.4-1.8,0.5c-0.6,0.1-1.3,0.3-1.9,0.4c-0.6,0.2-1.3,0.2-2,0.3c-0.6,0.1-1.3,0.1-1.9,0.3
		c-0.5,0.1-1,0.2-1.4,0.2c-0.2,0-0.3,0-0.5,0.1c-0.3,0.1-0.6,0.1-1,0.2c-0.3,0-0.6,0-0.8,0.1c0,0,0,0,0,0c-0.7,0.1-1.4,0.2-2.1,0.2
		c-0.1,0-0.3,0.1-0.4,0.1c-0.3,0.1-0.6,0.1-1,0.2c-0.1,0-0.3,0.1-0.4,0.1c-0.5,0.1-1,0.2-1.5,0.3c-0.6,0.1-1.3,0.2-1.9,0.4
		c-0.6,0.1-1.3,0.3-1.9,0.4c-0.6,0.1-1.3,0.2-1.9,0.2c-0.6,0.1-1.2,0.2-1.9,0.1c-0.6,0-1.2-0.1-1.7-0.4c-0.5-0.3-0.9-0.7-1.3-1.1
		c0.5-0.2,1.1,0,1.6,0c0.3,0,0.6,0,0.8,0.1c0.2,0,2,0,2.6,0c0.3,0,0.6,0,0.9-0.1c0.3-0.1,0.5-0.1,0.8-0.2c0.6-0.1,1.1-0.2,1.7-0.3
		c0.6-0.1,1.1-0.1,1.7-0.2c0.6-0.1,1.1-0.4,1.7-0.5c0.1,0,0.3-0.1,0.4-0.1c0.3-0.1,0.7-0.2,1-0.2c0.1,0,0.2-0.1,0.3-0.1
		c0.2-0.1,0.4-0.1,0.6-0.2c0.2,0,0.5-0.1,0.7-0.1c0.6,0,1.1,0.1,1.7,0c0.1,0,0.2,0,0.4,0c0.3,0,0.7-0.1,1-0.1c0.1,0,0.2,0,0.4,0
		c0.6,0,1.2,0,1.8-0.1c0.6-0.1,1.1-0.2,1.7-0.4c0.5-0.1,1.1-0.2,1.6-0.3c0.3-0.1,0.5-0.1,0.8-0.1c0.3,0,0.6-0.2,0.9-0.2
		c0.5-0.2,2.2-0.8,2.4-0.9c0.2-0.1,0.5-0.3,0.7-0.4c0.4-0.2,1-0.5,1.5-0.5C-282.6,283.6-282.9,284.1-283.2,284.5z M-281.9,279.4
		c-0.3,0.1-0.6,0.2-0.9,0.3c-0.8,0.1-1.5,0.3-2.3,0.4c-0.8,0.1-1.5,0.1-2.3,0.2c-0.7,0.1-1.5,0.1-2.2,0.3c-0.4,0.1-0.7,0.3-1,0.4
		c-0.3,0.1-0.7,0.1-1,0.2c-0.7,0.1-1.4,0.3-2.1,0.4c-0.5,0.1-1,0.2-1.6,0.3c-0.2,0-0.4,0.1-0.6,0.1c-0.7,0.1-1.5,0.3-2.2,0.4
		c0,0,0,0,0,0c-0.4,0.1-0.7,0.1-1.1,0.2c0-0.1,0-0.2,0-0.2c-0.1,0-0.2,0-0.3,0.1c-0.2,0-0.4,0.1-0.6,0.1c-0.5,0.1-1.1,0.1-1.6,0.2
		c-0.7,0.1-1.4,0.2-2.1,0.4c-0.3,0.1-0.7,0.2-1,0.2c-0.4,0-0.7-0.1-1.1,0c-0.8,0-1.4,0.4-2.2,0.5c-0.8,0.1-1.5,0.4-2.2,0.6
		c-0.8,0.2-1.5,0.3-2.3,0.4c-0.3,0.1-0.6,0-0.9,0c-0.3,0-0.6,0.1-0.9,0.1c0.1-0.2,0.2-0.3,0.4-0.5c0.2-0.2,0.3-0.4,0.4-0.6
		c0.8-0.5,1.5-1,2.4-1.2c0.8-0.2,1.7-0.3,2.5-0.5c0.3-0.1,0.6-0.3,0.9-0.4c0.3-0.1,0.7-0.1,1-0.1c0.7-0.1,1.4-0.2,2.1-0.3
		c0.3-0.1,0.7-0.2,1-0.3c0.4-0.1,0.8-0.1,1.2-0.1c0.3,0,0.7-0.1,1-0.2c0.2,0,0.3,0,0.5,0c0.1,0,0.2,0,0.3-0.1c0.2,0,0.4,0,0.6,0
		c0.1,0,0.2,0,0.3,0c0.2,0,0.4-0.1,0.6-0.1c0.2,0,0.3,0,0.5,0c0.6,0,1.2,0,1.8-0.1c0.1,0,0.2-0.1,0.3-0.1c0.2,0,0.4-0.1,0.6-0.1
		c0.1,0,0.3-0.1,0.4-0.1c0.2,0,0.3-0.1,0.5-0.2c0.1,0,0.2,0,0.3,0c0.2-0.1,0.3-0.1,0.5-0.2c0.3-0.1,0.7-0.1,1-0.2
		c0.4-0.1,0.8-0.2,1.1-0.3c0.4-0.1,0.7-0.1,1.1-0.1c0.7-0.1,1.4-0.3,2.1-0.4c0.3,0,0.6-0.2,1-0.2c0.3,0,0.6,0,1,0
		c0.8-0.1,1.7-0.3,2.5-0.4c0.9-0.1,1.8,0.1,2.7,0.3c0.2,0.1,0.4,0.3,0.6,0.4c0.2,0.1,0.4,0.2,0.5,0.3
		C-281.3,279.3-281.6,279.3-281.9,279.4z"/>
	<path id="XMLID_425_" class="st3" d="M-341.1,312c-0.3,0.1-0.6,0.2-0.9,0.4c-0.8,0.3-1.7,0.6-2.7,0.8c-1,0.3-2.1,0.5-3.3,0.6
		c-1.2,0.1-2.5,0.2-3.8,0.3c-1.3,0-2.8,0.1-4.1,0c-0.7,0-1.4,0-2.1-0.1c-0.7,0-1.4-0.2-2.1-0.3l-1-0.1c-0.3-0.1-0.7-0.2-1-0.2
		c-0.7-0.2-1.3-0.3-2-0.5c-0.6-0.2-1.2-0.4-1.9-0.7c-0.6-0.3-1.1-0.6-1.7-0.8c-1.1-0.6-2.1-1.2-3-2c-0.5-0.3-0.9-0.8-1.3-1.1
		c-0.4-0.4-0.8-0.8-1.1-1.2c-0.4-0.4-0.7-0.8-0.9-1.2c-0.3-0.4-0.5-0.8-0.8-1.2c-0.2-0.4-0.5-0.7-0.6-1.1c-0.2-0.3-0.4-0.7-0.5-1
		c-0.6-1.2-0.8-1.9-0.8-1.9l-0.3,0c0,0,0,0.8,0.4,2.1c0.1,0.3,0.2,0.7,0.3,1.1c0.1,0.4,0.3,0.8,0.4,1.2c0.2,0.4,0.4,0.9,0.6,1.4
		c0.2,0.5,0.5,1,0.8,1.4c0.3,0.5,0.6,1,1,1.5c0.4,0.5,0.8,1,1.3,1.5c0.9,1,2,1.8,3.2,2.6c0.6,0.4,1.2,0.7,1.9,1.1
		c0.7,0.3,1.4,0.6,2.1,0.9c0.7,0.3,1.5,0.4,2.2,0.7c0.4,0.1,0.7,0.2,1.1,0.3l1.1,0.2c0.8,0.1,1.5,0.3,2.3,0.3c0.8,0,1.5,0.1,2.3,0.1
		c1.5,0.1,3,0,4.4-0.1c2.9-0.2,5.5-0.7,7.7-1.4c2.2-0.7,3.9-1.6,5-2.4c0.3-0.2,0.5-0.3,0.7-0.5l-0.1-0.1L-341.1,312z"/>
	<path id="XMLID_426_" class="st3" d="M-345.6,311l4.5,1l2.9,0.6l0.1,0.1l4.6,5.9c-0.6-4.3-0.1-10.2,0.9-14.6
		C-336.3,306.8-341.5,309.8-345.6,311z"/>
	<path id="XMLID_427_" class="st3" d="M-316.9,265.8c0-0.4-0.1-0.8-0.2-1.3c-0.1-0.5-0.1-1-0.3-1.5c-0.1-0.5-0.2-1-0.5-1.6
		c-0.2-0.5-0.4-1.1-0.7-1.7c-0.3-0.6-0.5-1.2-0.9-1.7c-0.7-1.1-1.5-2.2-2.5-3.3c-0.5-0.5-1-1-1.6-1.5c-0.6-0.4-1.2-0.9-1.8-1.3
		c-0.6-0.4-1.3-0.8-2-1.1c-0.3-0.2-0.7-0.4-1-0.5l-1.1-0.4c-0.7-0.3-1.4-0.6-2.1-0.8c-0.7-0.2-1.5-0.4-2.2-0.6
		c-1.4-0.4-2.9-0.7-4.3-0.9c-2.8-0.4-5.5-0.5-7.8-0.3c-2.3,0.2-4.2,0.7-5.4,1.2c-0.3,0.1-0.6,0.2-0.8,0.3l0,0.1l2.7,1.3
		c0.3-0.1,0.6-0.1,0.9-0.2c0.8-0.1,1.8-0.2,2.8-0.2c1,0,2.2,0,3.4,0.1c1.2,0.1,2.5,0.3,3.8,0.5c1.2,0.3,2.7,0.5,4,1
		c0.7,0.2,1.3,0.4,2,0.5c0.7,0.2,1.3,0.5,1.9,0.7l1,0.4c0.3,0.1,0.6,0.3,0.9,0.5c0.6,0.3,1.2,0.6,1.8,0.9c0.6,0.4,1.1,0.7,1.7,1.1
		c0.5,0.4,1,0.8,1.5,1.2c1,0.8,1.8,1.7,2.5,2.6c0.4,0.4,0.7,0.9,1,1.4c0.3,0.5,0.6,1,0.8,1.4c0.3,0.5,0.5,0.9,0.7,1.4
		c0.2,0.4,0.4,0.9,0.5,1.3c0.1,0.4,0.3,0.8,0.4,1.2c0.1,0.4,0.2,0.7,0.3,1c0.3,1.3,0.3,2.1,0.3,2.1l0.3,0c0,0,0.1-0.8,0.1-2.1
		C-316.8,266.6-316.8,266.2-316.9,265.8z"/>
	<path id="XMLID_428_" class="st3" d="M-352.1,248.7l-3.1-6.8c-0.3,4.3-2.2,10-4.2,14.1c4.1-1.8,9.8-3.6,14.2-3.9l-4.2-2
		L-352.1,248.7L-352.1,248.7z"/>
</g>
</svg>
