<?xml version="1.0" encoding="utf-8"?>
<!-- Generator: Adobe Illustrator 19.0.0, SVG Export Plug-In . SVG Version: 6.00 Build 0)  -->
<svg version="1.1" id="Camada_1" xmlns="http://www.w3.org/2000/svg" xmlns:xlink="http://www.w3.org/1999/xlink" x="0px" y="0px"
	 viewBox="0 0 98 30" style="enable-background:new 0 0 98 30;" xml:space="preserve">
<style type="text/css">
	.st0{fill:#ADC77F;}
	.st1{fill:#EFEBE6;}
</style>
<g id="XMLID_8755_">
	<rect id="XMLID_8756_" class="st0" width="98" height="30"/>
</g>
<g id="XMLID_8723_">
	<g id="XMLID_8725_">
		<rect id="XMLID_236_" x="16.2" y="6.2" class="st1" width="2" height="17.5"/>
	</g>
	<g id="XMLID_8724_">
		<rect id="XMLID_234_" x="8.5" y="14" class="st1" width="17.5" height="2"/>
	</g>
</g>
<g>
	<g>
		<path class="st1" d="M38.6,5.3h1.7l2.5,7.2h-1.6L40.7,11h-2.7l-0.5,1.5H36L38.6,5.3z M38.5,9.8h1.8l-0.9-2.8L38.5,9.8z"/>
		<path class="st1" d="M48.1,5.5c0.5,0.2,0.9,0.5,1.2,0.9c0.3,0.4,0.4,0.7,0.5,1.2s0.1,0.8,0.1,1.2c0,1-0.2,1.8-0.6,2.4
			c-0.5,0.9-1.3,1.3-2.4,1.3h-3.1V5.3h3.1C47.4,5.3,47.8,5.4,48.1,5.5z M45.3,6.6v4.7h1.4c0.7,0,1.2-0.3,1.5-1
			c0.2-0.4,0.2-0.8,0.2-1.4c0-0.7-0.1-1.3-0.3-1.7c-0.2-0.4-0.7-0.6-1.4-0.6H45.3z"/>
		<path class="st1" d="M55.4,5.5c0.5,0.2,0.9,0.5,1.2,0.9c0.3,0.4,0.4,0.7,0.5,1.2s0.1,0.8,0.1,1.2c0,1-0.2,1.8-0.6,2.4
			c-0.5,0.9-1.3,1.3-2.4,1.3h-3.1V5.3h3.1C54.7,5.3,55.1,5.4,55.4,5.5z M52.6,6.6v4.7H54c0.7,0,1.2-0.3,1.5-1
			c0.2-0.4,0.2-0.8,0.2-1.4c0-0.7-0.1-1.3-0.3-1.7c-0.2-0.4-0.7-0.6-1.4-0.6H52.6z"/>
		<path class="st1" d="M37.6,22.3c0,0.3,0.1,0.6,0.3,0.7c0.2,0.3,0.7,0.4,1.3,0.4c0.4,0,0.7,0,0.9-0.1c0.4-0.1,0.6-0.4,0.6-0.8
			c0-0.2-0.1-0.4-0.3-0.6c-0.2-0.1-0.5-0.2-1-0.3l-0.8-0.2c-0.8-0.2-1.3-0.4-1.6-0.6c-0.5-0.3-0.7-0.9-0.7-1.6
			c0-0.6,0.2-1.2,0.7-1.6s1.2-0.6,2.1-0.6c0.8,0,1.4,0.2,2,0.6c0.5,0.4,0.8,1,0.9,1.8h-1.4c0-0.4-0.2-0.7-0.6-0.9
			c-0.2-0.1-0.5-0.2-0.9-0.2c-0.4,0-0.7,0.1-1,0.2c-0.2,0.2-0.4,0.4-0.4,0.7c0,0.3,0.1,0.4,0.4,0.6c0.1,0.1,0.5,0.2,1,0.3l1.3,0.3
			c0.6,0.1,1,0.3,1.2,0.5c0.4,0.3,0.6,0.8,0.6,1.5c0,0.7-0.3,1.2-0.8,1.6c-0.5,0.4-1.2,0.7-2.2,0.7c-0.9,0-1.7-0.2-2.2-0.6
			c-0.5-0.4-0.8-1-0.8-1.8H37.6z"/>
		<path class="st1" d="M48.6,18.6h-3.8v1.5h3.5v1.2h-3.5v1.9h4v1.3h-5.5v-7.2h5.3V18.6z"/>
		<path class="st1" d="M55.4,18.6h-3.8v1.5h3.5v1.2h-3.5v1.9h4v1.3h-5.5v-7.2h5.3V18.6z"/>
		<path class="st1" d="M61,17.5c0.5,0.2,0.9,0.5,1.2,0.9c0.3,0.4,0.4,0.7,0.5,1.2s0.1,0.8,0.1,1.2c0,1-0.2,1.8-0.6,2.4
			c-0.5,0.9-1.3,1.3-2.4,1.3h-3.1v-7.2h3.1C60.4,17.3,60.7,17.4,61,17.5z M58.3,18.5v4.7h1.4c0.7,0,1.2-0.3,1.5-1
			c0.2-0.4,0.2-0.8,0.2-1.4c0-0.7-0.1-1.3-0.3-1.7c-0.2-0.4-0.7-0.6-1.4-0.6H58.3z"/>
	</g>
</g>
</svg>
