<?xml version="1.0" encoding="utf-8"?>
<!-- Generator: Adobe Illustrator 19.0.0, SVG Export Plug-In . SVG Version: 6.00 Build 0)  -->
<svg version="1.1" id="Camada_1" xmlns="http://www.w3.org/2000/svg" xmlns:xlink="http://www.w3.org/1999/xlink" x="0px" y="0px"
	 viewBox="28 -10 153 50" style="enable-background:new 28 -10 153 50;" xml:space="preserve">
<style type="text/css">
	.st0{fill:#D3865F;}
	.st1{fill:#FFFFFF;}
</style>
<rect id="XMLID_2632_" x="28" y="-10" class="st0" width="153" height="50"/>
<g>
	<g>
		<path class="st1" d="M76.9,13c0.8-0.8,1.8-1.2,3.1-1.2c1.7,0,2.9,0.6,3.7,1.7c0.4,0.6,0.7,1.3,0.7,1.9h-2.1
			c-0.1-0.5-0.3-0.8-0.5-1.1c-0.4-0.4-0.9-0.7-1.7-0.7c-0.8,0-1.3,0.3-1.8,0.9c-0.4,0.6-0.6,1.5-0.6,2.6s0.2,2,0.7,2.5
			c0.5,0.6,1,0.8,1.7,0.8c0.7,0,1.3-0.2,1.7-0.7c0.2-0.3,0.4-0.6,0.5-1.2h2.1c-0.2,1.1-0.6,2-1.4,2.7c-0.7,0.7-1.7,1-2.9,1
			c-1.4,0-2.6-0.5-3.4-1.4c-0.8-0.9-1.2-2.2-1.2-3.8C75.5,15.3,75.9,13.9,76.9,13z"/>
		<path class="st1" d="M89,11.9h2.4L95,22h-2.3L92,19.9h-3.7L87.6,22h-2.2L89,11.9z M88.9,18.2h2.6l-1.3-4L88.9,18.2z"/>
		<path class="st1" d="M96.4,11.9h2.2l4,7v-7h2V22h-2.1l-4.1-7.1V22h-2V11.9z"/>
		<path class="st1" d="M107.6,13c0.8-0.8,1.8-1.2,3.1-1.2c1.7,0,2.9,0.6,3.7,1.7c0.4,0.6,0.7,1.3,0.7,1.9H113
			c-0.1-0.5-0.3-0.8-0.5-1.1c-0.4-0.4-0.9-0.7-1.7-0.7c-0.8,0-1.3,0.3-1.8,0.9c-0.4,0.6-0.6,1.5-0.6,2.6s0.2,2,0.7,2.5
			c0.5,0.6,1,0.8,1.7,0.8c0.7,0,1.3-0.2,1.7-0.7c0.2-0.3,0.4-0.6,0.5-1.2h2.1c-0.2,1.1-0.6,2-1.4,2.7s-1.7,1-2.9,1
			c-1.4,0-2.6-0.5-3.4-1.4c-0.8-0.9-1.2-2.2-1.2-3.8C106.2,15.3,106.7,13.9,107.6,13z"/>
		<path class="st1" d="M124.4,13.7H119v2.1h4.9v1.8H119v2.6h5.6V22H117V11.9h7.4V13.7z"/>
		<path class="st1" d="M126.4,11.9h2.1v8.3h5V22h-7.1V11.9z"/>
	</g>
</g>
</svg>
