<?xml version="1.0" encoding="utf-8"?>
<!-- Generator: Adobe Illustrator 19.0.0, SVG Export Plug-In . SVG Version: 6.00 Build 0)  -->
<svg version="1.1" id="Camada_1" xmlns="http://www.w3.org/2000/svg" xmlns:xlink="http://www.w3.org/1999/xlink" x="0px" y="0px"
	 viewBox="28 -10 153 50" style="enable-background:new 28 -10 153 50;" xml:space="preserve">
<style type="text/css">
	.st0{fill:#ADC77F;}
	.st1{fill:#FFFFFF;}
</style>
<rect id="XMLID_2632_" x="28" y="-10" class="st0" width="153" height="50"/>
<g>
	<g>
		<path class="st1" d="M87.4,19.2c0.1,0.5,0.2,0.8,0.4,1c0.3,0.4,0.9,0.6,1.8,0.6c0.5,0,0.9-0.1,1.2-0.2c0.6-0.2,0.9-0.6,0.9-1.2
			c0-0.3-0.1-0.6-0.4-0.8c-0.3-0.2-0.8-0.3-1.4-0.5l-1.1-0.2c-1.1-0.2-1.8-0.5-2.2-0.8c-0.7-0.5-1-1.2-1-2.2c0-0.9,0.3-1.7,1-2.2
			c0.7-0.6,1.6-0.9,2.9-0.9c1.1,0,2,0.3,2.8,0.8c0.8,0.6,1.2,1.4,1.2,2.5h-2c0-0.6-0.3-1-0.8-1.3c-0.3-0.2-0.8-0.3-1.3-0.3
			c-0.6,0-1,0.1-1.3,0.3s-0.5,0.5-0.5,0.9c0,0.4,0.2,0.6,0.5,0.8c0.2,0.1,0.7,0.3,1.3,0.4l1.8,0.4c0.8,0.2,1.4,0.4,1.7,0.7
			c0.6,0.5,0.9,1.2,0.9,2.1c0,0.9-0.4,1.7-1.1,2.3c-0.7,0.6-1.7,0.9-3,0.9c-1.3,0-2.4-0.3-3.1-0.9c-0.8-0.6-1.1-1.4-1.1-2.5H87.4z"
			/>
		<path class="st1" d="M102.8,14h-5.3v2.1h4.9v1.8h-4.9v2.6h5.6v1.8h-7.6V12.3h7.4V14z"/>
		<path class="st1" d="M104.8,12.3h2.2l4,7v-7h2v10.1h-2.1l-4.1-7.1v7.1h-2V12.3z"/>
		<path class="st1" d="M121,12.5c0.7,0.2,1.3,0.7,1.7,1.3c0.4,0.5,0.6,1,0.7,1.6c0.1,0.6,0.2,1.1,0.2,1.7c0,1.3-0.3,2.5-0.8,3.4
			c-0.7,1.3-1.9,1.9-3.4,1.9h-4.3V12.3h4.3C120.1,12.3,120.6,12.3,121,12.5z M117.1,14v6.6h1.9c1,0,1.7-0.5,2.1-1.5
			c0.2-0.5,0.3-1.2,0.3-1.9c0-1-0.2-1.8-0.5-2.4c-0.3-0.5-1-0.8-1.9-0.8H117.1z"/>
	</g>
</g>
</svg>
