<?xml version="1.0" encoding="utf-8"?>
<!-- Generator: Adobe Illustrator 19.0.0, SVG Export Plug-In . SVG Version: 6.00 Build 0)  -->
<svg version="1.1" id="Camada_1" xmlns="http://www.w3.org/2000/svg" xmlns:xlink="http://www.w3.org/1999/xlink" x="0px" y="0px"
	 viewBox="28 -10 153 50" style="enable-background:new 28 -10 153 50;" xml:space="preserve">
<style type="text/css">
	.st0{fill:#ADC77F;}
	.st1{fill:#FFFFFF;}
</style>
<rect id="XMLID_2632_" x="28" y="-10" class="st0" width="153" height="50"/>
<g>
	<g>
		<path class="st1" d="M88.3,19.1c0.1,0.5,0.2,0.8,0.4,1c0.3,0.4,0.9,0.6,1.8,0.6c0.5,0,0.9-0.1,1.2-0.2c0.6-0.2,0.9-0.6,0.9-1.2
			c0-0.3-0.1-0.6-0.4-0.8c-0.3-0.2-0.8-0.3-1.4-0.5L89.7,18c-1.1-0.2-1.8-0.5-2.2-0.8c-0.7-0.5-1-1.2-1-2.2c0-0.9,0.3-1.7,1-2.2
			c0.7-0.6,1.6-0.9,2.9-0.9c1.1,0,2,0.3,2.8,0.8c0.8,0.6,1.2,1.4,1.2,2.5h-2c0-0.6-0.3-1-0.8-1.3c-0.3-0.2-0.8-0.3-1.3-0.3
			c-0.6,0-1,0.1-1.3,0.3s-0.5,0.5-0.5,0.9c0,0.4,0.2,0.6,0.5,0.8c0.2,0.1,0.7,0.3,1.3,0.4l1.8,0.4c0.8,0.2,1.4,0.4,1.7,0.7
			c0.6,0.5,0.9,1.2,0.9,2.1c0,0.9-0.4,1.7-1.1,2.3c-0.7,0.6-1.7,0.9-3,0.9c-1.3,0-2.4-0.3-3.1-0.9c-0.8-0.6-1.1-1.4-1.1-2.5H88.3z"
			/>
		<path class="st1" d="M99.2,12.2h2.4l3.6,10.1h-2.3l-0.7-2.1h-3.7l-0.7,2.1h-2.2L99.2,12.2z M99,18.4h2.6l-1.3-4L99,18.4z"/>
		<path class="st1" d="M111.4,12.2h2.2l-3.4,10.1h-2l-3.4-10.1h2.2l2.2,7.6L111.4,12.2z"/>
		<path class="st1" d="M122.4,13.9h-5.3v2.1h4.9v1.8h-4.9v2.6h5.6v1.8H115V12.2h7.4V13.9z"/>
	</g>
</g>
</svg>
