<?xml version="1.0" encoding="utf-8"?>
<!-- Generator: Adobe Illustrator 19.0.0, SVG Export Plug-In . SVG Version: 6.00 Build 0)  -->
<svg version="1.1" id="Camada_1" xmlns="http://www.w3.org/2000/svg" xmlns:xlink="http://www.w3.org/1999/xlink" x="0px" y="0px"
	 viewBox="28 -10 153 50" style="enable-background:new 28 -10 153 50;" xml:space="preserve">
<style type="text/css">
	.st0{fill:#ADC77F;}
	.st1{fill:#FFFFFF;}
</style>
<rect id="XMLID_2632_" x="28" y="-10" class="st0" width="153" height="50"/>
<g>
	<g>
		<path class="st1" d="M81,12.1h2.1v8.3h5v1.8H81V12.1z"/>
		<path class="st1" d="M97.4,21.3c-0.8,0.8-1.9,1.2-3.3,1.2s-2.5-0.4-3.3-1.2c-1-1-1.5-2.3-1.5-4.2c0-1.8,0.5-3.2,1.5-4.2
			c0.8-0.8,1.9-1.2,3.3-1.2s2.5,0.4,3.3,1.2c1,0.9,1.5,2.3,1.5,4.2C99,19,98.5,20.4,97.4,21.3z M96.1,19.8c0.5-0.6,0.7-1.5,0.7-2.6
			c0-1.1-0.2-2-0.7-2.6c-0.5-0.6-1.2-0.9-2-0.9s-1.5,0.3-2,0.9s-0.7,1.5-0.7,2.6s0.2,2,0.7,2.6s1.2,0.9,2,0.9S95.6,20.4,96.1,19.8z"
			/>
		<path class="st1" d="M107.5,15.3c-0.2-0.7-0.5-1.2-1.2-1.4c-0.3-0.2-0.7-0.2-1.2-0.2c-0.8,0-1.5,0.3-2,0.9
			c-0.5,0.6-0.8,1.5-0.8,2.8c0,1.2,0.3,2.1,0.8,2.6c0.6,0.5,1.2,0.8,1.9,0.8c0.7,0,1.3-0.2,1.7-0.6c0.5-0.4,0.7-0.9,0.8-1.6h-2.3
			v-1.7h4.2v5.4h-1.4L108,21c-0.4,0.5-0.8,0.8-1.1,1c-0.6,0.3-1.2,0.5-2.1,0.5c-1.3,0-2.4-0.5-3.3-1.4c-0.9-0.9-1.3-2.2-1.3-3.8
			c0-1.6,0.4-2.9,1.3-3.9s2.1-1.5,3.6-1.5c1.3,0,2.3,0.3,3.1,1c0.8,0.6,1.2,1.5,1.3,2.4H107.5z"/>
		<path class="st1" d="M117.7,22.2h-2.1V12.1h2.1V22.2z"/>
		<path class="st1" d="M119.8,12.1h2.2l4,7v-7h2v10.1h-2.1l-4.1-7.1v7.1h-2V12.1z"/>
	</g>
</g>
</svg>
