<?xml version="1.0" encoding="utf-8"?>
<!-- Generator: Adobe Illustrator 19.0.0, SVG Export Plug-In . SVG Version: 6.00 Build 0)  -->
<svg version="1.1" id="Camada_1" xmlns="http://www.w3.org/2000/svg" xmlns:xlink="http://www.w3.org/1999/xlink" x="0px" y="0px"
	 viewBox="-19 4 58 23" style="enable-background:new -19 4 58 23;" xml:space="preserve">
<style type="text/css">
	.st0{fill:#FFFFFF;}
	.st1{fill:#C5C5C5;}
	.st2{fill:#CDC4BD;}
</style>
<g id="XMLID_19466_">
	<rect id="XMLID_42_" x="-18.5" y="4.5" class="st0" width="57" height="22"/>
	<path id="XMLID_39_" class="st1" d="M38,5v21h-56V5H38 M39,4h-58v23h58V4L39,4z"/>
</g>
<g id="XMLID_1579_">
	<path id="XMLID_1620_" class="st2" d="M0.2,10.3h2.2l4,7v-7h2v10.1H6.3l-4.1-7.1v7.1h-2V10.3z"/>
	<path id="XMLID_1617_" class="st2" d="M18.3,19.5c-0.8,0.8-1.9,1.2-3.3,1.2c-1.4,0-2.5-0.4-3.3-1.2c-1-1-1.5-2.3-1.5-4.2
		c0-1.8,0.5-3.2,1.5-4.2c0.8-0.8,1.9-1.2,3.3-1.2c1.4,0,2.5,0.4,3.3,1.2c1,0.9,1.5,2.3,1.5,4.2C19.8,17.2,19.3,18.6,18.3,19.5z
		 M16.9,18c0.5-0.6,0.7-1.5,0.7-2.6c0-1.1-0.2-2-0.7-2.6c-0.5-0.6-1.2-0.9-2-0.9s-1.5,0.3-2,0.9c-0.5,0.6-0.7,1.5-0.7,2.6
		s0.2,2,0.7,2.6c0.5,0.6,1.2,0.9,2,0.9S16.5,18.6,16.9,18z"/>
</g>
</svg>
