<?xml version="1.0" encoding="utf-8"?>
<!-- Generator: Adobe Illustrator 19.0.0, SVG Export Plug-In . SVG Version: 6.00 Build 0)  -->
<svg version="1.1" id="Camada_1" xmlns="http://www.w3.org/2000/svg" xmlns:xlink="http://www.w3.org/1999/xlink" x="0px" y="0px"
	 viewBox="0 0 98 30" style="enable-background:new 0 0 98 30;" xml:space="preserve">
<style type="text/css">
	.st0{fill:#ADC77F;}
	.st1{fill:#EFEBE6;}
</style>
<g id="XMLID_19141_">
	<rect id="XMLID_19147_" class="st0" width="98" height="30"/>
</g>
<g id="XMLID_7664_">
	<g id="XMLID_7666_">
		<rect id="XMLID_527_" x="16.2" y="6.2" class="st1" width="2" height="17.5"/>
	</g>
	<g id="XMLID_7665_">
		<rect id="XMLID_526_" x="8.5" y="14" class="st1" width="17.5" height="2"/>
	</g>
</g>
<g>
	<g>
		<path class="st1" d="M34.3,5.8h1.6l2.9,5v-5h1.4V13h-1.5l-2.9-5.1V13h-1.4V5.8z"/>
		<path class="st1" d="M47,7.1h-3.8v1.5h3.5v1.2h-3.5v1.9h4V13h-5.5V5.8H47V7.1z"/>
		<path class="st1" d="M49.4,5.8l1,4.1l0.2,1.1l0.2-1.1l0.8-4.1h1.6L54,9.9l0.2,1.1l0.2-1.1l1-4.2h1.5l-2,7.2h-1.4l-0.9-4.2
			l-0.3-1.4l-0.3,1.4L51.2,13h-1.4l-2-7.2H49.4z"/>
		<path class="st1" d="M39.1,17.8h2.2V25h-1.4v-4.9c0-0.1,0-0.3,0-0.6c0-0.3,0-0.4,0-0.6l-1.4,6H37l-1.4-6c0,0.1,0,0.3,0,0.6
			c0,0.3,0,0.4,0,0.6V25h-1.4v-7.2h2.2l1.3,5.7L39.1,17.8z"/>
		<path class="st1" d="M48.1,19.1h-3.8v1.5h3.5v1.2h-3.5v1.9h4V25h-5.5v-7.2h5.3V19.1z"/>
		<path class="st1" d="M50.6,22.8c0,0.3,0.1,0.6,0.3,0.7c0.2,0.3,0.7,0.4,1.3,0.4c0.4,0,0.7,0,0.9-0.1c0.4-0.1,0.6-0.4,0.6-0.8
			c0-0.2-0.1-0.4-0.3-0.6c-0.2-0.1-0.5-0.2-1-0.3L51.6,22c-0.8-0.2-1.3-0.4-1.6-0.6c-0.5-0.3-0.7-0.9-0.7-1.6c0-0.6,0.2-1.2,0.7-1.6
			s1.2-0.6,2.1-0.6c0.8,0,1.4,0.2,2,0.6c0.5,0.4,0.8,1,0.9,1.8h-1.4c0-0.4-0.2-0.7-0.6-0.9c-0.2-0.1-0.5-0.2-0.9-0.2
			c-0.4,0-0.7,0.1-1,0.2c-0.2,0.2-0.4,0.4-0.4,0.7c0,0.3,0.1,0.4,0.4,0.6c0.1,0.1,0.5,0.2,1,0.3l1.3,0.3c0.6,0.1,1,0.3,1.2,0.5
			c0.4,0.3,0.6,0.8,0.6,1.5c0,0.7-0.3,1.2-0.8,1.6c-0.5,0.4-1.2,0.7-2.2,0.7c-0.9,0-1.7-0.2-2.2-0.6c-0.5-0.4-0.8-1-0.8-1.8H50.6z"
			/>
		<path class="st1" d="M57.4,22.8c0,0.3,0.1,0.6,0.3,0.7c0.2,0.3,0.7,0.4,1.3,0.4c0.4,0,0.7,0,0.9-0.1c0.4-0.1,0.6-0.4,0.6-0.8
			c0-0.2-0.1-0.4-0.3-0.6c-0.2-0.1-0.5-0.2-1-0.3L58.4,22c-0.8-0.2-1.3-0.4-1.6-0.6c-0.5-0.3-0.7-0.9-0.7-1.6c0-0.6,0.2-1.2,0.7-1.6
			s1.2-0.6,2.1-0.6c0.8,0,1.4,0.2,2,0.6c0.5,0.4,0.8,1,0.9,1.8h-1.4c0-0.4-0.2-0.7-0.6-0.9c-0.2-0.1-0.5-0.2-0.9-0.2
			c-0.4,0-0.7,0.1-1,0.2c-0.2,0.2-0.4,0.4-0.4,0.7c0,0.3,0.1,0.4,0.4,0.6c0.1,0.1,0.5,0.2,1,0.3l1.3,0.3c0.6,0.1,1,0.3,1.2,0.5
			c0.4,0.3,0.6,0.8,0.6,1.5c0,0.7-0.3,1.2-0.8,1.6c-0.5,0.4-1.2,0.7-2.2,0.7c-0.9,0-1.7-0.2-2.2-0.6c-0.5-0.4-0.8-1-0.8-1.8H57.4z"
			/>
		<path class="st1" d="M65.1,17.8h1.7l2.5,7.2h-1.6l-0.5-1.5h-2.7L64.1,25h-1.6L65.1,17.8z M65,22.3h1.8L66,19.5L65,22.3z"/>
		<path class="st1" d="M75.2,20.1c-0.1-0.5-0.4-0.8-0.8-1c-0.2-0.1-0.5-0.2-0.8-0.2c-0.6,0-1.1,0.2-1.4,0.7c-0.4,0.4-0.6,1.1-0.6,2
			c0,0.9,0.2,1.5,0.6,1.9s0.9,0.6,1.4,0.6c0.5,0,0.9-0.1,1.2-0.4c0.3-0.3,0.5-0.7,0.6-1.1h-1.7v-1.2h3V25h-1l-0.2-0.9
			c-0.3,0.3-0.6,0.6-0.8,0.7c-0.4,0.2-0.9,0.4-1.5,0.4c-1,0-1.7-0.3-2.3-1c-0.6-0.7-1-1.6-1-2.7c0-1.2,0.3-2.1,1-2.8
			c0.6-0.7,1.5-1.1,2.5-1.1c0.9,0,1.6,0.2,2.2,0.7c0.6,0.5,0.9,1,1,1.7H75.2z"/>
		<path class="st1" d="M83.6,19.1h-3.8v1.5h3.5v1.2h-3.5v1.9h4V25h-5.5v-7.2h5.3V19.1z"/>
	</g>
</g>
</svg>
