<?xml version="1.0" encoding="utf-8"?>
<!-- Generator: Adobe Illustrator 19.0.0, SVG Export Plug-In . SVG Version: 6.00 Build 0)  -->
<svg version="1.1" id="Camada_1" xmlns="http://www.w3.org/2000/svg" xmlns:xlink="http://www.w3.org/1999/xlink" x="0px" y="0px"
	 viewBox="0 0 98 30" style="enable-background:new 0 0 98 30;" xml:space="preserve">
<style type="text/css">
	.st0{fill:#808080;}
	.st1{fill:none;stroke:#808080;stroke-width:0.1975;stroke-miterlimit:10;}
	.st2{fill:#EFEBE6;}
</style>
<g id="XMLID_30503_">
	<g id="XMLID_35_">
		<g id="XMLID_36_">
			<rect id="XMLID_38_" class="st0" width="98" height="30"/>
			<rect id="XMLID_37_" class="st1" width="98" height="30"/>
		</g>
	</g>
</g>
<g id="XMLID_2240_">
	<g id="XMLID_2241_">
		<path id="XMLID_232_" class="st2" d="M23.9,25c-0.4,0-0.8-0.1-1.1-0.4L18,19.8c-0.6-0.6-0.6-1.5,0-2.1s1.5-0.6,2.1,0l4.8,4.8
			c0.6,0.6,0.6,1.5,0,2.1C24.7,24.9,24.3,25,23.9,25z"/>
	</g>
	<g id="XMLID_19581_">
		<path id="XMLID_187_" class="st2" d="M13.6,21c-2,0-4-0.8-5.5-2.3c-3-3-3-7.9,0-11c3-3,7.9-3,11,0c1.5,1.5,2.3,3.4,2.3,5.5
			s-0.8,4-2.3,5.5S15.6,21,13.6,21z M13.6,7.5c-1.5,0-3,0.6-4.1,1.7c-2.2,2.2-2.2,5.9,0,8.1c1.1,1.1,2.5,1.7,4.1,1.7s3-0.6,4.1-1.7
			l0,0c1.1-1.1,1.7-2.5,1.7-4.1s-0.6-3-1.7-4.1S15.1,7.5,13.6,7.5z"/>
	</g>
</g>
<g>
	<g>
		<path class="st2" d="M36.6,5.5h5.1v1.3H38v1.7h3.2v1.2H38v3h-1.5V5.5z"/>
		<path class="st2" d="M44.1,12.7h-1.5V5.5h1.5V12.7z"/>
		<path class="st2" d="M45.6,5.5h1.6l2.9,5v-5h1.4v7.2h-1.5L47,7.6v5.1h-1.4V5.5z"/>
		<path class="st2" d="M57.2,5.7c0.5,0.2,0.9,0.5,1.2,0.9c0.3,0.4,0.4,0.7,0.5,1.2s0.1,0.8,0.1,1.2c0,1-0.2,1.8-0.6,2.4
			c-0.5,0.9-1.3,1.3-2.4,1.3H53V5.5h3.1C56.5,5.5,56.9,5.6,57.2,5.7z M54.4,6.8v4.7h1.4c0.7,0,1.2-0.3,1.5-1
			c0.2-0.4,0.2-0.8,0.2-1.4c0-0.7-0.1-1.3-0.3-1.7C57,7,56.5,6.8,55.8,6.8H54.4z"/>
		<path class="st2" d="M37.6,22.5c0,0.3,0.1,0.6,0.3,0.7c0.2,0.3,0.7,0.4,1.3,0.4c0.4,0,0.7,0,0.9-0.1c0.4-0.1,0.6-0.4,0.6-0.8
			c0-0.2-0.1-0.4-0.3-0.6c-0.2-0.1-0.5-0.2-1-0.3l-0.8-0.2c-0.8-0.2-1.3-0.4-1.6-0.6c-0.5-0.3-0.7-0.9-0.7-1.6
			c0-0.6,0.2-1.2,0.7-1.6s1.2-0.6,2.1-0.6c0.8,0,1.4,0.2,2,0.6c0.5,0.4,0.8,1,0.9,1.8h-1.4c0-0.4-0.2-0.7-0.6-0.9
			c-0.2-0.1-0.5-0.2-0.9-0.2c-0.4,0-0.7,0.1-1,0.2c-0.2,0.2-0.4,0.4-0.4,0.7c0,0.3,0.1,0.4,0.4,0.6c0.1,0.1,0.5,0.2,1,0.3l1.3,0.3
			c0.6,0.1,1,0.3,1.2,0.5c0.4,0.3,0.6,0.8,0.6,1.5c0,0.7-0.3,1.2-0.8,1.6c-0.5,0.4-1.2,0.7-2.2,0.7c-0.9,0-1.7-0.2-2.2-0.6
			c-0.5-0.4-0.8-1-0.8-1.8H37.6z"/>
		<path class="st2" d="M48.6,18.8h-3.8v1.5h3.5v1.2h-3.5v1.9h4v1.3h-5.5v-7.2h5.3V18.8z"/>
		<path class="st2" d="M55.4,18.8h-3.8v1.5h3.5v1.2h-3.5v1.9h4v1.3h-5.5v-7.2h5.3V18.8z"/>
		<path class="st2" d="M61.1,17.7c0.5,0.2,0.9,0.5,1.2,0.9c0.3,0.4,0.4,0.7,0.5,1.2s0.1,0.8,0.1,1.2c0,1-0.2,1.8-0.6,2.4
			c-0.5,0.9-1.3,1.3-2.4,1.3h-3.1v-7.2H60C60.4,17.5,60.8,17.6,61.1,17.7z M58.3,18.8v4.7h1.4c0.7,0,1.2-0.3,1.5-1
			c0.2-0.4,0.2-0.8,0.2-1.4c0-0.7-0.1-1.3-0.3-1.7c-0.2-0.4-0.7-0.6-1.4-0.6H58.3z"/>
	</g>
</g>
</svg>
