<?xml version="1.0" encoding="utf-8"?>
<!-- Generator: Adobe Illustrator 19.0.0, SVG Export Plug-In . SVG Version: 6.00 Build 0)  -->
<svg version="1.1" id="Camada_1" xmlns="http://www.w3.org/2000/svg" xmlns:xlink="http://www.w3.org/1999/xlink" x="0px" y="0px"
	 viewBox="28 -10 153 50" style="enable-background:new 28 -10 153 50;" xml:space="preserve">
<style type="text/css">
	.st0{fill:#ADC77F;}
	.st1{fill:#FFFFFF;}
</style>
<rect id="XMLID_2632_" x="28" y="-10" class="st0" width="153" height="50"/>
<g>
	<g>
		<path class="st1" d="M40.4,13.2c0.8-0.8,1.8-1.2,3.1-1.2c1.7,0,2.9,0.6,3.7,1.7c0.4,0.6,0.7,1.3,0.7,1.9h-2.1
			c-0.1-0.5-0.3-0.8-0.5-1.1c-0.4-0.4-0.9-0.7-1.7-0.7c-0.8,0-1.3,0.3-1.8,0.9c-0.4,0.6-0.6,1.5-0.6,2.6s0.2,2,0.7,2.5
			c0.5,0.6,1,0.8,1.7,0.8c0.7,0,1.3-0.2,1.7-0.7c0.2-0.3,0.4-0.6,0.5-1.2h2.1c-0.2,1.1-0.6,2-1.4,2.7c-0.7,0.7-1.7,1-2.9,1
			c-1.4,0-2.6-0.5-3.4-1.4c-0.8-0.9-1.2-2.2-1.2-3.8C39,15.5,39.5,14.1,40.4,13.2z"/>
		<path class="st1" d="M56.2,12.4c0.4,0.2,0.7,0.4,0.9,0.7c0.2,0.3,0.4,0.5,0.5,0.8c0.1,0.3,0.2,0.7,0.2,1.1c0,0.5-0.1,0.9-0.4,1.4
			c-0.2,0.5-0.6,0.8-1.2,1c0.5,0.2,0.8,0.5,1,0.8c0.2,0.3,0.3,0.9,0.3,1.6v0.7c0,0.5,0,0.8,0.1,0.9c0.1,0.3,0.2,0.5,0.4,0.6v0.3
			h-2.3c-0.1-0.2-0.1-0.4-0.1-0.5c-0.1-0.3-0.1-0.6-0.1-0.9l0-0.9c0-0.6-0.1-1.1-0.3-1.3s-0.6-0.3-1.2-0.3h-2.1v4h-2.1V12.1h4.8
			C55.3,12.2,55.8,12.2,56.2,12.4z M51.8,13.9v2.7h2.3c0.4,0,0.8-0.1,1-0.2c0.4-0.2,0.6-0.6,0.6-1.1c0-0.6-0.2-1-0.6-1.2
			c-0.2-0.1-0.5-0.2-1-0.2H51.8z"/>
		<path class="st1" d="M67.4,13.9h-5.3v2.1H67v1.8h-4.9v2.6h5.6v1.8H60V12.1h7.4V13.9z"/>
		<path class="st1" d="M72.3,12.1h2.4l3.6,10.1H76l-0.7-2.1h-3.7l-0.7,2.1h-2.2L72.3,12.1z M72.2,18.4h2.6l-1.3-4L72.2,18.4z"/>
		<path class="st1" d="M86,12.1v1.8h-3v8.3h-2.1v-8.3h-3v-1.8H86z"/>
		<path class="st1" d="M94.8,13.9h-5.3v2.1h4.9v1.8h-4.9v2.6h5.6v1.8h-7.6V12.1h7.4V13.9z"/>
		<path class="st1" d="M103.2,12.1h2.4l3.6,10.1h-2.3l-0.7-2.1h-3.7l-0.7,2.1h-2.2L103.2,12.1z M103.1,18.4h2.6l-1.3-4L103.1,18.4z"
			/>
		<path class="st1" d="M111.6,13.2c0.8-0.8,1.8-1.2,3.1-1.2c1.7,0,2.9,0.6,3.7,1.7c0.4,0.6,0.7,1.3,0.7,1.9h-2.1
			c-0.1-0.5-0.3-0.8-0.5-1.1c-0.4-0.4-0.9-0.7-1.7-0.7c-0.8,0-1.3,0.3-1.8,0.9c-0.4,0.6-0.6,1.5-0.6,2.6s0.2,2,0.7,2.5
			c0.5,0.6,1,0.8,1.7,0.8c0.7,0,1.3-0.2,1.7-0.7c0.2-0.3,0.4-0.6,0.5-1.2h2.1c-0.2,1.1-0.6,2-1.4,2.7c-0.7,0.7-1.7,1-2.9,1
			c-1.4,0-2.6-0.5-3.4-1.4c-0.8-0.9-1.2-2.2-1.2-3.8C110.2,15.5,110.6,14.1,111.6,13.2z"/>
		<path class="st1" d="M121.8,13.2c0.8-0.8,1.8-1.2,3.1-1.2c1.7,0,2.9,0.6,3.7,1.7c0.4,0.6,0.7,1.3,0.7,1.9h-2.1
			c-0.1-0.5-0.3-0.8-0.5-1.1c-0.4-0.4-0.9-0.7-1.7-0.7c-0.8,0-1.3,0.3-1.8,0.9c-0.4,0.6-0.6,1.5-0.6,2.6s0.2,2,0.7,2.5
			c0.5,0.6,1,0.8,1.7,0.8c0.7,0,1.3-0.2,1.7-0.7c0.2-0.3,0.4-0.6,0.5-1.2h2.1c-0.2,1.1-0.6,2-1.4,2.7c-0.7,0.7-1.7,1-2.9,1
			c-1.4,0-2.6-0.5-3.4-1.4c-0.8-0.9-1.2-2.2-1.2-3.8C120.4,15.5,120.9,14.1,121.8,13.2z"/>
		<path class="st1" d="M138.9,21.3c-0.8,0.8-1.9,1.2-3.3,1.2c-1.4,0-2.5-0.4-3.3-1.2c-1-1-1.5-2.3-1.5-4.2c0-1.8,0.5-3.2,1.5-4.2
			c0.8-0.8,1.9-1.2,3.3-1.2c1.4,0,2.5,0.4,3.3,1.2c1,0.9,1.5,2.3,1.5,4.2C140.4,19,139.9,20.4,138.9,21.3z M137.6,19.8
			c0.5-0.6,0.7-1.5,0.7-2.6c0-1.1-0.2-2-0.7-2.6c-0.5-0.6-1.2-0.9-2-0.9s-1.5,0.3-2,0.9c-0.5,0.6-0.7,1.5-0.7,2.6s0.2,2,0.7,2.6
			c0.5,0.6,1.2,0.9,2,0.9S137.1,20.4,137.6,19.8z"/>
		<path class="st1" d="M142.1,12.1h2.1v6.2c0,0.7,0.1,1.2,0.2,1.5c0.3,0.6,0.8,0.8,1.7,0.8c0.8,0,1.4-0.3,1.7-0.8
			c0.2-0.3,0.2-0.8,0.2-1.5v-6.2h2.1v6.2c0,1.1-0.2,1.9-0.5,2.5c-0.6,1.1-1.8,1.6-3.5,1.6c-1.7,0-2.9-0.5-3.5-1.6
			c-0.3-0.6-0.5-1.4-0.5-2.5V12.1z"/>
		<path class="st1" d="M152.4,12.1h2.2l4,7v-7h2v10.1h-2.1l-4.1-7.1v7.1h-2V12.1z"/>
		<path class="st1" d="M170,12.1v1.8h-3v8.3h-2.1v-8.3h-3v-1.8H170z"/>
	</g>
</g>
</svg>
