<?xml version="1.0" encoding="utf-8"?>
<!-- Generator: Adobe Illustrator 19.0.0, SVG Export Plug-In . SVG Version: 6.00 Build 0)  -->
<svg version="1.1" id="Camada_1" xmlns="http://www.w3.org/2000/svg" xmlns:xlink="http://www.w3.org/1999/xlink" x="0px" y="0px"
	 viewBox="0 0 98 30" style="enable-background:new 0 0 98 30;" xml:space="preserve">
<style type="text/css">
	.st0{fill:#D3865F;}
	.st1{fill:#EFEBE6;}
</style>
<g id="XMLID_11_">
	<rect id="XMLID_12_" class="st0" width="98" height="30"/>
</g>
<g id="XMLID_184_">
	<g id="XMLID_185_">
		<rect id="XMLID_233_" x="8.5" y="14" class="st1" width="17.5" height="2"/>
	</g>
</g>
<g>
	<g>
		<path class="st1" d="M41.2,5.7c0.3,0.1,0.5,0.3,0.7,0.5c0.2,0.2,0.3,0.4,0.4,0.6s0.1,0.5,0.1,0.8c0,0.3-0.1,0.7-0.3,1
			c-0.2,0.3-0.5,0.6-0.9,0.7c0.3,0.1,0.6,0.3,0.7,0.6c0.1,0.2,0.2,0.6,0.2,1.1v0.5c0,0.3,0,0.6,0,0.7c0,0.2,0.1,0.3,0.3,0.4v0.2
			h-1.7c0-0.2-0.1-0.3-0.1-0.4c0-0.2-0.1-0.4-0.1-0.6l0-0.7c0-0.5-0.1-0.8-0.2-0.9s-0.4-0.2-0.9-0.2h-1.5v2.8h-1.5V5.5H40
			C40.5,5.5,40.9,5.6,41.2,5.7z M38.1,6.8v1.9h1.6c0.3,0,0.6,0,0.7-0.1c0.3-0.1,0.4-0.4,0.4-0.8c0-0.4-0.1-0.7-0.4-0.9
			c-0.2-0.1-0.4-0.1-0.7-0.1H38.1z"/>
		<path class="st1" d="M49.2,6.8h-3.8v1.5h3.5v1.2h-3.5v1.9h4v1.3h-5.5V5.5h5.3V6.8z"/>
		<path class="st1" d="M55.4,5.5h2.2v7.2h-1.4V7.8c0-0.1,0-0.3,0-0.6c0-0.3,0-0.4,0-0.6l-1.4,6h-1.5l-1.4-6c0,0.1,0,0.3,0,0.6
			c0,0.3,0,0.4,0,0.6v4.9h-1.4V5.5h2.2l1.3,5.7L55.4,5.5z"/>
		<path class="st1" d="M64.6,12.1c-0.5,0.6-1.3,0.8-2.4,0.8s-1.8-0.3-2.4-0.8c-0.7-0.7-1.1-1.7-1.1-3c0-1.3,0.4-2.3,1.1-3
			c0.5-0.6,1.3-0.8,2.4-0.8s1.8,0.3,2.4,0.8c0.7,0.7,1.1,1.7,1.1,3C65.7,10.4,65.3,11.4,64.6,12.1z M63.7,11
			c0.4-0.4,0.5-1.1,0.5-1.9c0-0.8-0.2-1.4-0.5-1.9c-0.4-0.4-0.8-0.7-1.4-0.7s-1.1,0.2-1.4,0.7s-0.5,1.1-0.5,1.9s0.2,1.4,0.5,1.9
			s0.8,0.7,1.4,0.7S63.3,11.4,63.7,11z"/>
		<path class="st1" d="M71.2,5.5h1.6l-2.5,7.2h-1.4l-2.4-7.2H68l1.6,5.5L71.2,5.5z"/>
		<path class="st1" d="M79,6.8h-3.8v1.5h3.5v1.2h-3.5v1.9h4v1.3h-5.5V5.5H79V6.8z"/>
		<path class="st1" d="M37.6,22.5c0,0.3,0.1,0.6,0.3,0.7c0.2,0.3,0.7,0.4,1.3,0.4c0.4,0,0.7,0,0.9-0.1c0.4-0.1,0.6-0.4,0.6-0.8
			c0-0.2-0.1-0.4-0.3-0.6c-0.2-0.1-0.5-0.2-1-0.3l-0.8-0.2c-0.8-0.2-1.3-0.4-1.6-0.6c-0.5-0.3-0.7-0.9-0.7-1.6
			c0-0.6,0.2-1.2,0.7-1.6s1.2-0.6,2.1-0.6c0.8,0,1.4,0.2,2,0.6c0.5,0.4,0.8,1,0.9,1.8h-1.4c0-0.4-0.2-0.7-0.6-0.9
			c-0.2-0.1-0.5-0.2-0.9-0.2c-0.4,0-0.7,0.1-1,0.2c-0.2,0.2-0.4,0.4-0.4,0.7c0,0.3,0.1,0.4,0.4,0.6c0.1,0.1,0.5,0.2,1,0.3l1.3,0.3
			c0.6,0.1,1,0.3,1.2,0.5c0.4,0.3,0.6,0.8,0.6,1.5c0,0.7-0.3,1.2-0.8,1.6c-0.5,0.4-1.2,0.7-2.2,0.7c-0.9,0-1.7-0.2-2.2-0.6
			c-0.5-0.4-0.8-1-0.8-1.8H37.6z"/>
		<path class="st1" d="M48.6,18.8h-3.8v1.5h3.5v1.2h-3.5v1.9h4v1.3h-5.5v-7.2h5.3V18.8z"/>
		<path class="st1" d="M55.4,18.8h-3.8v1.5h3.5v1.2h-3.5v1.9h4v1.3h-5.5v-7.2h5.3V18.8z"/>
		<path class="st1" d="M61.1,17.7c0.5,0.2,0.9,0.5,1.2,0.9c0.3,0.4,0.4,0.7,0.5,1.2s0.1,0.8,0.1,1.2c0,1-0.2,1.8-0.6,2.4
			c-0.5,0.9-1.3,1.3-2.4,1.3h-3.1v-7.2H60C60.4,17.5,60.8,17.6,61.1,17.7z M58.3,18.8v4.7h1.4c0.7,0,1.2-0.3,1.5-1
			c0.2-0.4,0.2-0.8,0.2-1.4c0-0.7-0.1-1.3-0.3-1.7c-0.2-0.4-0.7-0.6-1.4-0.6H58.3z"/>
	</g>
</g>
</svg>
