<?xml version="1.0" encoding="utf-8"?>
<!-- Generator: Adobe Illustrator 19.0.0, SVG Export Plug-In . SVG Version: 6.00 Build 0)  -->
<svg version="1.1" id="Camada_1" xmlns="http://www.w3.org/2000/svg" xmlns:xlink="http://www.w3.org/1999/xlink" x="0px" y="0px"
	 viewBox="-19 4 58 23" style="enable-background:new -19 4 58 23;" xml:space="preserve">
<style type="text/css">
	.st0{fill:#FFFFFF;}
	.st1{fill:#C5C5C5;}
	.st2{fill:#CDC4BD;}
</style>
<g id="XMLID_19466_">
	<rect id="XMLID_42_" x="-18.5" y="4.5" class="st0" width="57" height="22"/>
	<path id="XMLID_39_" class="st1" d="M38,5v21h-56V5H38 M39,4h-58v23h58V4L39,4z"/>
</g>
<g id="XMLID_1552_">
	<path id="XMLID_1583_" class="st2" d="M2.8,10.4h2.4l-3.4,6.3v3.8h-2.1v-3.8l-3.5-6.3h2.5l2.1,4.4L2.8,10.4z"/>
	<path id="XMLID_1612_" class="st2" d="M13.9,12.1H8.6v2.1h4.9V16H8.6v2.6h5.6v1.8H6.5V10.4h7.4V12.1z"/>
	<path id="XMLID_1614_" class="st2" d="M17.5,17.3c0.1,0.5,0.2,0.8,0.4,1c0.3,0.4,0.9,0.6,1.8,0.6c0.5,0,0.9-0.1,1.2-0.2
		c0.6-0.2,0.9-0.6,0.9-1.2c0-0.3-0.1-0.6-0.4-0.8c-0.3-0.2-0.8-0.3-1.4-0.5l-1.1-0.2c-1.1-0.2-1.8-0.5-2.2-0.8c-0.7-0.5-1-1.2-1-2.2
		c0-0.9,0.3-1.7,1-2.2c0.7-0.6,1.6-0.9,2.9-0.9c1.1,0,2,0.3,2.8,0.8c0.8,0.6,1.2,1.4,1.2,2.5h-2c0-0.6-0.3-1-0.8-1.3
		c-0.3-0.2-0.8-0.3-1.3-0.3c-0.6,0-1,0.1-1.3,0.3c-0.3,0.2-0.5,0.5-0.5,0.9c0,0.4,0.2,0.6,0.5,0.8c0.2,0.1,0.7,0.3,1.3,0.4l1.8,0.4
		c0.8,0.2,1.4,0.4,1.7,0.7c0.6,0.5,0.9,1.2,0.9,2.1c0,0.9-0.4,1.7-1.1,2.3c-0.7,0.6-1.7,0.9-3,0.9c-1.3,0-2.4-0.3-3.1-0.9
		c-0.8-0.6-1.1-1.4-1.1-2.5H17.5z"/>
</g>
</svg>
