<?xml version="1.0" encoding="utf-8"?>
<!-- Generator: Adobe Illustrator 19.0.0, SVG Export Plug-In . SVG Version: 6.00 Build 0)  -->
<svg version="1.1" id="Camada_1" xmlns="http://www.w3.org/2000/svg" xmlns:xlink="http://www.w3.org/1999/xlink" x="0px" y="0px"
	 viewBox="0 0 98 30" style="enable-background:new 0 0 98 30;" xml:space="preserve">
<style type="text/css">
	.st0{fill:#ADC77F;}
	.st1{fill:#EFEBE6;}
</style>
<g id="XMLID_8755_">
	<rect id="XMLID_8756_" x="0" y="0" class="st0" width="98" height="30"/>
</g>
<g id="XMLID_406_">
	<g id="XMLID_273_">
		<path id="XMLID_308_" class="st1" d="M38.6,5.6h1.7l2.5,7.2h-1.6l-0.5-1.5h-2.7l-0.5,1.5H36L38.6,5.6z M38.5,10h1.8l-0.9-2.8
			L38.5,10z"/>
		<path id="XMLID_305_" class="st1" d="M48,5.7c0.5,0.2,0.9,0.5,1.2,0.9c0.3,0.4,0.4,0.7,0.5,1.2c0.1,0.4,0.1,0.8,0.1,1.2
			c0,1-0.2,1.8-0.6,2.4c-0.5,0.9-1.3,1.3-2.4,1.3h-3.1V5.6h3.1C47.4,5.6,47.7,5.6,48,5.7z M45.3,6.8v4.7h1.4c0.7,0,1.2-0.3,1.5-1
			c0.2-0.4,0.2-0.8,0.2-1.4c0-0.7-0.1-1.3-0.3-1.7c-0.2-0.4-0.7-0.6-1.4-0.6H45.3z"/>
		<path id="XMLID_303_" class="st1" d="M52.5,12.8H51V5.6h1.5V12.8z"/>
		<path id="XMLID_301_" class="st1" d="M54.7,6.3c0.6-0.6,1.3-0.9,2.2-0.9c1.2,0,2.1,0.4,2.6,1.2C59.9,7.1,60,7.5,60,8h-1.5
			c-0.1-0.3-0.2-0.6-0.4-0.8c-0.3-0.3-0.7-0.5-1.2-0.5c-0.5,0-1,0.2-1.3,0.7c-0.3,0.4-0.5,1.1-0.5,1.9s0.2,1.4,0.5,1.8
			c0.3,0.4,0.7,0.6,1.2,0.6c0.5,0,0.9-0.2,1.2-0.5c0.1-0.2,0.3-0.5,0.4-0.8H60c-0.1,0.8-0.5,1.4-1,1.9c-0.5,0.5-1.2,0.7-2,0.7
			c-1,0-1.8-0.3-2.4-1c-0.6-0.7-0.9-1.6-0.9-2.7C53.7,8,54,7,54.7,6.3z"/>
		<path id="XMLID_299_" class="st1" d="M62.7,12.8h-1.5V5.6h1.5V12.8z"/>
		<path id="XMLID_296_" class="st1" d="M69.8,12.1c-0.5,0.6-1.3,0.8-2.4,0.8c-1,0-1.8-0.3-2.4-0.8c-0.7-0.7-1.1-1.7-1.1-3
			c0-1.3,0.4-2.3,1.1-3c0.5-0.6,1.3-0.8,2.4-0.8c1,0,1.8,0.3,2.4,0.8c0.7,0.7,1.1,1.7,1.1,3C70.9,10.5,70.5,11.4,69.8,12.1z
			 M68.8,11c0.3-0.4,0.5-1.1,0.5-1.9c0-0.8-0.2-1.4-0.5-1.9c-0.4-0.4-0.8-0.7-1.4-0.7S66.3,6.8,66,7.3c-0.4,0.4-0.5,1.1-0.5,1.9
			s0.2,1.4,0.5,1.9c0.4,0.4,0.8,0.7,1.4,0.7S68.5,11.5,68.8,11z"/>
		<path id="XMLID_294_" class="st1" d="M72.1,5.6h1.6l2.9,5v-5h1.4v7.2h-1.5l-2.9-5.1v5.1h-1.4V5.6z"/>
		<path id="XMLID_291_" class="st1" d="M81.5,5.6h1.7l2.5,7.2h-1.6l-0.5-1.5H81l-0.5,1.5h-1.6L81.5,5.6z M81.4,10h1.8l-0.9-2.8
			L81.4,10z"/>
		<path id="XMLID_288_" class="st1" d="M91.4,5.8C91.6,5.9,91.8,6,92,6.3c0.2,0.2,0.3,0.4,0.4,0.6s0.1,0.5,0.1,0.8
			c0,0.3-0.1,0.7-0.3,1c-0.2,0.3-0.5,0.6-0.9,0.7c0.3,0.1,0.6,0.3,0.7,0.6c0.1,0.2,0.2,0.6,0.2,1.1v0.5c0,0.3,0,0.6,0,0.7
			c0,0.2,0.1,0.3,0.3,0.4v0.2H91c0-0.2-0.1-0.3-0.1-0.4c0-0.2-0.1-0.4-0.1-0.6l0-0.7c0-0.5-0.1-0.8-0.2-0.9s-0.4-0.2-0.9-0.2h-1.5
			v2.8h-1.5V5.6h3.4C90.7,5.6,91.1,5.6,91.4,5.8z M88.3,6.8v1.9h1.6c0.3,0,0.6,0,0.7-0.1C90.9,8.5,91,8.2,91,7.8
			c0-0.4-0.1-0.7-0.4-0.9c-0.2-0.1-0.4-0.1-0.7-0.1H88.3z"/>
		<path id="XMLID_286_" class="st1" d="M37.6,22.5c0,0.3,0.1,0.6,0.3,0.7c0.2,0.3,0.7,0.4,1.3,0.4c0.4,0,0.7,0,0.9-0.1
			c0.4-0.1,0.6-0.4,0.6-0.8c0-0.2-0.1-0.4-0.3-0.6c-0.2-0.1-0.5-0.2-1-0.3l-0.8-0.2c-0.8-0.2-1.3-0.4-1.6-0.6
			c-0.5-0.3-0.7-0.9-0.7-1.6c0-0.6,0.2-1.2,0.7-1.6s1.2-0.6,2.1-0.6c0.8,0,1.4,0.2,2,0.6c0.5,0.4,0.8,1,0.9,1.8h-1.4
			c0-0.4-0.2-0.7-0.6-0.9c-0.2-0.1-0.5-0.2-0.9-0.2c-0.4,0-0.7,0.1-1,0.2s-0.4,0.4-0.4,0.7c0,0.3,0.1,0.4,0.4,0.6
			c0.2,0.1,0.5,0.2,1,0.3l1.3,0.3c0.6,0.1,1,0.3,1.2,0.5c0.4,0.3,0.6,0.8,0.6,1.5c0,0.7-0.3,1.2-0.8,1.6c-0.5,0.4-1.2,0.7-2.2,0.7
			c-0.9,0-1.7-0.2-2.2-0.6c-0.5-0.4-0.8-1-0.8-1.8H37.6z"/>
		<path id="XMLID_284_" class="st1" d="M48.6,18.8h-3.8v1.5h3.5v1.2h-3.5v1.9h4v1.3h-5.5v-7.2h5.3V18.8z"/>
		<path id="XMLID_282_" class="st1" d="M54.8,17.6H57v7.2h-1.4v-4.9c0-0.1,0-0.3,0-0.6c0-0.3,0-0.4,0-0.6l-1.4,6h-1.5l-1.4-6
			c0,0.1,0,0.3,0,0.6c0,0.3,0,0.4,0,0.6v4.9H50v-7.2h2.2l1.3,5.7L54.8,17.6z"/>
		<path id="XMLID_280_" class="st1" d="M63.8,18.8H60v1.5h3.5v1.2H60v1.9h4v1.3h-5.5v-7.2h5.3V18.8z"/>
		<path id="XMLID_278_" class="st1" d="M65.2,17.6h1.6l2.9,5v-5h1.4v7.2h-1.5l-2.9-5.1v5.1h-1.4V17.6z"/>
		<path id="XMLID_276_" class="st1" d="M77.8,17.6v1.3h-2.2v5.9h-1.5v-5.9H72v-1.3H77.8z"/>
		<path id="XMLID_274_" class="st1" d="M84.1,18.8h-3.8v1.5h3.5v1.2h-3.5v1.9h4v1.3h-5.5v-7.2h5.3V18.8z"/>
	</g>
</g>
<g id="XMLID_8723_">
	<g id="XMLID_8725_">
		<rect id="XMLID_236_" x="16.2" y="6.2" class="st1" width="2" height="17.5"/>
	</g>
	<g id="XMLID_8724_">
		<rect id="XMLID_234_" x="8.5" y="14" class="st1" width="17.5" height="2"/>
	</g>
</g>
</svg>
