<?xml version="1.0" encoding="utf-8"?>
<!-- Generator: Adobe Illustrator 19.0.0, SVG Export Plug-In . SVG Version: 6.00 Build 0)  -->
<svg version="1.1" id="Camada_1" xmlns="http://www.w3.org/2000/svg" xmlns:xlink="http://www.w3.org/1999/xlink" x="0px" y="0px"
	 viewBox="0 0 98 30" style="enable-background:new 0 0 98 30;" xml:space="preserve">
<style type="text/css">
	.st0{fill:#D3865F;}
	.st1{fill:#EFEBE6;}
</style>
<g id="XMLID_7662_">
	<rect id="XMLID_7663_" x="0" y="0" class="st0" width="98" height="30"/>
</g>
<g id="XMLID_183_">
	<g id="XMLID_255_">
		<path id="XMLID_287_" class="st1" d="M36.6,5.6h1.7l2.5,7.2h-1.6l-0.5-1.5h-2.7l-0.5,1.5H34L36.6,5.6z M36.5,10h1.8l-0.9-2.8
			L36.5,10z"/>
		<path id="XMLID_284_" class="st1" d="M46.7,9.7c-0.4,0.4-1,0.5-1.8,0.5h-1.5v2.6h-1.5V5.6H45c0.7,0,1.3,0.2,1.7,0.6
			c0.4,0.4,0.6,0.9,0.6,1.7C47.3,8.7,47.1,9.3,46.7,9.7z M45.5,7.1c-0.2-0.2-0.5-0.2-0.8-0.2h-1.4v2.1h1.4c0.3,0,0.6-0.1,0.8-0.3
			s0.3-0.4,0.3-0.8S45.7,7.2,45.5,7.1z"/>
		<path id="XMLID_281_" class="st1" d="M49.9,5.6h1.7l2.5,7.2h-1.6l-0.5-1.5h-2.7l-0.5,1.5h-1.6L49.9,5.6z M49.8,10h1.8l-0.9-2.8
			L49.8,10z"/>
		<path id="XMLID_279_" class="st1" d="M60,7.8c-0.1-0.5-0.4-0.8-0.8-1c-0.2-0.1-0.5-0.2-0.8-0.2c-0.6,0-1.1,0.2-1.4,0.7
			c-0.4,0.4-0.6,1.1-0.6,2c0,0.9,0.2,1.5,0.6,1.9c0.4,0.4,0.9,0.6,1.4,0.6c0.5,0,0.9-0.1,1.2-0.4c0.3-0.3,0.5-0.7,0.6-1.1h-1.7V8.9
			h3v3.9h-1l-0.2-0.9c-0.3,0.3-0.6,0.6-0.8,0.7c-0.4,0.2-0.9,0.4-1.5,0.4c-1,0-1.7-0.3-2.3-1c-0.6-0.7-1-1.6-1-2.7
			c0-1.2,0.3-2.1,1-2.8c0.6-0.7,1.5-1.1,2.5-1.1c0.9,0,1.6,0.2,2.2,0.7c0.6,0.5,0.9,1,1,1.7H60z"/>
		<path id="XMLID_276_" class="st1" d="M65.1,5.6h1.7l2.5,7.2h-1.6l-0.5-1.5h-2.7l-0.5,1.5h-1.6L65.1,5.6z M65,10h1.8L66,7.2L65,10z
			"/>
		<path id="XMLID_273_" class="st1" d="M75,5.8c0.3,0.1,0.5,0.3,0.7,0.5c0.2,0.2,0.3,0.4,0.4,0.6s0.1,0.5,0.1,0.8
			c0,0.3-0.1,0.7-0.3,1C75.7,9,75.4,9.2,75,9.3c0.3,0.1,0.6,0.3,0.7,0.6c0.1,0.2,0.2,0.6,0.2,1.1v0.5c0,0.3,0,0.6,0,0.7
			c0,0.2,0.1,0.3,0.3,0.4v0.2h-1.7c0-0.2-0.1-0.3-0.1-0.4c0-0.2-0.1-0.4-0.1-0.6l0-0.7c0-0.5-0.1-0.8-0.2-0.9s-0.4-0.2-0.9-0.2h-1.5
			v2.8h-1.5V5.6h3.4C74.3,5.6,74.7,5.6,75,5.8z M71.9,6.8v1.9h1.6c0.3,0,0.6,0,0.7-0.1c0.3-0.1,0.4-0.4,0.4-0.8
			c0-0.4-0.1-0.7-0.4-0.9c-0.2-0.1-0.4-0.1-0.7-0.1H71.9z"/>
		<path id="XMLID_271_" class="st1" d="M39.3,17.6h2.2v7.2H40v-4.9c0-0.1,0-0.3,0-0.6c0-0.3,0-0.4,0-0.6l-1.4,6h-1.5l-1.4-6
			c0,0.1,0,0.3,0,0.6c0,0.3,0,0.4,0,0.6v4.9h-1.4v-7.2h2.2l1.3,5.7L39.3,17.6z"/>
		<path id="XMLID_269_" class="st1" d="M48.3,18.8h-3.8v1.5h3.5v1.2h-3.5v1.9h4v1.3H43v-7.2h5.3V18.8z"/>
		<path id="XMLID_267_" class="st1" d="M49.7,17.6h1.6l2.9,5v-5h1.4v7.2H54l-2.9-5.1v5.1h-1.4V17.6z"/>
		<path id="XMLID_265_" class="st1" d="M58.1,22.5c0,0.3,0.1,0.6,0.3,0.7c0.2,0.3,0.7,0.4,1.3,0.4c0.4,0,0.7,0,0.9-0.1
			c0.4-0.1,0.6-0.4,0.6-0.8c0-0.2-0.1-0.4-0.3-0.6c-0.2-0.1-0.5-0.2-1-0.3l-0.8-0.2c-0.8-0.2-1.3-0.4-1.6-0.6
			c-0.5-0.3-0.7-0.9-0.7-1.6c0-0.6,0.2-1.2,0.7-1.6s1.2-0.6,2.1-0.6c0.8,0,1.4,0.2,2,0.6c0.5,0.4,0.8,1,0.9,1.8H61
			c0-0.4-0.2-0.7-0.6-0.9c-0.2-0.1-0.5-0.2-0.9-0.2c-0.4,0-0.7,0.1-1,0.2c-0.2,0.2-0.4,0.4-0.4,0.7c0,0.3,0.1,0.4,0.4,0.6
			c0.1,0.1,0.5,0.2,1,0.3l1.3,0.3c0.6,0.1,1,0.3,1.2,0.5c0.4,0.3,0.6,0.8,0.6,1.5c0,0.7-0.3,1.2-0.8,1.6c-0.5,0.4-1.2,0.7-2.2,0.7
			c-0.9,0-1.7-0.2-2.2-0.6c-0.5-0.4-0.8-1-0.8-1.8H58.1z"/>
		<path id="XMLID_262_" class="st1" d="M65.9,17.6h1.7l2.5,7.2h-1.6L68,23.3h-2.7l-0.5,1.5h-1.6L65.9,17.6z M65.8,22h1.8l-0.9-2.8
			L65.8,22z"/>
		<path id="XMLID_260_" class="st1" d="M76,19.8c-0.1-0.5-0.4-0.8-0.8-1c-0.2-0.1-0.5-0.2-0.8-0.2c-0.6,0-1.1,0.2-1.4,0.7
			c-0.4,0.4-0.6,1.1-0.6,2c0,0.9,0.2,1.5,0.6,1.9c0.4,0.4,0.9,0.6,1.4,0.6c0.5,0,0.9-0.1,1.2-0.4c0.3-0.3,0.5-0.7,0.6-1.1h-1.7v-1.2
			h3v3.9h-1l-0.2-0.9c-0.3,0.3-0.6,0.6-0.8,0.7c-0.4,0.2-0.9,0.4-1.5,0.4c-1,0-1.7-0.3-2.3-1c-0.6-0.7-1-1.6-1-2.7
			c0-1.2,0.3-2.1,1-2.8c0.6-0.7,1.5-1.1,2.5-1.1c0.9,0,1.6,0.2,2.2,0.7c0.6,0.5,0.9,1,1,1.7H76z"/>
		<path id="XMLID_258_" class="st1" d="M84.3,18.8h-3.8v1.5H84v1.2h-3.5v1.9h4v1.3H79v-7.2h5.3V18.8z"/>
		<path id="XMLID_256_" class="st1" d="M90.5,17.6h2.2v7.2h-1.4v-4.9c0-0.1,0-0.3,0-0.6c0-0.3,0-0.4,0-0.6l-1.4,6h-1.5l-1.4-6
			c0,0.1,0,0.3,0,0.6c0,0.3,0,0.4,0,0.6v4.9h-1.4v-7.2h2.2l1.3,5.7L90.5,17.6z"/>
	</g>
</g>
<g id="XMLID_7659_">
	<g id="XMLID_7660_">
		<rect id="XMLID_250_" x="8.5" y="14" class="st1" width="17.5" height="2"/>
	</g>
</g>
</svg>
