<?xml version="1.0" encoding="utf-8"?>
<!-- Generator: Adobe Illustrator 19.0.0, SVG Export Plug-In . SVG Version: 6.00 Build 0)  -->
<svg version="1.1" id="Camada_1" xmlns="http://www.w3.org/2000/svg" xmlns:xlink="http://www.w3.org/1999/xlink" x="0px" y="0px"
	 viewBox="0 0 153 50" style="enable-background:new 0 0 153 50;" xml:space="preserve">
<style type="text/css">
	.st0{fill:#D3865F;}
	.st1{fill:#FFFFFF;}
</style>
<rect id="XMLID_2632_" x="0" class="st0" width="153" height="50"/>
<g id="XMLID_76_">
	<g id="XMLID_230_">
		<path id="XMLID_268_" class="st1" d="M38.8,23.1c0.8-0.8,1.8-1.2,3.1-1.2c1.7,0,2.9,0.6,3.7,1.7c0.4,0.6,0.7,1.3,0.7,1.9h-2.1
			c-0.1-0.5-0.3-0.8-0.5-1.1c-0.4-0.4-0.9-0.7-1.7-0.7c-0.8,0-1.3,0.3-1.8,0.9c-0.4,0.6-0.6,1.5-0.6,2.6s0.2,2,0.7,2.5
			c0.5,0.6,1,0.8,1.7,0.8c0.7,0,1.3-0.2,1.7-0.7c0.2-0.3,0.4-0.6,0.5-1.2h2.1c-0.2,1.1-0.6,2-1.4,2.7c-0.7,0.7-1.7,1-2.9,1
			c-1.4,0-2.6-0.5-3.4-1.4c-0.8-0.9-1.2-2.2-1.2-3.8C37.4,25.4,37.9,24.1,38.8,23.1z"/>
		<path id="XMLID_265_" class="st1" d="M51,22.1h2.4L57,32.2h-2.3L54,30.1h-3.7l-0.7,2.1h-2.2L51,22.1z M50.9,28.4h2.6l-1.3-4
			L50.9,28.4z"/>
		<path id="XMLID_263_" class="st1" d="M58.3,22.1h2.2l4,7v-7h2v10.1h-2.1L60.3,25v7.1h-2V22.1z"/>
		<path id="XMLID_261_" class="st1" d="M69.6,23.1c0.8-0.8,1.8-1.2,3.1-1.2c1.7,0,2.9,0.6,3.7,1.7c0.4,0.6,0.7,1.3,0.7,1.9H75
			c-0.1-0.5-0.3-0.8-0.5-1.1c-0.4-0.4-0.9-0.7-1.7-0.7c-0.8,0-1.3,0.3-1.8,0.9c-0.4,0.6-0.6,1.5-0.6,2.6s0.2,2,0.7,2.5
			c0.5,0.6,1,0.8,1.7,0.8c0.7,0,1.3-0.2,1.7-0.7c0.2-0.3,0.4-0.6,0.5-1.2H77c-0.2,1.1-0.6,2-1.4,2.7c-0.7,0.7-1.7,1-2.9,1
			c-1.4,0-2.6-0.5-3.4-1.4c-0.8-0.9-1.2-2.2-1.2-3.8C68.2,25.4,68.7,24.1,69.6,23.1z"/>
		<path id="XMLID_239_" class="st1" d="M86.3,23.9H81V26h4.9v1.8H81v2.6h5.6v1.8h-7.6V22.1h7.4V23.9z"/>
		<path id="XMLID_237_" class="st1" d="M88.4,22.1h2.1v8.3h5v1.8h-7.1V22.1z"/>
		<path id="XMLID_234_" class="st1" d="M99.9,22.1h2.4l3.6,10.1h-2.3l-0.7-2.1h-3.7l-0.7,2.1h-2.2L99.9,22.1z M99.8,28.4h2.6l-1.3-4
			L99.8,28.4z"/>
		<path id="XMLID_231_" class="st1" d="M113.8,22.3c0.4,0.2,0.7,0.4,0.9,0.7c0.2,0.3,0.4,0.5,0.5,0.8s0.2,0.7,0.2,1.1
			c0,0.5-0.1,0.9-0.4,1.4c-0.2,0.5-0.6,0.8-1.2,1c0.5,0.2,0.8,0.5,1,0.8c0.2,0.3,0.3,0.9,0.3,1.6v0.7c0,0.5,0,0.8,0.1,0.9
			c0.1,0.3,0.2,0.5,0.4,0.6v0.3h-2.3c-0.1-0.2-0.1-0.4-0.1-0.5c-0.1-0.3-0.1-0.6-0.1-0.9l0-0.9c0-0.6-0.1-1.1-0.3-1.3
			c-0.2-0.2-0.6-0.3-1.2-0.3h-2.1v4h-2.1V22.1h4.8C112.9,22.1,113.4,22.2,113.8,22.3z M109.4,23.8v2.7h2.3c0.4,0,0.8-0.1,1-0.2
			c0.4-0.2,0.6-0.6,0.6-1.1c0-0.6-0.2-1-0.6-1.2c-0.2-0.1-0.5-0.2-1-0.2H109.4z"/>
	</g>
</g>
</svg>
