<?xml version="1.0" encoding="utf-8"?>
<!-- Generator: Adobe Illustrator 19.0.0, SVG Export Plug-In . SVG Version: 6.00 Build 0)  -->
<svg version="1.1" id="Camada_1" xmlns="http://www.w3.org/2000/svg" xmlns:xlink="http://www.w3.org/1999/xlink" x="0px" y="0px"
	 viewBox="0 0 153 50" style="enable-background:new 0 0 153 50;" xml:space="preserve">
<style type="text/css">
	.st0{fill:#ADC77F;}
	.st1{fill:#FFFFFF;}
</style>
<rect id="XMLID_2632_" x="0" class="st0" width="153" height="50"/>
<g id="XMLID_86_">
	<g id="XMLID_195_">
		<path id="XMLID_208_" class="st1" d="M58,24.2h-5.3v2.1h4.9V28h-4.9v2.6h5.6v1.8h-7.6V22.4H58V24.2z"/>
		<path id="XMLID_206_" class="st1" d="M60,22.4h2.2l4,7v-7h2v10.1h-2.1L62,25.3v7.1h-2V22.4z"/>
		<path id="XMLID_204_" class="st1" d="M76.2,22.4h2.2L75,32.4h-2l-3.4-10.1h2.2L74,30L76.2,22.4z"/>
		<path id="XMLID_202_" class="st1" d="M81.7,32.4h-2.1V22.4h2.1V32.4z"/>
		<path id="XMLID_199_" class="st1" d="M86.7,22.4h2.4l3.6,10.1h-2.3l-0.7-2.1H86l-0.7,2.1h-2.2L86.7,22.4z M86.6,28.6h2.6l-1.3-4
			L86.6,28.6z"/>
		<path id="XMLID_196_" class="st1" d="M100.5,22.6c0.4,0.2,0.7,0.4,0.9,0.7c0.2,0.3,0.4,0.5,0.5,0.8s0.2,0.7,0.2,1.1
			c0,0.5-0.1,0.9-0.4,1.4c-0.2,0.5-0.6,0.8-1.2,1c0.5,0.2,0.8,0.5,1,0.8c0.2,0.3,0.3,0.9,0.3,1.6v0.7c0,0.5,0,0.8,0.1,0.9
			c0.1,0.3,0.2,0.5,0.4,0.6v0.3H100c-0.1-0.2-0.1-0.4-0.1-0.5c-0.1-0.3-0.1-0.6-0.1-0.9l0-0.9c0-0.6-0.1-1.1-0.3-1.3
			c-0.2-0.2-0.6-0.3-1.2-0.3h-2.1v4h-2.1V22.4H99C99.6,22.4,100.2,22.5,100.5,22.6z M96.2,24.1v2.7h2.3c0.4,0,0.8-0.1,1-0.2
			c0.4-0.2,0.6-0.6,0.6-1.1c0-0.6-0.2-1-0.6-1.2c-0.2-0.1-0.5-0.2-1-0.2H96.2z"/>
	</g>
</g>
</svg>
