<?xml version="1.0" encoding="utf-8"?>
<!-- Generator: Adobe Illustrator 19.0.0, SVG Export Plug-In . SVG Version: 6.00 Build 0)  -->
<svg version="1.1" id="Camada_1" xmlns="http://www.w3.org/2000/svg" xmlns:xlink="http://www.w3.org/1999/xlink" x="0px" y="0px"
	 viewBox="0 0 153 50" style="enable-background:new 0 0 153 50;" xml:space="preserve">
<style type="text/css">
	.st0{fill:#ADC77F;}
	.st1{fill:#FFFFFF;}
</style>
<rect id="XMLID_2632_" x="0" class="st0" width="153" height="50"/>
<g id="XMLID_531_">
	<g id="XMLID_241_">
		<path id="XMLID_259_" class="st1" d="M48.2,25.3c-0.2-0.7-0.5-1.2-1.2-1.4c-0.3-0.2-0.7-0.2-1.2-0.2c-0.8,0-1.5,0.3-2,0.9
			c-0.5,0.6-0.8,1.5-0.8,2.8c0,1.2,0.3,2.1,0.8,2.6c0.6,0.5,1.2,0.8,1.9,0.8c0.7,0,1.3-0.2,1.7-0.6c0.5-0.4,0.7-0.9,0.8-1.6h-2.3
			v-1.7h4.2v5.4H49l-0.2-1.3c-0.4,0.5-0.8,0.8-1.1,1c-0.6,0.3-1.2,0.5-2.1,0.5c-1.3,0-2.4-0.5-3.3-1.4c-0.9-0.9-1.3-2.2-1.3-3.8
			c0-1.6,0.4-2.9,1.3-3.9c0.9-1,2.1-1.5,3.6-1.5c1.3,0,2.3,0.3,3.1,1c0.8,0.6,1.2,1.5,1.3,2.4H48.2z"/>
		<path id="XMLID_257_" class="st1" d="M52.5,22.1h2.1v6.2c0,0.7,0.1,1.2,0.2,1.5c0.3,0.6,0.8,0.8,1.7,0.8c0.8,0,1.4-0.3,1.7-0.8
			c0.2-0.3,0.2-0.8,0.2-1.5v-6.2h2.1v6.2c0,1.1-0.2,1.9-0.5,2.5c-0.6,1.1-1.8,1.6-3.5,1.6c-1.7,0-2.9-0.5-3.5-1.6
			c-0.3-0.6-0.5-1.4-0.5-2.5V22.1z"/>
		<path id="XMLID_254_" class="st1" d="M65.6,22.1H68l3.6,10.1h-2.3l-0.7-2.1h-3.7l-0.7,2.1H62L65.6,22.1z M65.5,28.4h2.6l-1.3-4
			L65.5,28.4z"/>
		<path id="XMLID_251_" class="st1" d="M79.5,22.4c0.4,0.2,0.7,0.4,0.9,0.7c0.2,0.3,0.4,0.5,0.5,0.8c0.1,0.3,0.2,0.7,0.2,1.1
			c0,0.5-0.1,0.9-0.4,1.4c-0.2,0.5-0.6,0.8-1.2,1c0.5,0.2,0.8,0.5,1,0.8c0.2,0.3,0.3,0.9,0.3,1.6v0.7c0,0.5,0,0.8,0.1,0.9
			c0.1,0.3,0.2,0.5,0.4,0.6v0.3h-2.3c-0.1-0.2-0.1-0.4-0.1-0.5c-0.1-0.3-0.1-0.6-0.1-0.9l0-0.9c0-0.6-0.1-1.1-0.3-1.3
			c-0.2-0.2-0.6-0.3-1.2-0.3h-2.1v4h-2.1V22.1h4.8C78.6,22.1,79.1,22.2,79.5,22.4z M75.1,23.9v2.7h2.3c0.5,0,0.8-0.1,1-0.2
			c0.4-0.2,0.6-0.6,0.6-1.1c0-0.6-0.2-1-0.6-1.2c-0.2-0.1-0.5-0.2-1-0.2H75.1z"/>
		<path id="XMLID_248_" class="st1" d="M89.2,22.3c0.7,0.2,1.3,0.7,1.7,1.3c0.4,0.5,0.6,1,0.7,1.6c0.1,0.6,0.2,1.1,0.2,1.7
			c0,1.3-0.3,2.5-0.8,3.4c-0.7,1.3-1.9,1.9-3.4,1.9h-4.3V22.1h4.3C88.2,22.1,88.7,22.2,89.2,22.3z M85.3,23.9v6.6h1.9
			c1,0,1.7-0.5,2.1-1.5c0.2-0.5,0.3-1.2,0.3-1.9c0-1-0.2-1.8-0.5-2.4c-0.3-0.5-1-0.8-1.9-0.8H85.3z"/>
		<path id="XMLID_245_" class="st1" d="M96.4,22.1h2.4l3.6,10.1H100l-0.7-2.1h-3.7L95,32.2h-2.2L96.4,22.1z M96.2,28.4h2.6l-1.3-4
			L96.2,28.4z"/>
		<path id="XMLID_242_" class="st1" d="M110.2,22.4c0.4,0.2,0.7,0.4,0.9,0.7c0.2,0.3,0.4,0.5,0.5,0.8c0.1,0.3,0.2,0.7,0.2,1.1
			c0,0.5-0.1,0.9-0.4,1.4c-0.2,0.5-0.6,0.8-1.2,1c0.5,0.2,0.8,0.5,1,0.8c0.2,0.3,0.3,0.9,0.3,1.6v0.7c0,0.5,0,0.8,0.1,0.9
			c0.1,0.3,0.2,0.5,0.4,0.6v0.3h-2.3c-0.1-0.2-0.1-0.4-0.1-0.5c-0.1-0.3-0.1-0.6-0.1-0.9l0-0.9c0-0.6-0.1-1.1-0.3-1.3
			c-0.2-0.2-0.6-0.3-1.2-0.3h-2.1v4h-2.1V22.1h4.8C109.3,22.1,109.8,22.2,110.2,22.4z M105.9,23.9v2.7h2.3c0.5,0,0.8-0.1,1-0.2
			c0.4-0.2,0.6-0.6,0.6-1.1c0-0.6-0.2-1-0.6-1.2c-0.2-0.1-0.5-0.2-1-0.2H105.9z"/>
	</g>
</g>
</svg>
