<?xml version="1.0" encoding="utf-8"?>
<!-- Generator: Adobe Illustrator 19.0.0, SVG Export Plug-In . SVG Version: 6.00 Build 0)  -->
<svg version="1.1" id="Camada_1" xmlns="http://www.w3.org/2000/svg" xmlns:xlink="http://www.w3.org/1999/xlink" x="0px" y="0px"
	 viewBox="0 0 153 50" style="enable-background:new 0 0 153 50;" xml:space="preserve">
<style type="text/css">
	.st0{fill:#ADC77F;}
	.st1{fill:#FFFFFF;}
</style>
<rect id="XMLID_2632_" x="0" class="st0" width="153" height="50"/>
<g id="XMLID_110_">
	<g id="XMLID_346_">
		<path id="XMLID_376_" class="st1" d="M21.2,32.2h-2.1V22.1h2.1V32.2z"/>
		<path id="XMLID_374_" class="st1" d="M23.3,22.1h2.2l4,7v-7h2v10.1h-2.1L25.3,25v7.1h-2V22.1z"/>
		<path id="XMLID_372_" class="st1" d="M35.5,32.2h-2.1V22.1h2.1V32.2z"/>
		<path id="XMLID_370_" class="st1" d="M38.6,23.1c0.8-0.8,1.8-1.2,3.1-1.2c1.7,0,2.9,0.6,3.7,1.7c0.4,0.6,0.7,1.3,0.7,1.9h-2.1
			c-0.1-0.5-0.3-0.8-0.5-1.1c-0.4-0.4-0.9-0.7-1.7-0.7c-0.8,0-1.3,0.3-1.8,0.9c-0.4,0.6-0.6,1.5-0.6,2.6s0.2,2,0.7,2.5
			c0.5,0.6,1,0.8,1.7,0.8c0.7,0,1.3-0.2,1.7-0.7c0.2-0.3,0.4-0.6,0.5-1.2H46c-0.2,1.1-0.6,2-1.4,2.7c-0.7,0.7-1.7,1-2.9,1
			c-1.4,0-2.6-0.5-3.4-1.4c-0.8-0.9-1.2-2.2-1.2-3.8C37.2,25.4,37.6,24.1,38.6,23.1z"/>
		<path id="XMLID_368_" class="st1" d="M49.8,32.2h-2.1V22.1h2.1V32.2z"/>
		<path id="XMLID_365_" class="st1" d="M54.8,22.1h2.4l3.6,10.1h-2.3l-0.7-2.1h-3.7l-0.7,2.1h-2.2L54.8,22.1z M54.6,28.4h2.6l-1.3-4
			L54.6,28.4z"/>
		<path id="XMLID_362_" class="st1" d="M68.6,22.3c0.4,0.2,0.7,0.4,0.9,0.7c0.2,0.3,0.4,0.5,0.5,0.8c0.1,0.3,0.2,0.7,0.2,1.1
			c0,0.5-0.1,0.9-0.4,1.4c-0.2,0.5-0.6,0.8-1.2,1c0.5,0.2,0.8,0.5,1,0.8c0.2,0.3,0.3,0.9,0.3,1.6v0.7c0,0.5,0,0.8,0.1,0.9
			c0.1,0.3,0.2,0.5,0.4,0.6v0.3h-2.3c-0.1-0.2-0.1-0.4-0.1-0.5c-0.1-0.3-0.1-0.6-0.1-0.9l0-0.9c0-0.6-0.1-1.1-0.3-1.3
			c-0.2-0.2-0.6-0.3-1.2-0.3h-2.1v4h-2.1V22.1H67C67.7,22.1,68.2,22.2,68.6,22.3z M64.2,23.8v2.7h2.3c0.5,0,0.8-0.1,1-0.2
			c0.4-0.2,0.6-0.6,0.6-1.1c0-0.6-0.2-1-0.6-1.2c-0.2-0.1-0.5-0.2-1-0.2H64.2z"/>
		<path id="XMLID_360_" class="st1" d="M77.9,29.1c0.1,0.5,0.2,0.8,0.4,1c0.3,0.4,0.9,0.6,1.8,0.6c0.5,0,0.9-0.1,1.2-0.2
			c0.6-0.2,0.9-0.6,0.9-1.2c0-0.3-0.1-0.6-0.4-0.8c-0.3-0.2-0.8-0.3-1.4-0.5l-1.1-0.2c-1.1-0.2-1.8-0.5-2.2-0.8
			c-0.7-0.5-1-1.2-1-2.2c0-0.9,0.3-1.7,1-2.2s1.6-0.9,2.9-0.9c1.1,0,2,0.3,2.8,0.8c0.8,0.6,1.2,1.4,1.2,2.5h-2c0-0.6-0.3-1-0.8-1.3
			c-0.3-0.2-0.8-0.3-1.3-0.3c-0.6,0-1,0.1-1.3,0.3c-0.3,0.2-0.5,0.5-0.5,0.9c0,0.4,0.2,0.6,0.5,0.8c0.2,0.1,0.7,0.3,1.3,0.4l1.8,0.4
			c0.8,0.2,1.4,0.4,1.7,0.7c0.6,0.5,0.9,1.2,0.9,2.1c0,0.9-0.4,1.7-1.1,2.3c-0.7,0.6-1.7,0.9-3,0.9c-1.3,0-2.4-0.3-3.1-0.9
			c-0.8-0.6-1.1-1.4-1.1-2.5H77.9z"/>
		<path id="XMLID_358_" class="st1" d="M93.4,23.9H88V26h4.9v1.8H88v2.6h5.6v1.8H86V22.1h7.4V23.9z"/>
		<path id="XMLID_356_" class="st1" d="M96.9,29.1c0.1,0.5,0.2,0.8,0.4,1c0.3,0.4,0.9,0.6,1.8,0.6c0.5,0,0.9-0.1,1.2-0.2
			c0.6-0.2,0.9-0.6,0.9-1.2c0-0.3-0.1-0.6-0.4-0.8c-0.3-0.2-0.8-0.3-1.4-0.5l-1.1-0.2c-1.1-0.2-1.8-0.5-2.2-0.8
			c-0.7-0.5-1-1.2-1-2.2c0-0.9,0.3-1.7,1-2.2c0.7-0.6,1.6-0.9,2.9-0.9c1.1,0,2,0.3,2.8,0.8c0.8,0.6,1.2,1.4,1.2,2.5h-2
			c0-0.6-0.3-1-0.8-1.3c-0.3-0.2-0.8-0.3-1.3-0.3c-0.6,0-1,0.1-1.3,0.3c-0.3,0.2-0.5,0.5-0.5,0.9c0,0.4,0.2,0.6,0.5,0.8
			c0.2,0.1,0.7,0.3,1.3,0.4l1.8,0.4c0.8,0.2,1.4,0.4,1.7,0.7c0.6,0.5,0.9,1.2,0.9,2.1c0,0.9-0.4,1.7-1.1,2.3c-0.7,0.6-1.7,0.9-3,0.9
			c-1.3,0-2.4-0.3-3.1-0.9c-0.8-0.6-1.1-1.4-1.1-2.5H96.9z"/>
		<path id="XMLID_354_" class="st1" d="M106.4,29.1c0.1,0.5,0.2,0.8,0.4,1c0.3,0.4,0.9,0.6,1.8,0.6c0.5,0,0.9-0.1,1.2-0.2
			c0.6-0.2,0.9-0.6,0.9-1.2c0-0.3-0.1-0.6-0.4-0.8c-0.3-0.2-0.8-0.3-1.4-0.5l-1.1-0.2c-1.1-0.2-1.8-0.5-2.2-0.8
			c-0.7-0.5-1-1.2-1-2.2c0-0.9,0.3-1.7,1-2.2s1.6-0.9,2.9-0.9c1.1,0,2,0.3,2.8,0.8c0.8,0.6,1.2,1.4,1.2,2.5h-2c0-0.6-0.3-1-0.8-1.3
			c-0.3-0.2-0.8-0.3-1.3-0.3c-0.6,0-1,0.1-1.3,0.3c-0.3,0.2-0.5,0.5-0.5,0.9c0,0.4,0.2,0.6,0.5,0.8c0.2,0.1,0.7,0.3,1.3,0.4l1.8,0.4
			c0.8,0.2,1.4,0.4,1.7,0.7c0.6,0.5,0.9,1.2,0.9,2.1c0,0.9-0.4,1.7-1.1,2.3c-0.7,0.6-1.7,0.9-3,0.9c-1.3,0-2.4-0.3-3.1-0.9
			c-0.8-0.6-1.1-1.4-1.1-2.5H106.4z"/>
		<path id="XMLID_350_" class="st1" d="M117.2,22.1h2.4l3.6,10.1h-2.3l-0.7-2.1h-3.7l-0.7,2.1h-2.2L117.2,22.1z M117.9,19.5
			c0.1,0,0.2,0.1,0.3,0.1l0.6,0.2c0.2,0.1,0.3,0.1,0.4,0.1c0.1,0,0.1,0,0.2,0c0.2,0,0.4-0.1,0.5-0.2c0.1-0.1,0.2-0.3,0.2-0.4h0.9
			c-0.1,0.5-0.2,0.9-0.5,1.2c-0.2,0.3-0.6,0.5-1.1,0.5c-0.1,0-0.3,0-0.6-0.1c-0.2,0-0.3-0.1-0.4-0.1l-0.6-0.2c-0.1,0-0.2,0-0.2-0.1
			c-0.1,0-0.1,0-0.2,0c-0.2,0-0.3,0.1-0.4,0.2c-0.1,0.1-0.2,0.3-0.2,0.4h-0.9c0.1-0.5,0.2-0.8,0.4-1.1c0.3-0.4,0.7-0.7,1.3-0.7
			C117.6,19.5,117.8,19.5,117.9,19.5z M117.1,28.4h2.6l-1.3-4L117.1,28.4z"/>
		<path id="XMLID_347_" class="st1" d="M132.3,31.3c-0.8,0.8-1.9,1.2-3.3,1.2c-1.4,0-2.5-0.4-3.3-1.2c-1-1-1.5-2.3-1.5-4.2
			c0-1.8,0.5-3.2,1.5-4.2c0.8-0.8,1.9-1.2,3.3-1.2c1.4,0,2.5,0.4,3.3,1.2c1,0.9,1.5,2.3,1.5,4.2C133.9,28.9,133.4,30.3,132.3,31.3z
			 M131,29.7c0.5-0.6,0.7-1.5,0.7-2.6c0-1.1-0.2-2-0.7-2.6c-0.5-0.6-1.2-0.9-2-0.9s-1.5,0.3-2,0.9c-0.5,0.6-0.7,1.5-0.7,2.6
			s0.2,2,0.7,2.6c0.5,0.6,1.2,0.9,2,0.9S130.5,30.4,131,29.7z"/>
	</g>
</g>
</svg>
