<?xml version="1.0" encoding="utf-8"?>
<!-- Generator: Adobe Illustrator 19.0.0, SVG Export Plug-In . SVG Version: 6.00 Build 0)  -->
<svg version="1.1" id="Camada_1" xmlns="http://www.w3.org/2000/svg" xmlns:xlink="http://www.w3.org/1999/xlink" x="0px" y="0px"
	 viewBox="0 0 98 30" style="enable-background:new 0 0 98 30;" xml:space="preserve">
<style type="text/css">
	.st0{fill:#CDC4BD;}
	.st1{fill:#808080;}
</style>
<g id="XMLID_1_">
	<g id="XMLID_2163_">
		<g id="XMLID_19_">
			<rect id="XMLID_20_" x="0" y="0" class="st0" width="98" height="30"/>
		</g>
	</g>
	<g id="XMLID_186_">
		<path id="XMLID_188_" class="st1" d="M38.6,5.6h1.7l2.5,7.2h-1.6l-0.5-1.5h-2.7l-0.5,1.5H36L38.6,5.6z M38.5,10h1.8l-0.9-2.8
			L38.5,10z"/>
		<path id="XMLID_195_" class="st1" d="M44.9,10.5c0,0.3,0.1,0.6,0.3,0.7c0.2,0.3,0.7,0.4,1.3,0.4c0.4,0,0.7,0,0.9-0.1
			c0.4-0.1,0.6-0.4,0.6-0.8c0-0.2-0.1-0.4-0.3-0.6c-0.2-0.1-0.5-0.2-1-0.3l-0.8-0.2c-0.8-0.2-1.3-0.4-1.6-0.6
			c-0.5-0.3-0.7-0.9-0.7-1.6c0-0.6,0.2-1.2,0.7-1.6s1.2-0.6,2.1-0.6c0.8,0,1.4,0.2,2,0.6c0.5,0.4,0.8,1,0.9,1.8h-1.4
			c0-0.4-0.2-0.7-0.6-0.9c-0.2-0.1-0.5-0.2-0.9-0.2c-0.4,0-0.7,0.1-1,0.2S45,7.2,45,7.5c0,0.3,0.1,0.4,0.4,0.6
			c0.2,0.1,0.5,0.2,1,0.3l1.3,0.3c0.6,0.1,1,0.3,1.2,0.5c0.4,0.3,0.6,0.8,0.6,1.5c0,0.7-0.3,1.2-0.8,1.6c-0.5,0.4-1.2,0.7-2.2,0.7
			c-0.9,0-1.7-0.2-2.2-0.6c-0.5-0.4-0.8-1-0.8-1.8H44.9z"/>
		<path id="XMLID_214_" class="st1" d="M58.2,5.6h2.2v7.2H59V7.9c0-0.1,0-0.3,0-0.6c0-0.3,0-0.4,0-0.6l-1.4,6h-1.5l-1.4-6
			c0,0.1,0,0.3,0,0.6c0,0.3,0,0.4,0,0.6v4.9h-1.4V5.6h2.2l1.3,5.7L58.2,5.6z"/>
		<path id="XMLID_216_" class="st1" d="M63.3,12.8h-1.5V5.6h1.5V12.8z"/>
		<path id="XMLID_218_" class="st1" d="M64.8,5.6h1.6l2.9,5v-5h1.4v7.2h-1.5l-2.9-5.1v5.1h-1.4V5.6z"/>
		<path id="XMLID_220_" class="st1" d="M72.1,12.8V5.6h1.5v2.7h2.8V5.6h1.5v7.2h-1.5V9.6h-2.8v3.2H72.1z"/>
		<path id="XMLID_222_" class="st1" d="M81.5,5.6h1.7l2.5,7.2h-1.6l-0.5-1.5H81l-0.5,1.5h-1.6L81.5,5.6z M81.4,10h1.8l-0.9-2.8
			L81.4,10z"/>
		<path id="XMLID_226_" class="st1" d="M87.8,10.5c0,0.3,0.1,0.6,0.3,0.7c0.2,0.3,0.7,0.4,1.3,0.4c0.4,0,0.7,0,0.9-0.1
			c0.4-0.1,0.6-0.4,0.6-0.8c0-0.2-0.1-0.4-0.3-0.6c-0.2-0.1-0.5-0.2-1-0.3l-0.8-0.2c-0.8-0.2-1.3-0.4-1.6-0.6
			c-0.5-0.3-0.7-0.9-0.7-1.6c0-0.6,0.2-1.2,0.7-1.6s1.2-0.6,2.1-0.6c0.8,0,1.4,0.2,2,0.6c0.5,0.4,0.8,1,0.9,1.8h-1.4
			c0-0.4-0.2-0.7-0.6-0.9c-0.2-0.1-0.5-0.2-0.9-0.2c-0.4,0-0.7,0.1-1,0.2C88,7,87.9,7.2,87.9,7.5c0,0.3,0.1,0.4,0.4,0.6
			c0.1,0.1,0.5,0.2,1,0.3l1.3,0.3c0.6,0.1,1,0.3,1.2,0.5c0.4,0.3,0.6,0.8,0.6,1.5c0,0.7-0.3,1.2-0.8,1.6c-0.5,0.4-1.2,0.7-2.2,0.7
			c-0.9,0-1.7-0.2-2.2-0.6c-0.5-0.4-0.8-1-0.8-1.8H87.8z"/>
		<path id="XMLID_230_" class="st1" d="M41.7,17.6v1.3h-2.2v5.9h-1.5v-5.9h-2.2v-1.3H41.7z"/>
		<path id="XMLID_235_" class="st1" d="M47.3,17.8c0.3,0.1,0.5,0.3,0.7,0.5c0.2,0.2,0.3,0.4,0.4,0.6c0.1,0.2,0.1,0.5,0.1,0.8
			c0,0.3-0.1,0.7-0.3,1c-0.2,0.3-0.5,0.6-0.9,0.7c0.3,0.1,0.6,0.3,0.7,0.6c0.1,0.2,0.2,0.6,0.2,1.1v0.5c0,0.3,0,0.6,0,0.7
			c0,0.2,0.1,0.3,0.3,0.4v0.2H47c0-0.2-0.1-0.3-0.1-0.4c0-0.2-0.1-0.4-0.1-0.6l0-0.7c0-0.5-0.1-0.8-0.2-0.9s-0.4-0.2-0.9-0.2h-1.5
			v2.8h-1.5v-7.2h3.4C46.7,17.6,47.1,17.6,47.3,17.8z M44.2,18.8v1.9h1.6c0.3,0,0.6,0,0.7-0.1c0.3-0.1,0.4-0.4,0.4-0.8
			c0-0.4-0.1-0.7-0.4-0.9c-0.2-0.1-0.4-0.1-0.7-0.1H44.2z"/>
		<path id="XMLID_254_" class="st1" d="M55.6,24.1C55,24.7,54.2,25,53.2,25c-1,0-1.8-0.3-2.4-0.8c-0.7-0.7-1.1-1.7-1.1-3
			c0-1.3,0.4-2.3,1.1-3c0.5-0.6,1.3-0.8,2.4-0.8c1,0,1.8,0.3,2.4,0.8c0.7,0.7,1.1,1.7,1.1,3C56.7,22.5,56.3,23.4,55.6,24.1z
			 M54.6,23c0.3-0.4,0.5-1.1,0.5-1.9c0-0.8-0.2-1.4-0.5-1.9c-0.3-0.4-0.8-0.7-1.4-0.7s-1.1,0.2-1.4,0.7c-0.4,0.4-0.5,1.1-0.5,1.9
			s0.2,1.4,0.5,1.9c0.4,0.4,0.8,0.7,1.4,0.7S54.3,23.5,54.6,23z"/>
		<path id="XMLID_258_" class="st1" d="M58.6,18.3c0.6-0.6,1.3-0.9,2.2-0.9c1.2,0,2.1,0.4,2.6,1.2c0.3,0.4,0.5,0.9,0.5,1.3h-1.5
			c-0.1-0.3-0.2-0.6-0.4-0.8c-0.3-0.3-0.7-0.5-1.2-0.5c-0.5,0-1,0.2-1.3,0.7c-0.3,0.4-0.5,1.1-0.5,1.9s0.2,1.4,0.5,1.8
			c0.3,0.4,0.7,0.6,1.2,0.6c0.5,0,0.9-0.2,1.2-0.5c0.1-0.2,0.3-0.5,0.4-0.8h1.5c-0.1,0.8-0.5,1.4-1,1.9s-1.2,0.7-2,0.7
			c-1,0-1.8-0.3-2.4-1c-0.6-0.7-0.9-1.6-0.9-2.7C57.6,20,57.9,19,58.6,18.3z"/>
		<path id="XMLID_265_" class="st1" d="M67.3,17.6H69l2.5,7.2h-1.6l-0.5-1.5h-2.7l-0.5,1.5h-1.6L67.3,17.6z M67.2,22H69l-0.9-2.8
			L67.2,22z"/>
		<path id="XMLID_272_" class="st1" d="M73.6,22.5c0,0.3,0.1,0.6,0.3,0.7c0.2,0.3,0.7,0.4,1.3,0.4c0.4,0,0.7,0,0.9-0.1
			c0.4-0.1,0.6-0.4,0.6-0.8c0-0.2-0.1-0.4-0.3-0.6c-0.2-0.1-0.5-0.2-1-0.3l-0.8-0.2c-0.8-0.2-1.3-0.4-1.6-0.6
			c-0.5-0.3-0.7-0.9-0.7-1.6c0-0.6,0.2-1.2,0.7-1.6s1.2-0.6,2.1-0.6c0.8,0,1.4,0.2,2,0.6c0.5,0.4,0.8,1,0.9,1.8h-1.4
			c0-0.4-0.2-0.7-0.6-0.9c-0.2-0.1-0.5-0.2-0.9-0.2c-0.4,0-0.7,0.1-1,0.2c-0.2,0.2-0.4,0.4-0.4,0.7c0,0.3,0.1,0.4,0.4,0.6
			c0.1,0.1,0.5,0.2,1,0.3l1.3,0.3c0.6,0.1,1,0.3,1.2,0.5c0.4,0.3,0.6,0.8,0.6,1.5c0,0.7-0.3,1.2-0.8,1.6c-0.5,0.4-1.2,0.7-2.2,0.7
			c-0.9,0-1.7-0.2-2.2-0.6c-0.5-0.4-0.8-1-0.8-1.8H73.6z"/>
	</g>
	<g id="XMLID_30_">
		<g id="XMLID_176_">
			<path id="XMLID_177_" class="st1" d="M25.6,14c-0.4-1.2-0.9-2.4-1.6-3.4c-0.6-0.9-1.5-1.8-2.6-2c-0.5-0.1-1-0.3-1.5-0.5
				c-0.2-0.1-0.5-0.2-0.7-0.4c-0.2-0.2-0.3-0.5-0.5-0.7c-0.3-0.4-0.7-0.9-1.2-1.1c-0.5-0.2-1-0.2-1.5,0c-0.3,0.3-0.6,0.5-0.7,1
				c-0.1,0.5,0,1,0,1.5c-0.3,0.5-0.6,1-0.9,1.5c-0.3,0.4-0.5,0.8-0.7,1.3c-0.2,0.5-0.3,0.9-0.2,1.5c0.1,0.5,0.4,3.9,0.5,4.2
				c0.1,0.3,0.1,0.5,0.3,0.8c0.1,0.3,0.1,0.6,0.2,0.8c0.1,0.3,0.3,0.6,0.4,0.9c0.3,0.6,0.5,1.1,1,1.6c0.4,0.4,0.9,0.7,1.4,0.9
				c0.5,0.3,1.1,0.4,1.7,0.4c1.2,0.1,2.5-0.1,3.7-0.5c0.6-0.2,1.1-0.6,1.7-1c0.5-0.4,0.8-0.8,1.2-1.3c0-0.2,0.1-0.4,0.1-0.6
				c0-0.2,0.1-0.4,0.2-0.6c0-0.1,0-0.2,0-0.3c0-0.1,0-0.2,0-0.3c0.1-0.2,0.1-0.5,0.1-0.8c0-0.3,0-0.5-0.1-0.8
				c-0.1-0.3-0.2-0.5-0.2-0.8c0-0.3,0-0.5-0.1-0.7C25.7,14.3,25.7,14.2,25.6,14z M25.2,17.4c-0.2,0.7-0.2,1-0.3,1
				c-0.1,0-0.1-0.2-0.2-0.4s-0.4-1.4-0.5-1.8c-0.1-0.5-0.2-1.2-0.3-1.6c-0.2-0.7-0.4-1.2-0.7-1.8c-0.1-0.3-0.2-0.7-0.4-1
				c-0.2-0.3-0.5-0.6-0.7-0.9c-0.4-0.5-1-0.8-1.6-1.1c-0.6-0.3-1.2-0.7-1.9-0.9c0.2,0.4,0.6,0.6,1,0.8c0.5,0.3,0.9,0.6,1.4,1
				c0.3,0.6,0.6,1.3,0.7,2c0,0.2,0.1,0.9,0.2,1.1c0.1,0.4,0.6,1.2,0.7,1.2c0,0,0.9,2.5,1.3,3.2c0.4,0.7,0.2,1.2,0,1.4
				c-0.2,0.1-0.5,0.4-0.6,0.4c-0.1,0-0.3-1.1-0.6-1.9c-0.3-0.8-0.7-2.4-0.8-2.9c-0.5-1.2-0.9-2.6-1.7-3.7c-0.4-0.5-0.8-0.9-1.3-1.3
				c-0.5-0.4-0.8-0.9-1.4-1.2c0,0.6,0.5,1,0.9,1.4c0.4,0.4,0.7,1,1,1.5c0.3,0.6,0.3,1.2,0.5,1.9c0.1,0.7,0.3,1.4,0.5,2
				c0.1,0.2,0.9,2,1.1,2.6c0.2,0.5,0.7,2.2,0.5,2.3c-0.2,0-0.6,0.2-0.8,0.2c-0.2-0.1-0.4-0.8-0.7-1.4c-0.3-0.6-0.8-2.8-0.9-3.4
				c-0.1-0.6-0.3-1.1-0.5-1.7c-0.2-0.6-0.6-1.1-0.8-1.7c-0.3-0.6-0.5-1.2-0.6-1.8c-0.2-0.5-0.3-1.2-0.7-1.6c-0.3,0.5-0.1,1,0,1.6
				c0.1,0.6,0.5,1.2,0.6,1.8c0.1,0.3,0.1,0.6,0.2,0.8c0.1,0.3,0.2,0.7,0.3,1c0.2,0.6,0.3,1.3,0.5,1.9c0.1,0.2,0.4,1.5,0.6,2
				c0.2,0.5,1,2.9,0.8,2.9c-0.3,0-0.8,0-0.9-0.2s-0.3-0.7-0.3-0.9c0-0.3-0.4-1.1-0.5-1.5s-0.6-1.4-0.6-2c-0.2-0.6-0.4-1.3-0.6-1.9
				c-0.3-0.7-0.7-1.3-0.9-2c-0.2-0.6-0.3-1.2-0.1-1.8c0.1-0.3,0.2-0.7,0.3-1c0.1-0.3,0.2-0.6,0.1-1c-0.4,0.5-0.7,1.2-0.8,1.8
				c-0.1,0.3-0.1,0.6-0.1,0.9c-0.1,0.3-0.2,0.6-0.2,0.9c0,0.3,0.1,0.6,0.2,1c0.1,0.4,0.2,0.8,0.3,1.1c0.3,0.8,0.4,1.6,0.7,2.3
				c0,0.1,0.3,1.1,0.2,1c0,0.6,0.2,0.8,0.3,1.4c-0.1,0.1,0.1,1,0,1.1c0,0.2-0.2-0.1-0.5-0.3c-0.3-0.1-0.4-0.5-0.5-0.5L15,17.5
				c-0.1-0.4-0.3-0.7-0.4-1.1c-0.3-0.9,0.1,0.4,0,0c-0.3-1-0.5-2-0.5-3c0-0.5,0-0.9,0.1-1.4c0.1-0.5,0.3-0.9,0.6-1.3
				c0.2-0.4,0.5-0.8,0.8-1.2c0.2-0.4,0.3-0.8,0.4-1.3c0.1-0.4,0-0.9,0.2-1.3c0.1-0.4,0.3-0.5,0.6-0.7c0.2,0,0.3,0.1,0.5,0.1
				c0.6,0.4,0.8,1.1,1.3,1.7c0.7,0.4,1.3,0.8,2.1,1c0.4,0.1,0.7,0.1,1.1,0.3c0.3,0.1,0.6,0.4,0.9,0.6c1.2,1.1,2,2.7,2.5,4.2
				C25.3,14.6,25.3,16.8,25.2,17.4z"/>
		</g>
		<g id="XMLID_32_">
			<g id="XMLID_165_">
				<path id="XMLID_175_" class="st1" d="M21.8,25.3c0,0,0.1,0,0.3-0.1c0.2,0,0.4-0.1,0.8-0.2c0.3-0.1,0.7-0.2,1.2-0.4
					c0.4-0.2,0.9-0.4,1.4-0.7c0.5-0.3,1-0.6,1.5-1c0.5-0.4,0.9-0.9,1.4-1.5c0.1-0.1,0.2-0.3,0.3-0.4l0.3-0.5c0.2-0.3,0.4-0.7,0.5-1
					c0.2-0.3,0.2-0.7,0.4-1c0.1-0.4,0.2-0.7,0.2-1.1c0.1-0.7,0.2-1.5,0.1-2.2l0-0.5l-0.1-0.5c0-0.4-0.1-0.7-0.2-1
					c-0.2-0.7-0.4-1.3-0.7-1.9c-0.1-0.3-0.3-0.6-0.4-0.9c-0.1-0.3-0.3-0.5-0.4-0.8c-0.3-0.5-0.6-0.9-0.9-1.3
					c-0.3-0.4-0.6-0.7-0.8-0.9c-0.5-0.5-0.7-0.8-0.7-0.8l0.1-0.1c0,0,0.3,0.3,0.8,0.7c0.2,0.2,0.5,0.5,0.8,0.9
					c0.3,0.4,0.7,0.8,1,1.3c0.2,0.2,0.3,0.5,0.5,0.8c0.1,0.3,0.3,0.6,0.5,0.9c0.3,0.6,0.5,1.3,0.7,2c0.1,0.4,0.2,0.7,0.2,1.1
					c0,0.2,0.1,0.4,0.1,0.6l0,0.6c0.1,0.8,0,1.6-0.1,2.3c-0.1,0.4-0.2,0.8-0.3,1.1c-0.1,0.4-0.2,0.7-0.4,1.1c-0.2,0.4-0.3,0.7-0.5,1
					c-0.2,0.3-0.4,0.6-0.6,0.9c-0.9,1.2-2,2-3.1,2.5c-1.1,0.5-2,0.8-2.7,0.9c-0.3,0.1-0.6,0.1-0.8,0.1
					C21.9,25.3,21.8,25.4,21.8,25.3L21.8,25.3z"/>
				<g id="XMLID_166_">
					<circle id="XMLID_171_" class="st1" cx="25.9" cy="6.5" r="1.2"/>
					<path id="XMLID_167_" class="st1" d="M26.8,5.4c0.6,0.5,0.7,1.4,0.3,2c-0.5,0.6-1.4,0.7-2,0.3c-0.6-0.5-0.7-1.4-0.3-2
						C25.3,5.1,26.2,5,26.8,5.4C27.4,5.9,26.2,5,26.8,5.4z M25.3,7.4c0.5,0.4,1.1,0.3,1.5-0.2c0.4-0.5,0.3-1.1-0.2-1.5
						c-0.5-0.4-1.1-0.3-1.5,0.2C24.7,6.4,24.8,7,25.3,7.4C25.8,7.8,24.8,7,25.3,7.4z"/>
				</g>
			</g>
			<g id="XMLID_79_">
				<path id="XMLID_164_" class="st1" d="M7.3,11.2c0,0,0,0.3,0,0.9c0,0.3,0,0.6,0.1,1.1c0,0.4,0.1,0.9,0.2,1.3
					c0.2,1,0.6,2.1,1.2,3.1C9,18,9.1,18.2,9.3,18.5c0.2,0.3,0.3,0.5,0.5,0.8c0.4,0.5,0.8,1,1.3,1.5l0.7,0.7c0.2,0.2,0.5,0.4,0.7,0.6
					c0.3,0.2,0.5,0.4,0.8,0.6c0.3,0.2,0.5,0.4,0.8,0.5c1.1,0.6,2.1,1.1,3.1,1.4c0.5,0.2,0.9,0.3,1.3,0.4c0.4,0.1,0.7,0.2,1,0.2
					c0.6,0.1,0.9,0.1,0.9,0.1l0,0.2c0,0-0.3,0-0.9,0c-0.6,0-1.4-0.2-2.4-0.4c-1-0.3-2.1-0.7-3.2-1.3c-0.6-0.3-1.1-0.7-1.6-1.1
					c-0.3-0.2-0.5-0.4-0.8-0.6c-0.2-0.2-0.5-0.5-0.7-0.7c-0.5-0.5-0.9-1-1.3-1.6C9.2,19.3,9,19,8.9,18.8c-0.2-0.3-0.3-0.6-0.5-0.9
					c-0.6-1.1-0.9-2.3-1.1-3.3c-0.1-0.5-0.1-1-0.1-1.4c0-0.4,0-0.8,0-1.1c0-0.3,0.1-0.5,0.1-0.7C7.3,11.3,7.3,11.2,7.3,11.2
					L7.3,11.2z"/>
				<g id="XMLID_80_">
					<circle id="XMLID_163_" class="st1" cx="20.4" cy="25.4" r="1.2"/>
					<path id="XMLID_81_" class="st1" d="M20.4,26.8c-0.8,0-1.4-0.6-1.5-1.3c0-0.8,0.6-1.4,1.3-1.5c0.8,0,1.4,0.6,1.5,1.3
						C21.8,26.1,21.2,26.8,20.4,26.8C19.6,26.8,21.2,26.8,20.4,26.8z M20.3,24.3c-0.6,0-1.1,0.5-1,1.1c0,0.6,0.5,1.1,1.1,1
						c0.6,0,1.1-0.5,1-1.1C21.4,24.7,20.9,24.3,20.3,24.3C19.7,24.3,20.9,24.3,20.3,24.3z"/>
				</g>
			</g>
			<g id="XMLID_34_">
				<path id="XMLID_78_" class="st1" d="M24.8,5.7c0,0-0.3-0.1-0.8-0.4c-0.2-0.1-0.6-0.3-0.9-0.4c-0.2-0.1-0.4-0.2-0.6-0.2
					c-0.2-0.1-0.4-0.1-0.6-0.2c-0.4-0.2-1-0.3-1.5-0.4c-0.5-0.1-1.1-0.2-1.7-0.2c-0.6-0.1-1.2-0.1-1.8-0.1c-0.3,0-0.6,0-0.9,0.1
					l-0.9,0.2c-0.6,0.2-1.2,0.3-1.8,0.5c-0.3,0.1-0.6,0.2-0.8,0.4c-0.3,0.1-0.5,0.3-0.8,0.4c-0.2,0.1-0.5,0.3-0.7,0.5
					c-0.2,0.2-0.4,0.3-0.6,0.5C10.2,6.4,10,6.6,9.8,6.7C9.6,6.9,9.5,7.1,9.3,7.3C9,7.6,8.8,8,8.6,8.3C8.4,8.6,8.2,8.9,8.1,9.2
					C7.8,9.7,7.7,10,7.7,10L7.6,9.9c0,0,0.1-0.3,0.3-0.8C8,8.8,8.1,8.5,8.3,8.2C8.5,7.8,8.7,7.4,9,7c0.2-0.2,0.3-0.4,0.5-0.6
					c0.2-0.2,0.4-0.4,0.6-0.6c0.2-0.2,0.4-0.4,0.7-0.6C11,5.1,11.2,5,11.5,4.8c0.3-0.2,0.5-0.3,0.8-0.5c0.3-0.1,0.6-0.3,0.9-0.4
					c0.6-0.2,1.2-0.4,1.9-0.5l1-0.1c0.3,0,0.6,0,1-0.1c0.6,0,1.3,0,1.9,0.1c0.6,0.1,1.2,0.2,1.7,0.3c0.5,0.2,1,0.3,1.5,0.5
					c0.2,0.1,0.4,0.2,0.6,0.3c0.2,0.1,0.4,0.2,0.6,0.3c0.4,0.2,0.7,0.3,0.9,0.5C24.6,5.5,24.8,5.7,24.8,5.7L24.8,5.7z"/>
				<g id="XMLID_69_">
					<circle id="XMLID_75_" class="st1" cx="7.6" cy="9.9" r="1.2"/>
					<path id="XMLID_70_" class="st1" d="M6.3,9.5c0.2-0.8,0.9-1.2,1.7-1c0.8,0.2,1.2,0.9,1,1.7c-0.2,0.8-0.9,1.2-1.7,1
						C6.5,11,6.1,10.3,6.3,9.5C6.4,8.8,6.1,10.3,6.3,9.5z M8.7,10.1C8.8,9.5,8.5,9,7.9,8.8C7.3,8.7,6.7,9,6.6,9.6s0.2,1.2,0.8,1.3
						C8,11,8.5,10.7,8.7,10.1C8.8,9.5,8.5,10.7,8.7,10.1z"/>
				</g>
			</g>
		</g>
	</g>
</g>
</svg>
