<?xml version="1.0" encoding="utf-8"?>
<!-- Generator: Adobe Illustrator 19.0.0, SVG Export Plug-In . SVG Version: 6.00 Build 0)  -->
<svg version="1.1" id="Camada_1" xmlns="http://www.w3.org/2000/svg" xmlns:xlink="http://www.w3.org/1999/xlink" x="0px" y="0px"
	 viewBox="0 0 58 23" style="enable-background:new 0 0 58 23;" xml:space="preserve">
<style type="text/css">
	.st0{fill:#FFFFFF;}
	.st1{fill:#C5C5C5;}
	.st2{fill:#CDC4BD;}
</style>
<g id="XMLID_19466_">
	<rect id="XMLID_42_" x="0.5" y="0.5" class="st0" width="57" height="22"/>
	<path id="XMLID_39_" class="st1" d="M57,1v21H1V1H57 M58,0H0v23h58V0L58,0z"/>
</g>
<g id="XMLID_19467_">
	<path id="XMLID_19471_" class="st2" d="M14.1,16.5v-10h2l4.1,6.7V6.5h1.9v10h-2L16,10v6.5H14.1z"/>
	<path id="XMLID_19474_" class="st2" d="M33.4,16.5h-2.2l-0.9-2.3h-4l-0.8,2.3h-2.1l3.9-10h2.1L33.4,16.5z M26.7,5.9h-0.9
		c0-0.1,0-0.2,0-0.2c0-0.5,0.1-0.8,0.3-1.1c0.2-0.3,0.5-0.4,0.9-0.4c0.2,0,0.3,0,0.4,0.1c0.1,0,0.4,0.1,0.7,0.3
		c0.4,0.2,0.6,0.2,0.9,0.2c0.1,0,0.3,0,0.4-0.1c0.1-0.1,0.2-0.2,0.2-0.5h0.9c0,0.6-0.1,1.1-0.3,1.3c-0.2,0.3-0.5,0.4-0.9,0.4
		c-0.2,0-0.3,0-0.5,0c-0.1,0-0.4-0.1-0.8-0.3c-0.4-0.2-0.7-0.2-0.9-0.2c-0.1,0-0.3,0-0.3,0.1C26.7,5.6,26.7,5.7,26.7,5.9z
		 M29.6,12.5l-1.4-3.7l-1.4,3.7H29.6z"/>
	<path id="XMLID_19479_" class="st2" d="M34.2,11.6c0-1,0.2-1.9,0.5-2.6c0.2-0.5,0.5-1,0.9-1.4c0.4-0.4,0.8-0.7,1.3-0.9
		c0.6-0.3,1.3-0.4,2.2-0.4c1.5,0,2.7,0.5,3.5,1.4c0.9,0.9,1.3,2.2,1.3,3.8c0,1.6-0.4,2.9-1.3,3.8c-0.9,0.9-2.1,1.4-3.5,1.4
		c-1.5,0-2.7-0.5-3.6-1.4C34.6,14.4,34.2,13.2,34.2,11.6z M36.3,11.5c0,1.1,0.3,2,0.8,2.6c0.5,0.6,1.2,0.9,2,0.9s1.5-0.3,2-0.9
		c0.5-0.6,0.8-1.5,0.8-2.6c0-1.1-0.3-2-0.8-2.6c-0.5-0.6-1.2-0.8-2-0.8s-1.5,0.3-2,0.9C36.5,9.5,36.3,10.3,36.3,11.5z"/>
</g>
</svg>
