<?xml version="1.0" encoding="utf-8"?>
<!-- Generator: Adobe Illustrator 19.0.0, SVG Export Plug-In . SVG Version: 6.00 Build 0)  -->
<svg version="1.1" id="Camada_1" xmlns="http://www.w3.org/2000/svg" xmlns:xlink="http://www.w3.org/1999/xlink" x="0px" y="0px"
	 viewBox="0 0 98 30" style="enable-background:new 0 0 98 30;" xml:space="preserve">
<style type="text/css">
	.st0{fill:#808080;}
	.st1{fill:none;stroke:#808080;stroke-width:0.1975;stroke-miterlimit:10;}
	.st2{fill:#EFEBE6;}
</style>
<g id="XMLID_30503_">
	<g id="XMLID_35_">
		<g id="XMLID_36_">
			<rect id="XMLID_38_" x="0" class="st0" width="98" height="30"/>
			<rect id="XMLID_37_" x="0" class="st1" width="98" height="30"/>
		</g>
	</g>
</g>
<g id="XMLID_323_">
	<g id="XMLID_276_">
		<path id="XMLID_310_" class="st2" d="M41.3,9.7c-0.4,0.4-1,0.5-1.8,0.5H38v2.6h-1.5V5.6h3.1c0.7,0,1.3,0.2,1.7,0.6
			C41.8,6.5,42,7.1,42,7.9C42,8.7,41.8,9.3,41.3,9.7z M40.2,7.1c-0.2-0.2-0.5-0.2-0.8-0.2H38v2.1h1.4c0.3,0,0.6-0.1,0.8-0.3
			c0.2-0.2,0.3-0.4,0.3-0.8S40.4,7.2,40.2,7.1z"/>
		<path id="XMLID_307_" class="st2" d="M47.9,5.8c0.3,0.1,0.5,0.3,0.7,0.5c0.2,0.2,0.3,0.4,0.4,0.6s0.1,0.5,0.1,0.8
			c0,0.3-0.1,0.7-0.3,1c-0.2,0.3-0.5,0.6-0.9,0.7c0.3,0.1,0.6,0.3,0.7,0.6c0.1,0.2,0.2,0.6,0.2,1.1v0.5c0,0.3,0,0.6,0,0.7
			c0,0.2,0.1,0.3,0.3,0.4v0.2h-1.7c0-0.2-0.1-0.3-0.1-0.4c0-0.2-0.1-0.4-0.1-0.6l0-0.7c0-0.5-0.1-0.8-0.2-0.9s-0.4-0.2-0.9-0.2h-1.5
			v2.8h-1.5V5.6h3.4C47.2,5.6,47.6,5.6,47.9,5.8z M44.8,6.8v1.9h1.6c0.3,0,0.6,0,0.7-0.1c0.3-0.1,0.4-0.4,0.4-0.8
			c0-0.4-0.1-0.7-0.4-0.9c-0.2-0.1-0.4-0.1-0.7-0.1H44.8z"/>
		<path id="XMLID_304_" class="st2" d="M56.1,12.1c-0.5,0.6-1.3,0.8-2.4,0.8s-1.8-0.3-2.4-0.8c-0.7-0.7-1.1-1.7-1.1-3
			c0-1.3,0.4-2.3,1.1-3c0.5-0.6,1.3-0.8,2.4-0.8s1.8,0.3,2.4,0.8c0.7,0.7,1.1,1.7,1.1,3C57.2,10.5,56.9,11.4,56.1,12.1z M55.2,11
			c0.3-0.4,0.5-1.1,0.5-1.9c0-0.8-0.2-1.4-0.5-1.9c-0.4-0.4-0.8-0.7-1.4-0.7s-1.1,0.2-1.4,0.7s-0.5,1.1-0.5,1.9s0.2,1.4,0.5,1.9
			s0.8,0.7,1.4,0.7S54.8,11.5,55.2,11z"/>
		<path id="XMLID_302_" class="st2" d="M59.2,6.3c0.6-0.6,1.3-0.9,2.2-0.9c1.2,0,2.1,0.4,2.6,1.2c0.3,0.4,0.5,0.9,0.5,1.3H63
			c-0.1-0.3-0.2-0.6-0.4-0.8c-0.3-0.3-0.7-0.5-1.2-0.5c-0.5,0-1,0.2-1.3,0.7c-0.3,0.4-0.5,1.1-0.5,1.9s0.2,1.4,0.5,1.8
			c0.3,0.4,0.7,0.6,1.2,0.6c0.5,0,0.9-0.2,1.2-0.5c0.2-0.2,0.3-0.5,0.4-0.8h1.5c-0.1,0.8-0.5,1.4-1,1.9c-0.5,0.5-1.2,0.7-2,0.7
			c-1,0-1.8-0.3-2.4-1c-0.6-0.7-0.9-1.6-0.9-2.7C58.2,8,58.5,7,59.2,6.3z"/>
		<path id="XMLID_300_" class="st2" d="M65.8,5.6h1.5V10c0,0.5,0.1,0.9,0.2,1.1c0.2,0.4,0.6,0.6,1.2,0.6c0.6,0,1-0.2,1.2-0.6
			C70,10.8,70,10.5,70,10V5.6h1.5V10c0,0.8-0.1,1.4-0.4,1.8c-0.4,0.8-1.3,1.2-2.5,1.2c-1.2,0-2.1-0.4-2.5-1.2
			c-0.2-0.4-0.4-1-0.4-1.8V5.6z"/>
		<path id="XMLID_297_" class="st2" d="M77.7,5.8C78,5.9,78.2,6,78.4,6.3c0.2,0.2,0.3,0.4,0.4,0.6c0.1,0.2,0.1,0.5,0.1,0.8
			c0,0.3-0.1,0.7-0.3,1c-0.2,0.3-0.5,0.6-0.9,0.7c0.3,0.1,0.6,0.3,0.7,0.6c0.1,0.2,0.2,0.6,0.2,1.1v0.5c0,0.3,0,0.6,0,0.7
			c0,0.2,0.1,0.3,0.3,0.4v0.2h-1.7c0-0.2-0.1-0.3-0.1-0.4c0-0.2-0.1-0.4-0.1-0.6l0-0.7c0-0.5-0.1-0.8-0.2-0.9s-0.4-0.2-0.9-0.2h-1.5
			v2.8h-1.5V5.6h3.4C77.1,5.6,77.5,5.6,77.7,5.8z M74.6,6.8v1.9h1.6c0.3,0,0.6,0,0.7-0.1c0.3-0.1,0.4-0.4,0.4-0.8
			c0-0.4-0.1-0.7-0.4-0.9c-0.2-0.1-0.4-0.1-0.7-0.1H74.6z"/>
		<path id="XMLID_294_" class="st2" d="M82.5,5.6h1.7l2.5,7.2h-1.6l-0.5-1.5H82l-0.5,1.5h-1.6L82.5,5.6z M82.4,10h1.8l-0.9-2.8
			L82.4,10z"/>
		<path id="XMLID_291_" class="st2" d="M92.4,5.8C92.6,5.9,92.9,6,93,6.3c0.2,0.2,0.3,0.4,0.4,0.6c0.1,0.2,0.1,0.5,0.1,0.8
			c0,0.3-0.1,0.7-0.3,1c-0.2,0.3-0.5,0.6-0.9,0.7c0.3,0.1,0.6,0.3,0.7,0.6c0.1,0.2,0.2,0.6,0.2,1.1v0.5c0,0.3,0,0.6,0,0.7
			c0,0.2,0.1,0.3,0.3,0.4v0.2H92c0-0.2-0.1-0.3-0.1-0.4c0-0.2-0.1-0.4-0.1-0.6l0-0.7c0-0.5-0.1-0.8-0.2-0.9s-0.4-0.2-0.9-0.2h-1.5
			v2.8h-1.5V5.6h3.4C91.7,5.6,92.1,5.6,92.4,5.8z M89.3,6.8v1.9h1.6c0.3,0,0.6,0,0.7-0.1C91.9,8.5,92,8.2,92,7.8
			c0-0.4-0.1-0.7-0.4-0.9c-0.2-0.1-0.4-0.1-0.7-0.1H89.3z"/>
		<path id="XMLID_289_" class="st2" d="M37.6,22.5c0,0.3,0.1,0.6,0.3,0.7c0.2,0.3,0.7,0.4,1.3,0.4c0.4,0,0.7,0,0.9-0.1
			c0.4-0.1,0.6-0.4,0.6-0.8c0-0.2-0.1-0.4-0.3-0.6c-0.2-0.1-0.5-0.2-1-0.3l-0.8-0.2c-0.8-0.2-1.3-0.4-1.6-0.6
			c-0.5-0.3-0.7-0.9-0.7-1.6c0-0.6,0.2-1.2,0.7-1.6s1.2-0.6,2.1-0.6c0.8,0,1.4,0.2,2,0.6c0.5,0.4,0.8,1,0.9,1.8h-1.4
			c0-0.4-0.2-0.7-0.6-0.9c-0.2-0.1-0.5-0.2-0.9-0.2c-0.4,0-0.7,0.1-1,0.2c-0.2,0.2-0.4,0.4-0.4,0.7c0,0.3,0.1,0.4,0.4,0.6
			c0.1,0.1,0.5,0.2,1,0.3l1.3,0.3c0.6,0.1,1,0.3,1.2,0.5c0.4,0.3,0.6,0.8,0.6,1.5c0,0.7-0.3,1.2-0.8,1.6c-0.5,0.4-1.2,0.7-2.2,0.7
			c-0.9,0-1.7-0.2-2.2-0.6c-0.5-0.4-0.8-1-0.8-1.8H37.6z"/>
		<path id="XMLID_287_" class="st2" d="M48.6,18.8h-3.8v1.5h3.5v1.2h-3.5v1.9h4v1.3h-5.5v-7.2h5.3V18.8z"/>
		<path id="XMLID_285_" class="st2" d="M54.8,17.6H57v7.2h-1.4v-4.9c0-0.1,0-0.3,0-0.6c0-0.3,0-0.4,0-0.6l-1.4,6h-1.5l-1.4-6
			c0,0.1,0,0.3,0,0.6c0,0.3,0,0.4,0,0.6v4.9H50v-7.2h2.2l1.3,5.7L54.8,17.6z"/>
		<path id="XMLID_283_" class="st2" d="M63.8,18.8H60v1.5h3.5v1.2H60v1.9h4v1.3h-5.5v-7.2h5.3V18.8z"/>
		<path id="XMLID_281_" class="st2" d="M65.2,17.6h1.6l2.9,5v-5h1.4v7.2h-1.5l-2.9-5.1v5.1h-1.4V17.6z"/>
		<path id="XMLID_279_" class="st2" d="M77.8,17.6v1.3h-2.2v5.9h-1.5v-5.9H72v-1.3H77.8z"/>
		<path id="XMLID_277_" class="st2" d="M84.1,18.8h-3.8v1.5h3.5v1.2h-3.5v1.9h4v1.3h-5.5v-7.2h5.3V18.8z"/>
	</g>
</g>
<g id="XMLID_2240_">
	<g id="XMLID_2241_">
		<path id="XMLID_232_" class="st2" d="M23.9,25c-0.4,0-0.8-0.1-1.1-0.4L18,19.8c-0.6-0.6-0.6-1.5,0-2.1s1.5-0.6,2.1,0l4.8,4.8
			c0.6,0.6,0.6,1.5,0,2.1C24.7,24.9,24.3,25,23.9,25z"/>
	</g>
	<g id="XMLID_19581_">
		<path id="XMLID_187_" class="st2" d="M13.6,21c-2,0-4-0.8-5.5-2.3c-3-3-3-7.9,0-11c3-3,7.9-3,11,0c1.5,1.5,2.3,3.4,2.3,5.5
			s-0.8,4-2.3,5.5C17.6,20.2,15.6,21,13.6,21z M13.6,7.5c-1.5,0-3,0.6-4.1,1.7c-2.2,2.2-2.2,5.9,0,8.1c1.1,1.1,2.5,1.7,4.1,1.7
			s3-0.6,4.1-1.7l0,0c1.1-1.1,1.7-2.5,1.7-4.1s-0.6-3-1.7-4.1S15.1,7.5,13.6,7.5z"/>
	</g>
</g>
</svg>
