<?xml version="1.0" encoding="utf-8"?>
<!-- Generator: Adobe Illustrator 19.0.0, SVG Export Plug-In . SVG Version: 6.00 Build 0)  -->
<svg version="1.1" id="Camada_1" xmlns="http://www.w3.org/2000/svg" xmlns:xlink="http://www.w3.org/1999/xlink" x="0px" y="0px"
	 viewBox="0 0 153 50" style="enable-background:new 0 0 153 50;" xml:space="preserve">
<style type="text/css">
	.st0{fill:#ADC77F;}
	.st1{fill:#FFFFFF;}
</style>
<rect id="XMLID_2632_" x="0" class="st0" width="153" height="50"/>
<g id="XMLID_41_">
	<g id="XMLID_230_">
		<path id="XMLID_247_" class="st1" d="M50.7,22.4c0.4,0.2,0.7,0.4,0.9,0.7c0.2,0.3,0.4,0.5,0.5,0.8s0.2,0.7,0.2,1.1
			c0,0.5-0.1,0.9-0.4,1.4c-0.2,0.5-0.6,0.8-1.2,1c0.5,0.2,0.8,0.5,1,0.8c0.2,0.3,0.3,0.9,0.3,1.6v0.7c0,0.5,0,0.8,0.1,0.9
			c0.1,0.3,0.2,0.5,0.4,0.6v0.3h-2.3c-0.1-0.2-0.1-0.4-0.1-0.5C50,31.4,50,31.1,50,30.8l0-0.9c0-0.6-0.1-1.1-0.3-1.3
			c-0.2-0.2-0.6-0.3-1.2-0.3h-2.1v4h-2.1V22.1h4.8C49.8,22.1,50.3,22.2,50.7,22.4z M46.4,23.9v2.7h2.3c0.4,0,0.8-0.1,1-0.2
			c0.4-0.2,0.6-0.6,0.6-1.1c0-0.6-0.2-1-0.6-1.2c-0.2-0.1-0.5-0.2-1-0.2H46.4z"/>
		<path id="XMLID_245_" class="st1" d="M62,23.9h-5.3V26h4.9v1.8h-4.9v2.6h5.6v1.8h-7.6V22.1H62V23.9z"/>
		<path id="XMLID_243_" class="st1" d="M70.8,25.3c-0.2-0.7-0.5-1.2-1.2-1.4c-0.3-0.2-0.7-0.2-1.2-0.2c-0.8,0-1.5,0.3-2,0.9
			c-0.5,0.6-0.8,1.5-0.8,2.8c0,1.2,0.3,2.1,0.8,2.6c0.6,0.5,1.2,0.8,1.9,0.8c0.7,0,1.3-0.2,1.7-0.6c0.5-0.4,0.7-0.9,0.8-1.6h-2.3
			v-1.7h4.2v5.4h-1.4l-0.2-1.3c-0.4,0.5-0.8,0.8-1.1,1c-0.6,0.3-1.2,0.5-2.1,0.5c-1.3,0-2.4-0.5-3.3-1.4c-0.9-0.9-1.3-2.2-1.3-3.8
			c0-1.6,0.4-2.9,1.3-3.9c0.9-1,2.1-1.5,3.6-1.5c1.3,0,2.3,0.3,3.1,1c0.8,0.6,1.2,1.5,1.3,2.4H70.8z"/>
		<path id="XMLID_241_" class="st1" d="M76.9,32.2h-2.1V22.1h2.1V32.2z"/>
		<path id="XMLID_239_" class="st1" d="M80.6,29.1c0.1,0.5,0.2,0.8,0.4,1c0.3,0.4,0.9,0.6,1.8,0.6c0.5,0,0.9-0.1,1.2-0.2
			c0.6-0.2,0.9-0.6,0.9-1.2c0-0.3-0.1-0.6-0.4-0.8c-0.3-0.2-0.8-0.3-1.4-0.5l-1.1-0.2c-1.1-0.2-1.8-0.5-2.2-0.8
			c-0.7-0.5-1-1.2-1-2.2c0-0.9,0.3-1.7,1-2.2s1.6-0.9,2.9-0.9c1.1,0,2,0.3,2.8,0.8c0.8,0.6,1.2,1.4,1.2,2.5h-2c0-0.6-0.3-1-0.8-1.3
			c-0.3-0.2-0.8-0.3-1.3-0.3c-0.6,0-1,0.1-1.3,0.3c-0.3,0.2-0.5,0.5-0.5,0.9c0,0.4,0.2,0.6,0.5,0.8c0.2,0.1,0.7,0.3,1.3,0.4l1.8,0.4
			c0.8,0.2,1.4,0.4,1.7,0.7c0.6,0.5,0.9,1.2,0.9,2.1c0,0.9-0.4,1.7-1.1,2.3c-0.7,0.6-1.7,0.9-3,0.9c-1.3,0-2.4-0.3-3.1-0.9
			c-0.8-0.6-1.1-1.4-1.1-2.5H80.6z"/>
		<path id="XMLID_237_" class="st1" d="M95.8,22.1v1.8h-3v8.3h-2.1v-8.3h-3v-1.8H95.8z"/>
		<path id="XMLID_234_" class="st1" d="M99.1,22.1h2.4l3.6,10.1h-2.3l-0.7-2.1h-3.7l-0.7,2.1h-2.2L99.1,22.1z M98.9,28.4h2.6l-1.3-4
			L98.9,28.4z"/>
		<path id="XMLID_231_" class="st1" d="M112.9,22.4c0.4,0.2,0.7,0.4,0.9,0.7c0.2,0.3,0.4,0.5,0.5,0.8c0.1,0.3,0.2,0.7,0.2,1.1
			c0,0.5-0.1,0.9-0.4,1.4c-0.2,0.5-0.6,0.8-1.2,1c0.5,0.2,0.8,0.5,1,0.8c0.2,0.3,0.3,0.9,0.3,1.6v0.7c0,0.5,0,0.8,0.1,0.9
			c0.1,0.3,0.2,0.5,0.4,0.6v0.3h-2.3c-0.1-0.2-0.1-0.4-0.1-0.5c-0.1-0.3-0.1-0.6-0.1-0.9l0-0.9c0-0.6-0.1-1.1-0.3-1.3
			c-0.2-0.2-0.6-0.3-1.2-0.3h-2.1v4h-2.1V22.1h4.8C112,22.1,112.5,22.2,112.9,22.4z M108.5,23.9v2.7h2.3c0.5,0,0.8-0.1,1-0.2
			c0.4-0.2,0.6-0.6,0.6-1.1c0-0.6-0.2-1-0.6-1.2c-0.2-0.1-0.5-0.2-1-0.2H108.5z"/>
	</g>
</g>
</svg>
