<?xml version="1.0" encoding="utf-8"?>
<!-- Generator: Adobe Illustrator 19.0.0, SVG Export Plug-In . SVG Version: 6.00 Build 0)  -->
<svg version="1.1" id="Camada_1" xmlns="http://www.w3.org/2000/svg" xmlns:xlink="http://www.w3.org/1999/xlink" x="0px" y="0px"
	 viewBox="0 0 98 30" style="enable-background:new 0 0 98 30;" xml:space="preserve">
<style type="text/css">
	.st0{fill:#D3865F;}
	.st1{fill:#EFEBE6;}
</style>
<g id="XMLID_11_">
	<rect id="XMLID_12_" x="0" class="st0" width="98" height="30"/>
</g>
<g id="XMLID_274_">
	<g id="XMLID_252_">
		<path id="XMLID_283_" class="st1" d="M41.1,5.8c0.3,0.1,0.5,0.3,0.7,0.5c0.2,0.2,0.3,0.4,0.4,0.6s0.1,0.5,0.1,0.8
			c0,0.3-0.1,0.7-0.3,1c-0.2,0.3-0.5,0.6-0.9,0.7c0.3,0.1,0.6,0.3,0.7,0.6c0.1,0.2,0.2,0.6,0.2,1.1v0.5c0,0.3,0,0.6,0,0.7
			c0,0.2,0.1,0.3,0.3,0.4v0.2h-1.7c0-0.2-0.1-0.3-0.1-0.4c0-0.2-0.1-0.4-0.1-0.6l0-0.7c0-0.5-0.1-0.8-0.2-0.9s-0.4-0.2-0.9-0.2H38
			v2.8h-1.5V5.6H40C40.5,5.6,40.9,5.6,41.1,5.8z M38,6.8v1.9h1.6c0.3,0,0.6,0,0.7-0.1c0.3-0.1,0.4-0.4,0.4-0.8
			c0-0.4-0.1-0.7-0.4-0.9c-0.2-0.1-0.4-0.1-0.7-0.1H38z"/>
		<path id="XMLID_281_" class="st1" d="M49.1,6.8h-3.8v1.5h3.5v1.2h-3.5v1.9h4v1.3h-5.5V5.6h5.3V6.8z"/>
		<path id="XMLID_279_" class="st1" d="M55.4,5.6h2.2v7.2h-1.4V7.9c0-0.1,0-0.3,0-0.6c0-0.3,0-0.4,0-0.6l-1.4,6h-1.5l-1.4-6
			c0,0.1,0,0.3,0,0.6c0,0.3,0,0.4,0,0.6v4.9h-1.4V5.6h2.2l1.3,5.7L55.4,5.6z"/>
		<path id="XMLID_276_" class="st1" d="M64.6,12.1C64,12.7,63.2,13,62.2,13c-1,0-1.8-0.3-2.4-0.8c-0.7-0.7-1.1-1.7-1.1-3
			c0-1.3,0.4-2.3,1.1-3c0.5-0.6,1.3-0.8,2.4-0.8c1,0,1.8,0.3,2.4,0.8c0.7,0.7,1.1,1.7,1.1,3C65.7,10.5,65.3,11.4,64.6,12.1z
			 M63.6,11c0.4-0.4,0.5-1.1,0.5-1.9c0-0.8-0.2-1.4-0.5-1.9c-0.3-0.4-0.8-0.7-1.4-0.7s-1.1,0.2-1.4,0.7c-0.4,0.4-0.5,1.1-0.5,1.9
			s0.2,1.4,0.5,1.9c0.4,0.4,0.8,0.7,1.4,0.7S63.3,11.5,63.6,11z"/>
		<path id="XMLID_272_" class="st1" d="M71.1,5.6h1.6l-2.5,7.2h-1.4l-2.4-7.2H68l1.6,5.5L71.1,5.6z"/>
		<path id="XMLID_270_" class="st1" d="M79,6.8h-3.8v1.5h3.5v1.2h-3.5v1.9h4v1.3h-5.5V5.6H79V6.8z"/>
		<path id="XMLID_267_" class="st1" d="M85.1,5.8c0.3,0.1,0.5,0.3,0.7,0.5c0.2,0.2,0.3,0.4,0.4,0.6s0.1,0.5,0.1,0.8
			c0,0.3-0.1,0.7-0.3,1c-0.2,0.3-0.5,0.6-0.9,0.7c0.3,0.1,0.6,0.3,0.7,0.6C86,10.1,86,10.5,86,11v0.5c0,0.3,0,0.6,0,0.7
			c0,0.2,0.1,0.3,0.3,0.4v0.2h-1.7c0-0.2-0.1-0.3-0.1-0.4c0-0.2-0.1-0.4-0.1-0.6l0-0.7c0-0.5-0.1-0.8-0.2-0.9s-0.4-0.2-0.9-0.2h-1.5
			v2.8h-1.5V5.6h3.4C84.4,5.6,84.8,5.6,85.1,5.8z M81.9,6.8v1.9h1.6c0.3,0,0.6,0,0.7-0.1c0.3-0.1,0.4-0.4,0.4-0.8
			c0-0.4-0.1-0.7-0.4-0.9c-0.2-0.1-0.4-0.1-0.7-0.1H81.9z"/>
		<path id="XMLID_265_" class="st1" d="M37.6,22.5c0,0.3,0.1,0.6,0.3,0.7c0.2,0.3,0.7,0.4,1.3,0.4c0.4,0,0.7,0,0.9-0.1
			c0.4-0.1,0.6-0.4,0.6-0.8c0-0.2-0.1-0.4-0.3-0.6c-0.2-0.1-0.5-0.2-1-0.3l-0.8-0.2c-0.8-0.2-1.3-0.4-1.6-0.6
			c-0.5-0.3-0.7-0.9-0.7-1.6c0-0.6,0.2-1.2,0.7-1.6s1.2-0.6,2.1-0.6c0.8,0,1.4,0.2,2,0.6c0.5,0.4,0.8,1,0.9,1.8h-1.4
			c0-0.4-0.2-0.7-0.6-0.9c-0.2-0.1-0.5-0.2-0.9-0.2c-0.4,0-0.7,0.1-1,0.2c-0.2,0.2-0.4,0.4-0.4,0.7c0,0.3,0.1,0.4,0.4,0.6
			c0.1,0.1,0.5,0.2,1,0.3l1.3,0.3c0.6,0.1,1,0.3,1.2,0.5c0.4,0.3,0.6,0.8,0.6,1.5c0,0.7-0.3,1.2-0.8,1.6c-0.5,0.4-1.2,0.7-2.2,0.7
			c-0.9,0-1.7-0.2-2.2-0.6c-0.5-0.4-0.8-1-0.8-1.8H37.6z"/>
		<path id="XMLID_263_" class="st1" d="M48.6,18.8h-3.8v1.5h3.5v1.2h-3.5v1.9h4v1.3h-5.5v-7.2h5.3V18.8z"/>
		<path id="XMLID_261_" class="st1" d="M54.8,17.6H57v7.2h-1.4v-4.9c0-0.1,0-0.3,0-0.6c0-0.3,0-0.4,0-0.6l-1.4,6h-1.5l-1.4-6
			c0,0.1,0,0.3,0,0.6c0,0.3,0,0.4,0,0.6v4.9H50v-7.2h2.2l1.3,5.7L54.8,17.6z"/>
		<path id="XMLID_259_" class="st1" d="M63.8,18.8H60v1.5h3.5v1.2H60v1.9h4v1.3h-5.5v-7.2h5.3V18.8z"/>
		<path id="XMLID_257_" class="st1" d="M65.2,17.6h1.6l2.9,5v-5h1.4v7.2h-1.5l-2.9-5.1v5.1h-1.4V17.6z"/>
		<path id="XMLID_255_" class="st1" d="M77.8,17.6v1.3h-2.2v5.9h-1.5v-5.9H72v-1.3H77.8z"/>
		<path id="XMLID_253_" class="st1" d="M84.1,18.8h-3.8v1.5h3.5v1.2h-3.5v1.9h4v1.3h-5.5v-7.2h5.3V18.8z"/>
	</g>
</g>
<g id="XMLID_184_">
	<g id="XMLID_185_">
		<rect id="XMLID_233_" x="8.5" y="14" class="st1" width="17.5" height="2"/>
	</g>
</g>
</svg>
