<?xml version="1.0" encoding="utf-8"?>
<!-- Generator: Adobe Illustrator 19.0.0, SVG Export Plug-In . SVG Version: 6.00 Build 0)  -->
<svg version="1.1" id="Camada_1" xmlns="http://www.w3.org/2000/svg" xmlns:xlink="http://www.w3.org/1999/xlink" x="0px" y="0px"
	 viewBox="0 0 58 23" style="enable-background:new 0 0 58 23;" xml:space="preserve">
<style type="text/css">
	.st0{fill:#FFFFFF;}
	.st1{fill:#C5C5C5;}
	.st2{fill:#CDC4BD;}
</style>
<g id="XMLID_19466_">
	<rect id="XMLID_42_" x="0.5" y="0.5" class="st0" width="57" height="22"/>
	<path id="XMLID_39_" class="st1" d="M57,1v21H1V1H57 M58,0H0v23h58V0L58,0z"/>
</g>
<g id="XMLID_19482_">
	<path id="XMLID_19483_" class="st2" d="M17.2,13.2l2-0.2c0.1,0.7,0.4,1.1,0.7,1.5s0.9,0.5,1.5,0.5c0.7,0,1.1-0.1,1.5-0.4
		c0.3-0.3,0.5-0.6,0.5-1c0-0.2-0.1-0.4-0.2-0.6c-0.1-0.2-0.4-0.3-0.7-0.4c-0.2-0.1-0.8-0.2-1.6-0.4c-1.1-0.3-1.8-0.6-2.3-1
		c-0.6-0.6-0.9-1.2-0.9-2c0-0.5,0.1-1,0.4-1.4c0.3-0.4,0.7-0.8,1.3-1c0.5-0.2,1.2-0.3,2-0.3c1.3,0,2.2,0.3,2.8,0.8s1,1.3,1,2.2
		l-2,0.1c-0.1-0.5-0.3-0.9-0.6-1.1C22.2,8.1,21.7,8,21.2,8c-0.6,0-1,0.1-1.4,0.4c-0.2,0.2-0.3,0.4-0.3,0.6c0,0.2,0.1,0.4,0.3,0.6
		c0.3,0.2,0.9,0.4,1.9,0.7s1.7,0.5,2.2,0.7c0.5,0.2,0.8,0.6,1.1,1c0.3,0.4,0.4,1,0.4,1.6c0,0.6-0.2,1.1-0.5,1.6
		c-0.3,0.5-0.8,0.9-1.4,1.1c-0.6,0.2-1.3,0.4-2.2,0.4c-1.3,0-2.2-0.3-2.9-0.9C17.7,15.2,17.3,14.4,17.2,13.2z"/>
	<path id="XMLID_19486_" class="st2" d="M27.1,16.5v-10h2v10H27.1z"/>
	<path id="XMLID_19490_" class="st2" d="M31.2,16.5v-10h3l1.8,6.8l1.8-6.8h3v10H39V8.6l-2,7.9H35l-2-7.9v7.9H31.2z"/>
</g>
</svg>
