<?xml version="1.0" encoding="utf-8"?>
<!-- Generator: Adobe Illustrator 16.0.0, SVG Export Plug-In . SVG Version: 6.00 Build 0)  -->
<!DOCTYPE svg PUBLIC "-//W3C//DTD SVG 1.1//EN" "http://www.w3.org/Graphics/SVG/1.1/DTD/svg11.dtd" [
	<!ENTITY ns_flows "http://ns.adobe.com/Flows/1.0/">
	<!ENTITY ns_extend "http://ns.adobe.com/Extensibility/1.0/">
	<!ENTITY ns_ai "http://ns.adobe.com/AdobeIllustrator/10.0/">
	<!ENTITY ns_graphs "http://ns.adobe.com/Graphs/1.0/">
]>
<svg version="1.1" id="Layer_1" xmlns:x="&ns_extend;" xmlns:i="&ns_ai;" xmlns:graph="&ns_graphs;"
	 xmlns="http://www.w3.org/2000/svg" xmlns:xlink="http://www.w3.org/1999/xlink" xmlns:a="http://ns.adobe.com/AdobeSVGViewerExtensions/3.0/"
	 x="0px" y="0px" width="471.407px" height="392.424px" viewBox="0 0 471.407 392.424" enable-background="new 0 0 471.407 392.424"
	 xml:space="preserve">
<g>
	<path d="M46.598,203.611c0.269-1.548,0.404-2.811,0.404-3.788c0-0.975-0.202-1.768-0.606-2.374c-0.404-0.606-1.061-1.06-1.97-1.363
		c-0.909-0.303-2.105-0.556-3.585-0.757c-0.337-1.414-0.404-2.861-0.202-4.343c0.942,0.068,2.036,0.118,3.282,0.151
		c1.245,0.035,2.508,0.068,3.788,0.101c1.278,0.035,2.525,0.05,3.737,0.05s2.255,0,3.131,0c0.672,0,1.548-0.016,2.626-0.05
		c1.076-0.033,2.238-0.066,3.484-0.101c1.245-0.033,2.541-0.066,3.888-0.101c1.346-0.033,2.626-0.05,3.838-0.05
		c7.338,0,12.59,1.987,15.755,5.958c3.164,3.974,4.073,9.528,2.727,16.665c-0.606,3.166-1.684,6.01-3.232,8.534
		c-1.549,2.524-3.468,4.681-5.757,6.464c-2.29,1.785-4.916,3.166-7.877,4.141c-2.964,0.977-6.128,1.465-9.494,1.465
		c-2.896,0-5.085-0.404-6.565-1.212c-0.068-0.538,0-1.245,0.202-2.121c0.202-0.874,0.437-1.515,0.707-1.919
		c0.672,0.202,1.447,0.371,2.323,0.505c0.874,0.136,1.818,0.202,2.828,0.202c4.578,0,8.333-1.312,11.261-3.939
		c2.929-2.625,4.898-6.564,5.908-11.816c1.145-5.924,0.657-10.486-1.464-13.685c-2.121-3.197-6.145-4.797-12.069-4.797
		c-1.078,0-2.121,0.035-3.131,0.101c-1.01,0.068-2.121,0.27-3.333,0.606l-8.383,49.084c-0.338,1.955-0.54,3.535-0.606,4.748
		c-0.068,1.211,0.134,2.172,0.606,2.879c0.47,0.705,1.278,1.262,2.424,1.666c1.144,0.404,2.727,0.74,4.747,1.01
		c0.202,0.674,0.318,1.33,0.354,1.969c0.033,0.641,0.016,1.432-0.051,2.373c-2.56-0.135-4.764-0.219-6.615-0.252
		c-1.853-0.035-3.923-0.051-6.211-0.051c-2.492,0-4.747,0.016-6.767,0.051c-2.02,0.033-4.176,0.117-6.464,0.252
		c0.066-1.682,0.336-3.131,0.808-4.342c1.48-0.27,2.692-0.59,3.636-0.959c0.942-0.369,1.7-0.893,2.272-1.566
		c0.571-0.672,1.01-1.549,1.313-2.625c0.303-1.076,0.622-2.457,0.959-4.143L46.598,203.611z"/>
	<path d="M99.519,236.939c-0.742,3.57-1.247,6.449-1.515,8.635c-0.27,2.189-0.388,3.855-0.354,5
		c0.033,1.146,0.218,1.902,0.556,2.273c0.336,0.369,0.773,0.555,1.313,0.555c0.672,0,1.414-0.219,2.222-0.656
		s1.783-1.195,2.929-2.273c0.875,0.809,1.48,1.818,1.818,3.031c-1.616,1.953-3.452,3.602-5.504,4.947
		c-2.055,1.348-4.024,2.021-5.908,2.021c-4.782,0-7.07-2.729-6.868-8.182c0-0.809,0.033-1.648,0.101-2.525
		c0.066-0.873,0.202-2.002,0.404-3.383c0.202-1.379,0.487-3.096,0.858-5.15c0.369-2.053,0.858-4.68,1.464-7.878
		c0.606-3.197,1.346-7.053,2.222-11.564c0.875-4.511,1.952-9.897,3.232-16.159c0.47-2.289,0.758-4.091,0.858-5.403
		c0.101-1.313-0.017-2.306-0.353-2.979c-0.338-0.672-0.959-1.076-1.869-1.212c-0.909-0.134-2.171-0.202-3.788-0.202
		c0-0.74,0.016-1.43,0.051-2.07c0.033-0.639,0.218-1.228,0.555-1.768c0.808-0.066,1.834-0.252,3.081-0.556
		c1.245-0.303,2.525-0.656,3.838-1.061c1.313-0.404,2.576-0.824,3.788-1.262c1.212-0.437,2.187-0.858,2.929-1.263
		c2.02,0.674,2.727,2.828,2.121,6.464c-1.348,7.676-2.711,15.048-4.09,22.119C102.229,223.508,100.865,230.342,99.519,236.939z"/>
	<path d="M146.987,244.717c-0.404,1.953-0.707,3.502-0.909,4.645c-0.202,1.146-0.27,2.021-0.202,2.627
		c0.066,0.605,0.252,1.01,0.556,1.211c0.303,0.203,0.723,0.305,1.262,0.305c0.74,0,1.515-0.219,2.323-0.656
		c0.808-0.438,1.884-1.229,3.232-2.375c0.47,0.473,0.841,0.961,1.111,1.465c0.268,0.506,0.505,1.061,0.707,1.666
		c-1.616,1.887-3.451,3.502-5.504,4.848c-2.055,1.348-3.957,2.021-5.707,2.021c-2.29,0-3.956-0.557-4.999-1.668
		c-1.045-1.109-1.667-2.473-1.869-4.09c-0.202-1.615-0.101-3.332,0.303-5.15c0.404-1.818,0.909-3.434,1.515-4.848h-0.101
		c-0.943,1.885-2.087,3.754-3.434,5.605c-1.348,1.852-2.812,3.535-4.394,5.049c-1.583,1.516-3.267,2.744-5.05,3.688
		c-1.785,0.941-3.62,1.414-5.504,1.414c-3.368,0-5.757-1.684-7.171-5.051c-1.414-3.365-1.381-8.787,0.101-16.26
		c0.808-3.904,2.053-7.49,3.737-10.757c1.683-3.265,3.72-6.075,6.11-8.433c2.389-2.356,5.05-4.207,7.979-5.555
		c2.929-1.347,6.042-2.021,9.342-2.021c0.942,0,1.935,0.085,2.979,0.253c1.043,0.168,1.935,0.388,2.677,0.656
		c1.01,0,2.053-0.066,3.131-0.202c1.076-0.134,1.952-0.369,2.626-0.707c0.268,0.136,0.521,0.338,0.757,0.606
		c0.235,0.27,0.387,0.741,0.455,1.414c0.066,0.674,0.033,1.615-0.101,2.827c-0.136,1.212-0.438,2.828-0.909,4.849L146.987,244.717z
		 M144.059,218.559c-1.751-0.672-3.805-1.01-6.161-1.01c-2.088,0-3.939,0.421-5.555,1.262c-1.616,0.843-3.03,2.004-4.242,3.484
		c-1.212,1.482-2.239,3.267-3.081,5.354c-0.843,2.088-1.499,4.377-1.969,6.867c-1.212,5.725-1.532,10.117-0.959,13.18
		c0.571,3.064,1.868,4.596,3.888,4.596c0.875,0,2.036-0.605,3.484-1.818c1.447-1.211,2.945-2.961,4.495-5.252
		c1.548-2.287,3.08-5.082,4.595-8.382c1.515-3.298,2.777-7.035,3.788-11.211L144.059,218.559z"/>
	<path d="M200.312,244.111c-0.54,2.289-0.943,4.074-1.212,5.352c-0.27,1.279-0.421,2.223-0.455,2.828
		c-0.035,0.605,0.066,0.977,0.303,1.111c0.235,0.135,0.555,0.201,0.959,0.201c0.74,0,1.667-0.318,2.777-0.959
		c1.111-0.639,2.07-1.363,2.878-2.172c0.942,0.943,1.548,2.021,1.818,3.232c-2.222,2.289-4.259,3.99-6.11,5.1
		c-1.853,1.111-3.686,1.668-5.504,1.668c-2.02,0-3.501-0.371-4.444-1.111c-0.943-0.74-1.532-1.818-1.767-3.232
		c-0.237-1.414-0.187-3.131,0.151-5.15c0.336-2.02,0.773-4.275,1.313-6.768l2.727-12.018c0.606-2.559,0.959-4.662,1.06-6.312
		c0.101-1.649,0.033-2.945-0.202-3.889c-0.237-0.942-0.641-1.599-1.212-1.969c-0.573-0.37-1.229-0.557-1.97-0.557
		c-1.01,0-2.34,0.656-3.989,1.97c-1.651,1.313-3.317,3.165-5,5.556c-1.684,2.391-3.267,5.235-4.747,8.533
		c-1.482,3.301-2.593,6.936-3.333,10.908l-2.525,13.129h-9.191l5.555-29.39c0.404-2.356,0.672-4.191,0.808-5.505
		c0.134-1.312,0.033-2.287-0.303-2.928c-0.338-0.64-0.959-1.026-1.869-1.162c-0.909-0.135-2.171-0.202-3.787-0.202
		c0-0.739,0.016-1.43,0.05-2.07c0.033-0.64,0.218-1.228,0.556-1.768c0.808-0.065,1.833-0.253,3.08-0.556
		c1.245-0.303,2.541-0.656,3.889-1.061c1.346-0.403,2.626-0.823,3.838-1.262c1.212-0.438,2.187-0.859,2.929-1.263
		c2.02,0.674,2.727,2.862,2.121,6.565c-0.54,2.895-1.128,5.302-1.768,7.221c-0.641,1.919-1.33,3.721-2.07,5.403h0.101l1.616-3.435
		c0.808-1.615,1.952-3.348,3.434-5.201c1.48-1.851,3.146-3.567,4.999-5.15c1.851-1.581,3.77-2.879,5.757-3.889
		c1.985-1.01,3.854-1.515,5.605-1.515c1.076,0,2.171,0.271,3.282,0.808c1.111,0.54,2.036,1.516,2.778,2.93
		c0.74,1.414,1.161,3.383,1.262,5.908c0.101,2.524-0.32,5.773-1.262,9.746L200.312,244.111z"/>
	<path d="M227.581,239.061c-0.606,2.762-0.994,5.1-1.162,7.02c-0.168,1.918-0.136,3.484,0.102,4.695
		c0.235,1.213,0.656,2.088,1.263,2.627c0.605,0.539,1.312,0.809,2.12,0.809c1.145,0,2.407-0.42,3.788-1.264
		c1.379-0.84,2.608-1.934,3.687-3.281c0.538,0.338,0.992,0.807,1.363,1.414c0.369,0.605,0.621,1.211,0.757,1.816
		c-0.674,0.877-1.499,1.768-2.474,2.678c-0.978,0.908-2.055,1.717-3.232,2.424c-1.179,0.707-2.424,1.297-3.736,1.768
		c-1.313,0.469-2.644,0.707-3.99,0.707c-4.241,0-7.019-1.633-8.332-4.898c-1.312-3.266-1.128-8.535,0.556-15.807l4.747-20.906
		c-1.146-0.135-2.374-0.269-3.687-0.404c-1.313-0.134-2.575-0.201-3.787-0.201c0-1.549,0.369-2.861,1.11-3.939h7.474l0.202-1.01
		c0.74-3.096,1.329-5.841,1.768-8.231c0.438-2.389,0.723-4.292,0.858-5.707c1.347-0.202,2.777-0.521,4.293-0.959
		c1.515-0.437,2.742-0.924,3.686-1.464c0.404,0.202,0.724,0.505,0.96,0.909c0.235,0.404,0.354,1.027,0.354,1.868
		c0,0.843-0.136,2.038-0.404,3.585c-0.27,1.55-0.707,3.569-1.312,6.06l-1.111,4.949h9.393c0,0.742-0.05,1.449-0.151,2.121
		c-0.101,0.674-0.287,1.279-0.556,1.818c-1.817,0-3.569,0.067-5.252,0.201c-1.684,0.136-3.198,0.303-4.544,0.506L227.581,239.061z"
		/>
	<path d="M269.191,212.397c2.021,0,3.702,0.32,5.05,0.96c1.347,0.641,2.374,1.481,3.081,2.524c0.706,1.045,1.144,2.239,1.312,3.585
		c0.167,1.348,0.117,2.728-0.151,4.141c-0.404,2.088-1.449,4.008-3.131,5.758c-1.684,1.752-3.636,3.266-5.858,4.545
		c-2.222,1.279-4.579,2.289-7.069,3.029c-2.492,0.742-4.781,1.146-6.868,1.213c-0.202,1.75-0.287,3.502-0.252,5.252
		c0.033,1.75,0.252,3.332,0.656,4.746s1.043,2.561,1.919,3.434c0.874,0.877,2.086,1.312,3.636,1.312c1.48,0,3.164-0.453,5.05-1.363
		c1.885-0.908,3.568-2.236,5.05-3.988c1.01,0.74,1.717,1.717,2.121,2.928c-0.943,1.213-2.07,2.424-3.384,3.637
		c-1.312,1.211-2.727,2.289-4.241,3.232s-3.081,1.701-4.696,2.271c-1.616,0.572-3.232,0.859-4.848,0.859
		c-2.828,0-5.034-0.691-6.616-2.07c-1.582-1.381-2.711-3.182-3.383-5.404c-0.674-2.223-0.96-4.713-0.858-7.473
		c0.101-2.762,0.42-5.521,0.959-8.283c0.74-3.904,1.919-7.405,3.535-10.504c1.616-3.096,3.45-5.705,5.504-7.826
		s4.258-3.737,6.616-4.848C264.679,212.953,266.969,212.397,269.191,212.397z M255.96,234.414c1.683-0.065,3.333-0.318,4.949-0.757
		c1.615-0.437,3.08-1.061,4.393-1.868c1.313-0.809,2.407-1.783,3.283-2.93c0.874-1.144,1.446-2.457,1.717-3.938
		c0.134-0.808,0.167-1.616,0.101-2.424c-0.067-0.808-0.287-1.565-0.656-2.272c-0.371-0.707-0.876-1.278-1.515-1.717
		c-0.641-0.438-1.432-0.656-2.374-0.656c-1.953,0-3.822,1.279-5.605,3.838c-1.784,2.56-3.08,6.06-3.888,10.504L255.96,234.414z"/>
	<path d="M287.671,231.385c0.74-2.559,1.262-4.561,1.565-6.01c0.303-1.447,0.318-2.54,0.05-3.281
		c-0.27-0.74-0.858-1.213-1.767-1.414c-0.909-0.203-2.207-0.304-3.889-0.304c-0.068-1.479,0.134-2.76,0.605-3.838
		c0.809-0.065,1.75-0.253,2.828-0.556c1.076-0.303,2.172-0.656,3.282-1.061c1.111-0.403,2.154-0.823,3.131-1.262
		c0.976-0.438,1.768-0.859,2.374-1.263c2.086,0.876,3.349,2.341,3.787,4.394c0.438,2.055,0.084,5.168-1.061,9.342l-5.555,19.492
		c-0.472,1.617-0.808,2.947-1.01,3.99c-0.202,1.045-0.271,1.834-0.202,2.373c0.066,0.539,0.252,0.908,0.556,1.111
		c0.303,0.201,0.689,0.303,1.161,0.303c0.672,0,1.465-0.234,2.373-0.707c0.909-0.471,1.869-1.213,2.879-2.223
		c1.01,0.674,1.616,1.752,1.818,3.232c-1.954,2.156-3.889,3.822-5.808,5c-1.919,1.176-3.822,1.768-5.706,1.768
		c-3.368,0-5.438-1.33-6.212-3.99c-0.774-2.658-0.556-6.176,0.656-10.555L287.671,231.385z M300.7,189.168
		c1.683,0,2.929,0.556,3.737,1.667c0.808,1.111,1.01,2.61,0.605,4.495c-0.338,1.751-1.111,3.181-2.323,4.292
		c-1.212,1.111-2.66,1.667-4.343,1.667c-1.615,0-2.812-0.555-3.585-1.667c-0.775-1.111-0.994-2.541-0.656-4.292
		c0.403-1.884,1.212-3.383,2.424-4.495C297.771,189.724,299.15,189.168,300.7,189.168z"/>
	<path d="M333.826,255.422c-0.338,1.551-0.959,2.762-1.868,3.637c-0.909,0.873-2.105,1.312-3.585,1.312
		c-1.818,0-3.199-0.59-4.142-1.768c-0.943-1.178-1.212-2.742-0.808-4.697c0.269-1.346,0.925-2.473,1.97-3.383
		c1.043-0.908,2.272-1.363,3.687-1.363c1.548,0,2.811,0.59,3.787,1.768C333.841,252.107,334.162,253.604,333.826,255.422z"/>
	<path d="M385.737,212.397c2.021,0,3.702,0.32,5.05,0.96c1.347,0.641,2.374,1.481,3.081,2.524c0.706,1.045,1.144,2.239,1.312,3.585
		c0.167,1.348,0.117,2.728-0.151,4.141c-0.404,2.088-1.449,4.008-3.131,5.758c-1.684,1.752-3.636,3.266-5.858,4.545
		c-2.222,1.279-4.579,2.289-7.069,3.029c-2.492,0.742-4.781,1.146-6.868,1.213c-0.202,1.75-0.287,3.502-0.252,5.252
		c0.033,1.75,0.252,3.332,0.656,4.746s1.043,2.561,1.919,3.434c0.874,0.877,2.086,1.312,3.636,1.312c1.48,0,3.164-0.453,5.05-1.363
		c1.885-0.908,3.568-2.236,5.05-3.988c1.01,0.74,1.717,1.717,2.121,2.928c-0.943,1.213-2.07,2.424-3.384,3.637
		c-1.312,1.211-2.727,2.289-4.241,3.232s-3.081,1.701-4.696,2.271c-1.616,0.572-3.232,0.859-4.848,0.859
		c-2.828,0-5.034-0.691-6.616-2.07c-1.582-1.381-2.711-3.182-3.383-5.404c-0.674-2.223-0.96-4.713-0.858-7.473
		c0.101-2.762,0.42-5.521,0.959-8.283c0.74-3.904,1.919-7.405,3.535-10.504c1.616-3.096,3.45-5.705,5.504-7.826
		s4.258-3.737,6.616-4.848C381.225,212.953,383.515,212.397,385.737,212.397z M372.506,234.414c1.683-0.065,3.333-0.318,4.949-0.757
		c1.615-0.437,3.08-1.061,4.393-1.868c1.313-0.809,2.407-1.783,3.283-2.93c0.874-1.144,1.446-2.457,1.717-3.938
		c0.134-0.808,0.167-1.616,0.101-2.424c-0.067-0.808-0.287-1.565-0.656-2.272c-0.371-0.707-0.876-1.278-1.515-1.717
		c-0.641-0.438-1.432-0.656-2.374-0.656c-1.953,0-3.822,1.279-5.605,3.838c-1.784,2.56-3.08,6.06-3.888,10.504L372.506,234.414z"/>
	<path d="M427.246,244.312c-0.809,1.684-1.869,3.469-3.182,5.354c-1.313,1.885-2.812,3.635-4.494,5.252
		c-1.685,1.615-3.469,2.945-5.354,3.988c-1.886,1.043-3.805,1.566-5.757,1.566c-2.357,0-4.074-0.725-5.15-2.172
		c-1.078-1.447-1.734-3.316-1.97-5.605c-0.236-2.289-0.151-4.83,0.253-7.625c0.403-2.793,0.941-5.537,1.615-8.231
		c1.011-4.04,1.733-7.171,2.172-9.394c0.438-2.221,0.556-3.854,0.354-4.897s-0.742-1.667-1.616-1.868
		c-0.876-0.203-2.155-0.304-3.838-0.304c-0.136-0.606-0.169-1.263-0.101-1.97c0.066-0.707,0.269-1.328,0.605-1.868
		c0.74-0.065,1.733-0.253,2.979-0.556c1.245-0.303,2.541-0.656,3.889-1.061c1.346-0.403,2.608-0.823,3.787-1.262
		c1.178-0.438,2.104-0.859,2.777-1.263c0.74,0.472,1.296,0.978,1.667,1.515c0.369,0.54,0.505,1.616,0.403,3.232
		c-0.101,1.615-0.505,4.006-1.212,7.17c-0.707,3.166-1.734,7.575-3.08,13.23c-2.56,10.303-1.986,15.453,1.717,15.453
		c0.942,0,2.188-0.555,3.737-1.666c1.548-1.111,3.164-2.811,4.848-5.102c1.683-2.287,3.282-5.15,4.797-8.584
		c1.516-3.434,2.71-7.474,3.586-12.119l2.323-12.221h9.19l-4.949,25.047c-0.741,3.57-1.279,6.363-1.615,8.383
		c-0.338,2.02-0.54,3.535-0.606,4.545c-0.067,1.01,0.033,1.633,0.303,1.869c0.269,0.236,0.707,0.354,1.313,0.354
		c0.74,0,1.464-0.236,2.171-0.707s1.632-1.279,2.777-2.424c0.471,0.402,0.858,0.893,1.162,1.463
		c0.303,0.574,0.556,1.162,0.757,1.768c-1.615,1.887-3.451,3.502-5.504,4.848c-2.055,1.348-3.989,2.021-5.808,2.021
		c-3.098,0-5.101-1.043-6.009-3.131c-0.909-2.088-1.027-4.814-0.354-8.182c0.336-1.75,0.874-3.365,1.615-4.848H427.246z"/>
</g>
<g>
	<path d="M67.422,90.569c0.358-0.507,0.708-1.014,1.049-1.523c0.342-0.509,0.691-1.017,1.049-1.523
		c0.486-0.687,0.982-1.223,1.488-1.606c0.506-0.383,1.008-0.639,1.505-0.767c0.497-0.128,0.985-0.14,1.463-0.037
		c0.479,0.104,0.935,0.308,1.369,0.615c0.844,0.597,1.352,1.389,1.521,2.376c0.156,0.906,0.035,1.896-0.363,2.971
		c0.255-0.055,0.502-0.097,0.741-0.127c0.3-0.041,0.617-0.061,0.951-0.061c0.334,0.001,0.705,0.02,1.114,0.055
		c0.409,0.036,0.905,0.088,1.489,0.157c1.058,0.115,1.925,0.104,2.601-0.034c0.676-0.137,1.239-0.499,1.689-1.084
		c0.145,0.102,0.275,0.199,0.392,0.29c0.116,0.091,0.228,0.202,0.335,0.332c-0.324,0.458-0.654,0.939-0.992,1.442
		c-0.337,0.503-0.64,0.995-0.906,1.475c-0.438-0.02-1.002-0.066-1.693-0.138c-0.69-0.072-1.427-0.168-2.21-0.288
		c-0.751-0.114-1.532-0.16-2.344-0.137c-0.656,0.007-1.319,0.062-1.989,0.167c-0.325,0.512-0.636,0.952-0.933,1.321l3.22,2.275
		c0.604,0.426,1.07,0.629,1.4,0.609c0.331-0.02,0.669-0.25,1.018-0.691c0.134,0.041,0.275,0.104,0.422,0.189
		c0.147,0.086,0.288,0.176,0.42,0.27c-0.297,0.369-0.593,0.756-0.889,1.162c-0.296,0.406-0.525,0.724-0.687,0.953l-0.371,0.524
		c-0.136,0.193-0.272,0.391-0.406,0.594c-0.135,0.203-0.265,0.4-0.391,0.592c-0.126,0.191-0.23,0.357-0.312,0.499
		c-0.132-0.094-0.261-0.193-0.385-0.299c-0.124-0.105-0.233-0.219-0.329-0.341c0.317-0.499,0.432-0.911,0.344-1.235
		c-0.088-0.324-0.433-0.699-1.036-1.125l-7.634-5.394c-0.603-0.426-1.078-0.63-1.424-0.614c-0.347,0.018-0.69,0.268-1.031,0.75
		c-0.146-0.049-0.284-0.11-0.413-0.183c-0.129-0.073-0.266-0.161-0.411-0.263c0.14-0.172,0.362-0.467,0.666-0.885
		C66.822,91.411,67.123,90.991,67.422,90.569z M69.108,89.563c-0.112,0.21-0.217,0.435-0.313,0.674l5.065,3.579
		c0.109-0.103,0.203-0.209,0.279-0.318c0.114-0.136,0.227-0.282,0.337-0.439c0.35-0.494,0.625-0.992,0.824-1.492
		c0.2-0.5,0.302-0.989,0.304-1.467c0.003-0.477-0.101-0.926-0.311-1.345s-0.55-0.795-1.021-1.128
		c-0.76-0.537-1.537-0.747-2.333-0.632c-0.796,0.116-1.577,0.716-2.344,1.802C69.4,89.074,69.238,89.33,69.108,89.563z"/>
	<path d="M84.289,68.879c0.2,0.152,0.427,0.313,0.681,0.482c0.253,0.169,0.513,0.343,0.778,0.522
		c0.265,0.179,0.527,0.35,0.785,0.514c0.259,0.164,0.497,0.3,0.715,0.409c0.001,0.157-0.039,0.312-0.122,0.465
		c-0.083,0.153-0.191,0.308-0.326,0.465c-0.277-0.199-0.58-0.367-0.91-0.504c-0.33-0.137-0.685-0.189-1.064-0.155
		c-0.379,0.034-0.78,0.172-1.201,0.414c-0.421,0.242-0.863,0.631-1.325,1.169l-1.039,1.21l4.605,3.953l0.606-0.706
		c0.298-0.347,0.529-0.655,0.692-0.924s0.256-0.52,0.28-0.752c0.024-0.232-0.024-0.459-0.146-0.68
		c-0.122-0.221-0.317-0.447-0.586-0.678c0.081-0.184,0.163-0.342,0.247-0.475c0.084-0.132,0.193-0.276,0.329-0.433
		c0.272,0.273,0.57,0.548,0.896,0.827l1.882,1.616c0.358,0.308,0.693,0.576,1.003,0.803c-0.135,0.157-0.258,0.29-0.37,0.397
		s-0.238,0.209-0.377,0.304c-0.311-0.228-0.592-0.387-0.845-0.478c-0.253-0.09-0.501-0.114-0.744-0.069
		c-0.243,0.045-0.485,0.163-0.727,0.354c-0.242,0.191-0.512,0.461-0.81,0.808l-0.606,0.706l3.042,2.611
		c0.313,0.27,0.588,0.471,0.824,0.605c0.235,0.134,0.459,0.195,0.673,0.184c0.214-0.011,0.428-0.095,0.641-0.253
		c0.213-0.157,0.454-0.393,0.724-0.707l0.086-0.101c0.442-0.515,0.759-0.974,0.948-1.376c0.189-0.402,0.283-0.783,0.282-1.145
		c-0.001-0.361-0.079-0.719-0.231-1.074c-0.152-0.354-0.35-0.743-0.591-1.165c0.201-0.12,0.376-0.211,0.529-0.276
		c0.152-0.063,0.322-0.103,0.509-0.117c0.287,0.46,0.615,0.922,0.985,1.386c0.371,0.464,0.728,0.893,1.072,1.285
		c-0.144,0.168-0.323,0.37-0.535,0.606c-0.212,0.236-0.446,0.498-0.702,0.784c-0.256,0.286-0.519,0.586-0.788,0.9l-1.746,2.034
		c-0.356,0.415-0.707,0.829-1.052,1.243c-0.346,0.414-0.672,0.805-0.979,1.174c-0.307,0.369-0.547,0.665-0.718,0.887
		c-0.325-0.279-0.542-0.514-0.65-0.705c0.181-0.233,0.312-0.448,0.391-0.643c0.079-0.194,0.096-0.389,0.049-0.585
		c-0.046-0.195-0.156-0.401-0.33-0.619c-0.174-0.217-0.423-0.465-0.748-0.744l-6.908-5.93c-0.56-0.481-1.008-0.724-1.344-0.73
		c-0.335-0.005-0.707,0.206-1.114,0.635c-0.119-0.043-0.247-0.114-0.385-0.214c-0.139-0.099-0.275-0.207-0.41-0.322
		c0.156-0.159,0.347-0.364,0.574-0.617c0.227-0.252,0.46-0.514,0.702-0.784c0.242-0.27,0.468-0.528,0.68-0.774l0.519-0.605
		c0.991-1.154,1.798-2.106,2.422-2.855S84.059,69.168,84.289,68.879z"/>
	<path d="M90.372,62.272c0.117-0.092,0.26-0.214,0.431-0.367c0.17-0.153,0.349-0.314,0.535-0.482
		c0.187-0.168,0.375-0.345,0.567-0.529l0.543-0.521c0.352-0.337,0.698-0.68,1.04-1.028c0.341-0.348,0.682-0.685,1.023-1.013
		c0.703-0.675,1.479-1.295,2.326-1.863s1.737-0.946,2.671-1.136c0.934-0.189,1.909-0.122,2.925,0.202
		c1.017,0.324,2.052,1.035,3.105,2.132c0.828,0.863,1.429,1.708,1.804,2.536c0.375,0.828,0.588,1.616,0.641,2.363
		c0.052,0.748-0.02,1.462-0.217,2.142c-0.197,0.68-0.458,1.299-0.782,1.856s-0.677,1.06-1.057,1.506
		c-0.38,0.446-0.72,0.813-1.018,1.099l-1.039,0.997c-0.395,0.378-0.784,0.756-1.167,1.135c-0.384,0.378-0.747,0.736-1.087,1.074
		c-0.341,0.338-0.608,0.609-0.8,0.814c-0.296-0.309-0.49-0.563-0.58-0.764c0.203-0.215,0.354-0.416,0.451-0.602
		s0.133-0.378,0.106-0.577s-0.117-0.415-0.269-0.648c-0.152-0.233-0.376-0.504-0.672-0.813l-6.303-6.569
		c-0.511-0.533-0.933-0.818-1.267-0.856s-0.724,0.137-1.17,0.524c-0.113-0.055-0.234-0.138-0.363-0.25
		C90.621,62.52,90.495,62.399,90.372,62.272z M101.354,68.342c0.286,0.298,0.54,0.525,0.761,0.682
		c0.221,0.156,0.439,0.239,0.653,0.249s0.435-0.054,0.662-0.19c0.228-0.136,0.49-0.348,0.789-0.634
		c0.64-0.613,1.154-1.255,1.544-1.926c0.39-0.67,0.608-1.376,0.655-2.117c0.046-0.74-0.107-1.519-0.461-2.336
		c-0.354-0.817-0.965-1.678-1.834-2.584c-0.828-0.863-1.665-1.473-2.508-1.83s-1.668-0.518-2.473-0.482
		c-0.805,0.036-1.574,0.236-2.308,0.602c-0.734,0.366-1.399,0.835-1.995,1.408c-0.192,0.184-0.39,0.399-0.593,0.646
		c-0.204,0.247-0.354,0.458-0.452,0.633L101.354,68.342z"/>
	<path d="M113.809,41.707c0.167,0.188,0.359,0.39,0.575,0.604s0.438,0.436,0.663,0.662c0.226,0.227,0.45,0.445,0.672,0.655
		c0.222,0.21,0.43,0.39,0.623,0.539c-0.029,0.154-0.099,0.299-0.209,0.433c-0.11,0.134-0.247,0.265-0.409,0.393
		c-0.233-0.248-0.499-0.471-0.796-0.669s-0.636-0.317-1.015-0.356c-0.379-0.039-0.799,0.019-1.259,0.175
		c-0.46,0.156-0.968,0.454-1.525,0.893l-1.252,0.988l3.759,4.765l0.73-0.576c0.359-0.283,0.645-0.541,0.856-0.774
		c0.211-0.232,0.351-0.46,0.419-0.684c0.068-0.223,0.064-0.455-0.012-0.695c-0.077-0.24-0.225-0.5-0.444-0.778
		c0.114-0.165,0.225-0.305,0.333-0.418c0.108-0.114,0.243-0.234,0.405-0.362c0.215,0.32,0.455,0.648,0.72,0.984l1.536,1.948
		c0.293,0.371,0.569,0.698,0.831,0.981c-0.163,0.128-0.309,0.234-0.44,0.319c-0.13,0.084-0.273,0.16-0.429,0.226
		c-0.261-0.283-0.507-0.493-0.738-0.631c-0.231-0.137-0.47-0.208-0.716-0.21s-0.507,0.066-0.781,0.207
		c-0.274,0.142-0.591,0.354-0.951,0.637l-0.73,0.576l2.483,3.147c0.256,0.325,0.486,0.576,0.692,0.752
		c0.205,0.177,0.414,0.28,0.625,0.311s0.438-0.011,0.677-0.125s0.521-0.299,0.846-0.555l0.104-0.083
		c0.533-0.42,0.931-0.81,1.194-1.168c0.263-0.358,0.429-0.714,0.497-1.069c0.068-0.354,0.061-0.721-0.021-1.099
		c-0.082-0.377-0.2-0.796-0.356-1.256c0.22-0.079,0.411-0.135,0.572-0.169c0.162-0.033,0.335-0.04,0.522-0.018
		c0.192,0.507,0.426,1.023,0.7,1.55c0.274,0.526,0.542,1.016,0.805,1.467c-0.174,0.137-0.388,0.301-0.642,0.492
		s-0.534,0.402-0.84,0.634s-0.622,0.476-0.946,0.732l-2.104,1.66c-0.429,0.338-0.853,0.677-1.271,1.017
		c-0.419,0.339-0.814,0.661-1.187,0.964s-0.664,0.547-0.875,0.732c-0.265-0.336-0.433-0.608-0.503-0.816
		c0.223-0.194,0.392-0.379,0.507-0.555c0.115-0.175,0.169-0.363,0.161-0.564c-0.008-0.2-0.076-0.424-0.205-0.671
		c-0.129-0.246-0.326-0.538-0.591-0.874l-5.639-7.147c-0.457-0.58-0.85-0.904-1.178-0.975s-0.733,0.066-1.215,0.409
		c-0.108-0.065-0.221-0.16-0.337-0.285c-0.117-0.124-0.23-0.255-0.34-0.395c0.183-0.125,0.41-0.291,0.682-0.496
		c0.271-0.204,0.551-0.416,0.84-0.634c0.289-0.218,0.56-0.428,0.815-0.629l0.626-0.494c1.194-0.942,2.169-1.72,2.925-2.336
		C113.01,42.375,113.528,41.947,113.809,41.707z"/>
	<path d="M128.875,31.253c0.135-0.061,0.303-0.146,0.505-0.255c0.202-0.108,0.413-0.222,0.634-0.342
		c0.221-0.12,0.446-0.246,0.676-0.379l0.651-0.378c0.421-0.245,0.839-0.495,1.253-0.753c0.414-0.257,0.825-0.504,1.234-0.741
		c0.843-0.489,1.743-0.909,2.701-1.259s1.912-0.507,2.864-0.471c0.952,0.037,1.883,0.333,2.794,0.889
		c0.912,0.556,1.749,1.491,2.512,2.807c0.6,1.035,0.984,1.999,1.152,2.891c0.168,0.893,0.188,1.708,0.062,2.448
		c-0.126,0.739-0.365,1.416-0.717,2.029c-0.353,0.614-0.752,1.153-1.2,1.618c-0.447,0.464-0.909,0.869-1.383,1.212
		c-0.475,0.344-0.892,0.62-1.249,0.827l-1.246,0.723c-0.473,0.274-0.94,0.549-1.403,0.826s-0.899,0.539-1.311,0.786
		c-0.412,0.247-0.735,0.448-0.97,0.601c-0.215-0.37-0.342-0.663-0.382-0.879c0.248-0.161,0.442-0.32,0.581-0.478
		c0.139-0.158,0.219-0.336,0.24-0.536c0.021-0.2-0.016-0.43-0.108-0.693c-0.092-0.262-0.246-0.579-0.46-0.949l-4.568-7.875
		c-0.371-0.639-0.713-1.016-1.028-1.132c-0.314-0.116-0.735-0.039-1.261,0.232c-0.098-0.08-0.195-0.189-0.293-0.329
		C129.057,31.553,128.963,31.406,128.875,31.253z M138.106,39.751c0.208,0.358,0.4,0.639,0.579,0.842
		c0.178,0.204,0.37,0.336,0.575,0.396s0.435,0.051,0.688-0.028c0.253-0.078,0.559-0.221,0.917-0.429
		c0.766-0.445,1.418-0.947,1.956-1.506c0.537-0.559,0.917-1.193,1.137-1.902c0.221-0.708,0.256-1.501,0.105-2.379
		c-0.15-0.877-0.541-1.858-1.17-2.944c-0.601-1.035-1.268-1.825-2.003-2.372c-0.735-0.546-1.498-0.897-2.289-1.054
		c-0.791-0.156-1.585-0.143-2.384,0.039c-0.8,0.182-1.557,0.48-2.272,0.896c-0.23,0.133-0.473,0.296-0.729,0.487
		c-0.256,0.191-0.453,0.361-0.589,0.508L138.106,39.751z"/>
	<path d="M156.518,16.834c0.118,0.222,0.256,0.463,0.415,0.723c0.159,0.26,0.322,0.527,0.487,0.801
		c0.165,0.273,0.331,0.539,0.497,0.795c0.166,0.257,0.325,0.481,0.477,0.671c-0.065,0.143-0.167,0.267-0.306,0.371
		c-0.139,0.104-0.303,0.199-0.491,0.285c-0.168-0.297-0.373-0.577-0.615-0.84c-0.242-0.263-0.542-0.458-0.901-0.587
		s-0.78-0.171-1.264-0.129c-0.484,0.042-1.048,0.21-1.693,0.504l-1.451,0.662l2.52,5.521l0.846-0.386
		c0.417-0.189,0.755-0.373,1.016-0.548c0.261-0.176,0.451-0.364,0.57-0.564c0.119-0.201,0.17-0.427,0.153-0.679
		c-0.017-0.251-0.1-0.539-0.247-0.861c0.15-0.133,0.291-0.242,0.423-0.327s0.292-0.169,0.48-0.255
		c0.132,0.362,0.288,0.737,0.465,1.126l1.03,2.257c0.196,0.43,0.387,0.813,0.574,1.15c-0.188,0.086-0.356,0.154-0.503,0.205
		s-0.304,0.09-0.47,0.117c-0.187-0.336-0.375-0.6-0.566-0.788c-0.192-0.188-0.407-0.313-0.646-0.375
		c-0.239-0.062-0.509-0.056-0.808,0.016c-0.3,0.072-0.659,0.203-1.075,0.393l-0.847,0.386l1.665,3.647
		c0.171,0.376,0.336,0.674,0.493,0.895c0.157,0.22,0.335,0.37,0.534,0.45c0.199,0.08,0.428,0.093,0.688,0.039
		c0.259-0.053,0.578-0.166,0.954-0.338l0.121-0.055c0.618-0.282,1.097-0.565,1.438-0.851c0.34-0.285,0.585-0.592,0.736-0.92
		c0.15-0.328,0.231-0.686,0.241-1.072c0.01-0.386-0.005-0.821-0.047-1.305c0.232-0.024,0.431-0.034,0.596-0.028
		c0.165,0.006,0.335,0.042,0.511,0.107c0.067,0.538,0.171,1.095,0.312,1.671s0.286,1.116,0.433,1.616
		c-0.202,0.092-0.449,0.201-0.74,0.326c-0.292,0.125-0.614,0.264-0.966,0.417c-0.353,0.152-0.717,0.315-1.093,0.486l-2.438,1.113
		c-0.497,0.227-0.989,0.455-1.477,0.686c-0.488,0.23-0.948,0.449-1.381,0.655c-0.434,0.206-0.775,0.374-1.024,0.503
		c-0.178-0.389-0.276-0.693-0.294-0.912c0.262-0.136,0.471-0.276,0.625-0.419s0.25-0.313,0.291-0.51c0.04-0.196,0.027-0.43-0.04-0.7
		c-0.066-0.27-0.188-0.6-0.366-0.989l-3.779-8.282c-0.307-0.672-0.611-1.081-0.913-1.227c-0.302-0.146-0.728-0.11-1.277,0.108
		c-0.089-0.089-0.176-0.208-0.26-0.356c-0.084-0.148-0.163-0.303-0.236-0.464c0.208-0.079,0.467-0.185,0.78-0.319
		c0.312-0.134,0.634-0.273,0.966-0.417c0.332-0.143,0.646-0.283,0.941-0.417l0.726-0.331c1.383-0.631,2.516-1.156,3.396-1.574
		S156.188,17,156.518,16.834z"/>
	<path d="M177.885,8.902c0.791-0.241,1.498-0.352,2.121-0.333s1.12,0.103,1.49,0.252c0.125,0.41,0.276,0.881,0.454,1.414
		c0.177,0.533,0.353,0.98,0.525,1.345c-0.134,0.118-0.306,0.225-0.517,0.319c-0.21,0.095-0.415,0.173-0.612,0.233
		c-0.298-0.573-0.577-1.032-0.836-1.378c-0.26-0.345-0.518-0.598-0.776-0.759c-0.257-0.161-0.515-0.248-0.774-0.262
		c-0.259-0.014-0.522,0.021-0.791,0.102c-0.636,0.194-1.082,0.53-1.337,1.009c-0.255,0.479-0.28,1.058-0.073,1.736
		c0.189,0.622,0.506,1.081,0.952,1.377c0.445,0.297,0.959,0.526,1.541,0.688c0.582,0.163,1.197,0.295,1.846,0.398
		c0.649,0.104,1.272,0.261,1.869,0.473c0.597,0.211,1.135,0.522,1.615,0.932c0.479,0.41,0.838,1.003,1.075,1.78
		c0.164,0.537,0.21,1.083,0.139,1.637c-0.071,0.554-0.24,1.073-0.51,1.556s-0.634,0.911-1.092,1.282s-0.998,0.651-1.62,0.84
		c-0.495,0.151-0.937,0.258-1.326,0.323c-0.39,0.064-0.759,0.092-1.109,0.083c-0.35-0.009-0.709-0.05-1.079-0.123
		s-0.791-0.176-1.264-0.31c-0.079-0.562-0.189-1.116-0.332-1.659c-0.142-0.543-0.273-1.012-0.394-1.408
		c0.142-0.089,0.316-0.177,0.522-0.263c0.205-0.085,0.4-0.156,0.583-0.212c0.191,0.529,0.408,0.987,0.651,1.376
		c0.242,0.39,0.526,0.701,0.851,0.933c0.326,0.233,0.708,0.372,1.146,0.416s0.954-0.024,1.547-0.205
		c0.396-0.12,0.723-0.286,0.983-0.496s0.458-0.444,0.596-0.703c0.138-0.258,0.22-0.534,0.246-0.828
		c0.026-0.293-0.006-0.589-0.096-0.885c-0.193-0.636-0.513-1.102-0.958-1.398c-0.445-0.296-0.956-0.515-1.531-0.657
		c-0.575-0.141-1.189-0.255-1.841-0.342c-0.652-0.087-1.276-0.236-1.873-0.448s-1.14-0.536-1.628-0.975
		c-0.488-0.438-0.864-1.087-1.126-1.949c-0.168-0.551-0.226-1.085-0.175-1.602s0.195-0.993,0.433-1.429
		c0.238-0.435,0.566-0.813,0.986-1.134S177.306,9.079,177.885,8.902z"/>
	<path d="M199.429,3.675c0.066,0.243,0.149,0.508,0.248,0.796c0.099,0.289,0.199,0.584,0.301,0.887
		c0.102,0.303,0.206,0.598,0.312,0.885c0.106,0.287,0.212,0.54,0.319,0.759c-0.094,0.126-0.221,0.224-0.379,0.295
		s-0.339,0.128-0.541,0.171c-0.1-0.326-0.238-0.644-0.417-0.953c-0.179-0.309-0.43-0.566-0.752-0.769
		c-0.322-0.204-0.724-0.337-1.206-0.401s-1.069-0.022-1.762,0.125l-1.561,0.331l1.259,5.937l0.91-0.193
		c0.447-0.095,0.818-0.2,1.111-0.314c0.292-0.115,0.519-0.257,0.679-0.427c0.16-0.169,0.259-0.379,0.297-0.629
		c0.038-0.249,0.02-0.547-0.054-0.895c0.175-0.097,0.337-0.173,0.484-0.227C198.825,9,199,8.951,199.202,8.908
		c0.051,0.382,0.121,0.782,0.209,1.201l0.514,2.427c0.098,0.462,0.201,0.878,0.31,1.248c-0.203,0.043-0.381,0.073-0.536,0.091
		c-0.155,0.018-0.316,0.022-0.484,0.012c-0.108-0.369-0.236-0.667-0.382-0.893c-0.146-0.226-0.329-0.395-0.549-0.506
		s-0.484-0.165-0.792-0.16c-0.308,0.005-0.687,0.055-1.134,0.149l-0.91,0.193l0.832,3.922c0.086,0.405,0.181,0.731,0.287,0.98
		c0.105,0.25,0.247,0.435,0.423,0.556s0.397,0.184,0.663,0.188c0.265,0.004,0.6-0.037,1.004-0.123l0.13-0.027
		c0.665-0.141,1.194-0.313,1.588-0.518c0.395-0.204,0.701-0.45,0.919-0.738c0.218-0.287,0.375-0.619,0.469-0.994
		c0.094-0.374,0.173-0.802,0.237-1.284c0.232,0.026,0.428,0.061,0.588,0.102c0.159,0.042,0.318,0.113,0.476,0.216
		c-0.052,0.54-0.071,1.106-0.059,1.699c0.013,0.594,0.037,1.151,0.071,1.672c-0.216,0.046-0.481,0.098-0.793,0.157
		c-0.312,0.059-0.657,0.124-1.034,0.197c-0.377,0.072-0.769,0.151-1.173,0.237l-2.622,0.556c-0.535,0.113-1.065,0.229-1.59,0.348
		c-0.526,0.119-1.023,0.232-1.491,0.339c-0.468,0.106-0.838,0.196-1.109,0.269c-0.089-0.419-0.119-0.737-0.089-0.955
		c0.286-0.076,0.52-0.167,0.701-0.273c0.181-0.106,0.312-0.25,0.395-0.435c0.082-0.183,0.12-0.414,0.114-0.692
		c-0.006-0.278-0.053-0.626-0.142-1.045l-1.888-8.906c-0.153-0.722-0.361-1.188-0.624-1.396c-0.263-0.208-0.687-0.266-1.271-0.172
		c-0.068-0.106-0.127-0.241-0.176-0.404c-0.05-0.163-0.093-0.332-0.129-0.505c0.22-0.031,0.496-0.079,0.83-0.142
		c0.333-0.063,0.678-0.128,1.034-0.196s0.692-0.136,1.01-0.203l0.78-0.165c1.488-0.315,2.707-0.582,3.658-0.798
		C198.417,3.92,199.071,3.766,199.429,3.675z"/>
	<path d="M210.707,1.854c0.543-0.054,1.1-0.132,1.668-0.234l6.731,11.636l3.584-12.669c0.252,0.004,0.53-0.005,0.832-0.028
		c0.302-0.022,0.6-0.049,0.894-0.079c0.293-0.029,0.573-0.061,0.836-0.095c0.264-0.034,0.541-0.08,0.832-0.139
		c0.016,0.162,0.024,0.32,0.025,0.476c0,0.156-0.013,0.317-0.041,0.483c-0.264,0.026-0.496,0.083-0.695,0.17
		c-0.199,0.086-0.356,0.221-0.471,0.403c-0.116,0.182-0.185,0.419-0.208,0.711c-0.023,0.292,0.01,0.656,0.099,1.092l1.604,8.009
		c0.113,0.538,0.224,0.979,0.333,1.325c0.108,0.345,0.236,0.615,0.381,0.808c0.146,0.193,0.311,0.329,0.497,0.407
		s0.412,0.111,0.678,0.099c0.061,0.157,0.106,0.32,0.138,0.487c0.032,0.167,0.055,0.325,0.07,0.472
		c-0.178,0.003-0.377,0.012-0.599,0.026s-0.45,0.03-0.686,0.046s-0.479,0.037-0.728,0.062l-0.639,0.064
		c-0.397,0.04-0.849,0.088-1.354,0.147c-0.506,0.058-0.949,0.121-1.328,0.188c-0.013-0.132-0.018-0.288-0.013-0.466
		c0.004-0.178,0.021-0.343,0.051-0.495c0.35-0.064,0.623-0.151,0.82-0.26c0.197-0.109,0.33-0.259,0.4-0.452s0.089-0.447,0.057-0.763
		s-0.094-0.714-0.187-1.195l-1.55-7.48l-3.458,11.477c-0.24,0.127-0.536,0.209-0.888,0.245l-6.252-10.638l0.003,7.146
		c0,0.594,0.03,1.077,0.089,1.449c0.06,0.373,0.155,0.664,0.288,0.873s0.31,0.351,0.533,0.425c0.222,0.074,0.497,0.11,0.823,0.106
		c0.061,0.158,0.107,0.327,0.14,0.509c0.033,0.183,0.055,0.325,0.065,0.428c-0.356,0.005-0.758,0.027-1.207,0.065
		c-0.449,0.038-0.835,0.073-1.158,0.105s-0.698,0.073-1.123,0.124c-0.426,0.05-0.784,0.104-1.075,0.164
		c-0.01-0.103-0.018-0.247-0.021-0.432c-0.004-0.185,0.008-0.36,0.036-0.527c0.291-0.059,0.531-0.142,0.721-0.25
		c0.189-0.108,0.339-0.279,0.45-0.512c0.11-0.234,0.188-0.561,0.236-0.981c0.047-0.42,0.066-0.964,0.059-1.631l-0.081-7.917
		c-0.006-0.801-0.134-1.34-0.385-1.62s-0.685-0.388-1.302-0.326c-0.059-0.142-0.104-0.301-0.137-0.476s-0.055-0.329-0.068-0.46
		c0.224,0.007,0.49-0.001,0.799-0.024C210.133,1.908,210.427,1.882,210.707,1.854z"/>
	<path d="M244.255,0.154c0.01,0.251,0.031,0.528,0.063,0.832s0.063,0.614,0.096,0.932c0.031,0.318,0.067,0.629,0.106,0.932
		c0.04,0.303,0.087,0.574,0.143,0.811c-0.12,0.102-0.266,0.169-0.436,0.203c-0.171,0.034-0.359,0.05-0.565,0.046
		c-0.024-0.34-0.089-0.681-0.194-1.022c-0.105-0.341-0.292-0.647-0.561-0.917c-0.27-0.271-0.632-0.49-1.086-0.66
		c-0.455-0.17-1.037-0.261-1.746-0.272l-1.595-0.026l-0.098,6.068l0.93,0.015c0.457,0.007,0.842-0.012,1.153-0.059
		c0.311-0.046,0.562-0.135,0.757-0.265s0.338-0.312,0.43-0.547c0.093-0.234,0.142-0.529,0.147-0.884
		c0.192-0.056,0.367-0.094,0.522-0.113s0.336-0.028,0.543-0.024c-0.036,0.384-0.057,0.79-0.063,1.217l-0.04,2.48
		c-0.008,0.473-0.001,0.901,0.023,1.286c-0.207-0.003-0.388-0.014-0.543-0.031c-0.154-0.017-0.312-0.049-0.475-0.096
		c-0.023-0.384-0.081-0.703-0.173-0.956c-0.092-0.252-0.232-0.458-0.422-0.616s-0.436-0.269-0.736-0.333
		c-0.302-0.063-0.682-0.1-1.14-0.107l-0.93-0.015l-0.065,4.009c-0.007,0.414,0.014,0.753,0.062,1.02
		c0.047,0.267,0.144,0.479,0.288,0.636c0.146,0.157,0.347,0.268,0.604,0.331c0.257,0.063,0.593,0.099,1.006,0.105l0.133,0.002
		c0.679,0.011,1.233-0.039,1.664-0.15c0.43-0.111,0.783-0.283,1.061-0.515c0.277-0.231,0.503-0.52,0.679-0.864
		c0.175-0.344,0.348-0.744,0.518-1.199c0.221,0.078,0.403,0.154,0.551,0.23c0.146,0.077,0.284,0.182,0.415,0.317
		c-0.171,0.515-0.316,1.062-0.437,1.644s-0.221,1.13-0.304,1.646c-0.221-0.004-0.49-0.012-0.808-0.024s-0.668-0.025-1.052-0.039
		s-0.782-0.024-1.195-0.03l-2.681-0.043c-0.546-0.009-1.089-0.014-1.628-0.016s-1.049-0.002-1.528-0.002
		c-0.48,0-0.86,0.004-1.141,0.015c0.007-0.428,0.049-0.745,0.126-0.951c0.295-0.01,0.543-0.046,0.744-0.11
		c0.2-0.063,0.36-0.175,0.481-0.335c0.12-0.16,0.209-0.376,0.266-0.649c0.056-0.272,0.087-0.623,0.094-1.051l0.147-9.103
		c0.013-0.738-0.087-1.238-0.297-1.5c-0.21-0.261-0.609-0.412-1.199-0.451c-0.043-0.119-0.07-0.263-0.082-0.434
		c-0.012-0.169-0.017-0.343-0.014-0.521c0.222,0.019,0.501,0.034,0.841,0.047c0.34,0.013,0.69,0.026,1.052,0.039
		c0.361,0.014,0.705,0.022,1.03,0.028l0.797,0.013c1.521,0.025,2.769,0.038,3.743,0.039C243.213,0.167,243.885,0.163,244.255,0.154z
		"/>
	<path d="M263.147,1.542c0.319,0.064,0.667,0.119,1.04,0.166c0.374,0.047,0.715,0.087,1.023,0.12s0.661,0.066,1.059,0.101
		c0.397,0.035,0.744,0.053,1.041,0.055c-0.016,0.147-0.04,0.3-0.071,0.46c-0.031,0.16-0.078,0.319-0.14,0.476
		c-0.249-0.027-0.46,0.003-0.633,0.089c-0.173,0.086-0.323,0.244-0.451,0.476s-0.235,0.543-0.321,0.935
		c-0.086,0.392-0.161,0.889-0.225,1.491l-1.16,10.97c-0.122,0.032-0.265,0.046-0.428,0.044c-0.163-0.003-0.325-0.012-0.487-0.029
		l-7.879-12.906l-0.806,7.622c-0.065,0.617-0.098,1.137-0.098,1.56s0.045,0.766,0.136,1.028s0.23,0.455,0.418,0.579
		c0.188,0.124,0.428,0.201,0.722,0.232c0.03,0.137,0.045,0.28,0.044,0.428c-0.001,0.148-0.013,0.326-0.034,0.531
		c-0.335-0.065-0.699-0.123-1.096-0.172c-0.396-0.049-0.755-0.091-1.078-0.125s-0.701-0.071-1.136-0.109
		c-0.434-0.039-0.792-0.058-1.073-0.058c0.02-0.19,0.045-0.363,0.076-0.515c0.031-0.153,0.075-0.293,0.134-0.42
		c0.294,0.031,0.545,0.006,0.754-0.076c0.209-0.082,0.386-0.241,0.529-0.479c0.145-0.237,0.261-0.562,0.349-0.977
		s0.165-0.929,0.23-1.546l0.962-9.097l-0.076-0.12c-0.179-0.286-0.358-0.479-0.54-0.581c-0.183-0.101-0.456-0.185-0.82-0.254
		c-0.026-0.166-0.038-0.338-0.034-0.516s0.012-0.325,0.024-0.443c0.218,0.053,0.472,0.098,0.766,0.137
		c0.292,0.039,0.578,0.072,0.857,0.102c0.587,0.062,1.082,0.092,1.483,0.09l7.366,12.272l0.771-7.291
		c0.063-0.602,0.094-1.104,0.092-1.505c-0.002-0.401-0.049-0.729-0.141-0.984c-0.093-0.255-0.231-0.444-0.419-0.568
		c-0.188-0.124-0.428-0.201-0.722-0.232c-0.018-0.254-0.027-0.445-0.028-0.571C263.126,1.804,263.132,1.674,263.147,1.542z"/>
	<path d="M279.227,5.092l-1.106-0.229c-0.563-0.117-1.022-0.144-1.374-0.082c-0.353,0.063-0.647,0.19-0.883,0.383
		c-0.236,0.192-0.429,0.432-0.578,0.717s-0.299,0.602-0.445,0.948c-0.159-0.033-0.33-0.083-0.512-0.151
		c-0.183-0.068-0.331-0.151-0.445-0.251c0.22-0.482,0.419-1.006,0.597-1.573c0.178-0.566,0.319-1.102,0.424-1.608
		c0.602,0.155,1.396,0.338,2.386,0.551c0.989,0.213,2.033,0.433,3.132,0.661l1.627,0.337c0.534,0.111,1.045,0.213,1.531,0.306
		c0.485,0.093,0.936,0.179,1.35,0.257c0.413,0.078,0.773,0.142,1.08,0.19c-0.204,0.983-0.386,2.077-0.544,3.28
		c-0.175,0.04-0.355,0.055-0.542,0.046c-0.187-0.009-0.366-0.031-0.54-0.067c0.133-0.787,0.048-1.449-0.256-1.987
		c-0.303-0.538-0.91-0.901-1.82-1.09l-1.042-0.216l-2.292,11.062c-0.075,0.361-0.116,0.666-0.122,0.914s0.038,0.453,0.133,0.616
		c0.094,0.163,0.247,0.3,0.457,0.412c0.211,0.111,0.488,0.21,0.832,0.296c0.03,0.218,0.002,0.536-0.084,0.956
		c-0.457-0.125-0.927-0.241-1.41-0.349c-0.482-0.108-0.955-0.209-1.418-0.305c-0.463-0.096-0.952-0.194-1.467-0.292
		c-0.515-0.1-0.978-0.177-1.388-0.231c0.087-0.419,0.187-0.722,0.302-0.91c0.35,0.058,0.644,0.077,0.881,0.059
		c0.237-0.019,0.436-0.083,0.595-0.194c0.158-0.11,0.287-0.279,0.388-0.507c0.1-0.229,0.188-0.523,0.263-0.885L279.227,5.092z"/>
	<path d="M302.281,10.154c-0.059,0.245-0.114,0.517-0.166,0.817c-0.053,0.301-0.107,0.608-0.164,0.922
		c-0.057,0.315-0.107,0.624-0.153,0.926c-0.045,0.303-0.073,0.576-0.085,0.819c-0.144,0.065-0.302,0.09-0.475,0.076
		c-0.174-0.014-0.359-0.051-0.557-0.111c0.069-0.333,0.102-0.679,0.094-1.036c-0.008-0.357-0.104-0.702-0.288-1.036
		c-0.185-0.334-0.473-0.645-0.863-0.933c-0.392-0.288-0.926-0.535-1.604-0.74l-1.526-0.462l-1.759,5.809l0.891,0.27
		c0.438,0.132,0.813,0.219,1.125,0.259c0.312,0.041,0.579,0.025,0.801-0.046c0.223-0.072,0.41-0.208,0.563-0.408
		c0.153-0.2,0.281-0.47,0.384-0.81c0.201-0.001,0.379,0.011,0.533,0.034c0.155,0.024,0.331,0.065,0.529,0.125
		c-0.14,0.359-0.271,0.744-0.396,1.153l-0.719,2.374c-0.137,0.453-0.247,0.867-0.33,1.243c-0.197-0.06-0.368-0.119-0.513-0.179
		c-0.145-0.059-0.287-0.133-0.43-0.223c0.082-0.376,0.114-0.698,0.096-0.966c-0.02-0.268-0.099-0.504-0.237-0.708
		s-0.345-0.378-0.617-0.522c-0.272-0.144-0.628-0.283-1.065-0.415l-0.891-0.27l-1.162,3.837c-0.12,0.396-0.193,0.729-0.221,0.998
		c-0.028,0.27,0.007,0.5,0.104,0.691c0.096,0.191,0.259,0.353,0.489,0.484s0.543,0.257,0.939,0.377l0.127,0.039
		c0.649,0.197,1.197,0.301,1.642,0.312c0.443,0.011,0.83-0.057,1.161-0.204c0.329-0.147,0.626-0.362,0.889-0.645
		c0.264-0.283,0.539-0.62,0.827-1.011c0.19,0.135,0.346,0.259,0.466,0.372c0.12,0.114,0.225,0.253,0.313,0.419
		c-0.306,0.448-0.596,0.935-0.871,1.46c-0.274,0.526-0.522,1.026-0.743,1.5c-0.212-0.064-0.469-0.146-0.771-0.245
		s-0.635-0.208-1-0.326c-0.366-0.119-0.746-0.237-1.142-0.357l-2.565-0.777c-0.523-0.158-1.044-0.312-1.562-0.461
		c-0.519-0.149-1.008-0.29-1.469-0.422c-0.462-0.132-0.829-0.231-1.102-0.298c0.124-0.41,0.251-0.703,0.382-0.88
		c0.286,0.072,0.535,0.104,0.745,0.099s0.396-0.069,0.556-0.191c0.16-0.121,0.304-0.305,0.433-0.551s0.255-0.575,0.38-0.984
		l2.638-8.713c0.214-0.707,0.256-1.215,0.126-1.524c-0.131-0.31-0.474-0.564-1.03-0.763c-0.009-0.126,0.005-0.272,0.04-0.439
		c0.035-0.167,0.078-0.335,0.13-0.504c0.207,0.079,0.473,0.17,0.796,0.276c0.322,0.105,0.656,0.214,1,0.326
		c0.345,0.112,0.672,0.215,0.983,0.309l0.763,0.231c1.456,0.44,2.652,0.795,3.589,1.063
		C301.276,9.881,301.923,10.061,302.281,10.154z"/>
	<path d="M314.934,14.646c0.768,0.308,1.389,0.664,1.863,1.068c0.475,0.404,0.809,0.781,1.003,1.129
		c-0.159,0.398-0.336,0.86-0.53,1.386c-0.195,0.526-0.339,0.986-0.433,1.378c-0.179,0.008-0.379-0.017-0.603-0.074
		s-0.432-0.125-0.623-0.202c0.126-0.633,0.196-1.166,0.21-1.598c0.014-0.432-0.029-0.791-0.129-1.078
		c-0.101-0.287-0.247-0.516-0.44-0.689c-0.192-0.173-0.42-0.312-0.681-0.416c-0.616-0.247-1.175-0.264-1.674-0.05
		c-0.499,0.214-0.88,0.65-1.144,1.308c-0.241,0.603-0.281,1.16-0.12,1.67c0.162,0.51,0.419,1.011,0.771,1.501
		c0.352,0.491,0.749,0.979,1.19,1.466c0.44,0.487,0.828,1,1.161,1.539c0.333,0.539,0.559,1.118,0.676,1.738
		c0.118,0.62,0.026,1.307-0.275,2.061c-0.209,0.521-0.515,0.976-0.916,1.363c-0.402,0.388-0.859,0.686-1.372,0.895
		s-1.064,0.313-1.653,0.316c-0.59,0.003-1.187-0.117-1.789-0.358c-0.48-0.192-0.893-0.385-1.236-0.578s-0.649-0.403-0.917-0.629
		c-0.267-0.227-0.522-0.483-0.765-0.771s-0.507-0.632-0.791-1.033c0.29-0.488,0.55-0.988,0.779-1.501s0.421-0.961,0.574-1.345
		c0.167,0.019,0.357,0.06,0.571,0.121c0.214,0.062,0.41,0.128,0.589,0.2c-0.182,0.532-0.3,1.025-0.354,1.481
		c-0.055,0.455-0.028,0.875,0.08,1.261s0.318,0.732,0.633,1.041c0.313,0.309,0.759,0.578,1.335,0.809
		c0.384,0.154,0.743,0.23,1.077,0.229c0.335-0.001,0.636-0.059,0.905-0.174c0.269-0.115,0.505-0.279,0.71-0.491
		c0.204-0.212,0.363-0.463,0.479-0.75c0.247-0.617,0.29-1.181,0.128-1.691c-0.161-0.51-0.422-1-0.782-1.47
		c-0.361-0.47-0.769-0.943-1.222-1.419c-0.454-0.476-0.847-0.983-1.18-1.522s-0.554-1.132-0.66-1.779
		c-0.107-0.647,0.007-1.389,0.342-2.225c0.214-0.535,0.503-0.987,0.866-1.359s0.774-0.652,1.232-0.843s0.95-0.279,1.479-0.267
		C313.828,14.303,314.373,14.421,314.934,14.646z"/>
	<path d="M333.144,39.101c0.541,0.304,1.012,0.513,1.413,0.628c0.4,0.115,0.781,0.146,1.141,0.095
		c0.359-0.052,0.713-0.184,1.061-0.396c0.347-0.211,0.725-0.499,1.132-0.863c0.157,0.173,0.282,0.328,0.375,0.464
		c0.092,0.137,0.164,0.296,0.215,0.477c-0.396,0.371-0.783,0.784-1.165,1.238c-0.383,0.455-0.732,0.889-1.05,1.303
		c-0.193-0.108-0.426-0.244-0.699-0.405c-0.273-0.162-0.575-0.34-0.906-0.535c-0.332-0.194-0.678-0.393-1.038-0.595l-2.337-1.312
		c-0.477-0.268-0.951-0.53-1.425-0.788c-0.474-0.258-0.922-0.5-1.344-0.729s-0.759-0.405-1.011-0.529
		c0.21-0.374,0.397-0.632,0.562-0.776c0.265,0.132,0.501,0.217,0.707,0.257c0.206,0.04,0.4,0.018,0.583-0.066
		s0.363-0.232,0.542-0.445c0.179-0.213,0.373-0.506,0.583-0.879l4.457-7.938c0.361-0.644,0.512-1.131,0.452-1.461
		c-0.061-0.33-0.341-0.652-0.841-0.967c0.019-0.125,0.063-0.265,0.134-0.42c0.07-0.155,0.149-0.31,0.235-0.464
		c0.187,0.121,0.379,0.246,0.577,0.375l0.627,0.377l1.101,0.618c0.412,0.231,0.81,0.451,1.193,0.657
		c0.383,0.207,0.775,0.406,1.177,0.597c-0.21,0.374-0.397,0.632-0.563,0.776c-0.265-0.131-0.497-0.215-0.697-0.251
		c-0.199-0.036-0.388-0.019-0.562,0.052c-0.176,0.071-0.347,0.203-0.515,0.397c-0.169,0.193-0.347,0.458-0.534,0.792l-4.425,7.88
		c-0.202,0.361-0.347,0.669-0.431,0.926c-0.086,0.257-0.102,0.489-0.049,0.697s0.178,0.4,0.374,0.579
		c0.196,0.178,0.475,0.368,0.835,0.57L333.144,39.101z"/>
	<path d="M349.911,36.274c0.409-0.615,0.595-1.089,0.56-1.423c-0.035-0.333-0.291-0.676-0.767-1.027
		c0.053-0.213,0.198-0.498,0.436-0.855c0.651,0.486,1.384,0.999,2.195,1.538c0.394,0.262,0.773,0.51,1.141,0.745
		s0.743,0.463,1.129,0.683c-0.237,0.357-0.443,0.601-0.619,0.732c-0.509-0.302-0.924-0.405-1.245-0.308
		c-0.321,0.097-0.686,0.453-1.095,1.068l-5.171,7.787c-0.409,0.615-0.596,1.089-0.56,1.423c0.035,0.334,0.291,0.677,0.767,1.028
		c-0.054,0.213-0.198,0.498-0.435,0.855c-0.714-0.527-1.446-1.04-2.196-1.539c-0.356-0.237-0.74-0.487-1.15-0.75
		c-0.409-0.264-0.782-0.489-1.119-0.677c0.237-0.356,0.443-0.601,0.619-0.732c0.509,0.302,0.924,0.405,1.245,0.308
		c0.321-0.097,0.686-0.452,1.095-1.067L349.911,36.274z"/>
	<path d="M361.886,45.37c-0.397,1.53-0.812,3.056-1.241,4.579c-0.392,1.403-0.809,2.851-1.253,4.343
		c1.22-0.712,2.408-1.42,3.565-2.125c1.296-0.784,2.606-1.612,3.934-2.484c0.723-0.464,1.18-0.912,1.371-1.345
		c0.19-0.433,0.036-0.893-0.463-1.381c0.065-0.155,0.147-0.307,0.245-0.455c0.099-0.148,0.184-0.269,0.258-0.362
		c0.236,0.225,0.468,0.431,0.695,0.62c0.228,0.189,0.475,0.388,0.741,0.599c0.267,0.21,0.567,0.443,0.903,0.698
		c0.335,0.255,0.639,0.471,0.912,0.649c-0.101,0.128-0.205,0.248-0.312,0.36c-0.107,0.112-0.229,0.219-0.364,0.319
		c-0.433-0.19-0.888-0.192-1.364-0.004c-0.478,0.188-1.049,0.489-1.715,0.904c-1.734,1.078-3.469,2.15-5.203,3.217
		c-1.735,1.067-3.497,2.127-5.286,3.18c-0.233-0.109-0.479-0.264-0.733-0.465c0.331-1.111,0.655-2.22,0.972-3.324
		s0.617-2.179,0.904-3.222c0.287-1.043,0.558-2.043,0.812-2.998c0.255-0.956,0.481-1.844,0.679-2.667
		c0.141-0.584,0.251-1.052,0.331-1.403c0.079-0.351,0.122-0.637,0.127-0.859c0.006-0.221-0.025-0.396-0.094-0.525
		c-0.067-0.128-0.174-0.269-0.317-0.42c0.075-0.167,0.159-0.321,0.253-0.463c0.093-0.143,0.177-0.26,0.25-0.353
		c0.213,0.206,0.518,0.47,0.913,0.791s0.779,0.628,1.15,0.921c0.741,0.585,1.457,1.121,2.146,1.607
		c-0.184,0.232-0.409,0.458-0.677,0.679c-0.297-0.196-0.55-0.335-0.759-0.415c-0.21-0.081-0.393-0.074-0.55,0.018
		c-0.157,0.092-0.302,0.28-0.431,0.563C362.156,44.432,362.023,44.839,361.886,45.37z"/>
	<path d="M378.965,55.487c0.446,0.431,0.895,0.854,1.347,1.269c0.45,0.415,0.899,0.838,1.346,1.269
		c0.605,0.584,1.06,1.156,1.362,1.715c0.302,0.559,0.479,1.093,0.529,1.604s-0.012,0.995-0.186,1.452
		c-0.176,0.458-0.447,0.877-0.816,1.26c-0.718,0.744-1.578,1.125-2.58,1.143c-0.919,0.016-1.879-0.254-2.881-0.811
		c0.015,0.26,0.02,0.511,0.014,0.751c-0.006,0.303-0.034,0.619-0.085,0.949c-0.053,0.33-0.127,0.694-0.224,1.093
		c-0.098,0.398-0.225,0.881-0.382,1.448c-0.274,1.028-0.396,1.887-0.362,2.576c0.033,0.688,0.306,1.3,0.816,1.834
		c-0.123,0.127-0.239,0.242-0.347,0.343c-0.108,0.101-0.234,0.195-0.379,0.281c-0.403-0.39-0.828-0.79-1.274-1.199
		c-0.445-0.41-0.886-0.783-1.32-1.12c0.087-0.43,0.218-0.98,0.395-1.652c0.176-0.671,0.383-1.385,0.62-2.142
		c0.227-0.725,0.391-1.489,0.491-2.295c0.093-0.649,0.139-1.313,0.138-1.992c-0.457-0.399-0.845-0.773-1.164-1.123l-2.738,2.837
		c-0.513,0.532-0.784,0.962-0.814,1.292c-0.031,0.329,0.145,0.699,0.528,1.11c-0.061,0.126-0.145,0.256-0.252,0.388
		s-0.217,0.257-0.33,0.374c-0.319-0.35-0.657-0.701-1.013-1.055c-0.356-0.354-0.636-0.628-0.837-0.823l-0.463-0.446
		c-0.17-0.165-0.345-0.329-0.525-0.492c-0.181-0.164-0.355-0.323-0.525-0.476c-0.17-0.154-0.318-0.282-0.445-0.384
		c0.112-0.117,0.23-0.229,0.354-0.335c0.123-0.106,0.252-0.198,0.387-0.273c0.445,0.389,0.835,0.564,1.168,0.527
		c0.334-0.037,0.757-0.321,1.27-0.853l6.492-6.726c0.513-0.531,0.786-0.969,0.822-1.315c0.036-0.345-0.159-0.723-0.584-1.133
		c0.07-0.137,0.152-0.264,0.244-0.38c0.092-0.117,0.199-0.239,0.322-0.366c0.149,0.165,0.407,0.429,0.774,0.793
		C378.224,54.767,378.593,55.128,378.965,55.487z M379.703,57.307c-0.19-0.143-0.396-0.28-0.618-0.412l-4.308,4.462
		c0.086,0.124,0.177,0.232,0.272,0.324c0.117,0.134,0.244,0.267,0.383,0.4c0.436,0.42,0.886,0.768,1.35,1.042
		c0.465,0.274,0.933,0.448,1.403,0.523c0.472,0.075,0.931,0.041,1.377-0.103s0.87-0.423,1.27-0.837
		c0.646-0.669,0.973-1.406,0.979-2.21c0.007-0.804-0.468-1.667-1.425-2.591C380.142,57.67,379.915,57.471,379.703,57.307z"/>
	<path d="M397.848,75.46c-0.182,0.174-0.375,0.375-0.58,0.6c-0.206,0.225-0.418,0.455-0.635,0.689
		c-0.217,0.235-0.426,0.468-0.626,0.698c-0.201,0.231-0.372,0.446-0.513,0.644c-0.156-0.022-0.303-0.086-0.441-0.19
		c-0.139-0.105-0.275-0.236-0.41-0.393c0.238-0.244,0.451-0.518,0.637-0.823s0.29-0.648,0.314-1.029
		c0.023-0.38-0.052-0.797-0.227-1.25c-0.175-0.454-0.492-0.949-0.954-1.487l-1.038-1.21l-4.606,3.951l0.605,0.706
		c0.298,0.347,0.567,0.622,0.809,0.824c0.241,0.202,0.475,0.332,0.7,0.392c0.226,0.059,0.457,0.045,0.694-0.041
		s0.49-0.246,0.759-0.476c0.17,0.107,0.314,0.212,0.432,0.316c0.118,0.103,0.244,0.233,0.379,0.39
		c-0.312,0.228-0.629,0.48-0.954,0.759l-1.883,1.615c-0.358,0.308-0.674,0.598-0.946,0.87c-0.135-0.157-0.247-0.299-0.336-0.426
		c-0.09-0.127-0.171-0.267-0.243-0.419c0.272-0.272,0.472-0.527,0.601-0.763c0.128-0.236,0.188-0.478,0.181-0.725
		c-0.007-0.247-0.087-0.504-0.239-0.772c-0.152-0.269-0.377-0.577-0.675-0.924l-0.606-0.706l-3.043,2.61
		c-0.313,0.269-0.555,0.51-0.723,0.722s-0.263,0.425-0.284,0.638c-0.022,0.213,0.029,0.437,0.152,0.672
		c0.123,0.234,0.319,0.509,0.589,0.822l0.087,0.101c0.442,0.516,0.847,0.897,1.216,1.146c0.368,0.248,0.731,0.399,1.089,0.453
		c0.356,0.054,0.723,0.032,1.097-0.065c0.373-0.097,0.787-0.233,1.24-0.408c0.088,0.216,0.152,0.404,0.192,0.564
		s0.054,0.334,0.039,0.521c-0.498,0.213-1.005,0.468-1.52,0.763c-0.515,0.296-0.992,0.584-1.433,0.864
		c-0.145-0.168-0.317-0.375-0.518-0.621c-0.201-0.246-0.424-0.517-0.669-0.813c-0.244-0.297-0.501-0.602-0.771-0.915l-1.744-2.035
		c-0.356-0.415-0.712-0.824-1.068-1.229c-0.357-0.404-0.694-0.786-1.013-1.146c-0.317-0.359-0.573-0.641-0.768-0.844
		c0.325-0.279,0.59-0.458,0.795-0.536c0.203,0.215,0.396,0.376,0.576,0.484c0.18,0.108,0.37,0.154,0.57,0.138
		s0.421-0.094,0.662-0.232c0.24-0.139,0.523-0.347,0.849-0.626l6.91-5.927c0.561-0.48,0.868-0.886,0.926-1.217
		c0.057-0.331-0.097-0.73-0.458-1.198c0.061-0.11,0.15-0.227,0.27-0.349c0.119-0.122,0.246-0.24,0.381-0.355
		c0.133,0.178,0.308,0.398,0.522,0.661c0.216,0.263,0.438,0.533,0.669,0.813c0.229,0.279,0.45,0.542,0.662,0.789l0.519,0.605
		c0.99,1.154,1.809,2.097,2.454,2.827C397.147,74.689,397.596,75.189,397.848,75.46z"/>
	<path d="M406.1,86.037c0.482,0.671,0.815,1.305,0.998,1.901c0.183,0.596,0.263,1.093,0.24,1.491
		c-0.348,0.25-0.745,0.545-1.192,0.884s-0.814,0.649-1.104,0.93c-0.154-0.089-0.311-0.217-0.468-0.386
		c-0.158-0.168-0.297-0.337-0.418-0.504c0.446-0.467,0.792-0.878,1.035-1.235c0.244-0.357,0.4-0.683,0.47-0.979
		s0.069-0.568-0.001-0.817s-0.188-0.489-0.351-0.716c-0.388-0.54-0.851-0.853-1.386-0.941c-0.536-0.087-1.092,0.075-1.667,0.489
		c-0.528,0.379-0.86,0.827-0.998,1.344s-0.189,1.078-0.156,1.681c0.034,0.604,0.106,1.229,0.217,1.876
		c0.111,0.647,0.162,1.289,0.154,1.922c-0.009,0.633-0.13,1.243-0.363,1.829s-0.68,1.116-1.339,1.59
		c-0.456,0.328-0.957,0.547-1.505,0.658c-0.547,0.111-1.093,0.118-1.638,0.018c-0.544-0.1-1.065-0.307-1.564-0.621
		c-0.499-0.314-0.938-0.735-1.316-1.263c-0.303-0.42-0.546-0.804-0.732-1.151c-0.187-0.348-0.332-0.689-0.436-1.023
		c-0.104-0.334-0.182-0.688-0.231-1.062s-0.088-0.805-0.113-1.296c0.508-0.256,0.995-0.538,1.464-0.848s0.871-0.585,1.207-0.827
		c0.13,0.106,0.27,0.243,0.417,0.41s0.276,0.328,0.389,0.484c-0.438,0.352-0.803,0.704-1.094,1.059s-0.494,0.724-0.609,1.106
		c-0.116,0.383-0.124,0.79-0.024,1.218c0.099,0.429,0.329,0.895,0.691,1.399c0.241,0.335,0.503,0.593,0.786,0.771
		c0.282,0.179,0.568,0.292,0.857,0.339c0.288,0.047,0.575,0.036,0.862-0.034c0.286-0.069,0.556-0.194,0.808-0.375
		c0.539-0.388,0.878-0.84,1.016-1.357c0.137-0.517,0.18-1.071,0.129-1.661c-0.052-0.59-0.142-1.208-0.269-1.854
		c-0.127-0.645-0.187-1.284-0.178-1.917c0.008-0.633,0.141-1.252,0.398-1.855c0.257-0.604,0.752-1.168,1.483-1.694
		c0.468-0.336,0.954-0.563,1.461-0.682c0.506-0.118,1.003-0.134,1.491-0.049c0.488,0.085,0.952,0.275,1.392,0.569
		C405.351,85.153,405.747,85.545,406.1,86.037z"/>
</g>
<g>
	<path fill-rule="evenodd" clip-rule="evenodd" d="M218.896,340.546c-1.831-1.017-2.642-3.117-4.89-3.812
		c-0.552,0.105-1.319,0.253-2.112,0.4c-1.036,1.516-0.413,2.602,0.131,3.486c1.553,0.573,3.165,1.022,4.649,1.766
		c1.361,0.679,3.344,1.09,4.557-0.038c-0.223-0.503-0.465-1.051-0.708-1.6C219.875,340.667,219.336,340.6,218.896,340.546
		C217.065,339.529,219.336,340.6,218.896,340.546z"/>
	<path fill-rule="evenodd" clip-rule="evenodd" d="M253.097,339.538c-1.452-0.872-7.09-6.059-8.393-3.106
		c0.453,1.264,0.896,2.494,1.311,3.652c2.891,1.171,6.581,3.532,9.819,2.756C254.798,341.532,254.32,340.274,253.097,339.538
		C252.018,338.891,254.32,340.274,253.097,339.538z"/>
	<path fill-rule="evenodd" clip-rule="evenodd" d="M257.771,331.871c-0.886-0.683-1.567-0.726-2.639-0.741
		c-0.881,2.008,1.249,3.486,0.487,5.405c3.034,1.026,5.945,1.449,9.171,1.228c-0.762-1.143-1.812-1.853-2.896-2.698
		C260.525,333.993,259.15,332.929,257.771,331.871C257.395,331.582,259.917,333.516,257.771,331.871z"/>
	<path fill-rule="evenodd" clip-rule="evenodd" d="M230.96,348.488c-1.201-1.361-2.879-2.152-4.661-2.35
		c-0.472,0.271-1.008,0.581-1.558,0.896c0.113,0.859,0.214,1.632,0.34,2.584c2.177,0.993,4.255,1.941,6.5,2.966
		c0.428-0.064,1.039-0.156,1.63-0.244c0.616,0.297,1.177,0.566,1.815,0.873c0.3-0.197,0.592-0.388,1.149-0.753
		C233.805,351.651,232.381,350.102,230.96,348.488C229.961,347.354,232.381,350.102,230.96,348.488z"/>
	<path fill-rule="evenodd" clip-rule="evenodd" d="M266.013,325.297c-0.639-0.945-1.362-1.884-2.633-1.358
		c-0.216,1.227,0.648,2.277,0.97,3.546c-0.103,0.591-0.222,1.284-0.343,1.983c0.865,1.547,2.346,2.45,3.729,3.545
		c0.857,0.137,1.687,0.529,2.66-0.09C269.008,330.318,267.661,327.747,266.013,325.297
		C265.791,324.967,266.542,326.083,266.013,325.297z"/>
	<path fill-rule="evenodd" clip-rule="evenodd" d="M244.688,351.142c-1.562-0.771-2.229-2.688-4.027-3.176
		c-0.696,0.776-1.319,1.47-1.944,2.164c0.203,0.54,0.366,0.982,0.462,1.229c1.314,0.884,2.592,1.833,3.95,2.649
		c0.757,0.457,1.553,0.82,2.386,1.115c1.137,0.403,1.449,0.257,2.553-0.067C246.595,353.784,246.266,351.92,244.688,351.142
		C243.125,350.37,246.266,351.92,244.688,351.142z"/>
	<path fill-rule="evenodd" clip-rule="evenodd" d="M235.13,340.649c-1.191-1.134-2.536-1.874-4.004-2.199
		c-1.429,0.511-1.839,1.582-2.124,2.779c3.34,1.732,6.316,3.662,10.241,2.961C237.734,342.902,236.375,341.836,235.13,340.649
		C233.939,339.516,236.375,341.836,235.13,340.649z"/>
	<path fill-rule="evenodd" clip-rule="evenodd" d="M137.792,142.896c0.742,3.507,1.878,6.885,3.401,10.237
		c0.354,0.051,0.723,0.104,1.314,0.188c0.421-2.021,0.822-3.95,1.284-6.176c-1.126-1.599-2.212-3.144-3.545-5.042
		c0.004-2.254-0.869-4.674-2.403-6.536c-1.225-0.967-2.208-1.746-3.312-2.618c-0.481,0.423-0.917,0.803-1.432,1.255
		c0.848,1.494,1.654,3.012,2.527,4.492C136.418,140.042,137.462,141.336,137.792,142.896
		C138.534,146.403,137.572,141.854,137.792,142.896z"/>
	<path fill-rule="evenodd" clip-rule="evenodd" d="M120.476,121.985c0.564,1.958,1.748,3.332,2.729,4.681
		c0.848,0.018,1.5,0.03,2.275,0.046c0.631-1.664,0.831-3.52,0.82-4.884c-0.792-1.709-1.354-2.924-2.049-4.428
		c-1.927-0.747-3.868-2.246-6.727-2.26c-0.376,0.386-0.78,0.803-1.233,1.27C118.377,117.912,119.842,119.794,120.476,121.985
		C121.04,123.943,119.842,119.794,120.476,121.985z"/>
	<path fill-rule="evenodd" clip-rule="evenodd" d="M109.369,123.417c1.445-1.742,1.768-3.548,1.305-7.05
		c-2.316-0.68-4.755-1.186-6.381-3.068c-1.734-0.25-1.734-0.25-2.646,0.71C104.034,117.224,106.304,120.793,109.369,123.417z"/>
	<path fill-rule="evenodd" clip-rule="evenodd" d="M115.146,110.942c0.476-1.239,1.365-2.335,2.075-3.446
		c-0.843-0.414-1.532-0.751-2.143-1.052c-0.319-0.558-0.586-1.026-0.769-1.349c-1.159-0.379-2.116-0.691-3.121-1.021
		c-0.265,0.38-0.48,0.69-0.704,1.013c0.548,1.436,1.251,2.896,1.657,4.378c0.36,1.317,0.184,2.781,1.325,3.761L115.146,110.942z"/>
	<path fill-rule="evenodd" clip-rule="evenodd" d="M109.637,131.585c-1.335-1.042-2.67-2.084-4.006-3.127
		c-0.56-0.437-1.136-0.859-1.668-1.329c-0.743-0.656-1.132-0.499-2.031-0.36c2.153,3.873,4.581,7.211,7.787,10.162
		C110.501,135.005,110.339,133.34,109.637,131.585z"/>
	<path fill-rule="evenodd" clip-rule="evenodd" d="M112.321,144.126c1.178,3.92,1.527,4.615,3.079,6.181
		c0.077,0.955,0.152,1.91,1.243,2.398c1.269-2.133,0.96-4.479,1.123-6.857c-1.223-1.757-2.981-2.148-4.907-2.336L112.321,144.126z"
		/>
	<path fill-rule="evenodd" clip-rule="evenodd" d="M140.517,122.873c-1.505-0.464-2.776-0.856-4.369-1.347
		c-0.292,3.478,1.158,6.028,2.922,8.765C140.614,127.803,140.316,125.28,140.517,122.873z"/>
	<path fill-rule="evenodd" clip-rule="evenodd" d="M129.905,114.669c-0.23-1.551-4.349-5.52-5.934-3.141
		c2.211,2.418,4.343,4.748,6.622,7.24C130.737,117.115,130.077,115.827,129.905,114.669z"/>
	<path fill-rule="evenodd" clip-rule="evenodd" d="M125.218,134.203c0.684,1.343,1.373,2.67,2.119,3.979
		c0.608,1.068,0.918,2.582,2.352,2.746c0.062-1.612,0.12-3.082,0.173-4.452C128.125,134.654,126.851,133.999,125.218,134.203z"/>
	<path fill-rule="evenodd" clip-rule="evenodd" d="M118.167,132.815c0.305,1.773,1.308,3.224,2.33,4.657
		c0.985,1.382,1.668,3.031,3.244,3.862c0.026-0.933,0.044-1.622,0.068-2.478c-0.903-1.37-1.729-2.607-2.766-3.869
		C120.227,133.994,119.593,132.905,118.167,132.815z"/>
	<path fill-rule="evenodd" clip-rule="evenodd" d="M150.097,140.769c-0.233-1.108-1.471-1.675-2.209-2.517
		c-0.487,0.155-0.849,0.269-1.328,0.422c0.939,2.319,1.823,4.505,2.865,7.075C150.403,143.906,150.433,142.365,150.097,140.769z"/>
	<path fill-rule="evenodd" clip-rule="evenodd" d="M155.609,305.066c-0.246,1.691-0.486,3.383-0.712,5.077
		c-0.125,0.94-0.246,1.881-0.361,2.823c-0.103,0.838,0.143,1.177,0.435,1.939c0.711-0.919,1.235-1.6,1.651-2.138
		c0.159-3.114,1.061-6.054-0.412-9.325C155.908,304.24,155.671,304.642,155.609,305.066
		C155.199,307.884,155.671,304.642,155.609,305.066z"/>
	<path fill-rule="evenodd" clip-rule="evenodd" d="M126.952,304.223c0,0-1.795,5.609-1.492,8.773
		c0.16,1.677,0.171,3.354,0.442,5.021c0.166,1.019,0.104,3.068,1.395,3.38c1.412-1.685,1.156-4.492,1.416-6.562
		c0.299-2.376,0.27-4.721,0.27-7.11C128.37,306.928,128.234,305.317,126.952,304.223z"/>
	<path fill-rule="evenodd" clip-rule="evenodd" d="M121.941,306.764c-1.22,3.183-1.405,6.312-0.685,9.631
		c0.364,1.677,0.927,3.294,1.364,4.952c0.397,1.507,0.102,3.563,1.04,4.727c-0.323-1.465-0.233-2.96-0.042-4.435
		c0.214-1.652,0.18-3.223,0.18-4.881c-0.038,0.003,0.334-2.967,0.536-4.302C123.232,308.173,121.85,307.001,121.941,306.764z"/>
	<path fill-rule="evenodd" clip-rule="evenodd" d="M10.76,162.697c7.453,0.24,14.862,0.832,22.309,1.211
		c7.681,0.392,15.403-0.117,23.094-0.141c7.686-0.025,15.332,0.135,23.017-0.098c3.698-0.111,7.415-0.191,11.112-0.036
		c1.87,0.078,3.724,0.328,5.598,0.224c1.844-0.103,15.886-0.592,17.735-0.556c2.23,0.043,4.45,0.297,6.678,0.396
		c2.03,0.089,4.079,0.167,6.111,0.191c2.21,0.027,4.413-0.284,6.627-0.295c4.471-0.021,8.967-0.151,13.436-0.042
		c2.296,0.056,4.541,0.271,6.843,0.21c2.096-0.056,24.818,1.074,33.446,0.931c3.377,0.315,6.71-0.219,10.083,0.049
		c3.84,0.305,7.679-0.165,11.517-0.257c1.77-0.042,3.473-0.227,5.234-0.356c1.824-0.133,3.689,0.252,5.531,0.206
		c1.788-0.045,3.838,0.214,5.592-0.053c1.661-0.252,6.218-0.388,6.349-0.338c4.041-0.166,8.035-0.177,12.081-0.531
		c1.082-0.095,2.176-0.155,3.263-0.067c0.925,0.075,1.815-0.174,2.74-0.282c2.496-0.288,5.012-0.307,7.521-0.31
		c4.918-0.006,9.824,0.104,14.742,0.207c2.283,0.047,4.501-0.419,6.785-0.422c2.533-0.003,5.065,0.038,7.6,0.018
		c4.747-0.037,9.508,0.107,14.254-0.047c2.336-0.077,4.662-0.353,7.002-0.211c2.507,0.152,4.924,0.372,7.439,0.267
		c4.936-0.208,9.886,0.217,14.815-0.188c0.857-0.072,1.929,0.258,2.79,0.357c1.063,0.122,2.119,0.187,3.188,0.177
		c2.447-0.024,4.892-0.147,7.336-0.237c2.493-0.093,4.974,0.024,7.463,0.028c2.481,0.003,4.952-0.273,7.432-0.345
		c4.886-0.142,9.83-0.478,14.716-0.282c4.947,0.198,9.848,0.013,14.795,0.099c2.536,0.043,5.015-0.11,7.542-0.264
		c2.3-0.139,17.895,0.226,23.259,0.3c2.887,0.04,5.727,0.015,8.607-0.175c2.872-0.189,5.843-0.608,8.718-0.371
		c2.913,0.241,5.814-0.055,8.729-0.193c2.934-0.14,5.873-0.162,8.812-0.236c6.068-0.154,12.081-0.765,18.125-1.288
		c0.026-0.096,0.047-0.19,0.07-0.286c-3.894-0.794-8.1-0.442-12.071-0.546c-4.232-0.111-8.467-0.196-12.702-0.229
		c-8.546-0.066-17.065-0.443-25.605-0.747c-8.421-0.3-16.814,0.41-25.235,0.177c-4.246-0.118-8.502-0.224-12.745,0.045
		c-4.215,0.267-8.348,0.354-12.565,0.097c0.094-4.705,1.177-9.023,2.452-13.522c1.264-4.462,3.858-8.42,4.874-13.003
		c0.479-2.155,1.106-4.325,1.433-6.507c0.354-2.384,0.33-4.802,0.225-7.203c-0.093-2.159-0.216-4.239-0.776-6.334
		c-0.577-2.162-1.669-4.46-1.929-6.659c-0.222-1.866-1.188-3.499-2.09-5.107c-0.945-1.688-1.585-3.506-2.881-4.979
		c-1.234-1.407-2.793-2.285-4.384-3.223c-2.002-1.18-3.981-2.127-6.318-2.388c-2.257-0.251-4.451,0.149-6.658,0.584
		c-2.385,0.468-4.784,0.903-7.161,1.402c-4.212,0.883-8.317,3.404-11.811,5.832c-2.314,1.607-4.188,3.668-6.045,5.772
		c-1.759,1.994-3.499,4.061-4.69,6.457c-0.535,1.078-0.912,2.221-1.465,3.292c-0.64,1.238-1.401,2.395-1.955,3.678
		c-1.048,2.43-1.556,4.996-2.204,7.547c-0.304,1.192-0.67,2.374-1.22,3.477c-0.569,1.145-0.569,2.467-0.853,3.691
		c-0.653,2.822-1.314,5.641-1.973,8.462c-0.66,2.82-1.313,5.642-1.956,8.466c-0.632,2.786-0.797,5.618-1.328,8.424
		c-8.154,0.364-16.269,1.269-24.432,1.51c0.765-4.603,1.958-9.441,1.883-14.126c-0.035-2.139-0.327-4.026,0.344-6.121
		c0.721-2.254,1.13-4.595,1.325-6.95c0.389-4.685,1.432-9.319,1.435-14.038c0.002-2.235-0.699-4.251-0.891-6.431
		c-0.087-0.998-0.075-2.01-0.119-3.01c-0.057-1.298-0.504-2.593-0.81-3.849c-1.065-4.348-1.839-9.257-4.075-13.188
		c-2.323-4.09-5.16-8.081-8.075-11.77c-2.842-3.596-6.249-6.705-9.118-10.267c-1.311-1.627-2.55-3.315-3.973-4.848
		c-1.548-1.671-3.362-3.065-4.868-4.781c-2.712-3.086-5.753-5.774-8.222-9.052c-2.668-3.542-5.171-7.004-7.291-10.903
		c-1.757-1.073-3.99,0.087-5.562,1.057c-2.018,1.243-2.854,3.388-4.628,4.843c-1.958,1.607-3.949,3.184-5.976,4.703
		c-1.765,1.322-16.086,9.758-20.732,14.145c-2.299,2.17-3.372,4.829-4.875,7.524c-1.677,3.009-3.769,5.744-5.311,8.836
		c-2.942,5.902-5.721,11.771-7.862,18.012c-1.077,3.138-2.406,6.178-3.513,9.303c-1.154,3.256-2.192,6.533-3.328,9.8
		c-1.183,2.574-1.904,5.21-2.697,7.92c-0.892,3.05-1.972,5.987-2.492,9.138c-0.204,1.231-0.026,2.917-0.505,4.056
		c-0.553,1.319-0.499,2.75-0.37,4.145c0.272,2.96,0.387,5.927,0.553,8.895c1.079,2.378,1.09,4.93,1.175,7.482
		c-4.692,0.112-9.382,0.047-14.075,0.093c-0.456-5.123-1.779-9.978-3.53-14.814c-1.722-4.754-3.443-9.519-5.204-14.267
		c-0.589-0.727-5.151-10.897-6.134-13.012c-1.471-1.77-2.92-3.558-4.426-5.298c-0.568-0.656-1.377-1.07-1.88-1.788
		c-0.666-0.952-1.535-1.731-2.458-2.426c-1.534-1.154-3.109-2.211-4.861-3.005c-1.837-0.832-3.763-1.519-5.424-2.687
		c-3.558-2.503-8.579-3.365-12.711-4.587c-1.938-0.573-4.414,0.44-6.384,0.655c-1.066,0.116-2.094,0.433-3.126,0.706
		c-1.1,0.291-2.23,0.283-3.176,0.947c-3.583,2.517-6.429,5.277-8.525,9.169c-0.97,1.802-1.734,3.714-2.256,5.693
		c-0.272,1.031-0.408,2.091-0.664,3.126c-0.303,1.23-0.908,2.347-1.189,3.586c-0.477,2.1-0.375,4.268-0.25,6.401
		c0.141,2.408,0.302,4.787,0.783,7.158c0.891,4.39,2.569,8.643,4.655,12.597c0.7,1.327,1.463,2.418,2.408,3.571
		c1.268,2.581,2.679,5.01,4.18,7.461c-8.917,0.076-17.876,0.681-26.78,1.148c-8.837,0.464-35.15,0.325-39.469,0.689
		c-4.385,0.37-8.689,0.803-13.099,0.768c-4.287-0.034-8.588-0.326-12.881-0.326c-2.263,0.001-4.513,0.272-6.756,0.542
		c-1.194,0.144-4.479-0.168-5.02,1.221C3.585,162.404,7.149,162.583,10.76,162.697C13.072,162.771,8.367,162.621,10.76,162.697z
		 M363.197,157.989c-2.093-0.152-4.185-0.31-6.283-0.385c-0.009-2.076,0.729-3.875,1.415-5.801c0.788-0.715,1.603-1.454,2.732-2.477
		c0.887,1.357,1.567,2.325,1.929,3.942C363.334,154.816,363.468,156.42,363.197,157.989z M315.75,150.726
		c0.243-2.125,3.518-13.701,4.721-17.219c0.598-1.752,1.654-6.741,1.998-7.355c0.465-0.831,0.801-1.725,1.134-2.614
		c0.592-1.583,1.275-3.046,1.749-4.667c0.54-1.833,1.035-3.683,1.735-5.462c1.343-3.409,3.552-6.552,5.875-9.36
		c2.292-2.766,4.916-5.45,7.828-7.567c3.205-2.333,6.742-2.6,10.45-3.586c1.922-0.512,3.677-1.122,5.665-1.387
		c1.801-0.24,3.216-0.164,4.987,0.291c3.395,0.873,6.477,2.622,8.713,5.358c0.113,0.711,0.329,1.411,0.703,2.03
		c0.38,0.628,1.001,1.042,1.284,1.728c0.686,1.654,1.742,3.048,2.288,4.794c1.01,3.247,1.526,6.771,2.21,10.102
		c0.753,3.677-0.312,6.968-1.448,10.39c-0.508,1.535-0.75,3.017-1.544,4.456c-0.812,1.473-1.812,2.854-2.391,4.446
		c-0.601-0.907-0.081-2.409,0.026-3.433c0.144-1.387,0.607-2.614,0.882-3.96c0.593-2.911,0.137-5.945,0.759-8.87
		c-0.803,1.381-1.6,2.767-2.297,4.203c-0.753,1.545-1.13,3.27-1.903,4.787c-0.803,1.571-1.716,2.905-2.218,4.631
		c-0.418,1.424-0.651,2.644-1.971,3.522c-0.084-5.885-0.364-11.671-0.852-17.538c-1.381,0.847-1.988,2.441-2.184,4.06
		c-0.236,1.953-0.189,4.038-0.339,6.017c-0.271,3.661-1.777,7.042-3.23,10.36c-1.004-0.266-1.145-1.816-1.428-2.637
		c-0.51-1.478-1.016-2.957-1.525-4.435c-0.509-1.478-1.02-2.955-1.539-4.429c-0.419-1.188-0.689-2.691-1.921-3.316
		c-0.741,4.123,0.838,8.25,0.342,12.422c-1.766-1.379-2.828-3.27-5.151-3.899c0.289,1.837,1.243,3.562,1.89,5.292
		c0.378,1.015,0.744,2.034,1.095,3.06c0.353,1.032,0.308,1.472,0.166,2.52c-3.903-4.017-7.803-8.917-13.531-10.308
		c1.562,2.688,4.222,4.541,6.063,7.048c0.861,1.171,1.575,2.497,2.511,3.607c0.978,1.163,2.301,1.42,1.778,3.249
		c-2.73-1.337-5.712-3.492-8.769-3.561c1.188,1.096,2.456,2.121,3.555,3.311c1.007,1.09,2.437,1.648,3.196,2.984
		c-4.364-0.221-8.642-3.356-13.012-2.814c0.09,1.751,2.633,2.432,3.908,3.105c1.801,0.952,3.699,1.695,5.037,3.237
		c-1.777,0.162-3.386,0.232-5.049,0.886c1.09,0.853,1.938,1.519,2.968,2.328c-0.222,0.131-0.426,0.25-0.621,0.364
		c-1.165-0.022-2.326-0.001-3.491,0.065c-1.273-0.026-2.659-0.307-3.92-0.102c-5.294-0.413-10.636-0.409-15.941-0.346
		C315.264,154.584,315.523,152.657,315.75,150.726C315.993,148.601,315.523,152.657,315.75,150.726z M274.095,151.828
		c1.299-5.338,1.544-10.846,1.945-16.304c0.425-5.769,1.018-11.525,1.435-17.295c0.195-2.701,0.383-5.402,0.512-8.106
		c0.136-2.803,0.516-5.768,0.279-8.566c-0.233-2.741-0.566-5.484-1.211-8.161c-0.522-2.162-2.066-4.639-1.567-6.847
		c2.339,1.196,4.185,3.135,5.331,5.546c0.672,1.417,1.099,2.906,1.846,4.301c0.738,1.381,1.418,2.771,1.92,4.259
		c1.045,3.103,1.218,6.403,1.673,9.625c0.484,3.413,0.396,6.777,0.584,10.208c0.08,1.491,0.113,2.992-0.079,4.477
		c-0.21,1.603-0.867,3.072-0.738,4.713c0.122,1.583,0.616,2.925,0.28,4.536c-0.318,1.537-1.027,2.939-1.269,4.502
		c-0.491,3.204,0.162,6.407-0.567,9.611c-0.752,3.292-1.278,6.571-1.745,9.915c-3.485,0.083-6.966,0.096-10.452,0.03
		C272.92,156.134,273.567,153.995,274.095,151.828C275.668,145.364,273.567,153.995,274.095,151.828z M236.515,151.875
		c0.356-4.431,0.667-8.865,1.042-13.295c0.366-4.331,1.09-8.623,1.514-12.952c0.412-4.194,0.899-8.371,1.098-12.581
		c0.094-1.969,0.091-3.939,0.537-5.869c0.489-2.112,1.414-4.084,1.868-6.21c0.919-4.31-0.018-8.62,0.379-12.943
		c0.412-4.462-0.134-8.94,0.088-13.407c0.225-4.531,0.702-9.052,1.074-13.573c0.146-1.783,0.89-3.413,1.128-5.213
		c0.244-1.842,0.21-3.761,1.071-5.432c0.982,0.791,1.568,1.891,2.288,2.899c0.818,1.148,1.86,2.121,2.812,3.155
		c1.663,5.053,3.432,9.952,3.542,15.334c0.101,4.89-0.46,9.852-0.784,14.73c0.274,1.855,0.712,3.741,0.706,5.624
		c-0.003,1.951-0.604,3.873-0.706,5.83c-0.219,4.146-1.16,8.311-1.15,12.478c0.006,2.08,0.298,4.167,0.117,6.245
		c-0.195,2.264-0.715,4.492-0.98,6.749c-0.239,2.018-0.476,4.036-0.637,6.062c-0.078,1.003-0.225,2.01-0.647,2.933
		c-0.312,0.68-0.07,1.352-0.079,2.05c-0.401,1.738-0.812,3.407-0.989,5.188c-0.111,1.1-0.172,2.204-0.266,3.306
		c-0.085,1.016-0.599,1.764-0.788,2.713c-0.833,4.181-1.88,8.141-2.025,12.422c0,0.002,0,0.004,0,0.006
		c-3.596,0.089-7.19,0.205-10.785,0.298C236.149,156.241,236.338,154.058,236.515,151.875
		C236.918,146.865,236.338,154.058,236.515,151.875z M205.455,142.21c0.149-1.661-0.046-3.326,0.031-4.989
		c0.089-1.887,0.238-3.77,0.354-5.655c0.231-3.76,0.051-7.473,0.594-11.21c0.541-3.721,0.452-7.556,0.607-11.309
		c0.159-3.861,0.331-7.717,0.87-11.546c0.528-3.742,1.031-7.484,1.499-11.234c0.455-3.647,0.832-7.246,1.931-10.772
		c1.013-3.249,2.218-6.543,4.679-8.977c2.409-2.382,5.197-4.125,7.973-6.026c0.266,2.862-1.301,6.168-2.241,8.859
		c-0.534,1.526-1.069,3.057-1.734,4.532c-0.577,1.279-3.2,11.51-3.802,14.441c-0.316,1.537-1.071,3.51-0.9,5.079
		c0.176,1.611-0.011,3.229-0.258,4.822c-0.504,3.255-0.496,6.495-0.899,9.753c-0.412,3.337-1.116,6.637-1.213,10.007
		c-0.099,3.477,0.409,6.912,0.504,10.379c0.096,3.479-0.146,6.951-0.128,10.429c0.015,3.362,0.853,6.608,0.949,9.943
		c0.046,1.623-0.407,3.165-0.205,4.792c0.201,1.625,0.423,3.165,0.416,4.811c-2.765,0.038-5.533-0.035-8.301-0.111
		C205.39,152.926,204.973,147.6,205.455,142.21C205.603,140.555,204.973,147.6,205.455,142.21z M182.02,138.847
		c0.698-3.432,1.796-6.776,2.89-10.098c0.611-1.857,1.254-3.704,1.904-5.547c0.593-1.682,1.007-3.67,2.05-5.12
		c0.375,0.352,0.701,0.66,1.126,1.06c-0.142,1.765-0.228,3.514-0.256,5.284c-0.033,2.062,0.31,4.081,0.374,6.137
		c0.117,3.753-0.043,7.526-0.105,11.28c-0.685,2.439-0.481,5.074-0.417,7.575c0.078,3.042,0.788,5.79,1.507,8.729
		c-2.615,0.141-5.229,0.253-7.845,0.349C182.374,151.949,180.674,145.459,182.02,138.847
		C182.639,135.806,181.137,143.184,182.02,138.847z M103.621,143.908c-0.334-1.801-1.6-3.148-2.663-4.562
		c-1.226-1.63-2.065-3.259-2.501-5.248c-0.444-2.026-1.372-3.896-1.756-5.943c-0.387-2.066-0.503-4.23-0.351-6.326
		c0.155-2.136,0.636-4.234,1.284-6.271c0.622-1.957,0.729-3.833,1.73-5.685c1.999-3.695,4.689-5.756,8.661-7.072
		c3.966-1.314,8.376-1.007,12.233,0.588c4.013,1.66,8.142,2.724,11.97,4.831c3.663,2.016,7.351,3.727,10.325,6.752
		c3.062,3.119,4.958,7.302,7.139,11.044c-0.269,0.58-0.431,0.932-0.561,1.21c0.921,4.421,3.917,7.469,6.813,10.85
		c1.033,3.452,2.081,6.899,3.106,10.354c1.008,3.392,2.115,6.784,2.409,10.331c-6.57,0.059-13.128-0.286-19.7-0.102
		c-0.515-1.746-1.347-3.297-2.993-4.451c-0.105,0.76,0.126,2.541,0.514,4.494c-3.266,0.047-6.533-0.005-9.798-0.054
		c-1.085-1.951-2.124-3.714-3.622-5.104c-0.701,0.356-0.621,0.887-0.349,1.502c0.504,1.14,0.847,2.342,1.108,3.559
		c-5.251-0.085-10.512-0.074-15.76-0.284c-0.204-0.103-0.457-0.229-0.737-0.369c-1.118-2.955-2.239-5.919-3.541-9.36
		c-0.013-0.01-0.431-0.368-0.671-0.575c-0.386-0.7-0.77-1.401-1.157-2.1C104.416,145.309,103.749,144.592,103.621,143.908
		C103.219,141.746,103.703,144.35,103.621,143.908z"/>
	<path fill-rule="evenodd" clip-rule="evenodd" d="M470.996,292.422c-15.957-0.146-31.896-0.191-47.852,0.172
		c-3.891,0.088-7.778,0.173-11.669,0.211c-4.014,0.038-7.945-0.331-11.94-0.664c-4.098-0.343-8.167-0.484-12.279-0.487
		c-3.575-0.001-26.784,0.229-34.528-0.095c-9.534,0.395-19.07,0.484-28.604,0.805c-2.304,0.076-4.572,0.342-6.884,0.271
		c-2.51-0.077-5.019-0.115-7.53-0.136c-4.906-0.037-9.81-0.082-14.714-0.151c-9.706-0.144-19.478-0.505-29.175,0.026
		c-4.812,0.266-9.546,1.059-14.339,1.485c-4.795,0.427-9.657,0.449-14.47,0.54c-4.692,0.088-9.367-0.194-14.051-0.123
		c-4.794,0.073-9.59,0.195-14.385,0.144c-4.896-0.053-9.78,0.38-14.675,0.399c-4.853,0.021-9.703-0.291-14.549-0.511
		c-9.758-0.44-19.546,0.108-29.31,0.237c-4.779,0.062-9.505,0.52-14.286,0.508c-4.766-0.01-9.509-0.18-14.277-0.097
		c-9.62,0.166-19.23,0.499-28.833,1.055c-4.83,0.278-9.638,0.463-14.477,0.427c-4.839-0.037-9.669,0.319-14.506,0.268
		c-4.72-0.051-9.396-0.564-14.126-0.488c-4.885,0.076-9.764,0.365-14.647,0.498c-4.843,0.133-9.667,0.299-14.506,0.526
		c-4.788,0.226-9.547-0.208-14.333-0.056c-1.005,0.032-3.086-0.325-3.718,0.479c1.167,1.159,3.431,0.768,4.916,0.814
		c2.222,0.067,4.432,0.304,6.653,0.385c4.411,0.164,8.86-0.11,13.279-0.046c4.451,0.063,8.903,0.056,13.353,0.151
		c2.324,0.05,4.647,0.141,6.966,0.309c2.173,0.158,4.363,0.582,6.54,0.574c4.414-0.016,8.876,0.138,13.285,0.352
		c4.453,0.219,8.826,0.882,13.295,0.818c4.438-0.064,8.853-0.63,13.291-0.658c4.48-0.029,8.996,0.092,13.448-0.536
		c0.1,1.824-0.318,3.776-0.127,5.56c0.223,2.078,0.51,4.152,0.766,6.228c0.5,4.053,0.978,7.704,2.886,11.372
		c1.632,3.138,3.911,5.706,6.426,8.161c2.645,2.578,6.048,4.293,9.438,5.703c7.265,3.018,15.355,3.962,23.179,3.747
		c4.201-0.116,7.978-1.305,11.928-2.682c3.598-1.255,6.655-3.379,9.837-5.419c0.659-1.137,1.14-2.365,1.792-3.507
		c0.701-1.226,1.649-2.273,2.407-3.461c0.33-0.517,0.621-1.062,0.827-1.641c0.23-0.648,0.162-1.378,0.636-1.903
		c1.106-1.223,1.43-2.953,1.869-4.488c0.439-1.534,0.832-3.088,1.018-4.676c0.205-1.746-0.024-3.553,0.464-5.261
		c0.445-1.558,0.648-2.859,0.768-4.494c0.133-1.811,0.261-3.621,0.391-5.433c3.375-0.001,6.798-0.065,10.167,0.15
		c0.386,3.729,0.998,7.812,2.499,11.269c0.689,1.585,0.793,3.281,1.884,4.693c1.003,1.302,1.563,2.854,1.44,4.508
		c-1.213,2.678-2.576,4.844-2.19,7.901c0.305,2.412,0.39,5.334,2.821,6.613c-0.736,2.305,2.137,4.64,3.308,6.312
		c0.769,1.098,1.232,2.369,1.977,3.486c0.739,1.107,1.602,2.127,2.51,3.097c1.818,1.945,3.646,3.979,5.776,5.591
		c1.854,1.404,4.664,2.134,5.684,4.398c5.52,2.521,10.921,5.245,16.952,6.313c3.022,0.537,6.104,0.738,9.166,0.502
		c2.831-0.216,5.42-1.343,8.254-1.278c0.484,1.205,0.928,2.31,1.372,3.415c-0.056,0.087-0.114,0.175-0.17,0.261
		c0.158,1.925,0.094,3.866,0.374,5.78c0.324,2.216,1.101,4.397,1.678,6.557c1.186,4.425,1.968,8.53,1.673,13.133
		c0.239,0.637,0.489,1.302,0.783,2.089c1.712-0.104,3.544,0.09,5.194-0.43c1.626-0.512,3.312-1.391,4.451-2.681
		c1.205-1.363,1.377-2.988,1.719-4.705c0.438-2.209,0.969-4.378,1.104-6.637c0.248-4.133-1.215-7.854-2.615-11.681
		c-0.753-2.063-1.658-4.067-2.524-6.085c-0.761-1.778-2.009-3.914-0.853-5.793c3.549-2.563,6.99-5.249,9.783-8.649
		c2.975-3.628,4.991-7.268,6.275-11.785c0.611-2.146,1.195-4.304,1.7-6.477c0.553-2.382,1.364-4.714,1.854-7.102
		c0.966-4.716,0.92-9.326-0.059-14.012c-0.944-2.539-1.421-5.191-2.347-7.721c1.979,0.004,10.053,0.334,12.1,0.258
		c2.38-0.091,4.756,0.525,7.123,0.215c0.339,5.935,0.587,12.028,2.423,17.729c1.545,4.801,4.186,10.449,8.814,12.962
		c2.339,1.27,4.425,2.686,6.359,4.526c0.896,0.852,1.815,1.721,2.429,2.807c0.712,1.266,0.7,2.678,1.074,4.047
		c0.653,2.394,1.94,5.274,3.783,6.981c1.829,1.692,4.351,2.126,6.762,2.072c1.77-1.045,3.549-1.558,4.69-3.419
		c1.24-2.03,1.64-4.689,2.312-6.948c2.104-1.808,4.15-3.689,6.309-5.433c1.96-1.584,3.676-3.084,5.199-5.111
		c1.541-2.056,2.612-3.906,2.97-6.478c0.32-2.302,3.715-18.382,3.668-20.017c-0.046-1.568-0.429-3.143-0.612-4.7
		c0.289,0.022,9.672-0.132,11.062-0.115c1.678,0.019,3.359-0.122,5.032,0.042c2.93,0.287,5.805-0.453,8.788-0.057
		c0.951-0.206,7.614-0.044,7.649-0.029c4.437-0.105,8.476-0.201,12.892-0.307c0.076-0.041,6.152,0.053,8.809-0.405
		c2.79-0.481,5.642-0.504,8.464-0.616c5.87-0.236,11.657-0.348,17.492-1.104c1.217-0.157,2.439-0.379,3.666-0.458
		c1.433-0.093,2.863,0.188,4.302,0.153c2.96-0.072,5.928-0.396,8.888-0.535c2.819-0.135,5.639-0.533,8.449-0.789
		c1.55-0.14,3.1-0.282,4.646-0.426c1.465-0.135,2.997-0.113,4.363-0.671C471.194,292.621,471.097,292.422,470.996,292.422
		C468.211,292.397,471.097,292.422,470.996,292.422z M110.278,309.206c0.313-1.624-0.06-3.273,0.08-4.906
		c0.137-1.604,0.093-3.06-0.081-4.665c0.444,0.019,0.938,0.035,1.435,0.035c0.414,3.569,0.121,7.575-0.976,10.39
		C110.532,309.695,110.236,309.418,110.278,309.206C110.626,307.398,110.236,309.418,110.278,309.206z M133.062,333.746
		c0.004,0.139-0.133,0.282-0.341,0.693c-1.267-0.315-2.409-0.6-3.669-0.913c-0.825-2.21-1.265-4.551-2.458-6.862
		c-1.357,1.614-0.538,3.466-1.238,5.053c-1.847-0.312-3.255-1.375-4.857-2.217c-1.353-2.697-0.517-5.635-0.861-8.759
		c-0.773-0.658-1.715-1.46-2.94-2.503c-0.496,1.958-0.905,3.573-1.31,5.167c-2.214-1.195-3.54-4.006-3.553-7.737
		c0.821,0.582,0.715,1.956,2.095,2.031c1.542-0.603,1.322-3.498,1.452-4.806c0.549-0.276,0.967-0.487,1.478-0.742
		c0.582-3.731-0.396-7.584,0.573-11.378c0.409,0.288,0.777,0.551,1.205,0.854c0.683-0.542,0.943-1.199,1.052-1.893
		c3.502,0.137,6.968-0.231,10.456-0.123c0.506,2.674,1,5.32,1.405,8.015c0.42,2.799,1.478,5.529,1.656,8.345
		C133.581,321.922,132.893,327.81,133.062,333.746C133.066,333.885,132.933,329.214,133.062,333.746z M161.389,329.684
		c0.237,1.44,0.494,4.827-1.657,4.851c-0.562-1.754,0.587-3.253,0.681-5.001c-0.312-1.179-1.008-2.191-2.287-2.97
		c-0.476,0.572-0.944,1.136-1.347,1.62c-0.598-1.788-1.184-3.545-1.898-5.683c-0.994,1.79-0.993,4.528-1.145,6.539
		c-0.091,1.216-0.409,2.545-0.322,3.756c0.096,1.334,0.559,2.645-0.236,3.874c-1.203,0.542-2.593,0.642-4.16,0.689
		c0.834-1.135,1.561-2.124,2.282-3.105c-0.181-2.212-0.696-4.364-1.218-6.524c-0.248-1.024-0.472-2.102-0.874-3.079
		c-0.464-1.127-1.238-2.099-1.84-3.15c-1.537,1.925-1.221,4.323-1.097,6.618c0.154,2.874,0.351,5.746,0.523,8.621
		c-0.768,0.729-1.638,0.469-2.527,0.458c-1.607-2.283-1.54-5.186-3.097-7.677c-1.618,1.929-1.557,4.286-2.482,6.294
		c-0.775,0.57-1.566,0.497-2.42-0.056c0-1.378,0.301-2.7,0.317-4.079c0.019-1.58-0.238-3.15-0.639-4.677
		c-0.351-1.328-0.91-2.611-1.049-3.987c-0.162-1.589,0.154-3.218,0.224-4.807c0.136-3.084,0.52-6.155-0.021-9.215
		c-0.559-3.163-0.751-6.28-0.82-9.491c0.353-0.042,0.705-0.097,1.056-0.163c0.131,1.281,0.349,2.594,0.733,4.02
		c1.229-1.453,1.425-2.936,1.702-4.291c1.287,0.042,2.574,0.089,3.861,0.135c-1.548,1.056-1.019,4.26-1.064,5.872
		c-0.063,2.276-0.011,4.477,0.161,6.748c0.168,2.199,0.328,4.415,0.093,6.616c-0.226,2.113-0.946,3.999-0.946,6.14
		c0.13,0.093,0.261,0.186,0.391,0.278c1.328-1.418,3.559-1.512,4.576-3.318c-0.692-1.795-1.134-3.551-1.134-5.481
		c0.001-1.961,0.067-3.938-0.243-5.881c-0.301-1.897-1.114-3.583-0.834-5.549c0.209-1.464,1.939-4.022,0.736-5.378
		c1.225,0.037,2.447,0.066,3.672,0.07c-0.567,1.916,0.422,3.787,0.295,5.758c-0.116,1.804-0.283,3.556-0.107,5.364
		c0.42-0.195,1.071-0.301,1.386-0.675c0.564-0.671,1.002-1.433,1.491-2.156c0-2.872-0.194-5.656,0.792-8.408
		c2.882-0.211,5.749-0.584,8.623-0.891c0.301,4.242,0.06,8.584,0.735,12.786c0.318,1.983,0.309,3.979,0.535,5.971
		c0.222,1.951,0.493,3.897,0.737,5.848C161.194,324.76,160.981,327.195,161.389,329.684
		C161.567,330.765,160.981,327.195,161.389,329.684z M171.463,300.531c-0.408,4.955-0.471,9.964-0.744,14.93
		c-0.135,2.462,0.122,4.864-0.167,7.326c-0.194,1.668-0.662,4.884-2.695,5.235c0.208-2.673,0.433-5.324,0.807-7.98
		c0.177-1.249,0.424-2.473,0.199-3.731c-0.218-1.222-0.712-2.378-1.163-3.526c-2.295,3.256-2.686,7.545-3.369,11.343
		c-0.542-0.643-0.87-1.031-0.932-1.105c0.072-4.127,0.101-8.233,0.069-12.358c-0.014-1.929,0.789-3.813,0.909-5.755
		c0.136-2.18-0.306-4.284-0.544-6.439c2.564,0.007,5.111-0.314,7.678-0.197C171.535,299.019,171.525,299.771,171.463,300.531
		C171.149,304.347,171.525,299.771,171.463,300.531z M176.09,305.087c-0.795,2.084-0.741,4.567-1.283,6.747
		c-0.485,1.95-0.749,4.513-1.967,6.11c-0.671-2.879,0.338-5.964,0.674-8.856c0.417-3.593-0.479-7.227-0.14-10.85
		c1.03-0.121,2.05-0.295,3.084-0.391C176.674,300.297,176.994,302.723,176.09,305.087
		C175.866,305.673,176.823,303.17,176.09,305.087z M202.879,330.487c-1.354,0.132-2.357-2.292-2.978-3.195
		c-0.149-0.886,0.195-1.534,1.052-2.077c0.373,0.144,0.798,0.309,1.201,0.464c0.317,0.887,0.613,1.708,0.977,2.721
		C203.044,329.117,202.961,329.793,202.879,330.487C201.728,330.6,202.961,329.793,202.879,330.487z M265.637,372.68
		c0.534,1.979,1.01,3.973,1.403,5.983c0.32,1.636,0.873,3.459-0.484,4.787c-0.239,0.092-1.851,1.344-2.144,1.869
		c-1.143-1.329-1.061-3.813-1.562-5.5c-0.602-2.022-1.585-3.85-2.065-5.936c-0.454-1.972-0.676-4.056-1.211-5.984
		c-0.586-2.112-1.187-4.219-1.782-6.328c-0.691-0.738-1.231-1.314-1.857-1.984c0.62-0.711,1.272-1.201,2.19-1.286
		c0.702,0.499,1.392,0.99,2.18,1.549c0.976,2.494,0.949,5.589,3.447,7.424C264.405,369.121,265.144,370.867,265.637,372.68
		C266.317,375.196,265.144,370.867,265.637,372.68z M279.267,314.524c-0.245,3.41-0.528,7.581-2.429,10.528
		c-0.892-1.827-0.391-3.54-0.878-5.402c-0.363-1.386-1.16-3.336-2.819-3.461c-1.257,1.976-2.497,4.779-1.613,7.124
		c0.84,2.228,2.804,3.333,4.35,4.92c-0.118,2.728-3.132,10.602-4.816,12.487c-0.537-0.585-1.06-1.157-1.796-1.968
		c-0.672-0.243-1.619-0.589-2.653-0.967c-0.581,0.856-1.06,1.557-1.57,2.309c1.118,1.512,2.627,2.345,4.089,3.41
		c-1.149,1.662-2.539,3.037-4.255,4.311c-1.753-1.332-2.077-3.6-3.771-5.146c-0.531-0.104-0.84,0.051-1.359,0.231
		c-0.111,0.637-0.217,1.242-0.318,1.85c0.718,0.845,1.389,1.628,2.028,2.373c0.874,0.35,1.684,0.674,2.659,1.063
		c-1.532,2.438-3.929,3.447-6.396,4.729c-2.609-2.362-5.244-4.523-8.066-6.627c-0.782,0.524-1.48,0.99-2.274,1.522
		c0.374,0.815,0.735,1.63,1.083,2.457c2.804,0.997,5.484,1.95,8.155,2.9c-2.376,3.274-9.409,5.787-17.413,4.82
		c-0.991-0.861-2.056-1.783-3.163-2.744c-0.449,0.392-0.738,0.646-1.013,0.886c0.062,0.599,0.119,1.116,0.189,1.789
		c-2.833-0.216-5.658-0.925-8.07-2.472c-2.808-1.801-5.16-4.375-7.593-6.633c-1.148-1.063-2.212-2.176-3.541-3.014
		c-1.334-0.844-2.545-1.868-3.639-3.003c-2.109-2.189-3.786-4.744-5.471-7.261c0.833-0.334,1.51-0.606,2.194-0.883
		c0.151-1.088-0.593-2.229,0.269-3.265c3.114,1.829,6.289,3.392,10.008,3.409c1.889,0.008,3.583,0.483,5.394,0.933
		c1.852,0.461,3.89,0.496,5.785,0.374c3.763-0.239,7.419-1.318,10.997-2.443c3.457-1.086,6.762-2.291,9.917-4.104
		c1.479-0.853,2.909-1.791,4.284-2.802c1.518-1.113,3.121-2.055,4.646-3.144c2.691-1.912,4.673-4.876,6.935-7.247
		c1.095-1.147,2.479-1.878,3.599-2.969c1.287-1.252,2.104-2.903,2.884-4.496c1.591-3.26,2.865-6.731,2.995-10.395
		c0-0.004,0.003-0.01,0.003-0.015c0.268,0.018,0.538,0.03,0.808,0.047c0.372,0.765,0.689,1.417,0.953,1.958
		C279.022,305.203,279.61,309.796,279.267,314.524C279.187,315.636,279.375,313.02,279.267,314.524z M354.483,303.735
		c-0.147,4.999-0.708,9.796-2.126,14.602c-0.631,2.134-1.296,4.282-2.373,6.24c-1.163,2.113-2.884,3.733-4.663,5.328
		c-1.683,1.508-3.594,2.78-5.208,4.359c-1.549,1.513-2.741,3.342-3.673,5.288c-0.927,1.934-1.452,4.094-2.624,5.905
		c-1.009,1.56-1.951,2.127-3.726,2.451c-0.767-0.416-1.466-0.795-2.242-1.217c-2.238-2.689-1.993-6.254-3.313-9.859
		c-2.479-2.834-4.797-5.718-8.021-7.748c-1.484-0.936-3.117-1.602-4.471-2.742c-1.348-1.135-2.421-2.555-3.315-4.065
		c-4.109-6.943-5.11-15.138-5.496-23.056c0.173,0.086,6.142-0.224,6.255-0.093c-0.006,3.331,0.354,5.938,0.646,9.25
		c0.148,1.698,0.137,3.534,0.583,5.187c0.485,1.789,1.232,3.514,1.814,5.272c1.019,3.066,3.641,5.077,5.895,7.236
		c2.344,2.245,4.629,4.974,7.377,6.705c-0.442-2.131-1.892-3.624-3.268-5.207c-1.788-2.055-3.427-4.282-5.134-6.407
		c-0.681-3.356-0.864-6.949-0.453-10.355c0.106-0.872,0.736-4.354,0.669-5.262c-0.135-1.845-1.089-5.93-1.234-6.081
		c0.009-0.188,0.009-0.368,0.012-0.551c0.184-0.072,2.165,0.1,2.956,0.248c0.432,6.413,0.552,13.276,2.479,19.453
		c0.881,2.828,2.303,5.452,3.919,7.925c1.608,2.457,2.562,5.394,4.743,7.438c0.812-2.838-0.771-5.088-1.987-7.535
		c-1.299-2.614-1.691-5.533-2.338-8.348c-0.735-3.203,0.289-6.065,0.598-9.231c0.327-3.349,0.646-6.686,0.779-10.048
		c1.349,0.075,2.697,0.155,4.046,0.183c-0.155,2.832-0.273,5.677-0.07,8.511c0.219,3.08,0.892,6.031,1.357,9.069
		c0.452,2.951,0.476,5.992,0.452,8.971c-0.023,2.681-0.396,6.116,0.966,8.492c2.049-1.994,2.122-4.49,2.347-7.19
		c0.263-3.133-0.432-6.17-0.266-9.274c0.076-1.418,0.521-2.676,0.459-4.104c-0.076-1.745-0.041-3.496,0.031-5.242
		c0.129-3.123,0.285-6.236,0.33-9.363c1.653-0.069,3.307-0.15,4.959-0.242c0.012,3.242-0.198,6.515,0.073,9.747
		c0.289,3.438,1.184,6.827,1.355,10.267c0.147,2.96-0.57,5.864-2.305,8.292c-0.954,1.335-1.822,2.727-2.679,4.126
		c-0.809,1.323-1.928,2.652-1.979,4.267c2.589-1.772,4.734-4.321,6.173-7.103c0.666-1.281,1.13-2.66,1.933-3.87
		c0.883-1.334,1.81-2.37,2.146-3.991c0.318-1.539,0.283-3.186,0.417-4.75c0.159-1.868,0.321-3.739,0.292-5.612
		c-0.06-3.908,0.387-7.789,0.359-11.692c0.927,0.209,2.188-0.152,3.147-0.174c1.099-0.025,2.199-0.01,3.298-0.059
		C354.49,299.954,354.539,301.841,354.483,303.735C354.35,308.211,354.539,301.841,354.483,303.735z"/>
</g>
</svg>
